<svg xmlns="http://www.w3.org/2000/svg" width="899" height="921" viewBox="0 0 899 921" role="img" aria-labelledby="title desc">
  <title id="title">Nur logo loop frame 081</title>
  <desc id="desc">Vector-traced frame from Nur_Logo_Loop_02.gif.</desc>
  <g id="frame-081" stroke-linejoin="round" stroke-linecap="round" stroke-width="0.5" shape-rendering="geometricPrecision">
    <path fill="#008136" stroke="#008136" d="M 181.5 50.5 C 174.5 59.33 157.83 80 142.5 103.5 C 127.17 127 101.67 169.33 89.5 191.5 C 77.33 213.67 76.67 216.5 69.5 236.5 C 62.33 256.5 50.17 297.33 46.5 311.5 C 42.83 325.67 47.83 319.67 47.5 321.5 C 47.17 323.33 45.67 317.17 44.5 322.5 C 43.33 327.83 40.83 345.5 40.5 353.5 C 40.17 361.5 42.67 367.5 42.5 370.5 C 42.33 373.5 40.67 355.5 39.5 371.5 C 38.33 387.5 33.67 437.67 35.5 466.5 C 37.33 495.33 43.83 518 50.5 544.5 C 57.17 571 66.33 602 75.5 625.5 C 84.67 649 94.83 667 105.5 685.5 C 116.17 704 125.67 718.67 139.5 736.5 C 153.33 754.33 171.67 776 188.5 792.5 C 205.33 809 222.67 823.17 240.5 835.5 C 258.33 847.83 273.83 856.83 295.5 866.5 C 317.17 876.17 345.83 886.67 370.5 893.5 C 395.17 900.33 423 905.17 443.5 907.5 C 464 909.83 486.67 911.67 493.5 907.5 C 500.33 903.33 487.17 893.17 484.5 882.5 C 481.83 871.83 478.83 856.67 477.5 843.5 C 476.17 830.33 477.33 813.83 476.5 803.5 C 475.67 793.17 472.83 791.83 472.5 781.5 C 472.17 771.17 475.33 761.17 474.5 741.5 C 473.67 721.83 470.5 686.67 467.5 663.5 C 464.5 640.33 459.83 617.67 456.5 602.5 C 453.17 587.33 452 584 447.5 572.5 C 443 561 437.33 547.67 429.5 533.5 C 421.67 519.33 411.33 500.83 400.5 487.5 C 389.67 474.17 378.33 465.33 364.5 453.5 C 350.67 441.67 333.5 430.5 317.5 416.5 C 301.5 402.5 283.5 386.17 268.5 369.5 C 253.5 352.83 237.33 330.33 227.5 316.5 C 217.67 302.67 213.17 293.83 209.5 286.5 C 205.83 279.17 207 275.67 205.5 272.5 C 204 269.33 201.17 269.17 200.5 267.5 C 199.83 265.83 201.83 263.5 201.5 262.5 C 201.17 261.5 200.83 268.67 198.5 261.5 C 196.17 254.33 189.83 226.67 187.5 219.5 C 185.17 212.33 186.33 231.17 184.5 218.5 C 182.67 205.83 176.5 171.5 176.5 143.5 C 176.5 115.5 183.67 66 184.5 50.5 C 185.33 35 188.5 41.67 181.5 50.5 Z"/>
    <path fill="#83bb26" stroke="#83bb26" d="M 429.5 516.5 C 429 515.67 424.5 519 423.5 520.5 C 422.5 522 423 524.67 423.5 525.5 C 424 526.33 425.5 527 426.5 525.5 C 427.5 524 430 517.33 429.5 516.5 Z M 704.5 22.5 C 696.33 16.83 697.17 18.33 702.5 24.5 C 707.83 30.67 723.67 41.17 736.5 59.5 C 749.33 77.83 770.17 115.5 779.5 134.5 C 788.83 153.5 790 159.33 792.5 173.5 C 795 187.67 796.17 203.33 794.5 219.5 C 792.83 235.67 789.33 254.5 782.5 270.5 C 775.67 286.5 767.17 299.83 753.5 315.5 C 739.83 331.17 721.5 348.67 700.5 364.5 C 679.5 380.33 637.5 392.83 627.5 410.5 C 617.5 428.17 637.5 451.33 640.5 470.5 C 643.5 489.67 644.67 507.33 645.5 525.5 C 646.33 543.67 646.5 563.67 645.5 579.5 C 644.5 595.33 634.67 616.67 639.5 620.5 C 644.33 624.33 659.83 611.5 674.5 602.5 C 689.17 593.5 711 578.83 727.5 566.5 C 744 554.17 761 539.67 773.5 528.5 C 786 517.33 793 510.67 802.5 499.5 C 812 488.33 821.83 475.17 830.5 461.5 C 839.17 447.83 847.83 432.17 854.5 417.5 C 861.17 402.83 866.67 387 870.5 373.5 C 874.33 360 876.67 355.5 877.5 336.5 C 878.33 317.5 877.67 279 875.5 259.5 C 873.33 240 869.33 232.67 864.5 219.5 C 859.67 206.33 858.67 201 846.5 180.5 C 834.33 160 807.33 116.83 791.5 96.5 C 775.67 76.17 766 70.83 751.5 58.5 C 737 46.17 712.67 28.17 704.5 22.5 Z"/>
    <path fill="#6ab12d" stroke="#6ab12d" d="M 501.5 130.5 C 495.33 120.83 497.33 124.83 499.5 134.5 C 501.67 144.17 510.17 168 514.5 188.5 C 518.83 209 523.5 238.67 525.5 257.5 C 527.5 276.33 527.17 287.67 526.5 301.5 C 525.83 315.33 523.83 328 521.5 340.5 C 519.17 353 516.67 364.33 512.5 376.5 C 508.33 388.67 510.83 389.33 496.5 413.5 C 482.17 437.67 439 503.17 426.5 521.5 C 414 539.83 422 522.5 421.5 523.5 C 421 524.5 422.5 526.83 423.5 527.5 C 424.5 528.17 425.67 529.83 427.5 527.5 C 429.33 525.17 424.83 521.5 434.5 513.5 C 444.17 505.5 453.67 496 485.5 479.5 C 517.33 463 599.5 412.83 625.5 414.5 C 651.5 416.17 638.33 463.33 641.5 489.5 C 644.67 515.67 644.83 550.83 644.5 571.5 C 644.17 592.17 641 605 639.5 613.5 C 638 622 647 615.83 635.5 622.5 C 624 629.17 587.33 644.67 570.5 653.5 C 553.67 662.33 547.83 665.67 534.5 675.5 C 521.17 685.33 500.5 700.67 490.5 712.5 C 480.5 724.33 476.83 728.5 474.5 746.5 C 472.17 764.5 473.33 793.67 476.5 820.5 C 479.67 847.33 489.17 894.33 493.5 907.5 C 497.83 920.67 494.67 910 502.5 899.5 C 510.33 889 525.17 868.83 540.5 844.5 C 555.83 820.17 579.83 783.5 594.5 753.5 C 609.17 723.5 620.67 687 628.5 664.5 C 636.33 642 638.5 632.33 641.5 618.5 C 644.5 604.67 646.17 604.33 646.5 581.5 C 646.83 558.67 646.33 509.5 643.5 481.5 C 640.67 453.5 632.67 425.83 629.5 413.5 C 626.33 401.17 627.33 415.33 624.5 407.5 C 621.67 399.67 620.5 388.67 612.5 366.5 C 604.5 344.33 589.17 303.5 576.5 274.5 C 563.83 245.5 549 216.5 536.5 192.5 C 524 168.5 507.67 140.17 501.5 130.5 Z"/>
    <path fill="#009f3a" stroke="#009f3a" d="M 475.5 806.5 C 472.83 798.83 476.83 847.33 478.5 861.5 C 480.17 875.67 482.83 883.83 485.5 891.5 C 488.17 899.17 496.17 921.67 494.5 907.5 C 492.83 893.33 478.17 814.17 475.5 806.5 Z M 627.5 413.5 C 601.33 414.67 516 462 483.5 478.5 C 451 495 442.17 504.5 432.5 512.5 C 422.83 520.5 427.33 524.83 425.5 526.5 C 423.67 528.17 418 514.5 421.5 522.5 C 425 530.5 440 556.83 446.5 574.5 C 453 592.17 456 600.33 460.5 628.5 C 465 656.67 471.67 717.67 473.5 743.5 C 475.33 769.33 471.33 773.33 471.5 783.5 C 471.67 793.67 473.83 810.33 474.5 804.5 C 475.17 798.67 472.67 763.5 475.5 748.5 C 478.33 733.5 485.17 723.67 491.5 714.5 C 497.83 705.33 503.17 701.67 513.5 693.5 C 523.83 685.33 532.5 677.67 553.5 665.5 C 574.5 653.33 624.17 635.83 639.5 620.5 C 654.83 605.17 644.67 590.67 645.5 573.5 C 646.33 556.33 645.33 534.5 644.5 517.5 C 643.67 500.5 643.33 488.83 640.5 471.5 C 637.67 454.17 653.67 412.33 627.5 413.5 Z"/>
    <path fill="#007a39" stroke="#007a39" d="M 423.5 531.5 C 420.67 536.67 414 550 409.5 562.5 C 405 575 399.33 595.5 396.5 606.5 C 393.67 617.5 393.17 619 392.5 628.5 C 391.83 638 391 651.33 392.5 663.5 C 394 675.67 396.83 686.83 401.5 701.5 C 406.17 716.17 408.17 723.67 420.5 751.5 C 432.83 779.33 465.5 848.17 475.5 868.5 C 485.5 888.83 481.17 886.17 480.5 873.5 C 479.83 860.83 473 817.33 471.5 792.5 C 470 767.67 473 749.83 471.5 724.5 C 470 699.17 466.33 664.5 462.5 640.5 C 458.67 616.5 454.5 598.67 448.5 580.5 C 442.5 562.33 430.67 539.67 426.5 531.5 C 422.33 523.33 426.33 526.33 423.5 531.5 Z M 315.5 414.5 C 314.67 414.33 318.83 421 320.5 422.5 C 322.17 424 326.33 424.83 325.5 423.5 C 324.67 422.17 316.33 414.67 315.5 414.5 Z M 198.5 260.5 C 198 260.33 198.83 267 199.5 268.5 C 200.17 270 202.67 270.83 202.5 269.5 C 202.33 268.17 199 260.67 198.5 260.5 Z"/>
    <path fill="#007d38" stroke="#007d38" d="M 472.5 800.5 C 472.5 804 475 824 475.5 824.5 C 476 825 476 807.5 475.5 803.5 C 475 799.5 472.5 797 472.5 800.5 Z M 115.5 699.5 C 115.83 700.67 129.17 719.83 131.5 722.5 C 133.83 725.17 132.17 719.33 129.5 715.5 C 126.83 711.67 115.17 698.33 115.5 699.5 Z M 456.5 618.5 C 457 622.17 462 643 462.5 643.5 C 463 644 460.5 625.67 459.5 621.5 C 458.5 617.33 456 614.83 456.5 618.5 Z M 413.5 510.5 C 413 510.67 417.83 517.67 418.5 520.5 C 419.17 523.33 422.67 520.83 417.5 527.5 C 412.33 534.17 395.83 548.67 387.5 560.5 C 379.17 572.33 372.17 586.17 367.5 598.5 C 362.83 610.83 360.33 621.5 359.5 634.5 C 358.67 647.5 359.67 661.17 362.5 676.5 C 365.33 691.83 369.67 708.83 376.5 726.5 C 383.33 744.17 391.5 761.5 403.5 782.5 C 415.5 803.5 433.67 831.83 448.5 852.5 C 463.33 873.17 486.67 901 492.5 906.5 C 498.33 912 485.67 893 483.5 885.5 C 481.33 878 481 865.5 479.5 861.5 C 478 857.5 486 884.67 474.5 861.5 C 463 838.33 424 755.83 410.5 722.5 C 397 689.17 396.33 676.83 393.5 661.5 C 390.67 646.17 392.83 639.33 393.5 630.5 C 394.17 621.67 394.67 619.5 397.5 608.5 C 400.33 597.5 406 576.83 410.5 564.5 C 415 552.17 418.17 531.67 424.5 534.5 C 430.83 537.33 446 578 448.5 581.5 C 451 585 444.17 565.17 439.5 555.5 C 434.83 545.83 423.5 529.5 420.5 523.5 C 417.5 517.5 422.67 521.67 421.5 519.5 C 420.33 517.33 414 510.33 413.5 510.5 Z M 197.5 257.5 C 196.67 257 198.33 267 199.5 269.5 C 200.67 272 204.83 274.5 204.5 272.5 C 204.17 270.5 198.33 258 197.5 257.5 Z M 73.5 235.5 C 73.67 234.33 70.33 236.83 69.5 238.5 C 68.67 240.17 67.83 246 68.5 245.5 C 69.17 245 73.33 236.67 73.5 235.5 Z M 103.5 171.5 C 102.83 171.83 97 181 96.5 182.5 C 96 184 99.33 182.33 100.5 180.5 C 101.67 178.67 104.17 171.17 103.5 171.5 Z M 136.5 116.5 C 135.5 117.33 130.5 125.67 130.5 126.5 C 130.5 127.33 135.5 123.17 136.5 121.5 C 137.5 119.83 137.5 115.67 136.5 116.5 Z"/>
  </g>
</svg>
