<svg xmlns="http://www.w3.org/2000/svg" width="899" height="921" viewBox="0 0 899 921" role="img" aria-labelledby="title desc">
  <title id="title">Nur logo loop frame 013</title>
  <desc id="desc">Vector-traced frame from Nur_Logo_Loop_02.gif.</desc>
  <g id="frame-013" stroke-linejoin="round" stroke-linecap="round" stroke-width="0.5" shape-rendering="geometricPrecision">
    <path fill="#008136" stroke="#008136" d="M 224.5 71.5 C 216.67 77.5 190 100.5 178.5 111.5 C 167 122.5 168.83 117.33 155.5 137.5 C 142.17 157.67 111.83 206.17 98.5 232.5 C 85.17 258.83 79.17 284 75.5 295.5 C 71.83 307 76.83 300.33 76.5 301.5 C 76.17 302.67 76.67 287.17 73.5 302.5 C 70.33 317.83 60.67 365 57.5 393.5 C 54.33 422 53.67 448.67 54.5 473.5 C 55.33 498.33 58.5 519.5 62.5 542.5 C 66.5 565.5 71.33 589.67 78.5 611.5 C 85.67 633.33 94.33 652.33 105.5 673.5 C 116.67 694.67 133.33 720.83 145.5 738.5 C 157.67 756.17 168 767.67 178.5 779.5 C 189 791.33 197.83 800 208.5 809.5 C 219.17 819 228 827 242.5 836.5 C 257 846 274.17 857 295.5 866.5 C 316.83 876 345.83 886.67 370.5 893.5 C 395.17 900.33 423 905.17 443.5 907.5 C 464 909.83 486.67 911.67 493.5 907.5 C 500.33 903.33 487.17 893.17 484.5 882.5 C 481.83 871.83 479.17 867 477.5 843.5 C 475.83 820 476.17 771.5 474.5 741.5 C 472.83 711.5 470.5 686.67 467.5 663.5 C 464.5 640.33 460.83 620.17 456.5 602.5 C 452.17 584.83 447.83 572.17 441.5 557.5 C 435.17 542.83 427 528.17 418.5 514.5 C 410 500.83 408.17 494 390.5 475.5 C 372.83 457 335.5 426.5 312.5 403.5 C 289.5 380.5 268.5 358.5 252.5 337.5 C 236.5 316.5 223.17 290.5 216.5 277.5 C 209.83 264.5 213.67 262.67 212.5 259.5 C 211.33 256.33 209.83 259.67 209.5 258.5 C 209.17 257.33 211.67 256.67 210.5 252.5 C 209.33 248.33 204.67 241.17 202.5 233.5 C 200.33 225.83 197.5 222 197.5 206.5 C 197.5 191 202 152.5 202.5 140.5 C 203 128.5 200.33 135.67 200.5 134.5 C 200.67 133.33 202 139.17 203.5 133.5 C 205 127.83 205.83 110.17 209.5 100.5 C 213.17 90.83 223 80.33 225.5 75.5 C 228 70.67 232.33 65.5 224.5 71.5 Z"/>
    <path fill="#83bb26" stroke="#83bb26" d="M 451.5 486.5 C 449.67 483.83 422.67 506.33 418.5 513.5 C 414.33 520.67 424.67 526.83 426.5 529.5 C 428.33 532.17 425.33 536.67 429.5 529.5 C 433.67 522.33 453.33 489.17 451.5 486.5 Z M 626.5 45.5 C 620.5 44.5 617.83 44.67 629.5 52.5 C 641.17 60.33 680 81 696.5 92.5 C 713 104 718.5 108.83 728.5 121.5 C 738.5 134.17 749.5 152.83 756.5 168.5 C 763.5 184.17 768.17 203.33 770.5 215.5 C 772.83 227.67 771.33 233.33 770.5 241.5 C 769.67 249.67 767.5 257.67 765.5 264.5 C 763.5 271.33 762.5 275.33 758.5 282.5 C 754.5 289.67 752.17 295.83 741.5 307.5 C 730.83 319.17 716 336.17 694.5 352.5 C 673 368.83 622.33 383 612.5 405.5 C 602.67 428 630.83 464.5 635.5 487.5 C 640.17 510.5 639.83 524 640.5 543.5 C 641.17 563 632.17 598.67 639.5 604.5 C 646.83 610.33 667.67 589.5 684.5 578.5 C 701.33 567.5 723.83 551.83 740.5 538.5 C 757.17 525.17 773.33 509.83 784.5 498.5 C 795.67 487.17 798.33 484.33 807.5 470.5 C 816.67 456.67 831.67 431.67 839.5 415.5 C 847.33 399.33 850.83 388 854.5 373.5 C 858.17 359 860.33 344 861.5 328.5 C 862.67 313 862.67 295.17 861.5 280.5 C 860.33 265.83 858.67 254.33 854.5 240.5 C 850.33 226.67 843.17 210 836.5 197.5 C 829.83 185 825.17 178.67 814.5 165.5 C 803.83 152.33 788 131.83 772.5 118.5 C 757 105.17 739.33 95.5 721.5 85.5 C 703.67 75.5 681.33 65.17 665.5 58.5 C 649.67 51.83 632.5 46.5 626.5 45.5 Z"/>
    <path fill="#6ab12d" stroke="#6ab12d" d="M 462.5 143.5 C 457.67 142.67 484.33 179.33 491.5 195.5 C 498.67 211.67 502.5 227.67 505.5 240.5 C 508.5 253.33 509.17 254.5 509.5 272.5 C 509.83 290.5 509.33 328 507.5 348.5 C 505.67 369 511.5 366 498.5 395.5 C 485.5 425 441.5 503.67 429.5 525.5 C 417.5 547.33 428.17 528.33 426.5 526.5 C 424.83 524.67 421 516 419.5 514.5 C 418 513 416.33 514.5 417.5 517.5 C 418.67 520.5 424.5 530 426.5 532.5 C 428.5 535 425.5 539.17 429.5 532.5 C 433.5 525.83 445.67 500.33 450.5 492.5 C 455.33 484.67 448.5 491.67 458.5 485.5 C 468.5 479.33 485 468 510.5 455.5 C 536 443 591.17 406.5 611.5 410.5 C 631.83 414.5 627.83 455.67 632.5 479.5 C 637.17 503.33 638.83 532.5 639.5 553.5 C 640.17 574.5 646.33 592.17 636.5 605.5 C 626.67 618.83 595.67 625.17 580.5 633.5 C 565.33 641.83 556.5 647.67 545.5 655.5 C 534.5 663.33 525.17 670 514.5 680.5 C 503.83 691 488.17 707.83 481.5 718.5 C 474.83 729.17 475.5 731.17 474.5 744.5 C 473.5 757.83 472.17 772.67 475.5 798.5 C 478.83 824.33 491.5 881.17 494.5 899.5 C 497.5 917.83 493.17 907 493.5 908.5 C 493.83 910 482.67 928.67 496.5 908.5 C 510.33 888.33 558.33 817.83 576.5 787.5 C 594.67 757.17 597.5 746.33 605.5 726.5 C 613.5 706.67 618.83 689 624.5 668.5 C 630.17 648 636.67 624.67 639.5 603.5 C 642.33 582.33 642 561.17 641.5 541.5 C 641 521.83 641 508.33 636.5 485.5 C 632 462.67 626 437.17 614.5 404.5 C 603 371.83 583.17 323.5 567.5 289.5 C 551.83 255.5 538 224.83 520.5 200.5 C 503 176.17 467.33 144.33 462.5 143.5 Z"/>
    <path fill="#009f3a" stroke="#009f3a" d="M 475.5 797.5 C 472.5 790.67 476.5 845 478.5 861.5 C 480.5 878 484.83 888.83 487.5 896.5 C 490.17 904.17 493 906.5 494.5 907.5 C 496 908.5 499.67 920.83 496.5 902.5 C 493.33 884.17 478.5 804.33 475.5 797.5 Z M 612.5 408.5 C 592.83 409.5 532 443.5 508.5 454.5 C 485 465.5 481.33 468.5 471.5 474.5 C 461.67 480.5 456.5 481.33 449.5 490.5 C 442.5 499.67 433.5 523 429.5 529.5 C 425.5 536 422.67 522 425.5 529.5 C 428.33 537 440.67 558 446.5 574.5 C 452.33 591 456.67 608.5 460.5 628.5 C 464.33 648.5 467.17 667 469.5 694.5 C 471.83 722 473.17 786.67 474.5 793.5 C 475.83 800.33 475.83 748.33 477.5 735.5 C 479.17 722.67 481.5 722 484.5 716.5 C 487.5 711 487.83 710.33 495.5 702.5 C 503.17 694.67 520.17 678.33 530.5 669.5 C 540.83 660.67 539.67 659.83 557.5 649.5 C 575.33 639.17 623.67 623.83 637.5 607.5 C 651.33 591.17 640.83 571 640.5 551.5 C 640.17 532 637.83 507.67 635.5 490.5 C 633.17 473.33 630.33 462.17 626.5 448.5 C 622.67 434.83 632.17 407.5 612.5 408.5 Z"/>
    <path fill="#007a39" stroke="#007a39" d="M 97.5 654.5 C 98 656.33 104.67 668.83 105.5 669.5 C 106.33 670.17 103.83 661 102.5 658.5 C 101.17 656 97 652.67 97.5 654.5 Z M 87.5 631.5 C 87.83 633.17 92.83 644 93.5 644.5 C 94.17 645 92.5 636.67 91.5 634.5 C 90.5 632.33 87.17 629.83 87.5 631.5 Z M 425.5 535.5 C 422.33 540.33 416.83 555.5 412.5 569.5 C 408.17 583.5 401.67 601.67 399.5 619.5 C 397.33 637.33 397.33 658.67 399.5 676.5 C 401.67 694.33 406.67 708.33 412.5 726.5 C 418.33 744.67 422.67 758.67 434.5 785.5 C 446.33 812.33 476.67 878 483.5 887.5 C 490.33 897 477.5 869.67 475.5 842.5 C 473.5 815.33 473.67 758.17 471.5 724.5 C 469.33 690.83 466.33 664.5 462.5 640.5 C 458.67 616.5 453.67 597.17 448.5 580.5 C 443.33 563.83 435.33 548 431.5 540.5 C 427.67 533 428.67 530.67 425.5 535.5 Z M 212.5 266.5 C 211.17 264.67 211.17 268.83 212.5 271.5 C 213.83 274.17 220.5 283.33 220.5 282.5 C 220.5 281.67 213.83 268.33 212.5 266.5 Z M 145.5 157.5 C 144.5 158.17 136.17 169.83 135.5 171.5 C 134.83 173.17 139.83 169.83 141.5 167.5 C 143.17 165.17 146.5 156.83 145.5 157.5 Z"/>
    <path fill="#007d38" stroke="#007d38" d="M 226.5 822.5 C 227 823.5 232.83 828.5 233.5 828.5 C 234.17 828.5 231.67 823.5 230.5 822.5 C 229.33 821.5 226 821.5 226.5 822.5 Z M 472.5 786.5 C 472.5 791.83 475 823.5 475.5 824.5 C 476 825.5 476 798.83 475.5 792.5 C 475 786.17 472.5 781.17 472.5 786.5 Z M 159.5 754.5 C 159.83 755.5 165.67 762.17 166.5 762.5 C 167.33 762.83 165.67 757.83 164.5 756.5 C 163.33 755.17 159.17 753.5 159.5 754.5 Z M 146.5 736.5 C 146.5 737.17 151.5 744.67 152.5 745.5 C 153.5 746.33 153.5 743 152.5 741.5 C 151.5 740 146.5 735.83 146.5 736.5 Z M 98.5 654.5 C 97.67 654 100.17 662.33 101.5 664.5 C 102.83 666.67 107 669.17 106.5 667.5 C 106 665.83 99.33 655 98.5 654.5 Z M 416.5 518.5 C 411.17 524.5 395.67 542.17 387.5 554.5 C 379.33 566.83 372.33 580.5 367.5 592.5 C 362.67 604.5 359.67 613.17 358.5 626.5 C 357.33 639.83 357.5 655.83 360.5 672.5 C 363.5 689.17 368.67 707.17 376.5 726.5 C 384.33 745.83 391.5 762.17 407.5 788.5 C 423.5 814.83 458.33 864.83 472.5 884.5 C 486.67 904.17 491.33 910.33 492.5 906.5 C 493.67 902.67 482.17 867.83 479.5 861.5 C 476.83 855.17 483.83 881.5 476.5 868.5 C 469.17 855.5 446 807.5 435.5 783.5 C 425 759.5 419.33 742.67 413.5 724.5 C 407.67 706.33 402.67 691.67 400.5 674.5 C 398.33 657.33 398.33 638.67 400.5 621.5 C 402.67 604.33 409 585.33 413.5 571.5 C 418 557.67 421.67 536.83 427.5 538.5 C 433.33 540.17 448.33 582.33 448.5 581.5 C 448.67 580.67 433.33 544 428.5 533.5 C 423.67 523 421.5 521 419.5 518.5 C 417.5 516 421.83 512.5 416.5 518.5 Z M 208.5 255.5 C 207.5 254.33 207.5 258.5 208.5 260.5 C 209.5 262.5 214.5 268.33 214.5 267.5 C 214.5 266.67 209.5 256.67 208.5 255.5 Z M 96.5 242.5 C 95.5 243.5 89.67 256 89.5 257.5 C 89.33 259 94.33 254 95.5 251.5 C 96.67 249 97.5 241.5 96.5 242.5 Z M 201.5 230.5 C 200.83 230.17 200.83 234.33 201.5 235.5 C 202.17 236.67 205.5 238.33 205.5 237.5 C 205.5 236.67 202.17 230.83 201.5 230.5 Z"/>
  </g>
</svg>
