<svg xmlns="http://www.w3.org/2000/svg" width="899" height="921" viewBox="0 0 899 921" role="img" aria-labelledby="title desc">
  <title id="title">Nur logo loop frame 075</title>
  <desc id="desc">Vector-traced frame from Nur_Logo_Loop_02.gif.</desc>
  <g id="frame-075" stroke-linejoin="round" stroke-linecap="round" stroke-width="0.5" shape-rendering="geometricPrecision">
    <path fill="#008136" stroke="#008136" d="M 179.5 51.5 C 170.83 61.5 146.83 89.33 131.5 111.5 C 116.17 133.67 95.17 170.83 87.5 184.5 C 79.83 198.17 86.67 191.33 85.5 193.5 C 84.33 195.67 85.5 186.17 80.5 197.5 C 75.5 208.83 62.17 241.5 55.5 261.5 C 48.83 281.5 42.67 306.83 40.5 317.5 C 38.33 328.17 42.67 324 42.5 325.5 C 42.33 327 39.83 324.5 39.5 326.5 C 39.17 328.5 40.83 335.5 40.5 337.5 C 40.17 339.5 38.83 316.5 37.5 338.5 C 36.17 360.5 31 436.33 32.5 469.5 C 34 502.67 43.67 525.83 46.5 537.5 C 49.33 549.17 49.17 538.33 49.5 539.5 C 49.83 540.67 44.17 530.17 48.5 544.5 C 52.83 558.83 66 602 75.5 625.5 C 85 649 94.83 667 105.5 685.5 C 116.17 704 125.67 718.67 139.5 736.5 C 153.33 754.33 171.67 776 188.5 792.5 C 205.33 809 222.67 823.17 240.5 835.5 C 258.33 847.83 273.83 856.83 295.5 866.5 C 317.17 876.17 345.83 886.67 370.5 893.5 C 395.17 900.33 423 905.17 443.5 907.5 C 464 909.83 486.67 911.67 493.5 907.5 C 500.33 903.33 487.17 893.17 484.5 882.5 C 481.83 871.83 479 864 477.5 843.5 C 476 823 477.17 789.5 475.5 759.5 C 473.83 729.5 470.67 689.67 467.5 663.5 C 464.33 637.33 459.83 617.67 456.5 602.5 C 453.17 587.33 452.33 584.67 447.5 572.5 C 442.67 560.33 435.33 543.67 427.5 529.5 C 419.67 515.33 411 500.17 400.5 487.5 C 390 474.83 378.33 465.33 364.5 453.5 C 350.67 441.67 333.5 430.5 317.5 416.5 C 301.5 402.5 286.5 389.67 268.5 369.5 C 250.5 349.33 223 316.83 209.5 295.5 C 196 274.17 191.67 250.67 187.5 241.5 C 183.33 232.33 186.67 248.33 184.5 240.5 C 182.33 232.67 176.67 211.5 174.5 194.5 C 172.33 177.5 170 162.33 171.5 138.5 C 173 114.67 182.17 66 183.5 51.5 C 184.83 37 188.17 41.5 179.5 51.5 Z"/>
    <path fill="#83bb26" stroke="#83bb26" d="M 730.5 15.5 C 722.83 9 722.83 10.67 726.5 17.5 C 730.17 24.33 741.83 36.83 752.5 56.5 C 763.17 76.17 782.83 115.33 790.5 135.5 C 798.17 155.67 797.33 162.67 798.5 177.5 C 799.67 192.33 800 207.5 797.5 224.5 C 795 241.5 790.83 263 783.5 279.5 C 776.17 296 763.5 311.17 753.5 323.5 C 743.5 335.83 733.5 344.5 723.5 353.5 C 713.5 362.5 709 367.33 693.5 377.5 C 678 387.67 638.83 398.67 630.5 414.5 C 622.17 430.33 640.83 457.5 643.5 472.5 C 646.17 487.5 646 490.5 646.5 504.5 C 647 518.5 648.17 536.17 646.5 556.5 C 644.83 576.83 631.17 618.5 636.5 626.5 C 641.83 634.5 662.5 614.17 678.5 604.5 C 694.5 594.83 716.33 580.17 732.5 568.5 C 748.67 556.83 763 545.33 775.5 534.5 C 788 523.67 798.17 514 807.5 503.5 C 816.83 493 822.83 485.33 831.5 471.5 C 840.17 457.67 851.33 440.17 859.5 420.5 C 867.67 400.83 876.5 369.67 880.5 353.5 C 884.5 337.33 883.33 337.33 883.5 323.5 C 883.67 309.67 883.17 285.33 881.5 270.5 C 879.83 255.67 877.67 247.67 873.5 234.5 C 869.33 221.33 863.33 207 856.5 191.5 C 849.67 176 840.83 157.17 832.5 141.5 C 824.17 125.83 816.5 111.67 806.5 97.5 C 796.5 83.33 785.17 70.17 772.5 56.5 C 759.83 42.83 738.17 22 730.5 15.5 Z"/>
    <path fill="#6ab12d" stroke="#6ab12d" d="M 510.5 130.5 C 498 106.83 506.33 124 508.5 135.5 C 510.67 147 519.67 177.83 523.5 199.5 C 527.33 221.17 530.17 248.33 531.5 265.5 C 532.83 282.67 532.5 289.17 531.5 302.5 C 530.5 315.83 528.67 330.83 525.5 345.5 C 522.33 360.17 516.17 379.83 512.5 390.5 C 508.83 401.17 514.5 393.17 503.5 409.5 C 492.5 425.83 459.83 469 446.5 488.5 C 433.17 508 426.5 519.67 423.5 526.5 C 420.5 533.33 426.33 531.17 428.5 529.5 C 430.67 527.83 425.5 524.83 436.5 516.5 C 447.5 508.17 462.83 495.67 494.5 479.5 C 526.17 463.33 602 418.33 626.5 419.5 C 651 420.67 638.67 463.17 641.5 486.5 C 644.33 509.83 644.67 536.5 643.5 559.5 C 642.33 582.5 647.33 608 634.5 624.5 C 621.67 641 585 648.5 566.5 658.5 C 548 668.5 535.83 675.83 523.5 684.5 C 511.17 693.17 499.67 702.5 492.5 710.5 C 485.33 718.5 483.5 725.67 480.5 732.5 C 477.5 739.33 475.33 740.83 474.5 751.5 C 473.67 762.17 472.17 772.5 475.5 796.5 C 478.83 820.5 491.5 877 494.5 895.5 C 497.5 914 490.5 909.17 493.5 907.5 C 496.5 905.83 501.33 901.17 512.5 885.5 C 523.67 869.83 546 837.33 560.5 813.5 C 575 789.67 587.5 769.67 599.5 742.5 C 611.5 715.33 624.5 681.17 632.5 650.5 C 640.5 619.83 645.17 586.17 647.5 558.5 C 649.83 530.83 650.33 513 646.5 484.5 C 642.67 456 635 422 624.5 387.5 C 614 353 602.5 320.33 583.5 277.5 C 564.5 234.67 523 154.17 510.5 130.5 Z"/>
    <path fill="#009f3a" stroke="#009f3a" d="M 475.5 795.5 C 472.67 790.17 476.33 844 478.5 861.5 C 480.67 879 485.83 892.83 488.5 900.5 C 491.17 908.17 493.33 908.67 494.5 907.5 C 495.67 906.33 498.67 912.17 495.5 893.5 C 492.33 874.83 478.33 800.83 475.5 795.5 Z M 628.5 418.5 C 603.83 419.83 522.83 463.83 492.5 478.5 C 462.17 493.17 456.67 499.83 446.5 506.5 C 436.33 513.17 434.83 515 431.5 518.5 C 428.17 522 427.83 526.33 426.5 527.5 C 425.17 528.67 420.17 517.67 423.5 525.5 C 426.83 533.33 440.33 557.33 446.5 574.5 C 452.67 591.67 456.67 608.5 460.5 628.5 C 464.33 648.5 467.17 667.5 469.5 694.5 C 471.83 721.5 473.5 780.67 474.5 790.5 C 475.5 800.33 472.33 766.5 475.5 753.5 C 478.67 740.5 482.33 725.67 493.5 712.5 C 504.67 699.33 518.83 688.83 542.5 674.5 C 566.17 660.17 618.5 645.33 635.5 626.5 C 652.5 607.67 643 581.67 644.5 561.5 C 646 541.33 645.17 520.67 644.5 505.5 C 643.83 490.33 643.17 485 640.5 470.5 C 637.83 456 653.17 417.17 628.5 418.5 Z"/>
    <path fill="#007a39" stroke="#007a39" d="M 424.5 534.5 C 420 541.33 410.17 568.67 405.5 583.5 C 400.83 598.33 398 608.33 396.5 623.5 C 395 638.67 395.33 660.83 396.5 674.5 C 397.67 688.17 399.67 693 403.5 705.5 C 407.33 718 407 721 419.5 749.5 C 432 778 468.17 855.33 478.5 876.5 C 488.83 897.67 482 882.17 481.5 876.5 C 481 870.83 477.17 867.83 475.5 842.5 C 473.83 817.17 473.67 758.17 471.5 724.5 C 469.33 690.83 466.33 664.5 462.5 640.5 C 458.67 616.5 453.5 596.83 448.5 580.5 C 443.5 564.17 436.5 550.17 432.5 542.5 C 428.5 534.83 429 527.67 424.5 534.5 Z M 315.5 414.5 C 314.67 414.33 318.83 421 320.5 422.5 C 322.17 424 326.33 424.83 325.5 423.5 C 324.67 422.17 316.33 414.67 315.5 414.5 Z"/>
    <path fill="#007d38" stroke="#007d38" d="M 472.5 782.5 C 472.5 788.33 475 823.33 475.5 824.5 C 476 825.67 476 796.5 475.5 789.5 C 475 782.5 472.5 776.67 472.5 782.5 Z M 471.5 752.5 C 471 751.33 470.17 768.83 470.5 773.5 C 470.83 778.17 473.33 784 473.5 780.5 C 473.67 777 472 753.67 471.5 752.5 Z M 115.5 699.5 C 115.83 700.67 129.17 719.83 131.5 722.5 C 133.83 725.17 132.17 719.33 129.5 715.5 C 126.83 711.67 115.17 698.33 115.5 699.5 Z M 456.5 618.5 C 457 622.17 462 643 462.5 643.5 C 463 644 460.5 625.67 459.5 621.5 C 458.5 617.33 456 614.83 456.5 618.5 Z M 421.5 527.5 C 416.33 532.17 403 543.83 394.5 556.5 C 386 569.17 375.33 591 370.5 603.5 C 365.67 616 366 619 365.5 631.5 C 365 644 365.67 664.33 367.5 678.5 C 369.33 692.67 369.83 698.83 376.5 716.5 C 383.17 734.17 397.67 765.83 407.5 784.5 C 417.33 803.17 422.17 809.67 435.5 828.5 C 448.83 847.33 479.83 888.67 487.5 897.5 C 495.17 906.33 482.5 885.83 481.5 881.5 C 480.5 877.17 482 873.33 481.5 871.5 C 481 869.67 478.83 872.17 478.5 870.5 C 478.17 868.83 479.83 862.67 479.5 861.5 C 479.17 860.33 486.33 882.5 476.5 863.5 C 466.67 844.5 432.5 774.17 420.5 747.5 C 408.5 720.83 408.33 716 404.5 703.5 C 400.67 691 399 681.33 397.5 672.5 C 396 663.67 394.67 662.33 395.5 650.5 C 396.33 638.67 399.5 615.83 402.5 601.5 C 405.5 587.17 409.5 575.33 413.5 564.5 C 417.5 553.67 421.83 536.17 426.5 536.5 C 431.17 536.83 436.67 554.83 441.5 566.5 C 446.33 578.17 455.83 608.33 455.5 606.5 C 455.17 604.67 444.5 568.5 439.5 555.5 C 434.5 542.5 428.5 533.17 425.5 528.5 C 422.5 523.83 426.67 522.83 421.5 527.5 Z M 413.5 510.5 C 413.33 511 420.83 523.5 422.5 525.5 C 424.17 527.5 425 525 423.5 522.5 C 422 520 413.67 510 413.5 510.5 Z M 40.5 321.5 C 40.33 322.67 42 329.33 42.5 329.5 C 43 329.67 43.83 323.83 43.5 322.5 C 43.17 321.17 40.67 320.33 40.5 321.5 Z M 181.5 234.5 C 181.83 236.17 186.83 247 187.5 247.5 C 188.17 248 186.5 239.67 185.5 237.5 C 184.5 235.33 181.17 232.83 181.5 234.5 Z M 102.5 162.5 C 101.5 163.17 96.5 170.67 96.5 171.5 C 96.5 172.33 101.5 169 102.5 167.5 C 103.5 166 103.5 161.83 102.5 162.5 Z M 170.5 65.5 C 170.33 65 162 71.67 160.5 73.5 C 159 75.33 159.83 77.83 161.5 76.5 C 163.17 75.17 170.67 66 170.5 65.5 Z"/>
  </g>
</svg>
