<svg xmlns="http://www.w3.org/2000/svg" width="899" height="921" viewBox="0 0 899 921" role="img" aria-labelledby="title desc">
  <title id="title">Nur logo loop frame 068</title>
  <desc id="desc">Vector-traced frame from Nur_Logo_Loop_02.gif.</desc>
  <g id="frame-068" stroke-linejoin="round" stroke-linecap="round" stroke-width="0.5" shape-rendering="geometricPrecision">
    <path fill="#008136" stroke="#008136" d="M 181.5 49.5 C 173.83 58.83 153.83 83.5 138.5 106.5 C 123.17 129.5 100.67 167.67 89.5 187.5 C 78.33 207.33 79 204.67 71.5 225.5 C 64 246.33 49.67 293.67 44.5 312.5 C 39.33 331.33 40.83 332.17 40.5 338.5 C 40.17 344.83 42.67 348.33 42.5 350.5 C 42.33 352.67 40.67 330.67 39.5 351.5 C 38.33 372.33 35.5 451.17 35.5 475.5 C 35.5 499.83 38.33 493.67 39.5 497.5 C 40.67 501.33 42.33 497.33 42.5 498.5 C 42.67 499.67 39.5 497.67 40.5 504.5 C 41.5 511.33 42.67 519.33 48.5 539.5 C 54.33 559.67 66 601.17 75.5 625.5 C 85 649.83 94.83 667 105.5 685.5 C 116.17 704 125.67 718.67 139.5 736.5 C 153.33 754.33 171.67 776 188.5 792.5 C 205.33 809 222.67 823.17 240.5 835.5 C 258.33 847.83 273.83 856.83 295.5 866.5 C 317.17 876.17 345.83 886.67 370.5 893.5 C 395.17 900.33 423 905.17 443.5 907.5 C 464 909.83 486.67 911.67 493.5 907.5 C 500.33 903.33 487.17 893.17 484.5 882.5 C 481.83 871.83 479.5 860.83 477.5 843.5 C 475.5 826.17 473 795.33 472.5 778.5 C 472 761.67 475.33 761.67 474.5 742.5 C 473.67 723.33 470.5 686.83 467.5 663.5 C 464.5 640.17 459.83 617.67 456.5 602.5 C 453.17 587.33 452.33 584.67 447.5 572.5 C 442.67 560.33 435.33 543.67 427.5 529.5 C 419.67 515.33 411 500.17 400.5 487.5 C 390 474.83 378.33 465.33 364.5 453.5 C 350.67 441.67 333.5 430.5 317.5 416.5 C 301.5 402.5 286.5 390.5 268.5 369.5 C 250.5 348.5 223.33 314.5 209.5 290.5 C 195.67 266.5 191 244 185.5 225.5 C 180 207 178.33 193.33 176.5 179.5 C 174.67 165.67 173.17 164 174.5 142.5 C 175.83 121 183.33 66 184.5 50.5 C 185.67 35 189.17 40.17 181.5 49.5 Z"/>
    <path fill="#83bb26" stroke="#83bb26" d="M 430.5 517.5 C 430.17 516.67 424.33 520.83 423.5 522.5 C 422.67 524.17 424.33 528.33 425.5 527.5 C 426.67 526.67 430.83 518.33 430.5 517.5 Z M 712.5 18.5 C 704.67 12.83 707 17 710.5 21.5 C 714 26 726.67 37 733.5 45.5 C 740.33 54 743 57.33 751.5 72.5 C 760 87.67 777.17 118.83 784.5 136.5 C 791.83 154.17 793.67 164.17 795.5 178.5 C 797.33 192.83 797.83 206 795.5 222.5 C 793.17 239 788.5 261.5 781.5 277.5 C 774.5 293.5 763.33 306.5 753.5 318.5 C 743.67 330.5 733.17 340 722.5 349.5 C 711.83 359 705.33 365 689.5 375.5 C 673.67 386 635.33 394.17 627.5 412.5 C 619.67 430.83 639.5 465.83 642.5 485.5 C 645.5 505.17 645.17 515.17 645.5 530.5 C 645.83 545.83 645.83 562 644.5 577.5 C 643.17 593 634 618.17 637.5 623.5 C 641 628.83 651.83 617.67 665.5 609.5 C 679.17 601.33 701.5 587.5 719.5 574.5 C 737.5 561.5 759 544.17 773.5 531.5 C 788 518.83 796.33 510.5 806.5 498.5 C 816.67 486.5 825.67 474 834.5 459.5 C 843.33 445 853.33 425.17 859.5 411.5 C 865.67 397.83 868.17 390 871.5 377.5 C 874.83 365 878.5 355.83 879.5 336.5 C 880.5 317.17 879.33 279.83 877.5 261.5 C 875.67 243.17 873.33 240 868.5 226.5 C 863.67 213 860.67 202.5 848.5 180.5 C 836.33 158.5 810.67 115.33 795.5 94.5 C 780.33 73.67 771.33 68.17 757.5 55.5 C 743.67 42.83 720.33 24.17 712.5 18.5 Z"/>
    <path fill="#6ab12d" stroke="#6ab12d" d="M 504.5 129.5 C 492.67 108.17 500.67 123.83 503.5 137.5 C 506.33 151.17 517.33 189.67 521.5 211.5 C 525.67 233.33 527.33 253.5 528.5 268.5 C 529.67 283.5 529.33 289.5 528.5 301.5 C 527.67 313.5 525.67 328.67 523.5 340.5 C 521.33 352.33 519.33 361 515.5 372.5 C 511.67 384 515.33 385 500.5 409.5 C 485.67 434 438.67 500.67 426.5 519.5 C 414.33 538.33 428.17 522 427.5 522.5 C 426.83 523 423.33 522 422.5 522.5 C 421.67 523 421.33 524 422.5 525.5 C 423.67 527 426.5 533.83 429.5 531.5 C 432.5 529.17 430.33 520.17 440.5 511.5 C 450.67 502.83 459.67 495 490.5 479.5 C 521.33 464 600.33 416.17 625.5 418.5 C 650.67 420.83 638.5 468.5 641.5 493.5 C 644.5 518.5 644 549 643.5 568.5 C 643 588 640.17 601 638.5 610.5 C 636.83 620 644.83 618 633.5 625.5 C 622.17 633 587.83 646.33 570.5 655.5 C 553.17 664.67 542 671.83 529.5 680.5 C 517 689.17 503.5 699.5 495.5 707.5 C 487.5 715.5 485 721.83 481.5 728.5 C 478 735.17 475.5 734.33 474.5 747.5 C 473.5 760.67 473 784.83 475.5 807.5 C 478 830.17 487.83 870.67 489.5 883.5 C 491.17 896.33 486.17 883.33 485.5 884.5 C 484.83 885.67 484.17 886.67 485.5 890.5 C 486.83 894.33 491.67 904.67 493.5 907.5 C 495.33 910.33 485.33 923.17 496.5 907.5 C 507.67 891.83 543.33 841 560.5 813.5 C 577.67 786 587.5 769.67 599.5 742.5 C 611.5 715.33 625.17 674.5 632.5 650.5 C 639.83 626.5 641.17 612.67 643.5 598.5 C 645.83 584.33 646.5 584.67 646.5 565.5 C 646.5 546.33 647.83 513.67 643.5 483.5 C 639.17 453.33 632 420.83 620.5 384.5 C 609 348.17 593.83 308 574.5 265.5 C 555.17 223 516.33 150.83 504.5 129.5 Z"/>
    <path fill="#009f3a" stroke="#009f3a" d="M 475.5 806.5 C 473.33 801.33 477.17 848.5 478.5 861.5 C 479.83 874.5 482 880.17 483.5 884.5 C 485 888.83 487.17 886.33 487.5 887.5 C 487.83 888.67 485 889.67 485.5 891.5 C 486 893.33 490 898.17 490.5 898.5 C 491 898.83 488.33 894.5 488.5 893.5 C 488.67 892.5 493.67 907 491.5 892.5 C 489.33 878 477.67 811.67 475.5 806.5 Z M 626.5 416.5 C 601.17 416.83 519.83 462.83 488.5 478.5 C 457.17 494.17 448.67 501.83 438.5 510.5 C 428.33 519.17 430.17 528.17 427.5 530.5 C 424.83 532.83 419.33 517.17 422.5 524.5 C 425.67 531.83 440.17 557.17 446.5 574.5 C 452.83 591.83 456.33 604.5 460.5 628.5 C 464.67 652.5 469.67 692.83 471.5 718.5 C 473.33 744.17 471 768.17 471.5 782.5 C 472 796.83 473.83 810 474.5 804.5 C 475.17 799 473.83 762.5 475.5 749.5 C 477.17 736.5 481.17 733 484.5 726.5 C 487.83 720 489.33 716.83 495.5 710.5 C 501.67 704.17 511.33 696 521.5 688.5 C 531.67 681 537.17 676.33 556.5 665.5 C 575.83 654.67 622.83 639.33 637.5 623.5 C 652.17 607.67 643.33 587 644.5 570.5 C 645.67 554 645.17 540.17 644.5 524.5 C 643.83 508.83 643.5 494.5 640.5 476.5 C 637.5 458.5 651.83 416.17 626.5 416.5 Z"/>
    <path fill="#007a39" stroke="#007a39" d="M 424.5 530.5 C 416.5 535.17 404.5 583.33 400.5 608.5 C 396.5 633.67 396.83 658.17 400.5 681.5 C 404.17 704.83 410.67 719.67 422.5 748.5 C 434.33 777.33 462.17 835.5 471.5 854.5 C 480.83 873.5 478.67 876.17 478.5 862.5 C 478.33 848.83 471.67 795.5 470.5 772.5 C 469.33 749.5 472.83 746.5 471.5 724.5 C 470.17 702.5 466.33 664.5 462.5 640.5 C 458.67 616.5 454.83 598.83 448.5 580.5 C 442.17 562.17 432.5 525.83 424.5 530.5 Z M 315.5 414.5 C 314.67 414.33 318.83 421 320.5 422.5 C 322.17 424 326.33 424.83 325.5 423.5 C 324.67 422.17 316.33 414.67 315.5 414.5 Z"/>
    <path fill="#007d38" stroke="#007d38" d="M 472.5 800.5 C 472.5 803.83 475 823.83 475.5 824.5 C 476 825.17 476 808.5 475.5 804.5 C 475 800.5 472.5 797.17 472.5 800.5 Z M 115.5 699.5 C 115.83 700.67 129.17 719.83 131.5 722.5 C 133.83 725.17 132.17 719.33 129.5 715.5 C 126.83 711.67 115.17 698.33 115.5 699.5 Z M 413.5 510.5 C 413 511.17 424.33 518.5 420.5 526.5 C 416.67 534.5 399.33 545.83 390.5 558.5 C 381.67 571.17 372.33 590 367.5 602.5 C 362.67 615 362.17 620.5 361.5 633.5 C 360.83 646.5 361.33 666 363.5 680.5 C 365.67 695 367.83 703.5 374.5 720.5 C 381.17 737.5 391.17 760.5 403.5 782.5 C 415.83 804.5 434.33 832 448.5 852.5 C 462.67 873 481.17 896.5 488.5 905.5 C 495.83 914.5 494.5 914.17 492.5 906.5 C 490.5 898.83 478.83 868.33 476.5 859.5 C 474.17 850.67 478.83 854.17 478.5 853.5 C 478.17 852.83 483.67 873.33 474.5 855.5 C 465.33 837.67 435.67 775.83 423.5 746.5 C 411.33 717.17 405.17 702.17 401.5 679.5 C 397.83 656.83 399.5 629.5 401.5 610.5 C 403.5 591.5 409.5 577.83 413.5 565.5 C 417.5 553.17 419.67 533.83 425.5 536.5 C 431.33 539.17 448.83 583.83 448.5 581.5 C 448.17 579.17 429.33 534.33 423.5 522.5 C 417.67 510.67 414 509.83 413.5 510.5 Z M 40.5 495.5 C 40 496.5 40 501.33 40.5 502.5 C 41 503.67 43 503.5 43.5 502.5 C 44 501.5 44 497.67 43.5 496.5 C 43 495.33 41 494.5 40.5 495.5 Z M 40.5 342.5 C 40.33 344.33 42 354.33 42.5 354.5 C 43 354.67 43.83 345.5 43.5 343.5 C 43.17 341.5 40.67 340.67 40.5 342.5 Z M 50.5 296.5 C 49.83 297 46.5 303.67 46.5 304.5 C 46.5 305.33 49.83 302.83 50.5 301.5 C 51.17 300.17 51.17 296 50.5 296.5 Z M 207.5 285.5 C 206.67 285 207.5 290.83 208.5 292.5 C 209.5 294.17 213.67 296.67 213.5 295.5 C 213.33 294.33 208.33 286 207.5 285.5 Z M 116.5 145.5 C 115.83 145.83 109.17 155.83 108.5 157.5 C 107.83 159.17 111.17 157.5 112.5 155.5 C 113.83 153.5 117.17 145.17 116.5 145.5 Z M 127.5 129.5 C 128.33 127.83 125.83 127.83 124.5 129.5 C 123.17 131.17 119 139.5 119.5 139.5 C 120 139.5 126.67 131.17 127.5 129.5 Z M 165.5 71.5 C 164.17 72.83 157.5 82.83 157.5 83.5 C 157.5 84.17 164.17 77.5 165.5 75.5 C 166.83 73.5 166.83 70.17 165.5 71.5 Z M 175.5 58.5 C 174.67 58.83 168.83 65.5 168.5 66.5 C 168.17 67.5 172.33 65.83 173.5 64.5 C 174.67 63.17 176.33 58.17 175.5 58.5 Z"/>
  </g>
</svg>
