<svg xmlns="http://www.w3.org/2000/svg" width="899" height="921" viewBox="0 0 899 921" role="img" aria-labelledby="title desc">
  <title id="title">Nur logo loop frame 071</title>
  <desc id="desc">Vector-traced frame from Nur_Logo_Loop_02.gif.</desc>
  <g id="frame-071" stroke-linejoin="round" stroke-linecap="round" stroke-width="0.5" shape-rendering="geometricPrecision">
    <path fill="#008136" stroke="#008136" d="M 179.5 51.5 C 171.33 60.83 150.33 84.33 134.5 107.5 C 118.67 130.67 97.33 165.67 84.5 190.5 C 71.67 215.33 64.67 236 57.5 256.5 C 50.33 277 44 301.67 41.5 313.5 C 39 325.33 42.83 325 42.5 327.5 C 42.17 330 39.83 326.5 39.5 328.5 C 39.17 330.5 40.83 337.5 40.5 339.5 C 40.17 341.5 38.83 319 37.5 340.5 C 36.17 362 32.33 441.33 32.5 468.5 C 32.67 495.67 36.83 497 38.5 503.5 C 40.17 510 42.17 506 42.5 507.5 C 42.83 509 35 492.83 40.5 512.5 C 46 532.17 64.67 596.67 75.5 625.5 C 86.33 654.33 94.83 667 105.5 685.5 C 116.17 704 125.67 718.67 139.5 736.5 C 153.33 754.33 171.67 776 188.5 792.5 C 205.33 809 222.67 823.17 240.5 835.5 C 258.33 847.83 273.83 856.83 295.5 866.5 C 317.17 876.17 345.83 886.67 370.5 893.5 C 395.17 900.33 423 905.17 443.5 907.5 C 464 909.83 486.67 911.5 493.5 907.5 C 500.33 903.5 487.17 894.17 484.5 883.5 C 481.83 872.83 479 864.17 477.5 843.5 C 476 822.83 477.17 789.5 475.5 759.5 C 473.83 729.5 470.67 689.67 467.5 663.5 C 464.33 637.33 459.83 617.67 456.5 602.5 C 453.17 587.33 452.33 584.67 447.5 572.5 C 442.67 560.33 435.33 543.67 427.5 529.5 C 419.67 515.33 411 500.17 400.5 487.5 C 390 474.83 378.33 465.33 364.5 453.5 C 350.67 441.67 333.5 430.5 317.5 416.5 C 301.5 402.5 283.5 385.33 268.5 369.5 C 253.5 353.67 237.67 334.33 227.5 321.5 C 217.33 308.67 213 302.83 207.5 292.5 C 202 282.17 197.17 265.17 194.5 259.5 C 191.83 253.83 193 262.67 191.5 258.5 C 190 254.33 187 238.67 185.5 234.5 C 184 230.33 184.33 240.5 182.5 233.5 C 180.67 226.5 176.33 207.83 174.5 192.5 C 172.67 177.17 171 156.83 171.5 141.5 C 172 126.17 176.83 108 177.5 100.5 C 178.17 93 174.5 104.67 175.5 96.5 C 176.5 88.33 182.83 59 183.5 51.5 C 184.17 44 187.67 42.17 179.5 51.5 Z"/>
    <path fill="#83bb26" stroke="#83bb26" d="M 728.5 15.5 C 720.83 9.17 721.83 12 725.5 18.5 C 729.17 25 739.67 34.83 750.5 54.5 C 761.33 74.17 782.5 115.5 790.5 136.5 C 798.5 157.5 797.67 163.83 798.5 180.5 C 799.33 197.17 797.17 222.17 795.5 236.5 C 793.83 250.83 791.5 257.5 788.5 266.5 C 785.5 275.5 784 280.33 777.5 290.5 C 771 300.67 763.83 312.83 749.5 327.5 C 735.17 342.17 711.33 364 691.5 378.5 C 671.67 393 638.5 398.67 630.5 414.5 C 622.5 430.33 640.83 458 643.5 473.5 C 646.17 489 646 494 646.5 507.5 C 647 521 648.17 534.67 646.5 554.5 C 644.83 574.33 630.67 618.5 636.5 626.5 C 642.33 634.5 664.67 612.83 681.5 602.5 C 698.33 592.17 721.17 576.5 737.5 564.5 C 753.83 552.5 767.33 541.33 779.5 530.5 C 791.67 519.67 802 509.17 810.5 499.5 C 819 489.83 823.17 484 830.5 472.5 C 837.83 461 847.83 444 854.5 430.5 C 861.17 417 866 405.67 870.5 391.5 C 875 377.33 879.33 360 881.5 345.5 C 883.67 331 883.83 318.83 883.5 304.5 C 883.17 290.17 882 273.5 879.5 259.5 C 877 245.5 873.67 234.67 868.5 220.5 C 863.33 206.33 859.17 195.33 848.5 174.5 C 837.83 153.67 817.33 115.17 804.5 95.5 C 791.67 75.83 784.17 69.83 771.5 56.5 C 758.83 43.17 736.17 21.83 728.5 15.5 Z"/>
    <path fill="#6ab12d" stroke="#6ab12d" d="M 509.5 128.5 C 496.5 103.5 505.5 122.17 507.5 132.5 C 509.5 142.83 517.67 170 521.5 190.5 C 525.33 211 528.83 237.33 530.5 255.5 C 532.17 273.67 532.33 284.67 531.5 299.5 C 530.67 314.33 528.33 330.33 525.5 344.5 C 522.67 358.67 518.67 372.83 514.5 384.5 C 510.33 396.17 511.83 397.17 500.5 414.5 C 489.17 431.83 459.33 469.83 446.5 488.5 C 433.67 507.17 427 519.5 423.5 526.5 C 420 533.5 424.5 529.83 425.5 530.5 C 426.5 531.17 427 533.33 429.5 530.5 C 432 527.67 431.17 521.17 440.5 513.5 C 449.83 505.83 454.5 500 485.5 484.5 C 516.5 469 600.5 419.83 626.5 420.5 C 652.5 421.17 638.67 465.67 641.5 488.5 C 644.33 511.33 644.67 534.83 643.5 557.5 C 642.33 580.17 648.5 607 634.5 624.5 C 620.5 642 578.17 652.33 559.5 662.5 C 540.83 672.67 533.5 677.67 522.5 685.5 C 511.5 693.33 500 702.83 493.5 709.5 C 487 716.17 486.67 718.67 483.5 725.5 C 480.33 732.33 475.83 738.33 474.5 750.5 C 473.17 762.67 472.33 774.67 475.5 798.5 C 478.67 822.33 491.17 876.5 493.5 893.5 C 495.83 910.5 489.5 898.17 489.5 900.5 C 489.5 902.83 492.33 906.33 493.5 907.5 C 494.67 908.67 485.33 923.17 496.5 907.5 C 507.67 891.83 543.33 841 560.5 813.5 C 577.67 786 587.5 769.67 599.5 742.5 C 611.5 715.33 625.33 673.83 632.5 650.5 C 639.67 627.17 640 618.17 642.5 602.5 C 645 586.83 647.17 578.33 647.5 556.5 C 647.83 534.67 648 498.5 644.5 471.5 C 641 444.5 636.33 426 626.5 394.5 C 616.67 363 605 326.83 585.5 282.5 C 566 238.17 522.5 153.5 509.5 128.5 Z"/>
    <path fill="#009f3a" stroke="#009f3a" d="M 475.5 797.5 C 472.67 791.67 477.17 846.83 478.5 861.5 C 479.83 876.17 480.83 877.83 483.5 885.5 C 486.17 893.17 492.5 905.67 494.5 907.5 C 496.5 909.33 498.67 914.83 495.5 896.5 C 492.33 878.17 478.33 803.33 475.5 797.5 Z M 627.5 418.5 C 601.83 423 515 467.83 483.5 483.5 C 452 499.17 447.83 504.83 438.5 512.5 C 429.17 520.17 430 527.33 427.5 529.5 C 425 531.67 420.33 518 423.5 525.5 C 426.67 533 440.33 557.33 446.5 574.5 C 452.67 591.67 456.67 608.5 460.5 628.5 C 464.33 648.5 467.17 667.17 469.5 694.5 C 471.83 721.83 473.5 782.83 474.5 792.5 C 475.5 802.17 473.83 763.33 475.5 752.5 C 477.17 741.67 481.33 734.33 484.5 727.5 C 487.67 720.67 489.67 717 494.5 711.5 C 499.33 706 504.33 701.33 513.5 694.5 C 522.67 687.67 529.17 681.83 549.5 670.5 C 569.83 659.17 619.67 645 635.5 626.5 C 651.33 608 643 578.67 644.5 559.5 C 646 540.33 645.67 528.67 644.5 511.5 C 643.33 494.33 640.33 472 637.5 456.5 C 634.67 441 653.17 414 627.5 418.5 Z"/>
    <path fill="#007a39" stroke="#007a39" d="M 424.5 531.5 C 419 538.83 408.17 576.83 403.5 594.5 C 398.83 612.17 397.67 626 396.5 637.5 C 395.33 649 395.33 653.17 396.5 663.5 C 397.67 673.83 399.67 685.67 403.5 699.5 C 407.33 713.33 406.67 717.5 419.5 746.5 C 432.33 775.5 471.17 857.5 480.5 873.5 C 489.83 889.5 477 867.33 475.5 842.5 C 474 817.67 473.67 758.17 471.5 724.5 C 469.33 690.83 466.33 664.5 462.5 640.5 C 458.67 616.5 452.83 595.5 448.5 580.5 C 444.17 565.5 440.5 558.67 436.5 550.5 C 432.5 542.33 430 524.17 424.5 531.5 Z M 315.5 414.5 C 314.67 414.33 318.83 421 320.5 422.5 C 322.17 424 326.33 424.83 325.5 423.5 C 324.67 422.17 316.33 414.67 315.5 414.5 Z M 185.5 241.5 C 184.83 241.17 186.5 249.5 187.5 251.5 C 188.5 253.5 191.83 255.17 191.5 253.5 C 191.17 251.83 186.17 241.83 185.5 241.5 Z M 107.5 154.5 C 106.67 155 100.83 163.33 100.5 164.5 C 100.17 165.67 104.33 163.17 105.5 161.5 C 106.67 159.83 108.33 154 107.5 154.5 Z"/>
    <path fill="#007d38" stroke="#007d38" d="M 471.5 752.5 C 471 751.83 470.17 774.33 470.5 779.5 C 470.83 784.67 473.33 788 473.5 783.5 C 473.67 779 472 753.17 471.5 752.5 Z M 115.5 699.5 C 115.83 700.67 129.17 719.83 131.5 722.5 C 133.83 725.17 132.17 719.33 129.5 715.5 C 126.83 711.67 115.17 698.33 115.5 699.5 Z M 456.5 618.5 C 457 622.17 462 643 462.5 643.5 C 463 644 460.5 625.67 459.5 621.5 C 458.5 617.33 456 614.83 456.5 618.5 Z M 64.5 589.5 C 64.5 590.33 67.83 597 68.5 597.5 C 69.17 598 69.17 593.83 68.5 592.5 C 67.83 591.17 64.5 588.67 64.5 589.5 Z M 413.5 510.5 C 413.17 511.33 426.17 517.67 421.5 527.5 C 416.83 537.33 394 557 385.5 569.5 C 377 582 374 591 370.5 602.5 C 367 614 365 624.83 364.5 638.5 C 364 652.17 365.5 671.33 367.5 684.5 C 369.5 697.67 370.83 702.5 376.5 717.5 C 382.17 732.5 392.83 757.33 401.5 774.5 C 410.17 791.67 414 799.67 428.5 820.5 C 443 841.33 479.67 889.67 488.5 899.5 C 497.33 909.33 483 885.83 481.5 879.5 C 480 873.17 480.67 864.83 479.5 861.5 C 478.33 858.17 484.33 879 474.5 859.5 C 464.67 840 432.67 773.83 420.5 744.5 C 408.33 715.17 405.33 697.33 401.5 683.5 C 397.67 669.67 397.5 673.33 397.5 661.5 C 397.5 649.67 398.83 628.5 401.5 612.5 C 404.17 596.5 409.33 578.17 413.5 565.5 C 417.67 552.83 421.83 536.33 426.5 536.5 C 431.17 536.67 436.67 554.83 441.5 566.5 C 446.33 578.17 455.83 608.33 455.5 606.5 C 455.17 604.67 445 568.83 439.5 555.5 C 434 542.17 425.17 532 422.5 526.5 C 419.83 521 425 525.17 423.5 522.5 C 422 519.83 413.83 509.67 413.5 510.5 Z M 251.5 351.5 C 250.67 351.33 252.33 355.5 253.5 356.5 C 254.67 357.5 258.83 358.33 258.5 357.5 C 258.17 356.67 252.33 351.67 251.5 351.5 Z M 189.5 252.5 C 188.83 252 189.67 258.67 190.5 260.5 C 191.33 262.33 194.67 264.83 194.5 263.5 C 194.33 262.17 190.17 253 189.5 252.5 Z M 105.5 157.5 C 104.67 158 101.33 163.83 101.5 164.5 C 101.67 165.17 105.83 162.67 106.5 161.5 C 107.17 160.33 106.33 157 105.5 157.5 Z M 178.5 91.5 C 178 90.67 175.17 92.17 174.5 93.5 C 173.83 94.83 174 98.67 174.5 99.5 C 175 100.33 176.83 99.83 177.5 98.5 C 178.17 97.17 179 92.33 178.5 91.5 Z M 180.5 75.5 C 180 74.67 177.17 76.17 176.5 77.5 C 175.83 78.83 176 82.67 176.5 83.5 C 177 84.33 178.83 83.83 179.5 82.5 C 180.17 81.17 181 76.33 180.5 75.5 Z M 170.5 65.5 C 171.5 63.67 169 63.67 167.5 65.5 C 166 67.33 161 76.5 161.5 76.5 C 162 76.5 169.5 67.33 170.5 65.5 Z M 183.5 49.5 C 182.33 50.5 174.33 59.33 173.5 60.5 C 172.67 61.67 177 56.83 178.5 56.5 C 180 56.17 182.17 58.83 182.5 58.5 C 182.83 58.17 180.33 56 180.5 54.5 C 180.67 53 184.67 48.5 183.5 49.5 Z"/>
  </g>
</svg>
