<svg xmlns="http://www.w3.org/2000/svg" width="899" height="921" viewBox="0 0 899 921" role="img" aria-labelledby="title desc">
  <title id="title">Nur logo loop frame 074</title>
  <desc id="desc">Vector-traced frame from Nur_Logo_Loop_02.gif.</desc>
  <g id="frame-074" stroke-linejoin="round" stroke-linecap="round" stroke-width="0.5" shape-rendering="geometricPrecision">
    <path fill="#008136" stroke="#008136" d="M 181.5 50.5 C 173 59.17 148.33 86.17 132.5 108.5 C 116.67 130.83 97.5 164.67 86.5 184.5 C 75.5 204.33 74 207 66.5 227.5 C 59 248 45.5 292 41.5 307.5 C 37.5 323 42.83 318.17 42.5 320.5 C 42.17 322.83 40.67 316.33 39.5 321.5 C 38.33 326.67 36.83 327.33 35.5 351.5 C 34.17 375.67 30 436.5 31.5 466.5 C 33 496.5 37.17 505 44.5 531.5 C 51.83 558 65.33 599.83 75.5 625.5 C 85.67 651.17 94.83 667 105.5 685.5 C 116.17 704 125.67 718.67 139.5 736.5 C 153.33 754.33 171.67 776 188.5 792.5 C 205.33 809 222.67 823.17 240.5 835.5 C 258.33 847.83 273.83 856.83 295.5 866.5 C 317.17 876.17 345.83 886.67 370.5 893.5 C 395.17 900.33 423 905.17 443.5 907.5 C 464 909.83 487.5 915.5 493.5 907.5 C 499.5 899.5 482.33 878.5 479.5 859.5 C 476.67 840.5 477.33 797.67 476.5 793.5 C 475.67 789.33 474.17 821.33 474.5 834.5 C 474.83 847.67 483.83 879 478.5 872.5 C 473.17 866 449.67 809.83 442.5 795.5 C 435.33 781.17 433 779.17 435.5 786.5 C 438 793.83 451 825.5 457.5 839.5 C 464 853.5 471.67 864.33 474.5 870.5 C 477.33 876.67 481.67 885.33 474.5 876.5 C 467.33 867.67 444.17 836.5 431.5 817.5 C 418.83 798.5 407.5 780.33 398.5 762.5 C 389.5 744.67 382.5 725.83 377.5 710.5 C 372.5 695.17 370 685.5 368.5 670.5 C 367 655.5 367.67 632 368.5 620.5 C 369.33 609 369.33 611.17 373.5 601.5 C 377.67 591.83 385.33 574.5 393.5 562.5 C 401.67 550.5 414.33 528.67 422.5 529.5 C 430.67 530.33 436.5 551.83 442.5 567.5 C 448.5 583.17 454.33 603.83 458.5 623.5 C 462.67 643.17 465.17 659.33 467.5 685.5 C 469.83 711.67 471 762.83 472.5 780.5 C 474 798.17 477.33 811 476.5 791.5 C 475.67 772 470.83 695 467.5 663.5 C 464.17 632 459.83 617.67 456.5 602.5 C 453.17 587.33 452.67 585.33 447.5 572.5 C 442.33 559.67 429.83 533.67 425.5 525.5 C 421.17 517.33 425.67 529.83 421.5 523.5 C 417.33 517.17 410 499.17 400.5 487.5 C 391 475.83 378.33 465.33 364.5 453.5 C 350.67 441.67 333.5 430.5 317.5 416.5 C 301.5 402.5 283.83 385.67 268.5 369.5 C 253.17 353.33 236.83 334.17 225.5 319.5 C 214.17 304.83 208.67 299.67 200.5 281.5 C 192.33 263.33 181 222.5 176.5 210.5 C 172 198.5 173.67 210.67 173.5 209.5 C 173.33 208.33 175.67 206 175.5 203.5 C 175.33 201 173.33 205 172.5 194.5 C 171.67 184 168.67 163.5 170.5 140.5 C 172.33 117.5 181.67 71.5 183.5 56.5 C 185.33 41.5 190 41.83 181.5 50.5 Z"/>
    <path fill="#83bb26" stroke="#83bb26" d="M 734.5 14.5 C 729 10.17 728.17 10.83 731.5 17.5 C 734.83 24.17 744.17 34 754.5 54.5 C 764.83 75 786 119.83 793.5 140.5 C 801 161.17 799.17 161.67 799.5 178.5 C 799.83 195.33 798.5 223.67 795.5 241.5 C 792.5 259.33 789.5 270.5 781.5 285.5 C 773.5 300.5 762.33 315.83 747.5 331.5 C 732.67 347.17 711.67 365.5 692.5 379.5 C 673.33 393.5 640.67 401 632.5 415.5 C 624.33 430 641 451.17 643.5 466.5 C 646 481.83 647 492 647.5 507.5 C 648 523 648.33 539.5 646.5 559.5 C 644.67 579.5 631.5 619.67 636.5 627.5 C 641.5 635.33 661.67 615.33 676.5 606.5 C 691.33 597.67 709.17 586.17 725.5 574.5 C 741.83 562.83 760.17 548.83 774.5 536.5 C 788.83 524.17 800.33 513.67 811.5 500.5 C 822.67 487.33 833.5 470.5 841.5 457.5 C 849.5 444.5 853.83 435.5 859.5 422.5 C 865.17 409.5 871.67 392.17 875.5 379.5 C 879.33 366.83 881 361.5 882.5 346.5 C 884 331.5 885 304.83 884.5 289.5 C 884 274.17 881.83 265.5 879.5 254.5 C 877.17 243.5 875.33 236.5 870.5 223.5 C 865.67 210.5 861 197.83 850.5 176.5 C 840 155.17 821.83 117.67 807.5 95.5 C 793.17 73.33 776.67 57 764.5 43.5 C 752.33 30 740 18.83 734.5 14.5 Z"/>
    <path fill="#6ab12d" stroke="#6ab12d" d="M 511.5 128.5 C 499.5 105.5 507.5 121.67 509.5 132.5 C 511.5 143.33 519.67 171.5 523.5 193.5 C 527.33 215.5 531 246.17 532.5 264.5 C 534 282.83 533.67 289.33 532.5 303.5 C 531.33 317.67 530 332.17 525.5 349.5 C 521 366.83 511.5 393.5 505.5 407.5 C 499.5 421.5 500 419 489.5 433.5 C 479 448 453.33 478.67 442.5 494.5 C 431.67 510.33 426.83 522.5 424.5 528.5 C 422.17 534.5 426.33 532.5 428.5 530.5 C 430.67 528.5 427.83 524.17 437.5 516.5 C 447.17 508.83 455 500.5 486.5 484.5 C 518 468.5 600.67 420.33 626.5 420.5 C 652.33 420.67 638.67 462.83 641.5 485.5 C 644.33 508.17 644.83 533.17 643.5 556.5 C 642.17 579.83 646.83 608.17 633.5 625.5 C 620.17 642.83 582.5 650.17 563.5 660.5 C 544.5 670.83 531.17 679.33 519.5 687.5 C 507.83 695.67 499.67 702.67 493.5 709.5 C 487.33 716.33 485.67 721.17 482.5 728.5 C 479.33 735.83 475.67 742.67 474.5 753.5 C 473.33 764.33 472 769.17 475.5 793.5 C 479 817.83 492.5 880.5 495.5 899.5 C 498.5 918.5 490.67 909.83 493.5 907.5 C 496.33 905.17 501.33 901.17 512.5 885.5 C 523.67 869.83 546 837.33 560.5 813.5 C 575 789.67 587.5 769.67 599.5 742.5 C 611.5 715.33 625 675.83 632.5 650.5 C 640 625.17 641.83 607.67 644.5 590.5 C 647.17 573.33 648.17 566.5 648.5 547.5 C 648.83 528.5 650.17 502.5 646.5 476.5 C 642.83 450.5 637.33 425.83 626.5 391.5 C 615.67 357.17 600.67 314.33 581.5 270.5 C 562.33 226.67 523.5 151.5 511.5 128.5 Z"/>
    <path fill="#009f3a" stroke="#009f3a" d="M 473.5 767.5 C 473 773.5 476 839.33 478.5 861.5 C 481 883.67 485.83 892.83 488.5 900.5 C 491.17 908.17 493.17 908 494.5 907.5 C 495.83 907 498.67 911.17 496.5 897.5 C 494.33 883.83 485.33 847.17 481.5 825.5 C 477.67 803.83 474 761.5 473.5 767.5 Z M 628.5 419.5 C 601.83 416.17 514.67 469 484.5 483.5 C 454.33 498 456.33 500.5 447.5 506.5 C 438.67 512.5 434.83 515.83 431.5 519.5 C 428.17 523.17 428.67 527.17 427.5 528.5 C 426.33 529.83 421.33 519.83 424.5 527.5 C 427.67 535.17 440.83 559.33 446.5 574.5 C 452.17 589.67 455 601.83 458.5 618.5 C 462 635.17 465 650.17 467.5 674.5 C 470 698.83 470.83 755.17 473.5 764.5 C 476.17 773.83 480.5 738.67 483.5 730.5 C 486.5 722.33 488 720.33 491.5 715.5 C 495 710.67 493.67 709.67 504.5 701.5 C 515.33 693.33 534.83 678.83 556.5 666.5 C 578.17 654.17 619.83 645.5 634.5 627.5 C 649.17 609.5 642.83 579.17 644.5 558.5 C 646.17 537.83 647.17 526.67 644.5 503.5 C 641.83 480.33 655.17 422.83 628.5 419.5 Z"/>
    <path fill="#007a39" stroke="#007a39" d="M 424.5 531.5 C 419.33 537.33 410.17 569.67 405.5 585.5 C 400.83 601.33 398 612 396.5 626.5 C 395 641 392.67 652 396.5 672.5 C 400.33 693 405.83 715.5 419.5 749.5 C 433.17 783.5 468.17 855.33 478.5 876.5 C 488.83 897.67 482 882.17 481.5 876.5 C 481 870.83 477.17 867.83 475.5 842.5 C 473.83 817.17 473.67 758.17 471.5 724.5 C 469.33 690.83 466.33 664.5 462.5 640.5 C 458.67 616.5 452.83 595.5 448.5 580.5 C 444.17 565.5 440.5 558.67 436.5 550.5 C 432.5 542.33 429.67 525.67 424.5 531.5 Z M 315.5 414.5 C 314.67 414.33 318.83 421 320.5 422.5 C 322.17 424 326.33 424.83 325.5 423.5 C 324.67 422.17 316.33 414.67 315.5 414.5 Z"/>
    <path fill="#007d38" stroke="#007d38" d="M 473.5 829.5 C 473.67 832.5 477 850.83 477.5 851.5 C 478 852.17 477.17 837.17 476.5 833.5 C 475.83 829.83 473.33 826.5 473.5 829.5 Z M 115.5 699.5 C 115.83 700.67 129.17 719.83 131.5 722.5 C 133.83 725.17 132.17 719.33 129.5 715.5 C 126.83 711.67 115.17 698.33 115.5 699.5 Z M 456.5 618.5 C 457 622.17 462 643 462.5 643.5 C 463 644 460.5 625.67 459.5 621.5 C 458.5 617.33 456 614.83 456.5 618.5 Z M 413.5 510.5 C 413.33 511.33 427 517.67 422.5 527.5 C 418 537.33 395.17 556.33 386.5 569.5 C 377.83 582.67 373.83 596.83 370.5 606.5 C 367.17 616.17 366.67 614.33 366.5 627.5 C 366.33 640.67 366.33 667.17 369.5 685.5 C 372.67 703.83 378.33 719.83 385.5 737.5 C 392.67 755.17 403.17 775 412.5 791.5 C 421.83 808 429 818.83 441.5 836.5 C 454 854.17 480.83 891.67 487.5 897.5 C 494.17 903.33 483 876 481.5 871.5 C 480 867 478.83 872.17 478.5 870.5 C 478.17 868.83 479.83 862.5 479.5 861.5 C 479.17 860.5 486.33 883.5 476.5 864.5 C 466.67 845.5 433.5 778.83 420.5 747.5 C 407.5 716.17 402.33 696.33 398.5 676.5 C 394.67 656.67 396.17 643.33 397.5 628.5 C 398.83 613.67 401.67 602.83 406.5 587.5 C 411.33 572.17 420.67 540 426.5 536.5 C 432.33 533 436.67 554.83 441.5 566.5 C 446.33 578.17 455.83 608.33 455.5 606.5 C 455.17 604.67 444.83 569.5 439.5 555.5 C 434.17 541.5 427.83 530 423.5 522.5 C 419.17 515 413.67 509.67 413.5 510.5 Z M 48.5 289.5 C 48 288.67 46.17 289.17 45.5 290.5 C 44.83 291.83 44 296.67 44.5 297.5 C 45 298.33 47.83 296.83 48.5 295.5 C 49.17 294.17 49 290.33 48.5 289.5 Z M 198.5 276.5 C 197.83 276 198.67 281.83 199.5 283.5 C 200.33 285.17 203.67 287.67 203.5 286.5 C 203.33 285.33 199.17 277 198.5 276.5 Z M 67.5 230.5 C 66.83 230.83 62.67 240 62.5 241.5 C 62.33 243 65.67 241.33 66.5 239.5 C 67.33 237.67 68.17 230.17 67.5 230.5 Z M 173.5 206.5 C 172.67 205.67 171.83 209.83 172.5 211.5 C 173.17 213.17 177.33 217.33 177.5 216.5 C 177.67 215.67 174.33 207.33 173.5 206.5 Z"/>
  </g>
</svg>
