<svg xmlns="http://www.w3.org/2000/svg" width="899" height="921" viewBox="0 0 899 921" role="img" aria-labelledby="title desc">
  <title id="title">Nur logo loop frame 019</title>
  <desc id="desc">Vector-traced frame from Nur_Logo_Loop_02.gif.</desc>
  <g id="frame-019" stroke-linejoin="round" stroke-linecap="round" stroke-width="0.5" shape-rendering="geometricPrecision">
    <path fill="#008136" stroke="#008136" d="M 236.5 79.5 C 227 85.17 198 102.33 182.5 116.5 C 167 130.67 156.33 145.5 143.5 164.5 C 130.67 183.5 116.17 207.83 105.5 230.5 C 94.83 253.17 86.33 277.5 79.5 300.5 C 72.67 323.5 68.17 346.33 64.5 368.5 C 60.83 390.67 57.83 407.33 57.5 433.5 C 57.17 459.67 59 496.67 62.5 525.5 C 66 554.33 71.33 582.17 78.5 606.5 C 85.67 630.83 93.17 648 105.5 671.5 C 117.83 695 135.67 724.83 152.5 747.5 C 169.33 770.17 191 792.33 206.5 807.5 C 222 822.67 230.67 828.67 245.5 838.5 C 260.33 848.33 274.67 857.33 295.5 866.5 C 316.33 875.67 345.83 886.67 370.5 893.5 C 395.17 900.33 423 905.17 443.5 907.5 C 464 909.83 486.67 911.67 493.5 907.5 C 500.33 903.33 487.17 893.17 484.5 882.5 C 481.83 871.83 479.5 860.5 477.5 843.5 C 475.5 826.5 473.17 799.17 472.5 780.5 C 471.83 761.83 474.33 751 473.5 731.5 C 472.67 712 470.33 685 467.5 663.5 C 464.67 642 460.83 620.17 456.5 602.5 C 452.17 584.83 448.17 572.67 441.5 557.5 C 434.83 542.33 425 525.17 416.5 511.5 C 408 497.83 407.83 493.5 390.5 475.5 C 373.17 457.5 334 424.67 312.5 403.5 C 291 382.33 277.17 371.17 261.5 348.5 C 245.83 325.83 225.5 281.83 218.5 267.5 C 211.5 253.17 221.5 270 219.5 262.5 C 217.5 255 207.83 237.17 206.5 222.5 C 205.17 207.83 211 183.83 211.5 174.5 C 212 165.17 209.33 168 209.5 166.5 C 209.67 165 210.67 174 212.5 165.5 C 214.33 157 218 126.67 220.5 115.5 C 223 104.33 224.33 104 227.5 98.5 C 230.67 93 238 85.67 239.5 82.5 C 241 79.33 246 73.83 236.5 79.5 Z"/>
    <path fill="#83bb26" stroke="#83bb26" d="M 459.5 473.5 C 457.5 470.5 422.17 501.33 416.5 510.5 C 410.83 519.67 423.5 525.5 425.5 528.5 C 427.5 531.5 422.83 537.67 428.5 528.5 C 434.17 519.33 461.5 476.5 459.5 473.5 Z M 616.5 43.5 C 608.17 41.83 613.33 45 616.5 46.5 C 619.67 48 625.5 47.67 635.5 52.5 C 645.5 57.33 661 64.17 676.5 75.5 C 692 86.83 717.33 109.5 728.5 120.5 C 739.67 131.5 739.67 135 743.5 141.5 C 747.33 148 748.83 151.33 751.5 159.5 C 754.17 167.67 757.67 180 759.5 190.5 C 761.33 201 762.17 213.5 762.5 222.5 C 762.83 231.5 762.83 236.17 761.5 244.5 C 760.17 252.83 757.5 264.17 754.5 272.5 C 751.5 280.83 748 287.33 743.5 294.5 C 739 301.67 733.67 308.5 727.5 315.5 C 721.33 322.5 716 328.33 706.5 336.5 C 697 344.67 687 353.83 670.5 364.5 C 654 375.17 615.5 387.67 607.5 400.5 C 599.5 413.33 617.83 425.67 622.5 441.5 C 627.17 457.33 632.5 478.67 635.5 495.5 C 638.5 512.33 640 525.33 640.5 542.5 C 641 559.67 631.17 593.5 638.5 598.5 C 645.83 603.5 668.5 582.67 684.5 572.5 C 700.5 562.33 720.17 548.5 734.5 537.5 C 748.83 526.5 759.33 517.67 770.5 506.5 C 781.67 495.33 792.33 483.17 801.5 470.5 C 810.67 457.83 818.17 446.17 825.5 430.5 C 832.83 414.83 841 392.83 845.5 376.5 C 850 360.17 851.17 347.83 852.5 332.5 C 853.83 317.17 853.83 298 853.5 284.5 C 853.17 271 853 263.17 850.5 251.5 C 848 239.83 844.5 227.67 838.5 214.5 C 832.5 201.33 824.17 186.67 814.5 172.5 C 804.83 158.33 791.17 141.5 780.5 129.5 C 769.83 117.5 761 108.83 750.5 100.5 C 740 92.17 731.5 86.83 717.5 79.5 C 703.5 72.17 683.33 62.5 666.5 56.5 C 649.67 50.5 624.83 45.17 616.5 43.5 Z"/>
    <path fill="#6ab12d" stroke="#6ab12d" d="M 457.5 157.5 C 460.67 163.33 481.5 185.33 489.5 199.5 C 497.5 213.67 502 227 505.5 242.5 C 509 258 510.17 273 510.5 292.5 C 510.83 312 509.17 342 507.5 359.5 C 505.83 377 507.33 380.67 500.5 397.5 C 493.67 414.33 475.33 445.5 466.5 460.5 C 457.67 475.5 453.83 477 447.5 487.5 C 441.17 498 432.33 517.5 428.5 523.5 C 424.67 529.5 426.33 525.5 424.5 523.5 C 422.67 521.5 419 513 417.5 511.5 C 416 510 414.33 511.5 415.5 514.5 C 416.67 517.5 422.33 526.83 424.5 529.5 C 426.67 532.17 423.83 537.83 428.5 530.5 C 433.17 523.17 447.17 494.33 452.5 485.5 C 457.83 476.67 450.67 483.67 460.5 477.5 C 470.33 471.33 486.83 460.33 511.5 448.5 C 536.17 436.67 588.67 401.67 608.5 406.5 C 628.33 411.33 625.5 455.67 630.5 477.5 C 635.5 499.33 637.67 517 638.5 537.5 C 639.33 558 645.83 585.17 635.5 600.5 C 625.17 615.83 591.33 621.5 576.5 629.5 C 561.67 637.5 556.83 641 546.5 648.5 C 536.17 656 524.67 665.17 514.5 674.5 C 504.33 683.83 491.83 697.17 485.5 704.5 C 479.17 711.83 478.5 714.5 476.5 718.5 C 474.5 722.5 473.5 711.33 473.5 728.5 C 473.5 745.67 473.17 791.5 476.5 821.5 C 479.83 851.5 490.17 894 493.5 908.5 C 496.83 923 482.67 928.67 496.5 908.5 C 510.33 888.33 558.83 816.67 576.5 787.5 C 594.17 758.33 593.5 758.67 602.5 733.5 C 611.5 708.33 624.33 660.33 630.5 636.5 C 636.67 612.67 637.67 606.5 639.5 590.5 C 641.33 574.5 642 556.67 641.5 540.5 C 641 524.33 639.5 510.33 636.5 493.5 C 633.5 476.67 635.33 473.17 623.5 439.5 C 611.67 405.83 583.5 331 565.5 291.5 C 547.5 252 531.33 223.67 515.5 202.5 C 499.67 181.33 480.17 172 470.5 164.5 C 460.83 157 454.33 151.67 457.5 157.5 Z"/>
    <path fill="#009f3a" stroke="#009f3a" d="M 475.5 808.5 C 472.83 800.83 476.83 847.67 478.5 861.5 C 480.17 875.33 482.83 883.83 485.5 891.5 C 488.17 899.17 496.17 921.33 494.5 907.5 C 492.83 893.67 478.17 816.17 475.5 808.5 Z M 609.5 404.5 C 590 403.17 534.67 435.5 509.5 447.5 C 484.33 459.5 468.17 470.5 458.5 476.5 C 448.83 482.5 457 474.67 451.5 483.5 C 446 492.33 426.33 514.33 425.5 529.5 C 424.67 544.67 440.33 556.17 446.5 574.5 C 452.67 592.83 458.33 615.5 462.5 639.5 C 466.67 663.5 470 694.67 471.5 718.5 C 473 742.33 471 768.17 471.5 782.5 C 472 796.83 474 813.17 474.5 804.5 C 475 795.83 473.67 745.33 474.5 730.5 C 475.33 715.67 472.5 724.67 479.5 715.5 C 486.5 706.33 505 686.5 516.5 675.5 C 528 664.5 538.17 657 548.5 649.5 C 558.83 642 563.83 638.33 578.5 630.5 C 593.17 622.67 626.33 618.33 636.5 602.5 C 646.67 586.67 639.67 553 639.5 535.5 C 639.33 518 637.67 510.83 635.5 497.5 C 633.33 484.17 630.83 471 626.5 455.5 C 622.17 440 629 405.83 609.5 404.5 Z"/>
    <path fill="#007a39" stroke="#007a39" d="M 425.5 534.5 C 419.83 542.5 407.33 582.5 402.5 598.5 C 397.67 614.5 397.5 619.67 396.5 630.5 C 395.5 641.33 394.33 648.67 396.5 663.5 C 398.67 678.33 404.83 703.33 409.5 719.5 C 414.17 735.67 412.5 733.83 424.5 760.5 C 436.5 787.17 473.17 867.83 481.5 879.5 C 489.83 891.17 476.33 848.67 474.5 830.5 C 472.67 812.33 471 788.17 470.5 770.5 C 470 752.83 472.83 746.17 471.5 724.5 C 470.17 702.83 466.33 664.5 462.5 640.5 C 458.67 616.5 452.83 595.5 448.5 580.5 C 444.17 565.5 440.33 558.17 436.5 550.5 C 432.67 542.83 431.17 526.5 425.5 534.5 Z M 250.5 330.5 C 248.83 328.83 253 338.83 255.5 342.5 C 258 346.17 266.33 354.5 265.5 352.5 C 264.67 350.5 252.17 332.17 250.5 330.5 Z M 209.5 164.5 C 209 164.33 208.17 170.17 208.5 171.5 C 208.83 172.83 211.33 173.67 211.5 172.5 C 211.67 171.33 210 164.67 209.5 164.5 Z"/>
    <path fill="#007d38" stroke="#007d38" d="M 472.5 801.5 C 472.5 806 475 831.83 475.5 832.5 C 476 833.17 476 810.67 475.5 805.5 C 475 800.33 472.5 797 472.5 801.5 Z M 456.5 618.5 C 457 622.17 462 643 462.5 643.5 C 463 644 460.5 625.67 459.5 621.5 C 458.5 617.33 456 614.83 456.5 618.5 Z M 80.5 610.5 C 80.67 612.17 84.83 621.33 85.5 621.5 C 86.17 621.67 85.33 613.33 84.5 611.5 C 83.67 609.67 80.33 608.83 80.5 610.5 Z M 415.5 515.5 C 408.33 520 392.17 542.33 383.5 556.5 C 374.83 570.67 368 587.5 363.5 600.5 C 359 613.5 357.17 621.83 356.5 634.5 C 355.83 647.17 356.17 660.17 359.5 676.5 C 362.83 692.83 368 712.5 376.5 732.5 C 385 752.5 396.33 773.17 410.5 796.5 C 424.67 819.83 448.67 854.33 461.5 872.5 C 474.33 890.67 482.33 899.67 487.5 905.5 C 492.67 911.33 492.83 909.83 492.5 907.5 C 492.17 905.17 487.67 899.17 485.5 891.5 C 483.33 883.83 481 865.5 479.5 861.5 C 478 857.5 483 879 476.5 867.5 C 470 856 450.33 814.17 440.5 792.5 C 430.67 770.83 423.67 754.17 417.5 737.5 C 411.33 720.83 406.83 705.17 403.5 692.5 C 400.17 679.83 398.5 671.5 397.5 661.5 C 396.5 651.5 395.33 646.67 397.5 632.5 C 399.67 618.33 405.67 592.17 410.5 576.5 C 415.33 560.83 420.17 537.67 426.5 538.5 C 432.83 539.33 446.33 578.67 448.5 581.5 C 450.67 584.33 443.17 564.17 439.5 555.5 C 435.83 546.83 430.5 536.17 426.5 529.5 C 422.5 522.83 422.67 511 415.5 515.5 Z M 249.5 329.5 C 248.83 329.17 253.83 340.83 255.5 343.5 C 257.17 346.17 260.5 347.83 259.5 345.5 C 258.5 343.17 250.17 329.83 249.5 329.5 Z M 114.5 215.5 C 114 215.67 110.67 222.33 110.5 223.5 C 110.33 224.67 112.83 223.83 113.5 222.5 C 114.17 221.17 115 215.33 114.5 215.5 Z"/>
  </g>
</svg>
