<svg xmlns="http://www.w3.org/2000/svg" width="899" height="921" viewBox="0 0 899 921" role="img" aria-labelledby="title desc">
  <title id="title">Nur logo loop frame 063</title>
  <desc id="desc">Vector-traced frame from Nur_Logo_Loop_02.gif.</desc>
  <g id="frame-063" stroke-linejoin="round" stroke-linecap="round" stroke-width="0.5" shape-rendering="geometricPrecision">
    <path fill="#008136" stroke="#008136" d="M 190.5 49.5 C 182.83 58 163.33 84.5 146.5 110.5 C 129.67 136.5 103.17 179.17 89.5 205.5 C 75.83 231.83 70.83 250.33 64.5 268.5 C 58.17 286.67 55.33 294.17 51.5 314.5 C 47.67 334.83 43 370.67 41.5 390.5 C 40 410.33 42.83 426.17 42.5 433.5 C 42.17 440.83 40.17 432.17 39.5 434.5 C 38.83 436.83 38.5 442.33 38.5 447.5 C 38.5 452.67 38.83 462.33 39.5 465.5 C 40.17 468.67 42.33 463.83 42.5 466.5 C 42.67 469.17 39 468.67 40.5 481.5 C 42 494.33 46.33 521.33 51.5 543.5 C 56.67 565.67 64 593.5 71.5 614.5 C 79 635.5 85.17 649.17 96.5 669.5 C 107.83 689.83 124.17 716 139.5 736.5 C 154.83 757 171.67 776 188.5 792.5 C 205.33 809 222.67 823.17 240.5 835.5 C 258.33 847.83 273.83 856.83 295.5 866.5 C 317.17 876.17 345.83 886.67 370.5 893.5 C 395.17 900.33 423 905.17 443.5 907.5 C 464 909.83 486.67 911.67 493.5 907.5 C 500.33 903.33 487.17 893.17 484.5 882.5 C 481.83 871.83 479.17 866.83 477.5 843.5 C 475.83 820.17 476.17 772.5 474.5 742.5 C 472.83 712.5 470.5 686.83 467.5 663.5 C 464.5 640.17 459.83 617.67 456.5 602.5 C 453.17 587.33 452.33 584.67 447.5 572.5 C 442.67 560.33 435.17 543.5 427.5 529.5 C 419.83 515.5 410.83 500.33 401.5 488.5 C 392.17 476.67 389 474 371.5 458.5 C 354 443 315.17 412.67 296.5 395.5 C 277.83 378.33 271 369.33 259.5 355.5 C 248 341.67 236.17 325.5 227.5 312.5 C 218.83 299.5 214.33 295 207.5 277.5 C 200.67 260 190.83 226 186.5 207.5 C 182.17 189 182.33 178.17 181.5 166.5 C 180.67 154.83 179.67 155.33 181.5 137.5 C 183.33 119.67 191 74.17 192.5 59.5 C 194 44.83 198.17 41 190.5 49.5 Z"/>
    <path fill="#83bb26" stroke="#83bb26" d="M 436.5 508.5 C 435.83 507 423.33 516.17 421.5 519.5 C 419.67 522.83 423 530.33 425.5 528.5 C 428 526.67 437.17 510 436.5 508.5 Z M 689.5 24.5 C 680.33 18.67 680.17 19.5 686.5 26.5 C 692.83 33.5 713.5 48.33 727.5 66.5 C 741.5 84.67 760.67 116.67 770.5 135.5 C 780.33 154.33 783.33 164.83 786.5 179.5 C 789.67 194.17 790.83 208.17 789.5 223.5 C 788.17 238.83 782.17 260 778.5 271.5 C 774.83 283 772.67 284.67 767.5 292.5 C 762.33 300.33 760.67 305.5 747.5 318.5 C 734.33 331.5 709.17 355.33 688.5 370.5 C 667.83 385.67 631.17 389.33 623.5 409.5 C 615.83 429.67 638.83 463.67 642.5 491.5 C 646.17 519.33 645.83 555.67 645.5 576.5 C 645.17 597.33 635.5 612.83 640.5 616.5 C 645.5 620.17 661.5 607 675.5 598.5 C 689.5 590 708 577.83 724.5 565.5 C 741 553.17 761.17 536.5 774.5 524.5 C 787.83 512.5 795 505 804.5 493.5 C 814 482 823.17 469.17 831.5 455.5 C 839.83 441.83 848.33 425.67 854.5 411.5 C 860.67 397.33 865.17 383.33 868.5 370.5 C 871.83 357.67 873.33 347.83 874.5 334.5 C 875.67 321.17 876.17 304.5 875.5 290.5 C 874.83 276.5 873.5 263.67 870.5 250.5 C 867.5 237.33 862.33 223.33 857.5 211.5 C 852.67 199.67 853 197.5 841.5 179.5 C 830 161.5 805.17 123.17 788.5 103.5 C 771.83 83.83 758 74.67 741.5 61.5 C 725 48.33 698.67 30.33 689.5 24.5 Z"/>
    <path fill="#6ab12d" stroke="#6ab12d" d="M 638.5 620.5 C 631.83 612.33 593.33 640.5 577.5 648.5 C 561.67 656.5 556.17 659.83 543.5 668.5 C 530.83 677.17 511 692.33 501.5 700.5 C 492 708.67 491 709.67 486.5 717.5 C 482 725.33 476.33 733 474.5 747.5 C 472.67 762 473.17 781.83 475.5 804.5 C 477.83 827.17 487.17 871 488.5 883.5 C 489.83 896 482.67 875.5 483.5 879.5 C 484.33 883.5 490.33 904.17 493.5 907.5 C 496.67 910.83 494.67 910 502.5 899.5 C 510.33 889 526.67 865.83 540.5 844.5 C 554.33 823.17 572.67 796 585.5 771.5 C 598.33 747 608.67 722.67 617.5 697.5 C 626.33 672.33 645.17 628.67 638.5 620.5 Z M 494.5 132.5 C 491 132.83 508 177.67 512.5 197.5 C 517 217.33 519.67 234.5 521.5 251.5 C 523.33 268.5 523.83 285.5 523.5 299.5 C 523.17 313.5 521.83 322.5 519.5 335.5 C 517.17 348.5 514 364 509.5 377.5 C 505 391 504.83 394.83 492.5 416.5 C 480.17 438.17 446.5 489.33 435.5 507.5 C 424.5 525.67 428.5 523.33 426.5 525.5 C 424.5 527.67 424.5 521 423.5 520.5 C 422.5 520 420 520.5 420.5 522.5 C 421 524.5 424.83 530.67 426.5 532.5 C 428.17 534.33 427.67 537.67 430.5 533.5 C 433.33 529.33 436.5 515.33 443.5 507.5 C 450.5 499.67 442.5 501.83 472.5 486.5 C 502.5 471.17 596.17 419.17 623.5 415.5 C 650.83 411.83 633.5 450.67 636.5 464.5 C 639.5 478.33 640.17 482.17 641.5 498.5 C 642.83 514.83 645 543.33 644.5 562.5 C 644 581.67 639.17 604.17 638.5 613.5 C 637.83 622.83 639.17 624.33 640.5 618.5 C 641.83 612.67 645.67 595.17 646.5 578.5 C 647.33 561.83 646.33 535.67 645.5 518.5 C 644.67 501.33 644.33 492 641.5 475.5 C 638.67 459 633.67 437.83 628.5 419.5 C 623.33 401.17 620.17 390.5 610.5 365.5 C 600.83 340.5 583.33 297.83 570.5 269.5 C 557.67 241.17 546.17 218.33 533.5 195.5 C 520.83 172.67 498 132.17 494.5 132.5 Z"/>
    <path fill="#009f3a" stroke="#009f3a" d="M 475.5 803.5 C 473.33 798.67 477.17 848 478.5 861.5 C 479.83 875 481.5 878.33 483.5 884.5 C 485.5 890.67 489.67 897.33 490.5 898.5 C 491.33 899.67 488.33 892.83 488.5 891.5 C 488.67 890.17 493.67 905.17 491.5 890.5 C 489.33 875.83 477.67 808.33 475.5 803.5 Z M 624.5 413.5 C 596.67 417.33 500.83 470.17 470.5 485.5 C 440.17 500.83 449.67 497.67 442.5 505.5 C 435.33 513.33 426.83 521 427.5 532.5 C 428.17 544 440.67 556.67 446.5 574.5 C 452.33 592.33 458 611.17 462.5 639.5 C 467 667.83 471.5 718 473.5 744.5 C 475.5 771 474.17 797.67 474.5 798.5 C 474.83 799.33 472.67 763.67 475.5 749.5 C 478.33 735.33 479.83 726.83 491.5 713.5 C 503.17 700.17 530.83 680.17 545.5 669.5 C 560.17 658.83 563.83 657.5 579.5 649.5 C 595.17 641.5 628.5 635.67 639.5 621.5 C 650.5 607.33 645 585.33 645.5 564.5 C 646 543.67 643.83 513.5 642.5 496.5 C 641.17 479.5 640.5 476.33 637.5 462.5 C 634.5 448.67 652.33 409.67 624.5 413.5 Z"/>
    <path fill="#007a39" stroke="#007a39" d="M 425.5 533.5 C 420.5 540.17 410.83 574.33 406.5 590.5 C 402.17 606.67 400.67 618.33 399.5 630.5 C 398.33 642.67 397.33 649 399.5 663.5 C 401.67 678 407.83 702.17 412.5 717.5 C 417.17 732.83 416.5 731.67 427.5 755.5 C 438.5 779.33 471.17 855.5 478.5 860.5 C 485.83 865.5 472.67 808.17 471.5 785.5 C 470.33 762.83 473 748.67 471.5 724.5 C 470 700.33 466.33 664.5 462.5 640.5 C 458.67 616.5 452.83 595.5 448.5 580.5 C 444.17 565.5 440.33 558.33 436.5 550.5 C 432.67 542.67 430.5 526.83 425.5 533.5 Z M 255.5 349.5 C 253.83 348.17 253.83 351.5 255.5 353.5 C 257.17 355.5 265.5 362.17 265.5 361.5 C 265.5 360.83 257.17 350.83 255.5 349.5 Z M 219.5 299.5 C 218.5 298.83 218.5 302.17 219.5 303.5 C 220.5 304.83 225.5 308.17 225.5 307.5 C 225.5 306.83 220.5 300.17 219.5 299.5 Z"/>
    <path fill="#007d38" stroke="#007d38" d="M 472.5 795.5 C 472.5 799.5 475 823.67 475.5 824.5 C 476 825.33 476 805.33 475.5 800.5 C 475 795.67 472.5 791.5 472.5 795.5 Z M 115.5 699.5 C 115.83 700.67 129.17 719.83 131.5 722.5 C 133.83 725.17 132.17 719.33 129.5 715.5 C 126.83 711.67 115.17 698.33 115.5 699.5 Z M 69.5 606.5 C 69.67 607.67 73.83 615.17 74.5 615.5 C 75.17 615.83 74.33 610 73.5 608.5 C 72.67 607 69.33 605.33 69.5 606.5 Z M 62.5 582.5 C 62.5 583.5 65.83 591 66.5 591.5 C 67.17 592 67.17 587 66.5 585.5 C 65.83 584 62.5 581.5 62.5 582.5 Z M 419.5 524.5 C 412.67 529.17 396.17 548.17 387.5 560.5 C 378.83 572.83 372.17 585.5 367.5 598.5 C 362.83 611.5 360.17 624.17 359.5 638.5 C 358.83 652.83 359.17 666.33 363.5 684.5 C 367.83 702.67 376 726.17 385.5 747.5 C 395 768.83 403.33 786.17 420.5 812.5 C 437.67 838.83 476.5 889.83 488.5 905.5 C 500.5 921.17 493.83 912 492.5 906.5 C 491.17 901 482.83 881.33 480.5 872.5 C 478.17 863.67 479.33 856.83 478.5 853.5 C 477.67 850.17 475.83 855.83 475.5 852.5 C 475.17 849.17 476.67 833.83 476.5 833.5 C 476.33 833.17 482.5 863.83 474.5 850.5 C 466.5 837.17 440.17 781.33 428.5 753.5 C 416.83 725.67 409.17 698.83 404.5 683.5 C 399.83 668.17 400.67 673.33 400.5 661.5 C 400.33 649.67 401.33 627.5 403.5 612.5 C 405.67 597.5 409.5 583.83 413.5 571.5 C 417.5 559.17 421.67 536.83 427.5 538.5 C 433.33 540.17 448.33 582.5 448.5 581.5 C 448.67 580.5 433.33 542 428.5 532.5 C 423.67 523 426.33 519.83 419.5 524.5 Z M 413.5 510.5 C 413 510.5 417.17 519.67 418.5 521.5 C 419.83 523.33 422.33 523.33 421.5 521.5 C 420.67 519.67 414 510.5 413.5 510.5 Z M 373.5 462.5 C 372.83 462.5 380.33 472.5 382.5 474.5 C 384.67 476.5 388 476.5 386.5 474.5 C 385 472.5 374.17 462.5 373.5 462.5 Z M 294.5 394.5 C 293.83 395 295.5 398.67 296.5 399.5 C 297.5 400.33 299.83 400 300.5 399.5 C 301.17 399 301.5 397.33 300.5 396.5 C 299.5 395.67 295.17 394 294.5 394.5 Z M 66.5 269.5 C 65.83 269.67 62.5 275.5 62.5 276.5 C 62.5 277.5 65.83 276.67 66.5 275.5 C 67.17 274.33 67.17 269.33 66.5 269.5 Z M 110.5 172.5 C 109.83 172.67 105.67 178.5 105.5 179.5 C 105.33 180.5 108.67 179.67 109.5 178.5 C 110.33 177.33 111.17 172.33 110.5 172.5 Z M 143.5 120.5 C 144.5 118.5 140.33 121 138.5 123.5 C 136.67 126 131.67 136 132.5 135.5 C 133.33 135 142.5 122.5 143.5 120.5 Z"/>
  </g>
</svg>
