<svg xmlns="http://www.w3.org/2000/svg" width="899" height="921" viewBox="0 0 899 921" role="img" aria-labelledby="title desc">
  <title id="title">Nur logo loop frame 031</title>
  <desc id="desc">Vector-traced frame from Nur_Logo_Loop_02.gif.</desc>
  <g id="frame-031" stroke-linejoin="round" stroke-linecap="round" stroke-width="0.5" shape-rendering="geometricPrecision">
    <path fill="#008136" stroke="#008136" d="M 235.5 80.5 C 225.5 86.5 195.67 104.67 180.5 118.5 C 165.33 132.33 156.33 146.17 144.5 163.5 C 132.67 180.83 115.17 212 109.5 222.5 C 103.83 233 112.33 222.33 110.5 226.5 C 108.67 230.67 104.33 233 98.5 247.5 C 92.67 262 79.17 301.5 75.5 313.5 C 71.83 325.5 76.83 318.33 76.5 319.5 C 76.17 320.67 76.17 311.67 73.5 320.5 C 70.83 329.33 64.33 353.33 60.5 372.5 C 56.67 391.67 51.67 411.17 50.5 435.5 C 49.33 459.83 50 488.67 53.5 518.5 C 57 548.33 64.33 589.33 71.5 614.5 C 78.67 639.67 85.17 649.17 96.5 669.5 C 107.83 689.83 124.17 716 139.5 736.5 C 154.83 757 171.67 776 188.5 792.5 C 205.33 809 222.67 823.17 240.5 835.5 C 258.33 847.83 273.83 856.83 295.5 866.5 C 317.17 876.17 345.83 886.67 370.5 893.5 C 395.17 900.33 423 905.17 443.5 907.5 C 464 909.83 486.67 911.5 493.5 907.5 C 500.33 903.5 487.17 894.17 484.5 883.5 C 481.83 872.83 479.17 866.83 477.5 843.5 C 475.83 820.17 476.17 773.5 474.5 743.5 C 472.83 713.5 470.5 687 467.5 663.5 C 464.5 640 460.83 620.17 456.5 602.5 C 452.17 584.83 448.17 572.67 441.5 557.5 C 434.83 542.33 425 525.17 416.5 511.5 C 408 497.83 407.83 493.5 390.5 475.5 C 373.17 457.5 334 424.67 312.5 403.5 C 291 382.33 274.17 364.67 261.5 348.5 C 248.83 332.33 242.67 318.33 236.5 306.5 C 230.33 294.67 228.33 291.5 224.5 277.5 C 220.67 263.5 216 232.5 213.5 222.5 C 211 212.5 210.17 223.83 209.5 217.5 C 208.83 211.17 209 190.17 209.5 184.5 C 210 178.83 211.67 189.17 212.5 183.5 C 213.33 177.83 213.17 160.83 214.5 150.5 C 215.83 140.17 217.67 131 220.5 121.5 C 223.33 112 228.17 100 231.5 93.5 C 234.83 87 239.83 84.67 240.5 82.5 C 241.17 80.33 245.5 74.5 235.5 80.5 Z"/>
    <path fill="#83bb26" stroke="#83bb26" d="M 459.5 473.5 C 457.67 470.17 421.83 501 416.5 510.5 C 411.17 520 420.33 536.67 427.5 530.5 C 434.67 524.33 461.33 476.83 459.5 473.5 Z M 615.5 43.5 C 609.5 42.67 610 43.5 616.5 46.5 C 623 49.5 643.5 56 654.5 61.5 C 665.5 67 670.17 69.67 682.5 79.5 C 694.83 89.33 717.33 108 728.5 120.5 C 739.67 133 744 139.67 749.5 154.5 C 755 169.33 759.5 195.17 761.5 209.5 C 763.5 223.83 762.33 231.17 761.5 240.5 C 760.67 249.83 759 257.5 756.5 265.5 C 754 273.5 750.67 281 746.5 288.5 C 742.33 296 737.5 303.17 731.5 310.5 C 725.5 317.83 719.33 324.5 710.5 332.5 C 701.67 340.5 689.67 350.33 678.5 358.5 C 667.33 366.67 655.33 374.67 643.5 381.5 C 631.67 388.33 608.83 379.33 607.5 399.5 C 606.17 419.67 630.17 479 635.5 502.5 C 640.83 526 639.33 524.67 639.5 540.5 C 639.67 556.33 628.33 592.67 636.5 597.5 C 644.67 602.33 670.17 581.17 688.5 569.5 C 706.83 557.83 730.5 540.5 746.5 527.5 C 762.5 514.5 773.83 503.33 784.5 491.5 C 795.17 479.67 802.17 470.17 810.5 456.5 C 818.83 442.83 828.5 423.83 834.5 409.5 C 840.5 395.17 843.5 385 846.5 370.5 C 849.5 356 851.5 339.17 852.5 322.5 C 853.5 305.83 853.33 284.17 852.5 270.5 C 851.67 256.83 851.67 253.33 847.5 240.5 C 843.33 227.67 836.83 209.83 827.5 193.5 C 818.17 177.17 803.5 157.33 791.5 142.5 C 779.5 127.67 766 114 755.5 104.5 C 745 95 739.5 92 728.5 85.5 C 717.5 79 702.17 71.17 689.5 65.5 C 676.83 59.83 664.83 55.17 652.5 51.5 C 640.17 47.83 621.5 44.33 615.5 43.5 Z"/>
    <path fill="#6ab12d" stroke="#6ab12d" d="M 457.5 157.5 C 453 156.67 479.5 182.33 487.5 196.5 C 495.5 210.67 501.67 226.67 505.5 242.5 C 509.33 258.33 510.17 272 510.5 291.5 C 510.83 311 509.5 341 507.5 359.5 C 505.5 378 511.5 374.67 498.5 402.5 C 485.5 430.33 441.5 505.83 429.5 526.5 C 417.5 547.17 428.5 529 426.5 526.5 C 424.5 524 419.33 513.5 417.5 511.5 C 415.67 509.5 414 511 415.5 514.5 C 417 518 424 529.33 426.5 532.5 C 429 535.67 424 543.33 430.5 533.5 C 437 523.67 451.67 488.17 465.5 473.5 C 479.33 458.83 490 456.83 513.5 445.5 C 537 434.17 587 399 606.5 405.5 C 626 412 625.17 459.83 630.5 484.5 C 635.83 509.17 637.83 534.33 638.5 553.5 C 639.17 572.67 642.83 588.17 634.5 599.5 C 626.17 610.83 602.33 614 588.5 621.5 C 574.67 629 563.17 636.17 551.5 644.5 C 539.83 652.83 530 660.17 518.5 671.5 C 507 682.83 489.33 701.83 482.5 712.5 C 475.67 723.17 478.5 725.67 477.5 735.5 C 476.5 745.33 473 744 476.5 771.5 C 480 799 496.17 880.17 498.5 900.5 C 500.83 920.83 492.33 894.33 490.5 893.5 C 488.67 892.67 486.67 893.17 487.5 895.5 C 488.33 897.83 482.5 922.5 495.5 907.5 C 508.5 892.5 548 833.67 565.5 805.5 C 583 777.33 590 765.17 600.5 738.5 C 611 711.83 622 670.83 628.5 645.5 C 635 620.17 637.5 604.33 639.5 586.5 C 641.5 568.67 641.67 556.33 640.5 538.5 C 639.33 520.67 636.33 498.33 632.5 479.5 C 628.67 460.67 623.83 445.33 617.5 425.5 C 611.17 405.67 603.83 384.17 594.5 360.5 C 585.17 336.83 574.83 310 561.5 283.5 C 548.17 257 531.83 222.5 514.5 201.5 C 497.17 180.5 462 158.33 457.5 157.5 Z"/>
    <path fill="#009f3a" stroke="#009f3a" d="M 608.5 404.5 C 603.33 389.83 618.67 397.83 602.5 404.5 C 586.33 411.17 534.67 433.17 511.5 444.5 C 488.33 455.83 477.33 457.83 463.5 472.5 C 449.67 487.17 434.83 523 428.5 532.5 C 422.17 542 422.5 522.5 425.5 529.5 C 428.5 536.5 440.33 556.17 446.5 574.5 C 452.67 592.83 458.33 615.5 462.5 639.5 C 466.67 663.5 469.17 684.17 471.5 718.5 C 473.83 752.83 474.5 817.67 476.5 845.5 C 478.5 873.33 480.83 875.17 483.5 885.5 C 486.17 895.83 490.67 904.67 492.5 907.5 C 494.33 910.33 493.33 903.33 494.5 902.5 C 495.67 901.67 498.67 904 499.5 902.5 C 500.33 901 501.67 905 499.5 893.5 C 497.33 882 490.17 854.17 486.5 833.5 C 482.83 812.83 478.83 785.5 477.5 769.5 C 476.17 753.5 477.5 746.67 478.5 737.5 C 479.5 728.33 479.5 722.33 483.5 714.5 C 487.5 706.67 492.17 701 502.5 690.5 C 512.83 680 532.33 662 545.5 651.5 C 558.67 641 566.5 635.83 581.5 627.5 C 596.5 619.17 625.83 614.17 635.5 601.5 C 645.17 588.83 639.83 569.67 639.5 551.5 C 639.17 533.33 638.67 517 633.5 492.5 C 628.33 468 613.67 419.17 608.5 404.5 Z"/>
    <path fill="#007a39" stroke="#007a39" d="M 427.5 539.5 C 422.67 551.33 407.5 589.83 403.5 613.5 C 399.5 637.17 400.17 658.83 403.5 681.5 C 406.83 704.17 410.67 717.5 423.5 749.5 C 436.33 781.5 471.83 858 480.5 873.5 C 489.17 889 477 867.33 475.5 842.5 C 474 817.67 473.67 758.17 471.5 724.5 C 469.33 690.83 466.33 664.5 462.5 640.5 C 458.67 616.5 453.5 596.83 448.5 580.5 C 443.5 564.17 436 549.33 432.5 542.5 C 429 535.67 432.33 527.67 427.5 539.5 Z M 118.5 209.5 C 119.83 206 117.33 206.83 115.5 210.5 C 113.67 214.17 107 231.67 107.5 231.5 C 108 231.33 117.17 213 118.5 209.5 Z M 209.5 182.5 C 209 182.33 208.17 192.33 208.5 194.5 C 208.83 196.67 211.33 197.5 211.5 195.5 C 211.67 193.5 210 182.67 209.5 182.5 Z"/>
    <path fill="#007d38" stroke="#007d38" d="M 473.5 829.5 C 473.67 832.5 477 850.83 477.5 851.5 C 478 852.17 477.17 837.17 476.5 833.5 C 475.83 829.83 473.33 826.5 473.5 829.5 Z M 115.5 699.5 C 115.83 700.67 129.17 719.83 131.5 722.5 C 133.83 725.17 132.17 719.33 129.5 715.5 C 126.83 711.67 115.17 698.33 115.5 699.5 Z M 456.5 618.5 C 457 622.17 462 643 462.5 643.5 C 463 644 460.5 625.67 459.5 621.5 C 458.5 617.33 456 614.83 456.5 618.5 Z M 415.5 516.5 C 408.83 519.83 396 540.83 388.5 553.5 C 381 566.17 374.67 581.67 370.5 592.5 C 366.33 603.33 364.67 606.5 363.5 618.5 C 362.33 630.5 361 648 363.5 664.5 C 366 681 370.17 696.83 378.5 717.5 C 386.83 738.17 398.17 762.67 413.5 788.5 C 428.83 814.33 458.67 856.17 470.5 872.5 C 482.33 888.83 483 888.33 484.5 886.5 C 486 884.67 480.83 865.5 479.5 861.5 C 478.17 857.5 485.67 881.5 476.5 862.5 C 467.33 843.5 436.5 778 424.5 747.5 C 412.5 717 407.83 701.5 404.5 679.5 C 401.17 657.5 402.33 634 404.5 615.5 C 406.67 597 413.33 580.67 417.5 568.5 C 421.67 556.33 425 540.83 429.5 542.5 C 434 544.17 441.33 572 444.5 578.5 C 447.67 585 451.17 589 448.5 581.5 C 445.83 574 434 544.33 428.5 533.5 C 423 522.67 422.17 513.17 415.5 516.5 Z M 260.5 348.5 C 261.83 350.5 271 360.5 271.5 360.5 C 272 360.5 265.33 350.5 263.5 348.5 C 261.67 346.5 259.17 346.5 260.5 348.5 Z M 240.5 313.5 C 239.33 312.5 241 319.17 242.5 321.5 C 244 323.83 249.83 328.83 249.5 327.5 C 249.17 326.17 241.67 314.5 240.5 313.5 Z M 78.5 313.5 C 77.83 313.83 73.67 322.17 73.5 323.5 C 73.33 324.83 76.67 323.17 77.5 321.5 C 78.33 319.83 79.17 313.17 78.5 313.5 Z M 219.5 265.5 C 219 266.33 218.83 270.17 219.5 271.5 C 220.17 272.83 223 274.33 223.5 273.5 C 224 272.67 223.17 267.83 222.5 266.5 C 221.83 265.17 220 264.67 219.5 265.5 Z M 118.5 208.5 C 117.83 208.83 114.5 215.5 114.5 216.5 C 114.5 217.5 117.83 215.83 118.5 214.5 C 119.17 213.17 119.17 208.17 118.5 208.5 Z M 206.5 100.5 C 205.17 101 196.83 107.67 196.5 108.5 C 196.17 109.33 202.83 106.83 204.5 105.5 C 206.17 104.17 207.83 100 206.5 100.5 Z M 240.5 79.5 C 240.67 78.5 238.17 78.5 237.5 79.5 C 236.83 80.5 236 85.5 236.5 85.5 C 237 85.5 240.33 80.5 240.5 79.5 Z"/>
  </g>
</svg>
