<svg xmlns="http://www.w3.org/2000/svg" width="899" height="921" viewBox="0 0 899 921" role="img" aria-labelledby="title desc">
  <title id="title">Nur logo loop frame 033</title>
  <desc id="desc">Vector-traced frame from Nur_Logo_Loop_02.gif.</desc>
  <g id="frame-033" stroke-linejoin="round" stroke-linecap="round" stroke-width="0.5" shape-rendering="geometricPrecision">
    <path fill="#008136" stroke="#008136" d="M 233.5 78.5 C 223.33 85.17 190.17 107.83 175.5 121.5 C 160.83 135.17 156.5 144.17 145.5 160.5 C 134.5 176.83 121.17 194.67 109.5 219.5 C 97.83 244.33 81.33 292.33 75.5 309.5 C 69.67 326.67 75.17 320.17 74.5 322.5 C 73.83 324.83 74 315.17 71.5 323.5 C 69 331.83 63.17 353.67 59.5 372.5 C 55.83 391.33 50.5 411.33 49.5 436.5 C 48.5 461.67 49.83 493.83 53.5 523.5 C 57.17 553.17 64.33 590.17 71.5 614.5 C 78.67 638.83 85.17 649.17 96.5 669.5 C 107.83 689.83 124.17 716 139.5 736.5 C 154.83 757 171.67 776 188.5 792.5 C 205.33 809 222.67 823.17 240.5 835.5 C 258.33 847.83 273.83 856.83 295.5 866.5 C 317.17 876.17 345.83 886.67 370.5 893.5 C 395.17 900.33 423 905.17 443.5 907.5 C 464 909.83 486.67 911.67 493.5 907.5 C 500.33 903.33 487.17 893.17 484.5 882.5 C 481.83 871.83 479.17 866.67 477.5 843.5 C 475.83 820.33 476.17 773.5 474.5 743.5 C 472.83 713.5 470.5 687 467.5 663.5 C 464.5 640 460.83 620.17 456.5 602.5 C 452.17 584.83 450.67 576.5 441.5 557.5 C 432.33 538.5 427.83 519 401.5 488.5 C 375.17 458 309.5 402 283.5 374.5 C 257.5 347 255.17 338.17 245.5 323.5 C 235.83 308.83 231 302.33 225.5 286.5 C 220 270.67 215.17 238.33 212.5 228.5 C 209.83 218.67 210 240.5 209.5 227.5 C 209 214.5 209 163.5 209.5 150.5 C 210 137.5 210.67 156.67 212.5 149.5 C 214.33 142.33 216.5 118.83 220.5 107.5 C 224.5 96.17 234.33 86.33 236.5 81.5 C 238.67 76.67 243.67 71.83 233.5 78.5 Z"/>
    <path fill="#83bb26" stroke="#83bb26" d="M 457.5 476.5 C 455.67 473.33 421.5 502.5 416.5 511.5 C 411.5 520.5 420.67 536.33 427.5 530.5 C 434.33 524.67 459.33 479.67 457.5 476.5 Z M 616.5 44.5 C 616.33 45.83 637 53.17 648.5 59.5 C 660 65.83 672.67 72.83 685.5 82.5 C 698.33 92.17 714.67 105.17 725.5 117.5 C 736.33 129.83 744.83 145.17 750.5 156.5 C 756.17 167.83 757.33 176.17 759.5 185.5 C 761.67 194.83 763.5 199.83 763.5 212.5 C 763.5 225.17 761.67 249.5 759.5 261.5 C 757.33 273.5 754.5 276.83 750.5 284.5 C 746.5 292.17 740.67 300.67 735.5 307.5 C 730.33 314.33 728.5 317.17 719.5 325.5 C 710.5 333.83 694.67 347.67 681.5 357.5 C 668.33 367.33 652.67 377.33 640.5 384.5 C 628.33 391.67 610.33 386.33 608.5 400.5 C 606.67 414.67 624.33 446.33 629.5 469.5 C 634.67 492.67 638 517.83 639.5 539.5 C 641 561.17 631 593.83 638.5 599.5 C 646 605.17 666.83 585 684.5 573.5 C 702.17 562 727.17 544.67 744.5 530.5 C 761.83 516.33 776.83 501.5 788.5 488.5 C 800.17 475.5 806.83 465 814.5 452.5 C 822.17 440 828.83 427.33 834.5 413.5 C 840.17 399.67 845.33 382.17 848.5 369.5 C 851.67 356.83 852.5 353.33 853.5 337.5 C 854.5 321.67 855.5 291.5 854.5 274.5 C 853.5 257.5 852.17 249.67 847.5 235.5 C 842.83 221.33 835.83 205.17 826.5 189.5 C 817.17 173.83 803.17 155.5 791.5 141.5 C 779.83 127.5 767.83 115.17 756.5 105.5 C 745.17 95.83 735.17 90.17 723.5 83.5 C 711.83 76.83 698.83 70.83 686.5 65.5 C 674.17 60.17 661.17 55 649.5 51.5 C 637.83 48 616.67 43.17 616.5 44.5 Z"/>
    <path fill="#6ab12d" stroke="#6ab12d" d="M 458.5 154.5 C 453.5 153 480 181.33 487.5 194.5 C 495 207.67 499.67 217.17 503.5 233.5 C 507.33 249.83 509.83 271.83 510.5 292.5 C 511.17 313.17 509.33 339.83 507.5 357.5 C 505.67 375.17 512.5 370.33 499.5 398.5 C 486.5 426.67 441.67 505.17 429.5 526.5 C 417.33 547.83 428.33 528.83 426.5 526.5 C 424.67 524.17 420.33 514.5 418.5 512.5 C 416.67 510.5 413.5 510.83 415.5 514.5 C 417.5 518.17 422.33 541 430.5 534.5 C 438.67 528 450.5 490.17 464.5 475.5 C 478.5 460.83 490.67 458 514.5 446.5 C 538.33 435 588.17 400.67 607.5 406.5 C 626.83 412.33 625.33 457.83 630.5 481.5 C 635.67 505.17 637.67 528.83 638.5 548.5 C 639.33 568.17 644.67 586.67 635.5 599.5 C 626.33 612.33 598.83 616.83 583.5 625.5 C 568.17 634.17 557.5 640.5 543.5 651.5 C 529.5 662.5 509.83 680.67 499.5 691.5 C 489.17 702.33 485.33 707.83 481.5 716.5 C 477.67 725.17 477.33 733.17 476.5 743.5 C 475.67 753.83 472.83 752.5 476.5 778.5 C 480.17 804.5 495.17 879 498.5 899.5 C 501.83 920 498 902.67 496.5 901.5 C 495 900.33 491 893.33 489.5 892.5 C 488 891.67 487 894.17 487.5 896.5 C 488 898.83 491 904.67 492.5 906.5 C 494 908.33 484.33 924.33 496.5 907.5 C 508.67 890.67 548 834 565.5 805.5 C 583 777 592.17 758.33 601.5 736.5 C 610.83 714.67 615.17 698.83 621.5 674.5 C 627.83 650.17 636.33 613.33 639.5 590.5 C 642.67 567.67 641.33 554.83 640.5 537.5 C 639.67 520.17 637.5 502.83 634.5 486.5 C 631.5 470.17 628.67 459.5 622.5 439.5 C 616.33 419.5 607 391.33 597.5 366.5 C 588 341.67 578.83 317.67 565.5 290.5 C 552.17 263.33 535.33 226.17 517.5 203.5 C 499.67 180.83 463.5 156 458.5 154.5 Z"/>
    <path fill="#009f3a" stroke="#009f3a" d="M 608.5 404.5 C 589.5 402.17 536.83 433.83 512.5 445.5 C 488.17 457.17 476.5 459.83 462.5 474.5 C 448.5 489.17 431.17 516.83 428.5 533.5 C 425.83 550.17 440.83 556.83 446.5 574.5 C 452.17 592.17 458 611 462.5 639.5 C 467 668 471.17 711.17 473.5 745.5 C 475.83 779.83 475.17 823.5 476.5 845.5 C 477.83 867.5 479.67 868.83 481.5 877.5 C 483.33 886.17 485.67 893.67 487.5 897.5 C 489.33 901.33 491.67 898.83 492.5 900.5 C 493.33 902.17 491.33 907.33 492.5 907.5 C 493.67 907.67 502 923.33 499.5 901.5 C 497 879.67 481.17 802.5 477.5 776.5 C 473.83 750.5 476.33 756 477.5 745.5 C 478.67 735 477.5 725.33 484.5 713.5 C 491.5 701.67 508.67 685.17 519.5 674.5 C 530.33 663.83 538.5 657.5 549.5 649.5 C 560.5 641.5 571 634.5 585.5 626.5 C 600 618.5 627.5 614.83 636.5 601.5 C 645.5 588.17 639.67 562.83 639.5 546.5 C 639.33 530.17 637.67 518 635.5 503.5 C 633.33 489 631 476 626.5 459.5 C 622 443 627.5 406.83 608.5 404.5 Z"/>
    <path fill="#007a39" stroke="#007a39" d="M 427.5 539.5 C 422.67 551.83 407.5 593.33 403.5 616.5 C 399.5 639.67 401.33 660 403.5 678.5 C 405.67 697 410.5 709.33 416.5 727.5 C 422.5 745.67 429.67 764.5 439.5 787.5 C 449.33 810.5 468.83 852.17 475.5 865.5 C 482.17 878.83 479.5 871.33 479.5 867.5 C 479.5 863.67 476.83 866.33 475.5 842.5 C 474.17 818.67 473.67 758.17 471.5 724.5 C 469.33 690.83 466.33 664.5 462.5 640.5 C 458.67 616.5 453.5 596.83 448.5 580.5 C 443.5 564.17 436 549.33 432.5 542.5 C 429 535.67 432.33 527.17 427.5 539.5 Z M 208.5 223.5 C 208 224.5 208 228.5 208.5 229.5 C 209 230.5 211 230.5 211.5 229.5 C 212 228.5 212 224.5 211.5 223.5 C 211 222.5 209 222.5 208.5 223.5 Z M 209.5 148.5 C 209 148.5 208.17 154.33 208.5 155.5 C 208.83 156.67 211.33 156.67 211.5 155.5 C 211.67 154.33 210 148.5 209.5 148.5 Z"/>
    <path fill="#007d38" stroke="#007d38" d="M 115.5 699.5 C 115.83 700.67 129.17 719.83 131.5 722.5 C 133.83 725.17 132.17 719.33 129.5 715.5 C 126.83 711.67 115.17 698.33 115.5 699.5 Z M 456.5 618.5 C 457 622.17 462 643 462.5 643.5 C 463 644 460.5 625.67 459.5 621.5 C 458.5 617.33 456 614.83 456.5 618.5 Z M 415.5 517.5 C 409.83 524.17 393.17 545.67 385.5 558.5 C 377.83 571.33 373.33 583.17 369.5 594.5 C 365.67 605.83 363.5 614.83 362.5 626.5 C 361.5 638.17 362.33 653.5 363.5 664.5 C 364.67 675.5 364.67 678 369.5 692.5 C 374.33 707 381.5 729.67 392.5 751.5 C 403.5 773.33 420 800.33 435.5 823.5 C 451 846.67 478.17 884.17 485.5 890.5 C 492.83 896.83 481.33 866.83 479.5 861.5 C 477.67 856.17 483.67 877.83 474.5 858.5 C 465.33 839.17 436.17 775.83 424.5 745.5 C 412.83 715.17 407.83 697.67 404.5 676.5 C 401.17 655.33 402.33 636.33 404.5 618.5 C 406.67 600.67 413.33 582.17 417.5 569.5 C 421.67 556.83 424.33 540.5 429.5 542.5 C 434.67 544.5 448.67 583 448.5 581.5 C 448.33 580 433.33 544 428.5 533.5 C 423.67 523 421.67 521.17 419.5 518.5 C 417.33 515.83 421.17 510.83 415.5 517.5 Z M 75.5 319.5 C 75 318.67 73.17 319.17 72.5 320.5 C 71.83 321.83 71 326.67 71.5 327.5 C 72 328.33 74.83 326.83 75.5 325.5 C 76.17 324.17 76 320.33 75.5 319.5 Z M 85.5 285.5 C 84.5 286.5 80.33 295.67 80.5 296.5 C 80.67 297.33 85.67 292.33 86.5 290.5 C 87.33 288.67 86.5 284.5 85.5 285.5 Z M 116.5 212.5 C 116.83 211.33 113.5 213 112.5 214.5 C 111.5 216 109.83 221.83 110.5 221.5 C 111.17 221.17 116.17 213.67 116.5 212.5 Z M 230.5 88.5 C 230.83 87 227.5 88.67 226.5 90.5 C 225.5 92.33 223.83 99.83 224.5 99.5 C 225.17 99.17 230.17 90 230.5 88.5 Z"/>
  </g>
</svg>
