<svg xmlns="http://www.w3.org/2000/svg" width="899" height="921" viewBox="0 0 899 921" role="img" aria-labelledby="title desc">
  <title id="title">Nur logo loop frame 055</title>
  <desc id="desc">Vector-traced frame from Nur_Logo_Loop_02.gif.</desc>
  <g id="frame-055" stroke-linejoin="round" stroke-linecap="round" stroke-width="0.5" shape-rendering="geometricPrecision">
    <path fill="#008136" stroke="#008136" d="M 209.5 53.5 C 200.17 64.67 174.33 96.33 156.5 122.5 C 138.67 148.67 115.17 187.5 102.5 210.5 C 89.83 233.5 86.83 243.83 80.5 260.5 C 74.17 277.17 67 301.17 64.5 310.5 C 62 319.83 65.83 315.17 65.5 316.5 C 65.17 317.83 65.33 305 62.5 318.5 C 59.67 332 51.5 373 48.5 397.5 C 45.5 422 43.67 441.67 44.5 465.5 C 45.33 489.33 49 515.67 53.5 540.5 C 58 565.33 64.33 593 71.5 614.5 C 78.67 636 85.17 649.17 96.5 669.5 C 107.83 689.83 124.17 716 139.5 736.5 C 154.83 757 171.67 776 188.5 792.5 C 205.33 809 222.67 823.17 240.5 835.5 C 258.33 847.83 273.83 856.83 295.5 866.5 C 317.17 876.17 345.83 886.67 370.5 893.5 C 395.17 900.33 423 905.17 443.5 907.5 C 464 909.83 486.67 911.67 493.5 907.5 C 500.33 903.33 487.17 893.17 484.5 882.5 C 481.83 871.83 479.17 866.67 477.5 843.5 C 475.83 820.33 476.17 773.5 474.5 743.5 C 472.83 713.5 470.5 687 467.5 663.5 C 464.5 640 460.83 620.17 456.5 602.5 C 452.17 584.83 447.83 572.17 441.5 557.5 C 435.17 542.83 426 527 418.5 514.5 C 411 502 419 505.83 396.5 482.5 C 374 459.17 310.17 402 283.5 374.5 C 256.83 347 247.33 332 236.5 317.5 C 225.67 303 223.5 297.33 218.5 287.5 C 213.5 277.67 210.83 272.5 206.5 258.5 C 202.17 244.5 195.17 220.5 192.5 203.5 C 189.83 186.5 190 172.67 190.5 156.5 C 191 140.33 193.67 117.83 195.5 106.5 C 197.33 95.17 200.67 92.5 201.5 88.5 C 202.33 84.5 200.17 83.67 200.5 82.5 C 200.83 81.33 201.5 86 203.5 81.5 C 205.5 77 211.5 60.17 212.5 55.5 C 213.5 50.83 218.83 42.33 209.5 53.5 Z"/>
    <path fill="#83bb26" stroke="#83bb26" d="M 446.5 494.5 C 445.33 492 423.67 509.5 420.5 515.5 C 417.33 521.5 423.17 534 427.5 530.5 C 431.83 527 447.67 497 446.5 494.5 Z M 659.5 33.5 C 650.5 29 644.67 25.67 654.5 35.5 C 664.33 45.33 702.17 74.83 718.5 92.5 C 734.83 110.17 743.17 124.83 752.5 141.5 C 761.83 158.17 770.17 180.67 774.5 192.5 C 778.83 204.33 777.83 204.83 778.5 212.5 C 779.17 220.17 779.83 228.67 778.5 238.5 C 777.17 248.33 773.5 262.67 770.5 271.5 C 767.5 280.33 765.33 284 760.5 291.5 C 755.67 299 748.83 308.17 741.5 316.5 C 734.17 324.83 726.33 332.83 716.5 341.5 C 706.67 350.17 698.67 357.67 682.5 368.5 C 666.33 379.33 627.33 391.33 619.5 406.5 C 611.67 421.67 631.67 444.33 635.5 459.5 C 639.33 474.67 640.83 477.83 642.5 497.5 C 644.17 517.17 645.67 559 645.5 577.5 C 645.33 596 635.83 606.67 641.5 608.5 C 647.17 610.33 664.83 597.5 679.5 588.5 C 694.17 579.5 714.5 565.67 729.5 554.5 C 744.5 543.33 757.33 532.67 769.5 521.5 C 781.67 510.33 792.5 499.67 802.5 487.5 C 812.5 475.33 821.67 461.67 829.5 448.5 C 837.33 435.33 844 421.83 849.5 408.5 C 855 395.17 859.33 382.17 862.5 368.5 C 865.67 354.83 867.5 340.17 868.5 326.5 C 869.5 312.83 869.67 300.17 868.5 286.5 C 867.33 272.83 865.33 258.33 861.5 244.5 C 857.67 230.67 851 215 845.5 203.5 C 840 192 840.83 191.5 828.5 175.5 C 816.17 159.5 791.5 126.33 771.5 107.5 C 751.5 88.67 727.17 74.83 708.5 62.5 C 689.83 50.17 668.5 38 659.5 33.5 Z"/>
    <path fill="#6ab12d" stroke="#6ab12d" d="M 639.5 612.5 C 633 607.83 605.33 627.17 589.5 635.5 C 573.67 643.83 558 653.33 544.5 662.5 C 531 671.67 518.33 681.67 508.5 690.5 C 498.67 699.33 490.83 706 485.5 715.5 C 480.17 725 478.17 736.67 476.5 747.5 C 474.83 758.33 472.5 755.67 475.5 780.5 C 478.5 805.33 492.67 880 494.5 896.5 C 496.33 913 488.33 881.83 486.5 879.5 C 484.67 877.17 482.33 877.83 483.5 882.5 C 484.67 887.17 490.33 904.67 493.5 907.5 C 496.67 910.33 494.67 910 502.5 899.5 C 510.33 889 525.17 868.83 540.5 844.5 C 555.83 820.17 579.83 783.67 594.5 753.5 C 609.17 723.33 621 687 628.5 663.5 C 636 640 646 617.17 639.5 612.5 Z M 480.5 135.5 C 482.67 142.83 493.17 164.83 498.5 182.5 C 503.83 200.17 509.67 227 512.5 241.5 C 515.33 256 515.5 253.5 515.5 269.5 C 515.5 285.5 514.5 319.17 512.5 337.5 C 510.5 355.83 508.5 364.5 503.5 379.5 C 498.5 394.5 494.83 403.17 482.5 427.5 C 470.17 451.83 438.83 509 429.5 525.5 C 420.17 542 427.83 528 426.5 526.5 C 425.17 525 422.83 518.17 421.5 516.5 C 420.17 514.83 418.83 515.67 418.5 516.5 C 418.17 517.33 417.17 518 419.5 521.5 C 421.83 525 426 542.5 432.5 537.5 C 439 532.5 444.83 504.5 458.5 491.5 C 472.17 478.5 487.83 472.67 514.5 459.5 C 541.17 446.33 597.67 408 618.5 412.5 C 639.33 417 635.33 466 639.5 486.5 C 643.67 507 643 515 643.5 535.5 C 644 556 642 602.17 642.5 609.5 C 643 616.83 646.33 598.5 646.5 579.5 C 646.67 560.5 645.17 515.83 643.5 495.5 C 641.83 475.17 639.83 471.17 636.5 457.5 C 633.17 443.83 629.33 430.67 623.5 413.5 C 617.67 396.33 614.17 383.33 601.5 354.5 C 588.83 325.67 561 267.67 547.5 240.5 C 534 213.33 530.83 208.5 520.5 191.5 C 510.17 174.5 492.17 147.83 485.5 138.5 C 478.83 129.17 478.33 128.17 480.5 135.5 Z"/>
    <path fill="#009f3a" stroke="#009f3a" d="M 620.5 411.5 C 600 411.17 537.33 447 512.5 458.5 C 487.67 470 481.33 474.67 471.5 480.5 C 461.67 486.33 460 484.5 453.5 493.5 C 447 502.5 437.17 528.5 432.5 534.5 C 427.83 540.5 423.17 522.83 425.5 529.5 C 427.83 536.17 440.33 556.17 446.5 574.5 C 452.67 592.83 458.33 615.5 462.5 639.5 C 466.67 663.5 469.17 684.17 471.5 718.5 C 473.83 752.83 474.5 817.83 476.5 845.5 C 478.5 873.17 480.83 874.17 483.5 884.5 C 486.17 894.83 490.67 904 492.5 907.5 C 494.33 911 494.83 907.33 494.5 905.5 C 494.17 903.67 490 897.17 490.5 896.5 C 491 895.83 499.83 921.17 497.5 901.5 C 495.17 881.83 479.83 803.83 476.5 778.5 C 473.17 753.17 475.83 759.67 477.5 749.5 C 479.17 739.33 481 727.17 486.5 717.5 C 492 707.83 500.5 700.5 510.5 691.5 C 520.5 682.5 524.67 676.83 546.5 663.5 C 568.33 650.17 625.17 624.67 641.5 611.5 C 657.83 598.33 644.33 602.67 644.5 584.5 C 644.67 566.33 644 523.17 642.5 502.5 C 641 481.83 639.17 475.67 635.5 460.5 C 631.83 445.33 641 411.83 620.5 411.5 Z"/>
    <path fill="#007a39" stroke="#007a39" d="M 428.5 538.5 C 422.5 538.67 416.67 567.67 412.5 581.5 C 408.33 595.33 405 606 403.5 621.5 C 402 637 400.83 655.83 403.5 674.5 C 406.17 693.17 407.5 702.5 419.5 733.5 C 431.5 764.5 465.67 839.33 475.5 860.5 C 485.33 881.67 479.17 883.17 478.5 860.5 C 477.83 837.83 474.17 761.17 471.5 724.5 C 468.83 687.83 466.33 664.5 462.5 640.5 C 458.67 616.5 454.17 597.5 448.5 580.5 C 442.83 563.5 434.5 538.33 428.5 538.5 Z"/>
    <path fill="#007d38" stroke="#007d38" d="M 115.5 699.5 C 115.83 700.67 129.17 719.83 131.5 722.5 C 133.83 725.17 132.17 719.33 129.5 715.5 C 126.83 711.67 115.17 698.33 115.5 699.5 Z M 456.5 618.5 C 457 622.17 462 643 462.5 643.5 C 463 644 460.5 625.67 459.5 621.5 C 458.5 617.33 456 614.83 456.5 618.5 Z M 418.5 522.5 C 412.17 528.17 394.5 549.17 386.5 560.5 C 378.5 571.83 374.83 578.17 370.5 590.5 C 366.17 602.83 361.83 621.5 360.5 634.5 C 359.17 647.5 360.67 656.67 362.5 668.5 C 364.33 680.33 366.33 690.67 371.5 705.5 C 376.67 720.33 381.83 735.67 393.5 757.5 C 405.17 779.33 425.67 813 441.5 836.5 C 457.33 860 482.67 894.83 488.5 898.5 C 494.33 902.17 478.17 866 476.5 858.5 C 474.83 851 478.83 854.5 478.5 853.5 C 478.17 852.5 474.67 852.83 474.5 852.5 C 474.33 852.17 477.33 855.33 477.5 851.5 C 477.67 847.67 476 829.67 475.5 829.5 C 475 829.33 483.67 866.83 474.5 850.5 C 465.33 834.17 432.17 761.17 420.5 731.5 C 408.83 701.83 407.17 690.5 404.5 672.5 C 401.83 654.5 403 638.33 404.5 623.5 C 406 608.67 409.33 597 413.5 583.5 C 417.67 570 422.5 538.67 429.5 542.5 C 436.5 546.33 453.83 604.33 455.5 606.5 C 457.17 608.67 444.67 568.83 439.5 555.5 C 434.33 542.17 428 532 424.5 526.5 C 421 521 424.83 516.83 418.5 522.5 Z M 236.5 316.5 C 235.67 316.17 236.5 321.17 237.5 322.5 C 238.5 323.83 242.67 325.5 242.5 324.5 C 242.33 323.5 237.33 316.83 236.5 316.5 Z M 67.5 309.5 C 67 309.5 63.67 317 63.5 318.5 C 63.33 320 65.83 320 66.5 318.5 C 67.17 317 68 309.5 67.5 309.5 Z M 114.5 194.5 C 113.83 194.83 108 204 107.5 205.5 C 107 207 110.33 205.33 111.5 203.5 C 112.67 201.67 115.17 194.17 114.5 194.5 Z M 137.5 157.5 C 136.83 157.67 132.67 162.67 132.5 163.5 C 132.33 164.33 135.67 163.5 136.5 162.5 C 137.33 161.5 138.17 157.33 137.5 157.5 Z M 159.5 122.5 C 160.17 120.67 156 123.17 154.5 125.5 C 153 127.83 149.67 137 150.5 136.5 C 151.33 136 158.83 124.33 159.5 122.5 Z M 203.5 77.5 C 203.5 76.5 200.17 78.17 199.5 79.5 C 198.83 80.83 198.83 85.83 199.5 85.5 C 200.17 85.17 203.5 78.5 203.5 77.5 Z"/>
  </g>
</svg>
