<svg xmlns="http://www.w3.org/2000/svg" width="899" height="921" viewBox="0 0 899 921" role="img" aria-labelledby="title desc">
  <title id="title">Nur logo loop frame 099</title>
  <desc id="desc">Vector-traced frame from Nur_Logo_Loop_02.gif.</desc>
  <g id="frame-099" stroke-linejoin="round" stroke-linecap="round" stroke-width="0.5" shape-rendering="geometricPrecision">
    <path fill="#008136" stroke="#008136" d="M 215.5 65.5 C 205.5 75.17 176.67 103 159.5 125.5 C 142.33 148 123.5 182 112.5 200.5 C 101.5 219 100.83 218.33 93.5 236.5 C 86.17 254.67 74.83 285.33 68.5 309.5 C 62.17 333.67 58.5 355.67 55.5 381.5 C 52.5 407.33 50.67 443.17 50.5 464.5 C 50.33 485.83 53.17 500.83 54.5 509.5 C 55.83 518.17 58 512.83 58.5 516.5 C 59 520.17 54.67 515.83 57.5 531.5 C 60.33 547.17 68.33 587.67 75.5 610.5 C 82.67 633.33 89.33 647.5 100.5 668.5 C 111.67 689.5 129.67 718 142.5 736.5 C 155.33 755 165.83 766.67 177.5 779.5 C 189.17 792.33 201.67 804 212.5 813.5 C 223.33 823 228.67 827.67 242.5 836.5 C 256.33 845.33 274.17 857 295.5 866.5 C 316.83 876 345.83 886.67 370.5 893.5 C 395.17 900.33 423.17 905.17 443.5 907.5 C 463.83 909.83 486.5 915.5 492.5 907.5 C 498.5 899.5 482.17 878.83 479.5 859.5 C 476.83 840.17 477.33 795.67 476.5 791.5 C 475.67 787.33 474 820.17 474.5 834.5 C 475 848.83 484.67 883.17 479.5 877.5 C 474.33 871.83 450.83 815.17 443.5 800.5 C 436.17 785.83 430.17 776.33 435.5 789.5 C 440.83 802.67 474.67 872.33 475.5 879.5 C 476.33 886.67 453.5 852 440.5 832.5 C 427.5 813 409 784 397.5 762.5 C 386 741 377.5 720.67 371.5 703.5 C 365.5 686.33 363.17 672.17 361.5 659.5 C 359.83 646.83 360 638.67 361.5 627.5 C 363 616.33 365.17 605.17 370.5 592.5 C 375.83 579.83 385.33 563 393.5 551.5 C 401.67 540 411.33 520.83 419.5 523.5 C 427.67 526.17 436 550.83 442.5 567.5 C 449 584.17 454.33 603.83 458.5 623.5 C 462.67 643.17 464.67 657.83 467.5 685.5 C 470.33 713.17 475.5 793.17 475.5 789.5 C 475.5 785.83 470.67 694.67 467.5 663.5 C 464.33 632.33 460.83 620.17 456.5 602.5 C 452.17 584.83 450.67 576.5 441.5 557.5 C 432.33 538.5 427.83 519 401.5 488.5 C 375.17 458 311.33 403.83 283.5 374.5 C 255.67 345.17 246.83 330.67 234.5 312.5 C 222.17 294.33 213.5 274.33 209.5 265.5 C 205.5 256.67 212.83 268.83 210.5 259.5 C 208.17 250.17 198.17 225 195.5 209.5 C 192.83 194 194 182 194.5 166.5 C 195 151 197.33 125 198.5 116.5 C 199.67 108 201.17 117 201.5 115.5 C 201.83 114 200.17 109 200.5 107.5 C 200.83 106 202 110.67 203.5 106.5 C 205 102.33 206.83 89 209.5 82.5 C 212.17 76 218.5 70.33 219.5 67.5 C 220.5 64.67 225.5 55.83 215.5 65.5 Z"/>
    <path fill="#83bb26" stroke="#83bb26" d="M 448.5 491.5 C 447.17 488.83 423 508 419.5 514.5 C 416 521 422.67 534.33 427.5 530.5 C 432.33 526.67 449.83 494.17 448.5 491.5 Z M 638.5 40.5 C 631.33 38.17 627.5 36 638.5 44.5 C 649.5 53 689 79 704.5 91.5 C 720 104 721.67 105.5 731.5 119.5 C 741.33 133.5 756.33 159.67 763.5 175.5 C 770.67 191.33 772.67 203.67 774.5 214.5 C 776.33 225.33 775.5 231.83 774.5 240.5 C 773.5 249.17 771 258.83 768.5 266.5 C 766 274.17 763.67 279.33 759.5 286.5 C 755.33 293.67 754.5 297.83 743.5 309.5 C 732.5 321.17 708.5 344 693.5 356.5 C 678.5 369 666.5 376.33 653.5 384.5 C 640.5 392.67 618.17 387.17 615.5 405.5 C 612.83 423.83 633.17 470.67 637.5 494.5 C 641.83 518.33 641.33 529.83 641.5 548.5 C 641.67 567.17 631 601.17 638.5 606.5 C 646 611.83 669 591.67 686.5 580.5 C 704 569.33 726.83 552.83 743.5 539.5 C 760.17 526.17 774.67 512.83 786.5 500.5 C 798.33 488.17 805.33 479.17 814.5 465.5 C 823.67 451.83 834 434.83 841.5 418.5 C 849 402.17 855.67 381.33 859.5 367.5 C 863.33 353.67 863.67 350.5 864.5 335.5 C 865.33 320.5 865.67 293.33 864.5 277.5 C 863.33 261.67 861.33 253.17 857.5 240.5 C 853.67 227.83 848.17 214 841.5 201.5 C 834.83 189 827.83 178.83 817.5 165.5 C 807.17 152.17 789.33 131.83 779.5 121.5 C 769.67 111.17 774.83 114 758.5 103.5 C 742.17 93 701.5 69 681.5 58.5 C 661.5 48 645.67 42.83 638.5 40.5 Z"/>
    <path fill="#6ab12d" stroke="#6ab12d" d="M 470.5 139.5 C 473.5 147 486.33 169.17 492.5 185.5 C 498.67 201.83 504.17 221.33 507.5 237.5 C 510.83 253.67 512.17 265.17 512.5 282.5 C 512.83 299.83 511.83 322.83 509.5 341.5 C 507.17 360.17 511.67 364 498.5 394.5 C 485.33 425 442.33 502.33 430.5 524.5 C 418.67 546.67 429.17 529 427.5 527.5 C 425.83 526 422.17 517.17 420.5 515.5 C 418.83 513.83 416.5 514.67 417.5 517.5 C 418.5 520.33 424.33 529.83 426.5 532.5 C 428.67 535.17 426.33 539.83 430.5 533.5 C 434.67 527.17 444.67 503.5 451.5 494.5 C 458.33 485.5 462.17 485.33 471.5 479.5 C 480.83 473.67 484 470.67 507.5 459.5 C 531 448.33 591.5 408.33 612.5 412.5 C 633.5 416.67 629 461.17 633.5 484.5 C 638 507.83 639 531.83 639.5 552.5 C 640 573.17 646.67 594.33 636.5 608.5 C 626.33 622.67 594.17 628.83 578.5 637.5 C 562.83 646.17 557 649.17 542.5 660.5 C 528 671.83 501.67 695.17 491.5 705.5 C 481.33 715.83 484.33 714.5 481.5 722.5 C 478.67 730.5 475.33 740.33 474.5 753.5 C 473.67 766.67 472.83 776.67 476.5 801.5 C 480.17 826.33 493.67 884.67 496.5 902.5 C 499.33 920.33 493.33 907.5 493.5 908.5 C 493.67 909.5 483.67 928.67 497.5 908.5 C 511.33 888.33 558.83 816.83 576.5 787.5 C 594.17 758.17 595.83 750.67 603.5 732.5 C 611.17 714.33 617.17 695.83 622.5 678.5 C 627.83 661.17 632.33 643 635.5 628.5 C 638.67 614 640.33 605.17 641.5 591.5 C 642.67 577.83 643.83 567.83 642.5 546.5 C 641.17 525.17 641 495.67 633.5 463.5 C 626 431.33 609.67 385.67 597.5 353.5 C 585.33 321.33 572.83 296 560.5 270.5 C 548.17 245 537.83 222.17 523.5 200.5 C 509.17 178.83 483.33 150.67 474.5 140.5 C 465.67 130.33 467.5 132 470.5 139.5 Z"/>
    <path fill="#009f3a" stroke="#009f3a" d="M 474.5 772.5 C 471.33 766 475.67 839 478.5 861.5 C 481.33 884 488.83 899.83 491.5 907.5 C 494.17 915.17 493.5 908.67 494.5 907.5 C 495.5 906.33 500.83 923 497.5 900.5 C 494.17 878 477.67 779 474.5 772.5 Z M 614.5 411.5 C 593.67 410.67 529.67 447.33 505.5 458.5 C 481.33 469.67 478.67 472.83 469.5 478.5 C 460.33 484.17 457.33 483.5 450.5 492.5 C 443.67 501.5 432.67 526.33 428.5 532.5 C 424.33 538.67 422.5 522.5 425.5 529.5 C 428.5 536.5 441 559.67 446.5 574.5 C 452 589.33 455 601.83 458.5 618.5 C 462 635.17 465 649.5 467.5 674.5 C 470 699.5 470.67 761 473.5 768.5 C 476.33 776 477.83 733.17 484.5 719.5 C 491.17 705.83 499.5 698.83 513.5 686.5 C 527.5 674.17 547.83 658.17 568.5 645.5 C 589.17 632.83 625.5 626.33 637.5 610.5 C 649.5 594.67 640.67 569.5 640.5 550.5 C 640.33 531.5 638.17 511 636.5 496.5 C 634.83 482 634.17 477.67 630.5 463.5 C 626.83 449.33 635.33 412.33 614.5 411.5 Z"/>
    <path fill="#007a39" stroke="#007a39" d="M 147.5 740.5 C 148.33 742.17 155 750.5 155.5 750.5 C 156 750.5 151.83 742.17 150.5 740.5 C 149.17 738.83 146.67 738.83 147.5 740.5 Z M 425.5 533.5 C 421 545.17 406.33 586.83 401.5 603.5 C 396.67 620.17 397.33 622.83 396.5 633.5 C 395.67 644.17 395.5 656.5 396.5 667.5 C 397.5 678.5 399 686.67 402.5 699.5 C 406 712.33 411.83 730.33 417.5 744.5 C 423.17 758.67 433.5 777.17 436.5 784.5 C 439.5 791.83 428 772.5 435.5 788.5 C 443 804.5 474.83 871.5 481.5 880.5 C 488.17 889.5 477.17 868.5 475.5 842.5 C 473.83 816.5 473.67 758.17 471.5 724.5 C 469.33 690.83 466.33 664.5 462.5 640.5 C 458.67 616.5 454.17 598.33 448.5 580.5 C 442.83 562.67 432.33 541.33 428.5 533.5 C 424.67 525.67 430 521.83 425.5 533.5 Z M 208.5 263.5 C 208.33 264.67 209.67 269.33 210.5 270.5 C 211.33 271.67 213.33 271.67 213.5 270.5 C 213.67 269.33 212.33 264.67 211.5 263.5 C 210.67 262.33 208.67 262.33 208.5 263.5 Z M 220.5 63.5 C 219.67 63.5 213.83 68.5 213.5 69.5 C 213.17 70.5 217.33 70.5 218.5 69.5 C 219.67 68.5 221.33 63.5 220.5 63.5 Z"/>
    <path fill="#007d38" stroke="#007d38" d="M 473.5 829.5 C 473.67 832.5 477 850.83 477.5 851.5 C 478 852.17 477.17 837.17 476.5 833.5 C 475.83 829.83 473.33 826.5 473.5 829.5 Z M 232.5 826.5 C 231.83 827 231 828.17 232.5 829.5 C 234 830.83 240.83 835 241.5 834.5 C 242.17 834 238 827.83 236.5 826.5 C 235 825.17 233.17 826 232.5 826.5 Z M 158.5 754.5 C 158.67 755.33 164.5 762.83 165.5 763.5 C 166.5 764.17 165.67 760 164.5 758.5 C 163.33 757 158.33 753.67 158.5 754.5 Z M 90.5 645.5 C 90.33 646.67 93.17 653.5 94.5 655.5 C 95.83 657.5 98.33 658.67 98.5 657.5 C 98.67 656.33 96.83 650.5 95.5 648.5 C 94.17 646.5 90.67 644.33 90.5 645.5 Z M 456.5 618.5 C 457 622.17 462 643 462.5 643.5 C 463 644 460.5 625.67 459.5 621.5 C 458.5 617.33 456 614.83 456.5 618.5 Z M 73.5 601.5 C 73.67 602.5 77.83 609.17 78.5 609.5 C 79.17 609.83 78.33 604.83 77.5 603.5 C 76.67 602.17 73.33 600.5 73.5 601.5 Z M 417.5 519.5 C 412.17 523.33 400.5 537.67 392.5 549.5 C 384.5 561.33 375 577 369.5 590.5 C 364 604 360.5 615.83 359.5 630.5 C 358.5 645.17 359.33 660.17 363.5 678.5 C 367.67 696.83 376.67 722 384.5 740.5 C 392.33 759 399 770.33 410.5 789.5 C 422 808.67 441.5 838.33 453.5 855.5 C 465.5 872.67 477.17 886.33 482.5 892.5 C 487.83 898.67 486 897.67 485.5 892.5 C 485 887.33 481 865.67 479.5 861.5 C 478 857.33 486.67 887.33 476.5 867.5 C 466.33 847.67 431.33 774.33 418.5 742.5 C 405.67 710.67 403 694.33 399.5 676.5 C 396 658.67 396.83 648 397.5 635.5 C 398.17 623 400.83 612.83 403.5 601.5 C 406.17 590.17 409.67 578 413.5 567.5 C 417.33 557 420.67 536.17 426.5 538.5 C 432.33 540.83 447.83 581.67 448.5 581.5 C 449.17 581.33 434.17 545.17 430.5 537.5 C 426.83 529.83 427.5 537.33 426.5 535.5 C 425.5 533.67 426 529.17 424.5 526.5 C 423 523.83 422.83 515.67 417.5 519.5 Z M 68.5 323.5 C 68.33 321.33 66.33 321.33 65.5 323.5 C 64.67 325.67 63.33 334.33 63.5 336.5 C 63.67 338.67 65.67 338.67 66.5 336.5 C 67.33 334.33 68.67 325.67 68.5 323.5 Z M 232.5 309.5 C 231.67 309.17 232.5 313.33 233.5 314.5 C 234.5 315.67 238.67 317.33 238.5 316.5 C 238.33 315.67 233.33 309.83 232.5 309.5 Z M 100.5 225.5 C 99.83 225.83 96.5 231.67 96.5 232.5 C 96.5 233.33 99.83 231.67 100.5 230.5 C 101.17 229.33 101.17 225.17 100.5 225.5 Z M 210.5 72.5 C 208.33 74.33 195 88.5 194.5 89.5 C 194 90.5 205.33 78 207.5 78.5 C 209.67 79 206.83 92 207.5 92.5 C 208.17 93 211.5 83.83 211.5 81.5 C 211.5 79.17 207.67 80 207.5 78.5 C 207.33 77 212.67 70.67 210.5 72.5 Z"/>
  </g>
</svg>
