<svg xmlns="http://www.w3.org/2000/svg" width="899" height="921" viewBox="0 0 899 921" role="img" aria-labelledby="title desc">
  <title id="title">Nur logo loop frame 090</title>
  <desc id="desc">Vector-traced frame from Nur_Logo_Loop_02.gif.</desc>
  <g id="frame-090" stroke-linejoin="round" stroke-linecap="round" stroke-width="0.5" shape-rendering="geometricPrecision">
    <path fill="#008136" stroke="#008136" d="M 208.5 54.5 C 199.33 65.33 174.83 95.33 156.5 122.5 C 138.17 149.67 112 192.17 98.5 217.5 C 85 242.83 81.5 257.67 75.5 274.5 C 69.5 291.33 67 296.67 62.5 318.5 C 58 340.33 51.17 378.67 48.5 405.5 C 45.83 432.33 45.33 456.17 46.5 479.5 C 47.67 502.83 51.33 523.5 55.5 545.5 C 59.67 567.5 64.17 590.17 71.5 611.5 C 78.83 632.83 88.67 653.5 99.5 673.5 C 110.33 693.5 124.33 714.5 136.5 731.5 C 148.67 748.5 156.33 759 172.5 775.5 C 188.67 792 213 815.33 233.5 830.5 C 254 845.67 275 856.67 295.5 866.5 C 316 876.33 334.5 883 356.5 889.5 C 378.5 896 404.83 902.5 427.5 905.5 C 450.17 908.5 484.17 917.83 492.5 907.5 C 500.83 897.17 480.5 871.17 477.5 843.5 C 474.5 815.83 476.17 771.5 474.5 741.5 C 472.83 711.5 470.5 686.67 467.5 663.5 C 464.5 640.33 460.83 620.17 456.5 602.5 C 452.17 584.83 446 569.17 441.5 557.5 C 437 545.83 437 545 429.5 532.5 C 422 520 420.83 508.83 396.5 482.5 C 372.17 456.17 310.17 402 283.5 374.5 C 256.83 347 247 331.33 236.5 317.5 C 226 303.67 226.17 303.17 220.5 291.5 C 214.83 279.83 206.83 261 202.5 247.5 C 198.17 234 196.33 216.83 194.5 210.5 C 192.67 204.17 192.17 219.17 191.5 209.5 C 190.83 199.83 189.83 168.17 190.5 152.5 C 191.17 136.83 195 122.5 195.5 115.5 C 196 108.5 193.33 111.5 193.5 110.5 C 193.67 109.5 193.5 118.33 196.5 109.5 C 199.5 100.67 209.5 66.67 211.5 57.5 C 213.5 48.33 217.67 43.67 208.5 54.5 Z"/>
    <path fill="#83bb26" stroke="#83bb26" d="M 447.5 494.5 C 446.17 492.17 422.83 510.5 419.5 516.5 C 416.17 522.5 422.83 534.17 427.5 530.5 C 432.17 526.83 448.83 496.83 447.5 494.5 Z M 659.5 33.5 C 651.67 29.33 656.17 33 655.5 33.5 C 654.83 34 649.83 31.5 655.5 36.5 C 661.17 41.5 678.83 54 689.5 63.5 C 700.17 73 708.83 80.33 719.5 93.5 C 730.17 106.67 744.33 126.17 753.5 142.5 C 762.67 158.83 770.17 177.33 774.5 191.5 C 778.83 205.67 780.17 214.17 779.5 227.5 C 778.83 240.83 774 260.33 770.5 271.5 C 767 282.67 763.17 287.17 758.5 294.5 C 753.83 301.83 754 304 742.5 315.5 C 731 327 710 348.33 689.5 363.5 C 669 378.67 628.33 389.17 619.5 406.5 C 610.67 423.83 632.83 452.17 636.5 467.5 C 640.17 482.83 640.17 485.67 641.5 498.5 C 642.83 511.33 644.5 526.17 644.5 544.5 C 644.5 562.83 636.17 600.83 641.5 608.5 C 646.83 616.17 661.83 599.5 676.5 590.5 C 691.17 581.5 714.33 565.67 729.5 554.5 C 744.67 543.33 755.33 534.67 767.5 523.5 C 779.67 512.33 792.17 500 802.5 487.5 C 812.83 475 821.67 461.67 829.5 448.5 C 837.33 435.33 843.83 422.5 849.5 408.5 C 855.17 394.5 860.33 378 863.5 364.5 C 866.67 351 867.67 340.67 868.5 327.5 C 869.33 314.33 869.33 298.17 868.5 285.5 C 867.67 272.83 867 264.5 863.5 251.5 C 860 238.5 853.67 220.67 847.5 207.5 C 841.33 194.33 837.33 187.33 826.5 172.5 C 815.67 157.67 792.83 130.33 782.5 118.5 C 772.17 106.67 777.83 111.5 764.5 101.5 C 751.17 91.5 720 69.83 702.5 58.5 C 685 47.17 667.33 37.67 659.5 33.5 Z"/>
    <path fill="#6ab12d" stroke="#6ab12d" d="M 481.5 136.5 C 484.5 146.33 497.33 178.17 502.5 195.5 C 507.67 212.83 510.33 228.33 512.5 240.5 C 514.67 252.67 515.5 252.17 515.5 268.5 C 515.5 284.83 515.33 317.5 512.5 338.5 C 509.67 359.5 512.33 363.17 498.5 394.5 C 484.67 425.83 441.5 504.5 429.5 526.5 C 417.5 548.5 428 528.17 426.5 526.5 C 425 524.83 421.83 517.83 420.5 516.5 C 419.17 515.17 417.5 515.83 418.5 518.5 C 419.5 521.17 424.5 530.17 426.5 532.5 C 428.5 534.83 426.67 538.5 430.5 532.5 C 434.33 526.5 443 505 449.5 496.5 C 456 488 459.33 487.67 469.5 481.5 C 479.67 475.33 485.83 471.17 510.5 459.5 C 535.17 447.83 596.33 407.83 617.5 411.5 C 638.67 415.17 633.17 457 637.5 481.5 C 641.83 506 643.33 537 643.5 558.5 C 643.67 580 648.17 597.67 638.5 610.5 C 628.83 623.33 601.33 627.17 585.5 635.5 C 569.67 643.83 557.17 651.17 543.5 660.5 C 529.83 669.83 512.83 683.67 503.5 691.5 C 494.17 699.33 491.33 702.83 487.5 707.5 C 483.67 712.17 482.83 712.83 480.5 719.5 C 478.17 726.17 474.33 733.83 473.5 747.5 C 472.67 761.17 472 775 475.5 801.5 C 479 828 490.83 888.5 494.5 906.5 C 498.17 924.5 483.83 929.33 497.5 909.5 C 511.17 889.67 558.67 817.33 576.5 787.5 C 594.33 757.67 595.83 751.17 604.5 730.5 C 613.17 709.83 622.17 683.67 628.5 663.5 C 634.83 643.33 639.67 629.67 642.5 609.5 C 645.33 589.33 646.33 566.5 645.5 542.5 C 644.67 518.5 644 494.83 637.5 465.5 C 631 436.17 618.5 398.17 606.5 366.5 C 594.5 334.83 578.5 302.5 565.5 275.5 C 552.5 248.5 542 227.67 528.5 204.5 C 515 181.33 492.33 147.83 484.5 136.5 C 476.67 125.17 478.5 126.67 481.5 136.5 Z"/>
    <path fill="#009f3a" stroke="#009f3a" d="M 475.5 800.5 C 472.5 792.5 475.83 843.67 478.5 861.5 C 481.17 879.33 488.5 899.5 491.5 907.5 C 494.5 915.5 499.17 927.33 496.5 909.5 C 493.83 891.67 478.5 808.5 475.5 800.5 Z M 619.5 410.5 C 597.5 404.83 533.83 446.83 508.5 458.5 C 483.17 470.17 477.5 474.5 467.5 480.5 C 457.5 486.5 454.67 486.33 448.5 494.5 C 442.33 502.67 434.33 523.67 430.5 529.5 C 426.67 535.33 422.83 522 425.5 529.5 C 428.17 537 440.67 558 446.5 574.5 C 452.33 591 456.67 608.5 460.5 628.5 C 464.33 648.5 467.17 666.83 469.5 694.5 C 471.83 722.17 473.5 786.5 474.5 794.5 C 475.5 802.5 473.17 756.67 475.5 742.5 C 477.83 728.33 476.83 723 488.5 709.5 C 500.17 696 529 673.67 545.5 661.5 C 562 649.33 571.67 644.83 587.5 636.5 C 603.33 628.17 631 623.17 640.5 611.5 C 650 599.83 644.5 586.33 644.5 566.5 C 644.5 546.67 644.67 518.5 640.5 492.5 C 636.33 466.5 641.5 416.17 619.5 410.5 Z"/>
    <path fill="#007a39" stroke="#007a39" d="M 425.5 533.5 C 421.5 535.67 417.33 549.5 412.5 563.5 C 407.67 577.5 399.83 603 396.5 617.5 C 393.17 632 392.5 639.17 392.5 650.5 C 392.5 661.83 391.83 667.83 396.5 685.5 C 401.17 703.17 405.83 722.67 420.5 756.5 C 435.17 790.33 475.33 874.17 484.5 888.5 C 493.67 902.83 477.67 869.83 475.5 842.5 C 473.33 815.17 473.67 758.17 471.5 724.5 C 469.33 690.83 466.33 664.5 462.5 640.5 C 458.67 616.5 452.83 595.5 448.5 580.5 C 444.17 565.5 440.33 558.33 436.5 550.5 C 432.67 542.67 429.5 531.33 425.5 533.5 Z"/>
    <path fill="#007d38" stroke="#007d38" d="M 196.5 797.5 C 197.17 798.67 205.5 806.17 206.5 806.5 C 207.5 806.83 204.17 801 202.5 799.5 C 200.83 798 195.83 796.33 196.5 797.5 Z M 472.5 790.5 C 472.5 795.33 475 823.67 475.5 824.5 C 476 825.33 476 801.17 475.5 795.5 C 475 789.83 472.5 785.67 472.5 790.5 Z M 106.5 683.5 C 107.17 685.17 113 693.5 113.5 693.5 C 114 693.5 110.67 685.17 109.5 683.5 C 108.33 681.83 105.83 681.83 106.5 683.5 Z M 53.5 532.5 C 53 532.33 53.83 538.17 54.5 539.5 C 55.17 540.83 57.67 541.67 57.5 540.5 C 57.33 539.33 54 532.67 53.5 532.5 Z M 416.5 519.5 C 411.5 524.33 398.67 537.83 390.5 549.5 C 382.33 561.17 372.83 577.33 367.5 589.5 C 362.17 601.67 360 610 358.5 622.5 C 357 635 355.5 647.17 358.5 664.5 C 361.5 681.83 368.67 706.5 376.5 726.5 C 384.33 746.5 394.17 764.83 405.5 784.5 C 416.83 804.17 432.17 826.5 444.5 844.5 C 456.83 862.5 473.17 884.67 479.5 892.5 C 485.83 900.33 481.17 890.67 482.5 891.5 C 483.83 892.33 488 902.5 487.5 897.5 C 487 892.5 481.33 866.17 479.5 861.5 C 477.67 856.83 486.17 887.33 476.5 869.5 C 466.83 851.67 434.67 785.5 421.5 754.5 C 408.33 723.5 402.17 700.5 397.5 683.5 C 392.83 666.5 393.5 663.17 393.5 652.5 C 393.5 641.83 394.17 634 397.5 619.5 C 400.83 605 408.5 579 413.5 565.5 C 418.5 552 421.67 535.83 427.5 538.5 C 433.33 541.17 448.33 582.33 448.5 581.5 C 448.67 580.67 433.17 543.67 428.5 533.5 C 423.83 523.33 422.5 522.83 420.5 520.5 C 418.5 518.17 421.5 514.67 416.5 519.5 Z M 236.5 316.5 C 235.67 316 234.83 318.5 235.5 319.5 C 236.17 320.5 240.33 323 240.5 322.5 C 240.67 322 237.33 317 236.5 316.5 Z M 131.5 166.5 C 130.5 167.17 122.17 178.83 121.5 180.5 C 120.83 182.17 125.83 178.83 127.5 176.5 C 129.17 174.17 132.5 165.83 131.5 166.5 Z M 158.5 124.5 C 158.5 123.33 155.67 124.17 154.5 125.5 C 153.33 126.83 151.5 131.33 151.5 132.5 C 151.5 133.67 153.33 133.83 154.5 132.5 C 155.67 131.17 158.5 125.67 158.5 124.5 Z M 196.5 106.5 C 196 105.67 193.17 107.33 192.5 108.5 C 191.83 109.67 192 112.67 192.5 113.5 C 193 114.33 194.83 114.67 195.5 113.5 C 196.17 112.33 197 107.33 196.5 106.5 Z M 212.5 53.5 C 212.33 52.5 207.33 55 206.5 56.5 C 205.67 58 206.5 63 207.5 62.5 C 208.5 62 212.67 54.5 212.5 53.5 Z"/>
  </g>
</svg>
