<svg xmlns="http://www.w3.org/2000/svg" width="899" height="921" viewBox="0 0 899 921" role="img" aria-labelledby="title desc">
  <title id="title">Nur logo loop frame 002</title>
  <desc id="desc">Vector-traced frame from Nur_Logo_Loop_02.gif.</desc>
  <g id="frame-002" stroke-linejoin="round" stroke-linecap="round" stroke-width="0.5" shape-rendering="geometricPrecision">
    <path fill="#008136" stroke="#008136" d="M 210.5 54.5 C 201.33 65 175.33 95.67 157.5 121.5 C 139.67 147.33 115.67 188 103.5 209.5 C 91.33 231 87.83 242 84.5 250.5 C 81.17 259 84.17 258.67 83.5 260.5 C 82.83 262.33 83.33 254.17 80.5 261.5 C 77.67 268.83 71.33 284.17 66.5 304.5 C 61.67 324.83 54.83 355.33 51.5 383.5 C 48.17 411.67 45.83 446.83 46.5 473.5 C 47.17 500.17 51.67 521.83 55.5 543.5 C 59.33 565.17 63 583.5 69.5 603.5 C 76 623.5 83.67 642.67 94.5 663.5 C 105.33 684.33 121.5 709.83 134.5 728.5 C 147.5 747.17 156 758.5 172.5 775.5 C 189 792.5 213 815.33 233.5 830.5 C 254 845.67 275 856.67 295.5 866.5 C 316 876.33 334.5 883 356.5 889.5 C 378.5 896 404.67 902.5 427.5 905.5 C 450.33 908.5 484.17 912 493.5 907.5 C 502.83 903 486.17 889.17 483.5 878.5 C 480.83 867.83 479 866 477.5 843.5 C 476 821 476.17 773.5 474.5 743.5 C 472.83 713.5 470.5 687 467.5 663.5 C 464.5 640 460.83 620.17 456.5 602.5 C 452.17 584.83 450.67 576.5 441.5 557.5 C 432.33 538.5 427.83 519 401.5 488.5 C 375.17 458 311.67 404 283.5 374.5 C 255.33 345 244.83 329.17 232.5 311.5 C 220.17 293.83 216 285.67 209.5 268.5 C 203 251.33 196.5 229.33 193.5 208.5 C 190.5 187.67 190.67 161.5 191.5 143.5 C 192.33 125.5 196 112.83 198.5 100.5 C 201 88.17 204.17 76.5 206.5 69.5 C 208.83 62.5 211.83 61 212.5 58.5 C 213.17 56 219.67 44 210.5 54.5 Z"/>
    <path fill="#83bb26" stroke="#83bb26" d="M 446.5 494.5 C 445.17 492.17 422.67 510.5 419.5 516.5 C 416.33 522.5 423 534.17 427.5 530.5 C 432 526.83 447.83 496.83 446.5 494.5 Z M 656.5 33.5 C 646.83 28.67 643.5 26.83 653.5 36.5 C 663.5 46.17 701.5 76.33 716.5 91.5 C 731.5 106.67 736 116.17 743.5 127.5 C 751 138.83 756.33 148.5 761.5 159.5 C 766.67 170.5 771.67 180.83 774.5 193.5 C 777.33 206.17 779.67 221.5 778.5 235.5 C 777.33 249.5 774.17 263.5 767.5 277.5 C 760.83 291.5 752.5 304.5 738.5 319.5 C 724.5 334.5 703.5 353 683.5 367.5 C 663.5 382 626.83 392.67 618.5 406.5 C 610.17 420.33 629.5 435.83 633.5 450.5 C 637.5 465.17 640.5 480 642.5 494.5 C 644.5 509 645.5 518.67 645.5 537.5 C 645.5 556.33 635.83 599.67 642.5 607.5 C 649.17 615.33 670 594.17 685.5 584.5 C 701 574.83 720.83 560.67 735.5 549.5 C 750.17 538.33 761.5 529 773.5 517.5 C 785.5 506 797.67 493 807.5 480.5 C 817.33 468 825.33 455 832.5 442.5 C 839.67 430 845.33 418.83 850.5 405.5 C 855.67 392.17 860.5 377.17 863.5 362.5 C 866.5 347.83 868 333 868.5 317.5 C 869 302 868 282.67 866.5 269.5 C 865 256.33 862.5 248.33 859.5 238.5 C 856.5 228.67 853.83 221.17 848.5 210.5 C 843.17 199.83 840.83 192 827.5 174.5 C 814.17 157 787.83 123.67 768.5 105.5 C 749.17 87.33 730.17 77.5 711.5 65.5 C 692.83 53.5 666.17 38.33 656.5 33.5 Z"/>
    <path fill="#6ab12d" stroke="#6ab12d" d="M 639.5 612.5 C 628.17 609.67 579.33 640.5 558.5 652.5 C 537.67 664.5 526.67 674.17 514.5 684.5 C 502.33 694.83 491.83 704.5 485.5 714.5 C 479.17 724.5 478.17 733 476.5 744.5 C 474.83 756 472 756.83 475.5 783.5 C 479 810.17 494.83 885.5 497.5 904.5 C 500.17 923.5 492.83 898.17 491.5 897.5 C 490.17 896.83 489 898.67 489.5 900.5 C 490 902.33 493 907.17 494.5 908.5 C 496 909.83 498.17 909 498.5 908.5 C 498.83 908 487.67 919 496.5 905.5 C 505.33 892 535.17 852.83 551.5 827.5 C 567.83 802.17 582 779.83 594.5 753.5 C 607 727.17 619 693 626.5 669.5 C 634 646 650.83 615.33 639.5 612.5 Z M 480.5 136.5 C 477.17 136.67 496.17 176.67 501.5 194.5 C 506.83 212.33 510.17 230.17 512.5 243.5 C 514.83 256.83 515.5 259 515.5 274.5 C 515.5 290 514.5 319 512.5 336.5 C 510.5 354 508.5 364.33 503.5 379.5 C 498.5 394.67 495.17 402.83 482.5 427.5 C 469.83 452.17 437.83 512.67 427.5 527.5 C 417.17 542.33 422 517.83 420.5 516.5 C 419 515.17 417.17 516.33 418.5 519.5 C 419.83 522.67 426.33 532.83 428.5 535.5 C 430.67 538.17 427.5 542.17 431.5 535.5 C 435.5 528.83 446 504.33 452.5 495.5 C 459 486.67 462.17 487.67 470.5 482.5 C 478.83 477.33 477.67 476.17 502.5 464.5 C 527.33 452.83 597.83 414.5 619.5 412.5 C 641.17 410.5 628.83 437.83 632.5 452.5 C 636.17 467.17 639.5 480.33 641.5 500.5 C 643.5 520.67 644.67 555.5 644.5 573.5 C 644.33 591.5 640.67 602.67 640.5 608.5 C 640.33 614.33 642.5 612.33 643.5 608.5 C 644.5 604.67 646.5 604.83 646.5 585.5 C 646.5 566.17 647.33 521.33 643.5 492.5 C 639.67 463.67 631.67 438 623.5 412.5 C 615.33 387 606.5 366.83 594.5 339.5 C 582.5 312.17 563.67 272.83 551.5 248.5 C 539.33 224.17 533.33 212.17 521.5 193.5 C 509.67 174.83 483.83 136.33 480.5 136.5 Z"/>
    <path fill="#009f3a" stroke="#009f3a" d="M 620.5 410.5 C 598.33 412.67 528.67 449.67 500.5 463.5 C 472.33 477.33 463 482 451.5 493.5 C 440 505 435.83 526.5 431.5 532.5 C 427.17 538.5 423 522.5 425.5 529.5 C 428 536.5 440.67 558 446.5 574.5 C 452.33 591 456.33 604.5 460.5 628.5 C 464.67 652.5 468.5 679.67 471.5 718.5 C 474.5 757.33 475.67 831.33 478.5 861.5 C 481.33 891.67 485.67 891.83 488.5 899.5 C 491.33 907.17 493.83 906.17 495.5 907.5 C 497.17 908.83 501.67 928.5 498.5 907.5 C 495.33 886.5 480 808.33 476.5 781.5 C 473 754.67 475.83 757.33 477.5 746.5 C 479.17 735.67 481.33 725.5 486.5 716.5 C 491.67 707.5 499.17 701 508.5 692.5 C 517.83 684 530.17 674.17 542.5 665.5 C 554.83 656.83 565.83 649.67 582.5 640.5 C 599.17 631.33 632 621.33 642.5 610.5 C 653 599.67 645.5 594.17 645.5 575.5 C 645.5 556.83 644.5 519.33 642.5 498.5 C 640.5 477.67 637.17 465.17 633.5 450.5 C 629.83 435.83 642.67 408.33 620.5 410.5 Z"/>
    <path fill="#007a39" stroke="#007a39" d="M 425.5 533.5 C 420.67 546.33 404.5 592.83 399.5 610.5 C 394.5 628.17 396 629.67 395.5 639.5 C 395 649.33 394.83 657.67 396.5 669.5 C 398.17 681.33 400.17 692.83 405.5 710.5 C 410.83 728.17 415.83 746 428.5 775.5 C 441.17 805 472 868.33 481.5 887.5 C 491 906.67 486.5 898 485.5 890.5 C 484.5 883 477.83 870.17 475.5 842.5 C 473.17 814.83 473.67 758.17 471.5 724.5 C 469.33 690.83 466.33 664.5 462.5 640.5 C 458.67 616.5 454.17 598.33 448.5 580.5 C 442.83 562.67 432.33 541.33 428.5 533.5 C 424.67 525.67 430.33 520.67 425.5 533.5 Z M 78.5 273.5 C 78 273.67 74.67 280.33 74.5 281.5 C 74.33 282.67 76.83 281.83 77.5 280.5 C 78.17 279.17 79 273.33 78.5 273.5 Z M 85.5 253.5 C 85 253.5 81.67 260.17 81.5 261.5 C 81.33 262.83 83.83 262.83 84.5 261.5 C 85.17 260.17 86 253.5 85.5 253.5 Z"/>
    <path fill="#007d38" stroke="#007d38" d="M 198.5 799.5 C 199.17 800.67 205.83 806.5 206.5 806.5 C 207.17 806.5 203.83 800.67 202.5 799.5 C 201.17 798.33 197.83 798.33 198.5 799.5 Z M 157.5 755.5 C 157.83 756.5 164.5 764 165.5 764.5 C 166.5 765 164.83 760 163.5 758.5 C 162.17 757 157.17 754.5 157.5 755.5 Z M 98.5 668.5 C 99.17 670.33 107.5 683.67 108.5 684.5 C 109.5 685.33 106.17 676.17 104.5 673.5 C 102.83 670.83 97.83 666.67 98.5 668.5 Z M 418.5 521.5 C 412.33 528.33 392.67 550.67 384.5 562.5 C 376.33 574.33 373.5 581.17 369.5 592.5 C 365.5 603.83 361.5 616.5 360.5 630.5 C 359.5 644.5 360.5 660.83 363.5 676.5 C 366.5 692.17 370.5 705.67 378.5 724.5 C 386.5 743.33 399.33 768.5 411.5 789.5 C 423.67 810.5 438.83 832.67 451.5 850.5 C 464.17 868.33 482.83 894.67 487.5 896.5 C 492.17 898.33 481.17 865.5 479.5 861.5 C 477.83 857.5 485.83 887.17 477.5 872.5 C 469.17 857.83 442.33 804.83 429.5 773.5 C 416.67 742.17 406 704 400.5 684.5 C 395 665 396.5 668.5 396.5 656.5 C 396.5 644.5 397.67 627.33 400.5 612.5 C 403.33 597.67 409 580 413.5 567.5 C 418 555 421.67 535.17 427.5 537.5 C 433.33 539.83 446.5 578.5 448.5 581.5 C 450.5 584.5 444 565.5 439.5 555.5 C 435 545.5 425 527.17 421.5 521.5 C 418 515.83 424.67 514.67 418.5 521.5 Z M 47.5 425.5 C 47 426.5 47 430.5 47.5 431.5 C 48 432.5 50 432.5 50.5 431.5 C 51 430.5 51 426.5 50.5 425.5 C 50 424.5 48 424.5 47.5 425.5 Z M 208.5 266.5 C 207.67 266 207.67 270.17 208.5 271.5 C 209.33 272.83 213.5 275.33 213.5 274.5 C 213.5 273.67 209.33 267 208.5 266.5 Z M 101.5 217.5 C 100.83 217.83 96.67 224.5 96.5 225.5 C 96.33 226.5 99.67 224.83 100.5 223.5 C 101.33 222.17 102.17 217.17 101.5 217.5 Z M 152.5 132.5 C 151.33 133.33 145.5 141.67 145.5 142.5 C 145.5 143.33 151.33 139.17 152.5 137.5 C 153.67 135.83 153.67 131.67 152.5 132.5 Z M 205.5 70.5 C 205.83 69.83 204.17 64.33 200.5 67.5 C 196.83 70.67 183.83 88.83 183.5 89.5 C 183.17 90.17 194.83 74.67 198.5 71.5 C 202.17 68.33 205.17 71.17 205.5 70.5 Z"/>
  </g>
</svg>
