<svg xmlns="http://www.w3.org/2000/svg" width="899" height="921" viewBox="0 0 899 921" role="img" aria-labelledby="title desc">
  <title id="title">Nur logo loop frame 020</title>
  <desc id="desc">Vector-traced frame from Nur_Logo_Loop_02.gif.</desc>
  <g id="frame-020" stroke-linejoin="round" stroke-linecap="round" stroke-width="0.5" shape-rendering="geometricPrecision">
    <path fill="#008136" stroke="#008136" d="M 240.5 79.5 C 230.83 84.83 197.33 105 182.5 117.5 C 167.67 130 163.17 137.83 151.5 154.5 C 139.83 171.17 124 194.33 112.5 217.5 C 101 240.67 90.17 269.67 82.5 293.5 C 74.83 317.33 70.67 335.67 66.5 360.5 C 62.33 385.33 57.83 413 57.5 442.5 C 57.17 472 60.67 509.17 64.5 537.5 C 68.33 565.83 73 589 80.5 612.5 C 88 636 97.33 655.83 109.5 678.5 C 121.67 701.17 137.33 727 153.5 748.5 C 169.67 770 191.17 792.5 206.5 807.5 C 221.83 822.5 230.67 828.67 245.5 838.5 C 260.33 848.33 274.67 857.33 295.5 866.5 C 316.33 875.67 345.83 886.67 370.5 893.5 C 395.17 900.33 423 905.17 443.5 907.5 C 464 909.83 486.67 911.67 493.5 907.5 C 500.33 903.33 487.17 893.17 484.5 882.5 C 481.83 871.83 480.33 880 477.5 843.5 C 474.67 807 471 703.67 467.5 663.5 C 464 623.33 460.83 620.17 456.5 602.5 C 452.17 584.83 448.17 572.67 441.5 557.5 C 434.83 542.33 425 525.17 416.5 511.5 C 408 497.83 407.83 493.5 390.5 475.5 C 373.17 457.5 333 423.5 312.5 403.5 C 292 383.5 282 375.5 267.5 355.5 C 253 335.5 234.67 303.67 225.5 283.5 C 216.33 263.33 215.17 242.83 212.5 234.5 C 209.83 226.17 210.33 240 209.5 233.5 C 208.67 227 207.33 202 207.5 195.5 C 207.67 189 210.17 196.67 210.5 194.5 C 210.83 192.33 209.17 184.67 209.5 182.5 C 209.83 180.33 211.5 187.33 212.5 181.5 C 213.5 175.67 213 160.5 215.5 147.5 C 218 134.5 223.33 113.83 227.5 103.5 C 231.67 93.17 238.33 89.5 240.5 85.5 C 242.67 81.5 250.17 74.17 240.5 79.5 Z"/>
    <path fill="#83bb26" stroke="#83bb26" d="M 460.5 472.5 C 463 465.5 447.83 480.17 440.5 486.5 C 433.17 492.83 419 503.5 416.5 510.5 C 414 517.5 418.17 534.83 425.5 528.5 C 432.83 522.17 458 479.5 460.5 472.5 Z M 613.5 43.5 C 611.67 44 626.83 47.17 637.5 52.5 C 648.17 57.83 662.33 64.17 677.5 75.5 C 692.67 86.83 717.67 109.83 728.5 120.5 C 739.33 131.17 738.83 133.33 742.5 139.5 C 746.17 145.67 747.5 145.67 750.5 157.5 C 753.5 169.33 758.83 196.83 760.5 210.5 C 762.17 224.17 761.17 230.83 760.5 239.5 C 759.83 248.17 759.17 254 756.5 262.5 C 753.83 271 748.67 282.67 744.5 290.5 C 740.33 298.33 737.67 302.17 731.5 309.5 C 725.33 316.83 717.17 325.83 707.5 334.5 C 697.83 343.17 690.33 350.5 673.5 361.5 C 656.67 372.5 615 387 606.5 400.5 C 598 414 617.67 426.5 622.5 442.5 C 627.33 458.5 632.5 479.83 635.5 496.5 C 638.5 513.17 640 525.67 640.5 542.5 C 641 559.33 630.67 593 638.5 597.5 C 646.33 602 669.83 581 687.5 569.5 C 705.17 558 729.33 540.5 744.5 528.5 C 759.67 516.5 767.5 509.67 778.5 497.5 C 789.5 485.33 801.17 470.5 810.5 455.5 C 819.83 440.5 828.67 421.67 834.5 407.5 C 840.33 393.33 842.83 381.83 845.5 370.5 C 848.17 359.17 849.33 355.33 850.5 339.5 C 851.67 323.67 853.17 292.17 852.5 275.5 C 851.83 258.83 850.33 252.33 846.5 239.5 C 842.67 226.67 837.67 213.33 829.5 198.5 C 821.33 183.67 809.83 166.17 797.5 150.5 C 785.17 134.83 768 116 755.5 104.5 C 743 93 733.17 88 722.5 81.5 C 711.83 75 703.83 70.83 691.5 65.5 C 679.17 60.17 661.5 53.17 648.5 49.5 C 635.5 45.83 615.33 43 613.5 43.5 Z"/>
    <path fill="#6ab12d" stroke="#6ab12d" d="M 635.5 600.5 C 630.5 590.67 604.33 613.67 589.5 621.5 C 574.67 629.33 559 638.83 546.5 647.5 C 534 656.17 523.67 665.33 514.5 673.5 C 505.33 681.67 498 689 491.5 696.5 C 485 704 478.67 711.83 475.5 718.5 C 472.33 725.17 472.33 719 472.5 736.5 C 472.67 754 473 795 476.5 823.5 C 480 852 489.17 894.83 493.5 907.5 C 497.83 920.17 494.67 910 502.5 899.5 C 510.33 889 525.5 868.17 540.5 844.5 C 555.5 820.83 579.33 784.83 592.5 757.5 C 605.67 730.17 612.33 706.67 619.5 680.5 C 626.67 654.33 640.5 610.33 635.5 600.5 Z M 456.5 159.5 C 459.5 164 474.67 177 482.5 189.5 C 490.33 202 498.83 217.5 503.5 234.5 C 508.17 251.5 509.83 270.33 510.5 291.5 C 511.17 312.67 509.17 343.67 507.5 361.5 C 505.83 379.33 508.5 380 500.5 398.5 C 492.5 417 467.67 458.83 459.5 472.5 C 451.33 486.17 457 471.67 451.5 480.5 C 446 489.33 432.17 520.5 426.5 525.5 C 420.83 530.5 419.33 512.33 417.5 510.5 C 415.67 508.67 414.33 511.33 415.5 514.5 C 416.67 517.67 422.33 527 424.5 529.5 C 426.67 532 423.67 537.17 428.5 529.5 C 433.33 521.83 447 493.17 453.5 483.5 C 460 473.83 459 477 467.5 471.5 C 476 466 481.17 461.5 504.5 450.5 C 527.83 439.5 587.33 404.17 607.5 405.5 C 627.67 406.83 621 442.67 625.5 458.5 C 630 474.33 632.33 487.5 634.5 500.5 C 636.67 513.5 638 520.17 638.5 536.5 C 639 552.83 637 597.83 637.5 598.5 C 638 599.17 642 559.67 641.5 540.5 C 641 521.33 638.33 502.83 634.5 483.5 C 630.67 464.17 625.5 445.67 618.5 424.5 C 611.5 403.33 602.5 380.83 592.5 356.5 C 582.5 332.17 571.5 304.17 558.5 278.5 C 545.5 252.83 530.17 221.83 514.5 202.5 C 498.83 183.17 474.17 169.67 464.5 162.5 C 454.83 155.33 453.5 155 456.5 159.5 Z"/>
    <path fill="#009f3a" stroke="#009f3a" d="M 475.5 809.5 C 472.83 801.83 476.5 846.83 478.5 861.5 C 480.5 876.17 484.83 889.83 487.5 897.5 C 490.17 905.17 496.5 922.17 494.5 907.5 C 492.5 892.83 478.17 817.17 475.5 809.5 Z M 609.5 403.5 C 588.83 402.33 526.5 438.33 502.5 449.5 C 478.5 460.67 473.83 465.17 465.5 470.5 C 457.17 475.83 459.17 471.83 452.5 481.5 C 445.83 491.17 426.5 513 425.5 528.5 C 424.5 544 440.33 556 446.5 574.5 C 452.67 593 458.33 615.5 462.5 639.5 C 466.67 663.5 470 694 471.5 718.5 C 473 743 471 771.83 471.5 786.5 C 472 801.17 474 816.33 474.5 806.5 C 475 796.67 473.33 743.33 474.5 727.5 C 475.67 711.67 474.5 720.33 481.5 711.5 C 488.5 702.67 505.33 685 516.5 674.5 C 527.67 664 536 657.17 548.5 648.5 C 561 639.83 576.83 630.33 591.5 622.5 C 606.17 614.67 628.5 616.17 636.5 601.5 C 644.5 586.83 639.67 551.67 639.5 534.5 C 639.33 517.33 637.67 511.5 635.5 498.5 C 633.33 485.5 630.83 472.33 626.5 456.5 C 622.17 440.67 630.17 404.67 609.5 403.5 Z"/>
    <path fill="#007a39" stroke="#007a39" d="M 425.5 534.5 C 419.83 542.17 407.33 580.83 402.5 596.5 C 397.67 612.17 397.5 617 396.5 628.5 C 395.5 640 395.33 653.67 396.5 665.5 C 397.67 677.33 398.83 683.67 403.5 699.5 C 408.17 715.33 412.5 731.83 424.5 760.5 C 436.5 789.17 466 851.83 475.5 871.5 C 485 891.17 482.17 891.33 481.5 878.5 C 480.83 865.67 473.17 820.17 471.5 794.5 C 469.83 768.83 473 750.17 471.5 724.5 C 470 698.83 466.33 664.5 462.5 640.5 C 458.67 616.5 452.83 595.5 448.5 580.5 C 444.17 565.5 440.33 558.17 436.5 550.5 C 432.67 542.83 431.17 526.83 425.5 534.5 Z M 236.5 88.5 C 236.83 87.17 233.5 88.83 232.5 90.5 C 231.5 92.17 229.83 98.83 230.5 98.5 C 231.17 98.17 236.17 89.83 236.5 88.5 Z"/>
    <path fill="#007d38" stroke="#007d38" d="M 472.5 803.5 C 472.5 807.67 475 831.83 475.5 832.5 C 476 833.17 476 812.33 475.5 807.5 C 475 802.67 472.5 799.33 472.5 803.5 Z M 469.5 745.5 C 469 744 468.17 765.67 468.5 771.5 C 468.83 777.33 471.33 784.83 471.5 780.5 C 471.67 776.17 470 747 469.5 745.5 Z M 117.5 690.5 C 117.83 691.83 123.67 701 124.5 701.5 C 125.33 702 123.67 695.33 122.5 693.5 C 121.33 691.67 117.17 689.17 117.5 690.5 Z M 106.5 670.5 C 106.67 671.67 111.67 680 112.5 680.5 C 113.33 681 112.5 675.17 111.5 673.5 C 110.5 671.83 106.33 669.33 106.5 670.5 Z M 456.5 618.5 C 457 622.17 462 643 462.5 643.5 C 463 644 460.5 625.67 459.5 621.5 C 458.5 617.33 456 614.83 456.5 618.5 Z M 62.5 520.5 C 62 521.5 62.83 528 63.5 529.5 C 64.17 531 66 530.5 66.5 529.5 C 67 528.5 67.17 525 66.5 523.5 C 65.83 522 63 519.5 62.5 520.5 Z M 414.5 514.5 C 407.17 516.83 394.33 539.17 386.5 551.5 C 378.67 563.83 372.5 575.17 367.5 588.5 C 362.5 601.83 358 617.5 356.5 631.5 C 355 645.5 354.67 654.33 358.5 672.5 C 362.33 690.67 372.67 723.33 379.5 740.5 C 386.33 757.67 396.17 768.83 399.5 775.5 C 402.83 782.17 390.17 766.17 399.5 780.5 C 408.83 794.83 446.33 847.5 455.5 861.5 C 464.67 875.5 449.17 857.17 454.5 864.5 C 459.83 871.83 481.33 898.5 487.5 905.5 C 493.67 912.5 492.33 910.5 491.5 906.5 C 490.67 902.5 484.5 889 482.5 881.5 C 480.5 874 480.5 863.83 479.5 861.5 C 478.5 859.17 486.83 888.17 476.5 867.5 C 466.17 846.83 430.67 771.5 417.5 737.5 C 404.33 703.5 400.83 681.33 397.5 663.5 C 394.17 645.67 396.5 641.33 397.5 630.5 C 398.5 619.67 398.67 614 403.5 598.5 C 408.33 583 421.17 545.17 426.5 537.5 C 431.83 529.83 432.5 545.67 435.5 552.5 C 438.5 559.33 442.33 573.67 444.5 578.5 C 446.67 583.33 450.83 588.33 448.5 581.5 C 446.17 574.67 436.17 548.67 430.5 537.5 C 424.83 526.33 421.83 512.17 414.5 514.5 Z M 102.5 246.5 C 101.67 247 97.5 253.67 97.5 254.5 C 97.5 255.33 101.67 252.83 102.5 251.5 C 103.33 250.17 103.33 246 102.5 246.5 Z M 111.5 225.5 C 111 225.5 106.83 232.17 106.5 233.5 C 106.17 234.83 108.67 234.83 109.5 233.5 C 110.33 232.17 112 225.5 111.5 225.5 Z M 150.5 158.5 C 149.17 159.67 142.5 168.83 142.5 169.5 C 142.5 170.17 149.17 164.33 150.5 162.5 C 151.83 160.67 151.83 157.33 150.5 158.5 Z M 231.5 98.5 C 231.5 97.67 227.33 100.17 226.5 101.5 C 225.67 102.83 225.67 107 226.5 106.5 C 227.33 106 231.5 99.33 231.5 98.5 Z"/>
  </g>
</svg>
