<svg xmlns="http://www.w3.org/2000/svg" width="899" height="921" viewBox="0 0 899 921" role="img" aria-labelledby="title desc">
  <title id="title">Nur logo loop frame 070</title>
  <desc id="desc">Vector-traced frame from Nur_Logo_Loop_02.gif.</desc>
  <g id="frame-070" stroke-linejoin="round" stroke-linecap="round" stroke-width="0.5" shape-rendering="geometricPrecision">
    <path fill="#008136" stroke="#008136" d="M 181.5 50.5 C 173.67 58.17 152.83 82.5 136.5 106.5 C 120.17 130.5 95.17 173.33 83.5 194.5 C 71.83 215.67 73.17 214.67 66.5 233.5 C 59.83 252.33 48.67 283.83 43.5 307.5 C 38.33 331.17 37.17 348.33 35.5 375.5 C 33.83 402.67 31.67 443.83 33.5 470.5 C 35.33 497.17 43.83 524.33 46.5 535.5 C 49.17 546.67 48.5 534 49.5 537.5 C 50.5 541 51 551.67 52.5 556.5 C 54 561.33 57.67 563.83 58.5 566.5 C 59.33 569.17 56.5 568 57.5 572.5 C 58.5 577 62.83 589.83 64.5 593.5 C 66.17 597.17 67.17 593.5 67.5 594.5 C 67.83 595.5 65.17 594.33 66.5 599.5 C 67.83 604.67 69 611.17 75.5 625.5 C 82 639.83 94.83 667 105.5 685.5 C 116.17 704 125.67 718.67 139.5 736.5 C 153.33 754.33 171.67 776 188.5 792.5 C 205.33 809 222.67 823.17 240.5 835.5 C 258.33 847.83 273.83 856.83 295.5 866.5 C 317.17 876.17 345.83 886.67 370.5 893.5 C 395.17 900.33 423 905.17 443.5 907.5 C 464 909.83 486.67 911.5 493.5 907.5 C 500.33 903.5 487.17 894.17 484.5 883.5 C 481.83 872.83 479.17 866.83 477.5 843.5 C 475.83 820.17 476.17 773.5 474.5 743.5 C 472.83 713.5 470.5 687 467.5 663.5 C 464.5 640 459.83 617.67 456.5 602.5 C 453.17 587.33 452.33 584.67 447.5 572.5 C 442.67 560.33 435.33 543.67 427.5 529.5 C 419.67 515.33 411 500.17 400.5 487.5 C 390 474.83 378.33 465.33 364.5 453.5 C 350.67 441.67 333.5 430.5 317.5 416.5 C 301.5 402.5 286.83 390.5 268.5 369.5 C 250.17 348.5 221.17 312.17 207.5 290.5 C 193.83 268.83 192 257.5 186.5 239.5 C 181 221.5 176.83 198.67 174.5 182.5 C 172.17 166.33 172 155 172.5 142.5 C 173 130 177 114 177.5 107.5 C 178 101 175.33 104.83 175.5 103.5 C 175.67 102.17 177.17 106.67 178.5 99.5 C 179.83 92.33 183 68.67 183.5 60.5 C 184 52.33 189.33 42.83 181.5 50.5 Z"/>
    <path fill="#83bb26" stroke="#83bb26" d="M 428.5 521.5 C 427.67 521.33 425 522.5 424.5 523.5 C 424 524.5 424.67 527.33 425.5 527.5 C 426.33 527.67 429 525.5 429.5 524.5 C 430 523.5 429.33 521.67 428.5 521.5 Z M 723.5 16.5 C 713.67 8.33 718 15.17 722.5 22.5 C 727 29.83 739.5 41.5 750.5 60.5 C 761.5 79.5 780.67 117 788.5 136.5 C 796.33 156 796.33 161.5 797.5 177.5 C 798.67 193.5 798.17 215.17 795.5 232.5 C 792.83 249.83 788.5 266.67 781.5 281.5 C 774.5 296.33 766.17 307.33 753.5 321.5 C 740.83 335.67 719.67 354.67 705.5 366.5 C 691.33 378.33 681.17 384.5 668.5 392.5 C 655.83 400.5 633.67 399.83 629.5 414.5 C 625.33 429.17 640.67 461.5 643.5 480.5 C 646.33 499.5 646.5 511 646.5 528.5 C 646.5 546 645 569.5 643.5 585.5 C 642 601.5 633.33 620.5 637.5 624.5 C 641.67 628.5 654.83 617.5 668.5 609.5 C 682.17 601.5 703 588.17 719.5 576.5 C 736 564.83 753.17 551.67 767.5 539.5 C 781.83 527.33 794.5 515.83 805.5 503.5 C 816.5 491.17 824.83 479.17 833.5 465.5 C 842.17 451.83 851 435.5 857.5 421.5 C 864 407.5 868.67 394.33 872.5 381.5 C 876.33 368.67 878.83 358.5 880.5 344.5 C 882.17 330.5 882.83 311.83 882.5 297.5 C 882.17 283.17 880.83 271 878.5 258.5 C 876.17 246 873.17 235.5 868.5 222.5 C 863.83 209.5 861.5 201.5 850.5 180.5 C 839.5 159.5 814 114.67 802.5 96.5 C 791 78.33 794.67 84.83 781.5 71.5 C 768.33 58.17 733.33 24.67 723.5 16.5 Z"/>
    <path fill="#6ab12d" stroke="#6ab12d" d="M 507.5 129.5 C 496 108 503.17 120.17 505.5 131.5 C 507.83 142.83 517.33 174.83 521.5 197.5 C 525.67 220.17 529 250.17 530.5 267.5 C 532 284.83 531.67 287.83 530.5 301.5 C 529.33 315.17 526.5 335.17 523.5 349.5 C 520.5 363.83 516.67 376.33 512.5 387.5 C 508.33 398.67 509.5 399.67 498.5 416.5 C 487.5 433.33 458.33 470.83 446.5 488.5 C 434.67 506.17 431.5 516.33 427.5 522.5 C 423.5 528.67 422.33 524 422.5 525.5 C 422.67 527 425.83 533.33 428.5 531.5 C 431.17 529.67 429.83 522 438.5 514.5 C 447.17 507 449.33 502.33 480.5 486.5 C 511.67 470.67 598.67 419 625.5 419.5 C 652.33 420 638.5 466 641.5 489.5 C 644.5 513 644.67 538 643.5 560.5 C 642.33 583 645.83 609 634.5 624.5 C 623.17 640 594.17 643.33 575.5 653.5 C 556.83 663.67 536 676.33 522.5 685.5 C 509 694.67 501.33 701.17 494.5 708.5 C 487.67 715.83 484.83 722.67 481.5 729.5 C 478.17 736.33 475.5 737.5 474.5 749.5 C 473.5 761.5 472.5 777.83 475.5 801.5 C 478.5 825.17 489.83 875.83 492.5 891.5 C 495.17 907.17 492 895.33 491.5 895.5 C 491 895.67 490.17 892.5 489.5 892.5 C 488.83 892.5 486.83 893 487.5 895.5 C 488.17 898 492 905.5 493.5 907.5 C 495 909.5 485.33 923.17 496.5 907.5 C 507.67 891.83 543.33 841 560.5 813.5 C 577.67 786 590 761.83 599.5 742.5 C 609 723.17 610.83 717 617.5 697.5 C 624.17 678 634.5 650.33 639.5 625.5 C 644.5 600.67 647 575.17 647.5 548.5 C 648 521.83 647.17 494.33 642.5 465.5 C 637.83 436.67 630.83 409.67 619.5 375.5 C 608.17 341.33 593.17 301.5 574.5 260.5 C 555.83 219.5 519 151 507.5 129.5 Z"/>
    <path fill="#009f3a" stroke="#009f3a" d="M 475.5 800.5 C 472.83 795 477.17 847.33 478.5 861.5 C 479.83 875.67 481.17 878.5 483.5 885.5 C 485.83 892.5 490.67 902 492.5 903.5 C 494.33 905 497.33 911.67 494.5 894.5 C 491.67 877.33 478.17 806 475.5 800.5 Z M 627.5 418.5 C 603 421.17 523.67 462.33 491.5 478.5 C 459.33 494.67 445.17 507 434.5 515.5 C 423.83 524 429.5 528 427.5 529.5 C 425.5 531 419.33 517 422.5 524.5 C 425.67 532 440.17 557.17 446.5 574.5 C 452.83 591.83 456.67 608.5 460.5 628.5 C 464.33 648.5 467.17 666.67 469.5 694.5 C 471.83 722.33 473.5 786 474.5 795.5 C 475.5 805 474.17 762.17 475.5 751.5 C 476.83 740.83 479.17 738.33 482.5 731.5 C 485.83 724.67 483.83 721 495.5 710.5 C 507.17 700 529.17 682.5 552.5 668.5 C 575.83 654.5 620.17 644.17 635.5 626.5 C 650.83 608.83 643 581.17 644.5 562.5 C 646 543.83 645.5 531.17 644.5 514.5 C 643.5 497.83 641.33 478.5 638.5 462.5 C 635.67 446.5 652 415.83 627.5 418.5 Z"/>
    <path fill="#007a39" stroke="#007a39" d="M 424.5 531.5 C 420.5 533.67 416.67 549.67 412.5 563.5 C 408.33 577.33 402.17 601.33 399.5 614.5 C 396.83 627.67 396.5 631.67 396.5 642.5 C 396.5 653.33 395.5 662.17 399.5 679.5 C 403.5 696.83 407.83 715.67 420.5 746.5 C 433.17 777.33 465.67 844.33 475.5 864.5 C 485.33 884.67 480.17 882.17 479.5 867.5 C 478.83 852.83 472.83 800.33 471.5 776.5 C 470.17 752.67 473 747.17 471.5 724.5 C 470 701.83 466.33 664.5 462.5 640.5 C 458.67 616.5 452.83 595.5 448.5 580.5 C 444.17 565.5 440.5 558.67 436.5 550.5 C 432.5 542.33 428.5 529.33 424.5 531.5 Z M 315.5 414.5 C 314.67 414.33 318.83 421 320.5 422.5 C 322.17 424 326.33 424.83 325.5 423.5 C 324.67 422.17 316.33 414.67 315.5 414.5 Z M 205.5 285.5 C 204.67 285 207.17 293.33 208.5 295.5 C 209.83 297.67 214 300.17 213.5 298.5 C 213 296.83 206.33 286 205.5 285.5 Z M 194.5 261.5 C 193.83 261.17 195.5 269.5 196.5 271.5 C 197.5 273.5 200.83 275.17 200.5 273.5 C 200.17 271.83 195.17 261.83 194.5 261.5 Z"/>
    <path fill="#007d38" stroke="#007d38" d="M 472.5 791.5 C 472.5 796.17 475 823.67 475.5 824.5 C 476 825.33 476 802 475.5 796.5 C 475 791 472.5 786.83 472.5 791.5 Z M 471.5 752.5 C 471 751.33 470.17 775.5 470.5 781.5 C 470.83 787.5 473.33 793.33 473.5 788.5 C 473.67 783.67 472 753.67 471.5 752.5 Z M 115.5 699.5 C 115.83 700.67 129.17 719.83 131.5 722.5 C 133.83 725.17 132.17 719.33 129.5 715.5 C 126.83 711.67 115.17 698.33 115.5 699.5 Z M 55.5 561.5 C 55.33 562.5 57.83 569.17 58.5 569.5 C 59.17 569.83 60 564.83 59.5 563.5 C 59 562.17 55.67 560.5 55.5 561.5 Z M 46.5 532.5 C 46.5 533.33 49.83 540 50.5 540.5 C 51.17 541 51.17 536.83 50.5 535.5 C 49.83 534.17 46.5 531.67 46.5 532.5 Z M 413.5 510.5 C 413 511.33 424.83 518.33 420.5 527.5 C 416.17 536.67 396.33 552 387.5 565.5 C 378.67 579 371.5 597 367.5 608.5 C 363.5 620 363.5 621.17 363.5 634.5 C 363.5 647.83 364 670.83 367.5 688.5 C 371 706.17 377.33 723.33 384.5 740.5 C 391.67 757.67 399.5 772.83 410.5 791.5 C 421.5 810.17 437.17 833.67 450.5 852.5 C 463.83 871.33 485.33 900.17 490.5 904.5 C 495.67 908.83 483.33 885.67 481.5 878.5 C 479.67 871.33 480.5 864.83 479.5 861.5 C 478.5 858.17 475.67 859.83 475.5 858.5 C 475.33 857.17 478.5 853.5 478.5 853.5 C 478.5 853.5 483.83 874 475.5 858.5 C 467.17 843 441 790.67 428.5 760.5 C 416 730.33 405.67 695.17 400.5 677.5 C 395.33 659.83 397.5 664.67 397.5 654.5 C 397.5 644.33 397.83 631.33 400.5 616.5 C 403.17 601.67 409.17 578.83 413.5 565.5 C 417.83 552.17 420.67 533.83 426.5 536.5 C 432.33 539.17 449 583.83 448.5 581.5 C 448 579.17 429.33 534.33 423.5 522.5 C 417.67 510.67 414 509.67 413.5 510.5 Z M 37.5 493.5 C 37 494.33 37.83 499.33 38.5 500.5 C 39.17 501.67 41 501.33 41.5 500.5 C 42 499.67 42.17 496.67 41.5 495.5 C 40.83 494.33 38 492.67 37.5 493.5 Z M 40.5 328.5 C 40.5 329.83 43 337.33 43.5 337.5 C 44 337.67 44 331 43.5 329.5 C 43 328 40.5 327.17 40.5 328.5 Z M 204.5 286.5 C 204.5 287.83 207.17 294.5 208.5 296.5 C 209.83 298.5 212.5 299.83 212.5 298.5 C 212.5 297.17 209.83 290.5 208.5 288.5 C 207.17 286.5 204.5 285.17 204.5 286.5 Z M 178.5 98.5 C 178 97.67 175.17 100.17 174.5 101.5 C 173.83 102.83 174 105.67 174.5 106.5 C 175 107.33 176.83 107.83 177.5 106.5 C 178.17 105.17 179 99.33 178.5 98.5 Z M 183.5 49.5 C 182.67 48.67 176 53.67 175.5 55.5 C 175 57.33 179.17 61.5 180.5 60.5 C 181.83 59.5 184.33 50.33 183.5 49.5 Z"/>
  </g>
</svg>
