<svg xmlns="http://www.w3.org/2000/svg" width="899" height="921" viewBox="0 0 899 921" role="img" aria-labelledby="title desc">
  <title id="title">Nur logo loop frame 005</title>
  <desc id="desc">Vector-traced frame from Nur_Logo_Loop_02.gif.</desc>
  <g id="frame-005" stroke-linejoin="round" stroke-linecap="round" stroke-width="0.5" shape-rendering="geometricPrecision">
    <path fill="#008136" stroke="#008136" d="M 215.5 58.5 C 205.83 68.67 177.17 98.5 159.5 122.5 C 141.83 146.5 121.5 181.67 109.5 202.5 C 97.5 223.33 94.67 229.33 87.5 247.5 C 80.33 265.67 72.17 288.67 66.5 311.5 C 60.83 334.33 56.5 358.33 53.5 384.5 C 50.5 410.67 48.17 444.17 48.5 468.5 C 48.83 492.83 51.33 507 55.5 530.5 C 59.67 554 70 596.17 73.5 609.5 C 77 622.83 76.17 609.5 76.5 610.5 C 76.83 611.5 70.67 603.83 75.5 615.5 C 80.33 627.17 93.5 659 105.5 680.5 C 117.5 702 133.5 725.83 147.5 744.5 C 161.5 763.17 173 776.67 189.5 792.5 C 206 808.33 228.83 827.17 246.5 839.5 C 264.17 851.83 274.83 857.5 295.5 866.5 C 316.17 875.5 345.83 886.67 370.5 893.5 C 395.17 900.33 423 905.17 443.5 907.5 C 464 909.83 486.67 911.67 493.5 907.5 C 500.33 903.33 487.17 893.17 484.5 882.5 C 481.83 871.83 479.17 866.83 477.5 843.5 C 475.83 820.17 476.17 772.5 474.5 742.5 C 472.83 712.5 470.5 686.83 467.5 663.5 C 464.5 640.17 460.83 620.17 456.5 602.5 C 452.17 584.83 450.67 576.5 441.5 557.5 C 432.33 538.5 427.83 519 401.5 488.5 C 375.17 458 309.5 401.17 283.5 374.5 C 257.5 347.83 257.83 346.33 245.5 328.5 C 233.17 310.67 215.33 278.67 209.5 267.5 C 203.67 256.33 212.67 270.33 210.5 261.5 C 208.33 252.67 199.33 222.5 196.5 214.5 C 193.67 206.5 194 223.83 193.5 213.5 C 193 203.17 192.5 169.83 193.5 152.5 C 194.5 135.17 196.83 122.67 199.5 109.5 C 202.17 96.33 206.5 81.5 209.5 73.5 C 212.5 65.5 216.5 64 217.5 61.5 C 218.5 59 225.17 48.33 215.5 58.5 Z"/>
    <path fill="#83bb26" stroke="#83bb26" d="M 449.5 490.5 C 448.17 488 423.17 508.83 419.5 515.5 C 415.83 522.17 422.5 534.67 427.5 530.5 C 432.5 526.33 450.83 493 449.5 490.5 Z M 647.5 37.5 C 636.17 32.33 635 32.33 644.5 40.5 C 654 48.67 691.33 75.67 704.5 86.5 C 717.67 97.33 717.17 98 723.5 105.5 C 729.83 113 735.83 120.67 742.5 131.5 C 749.17 142.33 758.5 159.83 763.5 170.5 C 768.5 181.17 770.33 184.5 772.5 195.5 C 774.67 206.5 777.5 223.17 776.5 236.5 C 775.5 249.83 773.33 261.5 766.5 275.5 C 759.67 289.5 750 305 735.5 320.5 C 721 336 699.33 354.33 679.5 368.5 C 659.67 382.67 624.83 393 616.5 405.5 C 608.17 418 625.5 428.67 629.5 443.5 C 633.5 458.33 638 475.33 640.5 494.5 C 643 513.67 644.5 539.67 644.5 558.5 C 644.5 577.33 634.17 603.17 640.5 607.5 C 646.83 611.83 666.67 594.5 682.5 584.5 C 698.33 574.5 719.67 559.67 735.5 547.5 C 751.33 535.33 766 522.5 777.5 511.5 C 789 500.5 795.83 492.67 804.5 481.5 C 813.17 470.33 821.5 458.83 829.5 444.5 C 837.5 430.17 847.17 408.83 852.5 395.5 C 857.83 382.17 859.17 376.5 861.5 364.5 C 863.83 352.5 865.83 338.33 866.5 323.5 C 867.17 308.67 866.67 288.83 865.5 275.5 C 864.33 262.17 863.67 256.5 859.5 243.5 C 855.33 230.5 847 210.17 840.5 197.5 C 834 184.83 832.5 182.33 820.5 167.5 C 808.5 152.67 786.5 124.5 768.5 108.5 C 750.5 92.5 732.67 83.33 712.5 71.5 C 692.33 59.67 658.83 42.67 647.5 37.5 Z"/>
    <path fill="#6ab12d" stroke="#6ab12d" d="M 638.5 611.5 C 633.33 603 605.5 624.83 590.5 632.5 C 575.5 640.17 563.17 647.17 548.5 657.5 C 533.83 667.83 513.5 684 502.5 694.5 C 491.5 705 487.17 710.33 482.5 720.5 C 477.83 730.67 475.67 744.33 474.5 755.5 C 473.33 766.67 471.83 762.83 475.5 787.5 C 479.17 812.17 492 884.83 496.5 903.5 C 501 922.17 495.17 909.33 502.5 899.5 C 509.83 889.67 525.17 868.83 540.5 844.5 C 555.83 820.17 581 780.33 594.5 753.5 C 608 726.67 614.17 707.17 621.5 683.5 C 628.83 659.83 643.67 620 638.5 611.5 Z M 474.5 137.5 C 470.17 135.67 488.83 167.5 494.5 183.5 C 500.17 199.5 505.33 218.33 508.5 233.5 C 511.67 248.67 513.17 256.5 513.5 274.5 C 513.83 292.5 512.67 322.5 510.5 341.5 C 508.33 360.5 505.17 374.17 500.5 388.5 C 495.83 402.83 494.67 404.33 482.5 427.5 C 470.33 450.67 437.83 512.67 427.5 527.5 C 417.17 542.33 422 517.83 420.5 516.5 C 419 515.17 417.5 516.83 418.5 519.5 C 419.5 522.17 424.33 530 426.5 532.5 C 428.67 535 427.33 540.67 431.5 534.5 C 435.67 528.33 445.33 504.17 451.5 495.5 C 457.67 486.83 458 488.83 468.5 482.5 C 479 476.17 489.83 469.33 514.5 457.5 C 539.17 445.67 596.83 411 616.5 411.5 C 636.17 412 628.67 445.83 632.5 460.5 C 636.33 475.17 638 474.83 639.5 499.5 C 641 524.17 640.5 596 641.5 608.5 C 642.5 621 645.5 593.83 645.5 574.5 C 645.5 555.17 645.17 518.5 641.5 492.5 C 637.83 466.5 631.33 443.33 623.5 418.5 C 615.67 393.67 609 376.17 594.5 343.5 C 580 310.83 548.83 247.33 536.5 222.5 C 524.17 197.67 530.83 208.67 520.5 194.5 C 510.17 180.33 478.83 139.33 474.5 137.5 Z"/>
    <path fill="#009f3a" stroke="#009f3a" d="M 474.5 771.5 C 471.33 763.83 475.5 838.83 478.5 861.5 C 481.5 884.17 489.33 899.83 492.5 907.5 C 495.67 915.17 500.5 930.17 497.5 907.5 C 494.5 884.83 477.67 779.17 474.5 771.5 Z M 618.5 410.5 C 598.33 410.17 536.5 445.5 512.5 456.5 C 488.5 467.5 484.83 470.33 474.5 476.5 C 464.17 482.67 457.83 484.33 450.5 493.5 C 443.17 502.67 434.67 525.5 430.5 531.5 C 426.33 537.5 422.83 522.33 425.5 529.5 C 428.17 536.67 441 559.67 446.5 574.5 C 452 589.33 455 601.83 458.5 618.5 C 462 635.17 465 649.5 467.5 674.5 C 470 699.5 470.83 760.5 473.5 768.5 C 476.17 776.5 478.33 734.67 483.5 722.5 C 488.67 710.33 491.83 707.17 504.5 695.5 C 517.17 683.83 536.83 666.67 559.5 652.5 C 582.17 638.33 626.5 622.33 640.5 610.5 C 654.5 598.67 643.5 600.33 643.5 581.5 C 643.5 562.67 642.17 518 640.5 497.5 C 638.83 477 637.17 473 633.5 458.5 C 629.83 444 638.67 410.83 618.5 410.5 Z"/>
    <path fill="#007a39" stroke="#007a39" d="M 425.5 533.5 C 419.5 543.17 405.33 591.5 400.5 608.5 C 395.67 625.5 396.5 622.17 396.5 635.5 C 396.5 648.83 394 662.5 400.5 688.5 C 407 714.5 421.33 757.67 435.5 791.5 C 449.67 825.33 478.83 883 485.5 891.5 C 492.17 900 477.83 870.33 475.5 842.5 C 473.17 814.67 473.67 758.17 471.5 724.5 C 469.33 690.83 466.33 664.5 462.5 640.5 C 458.67 616.5 452.83 595.5 448.5 580.5 C 444.17 565.5 440.33 558.33 436.5 550.5 C 432.67 542.67 431.5 523.83 425.5 533.5 Z M 209.5 264.5 C 208.83 263.83 208 267.17 208.5 268.5 C 209 269.83 212.33 273.17 212.5 272.5 C 212.67 271.83 210.17 265.17 209.5 264.5 Z M 212.5 67.5 C 212 67.5 208.67 73.33 208.5 74.5 C 208.33 75.67 210.83 75.67 211.5 74.5 C 212.17 73.33 213 67.5 212.5 67.5 Z"/>
    <path fill="#007d38" stroke="#007d38" d="M 74.5 608.5 C 74.67 609.83 78 616.5 78.5 616.5 C 79 616.5 78.17 609.83 77.5 608.5 C 76.83 607.17 74.33 607.17 74.5 608.5 Z M 418.5 520.5 C 410.17 520.33 398 541.83 389.5 554.5 C 381 567.17 372.33 584.67 367.5 596.5 C 362.67 608.33 361.17 611.5 360.5 625.5 C 359.83 639.5 360.33 663.33 363.5 680.5 C 366.67 697.67 371.67 710.33 379.5 728.5 C 387.33 746.67 398 768.17 410.5 789.5 C 423 810.83 441.5 838.33 454.5 856.5 C 467.5 874.67 484.33 897.67 488.5 898.5 C 492.67 899.33 481.33 865.83 479.5 861.5 C 477.67 857.17 484.67 884.5 477.5 872.5 C 470.33 860.5 449.17 820.5 436.5 789.5 C 423.83 758.5 408 708.17 401.5 686.5 C 395 664.83 397.5 672.17 397.5 659.5 C 397.5 646.83 398.33 627 401.5 610.5 C 404.67 594 412.17 572.5 416.5 560.5 C 420.83 548.5 422.17 535 427.5 538.5 C 432.83 542 446.5 578.67 448.5 581.5 C 450.5 584.33 444.5 565.67 439.5 555.5 C 434.5 545.33 426.83 520.67 418.5 520.5 Z M 244.5 328.5 C 245 330.17 248.67 336.5 250.5 338.5 C 252.33 340.5 256 342.17 255.5 340.5 C 255 338.83 249.33 330.5 247.5 328.5 C 245.67 326.5 244 326.83 244.5 328.5 Z M 207.5 259.5 C 206.5 258.33 207.33 266.67 208.5 269.5 C 209.67 272.33 214.67 278.17 214.5 276.5 C 214.33 274.83 208.5 260.67 207.5 259.5 Z M 102.5 219.5 C 101.5 220.33 96.5 229.5 96.5 230.5 C 96.5 231.5 101.5 227.33 102.5 225.5 C 103.5 223.67 103.5 218.67 102.5 219.5 Z M 192.5 210.5 C 192 211.17 191.83 214.17 192.5 215.5 C 193.17 216.83 196 219.17 196.5 218.5 C 197 217.83 196.17 212.83 195.5 211.5 C 194.83 210.17 193 209.83 192.5 210.5 Z M 155.5 132.5 C 154.67 133 148 142.17 147.5 143.5 C 147 144.83 151.17 142.33 152.5 140.5 C 153.83 138.67 156.33 132 155.5 132.5 Z"/>
  </g>
</svg>
