<svg xmlns="http://www.w3.org/2000/svg" width="899" height="921" viewBox="0 0 899 921" role="img" aria-labelledby="title desc">
  <title id="title">Nur logo loop frame 058</title>
  <desc id="desc">Vector-traced frame from Nur_Logo_Loop_02.gif.</desc>
  <g id="frame-058" stroke-linejoin="round" stroke-linecap="round" stroke-width="0.5" shape-rendering="geometricPrecision">
    <path fill="#008136" stroke="#008136" d="M 203.5 51.5 C 195.33 62 174.17 89.33 157.5 114.5 C 140.83 139.67 116.67 178.67 103.5 202.5 C 90.33 226.33 85 241.17 78.5 257.5 C 72 273.83 66.67 292.5 64.5 300.5 C 62.33 308.5 65.83 304.33 65.5 305.5 C 65.17 306.67 65.33 294.17 62.5 307.5 C 59.67 320.83 51.67 359.83 48.5 385.5 C 45.33 411.17 42.33 433.83 43.5 461.5 C 44.67 489.17 53 536.33 55.5 551.5 C 58 566.67 58.17 550.83 58.5 552.5 C 58.83 554.17 57.17 559.83 57.5 561.5 C 57.83 563.17 60.17 561 60.5 562.5 C 60.83 564 57.67 561.83 59.5 570.5 C 61.33 579.17 65.33 598 71.5 614.5 C 77.67 631 85.17 649.17 96.5 669.5 C 107.83 689.83 124.17 716 139.5 736.5 C 154.83 757 171.67 776 188.5 792.5 C 205.33 809 222.67 823.17 240.5 835.5 C 258.33 847.83 273.83 856.83 295.5 866.5 C 317.17 876.17 345.83 886.67 370.5 893.5 C 395.17 900.33 423 905.17 443.5 907.5 C 464 909.83 486.67 911.67 493.5 907.5 C 500.33 903.33 487.17 893.17 484.5 882.5 C 481.83 871.83 479.17 866.67 477.5 843.5 C 475.83 820.33 476.17 773.5 474.5 743.5 C 472.83 713.5 470.5 687 467.5 663.5 C 464.5 640 460.83 620.17 456.5 602.5 C 452.17 584.83 446.33 569.67 441.5 557.5 C 436.67 545.33 434.83 541.83 427.5 529.5 C 420.17 517.17 422.5 510.17 397.5 483.5 C 372.5 456.83 302.5 394.67 277.5 369.5 C 252.5 344.33 257.33 345.67 247.5 332.5 C 237.67 319.33 224.33 300.33 218.5 290.5 C 212.67 280.67 214 276.5 212.5 273.5 C 211 270.5 211 276.67 209.5 272.5 C 208 268.33 205 252.67 203.5 248.5 C 202 244.33 201.67 251.67 200.5 247.5 C 199.33 243.33 198 228.83 196.5 223.5 C 195 218.17 192.83 229.67 191.5 215.5 C 190.17 201.33 187.33 161.83 188.5 138.5 C 189.67 115.17 195.5 90 198.5 75.5 C 201.5 61 205.67 55.5 206.5 51.5 C 207.33 47.5 211.67 41 203.5 51.5 Z"/>
    <path fill="#83bb26" stroke="#83bb26" d="M 444.5 497.5 C 443.33 495.17 423.33 511 420.5 516.5 C 417.67 522 423.5 533.67 427.5 530.5 C 431.5 527.33 445.67 499.83 444.5 497.5 Z M 667.5 30.5 C 655.83 23.67 659.17 28 663.5 32.5 C 667.83 37 683.83 48.33 693.5 57.5 C 703.17 66.67 710.67 73.17 721.5 87.5 C 732.33 101.83 749.33 127 758.5 143.5 C 767.67 160 772.67 175.17 776.5 186.5 C 780.33 197.83 780.67 203.5 781.5 211.5 C 782.33 219.5 782.67 225.33 781.5 234.5 C 780.33 243.67 777 258.17 774.5 266.5 C 772 274.83 773.33 274.33 766.5 284.5 C 759.67 294.67 746.83 313.67 733.5 327.5 C 720.17 341.33 705.33 354 686.5 367.5 C 667.67 381 629.5 395.67 620.5 408.5 C 611.5 421.33 628.83 430.83 632.5 444.5 C 636.17 458.17 640.33 476 642.5 490.5 C 644.67 505 645.5 511.5 645.5 531.5 C 645.5 551.5 635.5 601.5 642.5 610.5 C 649.5 619.5 671.67 595.5 687.5 585.5 C 703.33 575.5 722.17 562.33 737.5 550.5 C 752.83 538.67 768.33 525 779.5 514.5 C 790.67 504 795.67 498.83 804.5 487.5 C 813.33 476.17 824.5 460.17 832.5 446.5 C 840.5 432.83 847.17 418.67 852.5 405.5 C 857.83 392.33 861.5 381.67 864.5 367.5 C 867.5 353.33 869.67 335.5 870.5 320.5 C 871.33 305.5 870.67 290.17 869.5 277.5 C 868.33 264.83 867 256.5 863.5 244.5 C 860 232.5 854 217.17 848.5 205.5 C 843 193.83 842.83 191.17 830.5 174.5 C 818.17 157.83 790.67 122.33 774.5 105.5 C 758.33 88.67 751.33 86 733.5 73.5 C 715.67 61 679.17 37.33 667.5 30.5 Z"/>
    <path fill="#6ab12d" stroke="#6ab12d" d="M 639.5 615.5 C 633 613 607.33 628.67 593.5 635.5 C 579.67 642.33 570.83 647 556.5 656.5 C 542.17 666 519.33 682.5 507.5 692.5 C 495.67 702.5 490.33 709.17 485.5 716.5 C 480.67 723.83 480.33 727.5 478.5 736.5 C 476.67 745.5 472 744.17 474.5 770.5 C 477 796.83 491.5 876.33 493.5 894.5 C 495.5 912.67 488.17 881.5 486.5 879.5 C 484.83 877.5 482.33 877.83 483.5 882.5 C 484.67 887.17 490.33 904.67 493.5 907.5 C 496.67 910.33 494.67 910 502.5 899.5 C 510.33 889 526.67 865.83 540.5 844.5 C 554.33 823.17 572.67 796 585.5 771.5 C 598.33 747 609.67 717.67 617.5 697.5 C 625.33 677.33 628.83 664.17 632.5 650.5 C 636.17 636.83 646 618 639.5 615.5 Z M 485.5 135.5 C 487.33 143.33 498.67 171 503.5 188.5 C 508.33 206 512.17 227.33 514.5 240.5 C 516.83 253.67 517.5 251.67 517.5 267.5 C 517.5 283.33 517.33 314.83 514.5 335.5 C 511.67 356.17 506.17 375.33 500.5 391.5 C 494.83 407.67 492.5 410 480.5 432.5 C 468.5 455 438.33 512.33 428.5 526.5 C 418.67 540.67 423 518.33 421.5 517.5 C 420 516.67 418.33 518.5 419.5 521.5 C 420.67 524.5 426.33 533 428.5 535.5 C 430.67 538 428.5 542.67 432.5 536.5 C 436.5 530.33 446.83 506.67 452.5 498.5 C 458.17 490.33 457.33 493.17 466.5 487.5 C 475.67 481.83 481.83 476.83 507.5 464.5 C 533.17 452.17 599.67 415.83 620.5 413.5 C 641.33 411.17 629 436.83 632.5 450.5 C 636 464.17 639.5 480.17 641.5 495.5 C 643.5 510.83 644.33 523.17 644.5 542.5 C 644.67 561.83 642.17 604.33 642.5 611.5 C 642.83 618.67 646.33 606 646.5 585.5 C 646.67 565 647 516.83 643.5 488.5 C 640 460.17 631.33 435.67 625.5 415.5 C 619.67 395.33 617.67 389.67 608.5 367.5 C 599.33 345.33 584.33 311.17 570.5 282.5 C 556.67 253.83 538.5 219 525.5 195.5 C 512.5 172 499.17 151.5 492.5 141.5 C 485.83 131.5 483.67 127.67 485.5 135.5 Z"/>
    <path fill="#009f3a" stroke="#009f3a" d="M 622.5 412.5 C 599.67 407.5 530.5 452 505.5 463.5 C 480.5 475 481.5 476 472.5 481.5 C 463.5 487 458.17 488 451.5 496.5 C 444.83 505 436.5 526.5 432.5 532.5 C 428.5 538.5 425.17 525.5 427.5 532.5 C 429.83 539.5 440.67 556.67 446.5 574.5 C 452.33 592.33 458.33 615.5 462.5 639.5 C 466.67 663.5 469.17 684.17 471.5 718.5 C 473.83 752.83 474.5 817.83 476.5 845.5 C 478.5 873.17 480.83 874.17 483.5 884.5 C 486.17 894.83 490.67 904 492.5 907.5 C 494.33 911 494.83 907.33 494.5 905.5 C 494.17 903.67 490.5 897.33 490.5 896.5 C 490.5 895.67 493.33 900.33 494.5 900.5 C 495.67 900.67 499.5 910 497.5 897.5 C 495.5 885 486.17 847 482.5 825.5 C 478.83 804 476 783 475.5 768.5 C 475 754 477.67 746.83 479.5 738.5 C 481.33 730.17 481.5 726 486.5 718.5 C 491.5 711 501 701.33 509.5 693.5 C 518 685.67 526 679.5 537.5 671.5 C 549 663.5 561.17 655 578.5 645.5 C 595.83 636 630.33 625.83 641.5 614.5 C 652.67 603.17 645.33 597.67 645.5 577.5 C 645.67 557.33 646.33 521 642.5 493.5 C 638.67 466 645.33 417.5 622.5 412.5 Z"/>
    <path fill="#007a39" stroke="#007a39" d="M 427.5 537.5 C 423 544 413.5 576.17 409.5 589.5 C 405.5 602.83 404.67 603.67 403.5 617.5 C 402.33 631.33 401.5 657.83 402.5 672.5 C 403.5 687.17 405.5 692.33 409.5 705.5 C 413.5 718.67 415.5 725.67 426.5 751.5 C 437.5 777.33 466.83 842.33 475.5 860.5 C 484.17 878.67 479.17 883.17 478.5 860.5 C 477.83 837.83 474.17 761.17 471.5 724.5 C 468.83 687.83 466.33 664.5 462.5 640.5 C 458.67 616.5 452.83 595.5 448.5 580.5 C 444.17 565.5 440 557.67 436.5 550.5 C 433 543.33 432 531 427.5 537.5 Z"/>
    <path fill="#007d38" stroke="#007d38" d="M 115.5 699.5 C 115.83 700.67 129.17 719.83 131.5 722.5 C 133.83 725.17 132.17 719.33 129.5 715.5 C 126.83 711.67 115.17 698.33 115.5 699.5 Z M 456.5 618.5 C 457 622.17 462 643 462.5 643.5 C 463 644 460.5 625.67 459.5 621.5 C 458.5 617.33 456 614.83 456.5 618.5 Z M 71.5 608.5 C 70.83 608 70.83 612.17 71.5 613.5 C 72.17 614.83 75.5 617.33 75.5 616.5 C 75.5 615.67 72.17 609 71.5 608.5 Z M 64.5 582.5 C 63.83 581.83 63.83 587.67 64.5 589.5 C 65.17 591.33 68.5 594.67 68.5 593.5 C 68.5 592.33 65.17 583.17 64.5 582.5 Z M 418.5 522.5 C 412 529.5 392 552.67 383.5 565.5 C 375 578.33 371.33 588 367.5 599.5 C 363.67 611 361.33 622.83 360.5 634.5 C 359.67 646.17 360 655.67 362.5 669.5 C 365 683.33 368.5 699 375.5 717.5 C 382.5 736 391.33 757.33 404.5 780.5 C 417.67 803.67 440.67 837.17 454.5 856.5 C 468.33 875.83 483.83 896.17 487.5 896.5 C 491.17 896.83 478 865.67 476.5 858.5 C 475 851.33 478.83 854.5 478.5 853.5 C 478.17 852.5 474.67 852.83 474.5 852.5 C 474.33 852.17 477.33 855.33 477.5 851.5 C 477.67 847.67 476 829.67 475.5 829.5 C 475 829.33 482.83 864.67 474.5 850.5 C 466.17 836.33 436.17 769 425.5 744.5 C 414.83 720 414.17 715.83 410.5 703.5 C 406.83 691.17 404.5 684.5 403.5 670.5 C 402.5 656.5 402.17 636.33 404.5 619.5 C 406.83 602.67 413.33 582.33 417.5 569.5 C 421.67 556.67 425 541 429.5 542.5 C 434 544 441.33 572 444.5 578.5 C 447.67 585 450.83 588.5 448.5 581.5 C 446.17 574.5 434.83 546.17 430.5 536.5 C 426.17 526.83 424.5 525.83 422.5 523.5 C 420.5 521.17 425 515.5 418.5 522.5 Z M 413.5 510.5 C 413.33 511.17 417.5 519.5 418.5 520.5 C 419.5 521.5 420.33 518.17 419.5 516.5 C 418.67 514.83 413.67 509.83 413.5 510.5 Z M 325.5 418.5 C 326.33 419.67 335.5 427.17 336.5 427.5 C 337.5 427.83 333.33 422 331.5 420.5 C 329.67 419 324.67 417.33 325.5 418.5 Z M 197.5 238.5 C 196.83 238 198.5 247.17 199.5 249.5 C 200.5 251.83 203.83 254.33 203.5 252.5 C 203.17 250.67 198.17 239 197.5 238.5 Z M 100.5 214.5 C 100.83 213.17 97.5 214 96.5 215.5 C 95.5 217 93.83 223.67 94.5 223.5 C 95.17 223.33 100.17 215.83 100.5 214.5 Z"/>
  </g>
</svg>
