<svg xmlns="http://www.w3.org/2000/svg" width="899" height="921" viewBox="0 0 899 921" role="img" aria-labelledby="title desc">
  <title id="title">Nur logo loop frame 046</title>
  <desc id="desc">Vector-traced frame from Nur_Logo_Loop_02.gif.</desc>
  <g id="frame-046" stroke-linejoin="round" stroke-linecap="round" stroke-width="0.5" shape-rendering="geometricPrecision">
    <path fill="#008136" stroke="#008136" d="M 218.5 64.5 C 208.17 74.5 177.5 103.17 159.5 126.5 C 141.5 149.83 122.5 183.5 110.5 204.5 C 98.5 225.5 91.67 242.17 87.5 252.5 C 83.33 262.83 86.33 264 85.5 266.5 C 84.67 269 85 261.5 82.5 267.5 C 80 273.5 72.67 294.5 70.5 302.5 C 68.33 310.5 70.17 313.17 69.5 315.5 C 68.83 317.83 70 301.67 66.5 316.5 C 63 331.33 52.17 379.67 48.5 404.5 C 44.83 429.33 43.67 442.83 44.5 465.5 C 45.33 488.17 49 515.67 53.5 540.5 C 58 565.33 64.33 593 71.5 614.5 C 78.67 636 85.17 649.17 96.5 669.5 C 107.83 689.83 124.17 716 139.5 736.5 C 154.83 757 171.67 776 188.5 792.5 C 205.33 809 222.67 823.17 240.5 835.5 C 258.33 847.83 273.83 856.83 295.5 866.5 C 317.17 876.17 345.83 886.67 370.5 893.5 C 395.17 900.33 423 905.17 443.5 907.5 C 464 909.83 486.67 911.67 493.5 907.5 C 500.33 903.33 487.17 893.17 484.5 882.5 C 481.83 871.83 479.17 866.67 477.5 843.5 C 475.83 820.33 476.17 773.5 474.5 743.5 C 472.83 713.5 470.5 687 467.5 663.5 C 464.5 640 460.83 620.17 456.5 602.5 C 452.17 584.83 447.83 572.17 441.5 557.5 C 435.17 542.83 427 528.17 418.5 514.5 C 410 500.83 408.17 494 390.5 475.5 C 372.83 457 334.17 424.83 312.5 403.5 C 290.83 382.17 274.33 364.33 260.5 347.5 C 246.67 330.67 237.5 316.33 229.5 302.5 C 221.5 288.67 215.83 271 212.5 264.5 C 209.17 258 212.17 272.5 209.5 263.5 C 206.83 254.5 199.17 219.5 196.5 210.5 C 193.83 201.5 193.67 217.83 193.5 209.5 C 193.33 201.17 194 177.83 195.5 160.5 C 197 143.17 200.5 117.33 202.5 105.5 C 204.5 93.67 206.17 92.33 207.5 89.5 C 208.83 86.67 210.17 89.33 210.5 88.5 C 210.83 87.67 207.67 88.17 209.5 84.5 C 211.33 80.83 220 69.83 221.5 66.5 C 223 63.17 228.83 54.5 218.5 64.5 Z"/>
    <path fill="#83bb26" stroke="#83bb26" d="M 449.5 490.5 C 448.17 487.83 423.17 507.83 419.5 514.5 C 415.83 521.17 422.5 534.5 427.5 530.5 C 432.5 526.5 450.83 493.17 449.5 490.5 Z M 636.5 42.5 C 634.17 42.67 624.67 37.67 636.5 46.5 C 648.33 55.33 691.67 83.17 707.5 95.5 C 723.33 107.83 722.67 108 731.5 120.5 C 740.33 133 753.33 154 760.5 170.5 C 767.67 187 772.33 207.33 774.5 219.5 C 776.67 231.67 774.83 235 773.5 243.5 C 772.17 252 772 259 766.5 270.5 C 761 282 753.83 297.33 740.5 312.5 C 727.17 327.67 707.5 346 686.5 361.5 C 665.5 377 624 390.5 614.5 405.5 C 605 420.5 625.5 436.5 629.5 451.5 C 633.5 466.5 636.33 479.17 638.5 495.5 C 640.67 511.83 642.17 531 642.5 549.5 C 642.83 568 633 601.5 640.5 606.5 C 648 611.5 672.33 589.17 687.5 579.5 C 702.67 569.83 718.17 558.67 731.5 548.5 C 744.83 538.33 754.33 531.5 767.5 518.5 C 780.67 505.5 799.67 484.33 810.5 470.5 C 821.33 456.67 825 450.5 832.5 435.5 C 840 420.5 850.33 396.17 855.5 380.5 C 860.67 364.83 862 357.83 863.5 341.5 C 865 325.17 865.83 300.17 864.5 282.5 C 863.17 264.83 859.67 249.5 855.5 235.5 C 851.33 221.5 845 209 839.5 198.5 C 834 188 833.17 186 822.5 172.5 C 811.83 159 788.67 130.5 775.5 117.5 C 762.33 104.5 755.83 102.33 743.5 94.5 C 731.17 86.67 717 78.67 701.5 70.5 C 686 62.33 661.33 50.17 650.5 45.5 C 639.67 40.83 638.83 42.33 636.5 42.5 Z"/>
    <path fill="#6ab12d" stroke="#6ab12d" d="M 469.5 139.5 C 464.67 138.5 490.17 181.67 496.5 198.5 C 502.83 215.33 505 227.83 507.5 240.5 C 510 253.17 511.33 256.83 511.5 274.5 C 511.67 292.17 510.67 326.5 508.5 346.5 C 506.33 366.5 511.67 364.67 498.5 394.5 C 485.33 424.33 441.5 503.5 429.5 525.5 C 417.5 547.5 428 528.17 426.5 526.5 C 425 524.83 422 517 420.5 515.5 C 419 514 416.17 514.17 417.5 517.5 C 418.83 520.83 426.17 532.5 428.5 535.5 C 430.83 538.5 426.33 543.67 431.5 535.5 C 436.67 527.33 445.83 499.83 459.5 486.5 C 473.17 473.17 487.83 468.17 513.5 455.5 C 539.17 442.83 593.67 408.17 613.5 410.5 C 633.33 412.83 628 447.17 632.5 469.5 C 637 491.83 639.67 521.5 640.5 544.5 C 641.33 567.5 648.17 592 637.5 607.5 C 626.83 623 592.33 628.83 576.5 637.5 C 560.67 646.17 554 651 542.5 659.5 C 531 668 517.33 678.83 507.5 688.5 C 497.67 698.17 488.67 708.5 483.5 717.5 C 478.33 726.5 478 733.5 476.5 742.5 C 475 751.5 471.5 746.5 474.5 771.5 C 477.5 796.5 492.5 874.5 494.5 892.5 C 496.5 910.5 488.33 881.17 486.5 879.5 C 484.67 877.83 482.5 878 483.5 882.5 C 484.5 887 490.33 902.33 492.5 906.5 C 494.67 910.67 484.33 924.33 496.5 907.5 C 508.67 890.67 548.17 833.5 565.5 805.5 C 582.83 777.5 589.5 766.17 600.5 739.5 C 611.5 712.83 624.67 668.83 631.5 645.5 C 638.33 622.17 639.5 615.83 641.5 599.5 C 643.5 583.17 644.67 569.83 643.5 547.5 C 642.33 525.17 642.17 497.67 634.5 465.5 C 626.83 433.33 608.67 384.5 597.5 354.5 C 586.33 324.5 579.5 310.5 567.5 285.5 C 555.5 260.5 541.83 228.83 525.5 204.5 C 509.17 180.17 474.33 140.5 469.5 139.5 Z"/>
    <path fill="#009f3a" stroke="#009f3a" d="M 474.5 770.5 C 471.33 764.67 476.17 840 478.5 861.5 C 480.83 883 485.83 891.83 488.5 899.5 C 491.17 907.17 494.5 908.83 494.5 907.5 C 494.5 906.17 488.33 892.67 488.5 891.5 C 488.67 890.33 494 899.67 495.5 900.5 C 497 901.33 501 918.17 497.5 896.5 C 494 874.83 477.67 776.33 474.5 770.5 Z M 615.5 409.5 C 595.5 408.67 535.83 443.17 511.5 454.5 C 487.17 465.83 479 471.83 469.5 477.5 C 460 483.17 460.83 479.33 454.5 488.5 C 448.17 497.67 436.33 525.67 431.5 532.5 C 426.67 539.33 423 522.5 425.5 529.5 C 428 536.5 441 559.67 446.5 574.5 C 452 589.33 455 601.83 458.5 618.5 C 462 635.17 465 649.67 467.5 674.5 C 470 699.33 470.67 760 473.5 767.5 C 476.33 775 478.5 732.5 484.5 719.5 C 490.5 706.5 495.5 702 509.5 689.5 C 523.5 677 547 657.83 568.5 644.5 C 590 631.17 626.33 626.5 638.5 609.5 C 650.67 592.5 641.67 562.33 641.5 542.5 C 641.33 522.67 639.17 504.33 637.5 490.5 C 635.83 476.67 635.17 473 631.5 459.5 C 627.83 446 635.5 410.33 615.5 409.5 Z"/>
    <path fill="#007a39" stroke="#007a39" d="M 428.5 540.5 C 423.67 549.67 411.67 591 407.5 605.5 C 403.33 620 404.17 617.33 403.5 627.5 C 402.83 637.67 400.83 649.33 403.5 666.5 C 406.17 683.67 410.83 705.5 419.5 730.5 C 428.17 755.5 445.67 794.83 455.5 816.5 C 465.33 838.17 475.83 875.83 478.5 860.5 C 481.17 845.17 474.17 761.17 471.5 724.5 C 468.83 687.83 466.33 664.5 462.5 640.5 C 458.67 616.5 452.83 595.5 448.5 580.5 C 444.17 565.5 439.83 557.17 436.5 550.5 C 433.17 543.83 433.33 531.33 428.5 540.5 Z M 213.5 79.5 C 213.67 78.17 209.5 80.67 208.5 82.5 C 207.5 84.33 206.67 91 207.5 90.5 C 208.33 90 213.33 80.83 213.5 79.5 Z"/>
    <path fill="#007d38" stroke="#007d38" d="M 115.5 699.5 C 115.83 700.67 129.17 719.83 131.5 722.5 C 133.83 725.17 132.17 719.33 129.5 715.5 C 126.83 711.67 115.17 698.33 115.5 699.5 Z M 456.5 618.5 C 457 622.17 462 643 462.5 643.5 C 463 644 460.5 625.67 459.5 621.5 C 458.5 617.33 456 614.83 456.5 618.5 Z M 416.5 519.5 C 409.67 525.5 391.33 550.67 383.5 562.5 C 375.67 574.33 373.33 579.83 369.5 590.5 C 365.67 601.17 361.67 613.33 360.5 626.5 C 359.33 639.67 360.83 656.5 362.5 669.5 C 364.17 682.5 365.33 689.83 370.5 704.5 C 375.67 719.17 384.5 739.5 393.5 757.5 C 402.5 775.5 418.67 803.17 424.5 812.5 C 430.33 821.83 425.67 809.5 428.5 813.5 C 431.33 817.5 432.5 823.33 441.5 836.5 C 450.5 849.67 474.83 882.83 482.5 892.5 C 490.17 902.17 488.5 900.33 487.5 894.5 C 486.5 888.67 478 864.33 476.5 857.5 C 475 850.67 478.67 854.33 478.5 853.5 C 478.33 852.67 476 856.5 475.5 852.5 C 475 848.5 475.67 829.83 475.5 829.5 C 475.33 829.17 483.67 867.33 474.5 850.5 C 465.33 833.67 432.17 759.5 420.5 728.5 C 408.83 697.5 407.17 681 404.5 664.5 C 401.83 648 401.83 646.17 404.5 629.5 C 407.17 612.83 416.17 578.83 420.5 564.5 C 424.83 550.17 424.67 536.5 430.5 543.5 C 436.33 550.5 454 604.5 455.5 606.5 C 457 608.5 444.67 568.83 439.5 555.5 C 434.33 542.17 428.33 532.5 424.5 526.5 C 420.67 520.5 423.33 513.5 416.5 519.5 Z M 86.5 264.5 C 86.33 263 84.5 262.67 83.5 264.5 C 82.5 266.33 80.33 274 80.5 275.5 C 80.67 277 83.5 275.33 84.5 273.5 C 85.5 271.67 86.67 266 86.5 264.5 Z M 208.5 260.5 C 207.83 260.17 207.83 265.17 208.5 266.5 C 209.17 267.83 212.5 269.5 212.5 268.5 C 212.5 267.5 209.17 260.83 208.5 260.5 Z M 105.5 217.5 C 104.83 217.83 99 228.67 98.5 230.5 C 98 232.33 101.33 230.67 102.5 228.5 C 103.67 226.33 106.17 217.17 105.5 217.5 Z M 193.5 207.5 C 192.83 207 192 211.17 192.5 212.5 C 193 213.83 196.33 216.33 196.5 215.5 C 196.67 214.67 194.17 208 193.5 207.5 Z M 209.5 86.5 C 209.83 85 207.33 85.83 206.5 87.5 C 205.67 89.17 204 96.67 204.5 96.5 C 205 96.33 209.17 88 209.5 86.5 Z"/>
  </g>
</svg>
