<svg xmlns="http://www.w3.org/2000/svg" width="899" height="921" viewBox="0 0 899 921" role="img" aria-labelledby="title desc">
  <title id="title">Nur logo loop frame 018</title>
  <desc id="desc">Vector-traced frame from Nur_Logo_Loop_02.gif.</desc>
  <g id="frame-018" stroke-linejoin="round" stroke-linecap="round" stroke-width="0.5" shape-rendering="geometricPrecision">
    <path fill="#008136" stroke="#008136" d="M 233.5 78.5 C 223.33 85.17 190.17 107.83 175.5 121.5 C 160.83 135.17 156.5 144.17 145.5 160.5 C 134.5 176.83 119.33 200.17 109.5 219.5 C 99.67 238.83 90.5 265 86.5 276.5 C 82.5 288 86.83 284.5 85.5 288.5 C 84.17 292.5 81.67 289.83 78.5 300.5 C 75.33 311.17 70 331.5 66.5 352.5 C 63 373.5 58.5 399.83 57.5 426.5 C 56.5 453.17 57 482.33 60.5 512.5 C 64 542.67 70.67 580.33 78.5 607.5 C 86.33 634.67 95.67 652.83 107.5 675.5 C 119.33 698.17 133 721.5 149.5 743.5 C 166 765.5 190.5 791.67 206.5 807.5 C 222.5 823.33 230.67 828.67 245.5 838.5 C 260.33 848.33 274.67 857.33 295.5 866.5 C 316.33 875.67 345.83 886.67 370.5 893.5 C 395.17 900.33 423 905.17 443.5 907.5 C 464 909.83 486.67 911.67 493.5 907.5 C 500.33 903.33 487.17 893.17 484.5 882.5 C 481.83 871.83 480.33 880 477.5 843.5 C 474.67 807 471 703.67 467.5 663.5 C 464 623.33 460.83 620.17 456.5 602.5 C 452.17 584.83 446.33 569.67 441.5 557.5 C 436.67 545.33 435 542 427.5 529.5 C 420 517 420.5 508.33 396.5 482.5 C 372.5 456.67 306.17 397.33 283.5 374.5 C 260.83 351.67 270.17 360.17 260.5 345.5 C 250.83 330.83 233.5 303.5 225.5 286.5 C 217.5 269.5 215.17 250.83 212.5 243.5 C 209.83 236.17 209.67 243.33 209.5 242.5 C 209.33 241.67 212.33 243.33 211.5 238.5 C 210.67 233.67 204.5 227 204.5 213.5 C 204.5 200 210.67 168 211.5 157.5 C 212.33 147 209.33 151.83 209.5 150.5 C 209.67 149.17 210.67 156.67 212.5 149.5 C 214.33 142.33 216.5 118.83 220.5 107.5 C 224.5 96.17 234.33 86.33 236.5 81.5 C 238.67 76.67 243.67 71.83 233.5 78.5 Z"/>
    <path fill="#83bb26" stroke="#83bb26" d="M 457.5 476.5 C 455.5 473.67 421.83 502.83 416.5 511.5 C 411.17 520.17 423.5 525.67 425.5 528.5 C 427.5 531.33 423.17 537.17 428.5 528.5 C 433.83 519.83 459.5 479.33 457.5 476.5 Z M 616.5 44.5 C 616.33 45.83 637 53.17 648.5 59.5 C 660 65.83 672.67 72.83 685.5 82.5 C 698.33 92.17 714.67 105.17 725.5 117.5 C 736.33 129.83 744.83 145.17 750.5 156.5 C 756.17 167.83 757.33 176.17 759.5 185.5 C 761.67 194.83 763.5 199.83 763.5 212.5 C 763.5 225.17 761.67 249.5 759.5 261.5 C 757.33 273.5 754.5 276.83 750.5 284.5 C 746.5 292.17 740.67 300.67 735.5 307.5 C 730.33 314.33 728.5 317.17 719.5 325.5 C 710.5 333.83 694.67 347.67 681.5 357.5 C 668.33 367.33 652.67 377.33 640.5 384.5 C 628.33 391.67 611.5 391.17 608.5 400.5 C 605.5 409.83 618 424.83 622.5 440.5 C 627 456.17 632.5 477.5 635.5 494.5 C 638.5 511.5 640 525 640.5 542.5 C 641 560 631.17 594.33 638.5 599.5 C 645.83 604.67 666.83 585 684.5 573.5 C 702.17 562 727.17 544.67 744.5 530.5 C 761.83 516.33 776.83 501.5 788.5 488.5 C 800.17 475.5 806.83 465 814.5 452.5 C 822.17 440 828.83 427.33 834.5 413.5 C 840.17 399.67 845.33 382.17 848.5 369.5 C 851.67 356.83 852.5 353.33 853.5 337.5 C 854.5 321.67 855.5 291.5 854.5 274.5 C 853.5 257.5 852.17 249.67 847.5 235.5 C 842.83 221.33 835.83 205.17 826.5 189.5 C 817.17 173.83 803.17 155.5 791.5 141.5 C 779.83 127.5 767.83 115.17 756.5 105.5 C 745.17 95.83 735.17 90.17 723.5 83.5 C 711.83 76.83 698.83 70.83 686.5 65.5 C 674.17 60.17 661.17 55 649.5 51.5 C 637.83 48 616.67 43.17 616.5 44.5 Z"/>
    <path fill="#6ab12d" stroke="#6ab12d" d="M 458.5 154.5 C 453.5 153 480 181.33 487.5 194.5 C 495 207.67 499.67 217.17 503.5 233.5 C 507.33 249.83 509.83 271.83 510.5 292.5 C 511.17 313.17 509.33 339.83 507.5 357.5 C 505.67 375.17 506.17 381.67 499.5 398.5 C 492.83 415.33 479.33 437.5 467.5 458.5 C 455.67 479.5 435.67 513.67 428.5 524.5 C 421.33 535.33 426.17 525.5 424.5 523.5 C 422.83 521.5 420 514 418.5 512.5 C 417 511 414.5 511.67 415.5 514.5 C 416.5 517.33 422.17 526.83 424.5 529.5 C 426.83 532.17 424.83 537.67 429.5 530.5 C 434.17 523.33 446.83 495.5 452.5 486.5 C 458.17 477.5 453.33 482.83 463.5 476.5 C 473.67 470.17 489.33 460.17 513.5 448.5 C 537.67 436.83 589 401.83 608.5 406.5 C 628 411.17 625.5 454.67 630.5 476.5 C 635.5 498.33 637.67 516.67 638.5 537.5 C 639.33 558.33 645.83 586 635.5 601.5 C 625.17 617 592 622 576.5 630.5 C 561 639 556.17 641.67 542.5 652.5 C 528.83 663.33 505.5 684.17 494.5 695.5 C 483.5 706.83 480 714.33 476.5 720.5 C 473 726.67 473.5 716 473.5 732.5 C 473.5 749 473.17 790.17 476.5 819.5 C 479.83 848.83 490.17 893.67 493.5 908.5 C 496.83 923.33 482.67 928.67 496.5 908.5 C 510.33 888.33 559 816.17 576.5 787.5 C 594 758.83 592.33 762.17 601.5 736.5 C 610.67 710.83 625.17 657.33 631.5 633.5 C 637.83 609.67 637.83 609 639.5 593.5 C 641.17 578 642.33 559.33 641.5 540.5 C 640.67 521.67 637.5 497.5 634.5 480.5 C 631.5 463.5 635 470.17 623.5 438.5 C 612 406.83 583.17 329.67 565.5 290.5 C 547.83 251.33 535.33 226.17 517.5 203.5 C 499.67 180.83 463.5 156 458.5 154.5 Z"/>
    <path fill="#009f3a" stroke="#009f3a" d="M 475.5 805.5 C 472.83 797.83 476.83 847.17 478.5 861.5 C 480.17 875.83 482.83 883.83 485.5 891.5 C 488.17 899.17 496.17 921.83 494.5 907.5 C 492.83 893.17 478.17 813.17 475.5 805.5 Z M 610.5 405.5 C 591.33 404.33 536.33 435.83 511.5 447.5 C 486.67 459.17 471.5 469.33 461.5 475.5 C 451.5 481.67 457.33 475.5 451.5 484.5 C 445.67 493.5 427.33 514.5 426.5 529.5 C 425.67 544.5 440.5 556.17 446.5 574.5 C 452.5 592.83 458.33 615.5 462.5 639.5 C 466.67 663.5 469.5 691.17 471.5 718.5 C 473.5 745.83 474 800.83 474.5 803.5 C 475 806.17 473.17 749.67 474.5 734.5 C 475.83 719.33 475.5 722.17 482.5 712.5 C 489.5 702.83 505 687.17 516.5 676.5 C 528 665.83 541.17 656 551.5 648.5 C 561.83 641 564.33 639 578.5 631.5 C 592.67 624 626.33 619.5 636.5 603.5 C 646.67 587.5 639.67 553.33 639.5 535.5 C 639.33 517.67 637.67 510 635.5 496.5 C 633.33 483 630.67 469.67 626.5 454.5 C 622.33 439.33 629.67 406.67 610.5 405.5 Z"/>
    <path fill="#007a39" stroke="#007a39" d="M 128.5 709.5 C 128.5 710.17 133.5 717.67 134.5 718.5 C 135.5 719.33 135.5 716 134.5 714.5 C 133.5 713 128.5 708.83 128.5 709.5 Z M 425.5 535.5 C 420.67 544.17 408.33 578.17 403.5 594.5 C 398.67 610.83 397.67 622.5 396.5 633.5 C 395.33 644.5 395.5 650.33 396.5 660.5 C 397.5 670.67 397.83 677.83 402.5 694.5 C 407.17 711.17 411.33 729.67 424.5 760.5 C 437.67 791.33 473 865.83 481.5 879.5 C 490 893.17 477.17 857.33 475.5 842.5 C 473.83 827.67 472.17 810.17 471.5 790.5 C 470.83 770.83 473 749.5 471.5 724.5 C 470 699.5 466.33 664.5 462.5 640.5 C 458.67 616.5 453.5 596.83 448.5 580.5 C 443.5 564.17 436.33 550 432.5 542.5 C 428.67 535 430.33 526.83 425.5 535.5 Z"/>
    <path fill="#007d38" stroke="#007d38" d="M 472.5 798.5 C 472.5 802.5 475 826.67 475.5 827.5 C 476 828.33 476 808.33 475.5 803.5 C 475 798.67 472.5 794.5 472.5 798.5 Z M 456.5 618.5 C 457 622.17 462 643 462.5 643.5 C 463 644 460.5 625.67 459.5 621.5 C 458.5 617.33 456 614.83 456.5 618.5 Z M 415.5 516.5 C 408 519.33 394.17 540.33 385.5 554.5 C 376.83 568.67 368.33 586.83 363.5 601.5 C 358.67 616.17 357.17 630 356.5 642.5 C 355.83 655 357.17 664.17 359.5 676.5 C 361.83 688.83 364.17 700.33 370.5 716.5 C 376.83 732.67 388 755.5 397.5 773.5 C 407 791.5 412 802.17 427.5 824.5 C 443 846.83 479.67 894.17 490.5 907.5 C 501.33 920.83 493.33 907.17 492.5 904.5 C 491.67 901.83 487.67 898.67 485.5 891.5 C 483.33 884.33 481 865.5 479.5 861.5 C 478 857.5 483 878.83 476.5 867.5 C 470 856.17 450.33 815.17 440.5 793.5 C 430.67 771.83 423.67 754.33 417.5 737.5 C 411.33 720.67 406.83 705.67 403.5 692.5 C 400.17 679.33 398.5 668 397.5 658.5 C 396.5 649 396.33 645.83 397.5 635.5 C 398.67 625.17 399.67 612.67 404.5 596.5 C 409.33 580.33 419.17 541 426.5 538.5 C 433.83 536 447.83 581.67 448.5 581.5 C 449.17 581.33 436 548.33 430.5 537.5 C 425 526.67 423 513.67 415.5 516.5 Z M 208.5 239.5 C 207.83 239 207.83 243.17 208.5 244.5 C 209.17 245.83 212.5 248.33 212.5 247.5 C 212.5 246.67 209.17 240 208.5 239.5 Z M 116.5 212.5 C 116.83 211.33 113.5 213 112.5 214.5 C 111.5 216 109.83 221.83 110.5 221.5 C 111.17 221.17 116.17 213.67 116.5 212.5 Z M 230.5 88.5 C 230.83 87 227.5 88.67 226.5 90.5 C 225.5 92.33 223.83 99.83 224.5 99.5 C 225.17 99.17 230.17 90 230.5 88.5 Z"/>
  </g>
</svg>
