<svg xmlns="http://www.w3.org/2000/svg" width="899" height="921" viewBox="0 0 899 921" role="img" aria-labelledby="title desc">
  <title id="title">Nur logo loop frame 043</title>
  <desc id="desc">Vector-traced frame from Nur_Logo_Loop_02.gif.</desc>
  <g id="frame-043" stroke-linejoin="round" stroke-linecap="round" stroke-width="0.5" shape-rendering="geometricPrecision">
    <path fill="#008136" stroke="#008136" d="M 219.5 70.5 C 209.33 79.5 178.67 105.33 161.5 126.5 C 144.33 147.67 128.83 175.83 116.5 197.5 C 104.17 219.17 96.17 234.67 87.5 256.5 C 78.83 278.33 71 303.67 64.5 328.5 C 58 353.33 51.83 382.67 48.5 405.5 C 45.17 428.33 43.67 443 44.5 465.5 C 45.33 488 49 515.67 53.5 540.5 C 58 565.33 64.33 593 71.5 614.5 C 78.67 636 85.17 649.17 96.5 669.5 C 107.83 689.83 124.17 716 139.5 736.5 C 154.83 757 171.67 776 188.5 792.5 C 205.33 809 222.67 823.17 240.5 835.5 C 258.33 847.83 273.83 856.83 295.5 866.5 C 317.17 876.17 345.83 886.67 370.5 893.5 C 395.17 900.33 423 905.17 443.5 907.5 C 464 909.83 486.67 911.67 493.5 907.5 C 500.33 903.33 487.17 893.17 484.5 882.5 C 481.83 871.83 479.17 866.67 477.5 843.5 C 475.83 820.33 476.17 773.5 474.5 743.5 C 472.83 713.5 470.5 687 467.5 663.5 C 464.5 640 460.83 620.17 456.5 602.5 C 452.17 584.83 447.83 572.17 441.5 557.5 C 435.17 542.83 427 528.17 418.5 514.5 C 410 500.83 408.17 494 390.5 475.5 C 372.83 457 335.5 426.5 312.5 403.5 C 289.5 380.5 267 355.5 252.5 337.5 C 238 319.5 232.17 308 225.5 295.5 C 218.83 283 215.17 268.17 212.5 262.5 C 209.83 256.83 209.83 262.5 209.5 261.5 C 209.17 260.5 212.83 265.67 210.5 256.5 C 208.17 247.33 197.83 221 195.5 206.5 C 193.17 192 195.5 183.33 196.5 169.5 C 197.5 155.67 198.67 137.5 201.5 123.5 C 204.33 109.5 210 94 213.5 85.5 C 217 77 221.5 75 222.5 72.5 C 223.5 70 229.67 61.5 219.5 70.5 Z"/>
    <path fill="#83bb26" stroke="#83bb26" d="M 450.5 488.5 C 449 485.83 422.33 507.5 418.5 514.5 C 414.67 521.5 422.17 534.83 427.5 530.5 C 432.83 526.17 452 491.17 450.5 488.5 Z M 630.5 44.5 C 623.83 42.83 618 40.33 629.5 48.5 C 641 56.67 683 81.5 699.5 93.5 C 716 105.5 719 108.33 728.5 120.5 C 738 132.67 749.17 150.5 756.5 166.5 C 763.83 182.5 769.83 204 772.5 216.5 C 775.17 229 773.33 233.67 772.5 241.5 C 771.67 249.33 770.17 255.67 767.5 263.5 C 764.83 271.33 760.67 281 756.5 288.5 C 752.33 296 749.33 300.5 742.5 308.5 C 735.67 316.5 725.67 327.33 715.5 336.5 C 705.33 345.67 693.83 354.5 681.5 363.5 C 669.17 372.5 652.83 383.67 641.5 390.5 C 630.17 397.33 614.33 388 613.5 404.5 C 612.67 421 631.83 464.33 636.5 489.5 C 641.17 514.67 641 536 641.5 555.5 C 642 575 631.67 602.83 639.5 606.5 C 647.33 610.17 672 588.33 688.5 577.5 C 705 566.67 725.67 551.33 738.5 541.5 C 751.33 531.67 754 530 765.5 518.5 C 777 507 796.83 485.83 807.5 472.5 C 818.17 459.17 822 452.83 829.5 438.5 C 837 424.17 847.17 401.5 852.5 386.5 C 857.83 371.5 859.67 365.17 861.5 348.5 C 863.33 331.83 864.33 304.17 863.5 286.5 C 862.67 268.83 860.5 256.83 856.5 242.5 C 852.5 228.17 845.5 212.33 839.5 200.5 C 833.5 188.67 830.67 184.33 820.5 171.5 C 810.33 158.67 788.33 134 778.5 123.5 C 768.67 113 772 115.5 761.5 108.5 C 751 101.5 730.83 89.83 715.5 81.5 C 700.17 73.17 683.67 64.67 669.5 58.5 C 655.33 52.33 637.17 46.17 630.5 44.5 Z"/>
    <path fill="#6ab12d" stroke="#6ab12d" d="M 465.5 141.5 C 460.67 140.67 485.83 178.33 492.5 194.5 C 499.17 210.67 502.5 224.17 505.5 238.5 C 508.5 252.83 510.17 262.17 510.5 280.5 C 510.83 298.83 509.5 329.5 507.5 348.5 C 505.5 367.5 511.5 365 498.5 394.5 C 485.5 424 441.33 503.33 429.5 525.5 C 417.67 547.67 428.83 528.83 427.5 527.5 C 426.17 526.17 423.17 519.17 421.5 517.5 C 419.83 515.83 416.33 514.5 417.5 517.5 C 418.67 520.5 426.17 532.5 428.5 535.5 C 430.83 538.5 427 543.17 431.5 535.5 C 436 527.83 449.5 498.83 455.5 489.5 C 461.5 480.17 458.33 485.17 467.5 479.5 C 476.67 473.83 486.33 467 510.5 455.5 C 534.67 444 592.17 407.17 612.5 410.5 C 632.83 413.83 628 453 632.5 475.5 C 637 498 638.83 523.67 639.5 545.5 C 640.17 567.33 646 592 636.5 606.5 C 627 621 597.83 624.17 582.5 632.5 C 567.17 640.83 557.17 647.17 544.5 656.5 C 531.83 665.83 516.83 678 506.5 688.5 C 496.17 699 487.83 708.33 482.5 719.5 C 477.17 730.67 475.67 744.33 474.5 755.5 C 473.33 766.67 472.17 763.67 475.5 786.5 C 478.83 809.33 492.67 877 494.5 892.5 C 496.33 908 488.33 881.17 486.5 879.5 C 484.67 877.83 482.5 878 483.5 882.5 C 484.5 887 490.33 902.33 492.5 906.5 C 494.67 910.67 485.17 923 496.5 907.5 C 507.83 892 543.67 840.33 560.5 813.5 C 577.33 786.67 587.67 767.67 597.5 746.5 C 607.33 725.33 613.67 704.5 619.5 686.5 C 625.33 668.5 628.83 654.5 632.5 638.5 C 636.17 622.5 639.83 604.67 641.5 590.5 C 643.17 576.33 643.17 570.67 642.5 553.5 C 641.83 536.33 640 505.83 637.5 487.5 C 635 469.17 633.17 462.5 627.5 443.5 C 621.83 424.5 613.5 399.5 603.5 373.5 C 593.5 347.5 581.17 316.5 567.5 287.5 C 553.83 258.5 538.5 223.83 521.5 199.5 C 504.5 175.17 470.33 142.33 465.5 141.5 Z"/>
    <path fill="#009f3a" stroke="#009f3a" d="M 474.5 771.5 C 471.33 765.67 476.17 840.17 478.5 861.5 C 480.83 882.83 485.83 891.83 488.5 899.5 C 491.17 907.17 494.5 908.83 494.5 907.5 C 494.5 906.17 488.5 892.83 488.5 891.5 C 488.5 890.17 493 898.67 494.5 899.5 C 496 900.33 500.83 917.83 497.5 896.5 C 494.17 875.17 477.67 777.33 474.5 771.5 Z M 613.5 408.5 C 593.83 410 533.17 442.83 508.5 454.5 C 483.83 466.17 474.5 473 465.5 478.5 C 456.5 484 460.17 478.5 454.5 487.5 C 448.83 496.5 436.33 525.5 431.5 532.5 C 426.67 539.5 423 522.5 425.5 529.5 C 428 536.5 441 559.67 446.5 574.5 C 452 589.33 455 601.83 458.5 618.5 C 462 635.17 465 649.5 467.5 674.5 C 470 699.5 470.83 760.67 473.5 768.5 C 476.17 776.33 481 731 483.5 721.5 C 486 712 484.17 717 488.5 711.5 C 492.83 706 497.17 699.33 509.5 688.5 C 521.83 677.67 541.17 659.83 562.5 646.5 C 583.83 633.17 624.5 625.67 637.5 608.5 C 650.5 591.33 640.67 562.83 640.5 543.5 C 640.33 524.17 638.83 508.83 636.5 492.5 C 634.17 476.17 630.33 459.5 626.5 445.5 C 622.67 431.5 633.17 407 613.5 408.5 Z"/>
    <path fill="#007a39" stroke="#007a39" d="M 428.5 540.5 C 423.67 549.83 411.67 591.83 407.5 606.5 C 403.33 621.17 404.17 619 403.5 628.5 C 402.83 638 400.83 646.67 403.5 663.5 C 406.17 680.33 410.83 704 419.5 729.5 C 428.17 755 445.67 794.67 455.5 816.5 C 465.33 838.33 475.83 875.83 478.5 860.5 C 481.17 845.17 474.17 761.17 471.5 724.5 C 468.83 687.83 466.33 664.5 462.5 640.5 C 458.67 616.5 452.83 595.5 448.5 580.5 C 444.17 565.5 439.83 557.17 436.5 550.5 C 433.17 543.83 433.33 531.17 428.5 540.5 Z"/>
    <path fill="#007d38" stroke="#007d38" d="M 115.5 699.5 C 115.83 700.67 129.17 719.83 131.5 722.5 C 133.83 725.17 132.17 719.33 129.5 715.5 C 126.83 711.67 115.17 698.33 115.5 699.5 Z M 456.5 618.5 C 457 622.17 462 643 462.5 643.5 C 463 644 460.5 625.67 459.5 621.5 C 458.5 617.33 456 614.83 456.5 618.5 Z M 416.5 518.5 C 411.17 522 400.67 534.83 392.5 547.5 C 384.33 560.17 372.83 581.5 367.5 594.5 C 362.17 607.5 361.33 613 360.5 625.5 C 359.67 638 359.83 653.83 362.5 669.5 C 365.17 685.17 371.33 704.83 376.5 719.5 C 381.67 734.17 384.5 740.67 393.5 757.5 C 402.5 774.33 416.17 798.67 430.5 820.5 C 444.83 842.33 470.33 876.5 479.5 888.5 C 488.67 900.5 486 897.67 485.5 892.5 C 485 887.33 477.67 864 476.5 857.5 C 475.33 851 478.67 854.33 478.5 853.5 C 478.33 852.67 476 856.5 475.5 852.5 C 475 848.5 475.67 829.83 475.5 829.5 C 475.33 829.17 483.67 867.5 474.5 850.5 C 465.33 833.5 432.17 759 420.5 727.5 C 408.83 696 407.17 677.67 404.5 661.5 C 401.83 645.33 401.83 646.67 404.5 630.5 C 407.17 614.33 416.17 579 420.5 564.5 C 424.83 550 424.67 536.5 430.5 543.5 C 436.33 550.5 454 604.5 455.5 606.5 C 457 608.5 444.67 568.83 439.5 555.5 C 434.33 542.17 428.33 532.67 424.5 526.5 C 420.67 520.33 421.83 515 416.5 518.5 Z M 57.5 371.5 C 57 370.67 55.17 371.17 54.5 372.5 C 53.83 373.83 53 378.67 53.5 379.5 C 54 380.33 56.83 378.83 57.5 377.5 C 58.17 376.17 58 372.33 57.5 371.5 Z M 78.5 290.5 C 78 290.5 74.67 297.17 74.5 298.5 C 74.33 299.83 76.83 299.83 77.5 298.5 C 78.17 297.17 79 290.5 78.5 290.5 Z M 95.5 243.5 C 95 243.5 90.83 250.17 90.5 251.5 C 90.17 252.83 92.67 252.83 93.5 251.5 C 94.33 250.17 96 243.5 95.5 243.5 Z M 199.5 90.5 C 198.17 91.33 188.17 102.17 187.5 103.5 C 186.83 104.83 193.5 100.67 195.5 98.5 C 197.5 96.33 200.83 89.67 199.5 90.5 Z"/>
  </g>
</svg>
