<svg xmlns="http://www.w3.org/2000/svg" width="899" height="921" viewBox="0 0 899 921" role="img" aria-labelledby="title desc">
  <title id="title">Nur logo loop frame 083</title>
  <desc id="desc">Vector-traced frame from Nur_Logo_Loop_02.gif.</desc>
  <g id="frame-083" stroke-linejoin="round" stroke-linecap="round" stroke-width="0.5" shape-rendering="geometricPrecision">
    <path fill="#008136" stroke="#008136" d="M 188.5 49.5 C 181.67 56.67 165.67 77.67 149.5 102.5 C 133.33 127.33 104.17 175.83 91.5 198.5 C 78.83 221.17 80.17 220.33 73.5 238.5 C 66.83 256.67 56.83 284.17 51.5 307.5 C 46.17 330.83 43 360 41.5 378.5 C 40 397 42.83 411.67 42.5 418.5 C 42.17 425.33 40.17 411.33 39.5 419.5 C 38.83 427.67 38.5 458.33 38.5 467.5 C 38.5 476.67 38.83 473.17 39.5 474.5 C 40.17 475.83 42.33 473.5 42.5 475.5 C 42.67 477.5 39.17 475.67 40.5 486.5 C 41.83 497.33 45.33 519.17 50.5 540.5 C 55.67 561.83 63.83 593 71.5 614.5 C 79.17 636 85.17 649.17 96.5 669.5 C 107.83 689.83 124.17 716 139.5 736.5 C 154.83 757 171.67 776 188.5 792.5 C 205.33 809 222.67 823.17 240.5 835.5 C 258.33 847.83 273.83 856.83 295.5 866.5 C 317.17 876.17 345.83 886.67 370.5 893.5 C 395.17 900.33 422.83 905.17 443.5 907.5 C 464.17 909.83 487.33 910.5 494.5 907.5 C 501.67 904.5 489 897.5 486.5 889.5 C 484 881.5 482.67 897.17 479.5 859.5 C 476.33 821.83 471.33 706.33 467.5 663.5 C 463.67 620.67 459.83 617.67 456.5 602.5 C 453.17 587.33 452.33 584.67 447.5 572.5 C 442.67 560.33 435.17 543.5 427.5 529.5 C 419.83 515.5 426.5 514 401.5 488.5 C 376.5 463 303.83 402 277.5 376.5 C 251.17 351 254.83 351 243.5 335.5 C 232.17 320 217.67 300 209.5 283.5 C 201.33 267 197.5 244.5 194.5 236.5 C 191.5 228.5 194 247 191.5 235.5 C 189 224 180.33 191.17 179.5 167.5 C 178.67 143.83 185.67 106.83 186.5 93.5 C 187.33 80.17 184.33 88.67 184.5 87.5 C 184.67 86.33 186.5 91.17 187.5 86.5 C 188.5 81.83 190.33 65.67 190.5 59.5 C 190.67 53.33 195.33 42.33 188.5 49.5 Z"/>
    <path fill="#83bb26" stroke="#83bb26" d="M 434.5 510.5 C 433.67 509.33 424.17 516.83 422.5 519.5 C 420.83 522.17 423.67 525.33 424.5 526.5 C 425.33 527.67 425.83 529.17 427.5 526.5 C 429.17 523.83 435.33 511.67 434.5 510.5 Z M 694.5 24.5 C 685.17 18.5 687.5 23 691.5 27.5 C 695.5 32 711.33 44.17 718.5 51.5 C 725.67 58.83 724.67 55.83 734.5 71.5 C 744.33 87.17 768.17 125.5 777.5 145.5 C 786.83 165.5 788.33 178 790.5 191.5 C 792.67 205 792.33 213.17 790.5 226.5 C 788.67 239.83 783.5 260 779.5 271.5 C 775.5 283 771.83 287.5 766.5 295.5 C 761.17 303.5 760.33 307 747.5 319.5 C 734.67 332 709.83 355.5 689.5 370.5 C 669.17 385.5 633.33 390 625.5 409.5 C 617.67 429 639.17 459.17 642.5 487.5 C 645.83 515.83 645.83 557.83 645.5 579.5 C 645.17 601.17 635 614.5 640.5 617.5 C 646 620.5 665 605.67 678.5 597.5 C 692 589.33 706.67 579.5 721.5 568.5 C 736.33 557.5 753.67 543.83 767.5 531.5 C 781.33 519.17 793.83 507 804.5 494.5 C 815.17 482 823.5 469.33 831.5 456.5 C 839.5 443.67 846.33 431.33 852.5 417.5 C 858.67 403.67 864.67 387.5 868.5 373.5 C 872.33 359.5 874.33 349.5 875.5 333.5 C 876.67 317.5 876.33 292 875.5 277.5 C 874.67 263 873 256.67 870.5 246.5 C 868 236.33 865.33 228 860.5 216.5 C 855.67 205 854.17 197.5 841.5 177.5 C 828.83 157.5 800.17 115.5 784.5 96.5 C 768.83 77.5 762.5 75.5 747.5 63.5 C 732.5 51.5 703.83 30.5 694.5 24.5 Z"/>
    <path fill="#6ab12d" stroke="#6ab12d" d="M 497.5 131.5 C 490 119.67 492.33 122 495.5 135.5 C 498.67 149 511.83 191.33 516.5 212.5 C 521.17 233.67 522.33 246.17 523.5 262.5 C 524.67 278.83 524.17 297.67 523.5 310.5 C 522.83 323.33 521.67 328.5 519.5 339.5 C 517.33 350.5 514 365.33 510.5 376.5 C 507 387.67 512.67 381.83 498.5 406.5 C 484.33 431.17 438.33 505.5 425.5 524.5 C 412.67 543.5 422.17 520.67 421.5 520.5 C 420.83 520.33 420.5 522 421.5 523.5 C 422.5 525 425.17 531.33 427.5 529.5 C 429.83 527.67 433 516.5 435.5 512.5 C 438 508.5 433.5 511.67 442.5 505.5 C 451.5 499.33 459.33 490.83 489.5 475.5 C 519.67 460.17 598.5 413.17 623.5 413.5 C 648.5 413.83 636 451.5 639.5 477.5 C 643 503.5 645 545.83 644.5 569.5 C 644 593.17 648 606.33 636.5 619.5 C 625 632.67 593 639.17 575.5 648.5 C 558 657.83 545.83 665 531.5 675.5 C 517.17 686 498 702.83 489.5 711.5 C 481 720.17 483.17 720.83 480.5 727.5 C 477.83 734.17 474.33 738.33 473.5 751.5 C 472.67 764.67 472.17 780.33 475.5 806.5 C 478.83 832.67 490 891.5 493.5 908.5 C 497 925.5 488.67 919.17 496.5 908.5 C 504.33 897.83 524.17 870.33 540.5 844.5 C 556.83 818.67 579.83 783.5 594.5 753.5 C 609.17 723.5 620.67 687 628.5 664.5 C 636.33 642 638.5 632.33 641.5 618.5 C 644.5 604.67 646.17 603.67 646.5 581.5 C 646.83 559.33 646.33 512.67 643.5 485.5 C 640.67 458.33 640.67 452.67 629.5 418.5 C 618.33 384.33 591.33 315.83 576.5 280.5 C 561.67 245.17 553.67 231.33 540.5 206.5 C 527.33 181.67 505 143.33 497.5 131.5 Z"/>
    <path fill="#009f3a" stroke="#009f3a" d="M 475.5 805.5 C 472.83 798 476.5 846.17 478.5 861.5 C 480.5 876.83 484.83 890 487.5 897.5 C 490.17 905 496.5 921.83 494.5 906.5 C 492.5 891.17 478.17 813 475.5 805.5 Z M 625.5 412.5 C 599.67 409.83 518.33 459.17 487.5 474.5 C 456.67 489.83 450.83 495.67 440.5 504.5 C 430.17 513.33 428.83 524.83 425.5 527.5 C 422.17 530.17 417 512.67 420.5 520.5 C 424 528.33 439.83 556.5 446.5 574.5 C 453.17 592.5 456.33 604.5 460.5 628.5 C 464.67 652.5 469.17 689.33 471.5 718.5 C 473.83 747.67 473.83 798.83 474.5 803.5 C 475.17 808.17 472.83 761.5 475.5 746.5 C 478.17 731.5 484.33 722.5 490.5 713.5 C 496.67 704.5 502.83 700.33 512.5 692.5 C 522.17 684.67 527.33 678.67 548.5 666.5 C 569.67 654.33 623.33 635.33 639.5 619.5 C 655.67 603.67 645 593 645.5 571.5 C 646 550 645.83 517 642.5 490.5 C 639.17 464 651.33 415.17 625.5 412.5 Z"/>
    <path fill="#007a39" stroke="#007a39" d="M 424.5 532.5 C 420.17 534.5 415.17 549.83 410.5 562.5 C 405.83 575.17 399.5 596.83 396.5 608.5 C 393.5 620.17 393.17 623.33 392.5 632.5 C 391.83 641.67 390.67 650.83 392.5 663.5 C 394.33 676.17 399 693.83 403.5 708.5 C 408 723.17 407 723.5 419.5 751.5 C 432 779.5 468.17 855.5 478.5 876.5 C 488.83 897.5 482 883.17 481.5 877.5 C 481 871.83 476.5 853.67 475.5 842.5 C 474.5 831.33 476.17 819.17 475.5 810.5 C 474.83 801.83 472.17 804.83 471.5 790.5 C 470.83 776.17 473 749.5 471.5 724.5 C 470 699.5 466.33 664.5 462.5 640.5 C 458.67 616.5 452.83 595.5 448.5 580.5 C 444.17 565.5 440.5 558.5 436.5 550.5 C 432.5 542.5 428.83 530.5 424.5 532.5 Z"/>
    <path fill="#007d38" stroke="#007d38" d="M 472.5 799.5 C 472.5 803.5 475 826.83 475.5 827.5 C 476 828.17 476 808.17 475.5 803.5 C 475 798.83 472.5 795.5 472.5 799.5 Z M 115.5 699.5 C 115.83 700.67 129.17 719.83 131.5 722.5 C 133.83 725.17 132.17 719.33 129.5 715.5 C 126.83 711.67 115.17 698.33 115.5 699.5 Z M 456.5 618.5 C 457 622.17 462 643 462.5 643.5 C 463 644 460.5 625.67 459.5 621.5 C 458.5 617.33 456 614.83 456.5 618.5 Z M 46.5 520.5 C 46.67 522 50.83 531.17 51.5 531.5 C 52.17 531.83 51.33 524.33 50.5 522.5 C 49.67 520.67 46.33 519 46.5 520.5 Z M 413.5 510.5 C 413.17 510.5 418.83 517 419.5 519.5 C 420.17 522 422.67 519.17 417.5 525.5 C 412.33 531.83 396.5 546.67 388.5 557.5 C 380.5 568.33 374.5 577.17 369.5 590.5 C 364.5 603.83 360 624.33 358.5 637.5 C 357 650.67 357.83 655.5 360.5 669.5 C 363.17 683.5 366.5 701 374.5 721.5 C 382.5 742 395.67 770 408.5 792.5 C 421.33 815 437.5 837.33 451.5 856.5 C 465.5 875.67 487.17 902.33 492.5 907.5 C 497.83 912.67 485.33 893.5 483.5 887.5 C 481.67 881.5 482.33 874.33 481.5 871.5 C 480.67 868.67 478.83 872.17 478.5 870.5 C 478.17 868.83 479.83 862.5 479.5 861.5 C 479.17 860.5 486.33 883.17 476.5 864.5 C 466.67 845.83 432.5 775.83 420.5 749.5 C 408.5 723.17 409 721.17 404.5 706.5 C 400 691.83 394.67 677.5 393.5 661.5 C 392.33 645.5 394.5 626.67 397.5 610.5 C 400.5 594.33 406.83 577.17 411.5 564.5 C 416.17 551.83 420.5 534.17 425.5 534.5 C 430.5 534.83 436.5 554.5 441.5 566.5 C 446.5 578.5 455.83 608.33 455.5 606.5 C 455.17 604.67 445.17 570 439.5 555.5 C 433.83 541 425.83 527 421.5 519.5 C 417.17 512 413.83 510.5 413.5 510.5 Z M 43.5 472.5 C 43 472.67 40.5 480.17 40.5 481.5 C 40.5 482.83 43 482 43.5 480.5 C 44 479 44 472.33 43.5 472.5 Z M 377.5 467.5 C 376.83 467.5 381 473.33 382.5 474.5 C 384 475.67 387.33 475.67 386.5 474.5 C 385.67 473.33 378.17 467.5 377.5 467.5 Z M 339.5 434.5 C 339 434.67 341.5 438.83 342.5 439.5 C 343.5 440.17 346 439.33 345.5 438.5 C 345 437.67 340 434.33 339.5 434.5 Z M 40.5 403.5 C 40.33 406.5 42 422.33 42.5 422.5 C 43 422.67 43.83 407.67 43.5 404.5 C 43.17 401.33 40.67 400.5 40.5 403.5 Z M 204.5 274.5 C 204.33 275.83 206.67 282.5 208.5 285.5 C 210.33 288.5 215.33 293.83 215.5 292.5 C 215.67 291.17 211.33 280.5 209.5 277.5 C 207.67 274.5 204.67 273.17 204.5 274.5 Z"/>
  </g>
</svg>
