<svg xmlns="http://www.w3.org/2000/svg" width="899" height="921" viewBox="0 0 899 921" role="img" aria-labelledby="title desc">
  <title id="title">Nur logo loop frame 079</title>
  <desc id="desc">Vector-traced frame from Nur_Logo_Loop_02.gif.</desc>
  <g id="frame-079" stroke-linejoin="round" stroke-linecap="round" stroke-width="0.5" shape-rendering="geometricPrecision">
    <path fill="#008136" stroke="#008136" d="M 181.5 49.5 C 173 60.17 149.33 90.5 133.5 114.5 C 117.67 138.5 98 171.67 86.5 193.5 C 75 215.33 71.5 225.5 64.5 245.5 C 57.5 265.5 48.5 297.67 44.5 313.5 C 40.5 329.33 40.83 334 40.5 340.5 C 40.17 347 42.67 350.33 42.5 352.5 C 42.33 354.67 39.83 350.67 39.5 353.5 C 39.17 356.33 40.83 366.5 40.5 369.5 C 40.17 372.5 38.5 356.17 37.5 371.5 C 36.5 386.83 33.33 436.17 34.5 461.5 C 35.67 486.83 37.67 496.17 44.5 523.5 C 51.33 550.83 65.33 598.5 75.5 625.5 C 85.67 652.5 94.83 667 105.5 685.5 C 116.17 704 125.67 718.67 139.5 736.5 C 153.33 754.33 171.67 776 188.5 792.5 C 205.33 809 222.67 823.17 240.5 835.5 C 258.33 847.83 273.83 856.83 295.5 866.5 C 317.17 876.17 345.83 886.67 370.5 893.5 C 395.17 900.33 423 905.17 443.5 907.5 C 464 909.83 486.67 911.5 493.5 907.5 C 500.33 903.5 487.17 894.17 484.5 883.5 C 481.83 872.83 479.17 867 477.5 843.5 C 475.83 820 476.17 772.5 474.5 742.5 C 472.83 712.5 470.5 686.83 467.5 663.5 C 464.5 640.17 459.83 617.67 456.5 602.5 C 453.17 587.33 452.33 584.67 447.5 572.5 C 442.67 560.33 435.33 543.67 427.5 529.5 C 419.67 515.33 411 500.17 400.5 487.5 C 390 474.83 378.33 465.33 364.5 453.5 C 350.67 441.67 333.5 430.5 317.5 416.5 C 301.5 402.5 286.33 390.67 268.5 369.5 C 250.67 348.33 224.17 312.67 210.5 289.5 C 196.83 266.33 192.17 249.33 186.5 230.5 C 180.83 211.67 178.33 194.67 176.5 176.5 C 174.67 158.33 175.17 131.33 175.5 121.5 C 175.83 111.67 177 129.33 178.5 117.5 C 180 105.67 184 61.83 184.5 50.5 C 185 39.17 190 38.83 181.5 49.5 Z"/>
    <path fill="#83bb26" stroke="#83bb26" d="M 429.5 518.5 C 429.33 517.83 424.33 521.17 423.5 522.5 C 422.67 523.83 423.5 527.17 424.5 526.5 C 425.5 525.83 429.67 519.17 429.5 518.5 Z M 712.5 19.5 C 706 15.17 706.33 18.33 709.5 22.5 C 712.67 26.67 725.17 37 731.5 44.5 C 737.83 52 739.17 53.17 747.5 67.5 C 755.83 81.83 773.67 112.83 781.5 130.5 C 789.33 148.17 792.17 158.33 794.5 173.5 C 796.83 188.67 797.5 204.67 795.5 221.5 C 793.5 238.33 787.17 261.33 782.5 274.5 C 777.83 287.67 772.83 292.67 767.5 300.5 C 762.17 308.33 762.67 309.67 750.5 321.5 C 738.33 333.33 715 356.33 694.5 371.5 C 674 386.67 636.17 394.17 627.5 412.5 C 618.83 430.83 639.5 463.33 642.5 481.5 C 645.5 499.67 645 506.5 645.5 521.5 C 646 536.5 646.67 554.67 645.5 571.5 C 644.33 588.33 634.67 616.5 638.5 622.5 C 642.33 628.5 654.83 615.67 668.5 607.5 C 682.17 599.33 703.83 585.5 720.5 573.5 C 737.17 561.5 754.67 547.5 768.5 535.5 C 782.33 523.5 792.67 514 803.5 501.5 C 814.33 489 824.5 474.83 833.5 460.5 C 842.5 446.17 851.33 428.83 857.5 415.5 C 863.67 402.17 867 392.67 870.5 380.5 C 874 368.33 877 359.17 878.5 342.5 C 880 325.83 880 295.5 879.5 280.5 C 879 265.5 877.67 262.33 875.5 252.5 C 873.33 242.67 871.83 235 866.5 221.5 C 861.17 208 856 193.33 843.5 171.5 C 831 149.67 807.33 111 791.5 90.5 C 775.67 70 761.67 60.33 748.5 48.5 C 735.33 36.67 719 23.83 712.5 19.5 Z"/>
    <path fill="#6ab12d" stroke="#6ab12d" d="M 504.5 129.5 C 498.17 119.33 500 122.33 502.5 134.5 C 505 146.67 515.33 181.5 519.5 202.5 C 523.67 223.5 526 244.67 527.5 260.5 C 529 276.33 529.17 284.33 528.5 297.5 C 527.83 310.67 527.67 321.83 523.5 339.5 C 519.33 357.17 517.33 377.17 503.5 403.5 C 489.67 429.83 453.33 477.5 440.5 497.5 C 427.67 517.5 429.5 519.33 426.5 523.5 C 423.5 527.67 423.17 522.17 422.5 522.5 C 421.83 522.83 421.67 524.5 422.5 525.5 C 423.33 526.5 425.17 530.5 427.5 528.5 C 429.83 526.5 426.33 521.67 436.5 513.5 C 446.67 505.33 457 495.67 488.5 479.5 C 520 463.33 601.5 423.5 625.5 416.5 C 649.5 409.5 629.83 425.67 632.5 437.5 C 635.17 449.33 639.5 467.5 641.5 487.5 C 643.5 507.5 645.33 535.17 644.5 557.5 C 643.67 579.83 655.17 601.5 636.5 621.5 C 617.83 641.5 554.5 664.67 532.5 677.5 C 510.5 690.33 511.33 692.83 504.5 698.5 C 497.67 704.17 495.33 706.5 491.5 711.5 C 487.67 716.5 484.33 722.5 481.5 728.5 C 478.67 734.5 475.5 735 474.5 747.5 C 473.5 760 472.33 776.83 475.5 803.5 C 478.67 830.17 489 891.5 493.5 907.5 C 498 923.5 494.67 910 502.5 899.5 C 510.33 889 525.17 868.83 540.5 844.5 C 555.83 820.17 579.83 783.5 594.5 753.5 C 609.17 723.5 620.67 687.83 628.5 664.5 C 636.33 641.17 638.5 628.67 641.5 613.5 C 644.5 598.33 646.17 595.83 646.5 573.5 C 646.83 551.17 647.67 510.33 643.5 479.5 C 639.33 448.67 631.83 421.5 621.5 388.5 C 611.17 355.5 595 313.67 581.5 281.5 C 568 249.33 553.33 220.83 540.5 195.5 C 527.67 170.17 510.83 139.67 504.5 129.5 Z"/>
    <path fill="#009f3a" stroke="#009f3a" d="M 475.5 802.5 C 472.83 794.83 476.83 846.67 478.5 861.5 C 480.17 876.33 482.83 883.83 485.5 891.5 C 488.17 899.17 496.17 922.33 494.5 907.5 C 492.83 892.67 478.17 810.17 475.5 802.5 Z M 627.5 414.5 C 602.17 417.67 518.67 462.17 486.5 478.5 C 454.33 494.83 444.67 504.33 434.5 512.5 C 424.33 520.67 427.5 525.5 425.5 527.5 C 423.5 529.5 419 516.67 422.5 524.5 C 426 532.33 440.17 557.17 446.5 574.5 C 452.83 591.83 456.33 604.5 460.5 628.5 C 464.67 652.5 469.17 690.33 471.5 718.5 C 473.83 746.67 473.83 792.33 474.5 797.5 C 475.17 802.67 472.5 763.5 475.5 749.5 C 478.5 735.5 481.17 726.33 492.5 713.5 C 503.83 700.67 519.17 687.83 543.5 672.5 C 567.83 657.17 621.67 637.33 638.5 621.5 C 655.33 605.67 643.5 595.33 644.5 577.5 C 645.5 559.67 645.5 534.17 644.5 514.5 C 643.5 494.83 641.33 476.17 638.5 459.5 C 635.67 442.83 652.83 411.33 627.5 414.5 Z"/>
    <path fill="#007a39" stroke="#007a39" d="M 424.5 532.5 C 418.5 539.5 405.83 574.67 400.5 592.5 C 395.17 610.33 393.5 626.67 392.5 639.5 C 391.5 652.33 393 659.5 394.5 669.5 C 396 679.5 396.83 685 401.5 699.5 C 406.17 714 409.17 727 422.5 756.5 C 435.83 786 472.67 862.17 481.5 876.5 C 490.33 890.83 477.17 867.83 475.5 842.5 C 473.83 817.17 473.67 758.17 471.5 724.5 C 469.33 690.83 466.33 664.5 462.5 640.5 C 458.67 616.5 452.83 595.5 448.5 580.5 C 444.17 565.5 440.5 558.5 436.5 550.5 C 432.5 542.5 430.5 525.5 424.5 532.5 Z M 315.5 414.5 C 314.67 414.33 318.83 421 320.5 422.5 C 322.17 424 326.33 424.83 325.5 423.5 C 324.67 422.17 316.33 414.67 315.5 414.5 Z"/>
    <path fill="#007d38" stroke="#007d38" d="M 472.5 794.5 C 472.5 798.67 475 823.67 475.5 824.5 C 476 825.33 476 804.5 475.5 799.5 C 475 794.5 472.5 790.33 472.5 794.5 Z M 470.5 777.5 C 470 777 470 787 470.5 789.5 C 471 792 473.5 794.5 473.5 792.5 C 473.5 790.5 471 778 470.5 777.5 Z M 115.5 699.5 C 115.83 700.67 129.17 719.83 131.5 722.5 C 133.83 725.17 132.17 719.33 129.5 715.5 C 126.83 711.67 115.17 698.33 115.5 699.5 Z M 46.5 529.5 C 46.67 530.67 50.83 538.17 51.5 538.5 C 52.17 538.83 51.33 533 50.5 531.5 C 49.67 530 46.33 528.33 46.5 529.5 Z M 420.5 524.5 C 411.83 525.67 396.33 549.5 387.5 562.5 C 378.67 575.5 371.83 589.33 367.5 602.5 C 363.17 615.67 362.17 629.17 361.5 641.5 C 360.83 653.83 360.5 661.67 363.5 676.5 C 366.5 691.33 372.17 711.83 379.5 730.5 C 386.83 749.17 389.33 759.5 407.5 788.5 C 425.67 817.5 474.5 885.17 488.5 904.5 C 502.5 923.83 492.33 907.67 491.5 904.5 C 490.67 901.33 485.5 892.67 483.5 885.5 C 481.5 878.33 480.83 865.17 479.5 861.5 C 478.17 857.83 484.83 881.33 475.5 863.5 C 466.17 845.67 435.67 782.17 423.5 754.5 C 411.33 726.83 407.17 712 402.5 697.5 C 397.83 683 397 676.83 395.5 667.5 C 394 658.17 392.5 653.67 393.5 641.5 C 394.5 629.33 396.17 612.33 401.5 594.5 C 406.83 576.67 417.67 536.67 425.5 534.5 C 433.33 532.33 446.17 578 448.5 581.5 C 450.83 585 444.17 565 439.5 555.5 C 434.83 546 429.17 523.33 420.5 524.5 Z M 413.5 510.5 C 413.33 511 419.17 521 420.5 522.5 C 421.83 524 422.67 521.5 421.5 519.5 C 420.33 517.5 413.67 510 413.5 510.5 Z M 40.5 346.5 C 40.33 348 42 356.33 42.5 356.5 C 43 356.67 43.83 349.17 43.5 347.5 C 43.17 345.83 40.67 345 40.5 346.5 Z M 209.5 289.5 C 208.83 289.33 209.67 294.33 210.5 295.5 C 211.33 296.67 214.67 297.5 214.5 296.5 C 214.33 295.5 210.17 289.67 209.5 289.5 Z M 68.5 244.5 C 68.17 243.67 65.5 245 64.5 246.5 C 63.5 248 62.17 252.67 62.5 253.5 C 62.83 254.33 65.5 253 66.5 251.5 C 67.5 250 68.83 245.33 68.5 244.5 Z M 147.5 96.5 C 146.5 97.33 141.5 104.83 141.5 105.5 C 141.5 106.17 146.5 102 147.5 100.5 C 148.5 99 148.5 95.67 147.5 96.5 Z M 169.5 66.5 C 168.33 67.33 158.33 79.83 157.5 81.5 C 156.67 83.17 162.5 79 164.5 76.5 C 166.5 74 170.67 65.67 169.5 66.5 Z"/>
  </g>
</svg>
