<svg xmlns="http://www.w3.org/2000/svg" width="899" height="921" viewBox="0 0 899 921" role="img" aria-labelledby="title desc">
  <title id="title">Nur logo loop frame 072</title>
  <desc id="desc">Vector-traced frame from Nur_Logo_Loop_02.gif.</desc>
  <g id="frame-072" stroke-linejoin="round" stroke-linecap="round" stroke-width="0.5" shape-rendering="geometricPrecision">
    <path fill="#008136" stroke="#008136" d="M 181.5 50.5 C 172.33 60.17 144.67 91.5 128.5 114.5 C 112.33 137.5 95.17 168.67 84.5 188.5 C 73.83 208.33 71.67 213.5 64.5 233.5 C 57.33 253.5 45.17 294 41.5 308.5 C 37.83 323 42.83 318.33 42.5 320.5 C 42.17 322.67 40.83 313.5 39.5 321.5 C 38.17 329.5 35.67 343 34.5 368.5 C 33.33 394 30.83 447.33 32.5 474.5 C 34.17 501.67 37.33 506.33 44.5 531.5 C 51.67 556.67 65.33 599.83 75.5 625.5 C 85.67 651.17 94.83 667 105.5 685.5 C 116.17 704 125.67 718.67 139.5 736.5 C 153.33 754.33 171.67 776 188.5 792.5 C 205.33 809 222.67 823.17 240.5 835.5 C 258.33 847.83 273.83 856.83 295.5 866.5 C 317.17 876.17 345.83 886.67 370.5 893.5 C 395.17 900.33 423 905.17 443.5 907.5 C 464 909.83 486.67 911.5 493.5 907.5 C 500.33 903.5 487.17 894.17 484.5 883.5 C 481.83 872.83 479 864 477.5 843.5 C 476 823 477.17 790.5 475.5 760.5 C 473.83 730.5 470.67 689.83 467.5 663.5 C 464.33 637.17 459.83 617.67 456.5 602.5 C 453.17 587.33 452.33 584.67 447.5 572.5 C 442.67 560.33 435.33 543.67 427.5 529.5 C 419.67 515.33 425.5 512.67 400.5 487.5 C 375.5 462.33 309.67 410.67 277.5 378.5 C 245.33 346.33 223.33 318.17 207.5 294.5 C 191.67 270.83 188 252 182.5 236.5 C 177 221 176.83 215.83 174.5 201.5 C 172.17 187.17 168 168.33 168.5 150.5 C 169 132.67 176.33 104.5 177.5 94.5 C 178.67 84.5 175.33 91.67 175.5 90.5 C 175.67 89.33 177.17 93.17 178.5 87.5 C 179.83 81.83 183 62.67 183.5 56.5 C 184 50.33 190.67 40.83 181.5 50.5 Z"/>
    <path fill="#83bb26" stroke="#83bb26" d="M 734.5 14.5 C 728.17 8.83 731 13.67 730.5 14.5 C 730 15.33 727.67 13 731.5 19.5 C 735.33 26 743.33 33.83 753.5 53.5 C 763.67 73.17 784.83 116.33 792.5 137.5 C 800.17 158.67 799 163.33 799.5 180.5 C 800 197.67 797 226.83 795.5 240.5 C 794 254.17 793.17 254.5 790.5 262.5 C 787.83 270.5 787.67 276 779.5 288.5 C 771.33 301 755.83 322.5 741.5 337.5 C 727.17 352.5 711.67 365.5 693.5 378.5 C 675.33 391.5 640.83 400.5 632.5 415.5 C 624.17 430.5 641 453.33 643.5 468.5 C 646 483.67 647 491.33 647.5 506.5 C 648 521.67 648.33 539.33 646.5 559.5 C 644.67 579.67 630.17 620.5 636.5 627.5 C 642.83 634.5 668.33 611.33 684.5 601.5 C 700.67 591.67 718.17 579.67 733.5 568.5 C 748.83 557.33 763.83 545.5 776.5 534.5 C 789.17 523.5 799.83 513.5 809.5 502.5 C 819.17 491.5 826.17 481.83 834.5 468.5 C 842.83 455.17 853 436.33 859.5 422.5 C 866 408.67 869.67 398.33 873.5 385.5 C 877.33 372.67 880.67 361.17 882.5 345.5 C 884.33 329.83 884.83 305.67 884.5 291.5 C 884.17 277.33 883.17 272.67 880.5 260.5 C 877.83 248.33 877.33 240.33 868.5 218.5 C 859.67 196.67 838.33 150.83 827.5 129.5 C 816.67 108.17 813.33 104 803.5 90.5 C 793.67 77 780 61.17 768.5 48.5 C 757 35.83 740.83 20.17 734.5 14.5 Z"/>
    <path fill="#6ab12d" stroke="#6ab12d" d="M 511.5 128.5 C 499.17 104.83 507.5 122.5 509.5 133.5 C 511.5 144.5 519.67 172.33 523.5 194.5 C 527.33 216.67 531 248.67 532.5 266.5 C 534 284.33 533.67 287.83 532.5 301.5 C 531.33 315.17 530 330.83 525.5 348.5 C 521 366.17 512 392.67 505.5 407.5 C 499 422.33 496.67 423.5 486.5 437.5 C 476.33 451.5 454.83 476.33 444.5 491.5 C 434.17 506.67 427 522 424.5 528.5 C 422 535 427.33 532.5 429.5 530.5 C 431.67 528.5 427.33 524.5 437.5 516.5 C 447.67 508.5 459 498.5 490.5 482.5 C 522 466.5 601.33 419.67 626.5 420.5 C 651.67 421.33 638.67 465.17 641.5 487.5 C 644.33 509.83 644.83 531.5 643.5 554.5 C 642.17 577.5 646.5 608 633.5 625.5 C 620.5 643 584.67 649 565.5 659.5 C 546.33 670 530.5 680.17 518.5 688.5 C 506.5 696.83 499.5 702.83 493.5 709.5 C 487.5 716.17 485.67 721.33 482.5 728.5 C 479.33 735.67 475.67 741.5 474.5 752.5 C 473.33 763.5 472.17 769.83 475.5 794.5 C 478.83 819.17 491.83 882.67 494.5 900.5 C 497.17 918.33 491.67 900.33 491.5 901.5 C 491.33 902.67 492.67 906.5 493.5 907.5 C 494.33 908.5 485.33 923.17 496.5 907.5 C 507.67 891.83 543.33 841 560.5 813.5 C 577.67 786 587.5 769.67 599.5 742.5 C 611.5 715.33 625.33 673.83 632.5 650.5 C 639.67 627.17 639.83 619.67 642.5 602.5 C 645.17 585.33 647.83 567.83 648.5 547.5 C 649.17 527.17 650.17 506.5 646.5 480.5 C 642.83 454.5 637 425.67 626.5 391.5 C 616 357.33 602.67 319.33 583.5 275.5 C 564.33 231.67 523.83 152.17 511.5 128.5 Z"/>
    <path fill="#009f3a" stroke="#009f3a" d="M 474.5 792.5 C 474.67 803.83 476.67 845 478.5 861.5 C 480.33 878 482.83 883.83 485.5 891.5 C 488.17 899.17 492.67 906.33 494.5 907.5 C 496.33 908.67 499.33 917.5 496.5 898.5 C 493.67 879.5 481.17 811.17 477.5 793.5 C 473.83 775.83 474.33 781.17 474.5 792.5 Z M 628.5 419.5 C 603.67 423.83 520.67 465.5 488.5 481.5 C 456.33 497.5 445.67 507.5 435.5 515.5 C 425.33 523.5 429.5 527.83 427.5 529.5 C 425.5 531.17 420.33 518 423.5 525.5 C 426.67 533 440.67 559 446.5 574.5 C 452.33 590 455 601.83 458.5 618.5 C 462 635.17 465 650.67 467.5 674.5 C 470 698.33 470 753.83 473.5 761.5 C 477 769.17 482.5 731.17 488.5 720.5 C 494.5 709.83 497.83 706.67 509.5 697.5 C 521.17 688.33 537.67 677.17 558.5 665.5 C 579.33 653.83 620.17 645.67 634.5 627.5 C 648.83 609.33 642.83 576.67 644.5 556.5 C 646.17 536.33 645.67 523.33 644.5 506.5 C 643.33 489.67 640.17 470 637.5 455.5 C 634.83 441 653.33 415.17 628.5 419.5 Z"/>
    <path fill="#007a39" stroke="#007a39" d="M 424.5 531.5 C 419 538.83 408.17 577.5 403.5 594.5 C 398.83 611.5 397.67 621.33 396.5 633.5 C 395.33 645.67 395.33 656.17 396.5 667.5 C 397.67 678.83 399.67 688.17 403.5 701.5 C 407.33 714.83 406.67 718.67 419.5 747.5 C 432.33 776.33 471.17 858.67 480.5 874.5 C 489.83 890.33 477 867.5 475.5 842.5 C 474 817.5 473.67 758.17 471.5 724.5 C 469.33 690.83 466.33 664.5 462.5 640.5 C 458.67 616.5 452.83 595.5 448.5 580.5 C 444.17 565.5 440.5 558.67 436.5 550.5 C 432.5 542.33 430 524.17 424.5 531.5 Z M 315.5 414.5 C 314.67 414.33 318.83 421 320.5 422.5 C 322.17 424 326.33 424.83 325.5 423.5 C 324.67 422.17 316.33 414.67 315.5 414.5 Z M 205.5 289.5 C 203.5 287.17 206 295.5 208.5 299.5 C 211 303.5 221 315.17 220.5 313.5 C 220 311.83 207.5 291.83 205.5 289.5 Z"/>
    <path fill="#007d38" stroke="#007d38" d="M 473.5 829.5 C 473.67 832.5 477 850.83 477.5 851.5 C 478 852.17 477.17 837.17 476.5 833.5 C 475.83 829.83 473.33 826.5 473.5 829.5 Z M 115.5 699.5 C 115.83 700.67 129.17 719.83 131.5 722.5 C 133.83 725.17 132.17 719.33 129.5 715.5 C 126.83 711.67 115.17 698.33 115.5 699.5 Z M 456.5 618.5 C 457 622.17 462 643 462.5 643.5 C 463 644 460.5 625.67 459.5 621.5 C 458.5 617.33 456 614.83 456.5 618.5 Z M 413.5 510.5 C 413.33 511.33 427 517.67 422.5 527.5 C 418 537.33 395.67 554.5 386.5 569.5 C 377.33 584.5 371 603.67 367.5 617.5 C 364 631.33 365.17 641.17 365.5 652.5 C 365.83 663.83 367.67 675.33 369.5 685.5 C 371.33 695.67 371.17 698.83 376.5 713.5 C 381.83 728.17 391.67 754.33 401.5 773.5 C 411.33 792.67 421.17 808 435.5 828.5 C 449.83 849 480.17 891 487.5 896.5 C 494.83 902 481.67 867.33 479.5 861.5 C 477.33 855.67 484.33 880.83 474.5 861.5 C 464.67 842.17 432.17 772.5 420.5 745.5 C 408.83 718.5 408.33 712.83 404.5 699.5 C 400.67 686.17 398.67 676.17 397.5 665.5 C 396.33 654.83 396.33 647 397.5 635.5 C 398.67 624 401.83 608.17 404.5 596.5 C 407.17 584.83 409.83 575.5 413.5 565.5 C 417.17 555.5 421.83 536.33 426.5 536.5 C 431.17 536.67 436.67 554.83 441.5 566.5 C 446.33 578.17 455.83 608.33 455.5 606.5 C 455.17 604.67 444.83 569.5 439.5 555.5 C 434.17 541.5 427.83 530 423.5 522.5 C 419.17 515 413.67 509.67 413.5 510.5 Z M 40.5 507.5 C 40.67 510 44 523.33 44.5 523.5 C 45 523.67 44.17 511.17 43.5 508.5 C 42.83 505.83 40.33 505 40.5 507.5 Z M 222.5 315.5 C 221.33 314.67 221.33 318 222.5 319.5 C 223.67 321 229.5 325.17 229.5 324.5 C 229.5 323.83 223.67 316.33 222.5 315.5 Z M 200.5 281.5 C 199 279.67 201.5 288 203.5 291.5 C 205.5 295 213 304.17 212.5 302.5 C 212 300.83 202 283.33 200.5 281.5 Z M 180.5 231.5 C 179.83 231 180.67 236.83 181.5 238.5 C 182.33 240.17 185.67 242.67 185.5 241.5 C 185.33 240.33 181.17 232 180.5 231.5 Z"/>
  </g>
</svg>
