<svg xmlns="http://www.w3.org/2000/svg" width="899" height="921" viewBox="0 0 899 921" role="img" aria-labelledby="title desc">
  <title id="title">Nur logo loop frame 003</title>
  <desc id="desc">Vector-traced frame from Nur_Logo_Loop_02.gif.</desc>
  <g id="frame-003" stroke-linejoin="round" stroke-linecap="round" stroke-width="0.5" shape-rendering="geometricPrecision">
    <path fill="#008136" stroke="#008136" d="M 211.5 56.5 C 202.5 66.33 178.5 92.83 160.5 118.5 C 142.5 144.17 116 188.67 103.5 210.5 C 91 232.33 92 232.17 85.5 249.5 C 79 266.83 70.33 289.67 64.5 314.5 C 58.67 339.33 53.33 372 50.5 398.5 C 47.67 425 46.83 451.17 47.5 473.5 C 48.17 495.83 52.67 521.83 54.5 532.5 C 56.33 543.17 58 534.67 58.5 537.5 C 59 540.33 55.17 537.33 57.5 549.5 C 59.83 561.67 65.33 589.83 72.5 610.5 C 79.67 631.17 89 652.33 100.5 673.5 C 112 694.67 125.67 716.67 141.5 737.5 C 157.33 758.33 178.5 781.83 195.5 798.5 C 212.5 815.17 226.83 826.17 243.5 837.5 C 260.17 848.83 274.33 857.17 295.5 866.5 C 316.67 875.83 345.83 886.67 370.5 893.5 C 395.17 900.33 423 905.17 443.5 907.5 C 464 909.83 486.83 912.33 493.5 907.5 C 500.17 902.67 486.17 889.17 483.5 878.5 C 480.83 867.83 479 866 477.5 843.5 C 476 821 476.17 773.5 474.5 743.5 C 472.83 713.5 470.5 687 467.5 663.5 C 464.5 640 460.83 620.17 456.5 602.5 C 452.17 584.83 445.83 568.83 441.5 557.5 C 437.17 546.17 438 547 430.5 534.5 C 423 522 421 509.17 396.5 482.5 C 372 455.83 309 400.5 283.5 374.5 C 258 348.5 253.17 339 243.5 326.5 C 233.83 314 232.33 313 225.5 299.5 C 218.67 286 208 262.67 202.5 245.5 C 197 228.33 194.33 215.17 192.5 196.5 C 190.67 177.83 191.17 144.17 191.5 133.5 C 191.83 122.83 193 139.83 194.5 132.5 C 196 125.17 199 96.83 200.5 89.5 C 202 82.17 202 92.67 203.5 88.5 C 205 84.33 207.67 69.33 209.5 64.5 C 211.33 59.67 214.17 60.83 214.5 59.5 C 214.83 58.17 220.5 46.67 211.5 56.5 Z"/>
    <path fill="#83bb26" stroke="#83bb26" d="M 446.5 494.5 C 445.17 492 422.67 509.5 419.5 515.5 C 416.33 521.5 423 534 427.5 530.5 C 432 527 447.83 497 446.5 494.5 Z M 655.5 35.5 C 644.5 29.67 651.17 34.83 650.5 35.5 C 649.83 36.17 642.17 31.5 651.5 39.5 C 660.83 47.5 690.83 68 706.5 83.5 C 722.17 99 734.5 114.83 745.5 132.5 C 756.5 150.17 767.17 176 772.5 189.5 C 777.83 203 776.67 205.17 777.5 213.5 C 778.33 221.83 779.83 227.67 777.5 239.5 C 775.17 251.33 771 270.17 763.5 284.5 C 756 298.83 747.17 310.83 732.5 325.5 C 717.83 340.17 694.5 359 675.5 372.5 C 656.5 386 625.5 393 618.5 406.5 C 611.5 420 629.5 437.67 633.5 453.5 C 637.5 469.33 640.5 485.67 642.5 501.5 C 644.5 517.33 645.5 530.83 645.5 548.5 C 645.5 566.17 634.67 602.33 642.5 607.5 C 650.33 612.67 676.5 589.67 692.5 579.5 C 708.5 569.33 725.5 556.5 738.5 546.5 C 751.5 536.5 759.5 530 770.5 519.5 C 781.5 509 794.17 496.5 804.5 483.5 C 814.83 470.5 824.5 455.67 832.5 441.5 C 840.5 427.33 847.67 410.5 852.5 398.5 C 857.33 386.5 859 382 861.5 369.5 C 864 357 866.67 339.5 867.5 323.5 C 868.33 307.5 867.5 286.33 866.5 273.5 C 865.5 260.67 864.5 256.83 861.5 246.5 C 858.5 236.17 854.5 223.83 848.5 211.5 C 842.5 199.17 838.83 190 825.5 172.5 C 812.17 155 786.67 123.5 768.5 106.5 C 750.33 89.5 735.33 82.33 716.5 70.5 C 697.67 58.67 666.5 41.33 655.5 35.5 Z"/>
    <path fill="#6ab12d" stroke="#6ab12d" d="M 489.5 897.5 C 488.67 897.33 491.17 905.67 492.5 907.5 C 493.83 909.33 498 910.17 497.5 908.5 C 497 906.83 490.33 897.67 489.5 897.5 Z M 639.5 611.5 C 632.33 604.5 594.17 632 579.5 639.5 C 564.83 647 563.33 648.17 551.5 656.5 C 539.67 664.83 519.83 679.17 508.5 689.5 C 497.17 699.83 488.83 709.5 483.5 718.5 C 478.17 727.5 478 734.67 476.5 743.5 C 475 752.33 473.83 758.5 474.5 771.5 C 475.17 784.5 476.67 799.5 480.5 821.5 C 484.33 843.5 485.67 902.5 497.5 903.5 C 509.33 904.5 535.33 852.5 551.5 827.5 C 567.67 802.5 582.67 777.83 594.5 753.5 C 606.33 729.17 615 705.17 622.5 681.5 C 630 657.83 646.67 618.5 639.5 611.5 Z M 478.5 136.5 C 474.33 135.5 494.83 175.83 500.5 194.5 C 506.17 213.17 510.17 228.67 512.5 248.5 C 514.83 268.33 514.83 297.17 514.5 313.5 C 514.17 329.83 513.17 333 510.5 346.5 C 507.83 360 512 364.67 498.5 394.5 C 485 424.33 441.33 503.33 429.5 525.5 C 417.67 547.67 429 529 427.5 527.5 C 426 526 422 517.83 420.5 516.5 C 419 515.17 416.83 516.33 418.5 519.5 C 420.17 522.67 425 539.33 430.5 535.5 C 436 531.67 444.17 505.83 451.5 496.5 C 458.83 487.17 463.67 486 474.5 479.5 C 485.33 473 492.5 468.67 516.5 457.5 C 540.5 446.33 598 407.33 618.5 412.5 C 639 417.67 635.33 467.33 639.5 488.5 C 643.67 509.67 643 519.5 643.5 539.5 C 644 559.5 642 602.17 642.5 608.5 C 643 614.83 646.33 595.67 646.5 577.5 C 646.67 559.33 645.17 519.17 643.5 499.5 C 641.83 479.83 639.83 473.67 636.5 459.5 C 633.17 445.33 630 433.17 623.5 414.5 C 617 395.83 609.83 375.67 597.5 347.5 C 585.17 319.33 561.5 270 549.5 245.5 C 537.5 221 537.33 218.67 525.5 200.5 C 513.67 182.33 482.67 137.5 478.5 136.5 Z"/>
    <path fill="#009f3a" stroke="#009f3a" d="M 474.5 770.5 C 471.17 762.83 475.67 839 478.5 861.5 C 481.33 884 488.17 897.83 491.5 905.5 C 494.83 913.17 501.33 930 498.5 907.5 C 495.67 885 477.83 778.17 474.5 770.5 Z M 619.5 410.5 C 599.67 411 539 445.17 514.5 456.5 C 490 467.83 483.17 472.17 472.5 478.5 C 461.83 484.83 457.33 485.67 450.5 494.5 C 443.67 503.33 435.67 525.67 431.5 531.5 C 427.33 537.33 423 522.33 425.5 529.5 C 428 536.67 441 559.67 446.5 574.5 C 452 589.33 455 601.83 458.5 618.5 C 462 635.17 465 649.67 467.5 674.5 C 470 699.33 470.67 759.83 473.5 767.5 C 476.33 775.17 478.33 733.33 484.5 720.5 C 490.67 707.67 497.17 702.17 510.5 690.5 C 523.83 678.83 542.67 663.83 564.5 650.5 C 586.33 637.17 628.17 621.5 641.5 610.5 C 654.83 599.5 644.5 603.67 644.5 584.5 C 644.5 565.33 643.33 517.33 641.5 495.5 C 639.67 473.67 637.17 467.67 633.5 453.5 C 629.83 439.33 639.33 410 619.5 410.5 Z"/>
    <path fill="#007a39" stroke="#007a39" d="M 425.5 533.5 C 422.5 539.67 415.33 554.33 410.5 570.5 C 405.67 586.67 398.33 611.33 396.5 630.5 C 394.67 649.67 397.17 669.5 399.5 685.5 C 401.83 701.5 404.5 708.83 410.5 726.5 C 416.5 744.17 423 764 435.5 791.5 C 448 819 478.83 883 485.5 891.5 C 492.17 900 477.83 870.33 475.5 842.5 C 473.17 814.67 473.67 758.17 471.5 724.5 C 469.33 690.83 466.33 664.5 462.5 640.5 C 458.67 616.5 454.17 598.33 448.5 580.5 C 442.83 562.67 432.33 541.33 428.5 533.5 C 424.67 525.67 428.5 527.33 425.5 533.5 Z M 130.5 169.5 C 129.67 170 124.67 177.5 124.5 178.5 C 124.33 179.5 128.5 177 129.5 175.5 C 130.5 174 131.33 169 130.5 169.5 Z M 139.5 155.5 C 139 155.5 132.33 164.67 131.5 166.5 C 130.67 168.33 133.17 168.33 134.5 166.5 C 135.83 164.67 140 155.5 139.5 155.5 Z M 212.5 58.5 C 212 58.5 208.67 64.33 208.5 65.5 C 208.33 66.67 210.83 66.67 211.5 65.5 C 212.17 64.33 213 58.5 212.5 58.5 Z"/>
    <path fill="#007d38" stroke="#007d38" d="M 151.5 747.5 C 150 746.33 153.33 753 155.5 755.5 C 157.67 758 165.17 763.83 164.5 762.5 C 163.83 761.17 153 748.67 151.5 747.5 Z M 55.5 533.5 C 55 534.33 55.83 539.33 56.5 540.5 C 57.17 541.67 59 541.33 59.5 540.5 C 60 539.67 60.17 536.67 59.5 535.5 C 58.83 534.33 56 532.67 55.5 533.5 Z M 418.5 521.5 C 412.5 528 393.5 549.17 385.5 560.5 C 377.5 571.83 374.67 578.33 370.5 589.5 C 366.33 600.67 361.83 614.17 360.5 627.5 C 359.17 640.83 359.83 654.17 362.5 669.5 C 365.17 684.83 370 702.33 376.5 719.5 C 383 736.67 391.67 754.33 401.5 772.5 C 411.33 790.67 421.17 807.83 435.5 828.5 C 449.83 849.17 480.17 891 487.5 896.5 C 494.83 902 481.17 865.5 479.5 861.5 C 477.83 857.5 485.83 887.33 477.5 872.5 C 469.17 857.67 440.5 797.17 429.5 772.5 C 418.5 747.83 416.83 742.33 411.5 724.5 C 406.17 706.67 399.33 683.83 397.5 665.5 C 395.67 647.17 397.83 630.83 400.5 614.5 C 403.17 598.17 409 580.17 413.5 567.5 C 418 554.83 421.67 536.17 427.5 538.5 C 433.33 540.83 446.5 578.67 448.5 581.5 C 450.5 584.33 444 565.5 439.5 555.5 C 435 545.5 425 527.17 421.5 521.5 C 418 515.83 424.5 515 418.5 521.5 Z M 66.5 318.5 C 66.67 317 64.17 317.83 63.5 319.5 C 62.83 321.17 62 328.67 62.5 328.5 C 63 328.33 66.33 320 66.5 318.5 Z M 223.5 297.5 C 223.83 298.67 228 304.5 228.5 304.5 C 229 304.5 227.33 298.67 226.5 297.5 C 225.67 296.33 223.17 296.33 223.5 297.5 Z M 138.5 158.5 C 137.5 159 125 176.5 123.5 179.5 C 122 182.5 127 180 129.5 176.5 C 132 173 139.5 158 138.5 158.5 Z"/>
  </g>
</svg>
