<svg xmlns="http://www.w3.org/2000/svg" width="899" height="921" viewBox="0 0 899 921" role="img" aria-labelledby="title desc">
  <title id="title">Nur logo loop frame 097</title>
  <desc id="desc">Vector-traced frame from Nur_Logo_Loop_02.gif.</desc>
  <g id="frame-097" stroke-linejoin="round" stroke-linecap="round" stroke-width="0.5" shape-rendering="geometricPrecision">
    <path fill="#008136" stroke="#008136" d="M 220.5 71.5 C 210.33 80.33 183.17 99.33 162.5 126.5 C 141.83 153.67 111.67 204.5 96.5 234.5 C 81.33 264.5 78 281 71.5 306.5 C 65 332 60.17 369.67 57.5 387.5 C 54.83 405.33 55.33 409 55.5 413.5 C 55.67 418 58.5 414.17 58.5 414.5 C 58.5 414.83 56.33 406.83 55.5 415.5 C 54.67 424.17 53.5 454 53.5 466.5 C 53.5 479 54.67 486.33 55.5 490.5 C 56.33 494.67 58.5 490.83 58.5 491.5 C 58.5 492.17 55.17 487.67 55.5 494.5 C 55.83 501.33 57 514 60.5 532.5 C 64 551 68.33 580.67 76.5 605.5 C 84.67 630.33 98.5 660 109.5 681.5 C 120.5 703 131 718.17 142.5 734.5 C 154 750.83 167.33 766.83 178.5 779.5 C 189.67 792.17 198.83 801 209.5 810.5 C 220.17 820 228.17 827.17 242.5 836.5 C 256.83 845.83 274.17 857 295.5 866.5 C 316.83 876 345.83 886.67 370.5 893.5 C 395.17 900.33 423.17 905.17 443.5 907.5 C 463.83 909.83 485.17 909.33 492.5 907.5 C 499.83 905.67 490 907.17 487.5 896.5 C 485 885.83 479.67 869 477.5 843.5 C 475.33 818 476.17 773.5 474.5 743.5 C 472.83 713.5 470.5 687 467.5 663.5 C 464.5 640 460.83 620.17 456.5 602.5 C 452.17 584.83 447.83 572.17 441.5 557.5 C 435.17 542.83 427 528.17 418.5 514.5 C 410 500.83 408.17 494 390.5 475.5 C 372.83 457 335.5 426.5 312.5 403.5 C 289.5 380.5 269.67 361.17 252.5 337.5 C 235.33 313.83 216.5 275.17 209.5 261.5 C 202.5 247.83 212.67 264.17 210.5 255.5 C 208.33 246.83 198.33 229.83 196.5 209.5 C 194.67 189.17 197.33 152.67 199.5 133.5 C 201.67 114.33 205.5 104.5 209.5 94.5 C 213.5 84.5 221.67 77.33 223.5 73.5 C 225.33 69.67 230.67 62.67 220.5 71.5 Z"/>
    <path fill="#83bb26" stroke="#83bb26" d="M 450.5 488.5 C 449 485.83 422.33 507.5 418.5 514.5 C 414.67 521.5 422.17 534.83 427.5 530.5 C 432.83 526.17 452 491.17 450.5 488.5 Z M 627.5 46.5 C 625.83 47.83 627.33 51.33 639.5 59.5 C 651.67 67.67 685.83 85.33 700.5 95.5 C 715.17 105.67 717.83 107.67 727.5 120.5 C 737.17 133.33 751 155.67 758.5 172.5 C 766 189.33 770.5 208.67 772.5 221.5 C 774.5 234.33 772 240.83 770.5 249.5 C 769 258.17 768.67 263.17 763.5 273.5 C 758.33 283.83 752.33 297.17 739.5 311.5 C 726.67 325.83 702.5 346.67 686.5 359.5 C 670.5 372.33 655.83 381 643.5 388.5 C 631.17 396 614 388.5 612.5 404.5 C 611 420.5 630 461.5 634.5 484.5 C 639 507.5 638.67 522.33 639.5 542.5 C 640.33 562.67 629.67 600.83 639.5 605.5 C 649.33 610.17 680.67 582.33 698.5 570.5 C 716.33 558.67 732.17 546.33 746.5 534.5 C 760.83 522.67 773.83 510.67 784.5 499.5 C 795.17 488.33 802.17 479.33 810.5 467.5 C 818.83 455.67 827.17 443.33 834.5 428.5 C 841.83 413.67 850 392.33 854.5 378.5 C 859 364.67 860 358.5 861.5 345.5 C 863 332.5 863.83 315.33 863.5 300.5 C 863.17 285.67 862.5 271 859.5 256.5 C 856.5 242 851.83 227.33 845.5 213.5 C 839.17 199.67 833.17 189 821.5 173.5 C 809.83 158 793.17 135.67 775.5 120.5 C 757.83 105.33 736.5 94 715.5 82.5 C 694.5 71 664.17 57.5 649.5 51.5 C 634.83 45.5 629.17 45.17 627.5 46.5 Z"/>
    <path fill="#6ab12d" stroke="#6ab12d" d="M 464.5 142.5 C 459 140.17 480.67 168.17 487.5 184.5 C 494.33 200.83 501.83 225.83 505.5 240.5 C 509.17 255.17 509.17 254.83 509.5 272.5 C 509.83 290.17 509.67 325.33 507.5 346.5 C 505.33 367.67 509.33 369.67 496.5 399.5 C 483.67 429.33 442 504.17 430.5 525.5 C 419 546.83 429.33 529.33 427.5 527.5 C 425.67 525.67 421.17 516.17 419.5 514.5 C 417.83 512.83 416.33 514.5 417.5 517.5 C 418.67 520.5 424.33 529.83 426.5 532.5 C 428.67 535.17 425.33 541 430.5 533.5 C 435.67 526 443.17 500.83 457.5 487.5 C 471.83 474.17 491.17 466 516.5 453.5 C 541.83 441 590.67 408.67 609.5 412.5 C 628.33 416.33 624.83 453.17 629.5 476.5 C 634.17 499.83 636.67 530.67 637.5 552.5 C 638.33 574.33 644.33 593.67 634.5 607.5 C 624.67 621.33 593.5 627.17 578.5 635.5 C 563.5 643.83 558.17 646.67 544.5 657.5 C 530.83 668.33 506.67 690.17 496.5 700.5 C 486.33 710.83 486.83 711.67 483.5 719.5 C 480.17 727.33 477.83 737.67 476.5 747.5 C 475.17 757.33 472 752.83 475.5 778.5 C 479 804.17 494.5 880 497.5 901.5 C 500.5 923 493.67 906.33 493.5 907.5 C 493.33 908.67 482.67 928.5 496.5 908.5 C 510.33 888.5 558.33 817.83 576.5 787.5 C 594.67 757.17 598 744.5 605.5 726.5 C 613 708.5 616.5 696.83 621.5 679.5 C 626.5 662.17 632.33 637.5 635.5 622.5 C 638.67 607.5 639.67 603.17 640.5 589.5 C 641.33 575.83 641.33 558.33 640.5 540.5 C 639.67 522.67 638.17 499.83 635.5 482.5 C 632.83 465.17 630.17 455.33 624.5 436.5 C 618.83 417.67 611 394.17 601.5 369.5 C 592 344.83 581 317 567.5 288.5 C 554 260 537.67 222.83 520.5 198.5 C 503.33 174.17 470 144.83 464.5 142.5 Z"/>
    <path fill="#009f3a" stroke="#009f3a" d="M 611.5 411.5 C 591.67 405.17 537.5 442 514.5 452.5 C 491.5 463 484 468.17 473.5 474.5 C 463 480.83 459 480.83 451.5 490.5 C 444 500.17 432.83 526 428.5 532.5 C 424.17 539 422.5 522.5 425.5 529.5 C 428.5 536.5 440.33 556.17 446.5 574.5 C 452.67 592.83 458.33 615.5 462.5 639.5 C 466.67 663.5 469.17 684.17 471.5 718.5 C 473.83 752.83 474 815.5 476.5 845.5 C 479 875.5 484 888.17 486.5 898.5 C 489 908.83 489.5 906.33 491.5 907.5 C 493.5 908.67 501 927.33 498.5 905.5 C 496 883.67 480 802.5 476.5 776.5 C 473 750.5 476.17 758.67 477.5 749.5 C 478.83 740.33 481.17 729.33 484.5 721.5 C 487.83 713.67 487.83 712.5 497.5 702.5 C 507.17 692.5 528.67 672.5 542.5 661.5 C 556.33 650.5 564.83 645.5 580.5 636.5 C 596.17 627.5 626.83 621.83 636.5 607.5 C 646.17 593.17 639 570 638.5 550.5 C 638 531 638 513.67 633.5 490.5 C 629 467.33 631.33 417.83 611.5 411.5 Z"/>
    <path fill="#007a39" stroke="#007a39" d="M 71.5 580.5 C 71 580.33 71.83 587 72.5 588.5 C 73.17 590 75.67 590.83 75.5 589.5 C 75.33 588.17 72 580.67 71.5 580.5 Z M 425.5 533.5 C 422.83 538.5 416.83 551 412.5 563.5 C 408.17 576 402.33 595.83 399.5 608.5 C 396.67 621.17 396 628.17 395.5 639.5 C 395 650.83 393.5 660.17 396.5 676.5 C 399.5 692.83 399.67 703.17 413.5 737.5 C 427.33 771.83 467.83 857.83 479.5 882.5 C 491.17 907.17 484.17 892.17 483.5 885.5 C 482.83 878.83 477.5 869.33 475.5 842.5 C 473.5 815.67 473.67 758.17 471.5 724.5 C 469.33 690.83 466.33 664.5 462.5 640.5 C 458.67 616.5 454.17 598.33 448.5 580.5 C 442.83 562.67 432.33 541.33 428.5 533.5 C 424.67 525.67 428.17 528.5 425.5 533.5 Z"/>
    <path fill="#007d38" stroke="#007d38" d="M 227.5 822.5 C 226.17 822 228.67 826.17 230.5 827.5 C 232.33 828.83 239 831.33 238.5 830.5 C 238 829.67 228.83 823 227.5 822.5 Z M 417.5 519.5 C 410.33 524.17 393.83 547.33 385.5 560.5 C 377.17 573.67 371.67 586.17 367.5 598.5 C 363.33 610.83 361 621.5 360.5 634.5 C 360 647.5 361.83 662.67 364.5 676.5 C 367.17 690.33 370.67 702.17 376.5 717.5 C 382.33 732.83 388 747.83 399.5 768.5 C 411 789.17 433.67 823.5 445.5 841.5 C 457.33 859.5 463.83 868.33 470.5 876.5 C 477.17 884.67 484 893 485.5 890.5 C 487 888 481 865.17 479.5 861.5 C 478 857.83 487.33 889.5 476.5 868.5 C 465.67 847.5 427.67 767.83 414.5 735.5 C 401.33 703.17 400.5 690.17 397.5 674.5 C 394.5 658.83 396 652.17 396.5 641.5 C 397 630.83 397.67 623.17 400.5 610.5 C 403.33 597.83 409.17 577.5 413.5 565.5 C 417.83 553.5 420.67 535.83 426.5 538.5 C 432.33 541.17 447.83 581.67 448.5 581.5 C 449.17 581.33 434.17 545.17 430.5 537.5 C 426.83 529.83 426.83 536.33 426.5 535.5 C 426.17 534.67 430 535.17 428.5 532.5 C 427 529.83 424.67 514.83 417.5 519.5 Z M 55.5 486.5 C 55.17 487.67 56.83 495.17 57.5 495.5 C 58.17 495.83 59.83 490 59.5 488.5 C 59.17 487 55.83 485.33 55.5 486.5 Z M 244.5 326.5 C 243.5 325.83 249.33 336.67 251.5 339.5 C 253.67 342.33 258.67 345.67 257.5 343.5 C 256.33 341.33 245.5 327.17 244.5 326.5 Z M 163.5 127.5 C 162.67 128 158.5 133.83 158.5 134.5 C 158.5 135.17 162.67 132.67 163.5 131.5 C 164.33 130.33 164.33 127 163.5 127.5 Z"/>
  </g>
</svg>
