<svg xmlns="http://www.w3.org/2000/svg" width="899" height="921" viewBox="0 0 899 921" role="img" aria-labelledby="title desc">
  <title id="title">Nur logo loop frame 076</title>
  <desc id="desc">Vector-traced frame from Nur_Logo_Loop_02.gif.</desc>
  <g id="frame-076" stroke-linejoin="round" stroke-linecap="round" stroke-width="0.5" shape-rendering="geometricPrecision">
    <path fill="#008136" stroke="#008136" d="M 181.5 50.5 C 173 59.17 149 87.33 132.5 111.5 C 116 135.67 95 171 82.5 195.5 C 70 220 64.33 238.33 57.5 258.5 C 50.67 278.67 44 304.33 41.5 316.5 C 39 328.67 42.83 328.83 42.5 331.5 C 42.17 334.17 39.83 330.33 39.5 332.5 C 39.17 334.67 40.83 342 40.5 344.5 C 40.17 347 38.83 327.67 37.5 347.5 C 36.17 367.33 31.33 433.33 32.5 463.5 C 33.67 493.67 37.33 501.5 44.5 528.5 C 51.67 555.5 65.33 599.33 75.5 625.5 C 85.67 651.67 94.83 667 105.5 685.5 C 116.17 704 125.67 718.67 139.5 736.5 C 153.33 754.33 171.67 776 188.5 792.5 C 205.33 809 222.67 823.17 240.5 835.5 C 258.33 847.83 273.83 856.83 295.5 866.5 C 317.17 876.17 345.83 886.67 370.5 893.5 C 395.17 900.33 423 905.17 443.5 907.5 C 464 909.83 486.67 911.67 493.5 907.5 C 500.33 903.33 487.17 893.17 484.5 882.5 C 481.83 871.83 479 864 477.5 843.5 C 476 823 477.17 789.5 475.5 759.5 C 473.83 729.5 470.67 689.67 467.5 663.5 C 464.33 637.33 459.83 617.67 456.5 602.5 C 453.17 587.33 452.33 584.67 447.5 572.5 C 442.67 560.33 435.33 543.67 427.5 529.5 C 419.67 515.33 411 500.17 400.5 487.5 C 390 474.83 378.33 465.33 364.5 453.5 C 350.67 441.67 333.5 430.5 317.5 416.5 C 301.5 402.5 283.17 385.33 268.5 369.5 C 253.83 353.67 240.67 336.83 229.5 321.5 C 218.33 306.17 210.5 297 201.5 277.5 C 192.5 258 180.33 227.67 175.5 204.5 C 170.67 181.33 171.17 162.67 172.5 138.5 C 173.83 114.33 182 74.17 183.5 59.5 C 185 44.83 190 41.83 181.5 50.5 Z"/>
    <path fill="#83bb26" stroke="#83bb26" d="M 429.5 520.5 C 428.83 520.67 424.67 525.67 424.5 526.5 C 424.33 527.33 427.67 526.5 428.5 525.5 C 429.33 524.5 430.17 520.33 429.5 520.5 Z M 724.5 15.5 C 715.67 8.17 718.33 12.67 722.5 19.5 C 726.67 26.33 738.17 36.33 749.5 56.5 C 760.83 76.67 782.33 118 790.5 140.5 C 798.67 163 797.67 176 798.5 191.5 C 799.33 207 797.83 219.5 795.5 233.5 C 793.17 247.5 788.67 264.33 784.5 275.5 C 780.33 286.67 776.5 291.83 770.5 300.5 C 764.5 309.17 761.17 315 748.5 327.5 C 735.83 340 714.17 361 694.5 375.5 C 674.83 390 639 397.33 630.5 414.5 C 622 431.67 640.83 455.5 643.5 478.5 C 646.17 501.5 647.5 528 646.5 552.5 C 645.5 577 631 617.67 637.5 625.5 C 644 633.33 670.33 608.67 685.5 599.5 C 700.67 590.33 713 582 728.5 570.5 C 744 559 765 542.33 778.5 530.5 C 792 518.67 799.83 511 809.5 499.5 C 819.17 488 828.5 474.33 836.5 461.5 C 844.5 448.67 851.33 436.17 857.5 422.5 C 863.67 408.83 869.5 393.17 873.5 379.5 C 877.5 365.83 880 355.5 881.5 340.5 C 883 325.5 883.17 304.33 882.5 289.5 C 881.83 274.67 879.83 262.83 877.5 251.5 C 875.17 240.17 874.17 235.83 868.5 221.5 C 862.83 207.17 854.83 187 843.5 165.5 C 832.17 144 811.83 109.5 800.5 92.5 C 789.17 75.5 788.17 76.33 775.5 63.5 C 762.83 50.67 733.33 22.83 724.5 15.5 Z"/>
    <path fill="#6ab12d" stroke="#6ab12d" d="M 509.5 130.5 C 497.5 108.17 505.83 127.5 507.5 136.5 C 509.17 145.5 515.67 163.5 519.5 184.5 C 523.33 205.5 528.67 242.17 530.5 262.5 C 532.33 282.83 531.33 293.33 530.5 306.5 C 529.67 319.67 528.5 327.83 525.5 341.5 C 522.5 355.17 516.67 376.5 512.5 388.5 C 508.33 400.5 511.5 396.83 500.5 413.5 C 489.5 430.17 459.33 469.5 446.5 488.5 C 433.67 507.5 426.67 520.67 423.5 527.5 C 420.33 534.33 425.83 531 427.5 529.5 C 429.17 528 423.5 526.33 433.5 518.5 C 443.5 510.67 455.33 499.17 487.5 482.5 C 519.67 465.83 600.83 417.83 626.5 418.5 C 652.17 419.17 638.67 462.33 641.5 486.5 C 644.33 510.67 644.67 540.5 643.5 563.5 C 642.33 586.5 647.17 608.83 634.5 624.5 C 621.83 640.17 586 647.5 567.5 657.5 C 549 667.5 536 675.67 523.5 684.5 C 511 693.33 499.33 703.33 492.5 710.5 C 485.67 717.67 485.5 720.83 482.5 727.5 C 479.5 734.17 475.67 738.67 474.5 750.5 C 473.33 762.33 472.17 774 475.5 798.5 C 478.83 823 491.5 879.33 494.5 897.5 C 497.5 915.67 490.5 909.5 493.5 907.5 C 496.5 905.5 501.33 901.17 512.5 885.5 C 523.67 869.83 546 837.33 560.5 813.5 C 575 789.67 587.5 769.67 599.5 742.5 C 611.5 715.33 625.33 673.83 632.5 650.5 C 639.67 627.17 640 618.5 642.5 602.5 C 645 586.5 647.17 575.5 647.5 554.5 C 647.83 533.5 646.17 496 644.5 476.5 C 642.83 457 641.33 453.5 637.5 437.5 C 633.67 421.5 631.17 408.33 621.5 380.5 C 611.83 352.67 598.17 312.17 579.5 270.5 C 560.83 228.83 521.5 152.83 509.5 130.5 Z"/>
    <path fill="#009f3a" stroke="#009f3a" d="M 474.5 797.5 C 474.67 808.17 476.17 844.33 478.5 861.5 C 480.83 878.67 485.83 892.83 488.5 900.5 C 491.17 908.17 493.33 908.33 494.5 907.5 C 495.67 906.67 498.33 913.83 495.5 895.5 C 492.67 877.17 481 813.83 477.5 797.5 C 474 781.17 474.33 786.83 474.5 797.5 Z M 628.5 417.5 C 602.67 419.33 518.17 465 485.5 481.5 C 452.83 498 442.33 508.83 432.5 516.5 C 422.67 524.17 428.17 526.17 426.5 527.5 C 424.83 528.83 419.17 516.67 422.5 524.5 C 425.83 532.33 440.17 557.17 446.5 574.5 C 452.83 591.83 456.67 608.5 460.5 628.5 C 464.33 648.5 467.17 667.17 469.5 694.5 C 471.83 721.83 473.5 782.83 474.5 792.5 C 475.5 802.17 472.33 765.83 475.5 752.5 C 478.67 739.17 487.67 721.83 493.5 712.5 C 499.33 703.17 501.33 703.5 510.5 696.5 C 519.67 689.5 527.67 682.17 548.5 670.5 C 569.33 658.83 619.5 644 635.5 626.5 C 651.5 609 643 585.5 644.5 565.5 C 646 545.5 645.17 522.33 644.5 506.5 C 643.83 490.67 643.17 485.33 640.5 470.5 C 637.83 455.67 654.33 415.67 628.5 417.5 Z"/>
    <path fill="#007a39" stroke="#007a39" d="M 424.5 533.5 C 419.83 540.67 409.17 570.83 404.5 585.5 C 399.83 600.17 397.83 606.33 396.5 621.5 C 395.17 636.67 392.67 655.17 396.5 676.5 C 400.33 697.83 406 716.67 419.5 749.5 C 433 782.33 467.17 852.33 477.5 873.5 C 487.83 894.67 481.83 881.67 481.5 876.5 C 481.17 871.33 477.17 867.83 475.5 842.5 C 473.83 817.17 473.67 758.17 471.5 724.5 C 469.33 690.83 466.33 664.5 462.5 640.5 C 458.67 616.5 453.5 596.83 448.5 580.5 C 443.5 564.17 436.5 550.33 432.5 542.5 C 428.5 534.67 429.17 526.33 424.5 533.5 Z M 315.5 414.5 C 314.67 414.33 318.83 421 320.5 422.5 C 322.17 424 326.33 424.83 325.5 423.5 C 324.67 422.17 316.33 414.67 315.5 414.5 Z"/>
    <path fill="#007d38" stroke="#007d38" d="M 471.5 752.5 C 471 751.5 470.17 771.5 470.5 776.5 C 470.83 781.5 473.33 786.5 473.5 782.5 C 473.67 778.5 472 753.5 471.5 752.5 Z M 115.5 699.5 C 115.83 700.67 129.17 719.83 131.5 722.5 C 133.83 725.17 132.17 719.33 129.5 715.5 C 126.83 711.67 115.17 698.33 115.5 699.5 Z M 456.5 618.5 C 457 622.17 462 643 462.5 643.5 C 463 644 460.5 625.67 459.5 621.5 C 458.5 617.33 456 614.83 456.5 618.5 Z M 64.5 589.5 C 64.5 590.33 67.83 597 68.5 597.5 C 69.17 598 69.17 593.83 68.5 592.5 C 67.83 591.17 64.5 588.67 64.5 589.5 Z M 413.5 510.5 C 413 511.33 424 519.5 420.5 527.5 C 417 535.5 400.83 546.33 392.5 558.5 C 384.17 570.67 375.17 587.83 370.5 600.5 C 365.83 613.17 365 620.67 364.5 634.5 C 364 648.33 365.5 669.67 367.5 683.5 C 369.5 697.33 370 700.67 376.5 717.5 C 383 734.33 388 754.33 406.5 784.5 C 425 814.67 475 884 487.5 898.5 C 500 913 483 876.17 481.5 871.5 C 480 866.83 478.83 872.17 478.5 870.5 C 478.17 868.83 479.83 862.67 479.5 861.5 C 479.17 860.33 486.33 882.5 476.5 863.5 C 466.67 844.5 433.67 779 420.5 747.5 C 407.33 716 401.67 692.17 397.5 674.5 C 393.33 656.83 395.33 650.83 395.5 641.5 C 395.67 632.17 395.5 631.67 398.5 618.5 C 401.5 605.33 409 576.17 413.5 562.5 C 418 548.83 421.83 538.17 425.5 536.5 C 429.17 534.83 430.5 540.83 435.5 552.5 C 440.5 564.17 454.83 606 455.5 606.5 C 456.17 607 445 568.83 439.5 555.5 C 434 542.17 425.17 532 422.5 526.5 C 419.83 521 425 525.17 423.5 522.5 C 422 519.83 414 509.67 413.5 510.5 Z M 251.5 349.5 C 250.5 349 250.5 352.33 251.5 353.5 C 252.5 354.67 257.5 357.17 257.5 356.5 C 257.5 355.83 252.5 350 251.5 349.5 Z M 41.5 341.5 C 41 340.67 39.17 340.33 38.5 341.5 C 37.83 342.67 37 347.67 37.5 348.5 C 38 349.33 40.83 347.67 41.5 346.5 C 42.17 345.33 42 342.33 41.5 341.5 Z M 237.5 334.5 C 238 336.17 242.5 343.33 244.5 345.5 C 246.5 347.67 250 349.17 249.5 347.5 C 249 345.83 243.5 337.67 241.5 335.5 C 239.5 333.33 237 332.83 237.5 334.5 Z M 40.5 326.5 C 40 327.67 40 333.17 40.5 334.5 C 41 335.83 43 335.67 43.5 334.5 C 44 333.33 44 328.83 43.5 327.5 C 43 326.17 41 325.33 40.5 326.5 Z M 50.5 287.5 C 50.5 285.83 47.17 290 46.5 292.5 C 45.83 295 45.83 303.33 46.5 302.5 C 47.17 301.67 50.5 289.17 50.5 287.5 Z M 189.5 249.5 C 188.83 249 188 253.17 188.5 254.5 C 189 255.83 192.33 258.33 192.5 257.5 C 192.67 256.67 190.17 250 189.5 249.5 Z M 82.5 199.5 C 81.83 199.83 78.5 206.5 78.5 207.5 C 78.5 208.5 81.83 206.83 82.5 205.5 C 83.17 204.17 83.17 199.17 82.5 199.5 Z M 154.5 84.5 C 153.5 85 148.5 90.83 148.5 91.5 C 148.5 92.17 153.5 89.67 154.5 88.5 C 155.5 87.33 155.5 84 154.5 84.5 Z"/>
  </g>
</svg>
