<svg xmlns="http://www.w3.org/2000/svg" width="899" height="921" viewBox="0 0 899 921" role="img" aria-labelledby="title desc">
  <title id="title">Nur logo loop frame 065</title>
  <desc id="desc">Vector-traced frame from Nur_Logo_Loop_02.gif.</desc>
  <g id="frame-065" stroke-linejoin="round" stroke-linecap="round" stroke-width="0.5" shape-rendering="geometricPrecision">
    <path fill="#008136" stroke="#008136" d="M 184.5 49.5 C 178 57.5 164 74.67 148.5 98.5 C 133 122.33 105.5 166.17 91.5 192.5 C 77.5 218.83 72 235 64.5 256.5 C 57 278 50.5 302.5 46.5 321.5 C 42.5 340.5 41.17 359 40.5 370.5 C 39.83 382 42.67 387 42.5 390.5 C 42.33 394 40.33 378 39.5 391.5 C 38.67 405 37.5 456.17 37.5 471.5 C 37.5 486.83 38.67 481.33 39.5 483.5 C 40.33 485.67 42.33 482.83 42.5 484.5 C 42.67 486.17 39.5 485.17 40.5 493.5 C 41.5 501.83 42.67 512.5 48.5 534.5 C 54.33 556.5 66 600.33 75.5 625.5 C 85 650.67 94.83 667 105.5 685.5 C 116.17 704 125.67 718.67 139.5 736.5 C 153.33 754.33 171.67 776 188.5 792.5 C 205.33 809 222.67 823.17 240.5 835.5 C 258.33 847.83 273.83 856.83 295.5 866.5 C 317.17 876.17 345.83 886.67 370.5 893.5 C 395.17 900.33 423 905.17 443.5 907.5 C 464 909.83 486.67 911.67 493.5 907.5 C 500.33 903.33 487.17 893.17 484.5 882.5 C 481.83 871.83 479.5 859.67 477.5 843.5 C 475.5 827.33 473 802.33 472.5 785.5 C 472 768.67 475.33 762.83 474.5 742.5 C 473.67 722.17 470.5 686.83 467.5 663.5 C 464.5 640.17 459.83 617.67 456.5 602.5 C 453.17 587.33 452.33 584.67 447.5 572.5 C 442.67 560.33 436 544.5 427.5 529.5 C 419 514.5 415.67 502.17 396.5 482.5 C 377.33 462.83 332.83 429.5 312.5 411.5 C 292.17 393.5 285.67 386.5 274.5 374.5 C 263.33 362.5 256.33 354.33 245.5 339.5 C 234.67 324.67 220 307.67 209.5 285.5 C 199 263.33 187.67 231.17 182.5 206.5 C 177.33 181.83 177.67 163.5 178.5 137.5 C 179.33 111.5 186.5 65.17 187.5 50.5 C 188.5 35.83 191 41.5 184.5 49.5 Z"/>
    <path fill="#83bb26" stroke="#83bb26" d="M 433.5 512.5 C 433 511.33 423.83 518 422.5 520.5 C 421.17 523 423.67 528.83 425.5 527.5 C 427.33 526.17 434 513.67 433.5 512.5 Z M 700.5 23.5 C 690.83 16.83 691.83 18.83 697.5 25.5 C 703.17 32.17 721.67 46 734.5 63.5 C 747.33 81 765.17 111.83 774.5 130.5 C 783.83 149.17 787.5 159.83 790.5 175.5 C 793.5 191.17 794.17 208.33 792.5 224.5 C 790.83 240.67 787.33 257.17 780.5 272.5 C 773.67 287.83 764.83 301.33 751.5 316.5 C 738.17 331.67 721.67 347.67 700.5 363.5 C 679.33 379.33 635.33 397 624.5 411.5 C 613.67 426 632.5 436.5 635.5 450.5 C 638.5 464.5 640.83 475.17 642.5 495.5 C 644.17 515.83 646 551.83 645.5 572.5 C 645 593.17 634.17 615 639.5 619.5 C 644.83 624 661.33 609.67 677.5 599.5 C 693.67 589.33 720.5 570.5 736.5 558.5 C 752.5 546.5 761.83 538.33 773.5 527.5 C 785.17 516.67 796.33 505.83 806.5 493.5 C 816.67 481.17 826.5 466.5 834.5 453.5 C 842.5 440.5 848.83 428.17 854.5 415.5 C 860.17 402.83 864.67 392 868.5 377.5 C 872.33 363 876 344.33 877.5 328.5 C 879 312.67 878.33 295.67 877.5 282.5 C 876.67 269.33 875 260.33 872.5 249.5 C 870 238.67 867.33 229.5 862.5 217.5 C 857.67 205.5 856 197.83 843.5 177.5 C 831 157.17 802.17 114.17 787.5 95.5 C 772.83 76.83 770 77.5 755.5 65.5 C 741 53.5 710.17 30.17 700.5 23.5 Z"/>
    <path fill="#6ab12d" stroke="#6ab12d" d="M 500.5 131.5 C 488 109 495.17 123 497.5 133.5 C 499.83 144 510 173.5 514.5 194.5 C 519 215.5 522.67 241.83 524.5 259.5 C 526.33 277.17 526.33 286.17 525.5 300.5 C 524.67 314.83 521.67 333.33 519.5 345.5 C 517.33 357.67 516 363 512.5 373.5 C 509 384 510.17 388.33 498.5 408.5 C 486.83 428.67 454.33 475.33 442.5 494.5 C 430.67 513.67 431 518.67 427.5 523.5 C 424 528.33 421.67 522 421.5 523.5 C 421.33 525 425.17 531 426.5 532.5 C 427.83 534 427.33 536 429.5 532.5 C 431.67 529 432 519.17 439.5 511.5 C 447 503.83 443.67 502.33 474.5 486.5 C 505.33 470.67 597 417.33 624.5 416.5 C 652 415.67 636.33 454.33 639.5 481.5 C 642.67 508.67 643.83 556.33 643.5 579.5 C 643.17 602.67 649.5 608.17 637.5 620.5 C 625.5 632.83 589 644 571.5 653.5 C 554 663 544.17 669.5 532.5 677.5 C 520.83 685.5 510.17 692.83 501.5 701.5 C 492.83 710.17 485 722 480.5 729.5 C 476 737 475.33 732.83 474.5 746.5 C 473.67 760.17 473.5 789.33 475.5 811.5 C 477.5 833.67 485.17 868.33 486.5 879.5 C 487.83 890.67 484 877.83 483.5 878.5 C 483 879.17 481.83 878.67 483.5 883.5 C 485.17 888.33 490.33 904.83 493.5 907.5 C 496.67 910.17 494.67 910 502.5 899.5 C 510.33 889 525.17 868.83 540.5 844.5 C 555.83 820.17 579.83 783.5 594.5 753.5 C 609.17 723.5 620.83 686.67 628.5 664.5 C 636.17 642.33 637.5 635.5 640.5 620.5 C 643.5 605.5 646.33 598.67 646.5 574.5 C 646.67 550.33 646 506.5 641.5 475.5 C 637 444.5 631 423 619.5 388.5 C 608 354 592.33 311.33 572.5 268.5 C 552.67 225.67 513 154 500.5 131.5 Z"/>
    <path fill="#009f3a" stroke="#009f3a" d="M 475.5 810.5 C 473.67 805.33 477 852.83 479.5 867.5 C 482 882.17 491.17 908 490.5 898.5 C 489.83 889 477.33 815.67 475.5 810.5 Z M 625.5 414.5 C 598.33 420.17 503.67 469.67 472.5 485.5 C 441.33 501.33 446 501.83 438.5 509.5 C 431 517.17 426.17 520.67 427.5 531.5 C 428.83 542.33 440.67 556.5 446.5 574.5 C 452.33 592.5 458 611.17 462.5 639.5 C 467 667.83 472 719.83 473.5 744.5 C 475 769.17 471.33 777 471.5 787.5 C 471.67 798 473.83 814 474.5 807.5 C 475.17 801 472.5 764.17 475.5 748.5 C 478.5 732.83 480.67 726.5 492.5 713.5 C 504.33 700.5 522 685.83 546.5 670.5 C 571 655.17 623.17 636.33 639.5 621.5 C 655.83 606.67 644 602.17 644.5 581.5 C 645 560.83 644 519.17 642.5 497.5 C 641 475.83 638.33 465.33 635.5 451.5 C 632.67 437.67 652.67 408.83 625.5 414.5 Z"/>
    <path fill="#007a39" stroke="#007a39" d="M 424.5 531.5 C 419 539.67 407.67 583 403.5 599.5 C 399.33 616 400 618.67 399.5 630.5 C 399 642.33 397.17 652.67 400.5 670.5 C 403.83 688.33 407 706 419.5 737.5 C 432 769 465.67 839.17 475.5 859.5 C 485.33 879.83 479.33 872.83 478.5 859.5 C 477.67 846.17 471.67 802 470.5 779.5 C 469.33 757 472.83 747.67 471.5 724.5 C 470.17 701.33 466.33 664.5 462.5 640.5 C 458.67 616.5 452.83 595.5 448.5 580.5 C 444.17 565.5 440.5 558.67 436.5 550.5 C 432.5 542.33 430 523.33 424.5 531.5 Z"/>
    <path fill="#007d38" stroke="#007d38" d="M 115.5 699.5 C 115.83 700.67 129.17 719.83 131.5 722.5 C 133.83 725.17 132.17 719.33 129.5 715.5 C 126.83 711.67 115.17 698.33 115.5 699.5 Z M 456.5 618.5 C 457 622.17 462 643 462.5 643.5 C 463 644 460.5 625.67 459.5 621.5 C 458.5 617.33 456 614.83 456.5 618.5 Z M 413.5 510.5 C 413.33 511.33 425.83 514.67 420.5 524.5 C 415.17 534.33 391 555.17 381.5 569.5 C 372 583.83 367.33 598.5 363.5 610.5 C 359.67 622.5 358.5 628.5 358.5 641.5 C 358.5 654.5 359.17 670.67 363.5 688.5 C 367.83 706.33 376.67 730.5 384.5 748.5 C 392.33 766.5 397.67 775.83 410.5 796.5 C 423.33 817.17 448.67 854.33 461.5 872.5 C 474.33 890.67 482.33 899.67 487.5 905.5 C 492.67 911.33 494.33 915.5 492.5 907.5 C 490.67 899.5 478.83 866.5 476.5 857.5 C 474.17 848.5 478.67 854.33 478.5 853.5 C 478.33 852.67 475.67 853.83 475.5 852.5 C 475.33 851.17 478 855.83 477.5 845.5 C 477 835.17 473.67 798.33 472.5 790.5 C 471.33 782.67 470.33 795.5 470.5 798.5 C 470.67 801.5 472.83 799.83 473.5 808.5 C 474.17 817.17 483.33 862.67 474.5 850.5 C 465.67 838.33 432.5 764.83 420.5 735.5 C 408.5 706.17 405.83 691.67 402.5 674.5 C 399.17 657.33 400.17 644.67 400.5 632.5 C 400.83 620.33 401.33 615.33 404.5 601.5 C 407.67 587.67 415.83 560.33 419.5 549.5 C 423.17 538.67 422.83 533.67 426.5 536.5 C 430.17 539.33 436.67 554.83 441.5 566.5 C 446.33 578.17 455.83 608.33 455.5 606.5 C 455.17 604.67 445.33 569.33 439.5 555.5 C 433.67 541.67 423.5 529.5 420.5 523.5 C 417.5 517.5 422.67 521.67 421.5 519.5 C 420.33 517.33 413.67 509.67 413.5 510.5 Z M 43.5 481.5 C 43 481.67 40.5 489.17 40.5 490.5 C 40.5 491.83 43 491 43.5 489.5 C 44 488 44 481.33 43.5 481.5 Z M 43.5 379.5 C 43 379.67 40.5 392.17 40.5 394.5 C 40.5 396.83 43 396 43.5 393.5 C 44 391 44 379.33 43.5 379.5 Z M 244.5 339.5 C 245.17 340.83 251 347.5 251.5 347.5 C 252 347.5 248.67 340.83 247.5 339.5 C 246.33 338.17 243.83 338.17 244.5 339.5 Z M 207.5 280.5 C 206.83 280.17 207.67 286 208.5 287.5 C 209.33 289 212.67 290.67 212.5 289.5 C 212.33 288.33 208.17 280.83 207.5 280.5 Z M 198.5 258.5 C 197.67 258 198.5 265.5 199.5 267.5 C 200.5 269.5 204.67 272 204.5 270.5 C 204.33 269 199.33 259 198.5 258.5 Z M 144.5 108.5 C 143.17 109.67 134 123 133.5 124.5 C 133 126 139.67 120.17 141.5 117.5 C 143.33 114.83 145.83 107.33 144.5 108.5 Z"/>
  </g>
</svg>
