<svg xmlns="http://www.w3.org/2000/svg" width="899" height="921" viewBox="0 0 899 921" role="img" aria-labelledby="title desc">
  <title id="title">Nur logo loop frame 085</title>
  <desc id="desc">Vector-traced frame from Nur_Logo_Loop_02.gif.</desc>
  <g id="frame-085" stroke-linejoin="round" stroke-linecap="round" stroke-width="0.5" shape-rendering="geometricPrecision">
    <path fill="#008136" stroke="#008136" d="M 194.5 50.5 C 186.5 59.5 164.83 88.67 148.5 113.5 C 132.17 138.33 108 179.17 96.5 199.5 C 85 219.83 86.33 217.33 79.5 235.5 C 72.67 253.67 61.33 284.67 55.5 308.5 C 49.67 332.33 47 352 44.5 378.5 C 42 405 39.83 443.17 40.5 467.5 C 41.17 491.83 46.67 514.83 48.5 524.5 C 50.33 534.17 51 522.83 51.5 525.5 C 52 528.17 48.17 525.67 51.5 540.5 C 54.83 555.33 64 593 71.5 614.5 C 79 636 85.17 649.17 96.5 669.5 C 107.83 689.83 124.17 716 139.5 736.5 C 154.83 757 171.67 776 188.5 792.5 C 205.33 809 222.67 823.17 240.5 835.5 C 258.33 847.83 273.83 856.83 295.5 866.5 C 317.17 876.17 345.83 886.67 370.5 893.5 C 395.17 900.33 423 905.17 443.5 907.5 C 464 909.83 486.67 911.67 493.5 907.5 C 500.33 903.33 487.17 893.17 484.5 882.5 C 481.83 871.83 478.83 857.67 477.5 843.5 C 476.17 829.33 477.33 808.67 476.5 797.5 C 475.67 786.33 472.83 785.83 472.5 776.5 C 472.17 767.17 475.33 760.33 474.5 741.5 C 473.67 722.67 470.5 686.67 467.5 663.5 C 464.5 640.33 459.83 617.67 456.5 602.5 C 453.17 587.33 452.33 584.67 447.5 572.5 C 442.67 560.33 436 544.5 427.5 529.5 C 419 514.5 420 506.83 396.5 482.5 C 373 458.17 310.5 406.5 286.5 383.5 C 262.5 360.5 265.33 361.83 252.5 344.5 C 239.67 327.17 219.83 300.5 209.5 279.5 C 199.17 258.5 194.83 237.33 190.5 218.5 C 186.17 199.67 184.83 180.5 183.5 166.5 C 182.17 152.5 181 148.5 182.5 134.5 C 184 120.5 191 93 192.5 82.5 C 194 72 191.17 73.5 191.5 71.5 C 191.83 69.5 193.67 72.5 194.5 70.5 C 195.33 68.5 196.5 62.83 196.5 59.5 C 196.5 56.17 202.5 41.5 194.5 50.5 Z"/>
    <path fill="#83bb26" stroke="#83bb26" d="M 439.5 504.5 C 438.83 502.83 423.83 514.5 421.5 518.5 C 419.17 522.5 422.5 530.83 425.5 528.5 C 428.5 526.17 440.17 506.17 439.5 504.5 Z M 683.5 26.5 C 668.33 16.17 673.17 21.33 680.5 29.5 C 687.83 37.67 713.67 58.5 727.5 75.5 C 741.33 92.5 754.5 115.17 763.5 131.5 C 772.5 147.83 777.5 158.83 781.5 173.5 C 785.5 188.17 787.17 206.83 787.5 219.5 C 787.83 232.17 785.5 240.33 783.5 249.5 C 781.5 258.67 781.5 263.33 775.5 274.5 C 769.5 285.67 761.83 300.83 747.5 316.5 C 733.17 332.17 710.17 353.17 689.5 368.5 C 668.83 383.83 631.33 388 623.5 408.5 C 615.67 429 638.83 463.33 642.5 491.5 C 646.17 519.67 645.83 556.83 645.5 577.5 C 645.17 598.17 634.33 613 640.5 615.5 C 646.67 618 666 603 682.5 592.5 C 699 582 722.67 565.5 739.5 552.5 C 756.33 539.5 772.5 524.83 783.5 514.5 C 794.5 504.17 797 501.5 805.5 490.5 C 814 479.5 826.5 461.83 834.5 448.5 C 842.5 435.17 848.17 423.17 853.5 410.5 C 858.83 397.83 863.17 385.83 866.5 372.5 C 869.83 359.17 872.33 345.67 873.5 330.5 C 874.67 315.33 874.33 295.17 873.5 281.5 C 872.67 267.83 871.33 259.83 868.5 248.5 C 865.67 237.17 862 226 856.5 213.5 C 851 201 846.33 190.33 835.5 173.5 C 824.67 156.67 802.17 126.17 791.5 112.5 C 780.83 98.83 789.5 105.83 771.5 91.5 C 753.5 77.17 698.67 36.83 683.5 26.5 Z"/>
    <path fill="#6ab12d" stroke="#6ab12d" d="M 491.5 132.5 C 487.17 130.83 504.83 174.17 509.5 193.5 C 514.17 212.83 517.5 229.83 519.5 248.5 C 521.5 267.17 522 289.67 521.5 305.5 C 521 321.33 519.5 329.17 516.5 343.5 C 513.5 357.83 507.5 379.67 503.5 391.5 C 499.5 403.33 505.33 392.17 492.5 414.5 C 479.67 436.83 438.17 508 426.5 525.5 C 414.83 543 423.5 520 422.5 519.5 C 421.5 519 419.5 520.67 420.5 522.5 C 421.5 524.33 425.17 533.17 428.5 530.5 C 431.83 527.83 434 513.83 440.5 506.5 C 447 499.17 455.5 493.83 467.5 486.5 C 479.5 479.17 486.67 474.67 512.5 462.5 C 538.33 450.33 601.33 410.5 622.5 413.5 C 643.67 416.5 635.83 458 639.5 480.5 C 643.17 503 644.5 526.17 644.5 548.5 C 644.5 570.83 650.5 598.5 639.5 614.5 C 628.5 630.5 596.5 634.67 578.5 644.5 C 560.5 654.33 543.83 665.17 531.5 673.5 C 519.17 681.83 511.83 688.17 504.5 694.5 C 497.17 700.83 491.5 706.5 487.5 711.5 C 483.5 716.5 482.83 718.17 480.5 724.5 C 478.17 730.83 474.17 733.83 473.5 749.5 C 472.83 765.17 472.67 792 476.5 818.5 C 480.33 845 481.67 910.67 496.5 908.5 C 511.33 906.33 547.83 834.33 565.5 805.5 C 583.17 776.67 592 759 602.5 735.5 C 613 712 621.83 685 628.5 664.5 C 635.17 644 639.5 626.67 642.5 612.5 C 645.5 598.33 646.33 600 646.5 579.5 C 646.67 559 645.17 511 643.5 489.5 C 641.83 468 642.33 471.67 636.5 450.5 C 630.67 429.33 618.5 389.83 608.5 362.5 C 598.5 335.17 588.67 313 576.5 286.5 C 564.33 260 549.67 229.17 535.5 203.5 C 521.33 177.83 495.83 134.17 491.5 132.5 Z"/>
    <path fill="#009f3a" stroke="#009f3a" d="M 475.5 804.5 C 472.67 796.67 476.5 846 478.5 861.5 C 480.5 877 485.17 889.67 487.5 897.5 C 489.83 905.33 491.17 906.67 492.5 908.5 C 493.83 910.33 498.33 925.83 495.5 908.5 C 492.67 891.17 478.33 812.33 475.5 804.5 Z M 623.5 411.5 C 597.17 417.33 505.67 464.5 475.5 479.5 C 445.33 494.5 450.83 493.33 442.5 501.5 C 434.17 509.67 424.83 516.33 425.5 528.5 C 426.17 540.67 440.33 556 446.5 574.5 C 452.67 593 458 611.33 462.5 639.5 C 467 667.67 472 720.33 473.5 743.5 C 475 766.67 471.33 769.33 471.5 778.5 C 471.67 787.67 474 803 474.5 798.5 C 475 794 473.67 762.67 474.5 751.5 C 475.33 740.33 477.17 737.83 479.5 731.5 C 481.83 725.17 483 720.33 488.5 713.5 C 494 706.67 501.5 699.33 512.5 690.5 C 523.5 681.67 533.17 672.83 554.5 660.5 C 575.83 648.17 625.33 631.83 640.5 616.5 C 655.67 601.17 645.17 588.67 645.5 568.5 C 645.83 548.33 644.5 516.17 642.5 495.5 C 640.5 474.83 636.67 458.5 633.5 444.5 C 630.33 430.5 649.83 405.67 623.5 411.5 Z"/>
    <path fill="#007a39" stroke="#007a39" d="M 424.5 530.5 C 416.33 533.67 404.83 582 399.5 599.5 C 394.17 617 393.67 625.17 392.5 635.5 C 391.33 645.83 389.17 644.83 392.5 661.5 C 395.83 678.17 398.17 699.33 412.5 735.5 C 426.83 771.67 467 854.67 478.5 878.5 C 490 902.33 482 884.5 481.5 878.5 C 481 872.5 477.17 868.17 475.5 842.5 C 473.83 816.83 473.67 758.17 471.5 724.5 C 469.33 690.83 466.33 664.5 462.5 640.5 C 458.67 616.5 454.83 598.83 448.5 580.5 C 442.17 562.17 432.67 527.33 424.5 530.5 Z M 259.5 352.5 C 258.5 352 259.33 356.17 260.5 357.5 C 261.67 358.83 266.67 361.33 266.5 360.5 C 266.33 359.67 260.5 353 259.5 352.5 Z M 208.5 278.5 C 209 280.17 214 288.5 214.5 288.5 C 215 288.5 212.5 280.17 211.5 278.5 C 210.5 276.83 208 276.83 208.5 278.5 Z"/>
    <path fill="#007d38" stroke="#007d38" d="M 472.5 797.5 C 472.5 801.17 475 822.83 475.5 823.5 C 476 824.17 476 805.83 475.5 801.5 C 475 797.17 472.5 793.83 472.5 797.5 Z M 115.5 699.5 C 115.83 700.67 129.17 719.83 131.5 722.5 C 133.83 725.17 132.17 719.33 129.5 715.5 C 126.83 711.67 115.17 698.33 115.5 699.5 Z M 69.5 606.5 C 69.83 607.83 74.83 616.17 75.5 616.5 C 76.17 616.83 74.5 610.17 73.5 608.5 C 72.5 606.83 69.17 605.17 69.5 606.5 Z M 413.5 510.5 C 413.33 512 421.67 516 417.5 523.5 C 413.33 531 396.83 543.83 388.5 555.5 C 380.17 567.17 372.5 581 367.5 593.5 C 362.5 606 359.67 617.33 358.5 630.5 C 357.33 643.67 357.67 656.83 360.5 672.5 C 363.33 688.17 368.5 706.5 375.5 724.5 C 382.5 742.5 389.33 757.83 402.5 780.5 C 415.67 803.17 439.83 839.83 454.5 860.5 C 469.17 881.17 486.33 904.33 490.5 904.5 C 494.67 904.67 481.83 868 479.5 861.5 C 477.17 855 483.67 878.17 476.5 865.5 C 469.33 852.83 447 807.5 436.5 785.5 C 426 763.5 420 750.83 413.5 733.5 C 407 716.17 400.83 693.83 397.5 681.5 C 394.17 669.17 393.5 670.67 393.5 659.5 C 393.5 648.33 395.17 628 397.5 614.5 C 399.83 601 402.83 591.5 407.5 578.5 C 412.17 565.5 418.67 536 425.5 536.5 C 432.33 537 446.17 578.33 448.5 581.5 C 450.83 584.67 444.5 566.67 439.5 555.5 C 434.5 544.33 422.83 522 418.5 514.5 C 414.17 507 413.67 509 413.5 510.5 Z M 310.5 406.5 C 309.83 406.5 314.83 414 316.5 415.5 C 318.17 417 321.5 417 320.5 415.5 C 319.5 414 311.17 406.5 310.5 406.5 Z M 251.5 342.5 C 249.33 340.33 249.33 343.67 251.5 346.5 C 253.67 349.33 264.5 360.17 264.5 359.5 C 264.5 358.83 253.67 344.67 251.5 342.5 Z M 187.5 108.5 C 187 108.67 183.67 117.83 183.5 119.5 C 183.33 121.17 185.83 120.33 186.5 118.5 C 187.17 116.67 188 108.33 187.5 108.5 Z"/>
  </g>
</svg>
