<svg xmlns="http://www.w3.org/2000/svg" width="899" height="921" viewBox="0 0 899 921" role="img" aria-labelledby="title desc">
  <title id="title">Nur logo loop frame 051</title>
  <desc id="desc">Vector-traced frame from Nur_Logo_Loop_02.gif.</desc>
  <g id="frame-051" stroke-linejoin="round" stroke-linecap="round" stroke-width="0.5" shape-rendering="geometricPrecision">
    <path fill="#008136" stroke="#008136" d="M 212.5 59.5 C 202.33 70.5 173.33 102.67 155.5 127.5 C 137.67 152.33 117.33 187.33 105.5 208.5 C 93.67 229.67 91.33 236.5 84.5 254.5 C 77.67 272.5 70.5 292.17 64.5 316.5 C 58.5 340.83 51.83 375.67 48.5 400.5 C 45.17 425.33 43.67 442.17 44.5 465.5 C 45.33 488.83 49 515.67 53.5 540.5 C 58 565.33 64.33 593 71.5 614.5 C 78.67 636 85.17 649.17 96.5 669.5 C 107.83 689.83 124.17 716 139.5 736.5 C 154.83 757 171.67 776 188.5 792.5 C 205.33 809 222.67 823.17 240.5 835.5 C 258.33 847.83 273.83 856.83 295.5 866.5 C 317.17 876.17 345.83 886.67 370.5 893.5 C 395.17 900.33 423 905.17 443.5 907.5 C 464 909.83 486.67 911.67 493.5 907.5 C 500.33 903.33 487.17 893.17 484.5 882.5 C 481.83 871.83 479.17 866.67 477.5 843.5 C 475.83 820.33 476.17 773.5 474.5 743.5 C 472.83 713.5 470.5 687 467.5 663.5 C 464.5 640 460.83 620.17 456.5 602.5 C 452.17 584.83 450.67 576.5 441.5 557.5 C 432.33 538.5 427.83 519 401.5 488.5 C 375.17 458 308.67 400 283.5 374.5 C 258.33 349 261 349.5 250.5 335.5 C 240 321.5 226.67 301.33 220.5 290.5 C 214.33 279.67 215.33 274.33 213.5 270.5 C 211.67 266.67 210 268.83 209.5 267.5 C 209 266.17 211.67 266.33 210.5 262.5 C 209.33 258.67 205.17 253.17 202.5 244.5 C 199.83 235.83 196.17 224.17 194.5 210.5 C 192.83 196.83 191.83 180.17 192.5 162.5 C 193.17 144.83 194.5 121.33 198.5 104.5 C 202.5 87.67 214.17 69 216.5 61.5 C 218.83 54 222.67 48.5 212.5 59.5 Z"/>
    <path fill="#83bb26" stroke="#83bb26" d="M 447.5 493.5 C 446.17 491 422.83 509.33 419.5 515.5 C 416.17 521.67 422.83 534.17 427.5 530.5 C 432.17 526.83 448.83 496 447.5 493.5 Z M 651.5 37.5 C 641.33 32.5 647.33 37 646.5 37.5 C 645.67 38 637.33 33 646.5 40.5 C 655.67 48 688.67 71.83 701.5 82.5 C 714.33 93.17 716.33 96 723.5 104.5 C 730.67 113 736.67 119.67 744.5 133.5 C 752.33 147.33 765.17 174.17 770.5 187.5 C 775.83 200.83 775.5 204.83 776.5 213.5 C 777.5 222.17 778.33 228.67 776.5 239.5 C 774.67 250.33 771.5 265.83 765.5 278.5 C 759.5 291.17 753.83 301.17 740.5 315.5 C 727.17 329.83 706 349.33 685.5 364.5 C 665 379.67 626.17 390.83 617.5 406.5 C 608.83 422.17 629.67 443.83 633.5 458.5 C 637.33 473.17 638.83 480.83 640.5 494.5 C 642.17 508.17 643.5 521.67 643.5 540.5 C 643.5 559.33 636.33 598.67 640.5 607.5 C 644.67 616.33 655 601.67 668.5 593.5 C 682 585.33 704.5 571 721.5 558.5 C 738.5 546 757.67 530 770.5 518.5 C 783.33 507 789 501.17 798.5 489.5 C 808 477.83 819.17 462.33 827.5 448.5 C 835.83 434.67 842.83 420.33 848.5 406.5 C 854.17 392.67 858.5 378.17 861.5 365.5 C 864.5 352.83 865.67 344.33 866.5 330.5 C 867.33 316.67 867.33 296 866.5 282.5 C 865.67 269 864.83 261.83 861.5 249.5 C 858.17 237.17 852.5 221.17 846.5 208.5 C 840.5 195.83 839 190.67 825.5 173.5 C 812 156.33 785.17 123.17 765.5 105.5 C 745.83 87.83 726.5 78.83 707.5 67.5 C 688.5 56.17 661.67 42.5 651.5 37.5 Z"/>
    <path fill="#6ab12d" stroke="#6ab12d" d="M 638.5 611.5 C 632 604.17 598.67 628.67 583.5 636.5 C 568.33 644.33 559.67 650 547.5 658.5 C 535.33 667 520 679.33 510.5 687.5 C 501 695.67 495.17 701.83 490.5 707.5 C 485.83 713.17 485 713.83 482.5 721.5 C 480 729.17 476.67 743.33 475.5 753.5 C 474.33 763.67 472.33 759.33 475.5 782.5 C 478.67 805.67 492.67 876.33 494.5 892.5 C 496.33 908.67 488.33 881.17 486.5 879.5 C 484.67 877.83 482.33 877.83 483.5 882.5 C 484.67 887.17 490.33 904.67 493.5 907.5 C 496.67 910.33 494.67 910 502.5 899.5 C 510.33 889 525.17 868.83 540.5 844.5 C 555.83 820.17 580.83 780.83 594.5 753.5 C 608.17 726.17 615.17 704.17 622.5 680.5 C 629.83 656.83 645 618.83 638.5 611.5 Z M 475.5 136.5 C 471 134.17 488.83 164.83 494.5 181.5 C 500.17 198.17 506.17 219 509.5 236.5 C 512.83 254 514.33 268.83 514.5 286.5 C 514.67 304.17 512.83 325.5 510.5 342.5 C 508.17 359.5 505.17 374.33 500.5 388.5 C 495.83 402.67 494.67 404.33 482.5 427.5 C 470.33 450.67 437.83 512.67 427.5 527.5 C 417.17 542.33 422 517.83 420.5 516.5 C 419 515.17 417.17 516.33 418.5 519.5 C 419.83 522.67 426.17 532.67 428.5 535.5 C 430.83 538.33 427.5 544.17 432.5 536.5 C 437.5 528.83 445.5 502.33 458.5 489.5 C 471.5 476.67 484.17 472.5 510.5 459.5 C 536.83 446.5 596.5 412.5 616.5 411.5 C 636.5 410.5 626.83 440 630.5 453.5 C 634.17 467 636.5 476.83 638.5 492.5 C 640.5 508.17 642 528.17 642.5 547.5 C 643 566.83 641 604.83 641.5 608.5 C 642 612.17 645.5 588.83 645.5 569.5 C 645.5 550.17 645.67 519 641.5 492.5 C 637.33 466 628.33 435.5 620.5 410.5 C 612.67 385.5 607.83 372.67 594.5 342.5 C 581.17 312.33 552.67 254 540.5 229.5 C 528.33 205 532.33 211 521.5 195.5 C 510.67 180 480 138.83 475.5 136.5 Z"/>
    <path fill="#009f3a" stroke="#009f3a" d="M 618.5 410.5 C 597.33 409 533 447.17 508.5 458.5 C 484 469.83 480.67 473 471.5 478.5 C 462.33 484 460.33 482.17 453.5 491.5 C 446.67 500.83 435.17 528.17 430.5 534.5 C 425.83 540.83 422.83 522.83 425.5 529.5 C 428.17 536.17 440.33 556.17 446.5 574.5 C 452.67 592.83 458 611 462.5 639.5 C 467 668 471.17 711.17 473.5 745.5 C 475.83 779.83 474.83 822.33 476.5 845.5 C 478.17 868.67 480.83 874.17 483.5 884.5 C 486.17 894.83 490.67 904 492.5 907.5 C 494.33 911 495.17 908.17 494.5 905.5 C 493.83 902.83 488.33 892.17 488.5 891.5 C 488.67 890.83 494 900.83 495.5 901.5 C 497 902.17 500.67 915.67 497.5 895.5 C 494.33 875.33 480 803.83 476.5 780.5 C 473 757.17 475.33 765 476.5 755.5 C 477.67 746 481 731.17 483.5 723.5 C 486 715.83 482.83 718.5 491.5 709.5 C 500.17 700.5 521.33 680.67 535.5 669.5 C 549.67 658.33 559 652.33 576.5 642.5 C 594 632.67 629.33 621.33 640.5 610.5 C 651.67 599.67 643.5 596.17 643.5 577.5 C 643.5 558.83 641.83 516.83 640.5 498.5 C 639.17 480.17 639.17 482.17 635.5 467.5 C 631.83 452.83 639.67 412 618.5 410.5 Z"/>
    <path fill="#007a39" stroke="#007a39" d="M 428.5 540.5 C 425.5 542.67 422.5 550.67 418.5 563.5 C 414.5 576.33 407 599.67 404.5 617.5 C 402 635.33 399.83 648.5 403.5 670.5 C 407.17 692.5 414.5 718 426.5 749.5 C 438.5 781 466.83 841 475.5 859.5 C 484.17 878 479.17 883 478.5 860.5 C 477.83 838 474.17 761.17 471.5 724.5 C 468.83 687.83 466.33 664.5 462.5 640.5 C 458.67 616.5 452.83 595.5 448.5 580.5 C 444.17 565.5 439.83 557.17 436.5 550.5 C 433.17 543.83 431.5 538.33 428.5 540.5 Z"/>
    <path fill="#007d38" stroke="#007d38" d="M 115.5 699.5 C 115.83 700.67 129.17 719.83 131.5 722.5 C 133.83 725.17 132.17 719.33 129.5 715.5 C 126.83 711.67 115.17 698.33 115.5 699.5 Z M 456.5 618.5 C 457 622.17 462 643 462.5 643.5 C 463 644 460.5 625.67 459.5 621.5 C 458.5 617.33 456 614.83 456.5 618.5 Z M 417.5 521.5 C 411.5 528 393.5 548.67 385.5 560.5 C 377.5 572.33 373.67 580.83 369.5 592.5 C 365.33 604.17 361.5 616.5 360.5 630.5 C 359.5 644.5 360.83 661.67 363.5 676.5 C 366.17 691.33 368.5 700.67 376.5 719.5 C 384.5 738.33 400.67 770 411.5 789.5 C 422.33 809 430.17 820 441.5 836.5 C 452.83 853 471.83 878.83 479.5 888.5 C 487.17 898.17 488 899.67 487.5 894.5 C 487 889.33 478 864.33 476.5 857.5 C 475 850.67 478.67 854.33 478.5 853.5 C 478.33 852.67 476 856.5 475.5 852.5 C 475 848.5 475.67 829.83 475.5 829.5 C 475.33 829.17 482.5 864.17 474.5 850.5 C 466.5 836.83 439 776.83 427.5 747.5 C 416 718.17 409.17 695.83 405.5 674.5 C 401.83 653.17 403.17 637.67 405.5 619.5 C 407.83 601.33 415.33 578.17 419.5 565.5 C 423.67 552.83 424.5 536.67 430.5 543.5 C 436.5 550.33 454 604.5 455.5 606.5 C 457 608.5 445.17 569.67 439.5 555.5 C 433.83 541.33 425.17 527.17 421.5 521.5 C 417.83 515.83 423.5 515 417.5 521.5 Z M 89.5 250.5 C 88.83 250.83 83.83 258.33 83.5 259.5 C 83.17 260.67 86.5 259 87.5 257.5 C 88.5 256 90.17 250.17 89.5 250.5 Z M 201.5 241.5 C 200.83 241.17 200.83 245.33 201.5 246.5 C 202.17 247.67 205.5 249.33 205.5 248.5 C 205.5 247.67 202.17 241.83 201.5 241.5 Z M 114.5 198.5 C 114.83 196.67 112.83 196.67 111.5 198.5 C 110.17 200.33 106.83 207.67 106.5 209.5 C 106.17 211.33 108.17 211.33 109.5 209.5 C 110.83 207.67 114.17 200.33 114.5 198.5 Z M 216.5 58.5 C 216.33 57.5 211.33 60 210.5 61.5 C 209.67 63 210.5 68 211.5 67.5 C 212.5 67 216.67 59.5 216.5 58.5 Z"/>
  </g>
</svg>
