<svg xmlns="http://www.w3.org/2000/svg" width="899" height="921" viewBox="0 0 899 921" role="img" aria-labelledby="title desc">
  <title id="title">Nur logo loop frame 110</title>
  <desc id="desc">Vector-traced frame from Nur_Logo_Loop_02.gif.</desc>
  <g id="frame-110" stroke-linejoin="round" stroke-linecap="round" stroke-width="0.5" shape-rendering="geometricPrecision">
    <path fill="#008136" stroke="#008136" d="M 207.5 51.5 C 200.33 59.83 184 79.33 166.5 105.5 C 149 131.67 117.17 182.17 102.5 208.5 C 87.83 234.83 85.17 245.67 78.5 263.5 C 71.83 281.33 67.5 293.5 62.5 315.5 C 57.5 337.5 51.5 370.5 48.5 395.5 C 45.5 420.5 43.67 441.33 44.5 465.5 C 45.33 489.67 49 515.67 53.5 540.5 C 58 565.33 64.33 593 71.5 614.5 C 78.67 636 85.17 649.17 96.5 669.5 C 107.83 689.83 124.17 716 139.5 736.5 C 154.83 757 171.67 776 188.5 792.5 C 205.33 809 222.67 823.17 240.5 835.5 C 258.33 847.83 273.83 856.83 295.5 866.5 C 317.17 876.17 345.83 886.67 370.5 893.5 C 395.17 900.33 423 905.17 443.5 907.5 C 464 909.83 486.67 911.67 493.5 907.5 C 500.33 903.33 487.17 893.17 484.5 882.5 C 481.83 871.83 479 864.17 477.5 843.5 C 476 822.83 477.17 788.5 475.5 758.5 C 473.83 728.5 470.67 689.5 467.5 663.5 C 464.33 637.5 460.83 620.17 456.5 602.5 C 452.17 584.83 450.67 576.5 441.5 557.5 C 432.33 538.5 412.83 505 401.5 488.5 C 390.17 472 388.33 472.67 373.5 458.5 C 358.67 444.33 331.5 422 312.5 403.5 C 293.5 385 274 364.5 259.5 347.5 C 245 330.5 233.33 314.17 225.5 301.5 C 217.67 288.83 215.17 276.67 212.5 271.5 C 209.83 266.33 212.83 281.17 209.5 270.5 C 206.17 259.83 195.83 225.5 192.5 207.5 C 189.17 189.5 189.5 177 189.5 162.5 C 189.5 148 189.17 138.33 192.5 120.5 C 195.83 102.67 207 67 209.5 55.5 C 212 44 214.67 43.17 207.5 51.5 Z"/>
    <path fill="#83bb26" stroke="#83bb26" d="M 446.5 495.5 C 445.33 493 423.67 509.67 420.5 515.5 C 417.33 521.33 423.17 533.83 427.5 530.5 C 431.83 527.17 447.67 498 446.5 495.5 Z M 662.5 31.5 C 652.67 26.17 650.67 25.5 659.5 34.5 C 668.33 43.5 699.83 67.83 715.5 85.5 C 731.17 103.17 743.67 123.5 753.5 140.5 C 763.33 157.5 770.17 175.67 774.5 187.5 C 778.83 199.33 778.67 202.83 779.5 211.5 C 780.33 220.17 781 229.17 779.5 239.5 C 778 249.83 776.67 260.67 770.5 273.5 C 764.33 286.33 756.5 301 742.5 316.5 C 728.5 332 706.83 351.5 686.5 366.5 C 666.17 381.5 627.83 385 620.5 406.5 C 613.17 428 638.33 467.17 642.5 495.5 C 646.67 523.83 645.67 557.5 645.5 576.5 C 645.33 595.5 634 608.5 641.5 609.5 C 649 610.5 674.33 592.67 690.5 582.5 C 706.67 572.33 723.33 560.33 738.5 548.5 C 753.67 536.67 770 522.5 781.5 511.5 C 793 500.5 798.67 494.17 807.5 482.5 C 816.33 470.83 826.83 455.17 834.5 441.5 C 842.17 427.83 848.17 415.33 853.5 400.5 C 858.83 385.67 863.83 366.83 866.5 352.5 C 869.17 338.17 869.17 327.17 869.5 314.5 C 869.83 301.83 869.83 288.67 868.5 276.5 C 867.17 264.33 865.67 254.5 861.5 241.5 C 857.33 228.5 850.17 211.33 843.5 198.5 C 836.83 185.67 834.17 180.5 821.5 164.5 C 808.83 148.5 784.67 118.83 767.5 102.5 C 750.33 86.17 736 78.33 718.5 66.5 C 701 54.67 672.33 36.83 662.5 31.5 Z"/>
    <path fill="#6ab12d" stroke="#6ab12d" d="M 640.5 612.5 C 632.17 608.67 596 632.17 578.5 641.5 C 561 650.83 548.5 659.33 535.5 668.5 C 522.5 677.67 509.5 687.83 500.5 696.5 C 491.5 705.17 485.83 712 481.5 720.5 C 477.17 729 475.5 734.83 474.5 747.5 C 473.5 760.17 472.17 769.67 475.5 796.5 C 478.83 823.33 490.83 889.83 494.5 908.5 C 498.17 927.17 488 922 497.5 908.5 C 507 895 535.33 853.33 551.5 827.5 C 567.67 801.67 581.67 780.67 594.5 753.5 C 607.33 726.33 620.83 688 628.5 664.5 C 636.17 641 648.83 616.33 640.5 612.5 Z M 484.5 135.5 C 481 135 498.5 174.67 503.5 193.5 C 508.5 212.33 512.33 229.33 514.5 248.5 C 516.67 267.67 516.83 293 516.5 308.5 C 516.17 324 515.17 328 512.5 341.5 C 509.83 355 505.5 375.17 500.5 389.5 C 495.5 403.83 494.33 404.83 482.5 427.5 C 470.67 450.17 438.83 509 429.5 525.5 C 420.17 542 427.83 528 426.5 526.5 C 425.17 525 422.67 517.33 421.5 516.5 C 420.33 515.67 418.67 518.83 419.5 521.5 C 420.33 524.17 424.5 530.33 426.5 532.5 C 428.5 534.67 427.33 540.5 431.5 534.5 C 435.67 528.5 444.83 505.17 451.5 496.5 C 458.17 487.83 462.33 488 471.5 482.5 C 480.67 477 481.83 475 506.5 463.5 C 531.17 452 598.67 415.83 619.5 413.5 C 640.33 411.17 628 436.17 631.5 449.5 C 635 462.83 638.5 479.5 640.5 493.5 C 642.5 507.5 643.17 514 643.5 533.5 C 643.83 553 642 603 642.5 610.5 C 643 618 646.33 598 646.5 578.5 C 646.67 559 647.33 521.33 643.5 493.5 C 639.67 465.67 630.5 435 623.5 411.5 C 616.5 388 612.67 378.33 601.5 352.5 C 590.33 326.67 569.33 282.5 556.5 256.5 C 543.67 230.5 536.5 216.67 524.5 196.5 C 512.5 176.33 488 136 484.5 135.5 Z"/>
    <path fill="#009f3a" stroke="#009f3a" d="M 473.5 763.5 C 473.33 770.83 476.5 840.17 478.5 861.5 C 480.5 882.83 482.83 883.83 485.5 891.5 C 488.17 899.17 492.67 906 494.5 907.5 C 496.33 909 499 915.5 496.5 900.5 C 494 885.5 483.33 840.33 479.5 817.5 C 475.67 794.67 473.67 756.17 473.5 763.5 Z M 620.5 411.5 C 598.67 412 532.83 448.67 504.5 462.5 C 476.17 476.33 462.67 483.17 450.5 494.5 C 438.33 505.83 435.17 524.17 431.5 530.5 C 427.83 536.83 429.5 532.67 428.5 532.5 C 427.5 532.33 422.5 522.5 425.5 529.5 C 428.5 536.5 441 559.67 446.5 574.5 C 452 589.33 455 601.83 458.5 618.5 C 462 635.17 465 651 467.5 674.5 C 470 698 471 751.5 473.5 759.5 C 476 767.5 477.67 732.83 482.5 722.5 C 487.33 712.17 489 709.17 502.5 697.5 C 516 685.83 540.33 666.67 563.5 652.5 C 586.67 638.33 628 623.67 641.5 612.5 C 655 601.33 644.33 604.17 644.5 585.5 C 644.67 566.83 644 521.5 642.5 500.5 C 641 479.5 639.17 474.33 635.5 459.5 C 631.83 444.67 642.33 411 620.5 411.5 Z"/>
    <path fill="#007a39" stroke="#007a39" d="M 425.5 533.5 C 420 541.5 408.33 580.33 403.5 598.5 C 398.67 616.67 397.5 631.33 396.5 642.5 C 395.5 653.67 396 655 397.5 665.5 C 399 676 402 692 405.5 705.5 C 409 719 411.5 728.33 418.5 746.5 C 425.5 764.67 437 792.17 447.5 814.5 C 458 836.83 476.83 875.83 481.5 880.5 C 486.17 885.17 477.17 868.5 475.5 842.5 C 473.83 816.5 473.67 758.17 471.5 724.5 C 469.33 690.83 466.33 664.5 462.5 640.5 C 458.67 616.5 452.83 595.5 448.5 580.5 C 444.17 565.5 440.33 558.33 436.5 550.5 C 432.67 542.67 431 525.5 425.5 533.5 Z M 78.5 270.5 C 78 270.67 74.67 277.33 74.5 278.5 C 74.33 279.67 76.83 278.83 77.5 277.5 C 78.17 276.17 79 270.33 78.5 270.5 Z"/>
    <path fill="#007d38" stroke="#007d38" d="M 473.5 829.5 C 473.67 832.5 477 850.83 477.5 851.5 C 478 852.17 477.17 837.17 476.5 833.5 C 475.83 829.83 473.33 826.5 473.5 829.5 Z M 115.5 699.5 C 115.83 700.67 129.17 719.83 131.5 722.5 C 133.83 725.17 132.17 719.33 129.5 715.5 C 126.83 711.67 115.17 698.33 115.5 699.5 Z M 456.5 618.5 C 457 622.17 462 643 462.5 643.5 C 463 644 460.5 625.67 459.5 621.5 C 458.5 617.33 456 614.83 456.5 618.5 Z M 418.5 521.5 C 412.5 526.33 397 543.33 388.5 555.5 C 380 567.67 372.5 582 367.5 594.5 C 362.5 607 360 620.33 358.5 630.5 C 357 640.67 357.67 646.5 358.5 655.5 C 359.33 664.5 360.5 673 363.5 684.5 C 366.5 696 370.17 709.17 376.5 724.5 C 382.83 739.83 391.5 758.5 401.5 776.5 C 411.5 794.5 421.67 811.33 436.5 832.5 C 451.33 853.67 483.33 898.67 490.5 903.5 C 497.67 908.33 481.83 867.5 479.5 861.5 C 477.17 855.5 481.67 875.67 476.5 867.5 C 471.33 859.33 458 833 448.5 812.5 C 439 792 427.33 766.33 419.5 744.5 C 411.67 722.67 405.17 698.17 401.5 681.5 C 397.83 664.83 397.33 656.33 397.5 644.5 C 397.67 632.67 400.17 622.17 402.5 610.5 C 404.83 598.83 407.33 586.5 411.5 574.5 C 415.67 562.5 422.5 539.83 427.5 538.5 C 432.5 537.17 436.83 555.17 441.5 566.5 C 446.17 577.83 455.83 608.33 455.5 606.5 C 455.17 604.67 444.67 568.83 439.5 555.5 C 434.33 542.17 428 532.17 424.5 526.5 C 421 520.83 424.5 516.67 418.5 521.5 Z M 246.5 332.5 C 248 335 260.5 350 261.5 350.5 C 262.5 351 255 338.5 252.5 335.5 C 250 332.5 245 330 246.5 332.5 Z M 239.5 322.5 C 240.17 323.83 246 330.5 246.5 330.5 C 247 330.5 243.67 323.83 242.5 322.5 C 241.33 321.17 238.83 321.17 239.5 322.5 Z M 224.5 299.5 C 223.17 298.17 223.17 301.5 224.5 303.5 C 225.83 305.5 232.5 312.17 232.5 311.5 C 232.5 310.83 225.83 300.83 224.5 299.5 Z M 78.5 269.5 C 77.83 270.17 75.33 277.67 75.5 278.5 C 75.67 279.33 79 276 79.5 274.5 C 80 273 79.17 268.83 78.5 269.5 Z M 86.5 250.5 C 85.83 250.83 80.83 259.17 80.5 260.5 C 80.17 261.83 83.5 260.17 84.5 258.5 C 85.5 256.83 87.17 250.17 86.5 250.5 Z M 193.5 118.5 C 193.33 117.67 189.17 120.17 188.5 121.5 C 187.83 122.83 188.67 127 189.5 126.5 C 190.33 126 193.67 119.33 193.5 118.5 Z M 170.5 104.5 C 171.17 102.33 169.33 102.17 167.5 104.5 C 165.67 106.83 160.17 116.33 159.5 118.5 C 158.83 120.67 161.67 119.83 163.5 117.5 C 165.33 115.17 169.83 106.67 170.5 104.5 Z M 207.5 53.5 C 206.67 52.67 203.17 54.83 202.5 56.5 C 201.83 58.17 202.67 62.67 203.5 63.5 C 204.33 64.33 206.83 63.17 207.5 61.5 C 208.17 59.83 208.33 54.33 207.5 53.5 Z"/>
  </g>
</svg>
