<svg xmlns="http://www.w3.org/2000/svg" width="899" height="921" viewBox="0 0 899 921" role="img" aria-labelledby="title desc">
  <title id="title">Nur logo loop frame 042</title>
  <desc id="desc">Vector-traced frame from Nur_Logo_Loop_02.gif.</desc>
  <g id="frame-042" stroke-linejoin="round" stroke-linecap="round" stroke-width="0.5" shape-rendering="geometricPrecision">
    <path fill="#008136" stroke="#008136" d="M 220.5 71.5 C 210.33 80.33 180.17 104.83 162.5 126.5 C 144.83 148.17 126.17 181.83 114.5 201.5 C 102.83 221.17 100.5 224.33 92.5 244.5 C 84.5 264.67 73.83 295.5 66.5 322.5 C 59.17 349.5 52.17 382.67 48.5 406.5 C 44.83 430.33 43.67 443.17 44.5 465.5 C 45.33 487.83 49 515.67 53.5 540.5 C 58 565.33 64.33 593 71.5 614.5 C 78.67 636 85.17 649.17 96.5 669.5 C 107.83 689.83 124.17 716 139.5 736.5 C 154.83 757 171.67 776 188.5 792.5 C 205.33 809 222.67 823.17 240.5 835.5 C 258.33 847.83 273.83 856.83 295.5 866.5 C 317.17 876.17 345.83 886.67 370.5 893.5 C 395.17 900.33 423 905.17 443.5 907.5 C 464 909.83 486.67 911.67 493.5 907.5 C 500.33 903.33 487.17 893.17 484.5 882.5 C 481.83 871.83 479.17 866.83 477.5 843.5 C 475.83 820.17 476.17 772.5 474.5 742.5 C 472.83 712.5 470.5 686.83 467.5 663.5 C 464.5 640.17 460.83 620.17 456.5 602.5 C 452.17 584.83 447.83 572.17 441.5 557.5 C 435.17 542.83 427 528.17 418.5 514.5 C 410 500.83 408.17 494 390.5 475.5 C 372.83 457 335.5 426.5 312.5 403.5 C 289.5 380.5 269.67 361.17 252.5 337.5 C 235.33 313.83 216.5 275.17 209.5 261.5 C 202.5 247.83 212.67 264.17 210.5 255.5 C 208.33 246.83 198.33 229.83 196.5 209.5 C 194.67 189.17 197.33 152.67 199.5 133.5 C 201.67 114.33 205.5 104.5 209.5 94.5 C 213.5 84.5 221.67 77.33 223.5 73.5 C 225.33 69.67 230.67 62.67 220.5 71.5 Z"/>
    <path fill="#83bb26" stroke="#83bb26" d="M 450.5 488.5 C 449 485.83 422.33 507.5 418.5 514.5 C 414.67 521.5 422.17 534.83 427.5 530.5 C 432.83 526.17 452 491.17 450.5 488.5 Z M 627.5 46.5 C 625.83 47.83 627.33 51.33 639.5 59.5 C 651.67 67.67 685.83 85.33 700.5 95.5 C 715.17 105.67 717.83 107.67 727.5 120.5 C 737.17 133.33 751 155.67 758.5 172.5 C 766 189.33 770.5 208.67 772.5 221.5 C 774.5 234.33 772 240.83 770.5 249.5 C 769 258.17 768.67 263.17 763.5 273.5 C 758.33 283.83 752.33 297.17 739.5 311.5 C 726.67 325.83 702.5 346.67 686.5 359.5 C 670.5 372.33 655.83 381 643.5 388.5 C 631.17 396 613.83 388.33 612.5 404.5 C 611.17 420.67 630.83 462.5 635.5 485.5 C 640.17 508.5 640 522.67 640.5 542.5 C 641 562.33 628.83 599.83 638.5 604.5 C 648.17 609.17 680.5 582.17 698.5 570.5 C 716.5 558.83 732.17 546.33 746.5 534.5 C 760.83 522.67 773.83 510.67 784.5 499.5 C 795.17 488.33 802.17 479.33 810.5 467.5 C 818.83 455.67 827.17 443.33 834.5 428.5 C 841.83 413.67 850 392.33 854.5 378.5 C 859 364.67 860 358.5 861.5 345.5 C 863 332.5 863.83 315.33 863.5 300.5 C 863.17 285.67 862.5 271 859.5 256.5 C 856.5 242 851.83 227.33 845.5 213.5 C 839.17 199.67 833.17 189 821.5 173.5 C 809.83 158 793.17 135.67 775.5 120.5 C 757.83 105.33 736.5 94 715.5 82.5 C 694.5 71 664.17 57.5 649.5 51.5 C 634.83 45.5 629.17 45.17 627.5 46.5 Z"/>
    <path fill="#6ab12d" stroke="#6ab12d" d="M 464.5 142.5 C 459 140.17 480.67 168.17 487.5 184.5 C 494.33 200.83 501.83 225.83 505.5 240.5 C 509.17 255.17 509.17 254.83 509.5 272.5 C 509.83 290.17 509.67 325.33 507.5 346.5 C 505.33 367.67 509.5 369.67 496.5 399.5 C 483.5 429.33 441.17 504.33 429.5 525.5 C 417.83 546.67 428.17 528.33 426.5 526.5 C 424.83 524.67 421 516 419.5 514.5 C 418 513 416 514 417.5 517.5 C 419 521 426.17 532.5 428.5 535.5 C 430.83 538.5 427.33 542.67 431.5 535.5 C 435.67 528.33 448.33 501.33 453.5 492.5 C 458.67 483.67 453.17 488.67 462.5 482.5 C 471.83 476.33 484.67 467.67 509.5 455.5 C 534.33 443.33 591 405.83 611.5 409.5 C 632 413.17 627.83 453.83 632.5 477.5 C 637.17 501.17 638.83 530.17 639.5 551.5 C 640.17 572.83 646.17 592 636.5 605.5 C 626.83 619 597.17 623.83 581.5 632.5 C 565.83 641.17 553.67 649.5 542.5 657.5 C 531.33 665.5 524.33 670.67 514.5 680.5 C 504.67 690.33 489.83 706.5 483.5 716.5 C 477.17 726.5 478 731.17 476.5 740.5 C 475 749.83 471.5 747.17 474.5 772.5 C 477.5 797.83 492.5 874.83 494.5 892.5 C 496.5 910.17 488.33 880.83 486.5 878.5 C 484.67 876.17 482.5 873.83 483.5 878.5 C 484.5 883.17 490.33 901.67 492.5 906.5 C 494.67 911.33 482.5 927.33 496.5 907.5 C 510.5 887.67 558.33 817.67 576.5 787.5 C 594.67 757.33 597.67 745.67 605.5 726.5 C 613.33 707.33 617.83 692.67 623.5 672.5 C 629.17 652.33 636.5 627.5 639.5 605.5 C 642.5 583.5 642 560.83 641.5 540.5 C 641 520.17 638.83 499.5 636.5 483.5 C 634.17 467.5 633.33 463.5 627.5 444.5 C 621.67 425.5 611.5 395.5 601.5 369.5 C 591.5 343.5 581 317 567.5 288.5 C 554 260 537.67 222.83 520.5 198.5 C 503.33 174.17 470 144.83 464.5 142.5 Z"/>
    <path fill="#009f3a" stroke="#009f3a" d="M 474.5 771.5 C 471.5 766.33 476.17 840.17 478.5 861.5 C 480.83 882.83 485.83 891.83 488.5 899.5 C 491.17 907.17 494.5 908.83 494.5 907.5 C 494.5 906.17 488.5 893 488.5 891.5 C 488.5 890 493.17 898.33 494.5 898.5 C 495.83 898.67 499.83 913.67 496.5 892.5 C 493.17 871.33 477.5 776.67 474.5 771.5 Z M 613.5 408.5 C 592.17 403 533.83 441.67 507.5 454.5 C 481.17 467.33 468.17 472.67 455.5 485.5 C 442.83 498.33 436.5 524.17 431.5 531.5 C 426.5 538.83 423 522.33 425.5 529.5 C 428 536.67 441 559.67 446.5 574.5 C 452 589.33 455 601.83 458.5 618.5 C 462 635.17 465 649.5 467.5 674.5 C 470 699.5 470.67 761.17 473.5 768.5 C 476.33 775.83 477.33 733 484.5 718.5 C 491.67 704 502.83 694 516.5 681.5 C 530.17 669 546.33 655.83 566.5 643.5 C 586.67 631.17 625.17 623.17 637.5 607.5 C 649.83 591.83 640.83 569.5 640.5 549.5 C 640.17 529.5 640 511 635.5 487.5 C 631 464 634.83 414 613.5 408.5 Z"/>
    <path fill="#007a39" stroke="#007a39" d="M 428.5 540.5 C 423.67 550 411.67 587 407.5 607.5 C 403.33 628 400.83 641.5 403.5 663.5 C 406.17 685.5 414.83 714 423.5 739.5 C 432.17 765 446.33 796.33 455.5 816.5 C 464.67 836.67 475.83 875.83 478.5 860.5 C 481.17 845.17 474.17 761.17 471.5 724.5 C 468.83 687.83 466.33 664.5 462.5 640.5 C 458.67 616.5 452.83 595.5 448.5 580.5 C 444.17 565.5 439.83 557.17 436.5 550.5 C 433.17 543.83 433.33 531 428.5 540.5 Z"/>
    <path fill="#007d38" stroke="#007d38" d="M 115.5 699.5 C 115.83 700.67 129.17 719.83 131.5 722.5 C 133.83 725.17 132.17 719.33 129.5 715.5 C 126.83 711.67 115.17 698.33 115.5 699.5 Z M 456.5 618.5 C 457 622.17 462 643 462.5 643.5 C 463 644 460.5 625.67 459.5 621.5 C 458.5 617.33 456 614.83 456.5 618.5 Z M 416.5 518.5 C 410.17 523.5 394.67 543.83 386.5 556.5 C 378.33 569.17 371.83 583 367.5 594.5 C 363.17 606 361.33 613 360.5 625.5 C 359.67 638 359.83 653.83 362.5 669.5 C 365.17 685.17 371.33 704.83 376.5 719.5 C 381.67 734.17 384.5 740.67 393.5 757.5 C 402.5 774.33 416.17 798.67 430.5 820.5 C 444.83 842.33 470.33 876.5 479.5 888.5 C 488.67 900.5 486 897.67 485.5 892.5 C 485 887.33 477.67 864 476.5 857.5 C 475.33 851 478.67 854.33 478.5 853.5 C 478.33 852.67 476 856.5 475.5 852.5 C 475 848.5 475.67 829.83 475.5 829.5 C 475.33 829.17 481.83 862.83 474.5 850.5 C 467.17 838.17 442.5 783.67 431.5 755.5 C 420.5 727.33 412.83 697 408.5 681.5 C 404.17 666 405.83 672.5 405.5 662.5 C 405.17 652.5 404.5 636.17 406.5 621.5 C 408.5 606.83 413.5 587.5 417.5 574.5 C 421.5 561.5 424.17 538.17 430.5 543.5 C 436.83 548.83 454 604.5 455.5 606.5 C 457 608.5 444.67 568.83 439.5 555.5 C 434.33 542.17 428.33 532.67 424.5 526.5 C 420.67 520.33 422.83 513.5 416.5 518.5 Z M 244.5 326.5 C 243.5 325.83 249.33 336.67 251.5 339.5 C 253.67 342.33 258.67 345.67 257.5 343.5 C 256.33 341.33 245.5 327.17 244.5 326.5 Z M 163.5 127.5 C 162.67 128 158.5 133.83 158.5 134.5 C 158.5 135.17 162.67 132.67 163.5 131.5 C 164.33 130.33 164.33 127 163.5 127.5 Z"/>
  </g>
</svg>
