<svg xmlns="http://www.w3.org/2000/svg" width="899" height="921" viewBox="0 0 899 921" role="img" aria-labelledby="title desc">
  <title id="title">Nur logo loop frame 116</title>
  <desc id="desc">Vector-traced frame from Nur_Logo_Loop_02.gif.</desc>
  <g id="frame-116" stroke-linejoin="round" stroke-linecap="round" stroke-width="0.5" shape-rendering="geometricPrecision">
    <path fill="#008136" stroke="#008136" d="M 207.5 51.5 C 200.33 59.83 184 79.33 166.5 105.5 C 149 131.67 117.17 182.17 102.5 208.5 C 87.83 234.83 85.17 245.67 78.5 263.5 C 71.83 281.33 67.5 293.5 62.5 315.5 C 57.5 337.5 51.5 370.5 48.5 395.5 C 45.5 420.5 43.67 441.33 44.5 465.5 C 45.33 489.67 49 515.67 53.5 540.5 C 58 565.33 64.33 593 71.5 614.5 C 78.67 636 85.17 649.17 96.5 669.5 C 107.83 689.83 124.17 716 139.5 736.5 C 154.83 757 171.67 776 188.5 792.5 C 205.33 809 222.67 823.17 240.5 835.5 C 258.33 847.83 273.83 856.83 295.5 866.5 C 317.17 876.17 345.83 886.67 370.5 893.5 C 395.17 900.33 423 905.17 443.5 907.5 C 464 909.83 486.83 912.33 493.5 907.5 C 500.17 902.67 486.17 889.17 483.5 878.5 C 480.83 867.83 479 866 477.5 843.5 C 476 821 476.17 773.5 474.5 743.5 C 472.83 713.5 470.5 687 467.5 663.5 C 464.5 640 460.83 620.17 456.5 602.5 C 452.17 584.83 450.67 576.5 441.5 557.5 C 432.33 538.5 412.83 505 401.5 488.5 C 390.17 472 388.33 472.67 373.5 458.5 C 358.67 444.33 331.5 422 312.5 403.5 C 293.5 385 274 364.5 259.5 347.5 C 245 330.5 233.33 314.17 225.5 301.5 C 217.67 288.83 215.17 276.67 212.5 271.5 C 209.83 266.33 212.83 281.17 209.5 270.5 C 206.17 259.83 195.83 225.5 192.5 207.5 C 189.17 189.5 189.5 177 189.5 162.5 C 189.5 148 189.17 138.33 192.5 120.5 C 195.83 102.67 207 67 209.5 55.5 C 212 44 214.67 43.17 207.5 51.5 Z"/>
    <path fill="#83bb26" stroke="#83bb26" d="M 446.5 495.5 C 445.33 493 423.67 509.67 420.5 515.5 C 417.33 521.33 423.17 533.83 427.5 530.5 C 431.83 527.17 447.67 498 446.5 495.5 Z M 662.5 31.5 C 652.67 26.17 650.67 25.5 659.5 34.5 C 668.33 43.5 699.83 67.83 715.5 85.5 C 731.17 103.17 743.67 123.5 753.5 140.5 C 763.33 157.5 770.17 175.67 774.5 187.5 C 778.83 199.33 778.67 202.83 779.5 211.5 C 780.33 220.17 781 229.17 779.5 239.5 C 778 249.83 776.67 260.67 770.5 273.5 C 764.33 286.33 756.5 301 742.5 316.5 C 728.5 332 707 351.33 686.5 366.5 C 666 381.67 628.33 394 619.5 407.5 C 610.67 421 629.67 433.83 633.5 447.5 C 637.33 461.17 640.5 476.33 642.5 489.5 C 644.5 502.67 645 510 645.5 526.5 C 646 543 646 574.83 645.5 588.5 C 645 602.17 636.33 608.67 642.5 608.5 C 648.67 608.33 666.5 597.5 682.5 587.5 C 698.5 577.5 722 561.17 738.5 548.5 C 755 535.83 770 522.5 781.5 511.5 C 793 500.5 798.67 494.17 807.5 482.5 C 816.33 470.83 826.83 455.17 834.5 441.5 C 842.17 427.83 848.17 415.33 853.5 400.5 C 858.83 385.67 863.83 366.83 866.5 352.5 C 869.17 338.17 869.17 327.17 869.5 314.5 C 869.83 301.83 869.83 288.67 868.5 276.5 C 867.17 264.33 865.67 254.5 861.5 241.5 C 857.33 228.5 850.17 211.33 843.5 198.5 C 836.83 185.67 834.17 180.5 821.5 164.5 C 808.83 148.5 784.67 118.83 767.5 102.5 C 750.33 86.17 736 78.33 718.5 66.5 C 701 54.67 672.33 36.83 662.5 31.5 Z"/>
    <path fill="#6ab12d" stroke="#6ab12d" d="M 640.5 612.5 C 632.83 608.33 599 630.83 582.5 639.5 C 566 648.17 554.33 655.67 541.5 664.5 C 528.67 673.33 514.33 685 505.5 692.5 C 496.67 700 492.33 704.83 488.5 709.5 C 484.67 714.17 484.5 715 482.5 720.5 C 480.5 726 477.83 733.83 476.5 742.5 C 475.17 751.17 473.83 759.17 474.5 772.5 C 475.17 785.83 476.83 800.67 480.5 822.5 C 484.17 844.33 494.67 891 496.5 903.5 C 498.33 916 492.67 898 491.5 897.5 C 490.33 897 489 898.67 489.5 900.5 C 490 902.33 493.17 907.17 494.5 908.5 C 495.83 909.83 497.33 909.17 497.5 908.5 C 497.67 907.83 494.67 906 495.5 904.5 C 496.33 903 493.17 912.33 502.5 899.5 C 511.83 886.67 536.17 851.83 551.5 827.5 C 566.83 803.17 581.67 780.67 594.5 753.5 C 607.33 726.33 620.83 688 628.5 664.5 C 636.17 641 648.17 616.67 640.5 612.5 Z M 484.5 135.5 C 481 135 498.5 174.67 503.5 193.5 C 508.5 212.33 512.33 229.33 514.5 248.5 C 516.67 267.67 516.83 293 516.5 308.5 C 516.17 324 515.17 328 512.5 341.5 C 509.83 355 505.5 375.17 500.5 389.5 C 495.5 403.83 494.33 404.83 482.5 427.5 C 470.67 450.17 438.83 509 429.5 525.5 C 420.17 542 427.83 528 426.5 526.5 C 425.17 525 422.67 517.33 421.5 516.5 C 420.33 515.67 418.33 518.33 419.5 521.5 C 420.67 524.67 426.5 533.17 428.5 535.5 C 430.5 537.83 427.67 541.83 431.5 535.5 C 435.33 529.17 445.83 505.67 451.5 497.5 C 457.17 489.33 456 492.33 465.5 486.5 C 475 480.67 482.83 474.83 508.5 462.5 C 534.17 450.17 598.5 413.33 619.5 412.5 C 640.5 411.67 630.83 444 634.5 457.5 C 638.17 471 639.83 480.17 641.5 493.5 C 643.17 506.83 644.17 518.17 644.5 537.5 C 644.83 556.83 643 604 643.5 609.5 C 644 615 647.17 587.33 647.5 570.5 C 647.83 553.67 646.83 526 645.5 508.5 C 644.17 491 642.83 481 639.5 465.5 C 636.17 450 631.83 434.33 625.5 415.5 C 619.17 396.67 613 379 601.5 352.5 C 590 326 569.33 282.5 556.5 256.5 C 543.67 230.5 536.5 216.67 524.5 196.5 C 512.5 176.33 488 136 484.5 135.5 Z"/>
    <path fill="#009f3a" stroke="#009f3a" d="M 474.5 771.5 C 471.17 763.83 475.67 839.17 478.5 861.5 C 481.33 883.83 488.17 897.83 491.5 905.5 C 494.83 913.17 501.33 929.83 498.5 907.5 C 495.67 885.17 477.83 779.17 474.5 771.5 Z M 621.5 411.5 C 600 412.5 531.5 450 506.5 461.5 C 481.5 473 480.83 474.83 471.5 480.5 C 462.17 486.17 457.17 486.83 450.5 495.5 C 443.83 504.17 435.67 526.83 431.5 532.5 C 427.33 538.17 423 522.5 425.5 529.5 C 428 536.5 441 559.67 446.5 574.5 C 452 589.33 455 601.83 458.5 618.5 C 462 635.17 465 649.5 467.5 674.5 C 470 699.5 470.83 760.5 473.5 768.5 C 476.17 776.5 480.83 732 483.5 722.5 C 486.17 713 485.5 716.33 489.5 711.5 C 493.5 706.67 495.17 703.33 507.5 693.5 C 519.83 683.67 541 666.17 563.5 652.5 C 586 638.83 628.83 623 642.5 611.5 C 656.17 600 645.5 603.5 645.5 583.5 C 645.5 563.5 644.17 512.83 642.5 491.5 C 640.83 470.17 639 468.83 635.5 455.5 C 632 442.17 643 410.5 621.5 411.5 Z"/>
    <path fill="#007a39" stroke="#007a39" d="M 425.5 533.5 C 421 544.83 406.33 585.33 401.5 601.5 C 396.67 617.67 397.33 619.17 396.5 630.5 C 395.67 641.83 395.33 657.33 396.5 669.5 C 397.67 681.67 398.5 686.83 403.5 703.5 C 408.5 720.17 412.83 738.33 426.5 769.5 C 440.17 800.67 477.33 878.33 485.5 890.5 C 493.67 902.67 477.83 870.17 475.5 842.5 C 473.17 814.83 473.67 758.17 471.5 724.5 C 469.33 690.83 466.33 664.5 462.5 640.5 C 458.67 616.5 454.17 598.33 448.5 580.5 C 442.83 562.67 432.33 541.33 428.5 533.5 C 424.67 525.67 430 522.17 425.5 533.5 Z M 78.5 270.5 C 78 270.67 74.67 277.33 74.5 278.5 C 74.33 279.67 76.83 278.83 77.5 277.5 C 78.17 276.17 79 270.33 78.5 270.5 Z"/>
    <path fill="#007d38" stroke="#007d38" d="M 473.5 829.5 C 473.67 832.5 477 850.83 477.5 851.5 C 478 852.17 477.17 837.17 476.5 833.5 C 475.83 829.83 473.33 826.5 473.5 829.5 Z M 115.5 699.5 C 115.83 700.67 129.17 719.83 131.5 722.5 C 133.83 725.17 132.17 719.33 129.5 715.5 C 126.83 711.67 115.17 698.33 115.5 699.5 Z M 456.5 618.5 C 457 622.17 462 643 462.5 643.5 C 463 644 460.5 625.67 459.5 621.5 C 458.5 617.33 456 614.83 456.5 618.5 Z M 418.5 521.5 C 411.83 527.5 392.5 551.17 384.5 562.5 C 376.5 573.83 374.5 578.83 370.5 589.5 C 366.5 600.17 361.83 612.67 360.5 626.5 C 359.17 640.33 359.83 656.67 362.5 672.5 C 365.17 688.33 370 704.67 376.5 721.5 C 383 738.33 390.17 753.5 401.5 773.5 C 412.83 793.5 430.17 821 444.5 841.5 C 458.83 862 481.67 893.17 487.5 896.5 C 493.33 899.83 481.33 866.17 479.5 861.5 C 477.67 856.83 485.17 884.17 476.5 868.5 C 467.83 852.83 439.5 795.33 427.5 767.5 C 415.5 739.67 409.5 718.17 404.5 701.5 C 399.5 684.83 398.67 679 397.5 667.5 C 396.33 656 396.67 643.17 397.5 632.5 C 398.33 621.83 397.5 619.33 402.5 603.5 C 407.5 587.67 418.67 537 427.5 537.5 C 436.33 538 453.5 603.5 455.5 606.5 C 457.5 609.5 444.67 568.83 439.5 555.5 C 434.33 542.17 428 532.17 424.5 526.5 C 421 520.83 425.17 515.5 418.5 521.5 Z M 246.5 332.5 C 248 335 260.5 350 261.5 350.5 C 262.5 351 255 338.5 252.5 335.5 C 250 332.5 245 330 246.5 332.5 Z M 239.5 322.5 C 240.17 323.83 246 330.5 246.5 330.5 C 247 330.5 243.67 323.83 242.5 322.5 C 241.33 321.17 238.83 321.17 239.5 322.5 Z M 224.5 299.5 C 223.17 298.17 223.17 301.5 224.5 303.5 C 225.83 305.5 232.5 312.17 232.5 311.5 C 232.5 310.83 225.83 300.83 224.5 299.5 Z M 78.5 269.5 C 77.83 270.17 75.33 277.67 75.5 278.5 C 75.67 279.33 79 276 79.5 274.5 C 80 273 79.17 268.83 78.5 269.5 Z M 86.5 250.5 C 85.83 250.83 80.83 259.17 80.5 260.5 C 80.17 261.83 83.5 260.17 84.5 258.5 C 85.5 256.83 87.17 250.17 86.5 250.5 Z M 193.5 118.5 C 193.33 117.67 189.17 120.17 188.5 121.5 C 187.83 122.83 188.67 127 189.5 126.5 C 190.33 126 193.67 119.33 193.5 118.5 Z M 170.5 104.5 C 171.17 102.33 169.33 102.17 167.5 104.5 C 165.67 106.83 160.17 116.33 159.5 118.5 C 158.83 120.67 161.67 119.83 163.5 117.5 C 165.33 115.17 169.83 106.67 170.5 104.5 Z M 207.5 53.5 C 206.67 52.67 203.17 54.83 202.5 56.5 C 201.83 58.17 202.67 62.67 203.5 63.5 C 204.33 64.33 206.83 63.17 207.5 61.5 C 208.17 59.83 208.33 54.33 207.5 53.5 Z"/>
  </g>
</svg>
