<svg xmlns="http://www.w3.org/2000/svg" width="899" height="921" viewBox="0 0 899 921" role="img" aria-labelledby="title desc">
  <title id="title">Nur logo loop frame 025</title>
  <desc id="desc">Vector-traced frame from Nur_Logo_Loop_02.gif.</desc>
  <g id="frame-025" stroke-linejoin="round" stroke-linecap="round" stroke-width="0.5" shape-rendering="geometricPrecision">
    <path fill="#008136" stroke="#008136" d="M 254.5 90.5 C 242.5 97.33 203.17 121.33 185.5 134.5 C 167.83 147.67 161.17 154 148.5 169.5 C 135.83 185 120 208.33 109.5 227.5 C 99 246.67 93 261 85.5 284.5 C 78 308 69.5 341.67 64.5 368.5 C 59.5 395.33 56.17 418.67 55.5 445.5 C 54.83 472.33 57.17 502.17 60.5 529.5 C 63.83 556.83 68.5 585.67 75.5 609.5 C 82.5 633.33 91 650.83 102.5 672.5 C 114 694.17 132.33 722 144.5 739.5 C 156.67 757 165.5 766.33 175.5 777.5 C 185.5 788.67 193.83 797 204.5 806.5 C 215.17 816 224.33 824.5 239.5 834.5 C 254.67 844.5 276 857.33 295.5 866.5 C 315 875.67 334.5 883 356.5 889.5 C 378.5 896 404.67 902.5 427.5 905.5 C 450.33 908.5 484 911.33 493.5 907.5 C 503 903.67 487.17 893 484.5 882.5 C 481.83 872 478.83 861.5 477.5 844.5 C 476.17 827.5 478.17 810.67 476.5 780.5 C 474.83 750.33 470.83 693.17 467.5 663.5 C 464.17 633.83 460.83 620.17 456.5 602.5 C 452.17 584.83 450.67 576.5 441.5 557.5 C 432.33 538.5 430.5 522 401.5 488.5 C 372.5 455 294.17 384.17 267.5 356.5 C 240.83 328.83 250 335.33 241.5 322.5 C 233 309.67 221.33 291.5 216.5 279.5 C 211.67 267.5 213.67 255.5 212.5 250.5 C 211.33 245.5 210 256.33 209.5 249.5 C 209 242.67 209 216.33 209.5 209.5 C 210 202.67 211 215.5 212.5 208.5 C 214 201.5 216.33 177.5 218.5 167.5 C 220.67 157.5 219 160.83 225.5 148.5 C 232 136.17 252.67 103.17 257.5 93.5 C 262.33 83.83 266.5 83.67 254.5 90.5 Z"/>
    <path fill="#83bb26" stroke="#83bb26" d="M 463.5 467.5 C 466.83 458.67 455.5 470.67 447.5 477.5 C 439.5 484.33 418.83 499.67 415.5 508.5 C 412.17 517.33 419.5 537.33 427.5 530.5 C 435.5 523.67 460.17 476.33 463.5 467.5 Z M 701.5 98.5 C 690.83 97.33 678 96.83 664.5 98.5 C 651 100.17 627.83 106.33 620.5 108.5 C 613.17 110.67 615.5 111.67 620.5 111.5 C 625.5 111.33 640 107.83 650.5 107.5 C 661 107.17 674.17 108.17 683.5 109.5 C 692.83 110.83 699.5 112.83 706.5 115.5 C 713.5 118.17 720.67 122.33 725.5 125.5 C 730.33 128.67 732.17 130.17 735.5 134.5 C 738.83 138.83 742.33 140.5 745.5 151.5 C 748.67 162.5 753.33 186 754.5 200.5 C 755.67 215 753.67 228.33 752.5 238.5 C 751.33 248.67 752 250 747.5 261.5 C 743 273 735.83 292.83 725.5 307.5 C 715.17 322.17 698.17 338.33 685.5 349.5 C 672.83 360.67 660.5 367.67 649.5 374.5 C 638.5 381.33 619.83 370.83 619.5 390.5 C 619.17 410.17 642 468.5 647.5 492.5 C 653 516.5 651.83 519.67 652.5 534.5 C 653.17 549.33 645 577.67 651.5 581.5 C 658 585.33 679.33 565.67 691.5 557.5 C 703.67 549.33 707.67 548 724.5 532.5 C 741.33 517 777.67 481 792.5 464.5 C 807.33 448 807.5 443.67 813.5 433.5 C 819.5 423.33 823.83 415.33 828.5 403.5 C 833.17 391.67 838.67 374 841.5 362.5 C 844.33 351 844.83 348.67 845.5 334.5 C 846.17 320.33 846.17 291.17 845.5 277.5 C 844.83 263.83 844.33 263 841.5 252.5 C 838.67 242 833 225.17 828.5 214.5 C 824 203.83 821.83 199.33 814.5 188.5 C 807.17 177.67 794.33 160.5 784.5 149.5 C 774.67 138.5 764.83 129.83 755.5 122.5 C 746.17 115.17 737.5 109.5 728.5 105.5 C 719.5 101.5 712.17 99.67 701.5 98.5 Z"/>
    <path fill="#6ab12d" stroke="#6ab12d" d="M 620.5 391.5 C 615.33 375.5 615.5 386.83 617.5 394.5 C 619.5 402.17 627.67 420.67 632.5 437.5 C 637.33 454.33 643.33 477.67 646.5 495.5 C 649.67 513.33 651 530.33 651.5 544.5 C 652 558.67 661 568.83 649.5 580.5 C 638 592.17 599.67 605 582.5 614.5 C 565.33 624 559 628 546.5 637.5 C 534 647 519.17 659.5 507.5 671.5 C 495.83 683.5 482.17 700.83 476.5 709.5 C 470.83 718.17 473.83 713 473.5 723.5 C 473.17 734 471.83 748.5 474.5 772.5 C 477.17 796.5 488.33 854 489.5 867.5 C 490.67 881 483.33 855.83 481.5 853.5 C 479.67 851.17 477.5 846.33 478.5 853.5 C 479.5 860.67 485 887.5 487.5 896.5 C 490 905.5 491 907 493.5 907.5 C 496 908 494.67 910 502.5 899.5 C 510.33 889 525.5 868.17 540.5 844.5 C 555.5 820.83 578.83 786.67 592.5 757.5 C 606.17 728.33 615 697.17 622.5 669.5 C 630 641.83 632.5 606.17 637.5 591.5 C 642.5 576.83 649.83 591.33 652.5 581.5 C 655.17 571.67 654.17 547.67 653.5 532.5 C 652.83 517.33 654 514 648.5 490.5 C 643 467 625.67 407.5 620.5 391.5 Z M 440.5 166.5 C 434.33 163.83 437.17 165.83 436.5 166.5 C 435.83 167.17 433.33 168.17 436.5 170.5 C 439.67 172.83 448.5 175.33 455.5 180.5 C 462.5 185.67 471.67 192.83 478.5 201.5 C 485.33 210.17 492.33 222.17 496.5 232.5 C 500.67 242.83 501.83 244.67 503.5 263.5 C 505.17 282.33 506.5 324 506.5 345.5 C 506.5 367 506.33 379.67 503.5 392.5 C 500.67 405.33 502.17 400 489.5 422.5 C 476.83 445 439.67 513 427.5 527.5 C 415.33 542 418.83 512.5 416.5 509.5 C 414.17 506.5 411 504.17 413.5 509.5 C 416 514.83 427.83 536.17 431.5 541.5 C 435.17 546.83 432 547.67 435.5 541.5 C 439 535.33 444.5 518.83 452.5 504.5 C 460.5 490.17 457.17 473.33 483.5 455.5 C 509.83 437.67 590.33 408.17 610.5 397.5 C 630.67 386.83 611.83 409.67 604.5 391.5 C 597.17 373.33 576 310.5 566.5 288.5 C 557 266.5 558.17 273.83 547.5 259.5 C 536.83 245.17 514.83 215.33 502.5 202.5 C 490.17 189.67 483.83 188.5 473.5 182.5 C 463.17 176.5 446.67 169.17 440.5 166.5 Z"/>
    <path fill="#009f3a" stroke="#009f3a" d="M 474.5 771.5 C 471.83 766.67 475.5 832.5 476.5 846.5 C 477.5 860.5 480.17 853.17 480.5 855.5 C 480.83 857.83 478.17 859.83 478.5 860.5 C 478.83 861.17 480.67 857 482.5 859.5 C 484.33 862 487.83 872.83 489.5 875.5 C 491.17 878.17 495 892.83 492.5 875.5 C 490 858.17 477.17 776.33 474.5 771.5 Z M 618.5 392.5 C 598.17 393 534.33 428.17 511.5 438.5 C 488.67 448.83 491.5 443.83 481.5 454.5 C 471.5 465.17 459.67 488.17 451.5 502.5 C 443.33 516.83 432.5 525.83 432.5 540.5 C 432.5 555.17 446.5 574 451.5 590.5 C 456.5 607 459.17 618.33 462.5 639.5 C 465.83 660.67 469.67 696 471.5 717.5 C 473.33 739 472.5 769.5 473.5 768.5 C 474.5 767.5 471.67 727.33 477.5 711.5 C 483.33 695.67 499 683.83 508.5 673.5 C 518 663.17 524.67 657.5 534.5 649.5 C 544.33 641.5 548.17 636.67 567.5 625.5 C 586.83 614.33 636.33 596.33 650.5 582.5 C 664.67 568.67 653.17 558.33 652.5 542.5 C 651.83 526.67 649.67 505.33 646.5 487.5 C 643.33 469.67 638.17 451.33 633.5 435.5 C 628.83 419.67 638.83 392 618.5 392.5 Z"/>
    <path fill="#007a39" stroke="#007a39" d="M 431.5 546.5 C 427.17 558 414 599 410.5 619.5 C 407 640 407.17 649.33 410.5 669.5 C 413.83 689.67 419.67 712.33 430.5 740.5 C 441.33 768.67 468.67 841.17 475.5 838.5 C 482.33 835.83 473.67 757.5 471.5 724.5 C 469.33 691.5 466.33 664.5 462.5 640.5 C 458.67 616.5 452.83 595.5 448.5 580.5 C 444.17 565.5 439.33 556.17 436.5 550.5 C 433.67 544.83 435.83 535 431.5 546.5 Z M 216.5 277.5 C 215.67 277 218.17 287.83 219.5 290.5 C 220.83 293.17 225 295.67 224.5 293.5 C 224 291.33 217.33 278 216.5 277.5 Z M 208.5 244.5 C 208 245.5 208 249.5 208.5 250.5 C 209 251.5 211 251.5 211.5 250.5 C 212 249.5 212 245.5 211.5 244.5 C 211 243.5 209 243.5 208.5 244.5 Z"/>
    <path fill="#007d38" stroke="#007d38" d="M 227.5 823.5 C 227.67 824.33 236 831 237.5 831.5 C 239 832 238.17 827.83 236.5 826.5 C 234.83 825.17 227.33 822.67 227.5 823.5 Z M 456.5 618.5 C 457 622.17 462 643 462.5 643.5 C 463 644 460.5 625.67 459.5 621.5 C 458.5 617.33 456 614.83 456.5 618.5 Z M 410.5 506.5 C 407.5 502.17 418.67 503 413.5 512.5 C 408.33 522 387.83 547.83 379.5 563.5 C 371.17 579.17 366.83 595.33 363.5 606.5 C 360.17 617.67 359.5 618.83 359.5 630.5 C 359.5 642.17 360.67 662 363.5 676.5 C 366.33 691 369.83 701.33 376.5 717.5 C 383.17 733.67 392 753 403.5 773.5 C 415 794 431.83 821 445.5 840.5 C 459.17 860 480.33 891.67 485.5 890.5 C 490.67 889.33 478.5 843.17 476.5 833.5 C 474.5 823.83 473.67 833.17 473.5 832.5 C 473.33 831.83 475.83 830 475.5 829.5 C 475.17 829 477.33 840.83 471.5 829.5 C 465.67 818.17 448.83 781.67 440.5 761.5 C 432.17 741.33 426.33 724.17 421.5 708.5 C 416.67 692.83 413.17 682 411.5 667.5 C 409.83 653 409.83 636 411.5 621.5 C 413.17 607 417.83 592.5 421.5 580.5 C 425.17 568.5 429.33 549.33 433.5 549.5 C 437.67 549.67 444 576.5 446.5 581.5 C 449 586.5 451 586.67 448.5 579.5 C 446 572.33 437.83 550.67 431.5 538.5 C 425.17 526.33 413.5 510.83 410.5 506.5 Z M 71.5 350.5 C 71 349.67 68.17 352 67.5 353.5 C 66.83 355 67 358.67 67.5 359.5 C 68 360.33 69.83 360 70.5 358.5 C 71.17 357 72 351.33 71.5 350.5 Z M 217.5 283.5 C 217.17 284.5 218.5 289.83 219.5 291.5 C 220.5 293.17 223.17 294.5 223.5 293.5 C 223.83 292.5 222.5 287.17 221.5 285.5 C 220.5 283.83 217.83 282.5 217.5 283.5 Z M 102.5 247.5 C 101.67 248 97.5 255.5 97.5 256.5 C 97.5 257.5 101.67 255 102.5 253.5 C 103.33 252 103.33 247 102.5 247.5 Z M 123.5 206.5 C 122.83 206.83 118.67 214.33 118.5 215.5 C 118.33 216.67 121.67 215 122.5 213.5 C 123.33 212 124.17 206.17 123.5 206.5 Z"/>
  </g>
</svg>
