<svg xmlns="http://www.w3.org/2000/svg" width="899" height="921" viewBox="0 0 899 921" role="img" aria-labelledby="title desc">
  <title id="title">Nur logo loop frame 091</title>
  <desc id="desc">Vector-traced frame from Nur_Logo_Loop_02.gif.</desc>
  <g id="frame-091" stroke-linejoin="round" stroke-linecap="round" stroke-width="0.5" shape-rendering="geometricPrecision">
    <path fill="#008136" stroke="#008136" d="M 211.5 55.5 C 202 66.33 175.17 97.33 157.5 122.5 C 139.83 147.67 117.33 185.83 105.5 206.5 C 93.67 227.17 92.83 230.5 86.5 246.5 C 80.17 262.5 73 281.5 67.5 302.5 C 62 323.5 57 347.5 53.5 372.5 C 50 397.5 46.5 426.5 46.5 452.5 C 46.5 478.5 49.33 502.5 53.5 528.5 C 57.67 554.5 64.33 585.5 71.5 608.5 C 78.67 631.5 84.83 645 96.5 666.5 C 108.17 688 125 715.5 141.5 737.5 C 158 759.5 178.5 781.83 195.5 798.5 C 212.5 815.17 226.83 826.17 243.5 837.5 C 260.17 848.83 274.33 857.17 295.5 866.5 C 316.67 875.83 345.83 886.67 370.5 893.5 C 395.17 900.33 423 905.17 443.5 907.5 C 464 909.83 486.67 911.67 493.5 907.5 C 500.33 903.33 487.17 893.17 484.5 882.5 C 481.83 871.83 479.17 867 477.5 843.5 C 475.83 820 476.17 771.5 474.5 741.5 C 472.83 711.5 470.5 686.67 467.5 663.5 C 464.5 640.33 460.83 620.17 456.5 602.5 C 452.17 584.83 450.67 576.5 441.5 557.5 C 432.33 538.5 430.5 522 401.5 488.5 C 372.5 455 296.83 388 267.5 356.5 C 238.17 325 234.67 314 225.5 299.5 C 216.33 285 215.17 274.67 212.5 269.5 C 209.83 264.33 209.83 269.5 209.5 268.5 C 209.17 267.5 211.33 266.33 210.5 263.5 C 209.67 260.67 207.33 260.83 204.5 251.5 C 201.67 242.17 195.67 227.33 193.5 207.5 C 191.33 187.67 191.33 145.17 191.5 132.5 C 191.67 119.83 194.17 133.83 194.5 131.5 C 194.83 129.17 190.17 130.83 193.5 118.5 C 196.83 106.17 211.5 68 214.5 57.5 C 217.5 47 221 44.67 211.5 55.5 Z"/>
    <path fill="#83bb26" stroke="#83bb26" d="M 447.5 493.5 C 446.17 491 422.83 509.33 419.5 515.5 C 416.17 521.67 422.83 534.17 427.5 530.5 C 432.17 526.83 448.83 496 447.5 493.5 Z M 653.5 34.5 C 644.83 30.67 646.17 33.67 652.5 39.5 C 658.83 45.33 680.33 60 691.5 69.5 C 702.67 79 710.67 86.33 719.5 96.5 C 728.33 106.67 736.33 117 744.5 130.5 C 752.67 144 763.33 165.83 768.5 177.5 C 773.67 189.17 773.83 192.33 775.5 200.5 C 777.17 208.67 779.33 215 778.5 226.5 C 777.67 238 773.67 258.67 770.5 269.5 C 767.33 280.33 764.33 283.83 759.5 291.5 C 754.67 299.17 748.83 307.17 741.5 315.5 C 734.17 323.83 725.5 332.67 715.5 341.5 C 705.5 350.33 697.67 357.67 681.5 368.5 C 665.33 379.33 626.5 391.5 618.5 406.5 C 610.5 421.5 629.83 443.5 633.5 458.5 C 637.17 473.5 638.83 482.17 640.5 496.5 C 642.17 510.83 643.5 525.83 643.5 544.5 C 643.5 563.17 634.17 601.5 640.5 608.5 C 646.83 615.5 666.83 595.5 681.5 586.5 C 696.17 577.5 714 565.33 728.5 554.5 C 743 543.67 755.17 534.17 768.5 521.5 C 781.83 508.83 797.17 493 808.5 478.5 C 819.83 464 828.83 448.67 836.5 434.5 C 844.17 420.33 849.83 406.67 854.5 393.5 C 859.17 380.33 862.17 369 864.5 355.5 C 866.83 342 868.17 326.33 868.5 312.5 C 868.83 298.67 868 284.67 866.5 272.5 C 865 260.33 863.83 252.33 859.5 239.5 C 855.17 226.67 847 207.83 840.5 195.5 C 834 183.17 830.5 178.5 820.5 165.5 C 810.5 152.5 790.17 128.17 780.5 117.5 C 770.83 106.83 775.17 110.67 762.5 101.5 C 749.83 92.33 722.67 73.67 704.5 62.5 C 686.33 51.33 662.17 38.33 653.5 34.5 Z"/>
    <path fill="#6ab12d" stroke="#6ab12d" d="M 478.5 136.5 C 481.5 145.5 494.17 174 499.5 190.5 C 504.83 207 508 223 510.5 235.5 C 513 248 514.17 249 514.5 265.5 C 514.83 282 514.67 314.5 512.5 334.5 C 510.33 354.5 506.5 370 501.5 385.5 C 496.5 401 494.5 404 482.5 427.5 C 470.5 451 438.83 510 429.5 526.5 C 420.17 543 428 528.17 426.5 526.5 C 425 524.83 421.83 517.67 420.5 516.5 C 419.17 515.33 417.5 516.83 418.5 519.5 C 419.5 522.17 424.5 530.33 426.5 532.5 C 428.5 534.67 426.67 538.5 430.5 532.5 C 434.33 526.5 443.33 504.83 449.5 496.5 C 455.67 488.17 456.83 489 467.5 482.5 C 478.17 476 488.67 469.33 513.5 457.5 C 538.33 445.67 596 407.5 616.5 411.5 C 637 415.5 632.17 457.5 636.5 481.5 C 640.83 505.5 642.17 534.17 642.5 555.5 C 642.83 576.83 648.17 596.17 638.5 609.5 C 628.83 622.83 601.33 626.33 584.5 635.5 C 567.67 644.67 551.5 654.67 537.5 664.5 C 523.5 674.33 510 685.17 500.5 694.5 C 491 703.83 484.83 712.33 480.5 720.5 C 476.17 728.67 475.17 728.5 474.5 743.5 C 473.83 758.5 472.67 782.83 476.5 810.5 C 480.33 838.17 480.83 913.33 497.5 909.5 C 514.17 905.67 558.33 818.17 576.5 787.5 C 594.67 756.83 597.83 746.33 606.5 725.5 C 615.17 704.67 622.67 681.83 628.5 662.5 C 634.33 643.17 638.83 629.5 641.5 609.5 C 644.17 589.5 645.17 565.83 644.5 542.5 C 643.83 519.17 643.83 498.5 637.5 469.5 C 631.17 440.5 617.67 398.83 606.5 368.5 C 595.33 338.17 583.33 314.33 570.5 287.5 C 557.67 260.67 544.33 232.67 529.5 207.5 C 514.67 182.33 490 148.33 481.5 136.5 C 473 124.67 475.5 127.5 478.5 136.5 Z"/>
    <path fill="#009f3a" stroke="#009f3a" d="M 475.5 797.5 C 472.5 789.5 476.17 843.5 478.5 861.5 C 480.83 879.5 486.5 897.5 489.5 905.5 C 492.5 913.5 498.83 927.5 496.5 909.5 C 494.17 891.5 478.5 805.5 475.5 797.5 Z M 618.5 410.5 C 598.17 409.83 535.67 445.5 511.5 456.5 C 487.33 467.5 484 470.17 473.5 476.5 C 463 482.83 455.67 485.67 448.5 494.5 C 441.33 503.33 434.33 523.67 430.5 529.5 C 426.67 535.33 422.83 522 425.5 529.5 C 428.17 537 440.67 558 446.5 574.5 C 452.33 591 456.67 608.5 460.5 628.5 C 464.33 648.5 467.17 667.17 469.5 694.5 C 471.83 721.83 473.5 784 474.5 792.5 C 475.5 801 474.33 757.17 475.5 745.5 C 476.67 733.83 478.83 729 481.5 722.5 C 484.17 716 485.33 713.33 491.5 706.5 C 497.67 699.67 508.33 689.83 518.5 681.5 C 528.67 673.17 532.33 668.17 552.5 656.5 C 572.67 644.83 624.33 625.33 639.5 611.5 C 654.67 597.67 643.33 591.83 643.5 573.5 C 643.67 555.17 642.17 520.33 640.5 501.5 C 638.83 482.67 637.17 475.67 633.5 460.5 C 629.83 445.33 638.83 411.17 618.5 410.5 Z"/>
    <path fill="#007a39" stroke="#007a39" d="M 90.5 652.5 C 91 654.17 96 662.5 96.5 662.5 C 97 662.5 94.5 654.17 93.5 652.5 C 92.5 650.83 90 650.83 90.5 652.5 Z M 425.5 533.5 C 422.83 538.5 417.33 549.17 412.5 563.5 C 407.67 577.83 399.17 599.5 396.5 619.5 C 393.83 639.5 393.83 663.83 396.5 683.5 C 399.17 703.17 397.83 703.33 412.5 737.5 C 427.17 771.67 474 871 484.5 888.5 C 495 906 477.67 869.83 475.5 842.5 C 473.33 815.17 473.67 758.17 471.5 724.5 C 469.33 690.83 466.33 664.5 462.5 640.5 C 458.67 616.5 454.17 598.33 448.5 580.5 C 442.83 562.67 432.33 541.33 428.5 533.5 C 424.67 525.67 428.17 528.5 425.5 533.5 Z"/>
    <path fill="#007d38" stroke="#007d38" d="M 189.5 790.5 C 191.83 793.33 206.83 807.5 207.5 807.5 C 208.17 807.5 196.5 793.33 193.5 790.5 C 190.5 787.67 187.17 787.67 189.5 790.5 Z M 472.5 786.5 C 472.5 791.83 475 823.5 475.5 824.5 C 476 825.5 476 798.83 475.5 792.5 C 475 786.17 472.5 781.17 472.5 786.5 Z M 114.5 694.5 C 115 696 120.83 705.17 121.5 705.5 C 122.17 705.83 119.67 698.33 118.5 696.5 C 117.33 694.67 114 693 114.5 694.5 Z M 62.5 572.5 C 62.5 573.33 65.83 579.17 66.5 579.5 C 67.17 579.83 67.17 575.67 66.5 574.5 C 65.83 573.33 62.5 571.67 62.5 572.5 Z M 416.5 518.5 C 409.33 521.33 395.67 542.33 387.5 554.5 C 379.33 566.67 372.33 579.5 367.5 591.5 C 362.67 603.5 359.67 613 358.5 626.5 C 357.33 640 357.83 656.83 360.5 672.5 C 363.17 688.17 367.67 703.33 374.5 720.5 C 381.33 737.67 391.17 756.83 401.5 775.5 C 411.83 794.17 422.17 812.17 436.5 832.5 C 450.83 852.83 480.33 892.67 487.5 897.5 C 494.67 902.33 481.33 866.17 479.5 861.5 C 477.67 856.83 487.5 890.5 476.5 869.5 C 465.5 848.5 426.67 766.83 413.5 735.5 C 400.33 704.17 400.17 700.5 397.5 681.5 C 394.83 662.5 394.83 640.83 397.5 621.5 C 400.17 602.17 408.5 579.33 413.5 565.5 C 418.5 551.67 421.67 535.83 427.5 538.5 C 433.33 541.17 448 581.67 448.5 581.5 C 449 581.33 435.83 548 430.5 537.5 C 425.17 527 423.67 515.67 416.5 518.5 Z M 47.5 465.5 C 47 466.5 47 471.33 47.5 472.5 C 48 473.67 50 473.5 50.5 472.5 C 51 471.5 51 467.67 50.5 466.5 C 50 465.33 48 464.5 47.5 465.5 Z M 241.5 323.5 C 240.17 322.5 241 326.67 242.5 328.5 C 244 330.33 250.67 335.33 250.5 334.5 C 250.33 333.67 242.83 324.5 241.5 323.5 Z M 208.5 266.5 C 208.33 268 209.5 273.67 210.5 275.5 C 211.5 277.33 214.33 279 214.5 277.5 C 214.67 276 212.5 268.33 211.5 266.5 C 210.5 264.67 208.67 265 208.5 266.5 Z"/>
  </g>
</svg>
