<svg xmlns="http://www.w3.org/2000/svg" width="899" height="921" viewBox="0 0 899 921" role="img" aria-labelledby="title desc">
  <title id="title">Nur logo loop frame 112</title>
  <desc id="desc">Vector-traced frame from Nur_Logo_Loop_02.gif.</desc>
  <g id="frame-112" stroke-linejoin="round" stroke-linecap="round" stroke-width="0.5" shape-rendering="geometricPrecision">
    <path fill="#008136" stroke="#008136" d="M 206.5 51.5 C 198.17 61.33 175.83 91.33 158.5 117.5 C 141.17 143.67 115.83 184.17 102.5 208.5 C 89.17 232.83 85.5 244.33 78.5 263.5 C 71.5 282.67 65.5 301.5 60.5 323.5 C 55.5 345.5 51.17 371.67 48.5 395.5 C 45.83 419.33 43.33 440.5 44.5 466.5 C 45.67 492.5 51 526.83 55.5 551.5 C 60 576.17 64.67 594.83 71.5 614.5 C 78.33 634.17 85.17 649.17 96.5 669.5 C 107.83 689.83 124.17 716 139.5 736.5 C 154.83 757 171.67 776 188.5 792.5 C 205.33 809 222.67 823.17 240.5 835.5 C 258.33 847.83 273.83 856.83 295.5 866.5 C 317.17 876.17 346 886.67 370.5 893.5 C 395 900.33 422 905.17 442.5 907.5 C 463 909.83 486.5 911.67 493.5 907.5 C 500.5 903.33 487.17 893.17 484.5 882.5 C 481.83 871.83 479.17 866.67 477.5 843.5 C 475.83 820.33 476.17 773.5 474.5 743.5 C 472.83 713.5 470.5 687 467.5 663.5 C 464.5 640 460.83 620.17 456.5 602.5 C 452.17 584.83 445.83 568.83 441.5 557.5 C 437.17 546.17 437.83 546.83 430.5 534.5 C 423.17 522.17 421.83 510.17 397.5 483.5 C 373.17 456.83 308.83 399.17 284.5 374.5 C 260.17 349.83 262.17 349.5 251.5 335.5 C 240.83 321.5 228.17 304 220.5 290.5 C 212.83 277 210.17 268.33 205.5 254.5 C 200.83 240.67 195.17 225 192.5 207.5 C 189.83 190 188.83 167.5 189.5 149.5 C 190.17 131.5 193.33 114.67 196.5 99.5 C 199.67 84.33 206.83 66.5 208.5 58.5 C 210.17 50.5 214.83 41.67 206.5 51.5 Z"/>
    <path fill="#83bb26" stroke="#83bb26" d="M 446.5 495.5 C 445 493.17 423.83 509.83 420.5 515.5 C 417.17 521.17 425 527.17 426.5 529.5 C 428 531.83 426.17 535.17 429.5 529.5 C 432.83 523.83 448 497.83 446.5 495.5 Z M 662.5 31.5 C 652.67 26.17 654.17 29.17 659.5 34.5 C 664.83 39.83 684.33 54 694.5 63.5 C 704.67 73 709.83 77.17 720.5 91.5 C 731.17 105.83 749 131.5 758.5 149.5 C 768 167.5 774 184.5 777.5 199.5 C 781 214.5 780.67 227.17 779.5 239.5 C 778.33 251.83 776.67 260.67 770.5 273.5 C 764.33 286.33 755.33 301.83 742.5 316.5 C 729.67 331.17 713.83 346.5 693.5 361.5 C 673.17 376.5 629 385 620.5 406.5 C 612 428 638.33 469 642.5 490.5 C 646.67 512 645.5 515.83 645.5 535.5 C 645.5 555.17 635.5 600.33 642.5 608.5 C 649.5 616.67 670.83 595 687.5 584.5 C 704.17 574 726.83 557.67 742.5 545.5 C 758.17 533.33 770.67 522 781.5 511.5 C 792.33 501 798.67 494.17 807.5 482.5 C 816.33 470.83 826.17 457 834.5 441.5 C 842.83 426 852.17 404.33 857.5 389.5 C 862.83 374.67 864.5 365.5 866.5 352.5 C 868.5 339.5 869.17 324.33 869.5 311.5 C 869.83 298.67 869.83 287.17 868.5 275.5 C 867.17 263.83 865.67 254.33 861.5 241.5 C 857.33 228.67 850.17 211.33 843.5 198.5 C 836.83 185.67 834.17 180.5 821.5 164.5 C 808.83 148.5 784.67 118.83 767.5 102.5 C 750.33 86.17 736 78.33 718.5 66.5 C 701 54.67 672.33 36.83 662.5 31.5 Z"/>
    <path fill="#6ab12d" stroke="#6ab12d" d="M 640.5 612.5 C 628 611.17 574.5 644.5 553.5 656.5 C 532.5 668.5 526.17 674.5 514.5 684.5 C 502.83 694.5 490.17 705.67 483.5 716.5 C 476.83 727.33 475.83 736.67 474.5 749.5 C 473.17 762.33 472 768.33 475.5 793.5 C 479 818.67 492.33 882 495.5 900.5 C 498.67 919 495.17 904.33 494.5 904.5 C 493.83 904.67 491.5 900.83 491.5 901.5 C 491.5 902.17 493.5 907.33 494.5 908.5 C 495.5 909.67 488 922 497.5 908.5 C 507 895 535.33 853.33 551.5 827.5 C 567.67 801.67 581.67 780.67 594.5 753.5 C 607.33 726.33 620.83 688 628.5 664.5 C 636.17 641 653 613.83 640.5 612.5 Z M 484.5 135.5 C 481 135 498.5 174.83 503.5 193.5 C 508.5 212.17 512.33 228.33 514.5 247.5 C 516.67 266.67 516.83 292.83 516.5 308.5 C 516.17 324.17 515.17 328 512.5 341.5 C 509.83 355 505.83 374.5 500.5 389.5 C 495.17 404.5 492.33 408.83 480.5 431.5 C 468.67 454.17 438.5 509.67 429.5 525.5 C 420.5 541.33 427.83 528 426.5 526.5 C 425.17 525 422.67 517.33 421.5 516.5 C 420.33 515.67 418 518.33 419.5 521.5 C 421 524.67 425.33 539.33 430.5 535.5 C 435.67 531.67 443.67 507.33 450.5 498.5 C 457.33 489.67 443.33 496.83 471.5 482.5 C 499.67 468.17 593 418.83 619.5 412.5 C 646 406.17 626.83 430.17 630.5 444.5 C 634.17 458.83 639.17 480.67 641.5 498.5 C 643.83 516.33 644.33 532.83 644.5 551.5 C 644.67 570.17 642.17 604.83 642.5 610.5 C 642.83 616.17 646.33 605.83 646.5 585.5 C 646.67 565.17 646.67 515.67 643.5 488.5 C 640.33 461.33 634 444 627.5 422.5 C 621 401 614.5 383.5 604.5 359.5 C 594.5 335.5 580.83 305.67 567.5 278.5 C 554.17 251.33 538.33 220.33 524.5 196.5 C 510.67 172.67 488 136 484.5 135.5 Z"/>
    <path fill="#009f3a" stroke="#009f3a" d="M 474.5 791.5 C 474.67 803 476.33 844 478.5 861.5 C 480.67 879 484.83 888.83 487.5 896.5 C 490.17 904.17 492.83 906.5 494.5 907.5 C 496.17 908.5 500.33 921.67 497.5 902.5 C 494.67 883.33 481.33 811 477.5 792.5 C 473.67 774 474.33 780 474.5 791.5 Z M 473.5 767.5 C 473.5 770.33 476 788.67 476.5 789.5 C 477 790.33 477 776.17 476.5 772.5 C 476 768.83 473.5 764.67 473.5 767.5 Z M 621.5 411.5 C 601.5 409.83 542.83 444.83 517.5 456.5 C 492.17 468.17 480.83 474.83 469.5 481.5 C 458.17 488.17 455.83 488.17 449.5 496.5 C 443.17 504.83 435.5 526 431.5 531.5 C 427.5 537 423 522.33 425.5 529.5 C 428 536.67 441 559.67 446.5 574.5 C 452 589.33 454.67 598.67 458.5 618.5 C 462.33 638.33 467 669.17 469.5 693.5 C 472 717.83 471 760.33 473.5 764.5 C 476 768.67 480 729.33 484.5 718.5 C 489 707.67 487.33 710.5 500.5 699.5 C 513.67 688.5 540 667 563.5 652.5 C 587 638 627.83 625.83 641.5 612.5 C 655.17 599.17 645.33 591.83 645.5 572.5 C 645.67 553.17 643.83 514.17 642.5 496.5 C 641.17 478.83 641 480.67 637.5 466.5 C 634 452.33 641.5 413.17 621.5 411.5 Z"/>
    <path fill="#007a39" stroke="#007a39" d="M 426.5 534.5 C 423.17 538.83 416.67 555.67 412.5 567.5 C 408.33 579.33 404.17 593.83 401.5 605.5 C 398.83 617.17 397.17 626.83 396.5 637.5 C 395.83 648.17 396.33 659.17 397.5 669.5 C 398.67 679.83 398.67 683.17 403.5 699.5 C 408.33 715.83 416.83 743.33 426.5 767.5 C 436.17 791.67 452.5 826.33 461.5 844.5 C 470.5 862.67 478.17 876.5 480.5 876.5 C 482.83 876.5 477 869.67 475.5 844.5 C 474 819.33 473.67 759.17 471.5 725.5 C 469.33 691.83 466.33 666.67 462.5 642.5 C 458.67 618.33 453.5 597.33 448.5 580.5 C 443.5 563.67 436.17 549.17 432.5 541.5 C 428.83 533.83 429.83 530.17 426.5 534.5 Z"/>
    <path fill="#007d38" stroke="#007d38" d="M 472.5 782.5 C 472.5 788.83 475 823.83 475.5 824.5 C 476 825.17 476 793.5 475.5 786.5 C 475 779.5 472.5 776.17 472.5 782.5 Z M 470.5 737.5 C 470 736.5 470 752.33 470.5 756.5 C 471 760.67 473.5 765.67 473.5 762.5 C 473.5 759.33 471 738.5 470.5 737.5 Z M 465.5 677.5 C 465.5 684.17 467.5 714.33 468.5 722.5 C 469.5 730.67 471.5 733.17 471.5 726.5 C 471.5 719.83 469.5 690.67 468.5 682.5 C 467.5 674.33 465.5 670.83 465.5 677.5 Z M 460.5 645.5 C 460.67 647.17 464 656.33 464.5 656.5 C 465 656.67 464.17 648.33 463.5 646.5 C 462.83 644.67 460.33 643.83 460.5 645.5 Z M 458.5 629.5 C 458 629.5 458.83 641.17 459.5 643.5 C 460.17 645.83 462.67 645.83 462.5 643.5 C 462.33 641.17 459 629.5 458.5 629.5 Z M 456.5 619.5 C 456.5 620.67 459 627.33 459.5 627.5 C 460 627.67 460 621.83 459.5 620.5 C 459 619.17 456.5 618.33 456.5 619.5 Z M 447.5 583.5 C 447 583.5 451.17 602.67 452.5 606.5 C 453.83 610.33 456.33 610.33 455.5 606.5 C 454.67 602.67 448 583.5 447.5 583.5 Z M 417.5 522.5 C 411.67 528.5 394.83 546.5 386.5 558.5 C 378.17 570.5 372.17 581.33 367.5 594.5 C 362.83 607.67 359.17 622.5 358.5 637.5 C 357.83 652.5 360.67 670.5 363.5 684.5 C 366.33 698.5 368 704.17 375.5 721.5 C 383 738.83 396.17 767 408.5 788.5 C 420.83 810 436.83 832.5 449.5 850.5 C 462.17 868.5 478.17 888.83 484.5 896.5 C 490.83 904.17 488.33 902.17 487.5 896.5 C 486.67 890.83 481.33 867.17 479.5 862.5 C 477.67 857.83 486.33 887.67 476.5 868.5 C 466.67 849.33 433.5 781 420.5 747.5 C 407.5 714 402.33 685.5 398.5 667.5 C 394.67 649.5 396.5 651 397.5 639.5 C 398.5 628 399.67 615.17 404.5 598.5 C 409.33 581.83 420.5 545.33 426.5 539.5 C 432.5 533.67 437.33 556.5 440.5 563.5 C 443.67 570.5 444.17 578.5 445.5 581.5 C 446.83 584.5 451.33 589.5 448.5 581.5 C 445.67 573.5 433 543.33 428.5 533.5 C 424 523.67 423.33 524.33 421.5 522.5 C 419.67 520.67 423.33 516.5 417.5 522.5 Z"/>
  </g>
</svg>
