<svg xmlns="http://www.w3.org/2000/svg" width="899" height="921" viewBox="0 0 899 921" role="img" aria-labelledby="title desc">
  <title id="title">Nur logo loop frame 001</title>
  <desc id="desc">Vector-traced frame from Nur_Logo_Loop_02.gif.</desc>
  <g id="frame-001" stroke-linejoin="round" stroke-linecap="round" stroke-width="0.5" shape-rendering="geometricPrecision">
    <path fill="#008136" stroke="#008136" d="M 207.5 54.5 C 200 62.83 183.33 82 165.5 108.5 C 147.67 135 114.67 188.33 100.5 213.5 C 86.33 238.67 87.17 240.67 80.5 259.5 C 73.83 278.33 65.83 302.67 60.5 326.5 C 55.17 350.33 51.17 380.67 48.5 402.5 C 45.83 424.33 43.33 433.33 44.5 457.5 C 45.67 481.67 50.33 519.83 55.5 547.5 C 60.67 575.17 67.17 600.67 75.5 623.5 C 83.83 646.33 93.33 663.83 105.5 684.5 C 117.67 705.17 132.67 727.67 148.5 747.5 C 164.33 767.33 184.67 788.5 200.5 803.5 C 216.33 818.5 227.67 827 243.5 837.5 C 259.33 848 274.33 857.17 295.5 866.5 C 316.67 875.83 345.83 886.67 370.5 893.5 C 395.17 900.33 423 905.17 443.5 907.5 C 464 909.83 486.67 911.83 493.5 907.5 C 500.33 903.17 487.17 892.17 484.5 881.5 C 481.83 870.83 479.17 866.5 477.5 843.5 C 475.83 820.5 476.17 773.5 474.5 743.5 C 472.83 713.5 470.5 687 467.5 663.5 C 464.5 640 460.83 620.17 456.5 602.5 C 452.17 584.83 447.83 572.17 441.5 557.5 C 435.17 542.83 427 528.17 418.5 514.5 C 410 500.83 408.17 494 390.5 475.5 C 372.83 457 336 427 312.5 403.5 C 289 380 265.17 353.67 249.5 334.5 C 233.83 315.33 226.33 303.17 218.5 288.5 C 210.67 273.83 206 257.5 202.5 246.5 C 199 235.5 199 227.17 197.5 222.5 C 196 217.83 194 220.33 193.5 218.5 C 193 216.67 194.83 213 194.5 211.5 C 194.17 210 192.17 220.5 191.5 209.5 C 190.83 198.5 189.83 161.5 190.5 145.5 C 191.17 129.5 195 119.67 195.5 113.5 C 196 107.33 193.33 109.5 193.5 108.5 C 193.67 107.5 193.67 115.83 196.5 107.5 C 199.33 99.17 208.67 67.33 210.5 58.5 C 212.33 49.67 215 46.17 207.5 54.5 Z"/>
    <path fill="#83bb26" stroke="#83bb26" d="M 446.5 495.5 C 445.17 493.17 422.67 510.67 419.5 516.5 C 416.33 522.33 423 534 427.5 530.5 C 432 527 447.83 497.83 446.5 495.5 Z M 658.5 31.5 C 651.17 28 647.67 26.83 656.5 35.5 C 665.33 44.17 696 66.83 711.5 83.5 C 727 100.17 739 117.67 749.5 135.5 C 760 153.33 769.5 174.33 774.5 190.5 C 779.5 206.67 780.17 218.83 779.5 232.5 C 778.83 246.17 774.67 261.17 770.5 272.5 C 766.33 283.83 760.33 292 754.5 300.5 C 748.67 309 747.67 312 735.5 323.5 C 723.33 335 700.83 355.67 681.5 369.5 C 662.17 383.33 627.5 393.33 619.5 406.5 C 611.5 419.67 629.67 434.67 633.5 448.5 C 637.33 462.33 640.5 476.33 642.5 489.5 C 644.5 502.67 645 510.83 645.5 527.5 C 646 544.17 646 576 645.5 589.5 C 645 603 638.67 607.5 642.5 608.5 C 646.33 609.5 654.83 603.83 668.5 595.5 C 682.17 587.17 708.33 570.17 724.5 558.5 C 740.67 546.83 753 536.67 765.5 525.5 C 778 514.33 789.5 503.17 799.5 491.5 C 809.5 479.83 817.33 468.83 825.5 455.5 C 833.67 442.17 842.17 426.5 848.5 411.5 C 854.83 396.5 860.17 379 863.5 365.5 C 866.83 352 867.67 344.33 868.5 330.5 C 869.33 316.67 869.67 297 868.5 282.5 C 867.33 268 864.5 255 861.5 243.5 C 858.5 232 856.17 225.17 850.5 213.5 C 844.83 201.83 841.33 191.83 827.5 173.5 C 813.67 155.17 788.67 123 767.5 103.5 C 746.33 84 718.67 68.5 700.5 56.5 C 682.33 44.5 665.83 35 658.5 31.5 Z"/>
    <path fill="#6ab12d" stroke="#6ab12d" d="M 489.5 896.5 C 488.5 896.33 491 905.5 492.5 907.5 C 494 909.5 499 910.33 498.5 908.5 C 498 906.67 490.5 896.67 489.5 896.5 Z M 640.5 612.5 C 633.33 606.33 597.33 631.33 581.5 639.5 C 565.67 647.67 558.5 652.33 545.5 661.5 C 532.5 670.67 513.83 684.83 503.5 694.5 C 493.17 704.17 488 710.83 483.5 719.5 C 479 728.17 477.83 736.33 476.5 746.5 C 475.17 756.67 472 754.33 475.5 780.5 C 479 806.67 484.83 895.67 497.5 903.5 C 510.17 911.33 535.33 852.5 551.5 827.5 C 567.67 802.5 582.33 778.67 594.5 753.5 C 606.67 728.33 616.83 700 624.5 676.5 C 632.17 653 647.67 618.67 640.5 612.5 Z M 482.5 135.5 C 478.33 133.83 496.5 173.17 501.5 190.5 C 506.5 207.83 510 224.33 512.5 239.5 C 515 254.67 516.5 264.83 516.5 281.5 C 516.5 298.17 515.5 320.67 512.5 339.5 C 509.5 358.33 512.33 363.5 498.5 394.5 C 484.67 425.5 441.33 503.33 429.5 525.5 C 417.67 547.67 429 529 427.5 527.5 C 426 526 422 517.83 420.5 516.5 C 419 515.17 417.17 516.33 418.5 519.5 C 419.83 522.67 426.33 532.83 428.5 535.5 C 430.67 538.17 426.67 542.83 431.5 535.5 C 436.33 528.17 445.17 503.5 457.5 491.5 C 469.83 479.5 478.5 476.67 505.5 463.5 C 532.5 450.33 598.33 414.67 619.5 412.5 C 640.67 410.33 628.83 436.83 632.5 450.5 C 636.17 464.17 639.33 476.5 641.5 494.5 C 643.67 512.5 645.5 540.67 645.5 558.5 C 645.5 576.33 641.83 593 641.5 601.5 C 641.17 610 642.5 614.33 643.5 609.5 C 644.5 604.67 647.5 592.83 647.5 572.5 C 647.5 552.17 647.5 514.5 643.5 487.5 C 639.5 460.5 630.17 432 623.5 410.5 C 616.83 389 614.67 384 603.5 358.5 C 592.33 333 569.33 283.83 556.5 257.5 C 543.67 231.17 538.83 220.83 526.5 200.5 C 514.17 180.17 486.67 137.17 482.5 135.5 Z"/>
    <path fill="#009f3a" stroke="#009f3a" d="M 620.5 410.5 C 598.83 412.83 528.17 451 503.5 462.5 C 478.83 474 481.33 474 472.5 479.5 C 463.67 485 457.33 486.67 450.5 495.5 C 443.67 504.33 435.67 526.83 431.5 532.5 C 427.33 538.17 423 522.5 425.5 529.5 C 428 536.5 440.67 558 446.5 574.5 C 452.33 591 456.33 604.5 460.5 628.5 C 464.67 652.5 468.5 679.67 471.5 718.5 C 474.5 757.33 475.67 831.33 478.5 861.5 C 481.33 891.67 485.67 891.83 488.5 899.5 C 491.33 907.17 493.67 906.33 495.5 907.5 C 497.33 908.67 500.67 915.17 499.5 906.5 C 498.33 897.83 492.33 876.83 488.5 855.5 C 484.67 834.17 478.33 796.33 476.5 778.5 C 474.67 760.67 476.17 758 477.5 748.5 C 478.83 739 479.83 730.33 484.5 721.5 C 489.17 712.67 495 705.33 505.5 695.5 C 516 685.67 534.5 671.67 547.5 662.5 C 560.5 653.33 567.67 649 583.5 640.5 C 599.33 632 632 624.17 642.5 611.5 C 653 598.83 646.5 584.33 646.5 564.5 C 646.5 544.67 644.67 511.83 642.5 492.5 C 640.33 473.17 637.17 462.17 633.5 448.5 C 629.83 434.83 642.17 408.17 620.5 410.5 Z"/>
    <path fill="#007a39" stroke="#007a39" d="M 425.5 533.5 C 421 544.5 406.33 584 401.5 599.5 C 396.67 615 397.33 614.33 396.5 626.5 C 395.67 638.67 395.33 659.33 396.5 672.5 C 397.67 685.67 399 690.5 403.5 705.5 C 408 720.5 416.67 744.67 423.5 762.5 C 430.33 780.33 434.17 791 444.5 812.5 C 454.83 834 480.33 886.5 485.5 891.5 C 490.67 896.5 477.83 870.33 475.5 842.5 C 473.17 814.67 473.67 758.17 471.5 724.5 C 469.33 690.83 466.33 664.5 462.5 640.5 C 458.67 616.5 454.17 598.33 448.5 580.5 C 442.83 562.67 432.33 541.33 428.5 533.5 C 424.67 525.67 430 522.5 425.5 533.5 Z"/>
    <path fill="#007d38" stroke="#007d38" d="M 473.5 829.5 C 473.67 832.5 477 850.83 477.5 851.5 C 478 852.17 477.17 837.17 476.5 833.5 C 475.83 829.83 473.33 826.5 473.5 829.5 Z M 134.5 724.5 C 133.17 723.5 132.33 726 133.5 727.5 C 134.67 729 141.33 734 141.5 733.5 C 141.67 733 135.83 725.5 134.5 724.5 Z M 456.5 618.5 C 457 622.17 462 643 462.5 643.5 C 463 644 460.5 625.67 459.5 621.5 C 458.5 617.33 456 614.83 456.5 618.5 Z M 53.5 534.5 C 53.5 535.5 56.83 542.17 57.5 542.5 C 58.17 542.83 58.17 537.83 57.5 536.5 C 56.83 535.17 53.5 533.5 53.5 534.5 Z M 418.5 521.5 C 413.17 525.67 400.67 539.67 392.5 551.5 C 384.33 563.33 374.83 579.17 369.5 592.5 C 364.17 605.83 361.67 618.83 360.5 631.5 C 359.33 644.17 359.33 652.33 362.5 668.5 C 365.67 684.67 373.33 711.83 379.5 728.5 C 385.67 745.17 391 753.17 399.5 768.5 C 408 783.83 415.83 799.17 430.5 820.5 C 445.17 841.83 479.33 889.67 487.5 896.5 C 495.67 903.33 481.17 865.5 479.5 861.5 C 477.83 857.5 483.17 881 477.5 872.5 C 471.83 864 454.67 830 445.5 810.5 C 436.33 791 429.33 773.33 422.5 755.5 C 415.67 737.67 408.67 717.67 404.5 703.5 C 400.33 689.33 398.67 683 397.5 670.5 C 396.33 658 396.67 640 397.5 628.5 C 398.33 617 398.83 614.33 402.5 601.5 C 406.17 588.67 415.33 562.17 419.5 551.5 C 423.67 540.83 421.5 528.33 427.5 537.5 C 433.5 546.67 453.5 603.5 455.5 606.5 C 457.5 609.5 444.67 568.83 439.5 555.5 C 434.33 542.17 428 532.17 424.5 526.5 C 421 520.83 423.83 517.33 418.5 521.5 Z M 75.5 282.5 C 74.83 282.83 71.5 288.67 71.5 289.5 C 71.5 290.33 74.83 288.67 75.5 287.5 C 76.17 286.33 76.17 282.17 75.5 282.5 Z M 210.5 54.5 C 209.33 54.67 200.67 65 199.5 66.5 C 198.33 68 202.33 63.67 203.5 63.5 C 204.67 63.33 205.33 67 206.5 65.5 C 207.67 64 211.67 54.33 210.5 54.5 Z"/>
  </g>
</svg>
