<svg xmlns="http://www.w3.org/2000/svg" width="899" height="921" viewBox="0 0 899 921" role="img" aria-labelledby="title desc">
  <title id="title">Nur logo loop frame 100</title>
  <desc id="desc">Vector-traced frame from Nur_Logo_Loop_02.gif.</desc>
  <g id="frame-100" stroke-linejoin="round" stroke-linecap="round" stroke-width="0.5" shape-rendering="geometricPrecision">
    <path fill="#008136" stroke="#008136" d="M 214.5 62.5 C 205.33 71.67 178.83 97.33 161.5 120.5 C 144.17 143.67 122.17 181.83 110.5 201.5 C 98.83 221.17 98.5 221.17 91.5 238.5 C 84.5 255.83 74.17 285.5 68.5 305.5 C 62.83 325.5 59.5 345.5 57.5 358.5 C 55.5 371.5 57.17 378.67 56.5 383.5 C 55.83 388.33 54.67 372.5 53.5 387.5 C 52.33 402.5 48.83 448.17 49.5 473.5 C 50.17 498.83 53.5 517 57.5 539.5 C 61.5 562 66 586 73.5 608.5 C 81 631 91.5 653.67 102.5 674.5 C 113.5 695.33 127.83 716.83 139.5 733.5 C 151.17 750.17 161.5 762.17 172.5 774.5 C 183.5 786.83 193.83 797.17 205.5 807.5 C 217.17 817.83 227.5 826.67 242.5 836.5 C 257.5 846.33 274.17 857 295.5 866.5 C 316.83 876 345.83 886.67 370.5 893.5 C 395.17 900.33 423 905.17 443.5 907.5 C 464 909.83 486.67 911.67 493.5 907.5 C 500.33 903.33 487.17 893.17 484.5 882.5 C 481.83 871.83 479.17 867 477.5 843.5 C 475.83 820 476.17 771.5 474.5 741.5 C 472.83 711.5 470.5 686.67 467.5 663.5 C 464.5 640.33 460.83 620.17 456.5 602.5 C 452.17 584.83 447.83 572.17 441.5 557.5 C 435.17 542.83 427 528.17 418.5 514.5 C 410 500.83 408.17 494 390.5 475.5 C 372.83 457 334.5 425.17 312.5 403.5 C 290.5 381.83 273.5 364 258.5 345.5 C 243.5 327 231.17 307.67 222.5 292.5 C 213.83 277.33 211.17 268.33 206.5 254.5 C 201.83 240.67 196.5 220 194.5 209.5 C 192.5 199 195 194.83 194.5 191.5 C 194 188.17 191.17 200.17 191.5 189.5 C 191.83 178.83 193.5 146.5 196.5 127.5 C 199.5 108.5 206.17 85.83 209.5 75.5 C 212.83 65.17 215.67 67.67 216.5 65.5 C 217.33 63.33 223.67 53.33 214.5 62.5 Z"/>
    <path fill="#83bb26" stroke="#83bb26" d="M 448.5 491.5 C 447.17 489 423 509 419.5 515.5 C 416 522 422.67 534.5 427.5 530.5 C 432.33 526.5 449.83 494 448.5 491.5 Z M 647.5 38.5 C 638.83 34.5 644.17 38 643.5 38.5 C 642.83 39 633.17 33.17 643.5 41.5 C 653.83 49.83 689.83 74.67 705.5 88.5 C 721.17 102.33 727.17 109 737.5 124.5 C 747.83 140 761.33 167.83 767.5 181.5 C 773.67 195.17 773 198.17 774.5 206.5 C 776 214.83 777.67 220.5 776.5 231.5 C 775.33 242.5 771.17 261.67 767.5 272.5 C 763.83 283.33 760.5 287.83 754.5 296.5 C 748.5 305.17 743.17 313.17 731.5 324.5 C 719.83 335.83 703.67 351 684.5 364.5 C 665.33 378 625.17 389.5 616.5 405.5 C 607.83 421.5 628.67 444 632.5 460.5 C 636.33 477 637.83 485.33 639.5 504.5 C 641.17 523.67 642.67 558.17 642.5 575.5 C 642.33 592.83 631.67 607.17 638.5 608.5 C 645.33 609.83 667.83 593.33 683.5 583.5 C 699.17 573.67 718.17 560.33 732.5 549.5 C 746.83 538.67 757.17 530.33 769.5 518.5 C 781.83 506.67 796 491.83 806.5 478.5 C 817 465.17 824.83 452.5 832.5 438.5 C 840.17 424.5 847.5 408 852.5 394.5 C 857.5 381 860.17 371 862.5 357.5 C 864.83 344 866 326.83 866.5 313.5 C 867 300.17 866.67 289 865.5 277.5 C 864.33 266 862.83 256.17 859.5 244.5 C 856.17 232.83 851.67 219.83 845.5 207.5 C 839.33 195.17 835.67 187.17 822.5 170.5 C 809.33 153.83 787.67 125.5 766.5 107.5 C 745.33 89.5 715.33 74 695.5 62.5 C 675.67 51 656.17 42.5 647.5 38.5 Z"/>
    <path fill="#6ab12d" stroke="#6ab12d" d="M 473.5 137.5 C 468.67 135.5 490.67 174.17 496.5 190.5 C 502.33 206.83 505.67 220.33 508.5 235.5 C 511.33 250.67 513.33 263 513.5 281.5 C 513.67 300 512 327.67 509.5 346.5 C 507 365.33 511.67 364.67 498.5 394.5 C 485.33 424.33 442.33 503.33 430.5 525.5 C 418.67 547.67 429.17 529.17 427.5 527.5 C 425.83 525.83 422 516.83 420.5 515.5 C 419 514.17 417.5 516.67 418.5 519.5 C 419.5 522.33 424.5 530.17 426.5 532.5 C 428.5 534.83 426.33 539.83 430.5 533.5 C 434.67 527.17 444.5 503.5 451.5 494.5 C 458.5 485.5 445.5 493.17 472.5 479.5 C 499.5 465.83 586.5 411.83 613.5 412.5 C 640.5 413.17 630 459.83 634.5 483.5 C 639 507.17 640.17 533.5 640.5 554.5 C 640.83 575.5 648 594.83 636.5 609.5 C 625 624.17 588.83 632.67 571.5 642.5 C 554.17 652.33 546.17 657.67 532.5 668.5 C 518.83 679.33 498.17 698.33 489.5 707.5 C 480.83 716.67 483 716.5 480.5 723.5 C 478 730.5 475.33 737.67 474.5 749.5 C 473.67 761.33 472 769.17 475.5 794.5 C 479 819.83 492.5 882.5 495.5 901.5 C 498.5 920.5 493.33 907.33 493.5 908.5 C 493.67 909.67 484.5 925.67 496.5 908.5 C 508.5 891.33 548 834 565.5 805.5 C 583 777 590.17 765 601.5 737.5 C 612.83 710 626.83 663.67 633.5 640.5 C 640.17 617.33 639.83 613.67 641.5 598.5 C 643.17 583.33 644.5 571.33 643.5 549.5 C 642.5 527.67 642.5 499 635.5 467.5 C 628.5 436 612.83 391.17 601.5 360.5 C 590.17 329.83 580.17 309.83 567.5 283.5 C 554.83 257.17 541.17 226.83 525.5 202.5 C 509.83 178.17 478.33 139.5 473.5 137.5 Z"/>
    <path fill="#009f3a" stroke="#009f3a" d="M 474.5 791.5 C 474.67 802.83 476 843 478.5 861.5 C 481 880 486.67 894.83 489.5 902.5 C 492.33 910.17 494.33 908 495.5 907.5 C 496.67 907 499.5 918.5 496.5 899.5 C 493.5 880.5 481.17 811.5 477.5 793.5 C 473.83 775.5 474.33 780.17 474.5 791.5 Z M 615.5 411.5 C 595.67 414 531.67 447.33 507.5 458.5 C 483.33 469.67 480 472.83 470.5 478.5 C 461 484.17 457.5 483.5 450.5 492.5 C 443.5 501.5 432.67 526.33 428.5 532.5 C 424.33 538.67 422.5 522.5 425.5 529.5 C 428.5 536.5 441 559.67 446.5 574.5 C 452 589.33 455 601.83 458.5 618.5 C 462 635.17 465 650.17 467.5 674.5 C 470 698.83 470.67 757.17 473.5 764.5 C 476.33 771.83 478.17 731.17 484.5 718.5 C 490.83 705.83 498.33 700 511.5 688.5 C 524.67 677 542.33 662.67 563.5 649.5 C 584.67 636.33 625.5 625.67 638.5 609.5 C 651.5 593.33 641.67 571.83 641.5 552.5 C 641.33 533.17 640 511.67 637.5 493.5 C 635 475.33 630.17 457.17 626.5 443.5 C 622.83 429.83 635.33 409 615.5 411.5 Z"/>
    <path fill="#007a39" stroke="#007a39" d="M 100.5 668.5 C 101.67 671.33 111.67 688 112.5 688.5 C 113.33 689 107.5 674.83 105.5 671.5 C 103.5 668.17 99.33 665.67 100.5 668.5 Z M 425.5 533.5 C 421.17 544.83 407.33 583.5 402.5 601.5 C 397.67 619.5 397.17 629.33 396.5 641.5 C 395.83 653.67 396.33 661.17 398.5 674.5 C 400.67 687.83 406 709.17 409.5 721.5 C 413 733.83 408.83 724.17 419.5 748.5 C 430.17 772.83 463.17 845.83 473.5 867.5 C 483.83 889.17 481.17 882.67 481.5 878.5 C 481.83 874.33 477.17 868.17 475.5 842.5 C 473.83 816.83 473.67 758.17 471.5 724.5 C 469.33 690.83 466.33 664.5 462.5 640.5 C 458.67 616.5 454.17 598.33 448.5 580.5 C 442.83 562.67 432.33 541.33 428.5 533.5 C 424.67 525.67 429.83 522.17 425.5 533.5 Z"/>
    <path fill="#007d38" stroke="#007d38" d="M 82.5 627.5 C 82.83 629.17 87.83 640 88.5 640.5 C 89.17 641 87.5 632.67 86.5 630.5 C 85.5 628.33 82.17 625.83 82.5 627.5 Z M 456.5 618.5 C 457 622.17 462 643 462.5 643.5 C 463 644 460.5 625.67 459.5 621.5 C 458.5 617.33 456 614.83 456.5 618.5 Z M 417.5 520.5 C 412 526.5 395.83 544.17 387.5 556.5 C 379.17 568.83 372.33 581.5 367.5 594.5 C 362.67 607.5 359.83 623.5 358.5 634.5 C 357.17 645.5 357.17 647.5 359.5 660.5 C 361.83 673.5 365.83 693.83 372.5 712.5 C 379.17 731.17 385.5 747.83 399.5 772.5 C 413.5 797.17 441.83 839.67 456.5 860.5 C 471.17 881.33 483.67 897.33 487.5 897.5 C 491.33 897.67 481.33 866.5 479.5 861.5 C 477.67 856.5 487.5 889.67 476.5 867.5 C 465.5 845.33 426 759.17 413.5 728.5 C 401 697.83 404.17 697.67 401.5 683.5 C 398.83 669.33 397.17 656.83 397.5 643.5 C 397.83 630.17 400.17 617.67 403.5 603.5 C 406.83 589.33 413.5 569.33 417.5 558.5 C 421.5 547.67 422.33 534.67 427.5 538.5 C 432.67 542.33 448 581.67 448.5 581.5 C 449 581.33 434.17 545.17 430.5 537.5 C 426.83 529.83 428.17 538.33 426.5 535.5 C 424.83 532.67 422 523 420.5 520.5 C 419 518 423 514.5 417.5 520.5 Z M 66.5 325.5 C 65.83 325.83 62.5 331.67 62.5 332.5 C 62.5 333.33 65.83 331.67 66.5 330.5 C 67.17 329.33 67.17 325.17 66.5 325.5 Z M 164.5 119.5 C 166 116.33 157.67 125.5 154.5 130.5 C 151.33 135.5 143.83 151.33 145.5 149.5 C 147.17 147.67 163 122.67 164.5 119.5 Z"/>
  </g>
</svg>
