<svg xmlns="http://www.w3.org/2000/svg" width="899" height="921" viewBox="0 0 899 921" role="img" aria-labelledby="title desc">
  <title id="title">Nur logo loop frame 060</title>
  <desc id="desc">Vector-traced frame from Nur_Logo_Loop_02.gif.</desc>
  <g id="frame-060" stroke-linejoin="round" stroke-linecap="round" stroke-width="0.5" shape-rendering="geometricPrecision">
    <path fill="#008136" stroke="#008136" d="M 199.5 50.5 C 190.83 61.17 166.33 93.17 149.5 118.5 C 132.67 143.83 110.83 179.83 98.5 202.5 C 86.17 225.17 82.33 236.17 75.5 254.5 C 68.67 272.83 62.33 291.67 57.5 312.5 C 52.67 333.33 49.17 354.67 46.5 379.5 C 43.83 404.33 41.17 437.83 41.5 461.5 C 41.83 485.17 43.5 496 48.5 521.5 C 53.5 547 63.5 589.83 71.5 614.5 C 79.5 639.17 85.17 649.17 96.5 669.5 C 107.83 689.83 124.17 716 139.5 736.5 C 154.83 757 171.67 776 188.5 792.5 C 205.33 809 222.67 823.17 240.5 835.5 C 258.33 847.83 273.83 856.83 295.5 866.5 C 317.17 876.17 345.83 886.67 370.5 893.5 C 395.17 900.33 423 905.17 443.5 907.5 C 464 909.83 486.67 911.67 493.5 907.5 C 500.33 903.33 487.17 893.17 484.5 882.5 C 481.83 871.83 479.17 866.67 477.5 843.5 C 475.83 820.33 476.17 773.5 474.5 743.5 C 472.83 713.5 470.5 687 467.5 663.5 C 464.5 640 459.83 617.67 456.5 602.5 C 453.17 587.33 451.83 583.83 447.5 572.5 C 443.17 561.17 438.83 549.33 430.5 534.5 C 422.17 519.67 422.67 510 397.5 483.5 C 372.33 457 307.83 404.67 279.5 375.5 C 251.17 346.33 238.5 323.83 227.5 308.5 C 216.5 293.17 217.5 292.67 213.5 283.5 C 209.5 274.33 205.67 258.67 203.5 253.5 C 201.33 248.33 203.33 262.67 200.5 252.5 C 197.67 242.33 188.83 213.83 186.5 192.5 C 184.17 171.17 184 147.5 186.5 124.5 C 189 101.5 199.33 66.83 201.5 54.5 C 203.67 42.17 208.17 39.83 199.5 50.5 Z"/>
    <path fill="#83bb26" stroke="#83bb26" d="M 441.5 501.5 C 440.17 499.83 424.17 513 421.5 517.5 C 418.83 522 424.17 526.83 425.5 528.5 C 426.83 530.17 426.83 532 429.5 527.5 C 432.17 523 442.83 503.17 441.5 501.5 Z M 675.5 27.5 C 659.33 16.67 665.33 21.67 673.5 30.5 C 681.67 39.33 709.17 61.5 724.5 80.5 C 739.83 99.5 756 126.67 765.5 144.5 C 775 162.33 778.33 173 781.5 187.5 C 784.67 202 786.33 215.83 784.5 231.5 C 782.67 247.17 778 266.17 770.5 281.5 C 763 296.83 754 308.5 739.5 323.5 C 725 338.5 703.17 357.17 683.5 371.5 C 663.83 385.83 630 397.67 621.5 409.5 C 613 421.33 629 428.83 632.5 442.5 C 636 456.17 640.33 468.5 642.5 491.5 C 644.67 514.5 645.67 560.33 645.5 580.5 C 645.33 600.67 636 610.33 641.5 612.5 C 647 614.67 662.5 603.5 678.5 593.5 C 694.5 583.5 721 565 737.5 552.5 C 754 540 766 529.33 777.5 518.5 C 789 507.67 797.83 498.17 806.5 487.5 C 815.17 476.83 822.17 466.67 829.5 454.5 C 836.83 442.33 844.83 427.17 850.5 414.5 C 856.17 401.83 860 391.67 863.5 378.5 C 867 365.33 870 349.67 871.5 335.5 C 873 321.33 873 306.83 872.5 293.5 C 872 280.17 871.33 268.5 868.5 255.5 C 865.67 242.5 861.17 228.83 855.5 215.5 C 849.83 202.17 846 192.83 834.5 175.5 C 823 158.17 797.17 124.83 786.5 111.5 C 775.83 98.17 789 109.5 770.5 95.5 C 752 81.5 691.67 38.33 675.5 27.5 Z"/>
    <path fill="#6ab12d" stroke="#6ab12d" d="M 639.5 617.5 C 636.17 607.17 612.5 628 597.5 635.5 C 582.5 643 564.5 652.83 549.5 662.5 C 534.5 672.17 518.17 684.33 507.5 693.5 C 496.83 702.67 491 707.5 485.5 717.5 C 480 727.5 476 738.83 474.5 753.5 C 473 768.17 473.5 783 476.5 805.5 C 479.5 828 490.83 876.17 492.5 888.5 C 494.17 900.83 488 880.5 486.5 879.5 C 485 878.5 482.33 877.83 483.5 882.5 C 484.67 887.17 490.33 904.67 493.5 907.5 C 496.67 910.33 494.67 910 502.5 899.5 C 510.33 889 526.67 865.83 540.5 844.5 C 554.33 823.17 572.67 796 585.5 771.5 C 598.33 747 608.5 723.17 617.5 697.5 C 626.5 671.83 642.83 627.83 639.5 617.5 Z M 489.5 134.5 C 491.5 142.67 501 168.17 505.5 185.5 C 510 202.83 514.17 225.33 516.5 238.5 C 518.83 251.67 519.5 248.33 519.5 264.5 C 519.5 280.67 518.5 317 516.5 335.5 C 514.5 354 511.17 363.33 507.5 375.5 C 503.83 387.67 507.67 383.5 494.5 408.5 C 481.33 433.5 440.5 507.17 428.5 525.5 C 416.5 543.83 424 519.33 422.5 518.5 C 421 517.67 418.5 517.67 419.5 520.5 C 420.5 523.33 426.5 533 428.5 535.5 C 430.5 538 428.17 541 431.5 535.5 C 434.83 530 443.67 509.67 448.5 502.5 C 453.33 495.33 449.5 499.17 460.5 492.5 C 471.5 485.83 487.67 475.5 514.5 462.5 C 541.33 449.5 601.83 416.83 621.5 414.5 C 641.17 412.17 629.17 434.83 632.5 448.5 C 635.83 462.17 639.5 476 641.5 496.5 C 643.5 517 644.83 552 644.5 571.5 C 644.17 591 639.83 606.5 639.5 613.5 C 639.17 620.5 641.33 618.67 642.5 613.5 C 643.67 608.33 646.33 603.17 646.5 582.5 C 646.67 561.83 647 517.83 643.5 489.5 C 640 461.17 631.33 433.33 625.5 412.5 C 619.67 391.67 617.33 386.33 608.5 364.5 C 599.67 342.67 585.33 308.83 572.5 281.5 C 559.67 254.17 544.67 224.67 531.5 200.5 C 518.33 176.33 500.5 147.5 493.5 136.5 C 486.5 125.5 487.5 126.33 489.5 134.5 Z"/>
    <path fill="#009f3a" stroke="#009f3a" d="M 474.5 791.5 C 474.67 802.83 477 846 478.5 861.5 C 480 877 481.5 878.33 483.5 884.5 C 485.5 890.67 489.5 897.5 490.5 898.5 C 491.5 899.5 489.17 890.83 489.5 890.5 C 489.83 890.17 491.5 895.83 492.5 896.5 C 493.5 897.17 498 911.67 495.5 894.5 C 493 877.33 481 810.67 477.5 793.5 C 474 776.33 474.33 780.17 474.5 791.5 Z M 623.5 413.5 C 601.83 408 538.17 449.67 512.5 461.5 C 486.83 473.33 480.33 478 469.5 484.5 C 458.67 491 453.83 492.5 447.5 500.5 C 441.17 508.5 434.83 527.17 431.5 532.5 C 428.17 537.83 425 525.5 427.5 532.5 C 430 539.5 441 558.5 446.5 574.5 C 452 590.5 456.67 608.5 460.5 628.5 C 464.33 648.5 467.33 671.17 469.5 694.5 C 471.67 717.83 471 763.67 473.5 768.5 C 476 773.33 478.5 735.83 484.5 723.5 C 490.5 711.17 496.5 705.67 509.5 694.5 C 522.5 683.33 540.67 669.33 562.5 656.5 C 584.33 643.67 626.67 631.33 640.5 617.5 C 654.33 603.67 645.17 594 645.5 573.5 C 645.83 553 646.17 521.17 642.5 494.5 C 638.83 467.83 645.17 419 623.5 413.5 Z"/>
    <path fill="#007a39" stroke="#007a39" d="M 427.5 537.5 C 424 540 419.5 553 415.5 565.5 C 411.5 578 406 596.17 403.5 612.5 C 401 628.83 399 646.33 400.5 663.5 C 402 680.67 408.83 702.33 412.5 715.5 C 416.17 728.67 412 718.5 422.5 742.5 C 433 766.5 466.17 839.83 475.5 859.5 C 484.83 879.17 479.17 883 478.5 860.5 C 477.83 838 474.17 761.17 471.5 724.5 C 468.83 687.83 466.33 664.5 462.5 640.5 C 458.67 616.5 452.83 595.5 448.5 580.5 C 444.17 565.5 440 557.67 436.5 550.5 C 433 543.33 431 535 427.5 537.5 Z M 212.5 282.5 C 211.5 281.83 211.5 286 212.5 287.5 C 213.5 289 218.5 292.33 218.5 291.5 C 218.5 290.67 213.5 283.17 212.5 282.5 Z M 199.5 51.5 C 199 51.5 198.5 57.67 197.5 58.5 C 196.5 59.33 193.67 55.67 193.5 56.5 C 193.33 57.33 195.33 63.17 196.5 63.5 C 197.67 63.83 200 60.5 200.5 58.5 C 201 56.5 200 51.5 199.5 51.5 Z"/>
    <path fill="#007d38" stroke="#007d38" d="M 115.5 699.5 C 115.83 700.67 129.17 719.83 131.5 722.5 C 133.83 725.17 132.17 719.33 129.5 715.5 C 126.83 711.67 115.17 698.33 115.5 699.5 Z M 419.5 523.5 C 412.83 529.83 393.17 552 384.5 564.5 C 375.83 577 371.5 587.5 367.5 598.5 C 363.5 609.5 361.17 617.17 360.5 630.5 C 359.83 643.83 360.83 663.17 363.5 678.5 C 366.17 693.83 369.67 705.5 376.5 722.5 C 383.33 739.5 394.67 762.5 404.5 780.5 C 414.33 798.5 421.17 810 435.5 830.5 C 449.83 851 483.67 899 490.5 903.5 C 497.33 908 478.5 865.83 476.5 857.5 C 474.5 849.17 478.83 854.33 478.5 853.5 C 478.17 852.67 474.67 852.83 474.5 852.5 C 474.33 852.17 477.17 854.67 477.5 851.5 C 477.83 848.33 477 833.67 476.5 833.5 C 476 833.33 483.33 866 474.5 850.5 C 465.67 835 435.17 769 423.5 740.5 C 411.83 712 408.17 692.67 404.5 679.5 C 400.83 666.33 401.5 672.33 401.5 661.5 C 401.5 650.67 402 630.17 404.5 614.5 C 407 598.83 412.5 579.67 416.5 567.5 C 420.5 555.33 423.17 539.17 428.5 541.5 C 433.83 543.83 446.67 579.17 448.5 581.5 C 450.33 583.83 443.5 564.67 439.5 555.5 C 435.5 546.33 427.83 531.83 424.5 526.5 C 421.17 521.17 426.17 517.17 419.5 523.5 Z M 413.5 510.5 C 413.5 511.33 417.67 518.83 418.5 519.5 C 419.33 520.17 419.33 516 418.5 514.5 C 417.67 513 413.5 509.67 413.5 510.5 Z M 398.5 487.5 C 396.83 485.83 396.83 489.17 398.5 491.5 C 400.17 493.83 408.5 502.17 408.5 501.5 C 408.5 500.83 400.17 489.17 398.5 487.5 Z M 294.5 389.5 C 293.5 389.17 293.5 392.5 294.5 393.5 C 295.5 394.5 300.5 396.17 300.5 395.5 C 300.5 394.83 295.5 389.83 294.5 389.5 Z M 66.5 287.5 C 65.83 287.83 62.5 294.5 62.5 295.5 C 62.5 296.5 65.83 294.83 66.5 293.5 C 67.17 292.17 67.17 287.17 66.5 287.5 Z M 101.5 201.5 C 100.17 202.83 94.33 212 94.5 212.5 C 94.67 213 101.33 206.33 102.5 204.5 C 103.67 202.67 102.83 200.17 101.5 201.5 Z M 127.5 157.5 C 126.83 157.83 123.5 163.67 123.5 164.5 C 123.5 165.33 126.83 163.67 127.5 162.5 C 128.17 161.33 128.17 157.17 127.5 157.5 Z"/>
  </g>
</svg>
