<svg xmlns="http://www.w3.org/2000/svg" width="899" height="921" viewBox="0 0 899 921" role="img" aria-labelledby="title desc">
  <title id="title">Nur logo loop frame 102</title>
  <desc id="desc">Vector-traced frame from Nur_Logo_Loop_02.gif.</desc>
  <g id="frame-102" stroke-linejoin="round" stroke-linecap="round" stroke-width="0.5" shape-rendering="geometricPrecision">
    <path fill="#008136" stroke="#008136" d="M 210.5 54.5 C 202 64.17 179 90.33 161.5 115.5 C 144 140.67 118.17 183.5 105.5 205.5 C 92.83 227.5 92.33 229.83 85.5 247.5 C 78.67 265.17 70.67 284.67 64.5 311.5 C 58.33 338.33 51.5 381.33 48.5 408.5 C 45.5 435.67 45.33 452 46.5 474.5 C 47.67 497 52.5 525 55.5 543.5 C 58.5 562 62.5 578.33 64.5 585.5 C 66.5 592.67 67 584.67 67.5 586.5 C 68 588.33 66.83 592.67 67.5 596.5 C 68.17 600.33 70.33 607.17 71.5 609.5 C 72.67 611.83 74.17 609.33 74.5 610.5 C 74.83 611.67 68.33 604.33 73.5 616.5 C 78.67 628.67 93.5 662.33 105.5 683.5 C 117.5 704.67 129.67 723.5 145.5 743.5 C 161.33 763.5 184.17 787.83 200.5 803.5 C 216.83 819.17 227.67 827 243.5 837.5 C 259.33 848 274.33 857.17 295.5 866.5 C 316.67 875.83 345.83 886.67 370.5 893.5 C 395.17 900.33 423 905.17 443.5 907.5 C 464 909.83 486.67 911.67 493.5 907.5 C 500.33 903.33 487.17 893.17 484.5 882.5 C 481.83 871.83 479.17 867 477.5 843.5 C 475.83 820 476.17 771.5 474.5 741.5 C 472.83 711.5 470.5 686.67 467.5 663.5 C 464.5 640.33 460.83 620.17 456.5 602.5 C 452.17 584.83 450.67 576.5 441.5 557.5 C 432.33 538.5 427.83 519 401.5 488.5 C 375.17 458 311.67 404 283.5 374.5 C 255.33 345 244.83 329 232.5 311.5 C 220.17 294 216.17 287.67 209.5 269.5 C 202.83 251.33 195.5 223.67 192.5 202.5 C 189.5 181.33 190.33 160.67 191.5 142.5 C 192.67 124.33 196.5 107.5 199.5 93.5 C 202.5 79.5 207.33 64.5 209.5 58.5 C 211.67 52.5 212.33 58.17 212.5 57.5 C 212.67 56.83 219 44.83 210.5 54.5 Z"/>
    <path fill="#83bb26" stroke="#83bb26" d="M 447.5 493.5 C 446.33 490.83 423.83 509.17 420.5 515.5 C 417.17 521.83 423 535.17 427.5 531.5 C 432 527.83 448.67 496.17 447.5 493.5 Z M 657.5 33.5 C 647 27.67 654.17 33 653.5 33.5 C 652.83 34 646.83 30.67 653.5 36.5 C 660.17 42.33 682.5 58.83 693.5 68.5 C 704.5 78.17 709.83 82.5 719.5 94.5 C 729.17 106.5 742.33 124 751.5 140.5 C 760.67 157 770 177.5 774.5 193.5 C 779 209.5 779.5 222.83 778.5 236.5 C 777.5 250.17 774.83 262 768.5 275.5 C 762.17 289 754.17 302.5 740.5 317.5 C 726.83 332.5 706.67 350.67 686.5 365.5 C 666.33 380.33 627.17 384.83 619.5 406.5 C 611.83 428.17 636.5 473.33 640.5 495.5 C 644.5 517.67 643.5 520.67 643.5 539.5 C 643.5 558.33 634 600.67 640.5 608.5 C 647 616.33 666.83 596.17 682.5 586.5 C 698.17 576.83 719.67 561.67 734.5 550.5 C 749.33 539.33 759.83 530.5 771.5 519.5 C 783.17 508.5 794 497.83 804.5 484.5 C 815 471.17 826.5 453.5 834.5 439.5 C 842.5 425.5 847.33 415 852.5 400.5 C 857.67 386 862.83 366 865.5 352.5 C 868.17 339 868.17 331.83 868.5 319.5 C 868.83 307.17 868.67 291 867.5 278.5 C 866.33 266 864.33 255.17 861.5 244.5 C 858.67 233.83 856.5 226.67 850.5 214.5 C 844.5 202.33 839.33 189.83 825.5 171.5 C 811.67 153.17 785.67 121.67 767.5 104.5 C 749.33 87.33 734.83 80.33 716.5 68.5 C 698.17 56.67 668 39.33 657.5 33.5 Z"/>
    <path fill="#6ab12d" stroke="#6ab12d" d="M 480.5 135.5 C 476.5 134.5 496.17 175.5 501.5 193.5 C 506.83 211.5 510.17 230.33 512.5 243.5 C 514.83 256.67 515.5 257 515.5 272.5 C 515.5 288 514.5 318.67 512.5 336.5 C 510.5 354.33 508.5 364.33 503.5 379.5 C 498.5 394.67 494.83 403 482.5 427.5 C 470.17 452 438.83 510 429.5 526.5 C 420.17 543 427.83 528.17 426.5 526.5 C 425.17 524.83 422.83 517.67 421.5 516.5 C 420.17 515.33 417.67 516.83 418.5 519.5 C 419.33 522.17 424.5 530.17 426.5 532.5 C 428.5 534.83 426.5 539.5 430.5 533.5 C 434.5 527.5 438.5 508 450.5 496.5 C 462.5 485 474.67 478.33 502.5 464.5 C 530.33 450.67 595.17 410.83 617.5 413.5 C 639.83 416.17 632.33 456.5 636.5 480.5 C 640.67 504.5 642.17 535.83 642.5 557.5 C 642.83 579.17 649.17 596.67 638.5 610.5 C 627.83 624.33 595.17 631.33 578.5 640.5 C 561.83 649.67 552.5 655.33 538.5 665.5 C 524.5 675.67 504.17 692.17 494.5 701.5 C 484.83 710.83 483.83 714.5 480.5 721.5 C 477.17 728.5 475.17 728.17 474.5 743.5 C 473.83 758.83 473.17 787.17 476.5 813.5 C 479.83 839.83 491.67 885.67 494.5 901.5 C 497.33 917.33 493.17 907.33 493.5 908.5 C 493.83 909.67 482.67 928.67 496.5 908.5 C 510.33 888.33 557.17 820.5 576.5 787.5 C 595.83 754.5 603.33 733 612.5 710.5 C 621.67 688 626.67 669.33 631.5 652.5 C 636.33 635.67 639.33 628.67 641.5 609.5 C 643.67 590.33 644.67 558.17 644.5 537.5 C 644.33 516.83 642.33 500 640.5 485.5 C 638.67 471 639.33 470.67 633.5 450.5 C 627.67 430.33 616 391.83 605.5 364.5 C 595 337.17 583.83 314 570.5 286.5 C 557.17 259 540.5 224.67 525.5 199.5 C 510.5 174.33 484.5 136.5 480.5 135.5 Z"/>
    <path fill="#009f3a" stroke="#009f3a" d="M 475.5 800.5 C 472.67 794.17 476.5 845.33 478.5 861.5 C 480.5 877.67 484.83 889.83 487.5 897.5 C 490.17 905.17 493.17 907.17 494.5 907.5 C 495.83 907.83 498.67 917.33 495.5 899.5 C 492.33 881.67 478.33 806.83 475.5 800.5 Z M 618.5 411.5 C 596.83 414 528.67 449.67 500.5 463.5 C 472.33 477.33 461.5 483 449.5 494.5 C 437.5 506 432.5 526.67 428.5 532.5 C 424.5 538.33 422.5 522.5 425.5 529.5 C 428.5 536.5 440.67 558 446.5 574.5 C 452.33 591 456.67 608.5 460.5 628.5 C 464.33 648.5 467.17 666.83 469.5 694.5 C 471.83 722.17 473.17 787.67 474.5 794.5 C 475.83 801.33 475.67 748.67 477.5 735.5 C 479.33 722.33 482.5 720.83 485.5 715.5 C 488.5 710.17 483.33 713.67 495.5 703.5 C 507.67 693.33 534.5 669.67 558.5 654.5 C 582.5 639.33 625.33 626.83 639.5 612.5 C 653.67 598.17 643.5 588.5 643.5 568.5 C 643.5 548.5 641.67 512.5 639.5 492.5 C 637.33 472.5 634 462 630.5 448.5 C 627 435 640.17 409 618.5 411.5 Z"/>
    <path fill="#007a39" stroke="#007a39" d="M 426.5 534.5 C 420.5 532.67 417 555 412.5 569.5 C 408 584 401.67 603.33 399.5 621.5 C 397.33 639.67 397.67 662.17 399.5 678.5 C 401.33 694.83 405.33 704 410.5 719.5 C 415.67 735 418.67 745.17 430.5 771.5 C 442.33 797.83 474 865.67 481.5 877.5 C 489 889.33 477.17 868 475.5 842.5 C 473.83 817 473.67 758.17 471.5 724.5 C 469.33 690.83 466.33 664.5 462.5 640.5 C 458.67 616.5 454.5 598.17 448.5 580.5 C 442.5 562.83 432.5 536.33 426.5 534.5 Z M 211.5 54.5 C 210.33 54.83 204.5 61.5 204.5 62.5 C 204.5 63.5 210.33 61.83 211.5 60.5 C 212.67 59.17 212.67 54.17 211.5 54.5 Z"/>
    <path fill="#007d38" stroke="#007d38" d="M 196.5 797.5 C 197.17 798.67 205.5 806.17 206.5 806.5 C 207.5 806.83 204.17 801 202.5 799.5 C 200.83 798 195.83 796.33 196.5 797.5 Z M 472.5 790.5 C 472.5 795.33 475 823.67 475.5 824.5 C 476 825.33 476 801.17 475.5 795.5 C 475 789.83 472.5 785.67 472.5 790.5 Z M 158.5 756.5 C 158.83 757.5 164.67 764.17 165.5 764.5 C 166.33 764.83 164.67 759.83 163.5 758.5 C 162.33 757.17 158.17 755.5 158.5 756.5 Z M 473.5 752.5 C 473.5 749 471 754.83 470.5 759.5 C 470 764.17 470 781.67 470.5 780.5 C 471 779.33 473.5 756 473.5 752.5 Z M 107.5 683.5 C 108 685 113.83 694.17 114.5 694.5 C 115.17 694.83 112.67 687.33 111.5 685.5 C 110.33 683.67 107 682 107.5 683.5 Z M 99.5 670.5 C 99.5 671.33 103.67 678 104.5 678.5 C 105.33 679 105.33 674.83 104.5 673.5 C 103.67 672.17 99.5 669.67 99.5 670.5 Z M 71.5 605.5 C 71.5 606.33 74.83 613 75.5 613.5 C 76.17 614 76.17 609.83 75.5 608.5 C 74.83 607.17 71.5 604.67 71.5 605.5 Z M 417.5 520.5 C 412.5 525.67 398.5 540.33 390.5 551.5 C 382.5 562.67 374.83 575 369.5 587.5 C 364.17 600 360.33 613.67 358.5 626.5 C 356.67 639.33 357 651.67 358.5 664.5 C 360 677.33 360.5 684.83 367.5 703.5 C 374.5 722.17 388.83 754.33 400.5 776.5 C 412.17 798.67 422.33 815 437.5 836.5 C 452.67 858 483.83 897.17 491.5 905.5 C 499.17 913.83 485.17 892.17 483.5 886.5 C 481.83 880.83 482.33 874.17 481.5 871.5 C 480.67 868.83 478.83 872.17 478.5 870.5 C 478.17 868.83 479.83 862.5 479.5 861.5 C 479.17 860.5 486.33 884.33 476.5 864.5 C 466.67 844.67 433.17 773.83 420.5 742.5 C 407.83 711.17 403.83 696.33 400.5 676.5 C 397.17 656.67 398.33 641 400.5 623.5 C 402.67 606 409 585.67 413.5 571.5 C 418 557.33 421.67 536.83 427.5 538.5 C 433.33 540.17 448.33 582.33 448.5 581.5 C 448.67 580.67 433.17 543.67 428.5 533.5 C 423.83 523.33 422.33 522.67 420.5 520.5 C 418.67 518.33 422.5 515.33 417.5 520.5 Z M 213.5 277.5 C 212.83 277.17 213.67 283 214.5 284.5 C 215.33 286 218.67 287.67 218.5 286.5 C 218.33 285.33 214.17 277.83 213.5 277.5 Z M 210.5 56.5 C 209 57.33 202 65.83 201.5 66.5 C 201 67.17 206 61.33 207.5 60.5 C 209 59.67 210 62.17 210.5 61.5 C 211 60.83 212 55.67 210.5 56.5 Z"/>
  </g>
</svg>
