<svg xmlns="http://www.w3.org/2000/svg" width="899" height="921" viewBox="0 0 899 921" role="img" aria-labelledby="title desc">
  <title id="title">Nur logo loop frame 044</title>
  <desc id="desc">Vector-traced frame from Nur_Logo_Loop_02.gif.</desc>
  <g id="frame-044" stroke-linejoin="round" stroke-linecap="round" stroke-width="0.5" shape-rendering="geometricPrecision">
    <path fill="#008136" stroke="#008136" d="M 220.5 67.5 C 210 77.17 175.83 108 158.5 129.5 C 141.17 151 127.33 178.17 116.5 196.5 C 105.67 214.83 101.5 220.17 93.5 239.5 C 85.5 258.83 75.83 285.83 68.5 312.5 C 61.17 339.17 52.33 383.83 49.5 399.5 C 46.67 415.17 51.67 405.17 51.5 406.5 C 51.33 407.83 49.67 397.67 48.5 407.5 C 47.33 417.33 43.67 443.33 44.5 465.5 C 45.33 487.67 49 515.67 53.5 540.5 C 58 565.33 64.33 593 71.5 614.5 C 78.67 636 85.17 649.17 96.5 669.5 C 107.83 689.83 124.17 716 139.5 736.5 C 154.83 757 171.67 776 188.5 792.5 C 205.33 809 222.67 823.17 240.5 835.5 C 258.33 847.83 273.83 856.83 295.5 866.5 C 317.17 876.17 345.83 886.67 370.5 893.5 C 395.17 900.33 423 905.17 443.5 907.5 C 464 909.83 486.67 911.67 493.5 907.5 C 500.33 903.33 487.17 893.17 484.5 882.5 C 481.83 871.83 479.17 866.67 477.5 843.5 C 475.83 820.33 476.17 773.5 474.5 743.5 C 472.83 713.5 470.5 687 467.5 663.5 C 464.5 640 460.83 620.17 456.5 602.5 C 452.17 584.83 447.83 572.17 441.5 557.5 C 435.17 542.83 426 527 418.5 514.5 C 411 502 419 505.83 396.5 482.5 C 374 459.17 307.33 398.83 283.5 374.5 C 259.67 350.17 263.33 350 253.5 336.5 C 243.67 323 233 309.83 224.5 293.5 C 216 277.17 207.17 252.17 202.5 238.5 C 197.83 224.83 197.5 221.5 196.5 211.5 C 195.5 201.5 197 184.17 196.5 178.5 C 196 172.83 193.5 177.83 193.5 177.5 C 193.5 177.17 195.17 186 196.5 176.5 C 197.83 167 199.33 135 201.5 120.5 C 203.67 106 206.17 97.67 209.5 89.5 C 212.83 81.33 219.67 75.17 221.5 71.5 C 223.33 67.83 231 57.83 220.5 67.5 Z"/>
    <path fill="#83bb26" stroke="#83bb26" d="M 450.5 488.5 C 449 485.83 422.33 507.5 418.5 514.5 C 414.67 521.5 422.17 534.83 427.5 530.5 C 432.83 526.17 452 491.17 450.5 488.5 Z M 631.5 44.5 C 631 46.33 634.83 51.33 646.5 59.5 C 658.17 67.67 687.67 83.33 701.5 93.5 C 715.33 103.67 719.83 107.5 729.5 120.5 C 739.17 133.5 752.67 157.83 759.5 171.5 C 766.33 185.17 768.17 194 770.5 202.5 C 772.83 211 773.17 215.5 773.5 222.5 C 773.83 229.5 773.83 236.5 772.5 244.5 C 771.17 252.5 768.67 262.17 765.5 270.5 C 762.33 278.83 757.67 287.67 753.5 294.5 C 749.33 301.33 751 301 740.5 311.5 C 730 322 711.67 341.83 690.5 357.5 C 669.33 373.17 623.67 389.33 613.5 405.5 C 603.33 421.67 625.5 439.67 629.5 454.5 C 633.5 469.33 635.5 478.83 637.5 494.5 C 639.5 510.17 641 530 641.5 548.5 C 642 567 632.83 600.5 640.5 605.5 C 648.17 610.5 670.67 589.5 687.5 578.5 C 704.33 567.5 724.83 553 741.5 539.5 C 758.17 526 775.33 510.17 787.5 497.5 C 799.67 484.83 805.5 477.17 814.5 463.5 C 823.5 449.83 834.33 431 841.5 415.5 C 848.67 400 853.83 384.33 857.5 370.5 C 861.17 356.67 862.5 347.67 863.5 332.5 C 864.5 317.33 864.5 294.17 863.5 279.5 C 862.5 264.83 861.17 257.17 857.5 244.5 C 853.83 231.83 846.83 214.67 841.5 203.5 C 836.17 192.33 836 191 825.5 177.5 C 815 164 790 134.67 778.5 122.5 C 767 110.33 768.83 112.5 756.5 104.5 C 744.17 96.5 722.33 83.83 704.5 74.5 C 686.67 65.17 661.67 53.5 649.5 48.5 C 637.33 43.5 632 42.67 631.5 44.5 Z"/>
    <path fill="#6ab12d" stroke="#6ab12d" d="M 466.5 140.5 C 461.5 139.17 486 176.67 492.5 192.5 C 499 208.33 502.5 222.17 505.5 235.5 C 508.5 248.83 510.17 253.33 510.5 272.5 C 510.83 291.67 509.5 330.17 507.5 350.5 C 505.5 370.83 511.5 365.33 498.5 394.5 C 485.5 423.67 441.5 503.5 429.5 525.5 C 417.5 547.5 428 528.17 426.5 526.5 C 425 524.83 422 517 420.5 515.5 C 419 514 416.17 514.17 417.5 517.5 C 418.83 520.83 426.17 532.5 428.5 535.5 C 430.83 538.5 427.17 542.83 431.5 535.5 C 435.83 528.17 449.33 500.17 454.5 491.5 C 459.67 482.83 453 489.5 462.5 483.5 C 472 477.5 486.5 467.67 511.5 455.5 C 536.5 443.33 592.33 407.5 612.5 410.5 C 632.67 413.5 628 452 632.5 473.5 C 637 495 638.83 517.33 639.5 539.5 C 640.17 561.67 645.83 591 636.5 606.5 C 627.17 622 598.5 624.33 583.5 632.5 C 568.5 640.67 557.83 647.5 546.5 655.5 C 535.17 663.5 525.17 671.67 515.5 680.5 C 505.83 689.33 494 702 488.5 708.5 C 483 715 484.5 714 482.5 719.5 C 480.5 725 477.83 732.67 476.5 741.5 C 475.17 750.33 471.5 747.33 474.5 772.5 C 477.5 797.67 492.5 874.67 494.5 892.5 C 496.5 910.33 488.33 881.17 486.5 879.5 C 484.67 877.83 482.5 878 483.5 882.5 C 484.5 887 490.33 902.33 492.5 906.5 C 494.67 910.67 484.33 924.33 496.5 907.5 C 508.67 890.67 547.83 834.33 565.5 805.5 C 583.17 776.67 593.17 755.33 602.5 734.5 C 611.83 713.67 615 704 621.5 680.5 C 628 657 638 615.83 641.5 593.5 C 645 571.17 643 563.33 642.5 546.5 C 642 529.67 640.5 508.17 638.5 492.5 C 636.5 476.83 636.83 473.83 630.5 452.5 C 624.17 431.17 610.67 391.33 600.5 364.5 C 590.33 337.67 582.5 318.83 569.5 291.5 C 556.5 264.17 539.67 225.67 522.5 200.5 C 505.33 175.33 471.5 141.83 466.5 140.5 Z"/>
    <path fill="#009f3a" stroke="#009f3a" d="M 614.5 408.5 C 594.67 409 533.17 443.5 509.5 454.5 C 485.83 465.5 481.5 469.17 472.5 474.5 C 463.5 479.83 462.33 476.83 455.5 486.5 C 448.67 496.17 436.5 525.33 431.5 532.5 C 426.5 539.67 423 522.5 425.5 529.5 C 428 536.5 440.33 556.17 446.5 574.5 C 452.67 592.83 458 611 462.5 639.5 C 467 668 471.17 711.17 473.5 745.5 C 475.83 779.83 474.83 822.33 476.5 845.5 C 478.17 868.67 480.83 874.17 483.5 884.5 C 486.17 894.83 490.67 904 492.5 907.5 C 494.33 911 495.17 908.17 494.5 905.5 C 493.83 902.83 488.5 892.5 488.5 891.5 C 488.5 890.5 493 898.67 494.5 899.5 C 496 900.33 499.67 909.83 497.5 896.5 C 495.33 883.17 485.17 840.5 481.5 819.5 C 477.83 798.5 476.17 783.17 475.5 770.5 C 474.83 757.83 476.17 751.67 477.5 743.5 C 478.83 735.33 480.5 728.17 483.5 721.5 C 486.5 714.83 484.67 714.33 495.5 703.5 C 506.33 692.67 524.67 672.67 548.5 656.5 C 572.33 640.33 623.17 626.33 638.5 606.5 C 653.83 586.67 640.67 555.67 640.5 537.5 C 640.33 519.33 639.5 511.83 637.5 497.5 C 635.5 483.17 632.33 466.33 628.5 451.5 C 624.67 436.67 634.33 408 614.5 408.5 Z"/>
    <path fill="#007a39" stroke="#007a39" d="M 428.5 540.5 C 425.67 542.33 423.67 546.67 419.5 561.5 C 415.33 576.33 406.17 612.17 403.5 629.5 C 400.83 646.83 400.17 647 403.5 665.5 C 406.83 684 414.83 715.33 423.5 740.5 C 432.17 765.67 446.33 796.5 455.5 816.5 C 464.67 836.5 475.83 875.83 478.5 860.5 C 481.17 845.17 474.17 761.17 471.5 724.5 C 468.83 687.83 466.33 664.5 462.5 640.5 C 458.67 616.5 452.83 595.5 448.5 580.5 C 444.17 565.5 439.83 557.17 436.5 550.5 C 433.17 543.83 431.33 538.67 428.5 540.5 Z"/>
    <path fill="#007d38" stroke="#007d38" d="M 115.5 699.5 C 115.83 700.67 129.17 719.83 131.5 722.5 C 133.83 725.17 132.17 719.33 129.5 715.5 C 126.83 711.67 115.17 698.33 115.5 699.5 Z M 456.5 618.5 C 457 622.17 462 643 462.5 643.5 C 463 644 460.5 625.67 459.5 621.5 C 458.5 617.33 456 614.83 456.5 618.5 Z M 416.5 519.5 C 410.5 524.17 396.33 542.67 388.5 554.5 C 380.67 566.33 374.17 578.5 369.5 590.5 C 364.83 602.5 361.67 613.33 360.5 626.5 C 359.33 639.67 360.83 656.5 362.5 669.5 C 364.17 682.5 365.33 689.83 370.5 704.5 C 375.67 719.17 383.5 738.17 393.5 757.5 C 403.5 776.83 416.17 798.67 430.5 820.5 C 444.83 842.33 470.33 876.5 479.5 888.5 C 488.67 900.5 486 897.67 485.5 892.5 C 485 887.33 477.67 864 476.5 857.5 C 475.33 851 478.67 854.33 478.5 853.5 C 478.33 852.67 476 856.5 475.5 852.5 C 475 848.5 475.67 829.83 475.5 829.5 C 475.33 829.17 483 865.67 474.5 850.5 C 466 835.33 436.17 769.67 424.5 738.5 C 412.83 707.33 407.83 681.33 404.5 663.5 C 401.17 645.67 401.83 648.17 404.5 631.5 C 407.17 614.83 416.17 578.17 420.5 563.5 C 424.83 548.83 424.67 536.33 430.5 543.5 C 436.33 550.67 454 604.5 455.5 606.5 C 457 608.5 444.67 568.83 439.5 555.5 C 434.33 542.17 428.33 532.5 424.5 526.5 C 420.67 520.5 422.5 514.83 416.5 519.5 Z M 201.5 235.5 C 200.83 235.17 200.83 240.17 201.5 241.5 C 202.17 242.83 205.5 244.5 205.5 243.5 C 205.5 242.5 202.17 235.83 201.5 235.5 Z M 194.5 172.5 C 193.83 171.5 192.17 174.83 192.5 176.5 C 192.83 178.17 196.17 183.17 196.5 182.5 C 196.83 181.83 195.17 173.5 194.5 172.5 Z M 166.5 122.5 C 165.5 123 159.67 129.67 159.5 130.5 C 159.33 131.33 164.33 128.83 165.5 127.5 C 166.67 126.17 167.5 122 166.5 122.5 Z M 180.5 107.5 C 179.17 108.33 171.67 116.67 171.5 117.5 C 171.33 118.33 178 114.17 179.5 112.5 C 181 110.83 181.83 106.67 180.5 107.5 Z"/>
  </g>
</svg>
