<svg xmlns="http://www.w3.org/2000/svg" width="899" height="921" viewBox="0 0 899 921" role="img" aria-labelledby="title desc">
  <title id="title">Nur logo loop frame 114</title>
  <desc id="desc">Vector-traced frame from Nur_Logo_Loop_02.gif.</desc>
  <g id="frame-114" stroke-linejoin="round" stroke-linecap="round" stroke-width="0.5" shape-rendering="geometricPrecision">
    <path fill="#008136" stroke="#008136" d="M 207.5 51.5 C 200.33 59.83 184 79.33 166.5 105.5 C 149 131.67 117.17 182.17 102.5 208.5 C 87.83 234.83 85.17 245.67 78.5 263.5 C 71.83 281.33 67.5 293.5 62.5 315.5 C 57.5 337.5 51.5 370.5 48.5 395.5 C 45.5 420.5 43.67 441.33 44.5 465.5 C 45.33 489.67 49 515.67 53.5 540.5 C 58 565.33 64.33 593 71.5 614.5 C 78.67 636 85.17 649.17 96.5 669.5 C 107.83 689.83 124.17 716 139.5 736.5 C 154.83 757 171.67 776 188.5 792.5 C 205.33 809 222.67 823.17 240.5 835.5 C 258.33 847.83 273.83 856.83 295.5 866.5 C 317.17 876.17 345.83 886.67 370.5 893.5 C 395.17 900.33 423 905.17 443.5 907.5 C 464 909.83 487.5 915.5 493.5 907.5 C 499.5 899.5 482.33 878.83 479.5 859.5 C 476.67 840.17 477.33 795.67 476.5 791.5 C 475.67 787.33 473.5 818.33 474.5 834.5 C 475.5 850.67 490.67 892.5 482.5 888.5 C 474.33 884.5 439.67 831.5 425.5 810.5 C 411.33 789.5 406.17 779.5 397.5 762.5 C 388.83 745.5 379.5 725.67 373.5 708.5 C 367.5 691.33 363.5 673.5 361.5 659.5 C 359.5 645.5 360 635.67 361.5 624.5 C 363 613.33 365.17 604.5 370.5 592.5 C 375.83 580.5 385.33 564 393.5 552.5 C 401.67 541 411.33 521 419.5 523.5 C 427.67 526 436 550.83 442.5 567.5 C 449 584.17 454.33 603.83 458.5 623.5 C 462.67 643.17 464.67 657.83 467.5 685.5 C 470.33 713.17 475.5 793.17 475.5 789.5 C 475.5 785.83 470.67 694.67 467.5 663.5 C 464.33 632.33 460.83 620.17 456.5 602.5 C 452.17 584.83 450.67 576.5 441.5 557.5 C 432.33 538.5 412.83 505 401.5 488.5 C 390.17 472 388.33 472.67 373.5 458.5 C 358.67 444.33 331.5 422 312.5 403.5 C 293.5 385 274 364.5 259.5 347.5 C 245 330.5 233.33 314.17 225.5 301.5 C 217.67 288.83 215.17 276.67 212.5 271.5 C 209.83 266.33 212.83 281.17 209.5 270.5 C 206.17 259.83 195.83 225.5 192.5 207.5 C 189.17 189.5 189.5 177 189.5 162.5 C 189.5 148 189.17 138.33 192.5 120.5 C 195.83 102.67 207 67 209.5 55.5 C 212 44 214.67 43.17 207.5 51.5 Z"/>
    <path fill="#83bb26" stroke="#83bb26" d="M 446.5 495.5 C 445.33 493 423.67 509.67 420.5 515.5 C 417.33 521.33 423.17 533.83 427.5 530.5 C 431.83 527.17 447.67 498 446.5 495.5 Z M 662.5 31.5 C 652.67 26.17 650.67 25.5 659.5 34.5 C 668.33 43.5 699.83 67.83 715.5 85.5 C 731.17 103.17 743.67 123.5 753.5 140.5 C 763.33 157.5 770.17 175.67 774.5 187.5 C 778.83 199.33 778.67 202.83 779.5 211.5 C 780.33 220.17 781 229.17 779.5 239.5 C 778 249.83 776.67 260.67 770.5 273.5 C 764.33 286.33 756.5 301 742.5 316.5 C 728.5 332 707 351.33 686.5 366.5 C 666 381.67 628.67 395 619.5 407.5 C 610.33 420 627.67 427.5 631.5 441.5 C 635.33 455.5 640.17 476.5 642.5 491.5 C 644.83 506.5 645.5 512 645.5 531.5 C 645.5 551 636.33 599.17 642.5 608.5 C 648.67 617.83 666.5 597.5 682.5 587.5 C 698.5 577.5 722 561.17 738.5 548.5 C 755 535.83 770 522.5 781.5 511.5 C 793 500.5 798.67 494.17 807.5 482.5 C 816.33 470.83 826.83 455.17 834.5 441.5 C 842.17 427.83 848.17 415.33 853.5 400.5 C 858.83 385.67 863.83 366.83 866.5 352.5 C 869.17 338.17 869.17 327.17 869.5 314.5 C 869.83 301.83 869.83 288.67 868.5 276.5 C 867.17 264.33 865.67 254.5 861.5 241.5 C 857.33 228.5 850.17 211.33 843.5 198.5 C 836.83 185.67 834.17 180.5 821.5 164.5 C 808.83 148.5 784.67 118.83 767.5 102.5 C 750.33 86.17 736 78.33 718.5 66.5 C 701 54.67 672.33 36.83 662.5 31.5 Z"/>
    <path fill="#6ab12d" stroke="#6ab12d" d="M 640.5 612.5 C 632.83 608.33 599 630.83 582.5 639.5 C 566 648.17 554.17 655.83 541.5 664.5 C 528.83 673.17 516.17 682.67 506.5 691.5 C 496.83 700.33 488.5 709.33 483.5 717.5 C 478.5 725.67 478 731.17 476.5 740.5 C 475 749.83 473.83 759.33 474.5 773.5 C 475.17 787.67 476.83 803.83 480.5 825.5 C 484.17 847.17 494.67 891.33 496.5 903.5 C 498.33 915.67 492.67 899 491.5 898.5 C 490.33 898 489 898.83 489.5 900.5 C 490 902.17 493.17 907.17 494.5 908.5 C 495.83 909.83 497.17 909 497.5 908.5 C 497.83 908 487.5 919 496.5 905.5 C 505.5 892 535.17 852.83 551.5 827.5 C 567.83 802.17 581.67 780.67 594.5 753.5 C 607.33 726.33 620.83 688 628.5 664.5 C 636.17 641 648.17 616.67 640.5 612.5 Z M 484.5 135.5 C 481 135 498.5 174.67 503.5 193.5 C 508.5 212.33 512.33 229.33 514.5 248.5 C 516.67 267.67 516.83 293 516.5 308.5 C 516.17 324 515.17 328 512.5 341.5 C 509.83 355 505.5 375.17 500.5 389.5 C 495.5 403.83 494.33 404.83 482.5 427.5 C 470.67 450.17 438.83 509 429.5 525.5 C 420.17 542 427.83 528 426.5 526.5 C 425.17 525 422.67 517.33 421.5 516.5 C 420.33 515.67 418.33 518.33 419.5 521.5 C 420.67 524.67 426.5 533.17 428.5 535.5 C 430.5 537.83 427.83 541.67 431.5 535.5 C 435.17 529.33 444.33 507 450.5 498.5 C 456.67 490 458.83 490.5 468.5 484.5 C 478.17 478.5 483.33 474.5 508.5 462.5 C 533.67 450.5 599 415 619.5 412.5 C 640 410 627.83 433.67 631.5 447.5 C 635.17 461.33 639.33 474 641.5 495.5 C 643.67 517 644.67 557.5 644.5 576.5 C 644.33 595.5 640.67 604 640.5 609.5 C 640.33 615 642.5 613.17 643.5 609.5 C 644.5 605.83 646.5 607.5 646.5 587.5 C 646.5 567.5 647.33 519 643.5 489.5 C 639.67 460 630.5 433.33 623.5 410.5 C 616.5 387.67 612.67 378.17 601.5 352.5 C 590.33 326.83 569.33 282.5 556.5 256.5 C 543.67 230.5 536.5 216.67 524.5 196.5 C 512.5 176.33 488 136 484.5 135.5 Z"/>
    <path fill="#009f3a" stroke="#009f3a" d="M 474.5 772.5 C 471.33 764.83 476 840 478.5 861.5 C 481 883 486.33 893.83 489.5 901.5 C 492.67 909.17 500 929 497.5 907.5 C 495 886 477.67 780.17 474.5 772.5 Z M 621.5 411.5 C 600.5 414.17 532.33 449.5 506.5 461.5 C 480.67 473.5 476 477.67 466.5 483.5 C 457 489.33 455.33 488.5 449.5 496.5 C 443.67 504.5 435.5 526 431.5 531.5 C 427.5 537 423 522.33 425.5 529.5 C 428 536.67 441 559.67 446.5 574.5 C 452 589.33 455 601.83 458.5 618.5 C 462 635.17 465 649.5 467.5 674.5 C 470 699.5 470.67 761 473.5 768.5 C 476.33 776 478.67 732.17 484.5 719.5 C 490.33 706.83 495.33 703.67 508.5 692.5 C 521.67 681.33 541.17 666 563.5 652.5 C 585.83 639 628.83 623.83 642.5 611.5 C 656.17 599.17 645.5 598.17 645.5 578.5 C 645.5 558.83 644.67 515.67 642.5 493.5 C 640.33 471.33 636 459.17 632.5 445.5 C 629 431.83 642.5 408.83 621.5 411.5 Z"/>
    <path fill="#007a39" stroke="#007a39" d="M 425.5 533.5 C 421 545.17 406.33 587 401.5 603.5 C 396.67 620 397.33 622.17 396.5 632.5 C 395.67 642.83 395.67 655.17 396.5 665.5 C 397.33 675.83 397.83 680.67 401.5 694.5 C 405.17 708.33 411 728.5 418.5 748.5 C 426 768.5 435.67 791.5 446.5 814.5 C 457.33 837.5 478.67 881.83 483.5 886.5 C 488.33 891.17 477.5 869.5 475.5 842.5 C 473.5 815.5 473.67 758.17 471.5 724.5 C 469.33 690.83 466.33 664.5 462.5 640.5 C 458.67 616.5 454.17 598.33 448.5 580.5 C 442.83 562.67 432.33 541.33 428.5 533.5 C 424.67 525.67 430 521.83 425.5 533.5 Z M 78.5 270.5 C 78 270.67 74.67 277.33 74.5 278.5 C 74.33 279.67 76.83 278.83 77.5 277.5 C 78.17 276.17 79 270.33 78.5 270.5 Z"/>
    <path fill="#007d38" stroke="#007d38" d="M 473.5 829.5 C 473.67 832.5 477 850.83 477.5 851.5 C 478 852.17 477.17 837.17 476.5 833.5 C 475.83 829.83 473.33 826.5 473.5 829.5 Z M 115.5 699.5 C 115.83 700.67 129.17 719.83 131.5 722.5 C 133.83 725.17 132.17 719.33 129.5 715.5 C 126.83 711.67 115.17 698.33 115.5 699.5 Z M 456.5 618.5 C 457 622.17 462 643 462.5 643.5 C 463 644 460.5 625.67 459.5 621.5 C 458.5 617.33 456 614.83 456.5 618.5 Z M 418.5 521.5 C 413.67 526.33 400.67 539 392.5 550.5 C 384.33 562 374.83 578.5 369.5 590.5 C 364.17 602.5 361.5 607.83 360.5 622.5 C 359.5 637.17 360.5 661.17 363.5 678.5 C 366.5 695.83 370.67 708 378.5 726.5 C 386.33 745 399.83 770.5 410.5 789.5 C 421.17 808.5 429.5 822.33 442.5 840.5 C 455.5 858.67 482.33 895 488.5 898.5 C 494.67 902 481.5 866.5 479.5 861.5 C 477.5 856.5 481.83 876.67 476.5 868.5 C 471.17 860.33 457 832.83 447.5 812.5 C 438 792.17 426.67 765.33 419.5 746.5 C 412.33 727.67 408.17 713.33 404.5 699.5 C 400.83 685.67 398.67 674.33 397.5 663.5 C 396.33 652.67 396.67 644.17 397.5 634.5 C 398.33 624.83 397.5 621.67 402.5 605.5 C 407.5 589.33 418.67 537.33 427.5 537.5 C 436.33 537.67 453.5 603.5 455.5 606.5 C 457.5 609.5 445.17 569.67 439.5 555.5 C 433.83 541.33 425 527.17 421.5 521.5 C 418 515.83 423.33 516.67 418.5 521.5 Z M 246.5 332.5 C 248 335 260.5 350 261.5 350.5 C 262.5 351 255 338.5 252.5 335.5 C 250 332.5 245 330 246.5 332.5 Z M 239.5 322.5 C 240.17 323.83 246 330.5 246.5 330.5 C 247 330.5 243.67 323.83 242.5 322.5 C 241.33 321.17 238.83 321.17 239.5 322.5 Z M 224.5 299.5 C 223.17 298.17 223.17 301.5 224.5 303.5 C 225.83 305.5 232.5 312.17 232.5 311.5 C 232.5 310.83 225.83 300.83 224.5 299.5 Z M 78.5 269.5 C 77.83 270.17 75.33 277.67 75.5 278.5 C 75.67 279.33 79 276 79.5 274.5 C 80 273 79.17 268.83 78.5 269.5 Z M 86.5 250.5 C 85.83 250.83 80.83 259.17 80.5 260.5 C 80.17 261.83 83.5 260.17 84.5 258.5 C 85.5 256.83 87.17 250.17 86.5 250.5 Z M 193.5 118.5 C 193.33 117.67 189.17 120.17 188.5 121.5 C 187.83 122.83 188.67 127 189.5 126.5 C 190.33 126 193.67 119.33 193.5 118.5 Z M 170.5 104.5 C 171.17 102.33 169.33 102.17 167.5 104.5 C 165.67 106.83 160.17 116.33 159.5 118.5 C 158.83 120.67 161.67 119.83 163.5 117.5 C 165.33 115.17 169.83 106.67 170.5 104.5 Z M 207.5 53.5 C 206.67 52.67 203.17 54.83 202.5 56.5 C 201.83 58.17 202.67 62.67 203.5 63.5 C 204.33 64.33 206.83 63.17 207.5 61.5 C 208.17 59.83 208.33 54.33 207.5 53.5 Z"/>
  </g>
</svg>
