<svg xmlns="http://www.w3.org/2000/svg" width="899" height="921" viewBox="0 0 899 921" role="img" aria-labelledby="title desc">
  <title id="title">Nur logo loop frame 053</title>
  <desc id="desc">Vector-traced frame from Nur_Logo_Loop_02.gif.</desc>
  <g id="frame-053" stroke-linejoin="round" stroke-linecap="round" stroke-width="0.5" shape-rendering="geometricPrecision">
    <path fill="#008136" stroke="#008136" d="M 212.5 55.5 C 204.33 64.33 183 86.83 165.5 111.5 C 148 136.17 120.5 181.33 107.5 203.5 C 94.5 225.67 94.67 226.17 87.5 244.5 C 80.33 262.83 71 287.67 64.5 313.5 C 58 339.33 51.83 374.17 48.5 399.5 C 45.17 424.83 43.67 442 44.5 465.5 C 45.33 489 49 515.67 53.5 540.5 C 58 565.33 64.33 593 71.5 614.5 C 78.67 636 85.17 649.17 96.5 669.5 C 107.83 689.83 124.17 716 139.5 736.5 C 154.83 757 171.67 776 188.5 792.5 C 205.33 809 222.67 823.17 240.5 835.5 C 258.33 847.83 273.83 856.83 295.5 866.5 C 317.17 876.17 345.83 886.67 370.5 893.5 C 395.17 900.33 423 905.17 443.5 907.5 C 464 909.83 486.67 911.67 493.5 907.5 C 500.33 903.33 487.17 893.17 484.5 882.5 C 481.83 871.83 479.17 866.67 477.5 843.5 C 475.83 820.33 476.17 773.5 474.5 743.5 C 472.83 713.5 470.5 687 467.5 663.5 C 464.5 640 460.83 620.17 456.5 602.5 C 452.17 584.83 447.83 572.17 441.5 557.5 C 435.17 542.83 426 527 418.5 514.5 C 411 502 419 505.83 396.5 482.5 C 374 459.17 309 400.5 283.5 374.5 C 258 348.5 253.17 339 243.5 326.5 C 233.83 314 232.33 313 225.5 299.5 C 218.67 286 208 262.67 202.5 245.5 C 197 228.33 194.17 214.17 192.5 196.5 C 190.83 178.83 191.33 155.67 192.5 139.5 C 193.67 123.33 196.67 112 199.5 99.5 C 202.33 87 207 71.33 209.5 64.5 C 212 57.67 214 60 214.5 58.5 C 215 57 220.67 46.67 212.5 55.5 Z"/>
    <path fill="#83bb26" stroke="#83bb26" d="M 446.5 494.5 C 445.17 492 422.67 509.5 419.5 515.5 C 416.33 521.5 423 534 427.5 530.5 C 432 527 447.83 497 446.5 494.5 Z M 655.5 35.5 C 646.33 31.17 640.5 28 650.5 37.5 C 660.5 47 699.17 75.83 715.5 92.5 C 731.83 109.17 740.17 124.5 748.5 137.5 C 756.83 150.5 761.17 160.67 765.5 170.5 C 769.83 180.33 772.5 185 774.5 196.5 C 776.5 208 779.33 224.83 777.5 239.5 C 775.67 254.17 771 270.17 763.5 284.5 C 756 298.83 747.17 310.83 732.5 325.5 C 717.83 340.17 694.5 359 675.5 372.5 C 656.5 386 625.67 393.33 618.5 406.5 C 611.33 419.67 628.67 436.33 632.5 451.5 C 636.33 466.67 639.5 482.33 641.5 497.5 C 643.5 512.67 644.5 524.17 644.5 542.5 C 644.5 560.83 635.33 600.17 641.5 607.5 C 647.67 614.83 666.17 596 681.5 586.5 C 696.83 577 718.67 561.67 733.5 550.5 C 748.33 539.33 758.67 530.67 770.5 519.5 C 782.33 508.33 794.17 496.5 804.5 483.5 C 814.83 470.5 824.5 455.67 832.5 441.5 C 840.5 427.33 847.67 410.5 852.5 398.5 C 857.33 386.5 859 381.83 861.5 369.5 C 864 357.17 866.67 340.5 867.5 324.5 C 868.33 308.5 867.5 286.5 866.5 273.5 C 865.5 260.5 864.5 256.83 861.5 246.5 C 858.5 236.17 854.5 223.83 848.5 211.5 C 842.5 199.17 839 190.17 825.5 172.5 C 812 154.83 787.5 123.67 767.5 105.5 C 747.5 87.33 724.17 75.17 705.5 63.5 C 686.83 51.83 664.67 39.83 655.5 35.5 Z"/>
    <path fill="#6ab12d" stroke="#6ab12d" d="M 639.5 612.5 C 633.67 604.83 603.33 627.33 587.5 635.5 C 571.67 643.67 558.33 651.83 544.5 661.5 C 530.67 671.17 514.67 683.83 504.5 693.5 C 494.33 703.17 488.17 710.67 483.5 719.5 C 478.83 728.33 477.83 736.17 476.5 746.5 C 475.17 756.83 472.5 757.17 475.5 781.5 C 478.5 805.83 492.67 876.17 494.5 892.5 C 496.33 908.83 488.33 881.17 486.5 879.5 C 484.67 877.83 482.33 877.83 483.5 882.5 C 484.67 887.17 490.33 904.67 493.5 907.5 C 496.67 910.33 494.67 910 502.5 899.5 C 510.33 889 525.17 868.83 540.5 844.5 C 555.83 820.17 580.83 780.67 594.5 753.5 C 608.17 726.33 615 705 622.5 681.5 C 630 658 645.33 620.17 639.5 612.5 Z M 478.5 136.5 C 474.5 136 495.83 178.83 501.5 197.5 C 507.17 216.17 510.33 229 512.5 248.5 C 514.67 268 514.83 298.17 514.5 314.5 C 514.17 330.83 513.17 333.17 510.5 346.5 C 507.83 359.83 512 364.67 498.5 394.5 C 485 424.33 441.33 503.33 429.5 525.5 C 417.67 547.67 429 529 427.5 527.5 C 426 526 422 517.83 420.5 516.5 C 419 515.17 416.5 516 418.5 519.5 C 420.5 523 425.83 542.33 432.5 537.5 C 439.17 532.67 445.17 503.5 458.5 490.5 C 471.83 477.5 486 472.5 512.5 459.5 C 539 446.5 597.5 412.83 617.5 412.5 C 637.5 412.17 628.83 444.17 632.5 457.5 C 636.17 470.83 637.67 476.83 639.5 492.5 C 641.33 508.17 643.5 533 643.5 551.5 C 643.5 570 639.83 593.83 639.5 603.5 C 639.17 613.17 640.5 612.83 641.5 609.5 C 642.5 606.17 645.17 601 645.5 583.5 C 645.83 566 645 524.83 643.5 504.5 C 642 484.17 640.17 477.17 636.5 461.5 C 632.83 445.83 627.33 428 621.5 410.5 C 615.67 393 613.5 384 601.5 356.5 C 589.5 329 562.17 271.5 549.5 245.5 C 536.83 219.5 537.33 218.67 525.5 200.5 C 513.67 182.33 482.5 137 478.5 136.5 Z"/>
    <path fill="#009f3a" stroke="#009f3a" d="M 619.5 411.5 C 599 412 535.17 447.17 510.5 458.5 C 485.83 469.83 481 473.83 471.5 479.5 C 462 485.17 460 483.5 453.5 492.5 C 447 501.5 437.17 527.33 432.5 533.5 C 427.83 539.67 423.17 522.67 425.5 529.5 C 427.83 536.33 440.33 556.17 446.5 574.5 C 452.67 592.83 458.33 615.5 462.5 639.5 C 466.67 663.5 469.17 684.17 471.5 718.5 C 473.83 752.83 474.5 817.83 476.5 845.5 C 478.5 873.17 480.83 874.17 483.5 884.5 C 486.17 894.83 490.67 904 492.5 907.5 C 494.33 911 495.17 908.17 494.5 905.5 C 493.83 902.83 488.33 892.17 488.5 891.5 C 488.67 890.83 494 900.83 495.5 901.5 C 497 902.17 500.67 915.83 497.5 895.5 C 494.33 875.17 479.83 804 476.5 779.5 C 473.17 755 475.5 759.5 477.5 748.5 C 479.5 737.5 482 724 488.5 713.5 C 495 703 505.33 695 516.5 685.5 C 527.67 676 534.83 668.67 555.5 656.5 C 576.17 644.33 625.67 626.17 640.5 612.5 C 655.33 598.83 644.5 594.83 644.5 574.5 C 644.5 554.17 642.33 510.33 640.5 490.5 C 638.67 470.67 637 468.67 633.5 455.5 C 630 442.33 640 411 619.5 411.5 Z"/>
    <path fill="#007a39" stroke="#007a39" d="M 427.5 540.5 C 424.17 547 416.33 568.67 412.5 581.5 C 408.67 594.33 406 602.33 404.5 617.5 C 403 632.67 401 653.33 403.5 672.5 C 406 691.67 410.83 708.5 419.5 732.5 C 428.17 756.5 445.67 795.17 455.5 816.5 C 465.33 837.83 475.83 875.83 478.5 860.5 C 481.17 845.17 474.17 761.17 471.5 724.5 C 468.83 687.83 466.33 664.5 462.5 640.5 C 458.67 616.5 453.5 596.83 448.5 580.5 C 443.5 564.17 436 549.17 432.5 542.5 C 429 535.83 430.83 534 427.5 540.5 Z"/>
    <path fill="#007d38" stroke="#007d38" d="M 115.5 699.5 C 115.83 700.67 129.17 719.83 131.5 722.5 C 133.83 725.17 132.17 719.33 129.5 715.5 C 126.83 711.67 115.17 698.33 115.5 699.5 Z M 456.5 618.5 C 457 622.17 462 643 462.5 643.5 C 463 644 460.5 625.67 459.5 621.5 C 458.5 617.33 456 614.83 456.5 618.5 Z M 418.5 521.5 C 412.67 528 395 547.67 386.5 560.5 C 378 573.33 371.83 586.67 367.5 598.5 C 363.17 610.33 361.17 618.5 360.5 631.5 C 359.83 644.5 360.5 661 363.5 676.5 C 366.5 692 370.5 705.67 378.5 724.5 C 386.5 743.33 401 770.83 411.5 789.5 C 422 808.17 428.83 818.83 441.5 836.5 C 454.17 854.17 481.67 892 487.5 895.5 C 493.33 899 478 864.5 476.5 857.5 C 475 850.5 478.83 854.33 478.5 853.5 C 478.17 852.67 474.67 852.83 474.5 852.5 C 474.33 852.17 477.33 855.33 477.5 851.5 C 477.67 847.67 476 829.67 475.5 829.5 C 475 829.33 483.67 867 474.5 850.5 C 465.33 834 432 759.5 420.5 730.5 C 409 701.5 408 695 405.5 676.5 C 403 658 404.17 635 405.5 619.5 C 406.83 604 409.5 596.33 413.5 583.5 C 417.5 570.67 422.5 538.67 429.5 542.5 C 436.5 546.33 453.83 604.33 455.5 606.5 C 457.17 608.67 445.17 569.67 439.5 555.5 C 433.83 541.33 425 527.17 421.5 521.5 C 418 515.83 424.33 515 418.5 521.5 Z M 242.5 324.5 C 241.17 323.33 241.17 326.67 242.5 328.5 C 243.83 330.33 250.5 336.17 250.5 335.5 C 250.5 334.83 243.83 325.67 242.5 324.5 Z M 221.5 292.5 C 220.83 292.17 223.33 299.67 224.5 301.5 C 225.67 303.33 229 305 228.5 303.5 C 228 302 222.17 292.83 221.5 292.5 Z M 75.5 285.5 C 75 284.67 73.17 285.17 72.5 286.5 C 71.83 287.83 71 292.67 71.5 293.5 C 72 294.33 74.83 292.83 75.5 291.5 C 76.17 290.17 76 286.33 75.5 285.5 Z M 201.5 242.5 C 200.83 242.17 200.83 247.17 201.5 248.5 C 202.17 249.83 205.5 251.5 205.5 250.5 C 205.5 249.5 202.17 242.83 201.5 242.5 Z M 137.5 159.5 C 137 159.5 132 165.33 131.5 166.5 C 131 167.67 133.5 167.67 134.5 166.5 C 135.5 165.33 138 159.5 137.5 159.5 Z M 165.5 114.5 C 163.83 116.17 155.5 127.83 155.5 128.5 C 155.5 129.17 163.83 120.83 165.5 118.5 C 167.17 116.17 167.17 112.83 165.5 114.5 Z"/>
  </g>
</svg>
