<svg xmlns="http://www.w3.org/2000/svg" width="899" height="921" viewBox="0 0 899 921" role="img" aria-labelledby="title desc">
  <title id="title">Nur logo loop frame 034</title>
  <desc id="desc">Vector-traced frame from Nur_Logo_Loop_02.gif.</desc>
  <g id="frame-034" stroke-linejoin="round" stroke-linecap="round" stroke-width="0.5" shape-rendering="geometricPrecision">
    <path fill="#008136" stroke="#008136" d="M 234.5 76.5 C 226.5 81.67 201.33 98.5 188.5 109.5 C 175.67 120.5 170.33 125 157.5 142.5 C 144.67 160 125 187.5 111.5 214.5 C 98 241.5 85.5 277 76.5 304.5 C 67.5 332 62.17 357 57.5 379.5 C 52.83 402 49.17 415 48.5 439.5 C 47.83 464 49.67 497.33 53.5 526.5 C 57.33 555.67 64.33 590.67 71.5 614.5 C 78.67 638.33 85.17 649.17 96.5 669.5 C 107.83 689.83 124.17 716 139.5 736.5 C 154.83 757 171.67 776 188.5 792.5 C 205.33 809 222.67 823.17 240.5 835.5 C 258.33 847.83 273.83 856.83 295.5 866.5 C 317.17 876.17 345.83 886.67 370.5 893.5 C 395.17 900.33 423 905.17 443.5 907.5 C 464 909.83 486.67 911.5 493.5 907.5 C 500.33 903.5 487.17 894.17 484.5 883.5 C 481.83 872.83 479.17 866.83 477.5 843.5 C 475.83 820.17 476.17 773.5 474.5 743.5 C 472.83 713.5 470.5 687 467.5 663.5 C 464.5 640 460.83 620.17 456.5 602.5 C 452.17 584.83 448.17 572.67 441.5 557.5 C 434.83 542.33 425 525.17 416.5 511.5 C 408 497.83 407.83 493.5 390.5 475.5 C 373.17 457.5 332.17 422.5 312.5 403.5 C 292.83 384.5 282.5 372.83 272.5 361.5 C 262.5 350.17 261.17 349.83 252.5 335.5 C 243.83 321.17 228.17 295.5 220.5 275.5 C 212.83 255.5 208.83 230.83 206.5 215.5 C 204.17 200.17 205.67 195 206.5 183.5 C 207.33 172 211 153.83 211.5 146.5 C 212 139.17 209.33 140.83 209.5 139.5 C 209.67 138.17 212.17 139.5 212.5 138.5 C 212.83 137.5 209.33 141.17 211.5 133.5 C 213.67 125.83 221.33 101.67 225.5 92.5 C 229.67 83.33 235 81.17 236.5 78.5 C 238 75.83 242.5 71.33 234.5 76.5 Z"/>
    <path fill="#83bb26" stroke="#83bb26" d="M 456.5 478.5 C 454.83 475.33 422.33 502.83 417.5 511.5 C 412.67 520.17 421 536 427.5 530.5 C 434 525 458.17 481.67 456.5 478.5 Z M 617.5 44.5 C 623.33 49.5 664.5 68.17 683.5 81.5 C 702.5 94.83 719.67 110.33 731.5 124.5 C 743.33 138.67 749 151.33 754.5 166.5 C 760 181.67 763 202 764.5 215.5 C 766 229 764.33 239.33 763.5 247.5 C 762.67 255.67 762.17 257.17 759.5 264.5 C 756.83 271.83 751.5 284.17 747.5 291.5 C 743.5 298.83 745.67 298 735.5 308.5 C 725.33 319 701.33 342.33 686.5 354.5 C 671.67 366.67 659.33 373.67 646.5 381.5 C 633.67 389.33 611.33 382 609.5 401.5 C 607.67 421 630.33 472.17 635.5 498.5 C 640.67 524.83 640 542.5 640.5 559.5 C 641 576.5 631 598.17 638.5 600.5 C 646 602.83 669.17 584 685.5 573.5 C 701.83 563 723.67 547.17 736.5 537.5 C 749.33 527.83 751.5 526.5 762.5 515.5 C 773.5 504.5 790.83 487.5 802.5 471.5 C 814.17 455.5 825 435.17 832.5 419.5 C 840 403.83 843.83 391 847.5 377.5 C 851.17 364 853.17 355.17 854.5 338.5 C 855.83 321.83 856.5 294.5 855.5 277.5 C 854.5 260.5 852.83 250.5 848.5 236.5 C 844.17 222.5 837.83 208 829.5 193.5 C 821.17 179 810.67 164.17 798.5 149.5 C 786.33 134.83 773.5 118.67 756.5 105.5 C 739.5 92.33 714.5 79.5 696.5 70.5 C 678.5 61.5 661.67 55.83 648.5 51.5 C 635.33 47.17 611.67 39.5 617.5 44.5 Z"/>
    <path fill="#6ab12d" stroke="#6ab12d" d="M 459.5 153.5 C 454.5 152 479.83 178.83 487.5 193.5 C 495.17 208.17 501.67 224.83 505.5 241.5 C 509.33 258.17 510.17 274.5 510.5 293.5 C 510.83 312.5 509.5 337.67 507.5 355.5 C 505.5 373.33 511.83 371.83 498.5 400.5 C 485.17 429.17 440.83 508.83 427.5 527.5 C 414.17 546.17 420.5 514.67 418.5 512.5 C 416.5 510.33 413.5 510.83 415.5 514.5 C 417.5 518.17 424.33 538.17 430.5 534.5 C 436.67 530.83 446.67 502.33 452.5 492.5 C 458.33 482.67 457 482.17 465.5 475.5 C 474 468.83 479.83 464 503.5 452.5 C 527.17 441 586.33 401.83 607.5 406.5 C 628.67 411.17 625.33 457.17 630.5 480.5 C 635.67 503.83 637.67 526.5 638.5 546.5 C 639.33 566.5 644.17 587.5 635.5 600.5 C 626.83 613.5 601 616.5 586.5 624.5 C 572 632.5 559 641.17 548.5 648.5 C 538 655.83 532.5 660.33 523.5 668.5 C 514.5 676.67 501.33 689.83 494.5 697.5 C 487.67 705.17 485.5 706.83 482.5 714.5 C 479.5 722.17 477.5 732.33 476.5 743.5 C 475.5 754.67 472.83 755.5 476.5 781.5 C 480.17 807.5 495.33 879.5 498.5 899.5 C 501.67 919.5 497 902.83 495.5 901.5 C 494 900.17 490.83 892.33 489.5 891.5 C 488.17 890.67 486.5 893.83 487.5 896.5 C 488.5 899.17 483.33 921.33 495.5 907.5 C 507.67 893.67 543.5 840.33 560.5 813.5 C 577.5 786.67 586 774.83 597.5 746.5 C 609 718.17 622.5 669.33 629.5 643.5 C 636.5 617.67 637.5 606.33 639.5 591.5 C 641.5 576.67 642 570.33 641.5 554.5 C 641 538.67 639.5 515.33 636.5 496.5 C 633.5 477.67 629.83 462.83 623.5 441.5 C 617.17 420.17 608.5 394.5 598.5 368.5 C 588.5 342.5 577 313.17 563.5 285.5 C 550 257.83 534.83 224.5 517.5 202.5 C 500.17 180.5 464.5 155 459.5 153.5 Z"/>
    <path fill="#009f3a" stroke="#009f3a" d="M 609.5 405.5 C 589 405.67 525.83 440 501.5 451.5 C 477.17 463 471.83 468 463.5 474.5 C 455.17 481 457 481 451.5 490.5 C 446 500 434.83 525 430.5 531.5 C 426.17 538 422.83 522.33 425.5 529.5 C 428.17 536.67 440.33 556.17 446.5 574.5 C 452.67 592.83 458 611 462.5 639.5 C 467 668 471.17 711.17 473.5 745.5 C 475.83 779.83 474.83 822.17 476.5 845.5 C 478.17 868.83 480.83 875.17 483.5 885.5 C 486.17 895.83 489.83 904.83 492.5 907.5 C 495.17 910.17 502 922.83 499.5 901.5 C 497 880.17 481.17 805.5 477.5 779.5 C 473.83 753.5 476.5 756 477.5 745.5 C 478.5 735 480.5 724.17 483.5 716.5 C 486.5 708.83 484.33 710.67 495.5 699.5 C 506.67 688.33 535 661.83 550.5 649.5 C 566 637.17 574.17 633.33 588.5 625.5 C 602.83 617.67 628 616 636.5 602.5 C 645 589 639.67 561.33 639.5 544.5 C 639.33 527.67 638 517.17 635.5 501.5 C 633 485.83 628.83 466.5 624.5 450.5 C 620.17 434.5 630 405.33 609.5 405.5 Z"/>
    <path fill="#007a39" stroke="#007a39" d="M 428.5 539.5 C 425.17 542.33 420.33 555.67 416.5 567.5 C 412.67 579.33 407.83 599.5 405.5 610.5 C 403.17 621.5 402.67 622.33 402.5 633.5 C 402.33 644.67 402.17 662 404.5 677.5 C 406.83 693 412.17 712 416.5 726.5 C 420.83 741 420.67 741.5 430.5 764.5 C 440.33 787.5 467.33 847.5 475.5 864.5 C 483.67 881.5 479.5 870.17 479.5 866.5 C 479.5 862.83 476.83 866.17 475.5 842.5 C 474.17 818.83 473.67 758.17 471.5 724.5 C 469.33 690.83 466.33 664.5 462.5 640.5 C 458.67 616.5 452.83 595.5 448.5 580.5 C 444.17 565.5 439.83 557.33 436.5 550.5 C 433.17 543.67 431.83 536.67 428.5 539.5 Z M 161.5 140.5 C 160.67 141 149 156.83 147.5 159.5 C 146 162.17 150.17 159.67 152.5 156.5 C 154.83 153.33 162.33 140 161.5 140.5 Z M 208.5 137.5 C 208 138.5 208 142.5 208.5 143.5 C 209 144.5 211 144.5 211.5 143.5 C 212 142.5 212 138.5 211.5 137.5 C 211 136.5 209 136.5 208.5 137.5 Z"/>
    <path fill="#007d38" stroke="#007d38" d="M 115.5 699.5 C 115.83 700.67 129.17 719.83 131.5 722.5 C 133.83 725.17 132.17 719.33 129.5 715.5 C 126.83 711.67 115.17 698.33 115.5 699.5 Z M 62.5 577.5 C 62.5 578.5 65.83 585.17 66.5 585.5 C 67.17 585.83 67.17 580.83 66.5 579.5 C 65.83 578.17 62.5 576.5 62.5 577.5 Z M 415.5 517.5 C 409.83 524.17 393.5 544.83 385.5 558.5 C 377.5 572.17 371.33 588.33 367.5 599.5 C 363.67 610.67 363 613.33 362.5 625.5 C 362 637.67 362.83 659.33 364.5 672.5 C 366.17 685.67 368.5 692.5 372.5 704.5 C 376.5 716.5 380.67 728.5 388.5 744.5 C 396.33 760.5 403.33 775.83 419.5 800.5 C 435.67 825.17 475.5 882.33 485.5 892.5 C 495.5 902.67 481.17 867.17 479.5 861.5 C 477.83 855.83 475.67 859.83 475.5 858.5 C 475.33 857.17 478.5 853.5 478.5 853.5 C 478.5 853.5 482.33 871.17 475.5 858.5 C 468.67 845.83 447.17 799.83 437.5 777.5 C 427.83 755.17 422.67 740.5 417.5 724.5 C 412.33 708.5 408.83 692.17 406.5 681.5 C 404.17 670.83 403.67 671 403.5 660.5 C 403.33 650 403.17 633.67 405.5 618.5 C 407.83 603.33 413.5 582.33 417.5 569.5 C 421.5 556.67 424.33 539.5 429.5 541.5 C 434.67 543.5 448.67 582.83 448.5 581.5 C 448.33 580.17 433.33 544 428.5 533.5 C 423.67 523 421.67 521.17 419.5 518.5 C 417.33 515.83 421.17 510.83 415.5 517.5 Z M 82.5 294.5 C 81.83 294.83 78.5 301.5 78.5 302.5 C 78.5 303.5 81.83 301.83 82.5 300.5 C 83.17 299.17 83.17 294.17 82.5 294.5 Z M 118.5 205.5 C 117.5 206.17 112.5 213.67 112.5 214.5 C 112.5 215.33 117.5 212 118.5 210.5 C 119.5 209 119.5 204.83 118.5 205.5 Z M 205.5 179.5 C 205 179.33 204.17 185.17 204.5 186.5 C 204.83 187.83 207.33 188.67 207.5 187.5 C 207.67 186.33 206 179.67 205.5 179.5 Z M 235.5 76.5 C 235.83 74.17 226.67 81.83 225.5 83.5 C 224.33 85.17 228.83 84.17 228.5 86.5 C 228.17 88.83 222.33 99.17 223.5 97.5 C 224.67 95.83 235.17 78.83 235.5 76.5 Z"/>
  </g>
</svg>
