<svg xmlns="http://www.w3.org/2000/svg" width="899" height="921" viewBox="0 0 899 921" role="img" aria-labelledby="title desc">
  <title id="title">Nur logo loop frame 067</title>
  <desc id="desc">Vector-traced frame from Nur_Logo_Loop_02.gif.</desc>
  <g id="frame-067" stroke-linejoin="round" stroke-linecap="round" stroke-width="0.5" shape-rendering="geometricPrecision">
    <path fill="#008136" stroke="#008136" d="M 181.5 50.5 C 174 59.83 148.33 93.33 139.5 106.5 C 130.67 119.67 131.5 124.67 128.5 129.5 C 125.5 134.33 128 125.5 121.5 135.5 C 115 145.5 98.17 173.17 89.5 189.5 C 80.83 205.83 76.67 214 69.5 233.5 C 62.33 253 51.33 287.83 46.5 306.5 C 41.67 325.17 41.17 336.67 40.5 345.5 C 39.83 354.33 42.67 357 42.5 359.5 C 42.33 362 40.67 342.83 39.5 360.5 C 38.33 378.17 34.67 438.67 35.5 465.5 C 36.33 492.33 42.5 511.83 44.5 521.5 C 46.5 531.17 46.33 518.83 47.5 523.5 C 48.67 528.17 46.83 532.5 51.5 549.5 C 56.17 566.5 66.5 602.83 75.5 625.5 C 84.5 648.17 94.83 667 105.5 685.5 C 116.17 704 125.67 718.67 139.5 736.5 C 153.33 754.33 171.67 776 188.5 792.5 C 205.33 809 222.67 823.17 240.5 835.5 C 258.33 847.83 273.83 856.83 295.5 866.5 C 317.17 876.17 345.83 886.67 370.5 893.5 C 395.17 900.33 423 905.17 443.5 907.5 C 464 909.83 487 912.83 493.5 907.5 C 500 902.17 485.17 886.17 482.5 875.5 C 479.83 864.83 478.5 855 477.5 843.5 C 476.5 832 477.33 816 476.5 806.5 C 475.67 797 472.83 797.33 472.5 786.5 C 472.17 775.67 475.33 762 474.5 741.5 C 473.67 721 470.5 686.67 467.5 663.5 C 464.5 640.33 459.83 617.67 456.5 602.5 C 453.17 587.33 452.33 584.67 447.5 572.5 C 442.67 560.33 435.33 543.67 427.5 529.5 C 419.67 515.33 411 500.17 400.5 487.5 C 390 474.83 378.33 465.33 364.5 453.5 C 350.67 441.67 333.5 430.5 317.5 416.5 C 301.5 402.5 282.83 385.17 268.5 369.5 C 254.17 353.83 241.33 336 231.5 322.5 C 221.67 309 217 304.33 209.5 288.5 C 202 272.67 192 247.33 186.5 227.5 C 181 207.67 178.33 183.17 176.5 169.5 C 174.67 155.83 174.17 165.33 175.5 145.5 C 176.83 125.67 183.5 66.33 184.5 50.5 C 185.5 34.67 189 41.17 181.5 50.5 Z"/>
    <path fill="#83bb26" stroke="#83bb26" d="M 432.5 514.5 C 432.17 513.5 424.67 519.33 423.5 521.5 C 422.33 523.67 424 528.67 425.5 527.5 C 427 526.33 432.83 515.5 432.5 514.5 Z M 707.5 19.5 C 698.5 13 702.17 18.5 705.5 22.5 C 708.83 26.5 721.33 36.67 727.5 43.5 C 733.67 50.33 733.33 48 742.5 63.5 C 751.67 79 774 118.33 782.5 136.5 C 791 154.67 791.33 159.17 793.5 172.5 C 795.67 185.83 797.17 200.17 795.5 216.5 C 793.83 232.83 787 258.5 783.5 270.5 C 780 282.5 780 280.17 774.5 288.5 C 769 296.83 763.17 307.33 750.5 320.5 C 737.83 333.67 715.17 354.33 698.5 367.5 C 681.83 380.67 662.5 392.17 650.5 399.5 C 638.5 406.83 628.17 398.83 626.5 411.5 C 624.83 424.17 637.33 454.5 640.5 475.5 C 643.67 496.5 644.67 522.17 645.5 537.5 C 646.33 552.83 646.67 553.33 645.5 567.5 C 644.33 581.67 634 616.33 638.5 622.5 C 643 628.67 658.33 613.17 672.5 604.5 C 686.67 595.83 707.5 582.17 723.5 570.5 C 739.5 558.83 755.5 545.83 768.5 534.5 C 781.5 523.17 790.83 514.83 801.5 502.5 C 812.17 490.17 824.33 472.83 832.5 460.5 C 840.67 448.17 844.17 442.33 850.5 428.5 C 856.83 414.67 866 391.33 870.5 377.5 C 875 363.67 876 359.5 877.5 345.5 C 879 331.5 879.83 308.67 879.5 293.5 C 879.17 278.33 878 267.17 875.5 254.5 C 873 241.83 869.17 229.83 864.5 217.5 C 859.83 205.17 859.33 200.83 847.5 180.5 C 835.67 160.17 808.17 115.33 793.5 95.5 C 778.83 75.67 773.83 74.17 759.5 61.5 C 745.17 48.83 716.5 26 707.5 19.5 Z"/>
    <path fill="#6ab12d" stroke="#6ab12d" d="M 502.5 129.5 C 496.33 120 498.67 123.5 501.5 136.5 C 504.33 149.5 515.33 187.17 519.5 207.5 C 523.67 227.83 525.17 243 526.5 258.5 C 527.83 274 528.33 286 527.5 300.5 C 526.67 315 524.67 330.5 521.5 345.5 C 518.33 360.5 512.33 379.5 508.5 390.5 C 504.67 401.5 509.33 394.5 498.5 411.5 C 487.67 428.5 455.67 473.67 443.5 492.5 C 431.33 511.33 429 519.5 425.5 524.5 C 422 529.5 423 522.33 422.5 522.5 C 422 522.67 421.33 524 422.5 525.5 C 423.67 527 426.67 533.83 429.5 531.5 C 432.33 529.17 429.83 520 439.5 511.5 C 449.17 503 456.67 496.17 487.5 480.5 C 518.33 464.83 600.33 423.83 624.5 417.5 C 648.67 411.17 629.83 430.83 632.5 442.5 C 635.17 454.17 638.67 465.83 640.5 487.5 C 642.33 509.17 644.5 549.67 643.5 572.5 C 642.5 595.33 645.5 611.33 634.5 624.5 C 623.5 637.67 596 641.5 577.5 651.5 C 559 661.5 538.17 674 523.5 684.5 C 508.83 695 496.83 706.5 489.5 714.5 C 482.17 722.5 482.17 726.17 479.5 732.5 C 476.83 738.83 474 737.17 473.5 752.5 C 473 767.83 474.17 803.83 476.5 824.5 C 478.83 845.17 486.17 866.33 487.5 876.5 C 488.83 886.67 483.5 880.33 484.5 885.5 C 485.5 890.67 491.5 903.83 493.5 907.5 C 495.5 911.17 485.33 923.17 496.5 907.5 C 507.67 891.83 543.33 841 560.5 813.5 C 577.67 786 587.5 769.67 599.5 742.5 C 611.5 715.33 625.67 671.17 632.5 650.5 C 639.33 629.83 638.17 632 640.5 618.5 C 642.83 605 646.33 593.67 646.5 569.5 C 646.67 545.33 646 504.33 641.5 473.5 C 637 442.67 630 417.33 619.5 384.5 C 609 351.67 592 308.33 578.5 276.5 C 565 244.67 551.17 218 538.5 193.5 C 525.83 169 508.67 139 502.5 129.5 Z"/>
    <path fill="#009f3a" stroke="#009f3a" d="M 475.5 810.5 C 473.5 806.67 477.17 849.17 478.5 861.5 C 479.83 873.83 481.5 878.33 483.5 884.5 C 485.5 890.67 489.83 897.5 490.5 898.5 C 491.17 899.5 487.5 892.83 487.5 890.5 C 487.5 888.17 492.5 897.83 490.5 884.5 C 488.5 871.17 477.5 814.33 475.5 810.5 Z M 626.5 415.5 C 600.67 415.83 517 463.67 485.5 479.5 C 454 495.33 447.17 502 437.5 510.5 C 427.83 519 430 528.17 427.5 530.5 C 425 532.83 419.33 517.17 422.5 524.5 C 425.67 531.83 440.17 557.17 446.5 574.5 C 452.83 591.83 456 600.33 460.5 628.5 C 465 656.67 471.67 716.83 473.5 743.5 C 475.33 770.17 471.33 777.83 471.5 788.5 C 471.67 799.17 473.83 814.17 474.5 807.5 C 475.17 800.83 472.83 763.67 475.5 748.5 C 478.17 733.33 483.5 726 490.5 716.5 C 497.5 707 507.67 699.33 517.5 691.5 C 527.33 683.67 529.5 680.67 549.5 669.5 C 569.5 658.33 621.67 640.33 637.5 624.5 C 653.33 608.67 643.33 590.5 644.5 574.5 C 645.67 558.5 645.17 544.67 644.5 528.5 C 643.83 512.33 643.5 496.33 640.5 477.5 C 637.5 458.67 652.33 415.17 626.5 415.5 Z"/>
    <path fill="#007a39" stroke="#007a39" d="M 424.5 531.5 C 418.5 541.5 404.5 586 400.5 610.5 C 396.5 635 396.83 655.83 400.5 678.5 C 404.17 701.17 410 716.17 422.5 746.5 C 435 776.83 466.17 841.5 475.5 860.5 C 484.83 879.5 479.5 874.5 478.5 860.5 C 477.5 846.5 470.5 796 469.5 776.5 C 468.5 757 473.67 766.17 472.5 743.5 C 471.33 720.83 466.5 667.67 462.5 640.5 C 458.5 613.33 452.83 595.5 448.5 580.5 C 444.17 565.5 440.5 558.67 436.5 550.5 C 432.5 542.33 430.5 521.5 424.5 531.5 Z M 315.5 414.5 C 314.67 414.33 318.83 421 320.5 422.5 C 322.17 424 326.33 424.83 325.5 423.5 C 324.67 422.17 316.33 414.67 315.5 414.5 Z M 207.5 283.5 C 206.67 283 207.5 288.83 208.5 290.5 C 209.5 292.17 213.67 294.67 213.5 293.5 C 213.33 292.33 208.33 284 207.5 283.5 Z M 189.5 239.5 C 189 239.5 189.83 246.17 190.5 247.5 C 191.17 248.83 193.67 248.83 193.5 247.5 C 193.33 246.17 190 239.5 189.5 239.5 Z M 132.5 121.5 C 131.67 122 121.67 137 120.5 139.5 C 119.33 142 123.5 139.5 125.5 136.5 C 127.5 133.5 133.33 121 132.5 121.5 Z"/>
    <path fill="#007d38" stroke="#007d38" d="M 470.5 790.5 C 470.5 794 474.67 825.67 475.5 828.5 C 476.33 831.33 476.33 813.83 475.5 807.5 C 474.67 801.17 470.5 787 470.5 790.5 Z M 469.5 764.5 C 469 763.67 468.17 775.33 468.5 778.5 C 468.83 781.67 471.33 785.83 471.5 783.5 C 471.67 781.17 470 765.33 469.5 764.5 Z M 115.5 699.5 C 115.83 700.67 129.17 719.83 131.5 722.5 C 133.83 725.17 132.17 719.33 129.5 715.5 C 126.83 711.67 115.17 698.33 115.5 699.5 Z M 47.5 531.5 C 47.33 532.33 50.67 539.83 51.5 540.5 C 52.33 541.17 53.17 537 52.5 535.5 C 51.83 534 47.67 530.67 47.5 531.5 Z M 44.5 518.5 C 44 519.33 44.83 524.17 45.5 525.5 C 46.17 526.83 48 527.33 48.5 526.5 C 49 525.67 49.17 521.83 48.5 520.5 C 47.83 519.17 45 517.67 44.5 518.5 Z M 413.5 510.5 C 413.33 511.5 424.67 517.17 420.5 525.5 C 416.33 533.83 397.33 548.17 388.5 560.5 C 379.67 572.83 372.17 587.83 367.5 599.5 C 362.83 611.17 361.17 616.33 360.5 630.5 C 359.83 644.67 360.5 667.33 363.5 684.5 C 366.5 701.67 370.67 714.83 378.5 733.5 C 386.33 752.17 398.5 776 410.5 796.5 C 422.5 817 438 838.83 450.5 856.5 C 463 874.17 478.5 894 485.5 902.5 C 492.5 911 494 914.83 492.5 907.5 C 491 900.17 478.83 867.5 476.5 858.5 C 474.17 849.5 478.83 854.33 478.5 853.5 C 478.17 852.67 474.67 853.83 474.5 853.5 C 474.33 853.17 477.17 854.83 477.5 851.5 C 477.83 848.17 477 833.5 476.5 833.5 C 476 833.5 483.33 866.33 474.5 851.5 C 465.67 836.67 435.67 773.67 423.5 744.5 C 411.33 715.33 405.17 698.5 401.5 676.5 C 397.83 654.5 399.5 631 401.5 612.5 C 403.5 594 409.5 578.17 413.5 565.5 C 417.5 552.83 419.67 533.83 425.5 536.5 C 431.33 539.17 446.17 578.33 448.5 581.5 C 450.83 584.67 444 565.83 439.5 555.5 C 435 545.17 425.83 527 421.5 519.5 C 417.17 512 413.67 509.5 413.5 510.5 Z M 40.5 491.5 C 40.33 492.67 42 499.33 42.5 499.5 C 43 499.67 43.83 493.83 43.5 492.5 C 43.17 491.17 40.67 490.33 40.5 491.5 Z M 39.5 425.5 C 39 424.67 37.17 425.17 36.5 426.5 C 35.83 427.83 35 432.67 35.5 433.5 C 36 434.33 38.83 432.83 39.5 431.5 C 40.17 430.17 40 426.33 39.5 425.5 Z M 40.5 352.5 C 40.33 354.33 42 363.5 42.5 363.5 C 43 363.5 43.83 354.33 43.5 352.5 C 43.17 350.67 40.67 350.67 40.5 352.5 Z M 48.5 312.5 C 48 311.67 46.17 312.17 45.5 313.5 C 44.83 314.83 44 319.67 44.5 320.5 C 45 321.33 47.83 319.83 48.5 318.5 C 49.17 317.17 49 313.33 48.5 312.5 Z M 223.5 310.5 C 222 309.17 222.83 314.17 224.5 316.5 C 226.17 318.83 233.67 325.5 233.5 324.5 C 233.33 323.5 225 311.83 223.5 310.5 Z M 206.5 282.5 C 205.67 281.83 205.67 286 206.5 287.5 C 207.33 289 211.5 292.33 211.5 291.5 C 211.5 290.67 207.33 283.17 206.5 282.5 Z M 113.5 152.5 C 113 152.5 107.17 160.83 106.5 162.5 C 105.83 164.17 108.33 164.17 109.5 162.5 C 110.67 160.83 114 152.5 113.5 152.5 Z M 135.5 116.5 C 134.5 117.5 124.5 135 123.5 137.5 C 122.5 140 127.5 135 129.5 131.5 C 131.5 128 136.5 115.5 135.5 116.5 Z M 180.5 102.5 C 180.5 101.5 177.17 103.17 176.5 104.5 C 175.83 105.83 175.83 110.83 176.5 110.5 C 177.17 110.17 180.5 103.5 180.5 102.5 Z"/>
  </g>
</svg>
