<svg xmlns="http://www.w3.org/2000/svg" width="899" height="921" viewBox="0 0 899 921" role="img" aria-labelledby="title desc">
  <title id="title">Nur logo loop frame 084</title>
  <desc id="desc">Vector-traced frame from Nur_Logo_Loop_02.gif.</desc>
  <g id="frame-084" stroke-linejoin="round" stroke-linecap="round" stroke-width="0.5" shape-rendering="geometricPrecision">
    <path fill="#008136" stroke="#008136" d="M 190.5 50.5 C 182.5 60.83 162 88 145.5 113.5 C 129 139 103.83 180.67 91.5 203.5 C 79.17 226.33 78.17 231.5 71.5 250.5 C 64.83 269.5 56.5 293 51.5 317.5 C 46.5 342 43.33 370.67 41.5 397.5 C 39.67 424.33 38.83 454.33 40.5 478.5 C 42.17 502.67 46.33 519.83 51.5 542.5 C 56.67 565.17 64 593.33 71.5 614.5 C 79 635.67 85.17 649.17 96.5 669.5 C 107.83 689.83 124.17 716 139.5 736.5 C 154.83 757 171.67 776 188.5 792.5 C 205.33 809 222.67 823.17 240.5 835.5 C 258.33 847.83 273.83 856.83 295.5 866.5 C 317.17 876.17 345.83 886.67 370.5 893.5 C 395.17 900.33 423 905.17 443.5 907.5 C 464 909.83 486.67 911.67 493.5 907.5 C 500.33 903.33 487.17 893.17 484.5 882.5 C 481.83 871.83 478.83 857.5 477.5 843.5 C 476.17 829.5 477.33 809.67 476.5 798.5 C 475.67 787.33 472.83 786 472.5 776.5 C 472.17 767 475.33 760.33 474.5 741.5 C 473.67 722.67 470.5 686.67 467.5 663.5 C 464.5 640.33 459.83 617.67 456.5 602.5 C 453.17 587.33 452.33 584.67 447.5 572.5 C 442.67 560.33 435.17 543.5 427.5 529.5 C 419.83 515.5 410.83 500.33 401.5 488.5 C 392.17 476.67 384.5 470 371.5 458.5 C 358.5 447 340.33 434.67 323.5 419.5 C 306.67 404.33 286.83 386 270.5 367.5 C 254.17 349 235.67 322.83 225.5 308.5 C 215.33 294.17 214.67 294.17 209.5 281.5 C 204.33 268.83 197.5 240.83 194.5 232.5 C 191.5 224.17 193.5 241.5 191.5 231.5 C 189.5 221.5 184.17 187 182.5 172.5 C 180.83 158 179.67 164.67 181.5 144.5 C 183.33 124.33 192 67.17 193.5 51.5 C 195 35.83 198.5 40.17 190.5 50.5 Z"/>
    <path fill="#83bb26" stroke="#83bb26" d="M 435.5 509.5 C 434.83 508.17 423.17 516.5 421.5 519.5 C 419.83 522.5 423.17 529.17 425.5 527.5 C 427.83 525.83 436.17 510.83 435.5 509.5 Z M 688.5 25.5 C 678.83 19.33 681.33 23 685.5 27.5 C 689.67 32 705.33 44 713.5 52.5 C 721.67 61 724.33 62.83 734.5 78.5 C 744.67 94.17 765.5 127.17 774.5 146.5 C 783.5 165.83 786.17 180.67 788.5 194.5 C 790.83 208.33 790.67 215.67 788.5 229.5 C 786.33 243.33 783.17 261.83 775.5 277.5 C 767.83 293.17 756.17 308.67 742.5 323.5 C 728.83 338.33 713.17 352.17 693.5 366.5 C 673.83 380.83 633 389 624.5 409.5 C 616 430 639 461.17 642.5 489.5 C 646 517.83 645.83 558.33 645.5 579.5 C 645.17 600.67 635.33 613.5 640.5 616.5 C 645.67 619.5 663.5 605.33 676.5 597.5 C 689.5 589.67 703.17 580.83 718.5 569.5 C 733.83 558.17 754.5 541.83 768.5 529.5 C 782.5 517.17 792.67 506.83 802.5 495.5 C 812.33 484.17 819.5 474.17 827.5 461.5 C 835.5 448.83 844 433.67 850.5 419.5 C 857 405.33 862.67 389.33 866.5 376.5 C 870.33 363.67 872 355.67 873.5 342.5 C 875 329.33 876 312.67 875.5 297.5 C 875 282.33 873.5 265.67 870.5 251.5 C 867.5 237.33 862.33 224.33 857.5 212.5 C 852.67 200.67 853.17 198.67 841.5 180.5 C 829.83 162.33 803.83 122.83 787.5 103.5 C 771.17 84.17 760 77.5 743.5 64.5 C 727 51.5 698.17 31.67 688.5 25.5 Z"/>
    <path fill="#6ab12d" stroke="#6ab12d" d="M 493.5 131.5 C 490 132 507.83 179 512.5 199.5 C 517.17 220 519.83 236.83 521.5 254.5 C 523.17 272.17 523 291.5 522.5 305.5 C 522 319.5 520.83 326.17 518.5 338.5 C 516.17 350.83 512.17 367.83 508.5 379.5 C 504.83 391.17 510 384.33 496.5 408.5 C 483 432.67 439.83 506 427.5 524.5 C 415.17 543 423.67 519.83 422.5 519.5 C 421.33 519.17 420.17 520.83 420.5 522.5 C 420.83 524.17 423.17 528.33 424.5 529.5 C 425.83 530.67 425.67 533.5 428.5 529.5 C 431.33 525.5 433.33 513.5 441.5 505.5 C 449.67 497.5 447.33 496.83 477.5 481.5 C 507.67 466.17 595.83 415.83 622.5 413.5 C 649.17 411.17 633.83 445.5 637.5 467.5 C 641.17 489.5 643.5 526.17 644.5 545.5 C 645.5 564.83 644.5 571.67 643.5 583.5 C 642.5 595.33 650.5 605.5 638.5 616.5 C 626.5 627.5 589.33 639.83 571.5 649.5 C 553.67 659.17 545.33 664.17 531.5 674.5 C 517.67 684.83 497.17 702.5 488.5 711.5 C 479.83 720.5 482 722 479.5 728.5 C 477 735 474 735.5 473.5 750.5 C 473 765.5 473.17 792.17 476.5 818.5 C 479.83 844.83 490.17 893.5 493.5 908.5 C 496.83 923.5 482.67 928.67 496.5 908.5 C 510.33 888.33 556.83 821.33 576.5 787.5 C 596.17 753.67 603.33 735.5 614.5 705.5 C 625.67 675.5 638.17 636.5 643.5 607.5 C 648.83 578.5 646.5 551.5 646.5 531.5 C 646.5 511.5 645.17 501.33 643.5 487.5 C 641.83 473.67 642.5 470 636.5 448.5 C 630.5 427 617.5 386 607.5 358.5 C 597.5 331 588.83 310.5 576.5 283.5 C 564.17 256.5 547.33 221.83 533.5 196.5 C 519.67 171.17 497 131 493.5 131.5 Z"/>
    <path fill="#009f3a" stroke="#009f3a" d="M 475.5 804.5 C 472.83 796.83 476.5 846 478.5 861.5 C 480.5 877 484.83 889.83 487.5 897.5 C 490.17 905.17 496.5 923 494.5 907.5 C 492.5 892 478.17 812.17 475.5 804.5 Z M 624.5 411.5 C 596.67 409.5 506.33 465 475.5 480.5 C 444.67 496 447.83 496.5 439.5 504.5 C 431.17 512.5 424.33 516.83 425.5 528.5 C 426.67 540.17 440.33 556 446.5 574.5 C 452.67 593 458 611.33 462.5 639.5 C 467 667.67 472 720.33 473.5 743.5 C 475 766.67 471.33 768.67 471.5 778.5 C 471.67 788.33 473.83 808 474.5 802.5 C 475.17 797 473 760.33 475.5 745.5 C 478 730.67 483.17 722.67 489.5 713.5 C 495.83 704.33 503.17 698.83 513.5 690.5 C 523.83 682.17 530.5 675.5 551.5 663.5 C 572.5 651.5 623.83 634 639.5 618.5 C 655.17 603 645 591.5 645.5 570.5 C 646 549.5 646 519 642.5 492.5 C 639 466 652.33 413.5 624.5 411.5 Z"/>
    <path fill="#007a39" stroke="#007a39" d="M 55.5 552.5 C 55.33 553.17 57.83 560.67 58.5 561.5 C 59.17 562.33 60 559 59.5 557.5 C 59 556 55.67 551.83 55.5 552.5 Z M 424.5 531.5 C 419 537 408.17 570.33 403.5 583.5 C 398.83 596.67 398.33 597.5 396.5 610.5 C 394.67 623.5 391.5 645.67 392.5 661.5 C 393.5 677.33 397.83 690.17 402.5 705.5 C 407.17 720.83 407.83 724.83 420.5 753.5 C 433.17 782.17 468.33 856.67 478.5 877.5 C 488.67 898.33 482 884.33 481.5 878.5 C 481 872.67 477.17 857.33 475.5 842.5 C 473.83 827.67 472.17 809.17 471.5 789.5 C 470.83 769.83 473 749.33 471.5 724.5 C 470 699.67 466.33 664.5 462.5 640.5 C 458.67 616.5 452.83 595.5 448.5 580.5 C 444.17 565.5 440.5 558.67 436.5 550.5 C 432.5 542.33 430 526 424.5 531.5 Z M 208.5 279.5 C 207.67 279 211 288.17 212.5 290.5 C 214 292.83 218.17 295.33 217.5 293.5 C 216.83 291.67 209.33 280 208.5 279.5 Z M 203.5 266.5 C 202.83 266 202.83 270.17 203.5 271.5 C 204.17 272.83 207.5 275.33 207.5 274.5 C 207.5 273.67 204.17 267 203.5 266.5 Z"/>
    <path fill="#007d38" stroke="#007d38" d="M 472.5 798.5 C 472.5 802.17 475 823.83 475.5 824.5 C 476 825.17 476 806.83 475.5 802.5 C 475 798.17 472.5 794.83 472.5 798.5 Z M 115.5 699.5 C 115.83 700.67 129.17 719.83 131.5 722.5 C 133.83 725.17 132.17 719.33 129.5 715.5 C 126.83 711.67 115.17 698.33 115.5 699.5 Z M 62.5 582.5 C 62.5 583.5 65.83 591 66.5 591.5 C 67.17 592 67.17 587 66.5 585.5 C 65.83 584 62.5 581.5 62.5 582.5 Z M 413.5 510.5 C 413 511.17 423.17 515.17 418.5 523.5 C 413.83 531.83 394 548.67 385.5 560.5 C 377 572.33 372 582.17 367.5 594.5 C 363 606.83 359.33 620 358.5 634.5 C 357.67 649 359.67 666.5 362.5 681.5 C 365.33 696.5 368.83 708 375.5 724.5 C 382.17 741 392.17 761.83 402.5 780.5 C 412.83 799.17 423.17 815.67 437.5 836.5 C 451.83 857.33 479.5 894 488.5 905.5 C 497.5 917 492.33 908.5 491.5 905.5 C 490.67 902.5 485.5 894.83 483.5 887.5 C 481.5 880.17 480.67 865.17 479.5 861.5 C 478.33 857.83 486.17 883.83 476.5 865.5 C 466.83 847.17 434.67 782.17 421.5 751.5 C 408.33 720.83 402.17 696.83 397.5 681.5 C 392.83 666.17 393.5 671 393.5 659.5 C 393.5 648 394.17 629 397.5 612.5 C 400.83 596 408.83 573.17 413.5 560.5 C 418.17 547.83 419.67 533 425.5 536.5 C 431.33 540 446.17 578.33 448.5 581.5 C 450.83 584.67 444 565.83 439.5 555.5 C 435 545.17 425.83 527 421.5 519.5 C 417.17 512 414 509.83 413.5 510.5 Z M 40.5 455.5 C 40.33 458.17 42 472.33 42.5 472.5 C 43 472.67 43.83 459.33 43.5 456.5 C 43.17 453.67 40.67 452.83 40.5 455.5 Z M 43.5 428.5 C 43 428.67 40.5 442 40.5 444.5 C 40.5 447 43 446.17 43.5 443.5 C 44 440.83 44 428.33 43.5 428.5 Z M 270.5 367.5 C 269.67 367.17 270.5 371.33 271.5 372.5 C 272.5 373.67 276.67 375.33 276.5 374.5 C 276.33 373.67 271.33 367.83 270.5 367.5 Z M 221.5 301.5 C 220.17 300.17 222.67 307.67 224.5 310.5 C 226.33 313.33 233 320 232.5 318.5 C 232 317 222.83 302.83 221.5 301.5 Z M 204.5 271.5 C 205 273.33 211.67 285.83 212.5 286.5 C 213.33 287.17 210.83 278 209.5 275.5 C 208.17 273 204 269.67 204.5 271.5 Z M 78.5 237.5 C 77.67 238.17 74.33 244.83 74.5 245.5 C 74.67 246.17 78.83 242.83 79.5 241.5 C 80.17 240.17 79.33 236.83 78.5 237.5 Z M 90.5 209.5 C 89.5 210.33 85.33 217 85.5 217.5 C 85.67 218 90.67 213.83 91.5 212.5 C 92.33 211.17 91.5 208.67 90.5 209.5 Z"/>
  </g>
</svg>
