<svg xmlns="http://www.w3.org/2000/svg" width="899" height="921" viewBox="0 0 899 921" role="img" aria-labelledby="title desc">
  <title id="title">Nur logo loop frame 048</title>
  <desc id="desc">Vector-traced frame from Nur_Logo_Loop_02.gif.</desc>
  <g id="frame-048" stroke-linejoin="round" stroke-linecap="round" stroke-width="0.5" shape-rendering="geometricPrecision">
    <path fill="#008136" stroke="#008136" d="M 217.5 61.5 C 208.17 70.67 181.5 95.67 163.5 119.5 C 145.5 143.33 121.83 183.5 109.5 204.5 C 97.17 225.5 96.67 227.33 89.5 245.5 C 82.33 263.67 70.17 301 66.5 313.5 C 62.83 326 68.17 317.83 67.5 320.5 C 66.83 323.17 65.67 315.83 62.5 329.5 C 59.33 343.17 51.5 379.83 48.5 402.5 C 45.5 425.17 43.67 442.5 44.5 465.5 C 45.33 488.5 49 515.67 53.5 540.5 C 58 565.33 64.33 593 71.5 614.5 C 78.67 636 85.17 649.17 96.5 669.5 C 107.83 689.83 124.17 716 139.5 736.5 C 154.83 757 171.67 776 188.5 792.5 C 205.33 809 222.67 823.17 240.5 835.5 C 258.33 847.83 273.83 856.83 295.5 866.5 C 317.17 876.17 345.83 886.67 370.5 893.5 C 395.17 900.33 423 905.17 443.5 907.5 C 464 909.83 486.67 911.67 493.5 907.5 C 500.33 903.33 487.17 893.17 484.5 882.5 C 481.83 871.83 479.17 866.67 477.5 843.5 C 475.83 820.33 476.17 773.5 474.5 743.5 C 472.83 713.5 470.5 687 467.5 663.5 C 464.5 640 460.83 620.17 456.5 602.5 C 452.17 584.83 450.67 576.5 441.5 557.5 C 432.33 538.5 427.83 519 401.5 488.5 C 375.17 458 310.33 402.67 283.5 374.5 C 256.67 346.33 252.83 337.67 240.5 319.5 C 228.17 301.33 214.5 275.33 209.5 265.5 C 204.5 255.67 211.67 264.33 210.5 260.5 C 209.33 256.67 204 247.5 202.5 242.5 C 201 237.5 202.17 232.67 201.5 230.5 C 200.83 228.33 199.67 233.5 198.5 229.5 C 197.33 225.5 195.17 219.17 194.5 206.5 C 193.83 193.83 192.83 172.17 194.5 153.5 C 196.17 134.83 200.33 109.33 204.5 94.5 C 208.67 79.67 217.33 70 219.5 64.5 C 221.67 59 226.83 52.33 217.5 61.5 Z"/>
    <path fill="#83bb26" stroke="#83bb26" d="M 448.5 491.5 C 447.17 488.83 423 508 419.5 514.5 C 416 521 422.67 534.33 427.5 530.5 C 432.33 526.67 449.83 494.17 448.5 491.5 Z M 646.5 40.5 C 637.67 36.67 641.5 40 640.5 40.5 C 639.5 41 629.33 34.83 640.5 43.5 C 651.67 52.17 691 78.17 707.5 92.5 C 724 106.83 729.5 114.17 739.5 129.5 C 749.5 144.83 761.67 171 767.5 184.5 C 773.33 198 773.17 202 774.5 210.5 C 775.83 219 777 224.67 775.5 235.5 C 774 246.33 769 265.5 765.5 275.5 C 762 285.5 759.67 288 754.5 295.5 C 749.33 303 746.33 309 734.5 320.5 C 722.67 332 703.33 350.33 683.5 364.5 C 663.67 378.67 623 384.83 615.5 405.5 C 608 426.17 634 466.33 638.5 488.5 C 643 510.67 642.33 518.83 642.5 538.5 C 642.67 558.17 634.17 598.17 639.5 606.5 C 644.83 614.83 660.5 597 674.5 588.5 C 688.5 580 708 567 723.5 555.5 C 739 544 755 530.83 767.5 519.5 C 780 508.17 788.67 499.5 798.5 487.5 C 808.33 475.5 818.17 461.5 826.5 447.5 C 834.83 433.5 842.67 418 848.5 403.5 C 854.33 389 858.67 373.67 861.5 360.5 C 864.33 347.33 865 339 865.5 324.5 C 866 310 865.83 287.67 864.5 273.5 C 863.17 259.33 861 251 857.5 239.5 C 854 228 849.83 216.5 843.5 204.5 C 837.17 192.5 830.33 181.67 819.5 167.5 C 808.67 153.33 788 129.83 778.5 119.5 C 769 109.17 776.67 114.83 762.5 105.5 C 748.33 96.17 712.83 74.33 693.5 63.5 C 674.17 52.67 655.33 44.33 646.5 40.5 Z"/>
    <path fill="#6ab12d" stroke="#6ab12d" d="M 638.5 609.5 C 630.83 603.67 594.5 629 578.5 637.5 C 562.5 646 553.5 652.67 542.5 660.5 C 531.5 668.33 521 677 512.5 684.5 C 504 692 496.33 699.83 491.5 705.5 C 486.67 711.17 486 712.17 483.5 718.5 C 481 724.83 478 734.83 476.5 743.5 C 475 752.17 474.17 759.67 474.5 770.5 C 474.83 781.33 475.17 788.17 478.5 808.5 C 481.83 828.83 493.17 880.67 494.5 892.5 C 495.83 904.33 488.33 881.17 486.5 879.5 C 484.67 877.83 482.33 877.83 483.5 882.5 C 484.67 887.17 490.33 904.67 493.5 907.5 C 496.67 910.33 494.67 910 502.5 899.5 C 510.33 889 525.17 868.83 540.5 844.5 C 555.83 820.17 580.5 782.17 594.5 753.5 C 608.5 724.83 617.17 696.5 624.5 672.5 C 631.83 648.5 646.17 615.33 638.5 609.5 Z M 471.5 138.5 C 473.67 145 486.5 167.5 492.5 183.5 C 498.5 199.5 504.17 219.67 507.5 234.5 C 510.83 249.33 512 255.5 512.5 272.5 C 513 289.5 512.83 316.17 510.5 336.5 C 508.17 356.83 512 363 498.5 394.5 C 485 426 441.5 503.5 429.5 525.5 C 417.5 547.5 428 528.17 426.5 526.5 C 425 524.83 422 517 420.5 515.5 C 419 514 416.17 514.17 417.5 517.5 C 418.83 520.83 426 532.5 428.5 535.5 C 431 538.5 427.33 543.5 432.5 535.5 C 437.67 527.5 446.33 500.5 459.5 487.5 C 472.67 474.5 485.5 470.17 511.5 457.5 C 537.5 444.83 595.83 412 615.5 411.5 C 635.17 411 625.83 440.83 629.5 454.5 C 633.17 468.17 635.5 478 637.5 493.5 C 639.5 509 641 528.5 641.5 547.5 C 642 566.5 640.17 609.33 640.5 607.5 C 640.83 605.67 643.67 556.67 643.5 536.5 C 643.33 516.33 643.67 507.83 639.5 486.5 C 635.33 465.17 630.5 442.17 618.5 408.5 C 606.5 374.83 583.17 319 567.5 284.5 C 551.83 250 539.17 224.83 524.5 201.5 C 509.83 178.17 488.33 155 479.5 144.5 C 470.67 134 469.33 132 471.5 138.5 Z"/>
    <path fill="#009f3a" stroke="#009f3a" d="M 474.5 769.5 C 471.33 763.83 476.17 839.83 478.5 861.5 C 480.83 883.17 485.83 891.83 488.5 899.5 C 491.17 907.17 494.5 908.83 494.5 907.5 C 494.5 906.17 488.33 892.67 488.5 891.5 C 488.67 890.33 494 899.83 495.5 900.5 C 497 901.17 501 917.33 497.5 895.5 C 494 873.67 477.67 775.17 474.5 769.5 Z M 616.5 409.5 C 596.33 410.17 533.5 445.33 509.5 456.5 C 485.5 467.67 481.67 471 472.5 476.5 C 463.33 482 461.33 480 454.5 489.5 C 447.67 499 436.33 526.83 431.5 533.5 C 426.67 540.17 423 522.67 425.5 529.5 C 428 536.33 441 559.67 446.5 574.5 C 452 589.33 455 601.83 458.5 618.5 C 462 635.17 465 649.67 467.5 674.5 C 470 699.33 472 752.5 473.5 767.5 C 475 782.5 475.83 768.17 476.5 764.5 C 477.17 760.83 476.17 752.83 477.5 745.5 C 478.83 738.17 482 726.83 484.5 720.5 C 487 714.17 487.5 713.33 492.5 707.5 C 497.5 701.67 501.83 695.83 514.5 685.5 C 527.17 675.17 547.67 658.17 568.5 645.5 C 589.33 632.83 627.17 626.17 639.5 609.5 C 651.83 592.83 642.67 565.17 642.5 545.5 C 642.33 525.83 640.5 507 638.5 491.5 C 636.5 476 634.17 466.17 630.5 452.5 C 626.83 438.83 636.67 408.83 616.5 409.5 Z"/>
    <path fill="#007a39" stroke="#007a39" d="M 428.5 540.5 C 423.67 549.67 411.67 591.17 407.5 605.5 C 403.33 619.83 404.17 616 403.5 626.5 C 402.83 637 399.67 648 403.5 668.5 C 407.33 689 414.5 717.67 426.5 749.5 C 438.5 781.33 466.83 841 475.5 859.5 C 484.17 878 479.17 883 478.5 860.5 C 477.83 838 474.17 761.17 471.5 724.5 C 468.83 687.83 466.33 664.5 462.5 640.5 C 458.67 616.5 452.83 595.5 448.5 580.5 C 444.17 565.5 439.83 557.17 436.5 550.5 C 433.17 543.83 433.33 531.33 428.5 540.5 Z M 55.5 379.5 C 55.5 378.33 52.17 382.5 51.5 384.5 C 50.83 386.5 50.83 392.33 51.5 391.5 C 52.17 390.67 55.5 380.67 55.5 379.5 Z M 78.5 282.5 C 78 282.67 74.67 289.33 74.5 290.5 C 74.33 291.67 76.83 290.83 77.5 289.5 C 78.17 288.17 79 282.33 78.5 282.5 Z"/>
    <path fill="#007d38" stroke="#007d38" d="M 115.5 699.5 C 115.83 700.67 129.17 719.83 131.5 722.5 C 133.83 725.17 132.17 719.33 129.5 715.5 C 126.83 711.67 115.17 698.33 115.5 699.5 Z M 456.5 618.5 C 457 622.17 462 643 462.5 643.5 C 463 644 460.5 625.67 459.5 621.5 C 458.5 617.33 456 614.83 456.5 618.5 Z M 417.5 519.5 C 412.17 523.33 400.33 537.83 392.5 549.5 C 384.67 561.17 375.83 576.5 370.5 589.5 C 365.17 602.5 361.83 614.17 360.5 627.5 C 359.17 640.83 360.83 656.67 362.5 669.5 C 364.17 682.33 365.33 689.83 370.5 704.5 C 375.67 719.17 384.5 739.5 393.5 757.5 C 402.5 775.5 418.67 803.17 424.5 812.5 C 430.33 821.83 419.33 800.83 428.5 813.5 C 437.67 826.17 469.67 875 479.5 888.5 C 489.33 902 488 899.67 487.5 894.5 C 487 889.33 478 864.33 476.5 857.5 C 475 850.67 478.67 854.33 478.5 853.5 C 478.33 852.67 476 856.5 475.5 852.5 C 475 848.5 475.67 829.83 475.5 829.5 C 475.33 829.17 483.67 867.17 474.5 850.5 C 465.33 833.83 432.17 760.17 420.5 729.5 C 408.83 698.83 407.17 683.33 404.5 666.5 C 401.83 649.67 401.83 645.67 404.5 628.5 C 407.17 611.33 416.17 577.67 420.5 563.5 C 424.83 549.33 424.67 536.33 430.5 543.5 C 436.33 550.67 454 604.5 455.5 606.5 C 457 608.5 444.67 568.83 439.5 555.5 C 434.33 542.17 428.17 532.5 424.5 526.5 C 420.83 520.5 422.83 515.67 417.5 519.5 Z M 102.5 221.5 C 101.67 222 97.5 228.67 97.5 229.5 C 97.5 230.33 101.67 227.83 102.5 226.5 C 103.33 225.17 103.33 221 102.5 221.5 Z M 216.5 64.5 C 215.67 64.83 212.33 69.83 212.5 70.5 C 212.67 71.17 216.83 69.5 217.5 68.5 C 218.17 67.5 217.33 64.17 216.5 64.5 Z"/>
  </g>
</svg>
