<svg xmlns="http://www.w3.org/2000/svg" width="899" height="921" viewBox="0 0 899 921" role="img" aria-labelledby="title desc">
  <title id="title">Nur logo loop frame 010</title>
  <desc id="desc">Vector-traced frame from Nur_Logo_Loop_02.gif.</desc>
  <g id="frame-010" stroke-linejoin="round" stroke-linecap="round" stroke-width="0.5" shape-rendering="geometricPrecision">
    <path fill="#008136" stroke="#008136" d="M 218.5 67.5 C 208.17 77 175.33 108 159.5 127.5 C 143.67 147 134.83 165.17 123.5 184.5 C 112.17 203.83 98 230.5 91.5 243.5 C 85 256.5 85.5 258.33 84.5 262.5 C 83.5 266.67 86.5 265.67 85.5 268.5 C 84.5 271.33 81.17 272.67 78.5 279.5 C 75.83 286.33 73.33 290.67 69.5 309.5 C 65.67 328.33 58.33 364.67 55.5 392.5 C 52.67 420.33 51.67 451.67 52.5 476.5 C 53.33 501.33 56.67 519.83 60.5 541.5 C 64.33 563.17 68.83 585.67 75.5 606.5 C 82.17 627.33 89.83 645.67 100.5 666.5 C 111.17 687.33 126 712 139.5 731.5 C 153 751 164.83 766.33 181.5 783.5 C 198.17 800.67 220.5 820.67 239.5 834.5 C 258.5 848.33 276 857.33 295.5 866.5 C 315 875.67 334.5 883 356.5 889.5 C 378.5 896 404.5 902.5 427.5 905.5 C 450.5 908.5 485 911.33 494.5 907.5 C 504 903.67 487.33 893.17 484.5 882.5 C 481.67 871.83 479.17 867 477.5 843.5 C 475.83 820 476.67 774.83 474.5 741.5 C 472.33 708.17 467.5 666.67 464.5 643.5 C 461.5 620.33 460.33 616.83 456.5 602.5 C 452.67 588.17 447.83 572.17 441.5 557.5 C 435.17 542.83 427 528.17 418.5 514.5 C 410 500.83 408.17 494 390.5 475.5 C 372.83 457 334.5 425.33 312.5 403.5 C 290.5 381.67 272.33 361.33 258.5 344.5 C 244.67 327.67 237.17 315.83 229.5 302.5 C 221.83 289.17 215.83 271 212.5 264.5 C 209.17 258 209.83 264.67 209.5 263.5 C 209.17 262.33 212.83 266 210.5 257.5 C 208.17 249 197.83 227.17 195.5 212.5 C 193.17 197.83 196.83 176.83 196.5 169.5 C 196.17 162.17 193.5 168.83 193.5 168.5 C 193.5 168.17 195 177.33 196.5 167.5 C 198 157.67 200.33 122.83 202.5 109.5 C 204.67 96.17 206.33 94 209.5 87.5 C 212.67 81 220 73.83 221.5 70.5 C 223 67.17 228.83 58 218.5 67.5 Z"/>
    <path fill="#83bb26" stroke="#83bb26" d="M 450.5 488.5 C 449 485.83 422.33 507.5 418.5 514.5 C 414.67 521.5 422.17 534.83 427.5 530.5 C 432.83 526.17 452 491.17 450.5 488.5 Z M 633.5 43.5 C 632 44.67 631.5 46.83 643.5 55.5 C 655.5 64.17 691.33 85 705.5 95.5 C 719.67 106 719.5 106 728.5 118.5 C 737.5 131 752 153.83 759.5 170.5 C 767 187.17 771.33 205.83 773.5 218.5 C 775.67 231.17 773.83 237.67 772.5 246.5 C 771.17 255.33 770.5 261 765.5 271.5 C 760.5 282 754.5 295.5 742.5 309.5 C 730.5 323.5 714.83 339.5 693.5 355.5 C 672.17 371.5 625.17 389.17 614.5 405.5 C 603.83 421.83 625.67 439 629.5 453.5 C 633.33 468 635.5 477.5 637.5 492.5 C 639.5 507.5 641.33 525 641.5 543.5 C 641.67 562 638.5 593.17 638.5 603.5 C 638.5 613.83 633.5 609.5 641.5 605.5 C 649.5 601.5 669.33 590.83 686.5 579.5 C 703.67 568.17 727 551.83 744.5 537.5 C 762 523.17 780.5 504.83 791.5 493.5 C 802.5 482.17 803.67 479.33 810.5 469.5 C 817.33 459.67 825.17 449 832.5 434.5 C 839.83 420 849.5 397.33 854.5 382.5 C 859.5 367.67 860.83 360.33 862.5 345.5 C 864.17 330.67 865.33 310.5 864.5 293.5 C 863.67 276.5 861.83 259.5 857.5 243.5 C 853.17 227.5 844.67 209.67 838.5 197.5 C 832.33 185.33 831 183.67 820.5 170.5 C 810 157.33 787.83 130.67 775.5 118.5 C 763.17 106.33 759 105.33 746.5 97.5 C 734 89.67 716.17 79.67 700.5 71.5 C 684.83 63.33 663.67 53.17 652.5 48.5 C 641.33 43.83 635 42.33 633.5 43.5 Z"/>
    <path fill="#6ab12d" stroke="#6ab12d" d="M 467.5 140.5 C 471 149 486.83 176.33 493.5 193.5 C 500.17 210.67 504.5 227.17 507.5 243.5 C 510.5 259.83 511.5 273.5 511.5 291.5 C 511.5 309.5 510 333.5 507.5 351.5 C 505 369.5 509.5 370.33 496.5 399.5 C 483.5 428.67 441.17 505.33 429.5 526.5 C 417.83 547.67 428 528.33 426.5 526.5 C 425 524.67 422 517 420.5 515.5 C 419 514 416.5 514.67 417.5 517.5 C 418.5 520.33 424.33 530 426.5 532.5 C 428.67 535 426.5 538.83 430.5 532.5 C 434.5 526.17 443.33 503.67 450.5 494.5 C 457.67 485.33 463.5 483.67 473.5 477.5 C 483.5 471.33 487.17 468.5 510.5 457.5 C 533.83 446.5 592.83 407.33 613.5 411.5 C 634.17 415.67 630 459 634.5 482.5 C 639 506 640 531.67 640.5 552.5 C 641 573.33 646.83 594 637.5 607.5 C 628.17 621 599.33 625.5 584.5 633.5 C 569.67 641.5 559.83 647.67 548.5 655.5 C 537.17 663.33 527.33 670.33 516.5 680.5 C 505.67 690.67 490.5 705 483.5 716.5 C 476.5 728 475.83 736.5 474.5 749.5 C 473.17 762.5 472 769.17 475.5 794.5 C 479 819.83 492.5 882.5 495.5 901.5 C 498.5 920.5 493.17 907.33 493.5 908.5 C 493.83 909.67 483.67 928.67 497.5 908.5 C 511.33 888.33 559 816.5 576.5 787.5 C 594 758.5 594.83 752.83 602.5 734.5 C 610.17 716.17 616.17 699 622.5 677.5 C 628.83 656 637 625.67 640.5 605.5 C 644 585.33 644.5 579.5 643.5 556.5 C 642.5 533.5 637.83 489 634.5 467.5 C 631.17 446 629.83 446.5 623.5 427.5 C 617.17 408.5 605.83 377 596.5 353.5 C 587.17 330 579.5 311.5 567.5 286.5 C 555.5 261.5 540.33 227.5 524.5 203.5 C 508.67 179.5 482 153 472.5 142.5 C 463 132 464 132 467.5 140.5 Z"/>
    <path fill="#009f3a" stroke="#009f3a" d="M 474.5 791.5 C 474.67 802.83 475.67 842.5 478.5 861.5 C 481.33 880.5 488.5 898 491.5 905.5 C 494.5 913 498.83 925.17 496.5 906.5 C 494.17 887.83 481.17 812.67 477.5 793.5 C 473.83 774.33 474.33 780.17 474.5 791.5 Z M 614.5 409.5 C 594.67 411.17 532.33 445.33 508.5 456.5 C 484.67 467.67 481.33 470.5 471.5 476.5 C 461.67 482.5 456.33 483.67 449.5 492.5 C 442.67 501.33 434.5 523.33 430.5 529.5 C 426.5 535.67 422.83 522 425.5 529.5 C 428.17 537 441 559.67 446.5 574.5 C 452 589.33 455 601.83 458.5 618.5 C 462 635.17 465 650.17 467.5 674.5 C 470 698.83 470.67 757.17 473.5 764.5 C 476.33 771.83 477 732.33 484.5 718.5 C 492 704.67 504.67 693.67 518.5 681.5 C 532.33 669.33 547.5 657.5 567.5 645.5 C 587.5 633.5 626.17 625.33 638.5 609.5 C 650.83 593.67 641.67 569.67 641.5 550.5 C 641.33 531.33 639.83 511.83 637.5 494.5 C 635.17 477.17 631.33 460.67 627.5 446.5 C 623.67 432.33 634.33 407.83 614.5 409.5 Z"/>
    <path fill="#007a39" stroke="#007a39" d="M 227.5 823.5 C 228 824.33 237.17 831 238.5 831.5 C 239.83 832 237.33 827.83 235.5 826.5 C 233.67 825.17 227 822.67 227.5 823.5 Z M 426.5 533.5 C 419 536.67 408.33 582.17 403.5 599.5 C 398.67 616.83 398.5 627.17 397.5 637.5 C 396.5 647.83 396.5 651.5 397.5 661.5 C 398.5 671.5 398.67 679.83 403.5 697.5 C 408.33 715.17 412.83 735.17 426.5 767.5 C 440.17 799.83 477.33 879 485.5 891.5 C 493.67 904 477.83 870.33 475.5 842.5 C 473.17 814.67 473.67 758.17 471.5 724.5 C 469.33 690.83 466.33 664.5 462.5 640.5 C 458.67 616.5 454.5 598.33 448.5 580.5 C 442.5 562.67 434 530.33 426.5 533.5 Z M 208.5 261.5 C 209 263.17 214 271.5 214.5 271.5 C 215 271.5 212.5 263.17 211.5 261.5 C 210.5 259.83 208 259.83 208.5 261.5 Z"/>
    <path fill="#007d38" stroke="#007d38" d="M 473.5 829.5 C 473.67 832.5 477 850.83 477.5 851.5 C 478 852.17 477.17 837.17 476.5 833.5 C 475.83 829.83 473.33 826.5 473.5 829.5 Z M 231.5 825.5 C 230.33 825.17 230.33 827.67 231.5 828.5 C 232.67 829.33 238.5 831 238.5 830.5 C 238.5 830 232.67 825.83 231.5 825.5 Z M 166.5 763.5 C 167.17 765 175.5 775 176.5 775.5 C 177.5 776 174.17 768.5 172.5 766.5 C 170.83 764.5 165.83 762 166.5 763.5 Z M 116.5 693.5 C 116.83 694.83 123.5 704.83 124.5 705.5 C 125.5 706.17 123.83 699.5 122.5 697.5 C 121.17 695.5 116.17 692.17 116.5 693.5 Z M 85.5 631.5 C 85 631.5 89.17 642.33 90.5 644.5 C 91.83 646.67 94.33 646.67 93.5 644.5 C 92.67 642.33 86 631.5 85.5 631.5 Z M 456.5 618.5 C 457 622.17 462 643 462.5 643.5 C 463 644 460.5 625.67 459.5 621.5 C 458.5 617.33 456 614.83 456.5 618.5 Z M 417.5 519.5 C 411.83 523.67 398.83 539 390.5 551.5 C 382.17 564 372.83 580.83 367.5 594.5 C 362.17 608.17 359.67 621.33 358.5 633.5 C 357.33 645.67 359 656.33 360.5 667.5 C 362 678.67 362.33 685.5 367.5 700.5 C 372.67 715.5 380.17 735.83 391.5 757.5 C 402.83 779.17 419 806 435.5 830.5 C 452 855 483.17 899.33 490.5 904.5 C 497.83 909.67 481.83 867.5 479.5 861.5 C 477.17 855.5 480.5 874 476.5 868.5 C 472.5 863 463.67 845.67 455.5 828.5 C 447.33 811.33 436 787.67 427.5 765.5 C 419 743.33 409.33 713.17 404.5 695.5 C 399.67 677.83 399 672.33 398.5 659.5 C 398 646.67 399 633.33 401.5 618.5 C 404 603.67 409.17 583.83 413.5 570.5 C 417.83 557.17 422.83 539.17 427.5 538.5 C 432.17 537.83 436.83 555.17 441.5 566.5 C 446.17 577.83 455.83 608.33 455.5 606.5 C 455.17 604.67 444.67 568.83 439.5 555.5 C 434.33 542.17 428.17 532.5 424.5 526.5 C 420.83 520.5 423.17 515.33 417.5 519.5 Z M 208.5 260.5 C 208 260.5 209.67 268 210.5 269.5 C 211.33 271 213.83 271 213.5 269.5 C 213.17 268 209 260.5 208.5 260.5 Z M 194.5 163.5 C 193.83 163.17 192.17 169.83 192.5 171.5 C 192.83 173.17 196.17 174.83 196.5 173.5 C 196.83 172.17 195.17 163.83 194.5 163.5 Z M 205.5 104.5 C 205.5 103.67 202.17 105.33 201.5 106.5 C 200.83 107.67 200.83 111.83 201.5 111.5 C 202.17 111.17 205.5 105.33 205.5 104.5 Z"/>
  </g>
</svg>
