<svg xmlns="http://www.w3.org/2000/svg" width="899" height="921" viewBox="0 0 899 921" role="img" aria-labelledby="title desc">
  <title id="title">Nur logo loop frame 021</title>
  <desc id="desc">Vector-traced frame from Nur_Logo_Loop_02.gif.</desc>
  <g id="frame-021" stroke-linejoin="round" stroke-linecap="round" stroke-width="0.5" shape-rendering="geometricPrecision">
    <path fill="#008136" stroke="#008136" d="M 244.5 81.5 C 233.83 87.83 197.67 109.33 182.5 121.5 C 167.33 133.67 164.83 139 153.5 154.5 C 142.17 170 126.33 191.33 114.5 214.5 C 102.67 237.67 90.83 267.33 82.5 293.5 C 74.17 319.67 68.67 347.33 64.5 371.5 C 60.33 395.67 57.83 412.5 57.5 438.5 C 57.17 464.5 58.83 498.67 62.5 527.5 C 66.17 556.33 72.33 587.33 79.5 611.5 C 86.67 635.67 95.17 652.33 105.5 672.5 C 115.83 692.67 129.17 714.5 141.5 732.5 C 153.83 750.5 168.33 767.67 179.5 780.5 C 190.67 793.33 198 800.17 208.5 809.5 C 219 818.83 228 827 242.5 836.5 C 257 846 274.17 857 295.5 866.5 C 316.83 876 345.83 886.67 370.5 893.5 C 395.17 900.33 423 905.17 443.5 907.5 C 464 909.83 486.67 911.67 493.5 907.5 C 500.33 903.33 487.17 893.17 484.5 882.5 C 481.83 871.83 480.33 880 477.5 843.5 C 474.67 807 471 703.67 467.5 663.5 C 464 623.33 460.83 620.17 456.5 602.5 C 452.17 584.83 448.5 573.17 441.5 557.5 C 434.5 541.83 423 522.17 414.5 508.5 C 406 494.83 407.5 493 390.5 475.5 C 373.5 458 332.17 422.5 312.5 403.5 C 292.83 384.5 283.67 374.83 272.5 361.5 C 261.33 348.17 253.33 335.83 245.5 323.5 C 237.67 311.17 229.5 296.5 225.5 287.5 C 221.5 278.5 223 273.5 221.5 269.5 C 220 265.5 217 265.17 216.5 263.5 C 216 261.83 219.17 264 218.5 259.5 C 217.83 255 214 240.5 212.5 236.5 C 211 232.5 210 243.67 209.5 235.5 C 209 227.33 208.83 196.5 209.5 187.5 C 210.17 178.5 211.67 190.83 213.5 181.5 C 215.33 172.17 217.83 143.5 220.5 131.5 C 223.17 119.5 225.17 117.5 229.5 109.5 C 233.83 101.5 244 88.17 246.5 83.5 C 249 78.83 255.17 75.17 244.5 81.5 Z"/>
    <path fill="#83bb26" stroke="#83bb26" d="M 460.5 471.5 C 462 464.5 445.83 481.17 438.5 487.5 C 431.17 493.83 420.17 505 416.5 509.5 C 412.83 514 414.83 511.17 416.5 514.5 C 418.17 517.83 424.33 527 426.5 529.5 C 428.67 532 423.83 539.17 429.5 529.5 C 435.17 519.83 459 478.5 460.5 471.5 Z M 616.5 56.5 C 612.33 56.67 612.5 57.5 618.5 59.5 C 624.5 61.5 642.33 64.67 652.5 68.5 C 662.67 72.33 669.5 76.17 679.5 82.5 C 689.5 88.83 703.67 99.17 712.5 106.5 C 721.33 113.83 727.33 120.5 732.5 126.5 C 737.67 132.5 740.17 135.83 743.5 142.5 C 746.83 149.17 749.83 154.67 752.5 166.5 C 755.17 178.33 759.17 197.33 759.5 213.5 C 759.83 229.67 756.83 251.5 754.5 263.5 C 752.17 275.5 750 277.33 745.5 285.5 C 741 293.67 738.5 300.67 727.5 312.5 C 716.5 324.33 699.5 342 679.5 356.5 C 659.5 371 618.67 391.67 607.5 399.5 C 596.33 407.33 609.67 396.67 612.5 403.5 C 615.33 410.33 620.17 424.5 624.5 440.5 C 628.83 456.5 635.5 483.83 638.5 499.5 C 641.5 515.17 642 518.67 642.5 534.5 C 643 550.33 632.67 589.83 641.5 594.5 C 650.33 599.17 677.67 574.5 695.5 562.5 C 713.33 550.5 733.67 535 748.5 522.5 C 763.33 510 774.33 499 784.5 487.5 C 794.67 476 801.83 465.83 809.5 453.5 C 817.17 441.17 824.83 426.67 830.5 413.5 C 836.17 400.33 840.33 387.17 843.5 374.5 C 846.67 361.83 848.33 354.5 849.5 337.5 C 850.67 320.5 851.5 289.5 850.5 272.5 C 849.5 255.5 847.67 248.5 843.5 235.5 C 839.33 222.5 833.83 209 825.5 194.5 C 817.17 180 805.17 162.83 793.5 148.5 C 781.83 134.17 766.17 118.17 755.5 108.5 C 744.83 98.83 740.5 96.67 729.5 90.5 C 718.5 84.33 703.83 76.83 689.5 71.5 C 675.17 66.17 655.67 61 643.5 58.5 C 631.33 56 620.67 56.33 616.5 56.5 Z"/>
    <path fill="#6ab12d" stroke="#6ab12d" d="M 636.5 598.5 C 630.83 588.67 600.5 613.67 585.5 621.5 C 570.5 629.33 558.83 636.67 546.5 645.5 C 534.17 654.33 523.17 663 511.5 674.5 C 499.83 686 483 704.83 476.5 714.5 C 470 724.17 472.5 715.17 472.5 732.5 C 472.5 749.83 473.33 792 476.5 818.5 C 479.67 845 489.33 877.83 491.5 891.5 C 493.67 905.17 489.17 897.83 489.5 900.5 C 489.83 903.17 491.33 907.67 493.5 907.5 C 495.67 907.33 494.67 910 502.5 899.5 C 510.33 889 525.5 868.17 540.5 844.5 C 555.5 820.83 579.33 784.83 592.5 757.5 C 605.67 730.17 612.17 707 619.5 680.5 C 626.83 654 642.17 608.33 636.5 598.5 Z M 451.5 159.5 C 450.33 160.83 472 177.83 480.5 190.5 C 489 203.17 497.67 218.17 502.5 235.5 C 507.33 252.83 508.67 274 509.5 294.5 C 510.33 315 509.33 340.33 507.5 358.5 C 505.67 376.67 511.5 375.67 498.5 403.5 C 485.5 431.33 441.5 505 429.5 525.5 C 417.5 546 428.5 529 426.5 526.5 C 424.5 524 419.33 512.5 417.5 510.5 C 415.67 508.5 414 510.83 415.5 514.5 C 417 518.17 424.17 529.5 426.5 532.5 C 428.83 535.5 426.33 537.83 429.5 532.5 C 432.67 527.17 439.67 510.5 445.5 500.5 C 451.33 490.5 453.33 481.67 464.5 472.5 C 475.67 463.33 488.33 457 512.5 445.5 C 536.67 434 591 404 609.5 403.5 C 628 403 619 426.83 623.5 442.5 C 628 458.17 633.5 480.83 636.5 497.5 C 639.5 514.17 640.83 526.33 641.5 542.5 C 642.17 558.67 640.17 596.17 640.5 594.5 C 640.83 592.83 643.67 548.67 643.5 532.5 C 643.33 516.33 644.5 519.33 639.5 497.5 C 634.5 475.67 619 418.17 613.5 401.5 C 608 384.83 615.33 417.5 606.5 397.5 C 597.67 377.5 575.83 313.5 560.5 281.5 C 545.17 249.5 526.67 222 514.5 205.5 C 502.33 189 498 190.17 487.5 182.5 C 477 174.83 452.67 158.17 451.5 159.5 Z"/>
    <path fill="#009f3a" stroke="#009f3a" d="M 475.5 804.5 C 472.83 796.83 476.83 847 478.5 861.5 C 480.17 876 482.83 883.83 485.5 891.5 C 488.17 899.17 496.17 922 494.5 907.5 C 492.83 893 478.17 812.17 475.5 804.5 Z M 610.5 401.5 C 591.5 402.17 535.17 432.83 510.5 444.5 C 485.83 456.17 476 457.5 462.5 471.5 C 449 485.5 435.67 518.83 429.5 528.5 C 423.33 538.17 422.67 521.83 425.5 529.5 C 428.33 537.17 440.67 558 446.5 574.5 C 452.33 591 456.33 604.5 460.5 628.5 C 464.67 652.5 469.17 690.17 471.5 718.5 C 473.83 746.83 474 797.17 474.5 798.5 C 475 799.83 472.83 741.83 474.5 726.5 C 476.17 711.17 478 715 484.5 706.5 C 491 698 502.83 685.5 513.5 675.5 C 524.17 665.5 538.33 654.17 548.5 646.5 C 558.67 638.83 559.33 637.83 574.5 629.5 C 589.67 621.17 628.17 611.33 639.5 596.5 C 650.83 581.67 642.83 557.33 642.5 540.5 C 642.17 523.67 640.5 512.17 637.5 495.5 C 634.5 478.83 629 456.17 624.5 440.5 C 620 424.83 629.5 400.83 610.5 401.5 Z"/>
    <path fill="#007a39" stroke="#007a39" d="M 426.5 536.5 C 420.83 546 407 591.83 402.5 607.5 C 398 623.17 399.67 618.67 399.5 630.5 C 399.33 642.33 399.83 665.17 401.5 678.5 C 403.17 691.83 404.67 695.67 409.5 710.5 C 414.33 725.33 418.67 740.5 430.5 767.5 C 442.33 794.5 473.17 862 480.5 872.5 C 487.83 883 476 855.17 474.5 830.5 C 473 805.83 473.5 756.17 471.5 724.5 C 469.5 692.83 466.33 664.5 462.5 640.5 C 458.67 616.5 452.83 595.5 448.5 580.5 C 444.17 565.5 440.17 557.83 436.5 550.5 C 432.83 543.17 432.17 527 426.5 536.5 Z"/>
    <path fill="#007d38" stroke="#007d38" d="M 472.5 797.5 C 472.33 804.67 473.67 835.5 474.5 844.5 C 475.33 853.5 477.33 858.67 477.5 851.5 C 477.67 844.33 476.33 810.5 475.5 801.5 C 474.67 792.5 472.67 790.33 472.5 797.5 Z M 470.5 780.5 C 470 780 470 789.17 470.5 791.5 C 471 793.83 473.5 796.33 473.5 794.5 C 473.5 792.67 471 781 470.5 780.5 Z M 178.5 777.5 C 179 778.67 188.17 787.83 189.5 788.5 C 190.83 789.17 188.33 783.33 186.5 781.5 C 184.67 779.67 178 776.33 178.5 777.5 Z M 101.5 660.5 C 100.83 660.17 102.5 666 103.5 667.5 C 104.5 669 107.83 670.67 107.5 669.5 C 107.17 668.33 102.17 660.83 101.5 660.5 Z M 456.5 618.5 C 457 622.17 462 643 462.5 643.5 C 463 644 460.5 625.67 459.5 621.5 C 458.5 617.33 456 614.83 456.5 618.5 Z M 414.5 514.5 C 407.33 516.5 396 535.17 387.5 549.5 C 379 563.83 368.5 587 363.5 600.5 C 358.5 614 358 617.5 357.5 630.5 C 357 643.5 358 663.5 360.5 678.5 C 363 693.5 363.83 700.5 372.5 720.5 C 381.17 740.5 397.5 773.33 412.5 798.5 C 427.5 823.67 449.17 853.33 462.5 871.5 C 475.83 889.67 489.33 906.33 492.5 907.5 C 495.67 908.67 483.67 886.17 481.5 878.5 C 479.33 870.83 481.17 865.83 479.5 861.5 C 477.83 857.17 480.5 871 471.5 852.5 C 462.5 834 437 779.83 425.5 750.5 C 414 721.17 406.67 696.17 402.5 676.5 C 398.33 656.83 400.33 643.67 400.5 632.5 C 400.67 621.33 400.67 621.17 403.5 609.5 C 406.33 597.83 413.5 574 417.5 562.5 C 421.5 551 422.33 537.33 427.5 540.5 C 432.67 543.67 448 582 448.5 581.5 C 449 581 436.17 548.67 430.5 537.5 C 424.83 526.33 421.67 512.5 414.5 514.5 Z M 78.5 316.5 C 78 316.67 74.67 325.83 74.5 327.5 C 74.33 329.17 76.83 328.33 77.5 326.5 C 78.17 324.67 79 316.33 78.5 316.5 Z M 216.5 260.5 C 215.67 260 214.83 264.17 215.5 265.5 C 216.17 266.83 220.33 269.33 220.5 268.5 C 220.67 267.67 217.33 261 216.5 260.5 Z M 147.5 165.5 C 147 165.5 139.5 175.5 138.5 177.5 C 137.5 179.5 140 179.5 141.5 177.5 C 143 175.5 148 165.5 147.5 165.5 Z"/>
  </g>
</svg>
