<svg xmlns="http://www.w3.org/2000/svg" width="899" height="921" viewBox="0 0 899 921" role="img" aria-labelledby="title desc">
  <title id="title">Nur logo loop frame 022</title>
  <desc id="desc">Vector-traced frame from Nur_Logo_Loop_02.gif.</desc>
  <g id="frame-022" stroke-linejoin="round" stroke-linecap="round" stroke-width="0.5" shape-rendering="geometricPrecision">
    <path fill="#008136" stroke="#008136" d="M 246.5 83.5 C 235.33 90.17 198.67 112.33 182.5 125.5 C 166.33 138.67 161.17 146.83 149.5 162.5 C 137.83 178.17 123.67 197.67 112.5 219.5 C 101.33 241.33 90.17 270.17 82.5 293.5 C 74.83 316.83 70.67 336.33 66.5 359.5 C 62.33 382.67 58.5 406.67 57.5 432.5 C 56.5 458.33 57 484.67 60.5 514.5 C 64 544.33 70.33 583.67 78.5 611.5 C 86.67 639.33 98.5 660.5 109.5 681.5 C 120.5 702.5 131.33 719.33 144.5 737.5 C 157.67 755.67 172.17 774 188.5 790.5 C 204.83 807 224.67 823.83 242.5 836.5 C 260.33 849.17 274.17 857 295.5 866.5 C 316.83 876 345.83 886.67 370.5 893.5 C 395.17 900.33 423 905.17 443.5 907.5 C 464 909.83 486.67 911.67 493.5 907.5 C 500.33 903.33 487.17 893.17 484.5 882.5 C 481.83 871.83 480.33 880 477.5 843.5 C 474.67 807 471 703.67 467.5 663.5 C 464 623.33 460.83 620.17 456.5 602.5 C 452.17 584.83 448.5 573.17 441.5 557.5 C 434.5 541.83 423 522.17 414.5 508.5 C 406 494.83 407.5 493 390.5 475.5 C 373.5 458 334.33 425.17 312.5 403.5 C 290.67 381.83 274.17 365.17 259.5 345.5 C 244.83 325.83 232.33 303.5 224.5 285.5 C 216.67 267.5 215 245.67 212.5 237.5 C 210 229.33 210 244 209.5 236.5 C 209 229 209 200 209.5 192.5 C 210 185 211 199.17 212.5 191.5 C 214 183.83 215 160.17 218.5 146.5 C 222 132.83 228.33 119.67 233.5 109.5 C 238.67 99.33 247.33 89.83 249.5 85.5 C 251.67 81.17 257.67 76.83 246.5 83.5 Z"/>
    <path fill="#83bb26" stroke="#83bb26" d="M 461.5 470.5 C 464 462.67 449.83 477.33 442.5 483.5 C 435.17 489.67 421.83 502.33 417.5 507.5 C 413.17 512.67 414.83 510.67 416.5 514.5 C 418.17 518.33 420 537.83 427.5 530.5 C 435 523.17 459 478.33 461.5 470.5 Z M 620.5 68.5 C 613 68.5 611.5 70.33 615.5 71.5 C 619.5 72.67 633.83 72.67 644.5 75.5 C 655.17 78.33 666.67 81.67 679.5 88.5 C 692.33 95.33 712 109.17 721.5 116.5 C 731 123.83 732.5 127.17 736.5 132.5 C 740.5 137.83 742.5 140.83 745.5 148.5 C 748.5 156.17 752.5 169.5 754.5 178.5 C 756.5 187.5 757.5 189.5 757.5 202.5 C 757.5 215.5 756.5 243.33 754.5 256.5 C 752.5 269.67 749.33 273.33 745.5 281.5 C 741.67 289.67 738.17 296.67 731.5 305.5 C 724.83 314.33 715 325.5 705.5 334.5 C 696 343.5 691 348.83 674.5 359.5 C 658 370.17 616.83 391.83 606.5 398.5 C 596.17 405.17 607.17 385 612.5 399.5 C 617.83 414 633 461.83 638.5 485.5 C 644 509.17 644.5 523.83 645.5 541.5 C 646.5 559.17 635.17 589 644.5 591.5 C 653.83 594 684.67 568 701.5 556.5 C 718.33 545 731.83 534.33 745.5 522.5 C 759.17 510.67 772.67 497.83 783.5 485.5 C 794.33 473.17 802.67 461.17 810.5 448.5 C 818.33 435.83 825 422.67 830.5 409.5 C 836 396.33 840.5 381.5 843.5 369.5 C 846.5 357.5 847.5 352.33 848.5 337.5 C 849.5 322.67 850 295.33 849.5 280.5 C 849 265.67 849.17 261.67 845.5 248.5 C 841.83 235.33 834.83 216 827.5 201.5 C 820.17 187 812.33 175.33 801.5 161.5 C 790.67 147.67 772.67 128.5 762.5 118.5 C 752.33 108.5 750.17 107.33 740.5 101.5 C 730.83 95.67 717.83 88.5 704.5 83.5 C 691.17 78.5 674.5 74 660.5 71.5 C 646.5 69 628 68.5 620.5 68.5 Z"/>
    <path fill="#6ab12d" stroke="#6ab12d" d="M 636.5 596.5 C 630.17 586.67 596.5 613.67 581.5 621.5 C 566.5 629.33 556.67 636.33 546.5 643.5 C 536.33 650.67 529.67 656.17 520.5 664.5 C 511.33 672.83 498.83 685.33 491.5 693.5 C 484.17 701.67 479.5 708.5 476.5 713.5 C 473.5 718.5 473.67 708.83 473.5 723.5 C 473.33 738.17 472.67 775 475.5 801.5 C 478.33 828 488.17 868.33 490.5 882.5 C 492.83 896.67 490.5 886.83 489.5 886.5 C 488.5 886.17 485.33 880.67 484.5 880.5 C 483.67 880.33 483 881 484.5 885.5 C 486 890 490.5 905.17 493.5 907.5 C 496.5 909.83 494.67 910 502.5 899.5 C 510.33 889 525.5 868.17 540.5 844.5 C 555.5 820.83 579.33 784.83 592.5 757.5 C 605.67 730.17 612.17 707.33 619.5 680.5 C 626.83 653.67 642.83 606.33 636.5 596.5 Z M 446.5 160.5 C 445.83 162.5 472.33 182.83 481.5 195.5 C 490.67 208.17 497.17 223.67 501.5 236.5 C 505.83 249.33 506.5 252.83 507.5 272.5 C 508.5 292.17 508.5 333.67 507.5 354.5 C 506.5 375.33 514.5 369 501.5 397.5 C 488.5 426 442 504 429.5 525.5 C 417 547 428.5 529 426.5 526.5 C 424.5 524 419.5 512.83 417.5 510.5 C 415.5 508.17 413 508.83 414.5 512.5 C 416 516.17 423.67 528.83 426.5 532.5 C 429.33 536.17 428.33 539.17 431.5 534.5 C 434.67 529.83 439.33 515.5 445.5 504.5 C 451.67 493.5 457.83 478.33 468.5 468.5 C 479.17 458.67 485.67 456.83 509.5 445.5 C 533.33 434.17 591.5 399 611.5 400.5 C 631.5 402 624.83 438 629.5 454.5 C 634.17 471 637.17 486 639.5 499.5 C 641.83 513 642.83 520.17 643.5 535.5 C 644.17 550.83 643 590.83 643.5 591.5 C 644 592.17 648 561.17 646.5 539.5 C 645 517.83 639.83 485 634.5 461.5 C 629.17 438 619.17 409.33 614.5 398.5 C 609.83 387.67 614.67 414.5 606.5 396.5 C 598.33 378.5 581.17 322.33 565.5 290.5 C 549.83 258.67 525.83 223.33 512.5 205.5 C 499.17 187.67 496.5 191 485.5 183.5 C 474.5 176 447.17 158.5 446.5 160.5 Z"/>
    <path fill="#009f3a" stroke="#009f3a" d="M 475.5 800.5 C 473 795 477.17 847.5 478.5 861.5 C 479.83 875.5 481.83 880 483.5 884.5 C 485.17 889 488 887 488.5 888.5 C 489 890 486.17 891.83 486.5 893.5 C 486.83 895.17 490 898.33 490.5 898.5 C 491 898.67 489 895.17 489.5 894.5 C 490 893.83 495.83 910.17 493.5 894.5 C 491.17 878.83 478 806 475.5 800.5 Z M 613.5 399.5 C 593 398.17 532 433.17 507.5 444.5 C 483 455.83 479.33 453 466.5 467.5 C 453.67 482 437.33 521.17 430.5 531.5 C 423.67 541.83 422.83 522.33 425.5 529.5 C 428.17 536.67 440.67 558 446.5 574.5 C 452.33 591 456.67 608.5 460.5 628.5 C 464.33 648.5 467.17 666.83 469.5 694.5 C 471.83 722.17 473.67 789.33 474.5 794.5 C 475.33 799.67 472.5 740.83 474.5 725.5 C 476.5 710.17 478.5 712.5 486.5 702.5 C 494.5 692.5 511 676 522.5 665.5 C 534 655 535.5 651.5 555.5 639.5 C 575.5 627.5 627.67 611.17 642.5 593.5 C 657.33 575.83 644.83 549.5 644.5 533.5 C 644.17 517.5 642.83 511 640.5 497.5 C 638.17 484 635 468.83 630.5 452.5 C 626 436.17 634 400.83 613.5 399.5 Z"/>
    <path fill="#007a39" stroke="#007a39" d="M 428.5 539.5 C 425.17 542.33 420.67 554.67 416.5 567.5 C 412.33 580.33 405.67 598.33 403.5 616.5 C 401.33 634.67 399 652.5 403.5 676.5 C 408 700.5 418.5 729.83 430.5 760.5 C 442.5 791.17 467.5 843.67 475.5 860.5 C 483.5 877.33 479.17 875.17 478.5 861.5 C 477.83 847.83 472.67 801.33 471.5 778.5 C 470.33 755.67 473 747.5 471.5 724.5 C 470 701.5 466.33 664.5 462.5 640.5 C 458.67 616.5 452.83 595.5 448.5 580.5 C 444.17 565.5 439.83 557.33 436.5 550.5 C 433.17 543.67 431.83 536.67 428.5 539.5 Z M 259.5 345.5 C 258.67 345.17 261.17 351.83 262.5 353.5 C 263.83 355.17 268 356.83 267.5 355.5 C 267 354.17 260.33 345.83 259.5 345.5 Z M 247.5 86.5 C 248 85.17 245.5 85.17 244.5 86.5 C 243.5 87.83 241 94.5 241.5 94.5 C 242 94.5 247 87.83 247.5 86.5 Z"/>
    <path fill="#007d38" stroke="#007d38" d="M 227.5 822.5 C 226.33 822.17 229.67 827.17 231.5 828.5 C 233.33 829.83 239.17 831.5 238.5 830.5 C 237.83 829.5 228.67 822.83 227.5 822.5 Z M 472.5 790.5 C 472.5 795.83 475 826.67 475.5 827.5 C 476 828.33 476 801.67 475.5 795.5 C 475 789.33 472.5 785.17 472.5 790.5 Z M 456.5 618.5 C 457 622.17 462 643 462.5 643.5 C 463 644 460.5 625.67 459.5 621.5 C 458.5 617.33 456 614.83 456.5 618.5 Z M 64.5 531.5 C 64 531.33 63.17 536.33 63.5 537.5 C 63.83 538.67 66.33 539.5 66.5 538.5 C 66.67 537.5 65 531.67 64.5 531.5 Z M 413.5 514.5 C 409 519.33 398.17 531.83 390.5 544.5 C 382.83 557.17 372.83 577.5 367.5 590.5 C 362.17 603.5 360 610.17 358.5 622.5 C 357 634.83 355.5 647.17 358.5 664.5 C 361.5 681.83 367.5 705 376.5 726.5 C 385.5 748 406.67 781.83 412.5 793.5 C 418.33 805.17 403.33 784 411.5 796.5 C 419.67 809 448 850.17 461.5 868.5 C 475 886.83 489.67 906.83 492.5 906.5 C 495.33 906.17 480.83 875.33 478.5 866.5 C 476.17 857.67 479.17 855.83 478.5 853.5 C 477.83 851.17 474.67 852.83 474.5 852.5 C 474.33 852.17 477.33 855.33 477.5 851.5 C 477.67 847.67 476 829.5 475.5 829.5 C 475 829.5 482.83 865.83 474.5 851.5 C 466.17 837.17 437.17 773 425.5 743.5 C 413.83 714 408 695.33 404.5 674.5 C 401 653.67 402.33 636 404.5 618.5 C 406.67 601 413.33 582.17 417.5 569.5 C 421.67 556.83 425 541 429.5 542.5 C 434 544 441.33 572 444.5 578.5 C 447.67 585 451.17 589 448.5 581.5 C 445.83 574 433.67 544.5 428.5 533.5 C 423.33 522.5 420 518.67 417.5 515.5 C 415 512.33 418 509.67 413.5 514.5 Z M 79.5 317.5 C 78.83 317.83 73.83 327 73.5 328.5 C 73.17 330 76.5 328.33 77.5 326.5 C 78.5 324.67 80.17 317.17 79.5 317.5 Z M 125.5 202.5 C 125.83 201.5 122.5 202.33 121.5 203.5 C 120.5 204.67 118.83 209.67 119.5 209.5 C 120.17 209.33 125.17 203.5 125.5 202.5 Z M 220.5 144.5 C 220.67 143 218.17 143 217.5 144.5 C 216.83 146 216 153.5 216.5 153.5 C 217 153.5 220.33 146 220.5 144.5 Z M 188.5 122.5 C 187.17 123.17 180.5 129 180.5 129.5 C 180.5 130 187.17 126.67 188.5 125.5 C 189.83 124.33 189.83 121.83 188.5 122.5 Z M 245.5 88.5 C 244.67 89 238 98.17 237.5 99.5 C 237 100.83 241.17 98.33 242.5 96.5 C 243.83 94.67 246.33 88 245.5 88.5 Z"/>
  </g>
</svg>
