<svg xmlns="http://www.w3.org/2000/svg" width="899" height="921" viewBox="0 0 899 921" role="img" aria-labelledby="title desc">
  <title id="title">Nur logo loop frame 009</title>
  <desc id="desc">Vector-traced frame from Nur_Logo_Loop_02.gif.</desc>
  <g id="frame-009" stroke-linejoin="round" stroke-linecap="round" stroke-width="0.5" shape-rendering="geometricPrecision">
    <path fill="#008136" stroke="#008136" d="M 219.5 64.5 C 212.83 70.33 192.33 90 181.5 101.5 C 170.67 113 167.67 114 154.5 133.5 C 141.33 153 116.33 190.83 102.5 218.5 C 88.67 246.17 79.33 271.67 71.5 299.5 C 63.67 327.33 57.67 370.67 55.5 385.5 C 53.33 400.33 58.5 387.83 58.5 388.5 C 58.5 389.17 56.67 375.17 55.5 389.5 C 54.33 403.83 50.67 448.5 51.5 474.5 C 52.33 500.5 56.83 524.17 60.5 545.5 C 64.17 566.83 70.83 592.83 73.5 602.5 C 76.17 612.17 75.33 600 76.5 603.5 C 77.67 607 76.17 612.17 80.5 623.5 C 84.83 634.83 91.67 652 102.5 671.5 C 113.33 691 132.83 722.33 145.5 740.5 C 158.17 758.67 162.83 764.83 178.5 780.5 C 194.17 796.17 220 820.17 239.5 834.5 C 259 848.83 276 857.33 295.5 866.5 C 315 875.67 334.5 883 356.5 889.5 C 378.5 896 404.67 902.5 427.5 905.5 C 450.33 908.5 484 911.33 493.5 907.5 C 503 903.67 487.17 893.17 484.5 882.5 C 481.83 871.83 479.17 867 477.5 843.5 C 475.83 820 476.17 771.5 474.5 741.5 C 472.83 711.5 470.5 686.67 467.5 663.5 C 464.5 640.33 460.83 620.17 456.5 602.5 C 452.17 584.83 447.83 572.17 441.5 557.5 C 435.17 542.83 427 528.17 418.5 514.5 C 410 500.83 408.17 494 390.5 475.5 C 372.83 457 334.17 424.83 312.5 403.5 C 290.83 382.17 273.5 362.67 260.5 347.5 C 247.5 332.33 241.17 322.5 234.5 312.5 C 227.83 302.5 224.17 295.5 220.5 287.5 C 216.83 279.5 214.33 268.5 212.5 264.5 C 210.67 260.5 212.17 272.5 209.5 263.5 C 206.83 254.5 199.17 219.5 196.5 210.5 C 193.83 201.5 193.5 218.33 193.5 209.5 C 193.5 200.67 196.5 166.83 196.5 157.5 C 196.5 148.17 193.5 154.33 193.5 153.5 C 193.5 152.67 195 160.5 196.5 152.5 C 198 144.5 200.17 116.17 202.5 105.5 C 204.83 94.83 209.33 92 210.5 88.5 C 211.67 85 207.67 88.17 209.5 84.5 C 211.33 80.83 219.83 69.83 221.5 66.5 C 223.17 63.17 226.17 58.67 219.5 64.5 Z"/>
    <path fill="#83bb26" stroke="#83bb26" d="M 449.5 490.5 C 448.17 487.83 423.17 507.83 419.5 514.5 C 415.83 521.17 422.5 534.5 427.5 530.5 C 432.5 526.5 450.83 493.17 449.5 490.5 Z M 636.5 42.5 C 636 44.33 640.83 49.83 652.5 58.5 C 664.17 67.17 693.33 84.17 706.5 94.5 C 719.67 104.83 722.33 107.5 731.5 120.5 C 740.67 133.5 754.33 156.17 761.5 172.5 C 768.67 188.83 772.33 207.67 774.5 218.5 C 776.67 229.33 776 228.33 774.5 237.5 C 773 246.67 771 261.17 765.5 273.5 C 760 285.83 754.67 296.83 741.5 311.5 C 728.33 326.17 707.67 345.83 686.5 361.5 C 665.33 377.17 624.17 391.17 614.5 405.5 C 604.83 419.83 624.5 432.83 628.5 447.5 C 632.5 462.17 636.17 476.67 638.5 493.5 C 640.83 510.33 642.33 529.83 642.5 548.5 C 642.67 567.17 628.5 602.67 639.5 605.5 C 650.5 608.33 689.83 577.67 708.5 565.5 C 727.17 553.33 737.67 544.33 751.5 532.5 C 765.33 520.67 780.5 506.5 791.5 494.5 C 802.5 482.5 808.83 474 817.5 460.5 C 826.17 447 836.83 428 843.5 413.5 C 850.17 399 854.17 385.33 857.5 373.5 C 860.83 361.67 862.33 357.67 863.5 342.5 C 864.67 327.33 865.83 300.33 864.5 282.5 C 863.17 264.67 859.67 249.5 855.5 235.5 C 851.33 221.5 845.5 209.67 839.5 198.5 C 833.5 187.33 830 181.83 819.5 168.5 C 809 155.17 787.83 130 776.5 118.5 C 765.17 107 763.33 107.17 751.5 99.5 C 739.67 91.83 721.5 81.17 705.5 72.5 C 689.5 63.83 667 52.5 655.5 47.5 C 644 42.5 637 40.67 636.5 42.5 Z"/>
    <path fill="#6ab12d" stroke="#6ab12d" d="M 638.5 609.5 C 632.5 601.5 601.33 625.17 585.5 633.5 C 569.67 641.83 555.67 651 543.5 659.5 C 531.33 668 521.17 676.83 512.5 684.5 C 503.83 692.17 496.5 699.67 491.5 705.5 C 486.5 711.33 485.33 712 482.5 719.5 C 479.67 727 475.67 738.17 474.5 750.5 C 473.33 762.83 472 768.5 475.5 793.5 C 479 818.5 492.33 881.33 495.5 900.5 C 498.67 919.67 494.17 907.17 494.5 908.5 C 494.83 909.83 488 922 497.5 908.5 C 507 895 535.33 853.33 551.5 827.5 C 567.67 801.67 582.83 777.83 594.5 753.5 C 606.17 729.17 614.17 705.5 621.5 681.5 C 628.83 657.5 644.5 617.5 638.5 609.5 Z M 469.5 139.5 C 464.17 137.17 487.17 173.83 493.5 190.5 C 499.83 207.17 504.5 225.67 507.5 239.5 C 510.5 253.33 511.5 254.33 511.5 273.5 C 511.5 292.67 510 333.5 507.5 354.5 C 505 375.5 509.5 370.83 496.5 399.5 C 483.5 428.17 441.17 505.33 429.5 526.5 C 417.83 547.67 428 528.33 426.5 526.5 C 425 524.67 422 517 420.5 515.5 C 419 514 416.5 514.67 417.5 517.5 C 418.5 520.33 424.33 529.83 426.5 532.5 C 428.67 535.17 426.17 540.17 430.5 533.5 C 434.83 526.83 446 501.33 452.5 492.5 C 459 483.67 459.67 486.33 469.5 480.5 C 479.33 474.67 487.33 469 511.5 457.5 C 535.67 446 595.5 414 614.5 411.5 C 633.5 409 621.83 429.17 625.5 442.5 C 629.17 455.83 633.83 471.83 636.5 491.5 C 639.17 511.17 641.33 541.33 641.5 560.5 C 641.67 579.67 637.67 598.83 637.5 606.5 C 637.33 614.17 639.5 616.83 640.5 606.5 C 641.5 596.17 643.67 563.67 643.5 544.5 C 643.33 525.33 642.17 509.17 639.5 491.5 C 636.83 473.83 633.5 458.83 627.5 438.5 C 621.5 418.17 613.5 395 603.5 369.5 C 593.5 344 580.5 313 567.5 285.5 C 554.5 258 541.83 228.83 525.5 204.5 C 509.17 180.17 474.83 141.83 469.5 139.5 Z"/>
    <path fill="#009f3a" stroke="#009f3a" d="M 474.5 790.5 C 474.67 802 476.33 843.83 478.5 861.5 C 480.67 879.17 484.83 888.83 487.5 896.5 C 490.17 904.17 492.83 906.5 494.5 907.5 C 496.17 908.5 500.33 921.67 497.5 902.5 C 494.67 883.33 481.33 811.17 477.5 792.5 C 473.67 773.83 474.33 779 474.5 790.5 Z M 473.5 769.5 C 473.5 772 476 787.83 476.5 788.5 C 477 789.17 477 776.67 476.5 773.5 C 476 770.33 473.5 767 473.5 769.5 Z M 615.5 409.5 C 596 412.17 536.83 443 509.5 456.5 C 482.17 470 465 477.83 451.5 490.5 C 438 503.17 432.83 526 428.5 532.5 C 424.17 539 422.5 522.5 425.5 529.5 C 428.5 536.5 441 559.67 446.5 574.5 C 452 589.33 455 601.83 458.5 618.5 C 462 635.17 465 650 467.5 674.5 C 470 699 471.5 755.83 473.5 765.5 C 475.5 775.17 477.33 740.83 479.5 732.5 C 481.67 724.17 480.67 723.33 486.5 715.5 C 492.33 707.67 501.17 697 514.5 685.5 C 527.83 674 545.67 659.33 566.5 646.5 C 587.33 633.67 626.83 623.17 639.5 608.5 C 652.17 593.83 642.83 578.33 642.5 558.5 C 642.17 538.67 640.17 509.17 637.5 489.5 C 634.83 469.83 630.17 453.83 626.5 440.5 C 622.83 427.17 635 406.83 615.5 409.5 Z"/>
    <path fill="#007a39" stroke="#007a39" d="M 426.5 534.5 C 420 533.83 413.83 563.17 409.5 576.5 C 405.17 589.83 402.5 600.83 400.5 614.5 C 398.5 628.17 397.17 645.17 397.5 658.5 C 397.83 671.83 397.33 675.5 402.5 694.5 C 407.67 713.5 414.67 739.67 428.5 772.5 C 442.33 805.33 477.67 879.83 485.5 891.5 C 493.33 903.17 477.83 870.33 475.5 842.5 C 473.17 814.67 473.67 758.17 471.5 724.5 C 469.33 690.83 466.33 664.5 462.5 640.5 C 458.67 616.5 454.5 598.17 448.5 580.5 C 442.5 562.83 433 535.17 426.5 534.5 Z M 85.5 264.5 C 85 264.5 81.67 271.17 81.5 272.5 C 81.33 273.83 83.83 273.83 84.5 272.5 C 85.17 271.17 86 264.5 85.5 264.5 Z"/>
    <path fill="#007d38" stroke="#007d38" d="M 473.5 829.5 C 473.67 832.5 477 850.83 477.5 851.5 C 478 852.17 477.17 837.17 476.5 833.5 C 475.83 829.83 473.33 826.5 473.5 829.5 Z M 232.5 826.5 C 233.17 827.67 239.83 833.5 240.5 833.5 C 241.17 833.5 237.83 827.67 236.5 826.5 C 235.17 825.33 231.83 825.33 232.5 826.5 Z M 456.5 618.5 C 457 622.17 462 643 462.5 643.5 C 463 644 460.5 625.67 459.5 621.5 C 458.5 617.33 456 614.83 456.5 618.5 Z M 417.5 519.5 C 411.67 524 397.83 541 389.5 553.5 C 381.17 566 372.67 579.67 367.5 594.5 C 362.33 609.33 359.17 627.5 358.5 642.5 C 357.83 657.5 360.67 671.5 363.5 684.5 C 366.33 697.5 368 703.17 375.5 720.5 C 383 737.83 397.83 769.17 408.5 788.5 C 419.17 807.83 425.83 817.17 439.5 836.5 C 453.17 855.83 483.83 900.33 490.5 904.5 C 497.17 908.67 481.83 867.5 479.5 861.5 C 477.17 855.5 480.83 874.67 476.5 868.5 C 472.17 862.33 461.33 840.83 453.5 824.5 C 445.67 808.17 437.83 792.5 429.5 770.5 C 421.17 748.5 408.67 711.5 403.5 692.5 C 398.33 673.5 398.83 669.17 398.5 656.5 C 398.17 643.83 399.5 629.5 401.5 616.5 C 403.5 603.5 406.17 591.5 410.5 578.5 C 414.83 565.5 421.83 538.5 427.5 538.5 C 433.17 538.5 441 571.33 444.5 578.5 C 448 585.67 449.33 585.33 448.5 581.5 C 447.67 577.67 443.5 564.67 439.5 555.5 C 435.5 546.33 428.17 532.5 424.5 526.5 C 420.83 520.5 423.33 515 417.5 519.5 Z M 93.5 242.5 C 92.83 243 89.5 249.67 89.5 250.5 C 89.5 251.33 92.83 248.83 93.5 247.5 C 94.17 246.17 94.17 242 93.5 242.5 Z M 193.5 207.5 C 192.83 207 192 211.17 192.5 212.5 C 193 213.83 196.33 216.33 196.5 215.5 C 196.67 214.67 194.17 208 193.5 207.5 Z M 194.5 149.5 C 193.83 149.17 192.17 155 192.5 156.5 C 192.83 158 196.17 159.67 196.5 158.5 C 196.83 157.33 195.17 149.83 194.5 149.5 Z M 213.5 72.5 C 213.17 72.17 206.33 75.17 205.5 77.5 C 204.67 79.83 207.5 85.83 208.5 86.5 C 209.5 87.17 211.67 82.67 211.5 81.5 C 211.33 80.33 207.17 81 207.5 79.5 C 207.83 78 213.83 72.83 213.5 72.5 Z"/>
  </g>
</svg>
