<svg xmlns="http://www.w3.org/2000/svg" width="899" height="921" viewBox="0 0 899 921" role="img" aria-labelledby="title desc">
  <title id="title">Nur logo loop frame 062</title>
  <desc id="desc">Vector-traced frame from Nur_Logo_Loop_02.gif.</desc>
  <g id="frame-062" stroke-linejoin="round" stroke-linecap="round" stroke-width="0.5" shape-rendering="geometricPrecision">
    <path fill="#008136" stroke="#008136" d="M 192.5 50.5 C 184.67 60.5 165.33 85.5 148.5 111.5 C 131.67 137.5 103.67 184.5 91.5 206.5 C 79.33 228.5 78 236.67 75.5 243.5 C 73 250.33 76.83 246.67 76.5 247.5 C 76.17 248.33 77.33 237.5 73.5 248.5 C 69.67 259.5 58.67 289.17 53.5 313.5 C 48.33 337.83 44.67 367.83 42.5 394.5 C 40.33 421.17 39 449 40.5 473.5 C 42 498 46.33 518 51.5 541.5 C 56.67 565 64 593.17 71.5 614.5 C 79 635.83 85.17 649.17 96.5 669.5 C 107.83 689.83 124.17 716 139.5 736.5 C 154.83 757 171.67 776 188.5 792.5 C 205.33 809 222.67 823.17 240.5 835.5 C 258.33 847.83 273.83 856.83 295.5 866.5 C 317.17 876.17 345.83 886.67 370.5 893.5 C 395.17 900.33 423 905.17 443.5 907.5 C 464 909.83 486.67 911.67 493.5 907.5 C 500.33 903.33 487.17 893.17 484.5 882.5 C 481.83 871.83 479.17 866.83 477.5 843.5 C 475.83 820.17 476.17 772.5 474.5 742.5 C 472.83 712.5 470.5 686.83 467.5 663.5 C 464.5 640.17 459.83 617.67 456.5 602.5 C 453.17 587.33 452.33 584.67 447.5 572.5 C 442.67 560.33 435.17 543.5 427.5 529.5 C 419.83 515.5 426.83 514.67 401.5 488.5 C 376.17 462.33 303.33 400.33 275.5 372.5 C 247.67 344.67 245.17 336.33 234.5 321.5 C 223.83 306.67 217.83 297.5 211.5 283.5 C 205.17 269.5 199.5 245.33 196.5 237.5 C 193.5 229.67 195.67 246.83 193.5 236.5 C 191.33 226.17 185 196.5 183.5 175.5 C 182 154.5 183.83 121.5 184.5 110.5 C 185.17 99.5 186 116.5 187.5 109.5 C 189 102.5 192.83 76 193.5 68.5 C 194.17 61 191.33 65.33 191.5 64.5 C 191.67 63.67 193.83 65.67 194.5 63.5 C 195.17 61.33 195.83 53.67 195.5 51.5 C 195.17 49.33 200.33 40.5 192.5 50.5 Z"/>
    <path fill="#83bb26" stroke="#83bb26" d="M 438.5 505.5 C 437.33 504 423.67 515.67 421.5 519.5 C 419.33 523.33 424.33 527 425.5 528.5 C 426.67 530 426.33 532.33 428.5 528.5 C 430.67 524.67 439.67 507 438.5 505.5 Z M 684.5 25.5 C 678.17 22 675.33 20.67 682.5 28.5 C 689.67 36.33 714 55.83 727.5 72.5 C 741 89.17 754.17 111.17 763.5 128.5 C 772.83 145.83 779.33 161.5 783.5 176.5 C 787.67 191.5 789.33 203.17 788.5 218.5 C 787.67 233.83 784.67 252.83 778.5 268.5 C 772.33 284.17 764.67 297 751.5 312.5 C 738.33 328 720.83 345.33 699.5 361.5 C 678.17 377.67 633 388 623.5 409.5 C 614 431 638.83 462.5 642.5 490.5 C 646.17 518.5 645.83 556.67 645.5 577.5 C 645.17 598.33 635.5 612.17 640.5 615.5 C 645.5 618.83 660.83 606.5 675.5 597.5 C 690.17 588.5 711.83 574 728.5 561.5 C 745.17 549 763 533.83 775.5 522.5 C 788 511.17 794.83 503.83 803.5 493.5 C 812.17 483.17 819.67 473 827.5 460.5 C 835.33 448 844 432.83 850.5 418.5 C 857 404.17 862.67 388.17 866.5 374.5 C 870.33 360.83 872.33 352.83 873.5 336.5 C 874.67 320.17 874.33 291.5 873.5 276.5 C 872.67 261.5 871.67 258 868.5 246.5 C 865.33 235 860.17 220.17 854.5 207.5 C 848.83 194.83 847.67 189.5 834.5 170.5 C 821.33 151.5 794.5 113.67 775.5 93.5 C 756.5 73.33 735.67 60.83 720.5 49.5 C 705.33 38.17 690.83 29 684.5 25.5 Z"/>
    <path fill="#6ab12d" stroke="#6ab12d" d="M 638.5 619.5 C 629.67 618.83 595.5 638.33 579.5 646.5 C 563.5 654.67 554.83 660.17 542.5 668.5 C 530.17 676.83 515 688.17 505.5 696.5 C 496 704.83 490.67 709.67 485.5 718.5 C 480.33 727.33 476.17 735.67 474.5 749.5 C 472.83 763.33 473 780.17 475.5 801.5 C 478 822.83 487.33 863.83 489.5 877.5 C 491.67 891.17 489 883.17 488.5 883.5 C 488 883.83 487.33 879.67 486.5 879.5 C 485.67 879.33 482.33 877.83 483.5 882.5 C 484.67 887.17 490.33 904.67 493.5 907.5 C 496.67 910.33 494.67 910 502.5 899.5 C 510.33 889 526.67 865.83 540.5 844.5 C 554.33 823.17 572.67 796 585.5 771.5 C 598.33 747 609.67 717.67 617.5 697.5 C 625.33 677.33 629 663.5 632.5 650.5 C 636 637.5 647.33 620.17 638.5 619.5 Z M 492.5 132.5 C 489 133.33 507.67 182 512.5 203.5 C 517.33 225 520 243.5 521.5 261.5 C 523 279.5 522.33 297.33 521.5 311.5 C 520.67 325.67 519.5 333 516.5 346.5 C 513.5 360 508.33 379.5 503.5 392.5 C 498.67 405.5 498.5 405.83 487.5 424.5 C 476.5 443.17 447.33 487.83 437.5 504.5 C 427.67 521.17 431 522 428.5 524.5 C 426 527 423.83 519.83 422.5 519.5 C 421.17 519.17 419.17 520 420.5 522.5 C 421.83 525 426.5 537.17 430.5 534.5 C 434.5 531.83 439 513.67 444.5 506.5 C 450 499.33 452.83 498.17 463.5 491.5 C 474.17 484.83 482 479.17 508.5 466.5 C 535 453.83 601.5 417.33 622.5 415.5 C 643.5 413.67 631.33 441.83 634.5 455.5 C 637.67 469.17 639.83 481.67 641.5 497.5 C 643.17 513.33 645 531 644.5 550.5 C 644 570 639 603.5 638.5 614.5 C 638 625.5 640.17 622.33 641.5 616.5 C 642.83 610.67 646.17 600.83 646.5 579.5 C 646.83 558.17 646.83 516.17 643.5 488.5 C 640.17 460.83 638.33 448.83 626.5 413.5 C 614.67 378.17 588 312.33 572.5 276.5 C 557 240.67 546.83 222.5 533.5 198.5 C 520.17 174.5 496 131.67 492.5 132.5 Z"/>
    <path fill="#009f3a" stroke="#009f3a" d="M 475.5 800.5 C 473.17 795.5 477.17 847.5 478.5 861.5 C 479.83 875.5 481.5 878.33 483.5 884.5 C 485.5 890.67 489.67 897.33 490.5 898.5 C 491.33 899.67 488.17 892.67 488.5 891.5 C 488.83 890.33 494.67 906.67 492.5 891.5 C 490.33 876.33 477.83 805.5 475.5 800.5 Z M 624.5 413.5 C 601.83 408.5 533.67 452.67 506.5 465.5 C 479.33 478.33 472 484 461.5 490.5 C 451 497 449.17 497.5 443.5 504.5 C 437.83 511.5 427 520.83 427.5 532.5 C 428 544.17 440.67 556.67 446.5 574.5 C 452.33 592.33 458.33 615.5 462.5 639.5 C 466.67 663.5 469.5 692.67 471.5 718.5 C 473.5 744.33 473.83 789 474.5 794.5 C 475.17 800 472.83 764.83 475.5 751.5 C 478.17 738.17 484.17 724.33 490.5 714.5 C 496.83 704.67 502.67 701.17 513.5 692.5 C 524.33 683.83 534.5 674.5 555.5 662.5 C 576.5 650.5 624.5 636.17 639.5 620.5 C 654.5 604.83 645 589.33 645.5 568.5 C 646 547.67 646 521.33 642.5 495.5 C 639 469.67 647.17 418.5 624.5 413.5 Z"/>
    <path fill="#007a39" stroke="#007a39" d="M 426.5 534.5 C 419.5 536.5 411 575.67 406.5 592.5 C 402 609.33 400.67 624.17 399.5 635.5 C 398.33 646.83 398.5 651 399.5 660.5 C 400.5 670 400.83 676.67 405.5 692.5 C 410.17 708.33 415.83 727.67 427.5 755.5 C 439.17 783.33 467 842.17 475.5 859.5 C 484 876.83 479.17 873 478.5 859.5 C 477.83 846 472.67 801 471.5 778.5 C 470.33 756 473 747.5 471.5 724.5 C 470 701.5 466.33 664.5 462.5 640.5 C 458.67 616.5 454.5 598.17 448.5 580.5 C 442.5 562.83 433.5 532.5 426.5 534.5 Z M 78.5 241.5 C 78 241.67 74.67 248.33 74.5 249.5 C 74.33 250.67 76.83 249.83 77.5 248.5 C 78.17 247.17 79 241.33 78.5 241.5 Z M 87.5 219.5 C 86.83 219.83 81.83 229 81.5 230.5 C 81.17 232 84.5 230.33 85.5 228.5 C 86.5 226.67 88.17 219.17 87.5 219.5 Z"/>
    <path fill="#007d38" stroke="#007d38" d="M 472.5 790.5 C 472.5 795.33 475 823.67 475.5 824.5 C 476 825.33 476 801.17 475.5 795.5 C 475 789.83 472.5 785.67 472.5 790.5 Z M 115.5 699.5 C 115.83 700.67 129.17 719.83 131.5 722.5 C 133.83 725.17 132.17 719.33 129.5 715.5 C 126.83 711.67 115.17 698.33 115.5 699.5 Z M 419.5 524.5 C 412.67 529 396.17 548.17 387.5 560.5 C 378.83 572.83 372 587.5 367.5 598.5 C 363 609.5 361.17 612.5 360.5 626.5 C 359.83 640.5 360 664 363.5 682.5 C 367 701 375.33 721.83 381.5 737.5 C 387.67 753.17 391.17 760 400.5 776.5 C 409.83 793 422.17 814.83 437.5 836.5 C 452.83 858.17 485.33 900.5 492.5 906.5 C 499.67 912.5 482.83 881.33 480.5 872.5 C 478.17 863.67 479.33 856.83 478.5 853.5 C 477.67 850.17 475.83 855.83 475.5 852.5 C 475.17 849.17 476.67 833.83 476.5 833.5 C 476.33 833.17 482.5 863.83 474.5 850.5 C 466.5 837.17 440.33 782.5 428.5 753.5 C 416.67 724.5 408.17 695.83 403.5 676.5 C 398.83 657.17 400.33 648.83 400.5 637.5 C 400.67 626.17 402.33 619.17 404.5 608.5 C 406.67 597.83 409.67 585.17 413.5 573.5 C 417.33 561.83 421.67 537.17 427.5 538.5 C 433.33 539.83 448.33 582.33 448.5 581.5 C 448.67 580.67 433.33 543 428.5 533.5 C 423.67 524 426.33 520 419.5 524.5 Z M 413.5 510.5 C 412.83 510.17 415.33 517.67 416.5 519.5 C 417.67 521.33 421 523 420.5 521.5 C 420 520 414.17 510.83 413.5 510.5 Z M 43.5 438.5 C 43 438.67 40.5 457.83 40.5 461.5 C 40.5 465.17 43 464.33 43.5 460.5 C 44 456.67 44 438.33 43.5 438.5 Z M 318.5 414.5 C 316 413 320.17 419.67 323.5 422.5 C 326.83 425.33 339.33 432.83 338.5 431.5 C 337.67 430.17 321 416 318.5 414.5 Z M 241.5 331.5 C 240.33 330.83 241.17 335 242.5 336.5 C 243.83 338 249.67 341.33 249.5 340.5 C 249.33 339.67 242.67 332.17 241.5 331.5 Z M 228.5 312.5 C 227.5 312 231.67 321.17 233.5 323.5 C 235.33 325.83 240.33 328.33 239.5 326.5 C 238.67 324.67 229.5 313 228.5 312.5 Z M 214.5 289.5 C 214 289.5 216.5 297 217.5 298.5 C 218.5 300 221 300 220.5 298.5 C 220 297 215 289.5 214.5 289.5 Z M 78.5 240.5 C 77.5 241.5 73.33 250.67 73.5 251.5 C 73.67 252.33 78.67 247.33 79.5 245.5 C 80.33 243.67 79.5 239.5 78.5 240.5 Z M 88.5 218.5 C 87.83 219 82.83 229 82.5 230.5 C 82.17 232 85.5 229.5 86.5 227.5 C 87.5 225.5 89.17 218 88.5 218.5 Z M 149.5 113.5 C 148.17 114.67 139.83 127.17 139.5 128.5 C 139.17 129.83 145.83 124 147.5 121.5 C 149.17 119 150.83 112.33 149.5 113.5 Z M 187.5 106.5 C 187 105.67 184.17 107.33 183.5 108.5 C 182.83 109.67 183 112.67 183.5 113.5 C 184 114.33 185.83 114.67 186.5 113.5 C 187.17 112.33 188 107.33 187.5 106.5 Z M 160.5 96.5 C 158.83 98.17 151.33 109 151.5 109.5 C 151.67 110 160 101.67 161.5 99.5 C 163 97.33 162.17 94.83 160.5 96.5 Z"/>
  </g>
</svg>
