<svg xmlns="http://www.w3.org/2000/svg" width="899" height="921" viewBox="0 0 899 921" role="img" aria-labelledby="title desc">
  <title id="title">Nur logo loop frame 101</title>
  <desc id="desc">Vector-traced frame from Nur_Logo_Loop_02.gif.</desc>
  <g id="frame-101" stroke-linejoin="round" stroke-linecap="round" stroke-width="0.5" shape-rendering="geometricPrecision">
    <path fill="#008136" stroke="#008136" d="M 213.5 56.5 C 204.33 66.33 178.5 94.33 160.5 119.5 C 142.5 144.67 118.5 184.33 105.5 207.5 C 92.5 230.67 89 241.67 82.5 258.5 C 76 275.33 71.67 286 66.5 308.5 C 61.33 331 54.67 367.83 51.5 393.5 C 48.33 419.17 46.83 438.67 47.5 462.5 C 48.17 486.33 51.5 512.5 55.5 536.5 C 59.5 560.5 65 585.67 71.5 606.5 C 78 627.33 83.17 640.17 94.5 661.5 C 105.83 682.83 122.67 711.67 139.5 734.5 C 156.33 757.33 178.17 781.33 195.5 798.5 C 212.83 815.67 226.83 826.17 243.5 837.5 C 260.17 848.83 274.33 857.17 295.5 866.5 C 316.67 875.83 345.83 886.67 370.5 893.5 C 395.17 900.33 423 905.17 443.5 907.5 C 464 909.83 486.67 911.67 493.5 907.5 C 500.33 903.33 487.17 893.17 484.5 882.5 C 481.83 871.83 479 864 477.5 843.5 C 476 823 477.17 789.5 475.5 759.5 C 473.83 729.5 470.67 689.67 467.5 663.5 C 464.33 637.33 460.83 620.17 456.5 602.5 C 452.17 584.83 447.83 572.17 441.5 557.5 C 435.17 542.83 427 528.17 418.5 514.5 C 410 500.83 408.17 494 390.5 475.5 C 372.83 457 335.33 426.33 312.5 403.5 C 289.67 380.67 269.17 357.83 253.5 338.5 C 237.83 319.17 225.33 299.17 218.5 287.5 C 211.67 275.83 214 271.83 212.5 268.5 C 211 265.17 211 272 209.5 267.5 C 208 263 205 246 203.5 241.5 C 202 237 202.17 246.67 200.5 240.5 C 198.83 234.33 194.83 220 193.5 204.5 C 192.17 189 191.67 164.83 192.5 147.5 C 193.33 130.17 197 108.5 198.5 100.5 C 200 92.5 198.67 106.17 201.5 99.5 C 204.33 92.83 213.5 67.67 215.5 60.5 C 217.5 53.33 222.67 46.67 213.5 56.5 Z"/>
    <path fill="#83bb26" stroke="#83bb26" d="M 447.5 494.5 C 446.33 491.67 425.17 510.5 420.5 514.5 C 415.83 518.5 418.33 515.67 419.5 518.5 C 420.67 521.33 422.83 535.5 427.5 531.5 C 432.17 527.5 448.67 497.33 447.5 494.5 Z M 648.5 35.5 C 639 31.33 642.67 34.67 649.5 40.5 C 656.33 46.33 677.67 60.67 689.5 70.5 C 701.33 80.33 711.5 89.5 720.5 99.5 C 729.5 109.5 734.83 115.17 743.5 130.5 C 752.17 145.83 766.83 174 772.5 191.5 C 778.17 209 778.5 221.17 777.5 235.5 C 776.5 249.83 773.33 263.33 766.5 277.5 C 759.67 291.67 749.67 306.17 736.5 320.5 C 723.33 334.83 707.33 349 687.5 363.5 C 667.67 378 625.5 385.83 617.5 407.5 C 609.5 429.17 635.33 472.17 639.5 493.5 C 643.67 514.83 642.5 516.33 642.5 535.5 C 642.5 554.67 632.33 600.5 639.5 608.5 C 646.67 616.5 670.83 592.5 685.5 583.5 C 700.17 574.5 712 566.5 727.5 554.5 C 743 542.5 765.5 523.67 778.5 511.5 C 791.5 499.33 796.5 493.33 805.5 481.5 C 814.5 469.67 824.67 454.5 832.5 440.5 C 840.33 426.5 847.17 412.17 852.5 397.5 C 857.83 382.83 862 367.33 864.5 352.5 C 867 337.67 867.5 323.5 867.5 308.5 C 867.5 293.5 866.67 276.17 864.5 262.5 C 862.33 248.83 858.67 237.83 854.5 226.5 C 850.33 215.17 845.67 205.17 839.5 194.5 C 833.33 183.83 829.67 177.33 817.5 162.5 C 805.33 147.67 785 121.67 766.5 105.5 C 748 89.33 726.17 77.17 706.5 65.5 C 686.83 53.83 658 39.67 648.5 35.5 Z"/>
    <path fill="#6ab12d" stroke="#6ab12d" d="M 477.5 136.5 C 472.5 133.83 493 173.33 498.5 190.5 C 504 207.67 507.83 225.67 510.5 239.5 C 513.17 253.33 514.5 256 514.5 273.5 C 514.5 291 513.17 324.33 510.5 344.5 C 507.83 364.67 512 364.17 498.5 394.5 C 485 424.83 441.5 504.5 429.5 526.5 C 417.5 548.5 427.83 528.33 426.5 526.5 C 425.17 524.67 422.83 516.67 421.5 515.5 C 420.17 514.33 417.67 516.67 418.5 519.5 C 419.33 522.33 424.5 530.17 426.5 532.5 C 428.5 534.83 426.67 539.33 430.5 533.5 C 434.33 527.67 443.33 505.83 449.5 497.5 C 455.67 489.17 457.17 489.83 467.5 483.5 C 477.83 477.17 486.83 471.33 511.5 459.5 C 536.17 447.67 595 409.67 615.5 412.5 C 636 415.33 630.17 453.17 634.5 476.5 C 638.83 499.83 641 530.17 641.5 552.5 C 642 574.83 648 596 637.5 610.5 C 627 625 594 631.17 578.5 639.5 C 563 647.83 556.17 652.33 544.5 660.5 C 532.83 668.67 518 680.33 508.5 688.5 C 499 696.67 492.17 703.83 487.5 709.5 C 482.83 715.17 482.67 716.33 480.5 722.5 C 478.33 728.67 475.17 732 474.5 746.5 C 473.83 761 473.17 784.17 476.5 809.5 C 479.83 834.83 491.67 882 494.5 898.5 C 497.33 915 493.17 906.83 493.5 908.5 C 493.83 910.17 482.67 928.67 496.5 908.5 C 510.33 888.33 557.83 818.83 576.5 787.5 C 595.17 756.17 599.83 741.5 608.5 720.5 C 617.17 699.5 623 680.83 628.5 661.5 C 634 642.17 639 625.83 641.5 604.5 C 644 583.17 643.67 552.33 643.5 533.5 C 643.33 514.67 642.17 504.5 640.5 491.5 C 638.83 478.5 637 469.83 633.5 455.5 C 630 441.17 624.83 421.83 619.5 405.5 C 614.17 389.17 610.5 378.83 601.5 357.5 C 592.5 336.17 577.67 302.67 565.5 277.5 C 553.33 252.33 543.17 230 528.5 206.5 C 513.83 183 482.5 139.17 477.5 136.5 Z"/>
    <path fill="#009f3a" stroke="#009f3a" d="M 475.5 796.5 C 472.67 788.83 476.83 845.67 478.5 861.5 C 480.17 877.33 483.17 883.83 485.5 891.5 C 487.83 899.17 490.83 904.83 492.5 907.5 C 494.17 910.17 498.33 926 495.5 907.5 C 492.67 889 478.33 804.17 475.5 796.5 Z M 617.5 411.5 C 596 405.67 533.5 447.5 509.5 458.5 C 485.5 469.5 483.67 471.33 473.5 477.5 C 463.33 483.67 456 486.33 448.5 495.5 C 441 504.67 432.33 526.83 428.5 532.5 C 424.67 538.17 422.5 522.5 425.5 529.5 C 428.5 536.5 440.67 558 446.5 574.5 C 452.33 591 456.67 608.5 460.5 628.5 C 464.33 648.5 467.17 667.17 469.5 694.5 C 471.83 721.83 473.5 783.5 474.5 792.5 C 475.5 801.5 474.33 759.83 475.5 748.5 C 476.67 737.17 479.33 730.67 481.5 724.5 C 483.67 718.33 483.67 717.33 488.5 711.5 C 493.33 705.67 499.83 698.5 510.5 689.5 C 521.17 680.5 531.17 670.33 552.5 657.5 C 573.83 644.67 623.5 626.17 638.5 612.5 C 653.5 598.83 642.5 595.33 642.5 575.5 C 642.5 555.67 642.67 520.83 638.5 493.5 C 634.33 466.17 639 417.33 617.5 411.5 Z"/>
    <path fill="#007a39" stroke="#007a39" d="M 425.5 533.5 C 421.5 536.33 416.83 553.5 412.5 567.5 C 408.17 581.5 401.67 598.83 399.5 617.5 C 397.33 636.17 397.33 661 399.5 679.5 C 401.67 698 406.5 710.83 412.5 728.5 C 418.5 746.17 424.5 760.67 435.5 785.5 C 446.5 810.33 470.83 862 478.5 877.5 C 486.17 893 482 884.33 481.5 878.5 C 481 872.67 477.17 868.17 475.5 842.5 C 473.83 816.83 473.67 758.17 471.5 724.5 C 469.33 690.83 466.33 664.5 462.5 640.5 C 458.67 616.5 452.83 595.5 448.5 580.5 C 444.17 565.5 440.33 558.33 436.5 550.5 C 432.67 542.67 429.5 530.67 425.5 533.5 Z M 91.5 241.5 C 90.83 242 87.5 248.67 87.5 249.5 C 87.5 250.33 90.83 247.83 91.5 246.5 C 92.17 245.17 92.17 241 91.5 241.5 Z"/>
    <path fill="#007d38" stroke="#007d38" d="M 144.5 737.5 C 144.33 738 150.17 746.33 151.5 747.5 C 152.83 748.67 153.67 746.17 152.5 744.5 C 151.33 742.83 144.67 737 144.5 737.5 Z M 103.5 674.5 C 103.33 675 107.5 682.5 108.5 683.5 C 109.5 684.5 110.33 682 109.5 680.5 C 108.67 679 103.67 674 103.5 674.5 Z M 417.5 520.5 C 412.33 526 397.83 541.33 389.5 553.5 C 381.17 565.67 372.67 580.67 367.5 593.5 C 362.33 606.33 359.33 615.83 358.5 630.5 C 357.67 645.17 360.17 667.17 362.5 681.5 C 364.83 695.83 365.33 699.33 372.5 716.5 C 379.67 733.67 396.33 767.17 405.5 784.5 C 414.67 801.83 413.33 800.5 427.5 820.5 C 441.67 840.5 481.17 893.33 490.5 904.5 C 499.83 915.67 485.33 894.67 483.5 887.5 C 481.67 880.33 480.67 865.17 479.5 861.5 C 478.33 857.83 486.33 885 476.5 865.5 C 466.67 846 433.17 775.83 420.5 744.5 C 407.83 713.17 403.83 698.33 400.5 677.5 C 397.17 656.67 398.33 637.5 400.5 619.5 C 402.67 601.5 409 583 413.5 569.5 C 418 556 421.67 536.5 427.5 538.5 C 433.33 540.5 448.33 582.33 448.5 581.5 C 448.67 580.67 433.17 543.67 428.5 533.5 C 423.83 523.33 422.33 522.67 420.5 520.5 C 418.67 518.33 422.67 515 417.5 520.5 Z M 66.5 319.5 C 65.83 319.83 62.5 326.5 62.5 327.5 C 62.5 328.5 65.83 326.83 66.5 325.5 C 67.17 324.17 67.17 319.17 66.5 319.5 Z M 223.5 295.5 C 222.33 294.5 223.17 299.5 224.5 301.5 C 225.83 303.5 231.67 308.5 231.5 307.5 C 231.33 306.5 224.67 296.5 223.5 295.5 Z M 207.5 263.5 C 206.83 263.17 207.67 268.17 208.5 269.5 C 209.33 270.83 212.67 272.5 212.5 271.5 C 212.33 270.5 208.17 263.83 207.5 263.5 Z M 147.5 143.5 C 147.67 142.5 143.5 145.83 142.5 147.5 C 141.5 149.17 140.67 154.17 141.5 153.5 C 142.33 152.83 147.33 144.5 147.5 143.5 Z M 184.5 93.5 C 186.5 90.67 182.33 92.33 179.5 95.5 C 176.67 98.67 166.67 112.83 167.5 112.5 C 168.33 112.17 182.5 96.33 184.5 93.5 Z M 214.5 57.5 C 214.17 56.67 208.33 60.83 207.5 62.5 C 206.67 64.17 208.33 68.33 209.5 67.5 C 210.67 66.67 214.83 58.33 214.5 57.5 Z"/>
  </g>
</svg>
