<svg xmlns="http://www.w3.org/2000/svg" width="899" height="921" viewBox="0 0 899 921" role="img" aria-labelledby="title desc">
  <title id="title">Nur logo loop frame 045</title>
  <desc id="desc">Vector-traced frame from Nur_Logo_Loop_02.gif.</desc>
  <g id="frame-045" stroke-linejoin="round" stroke-linecap="round" stroke-width="0.5" shape-rendering="geometricPrecision">
    <path fill="#008136" stroke="#008136" d="M 219.5 66.5 C 209.67 75.5 181.17 99.5 162.5 123.5 C 143.83 147.5 119.67 189.67 107.5 210.5 C 95.33 231.33 96.67 229.33 89.5 248.5 C 82.33 267.67 71.33 299.5 64.5 325.5 C 57.67 351.5 51.83 381.17 48.5 404.5 C 45.17 427.83 43.67 442.83 44.5 465.5 C 45.33 488.17 49 515.67 53.5 540.5 C 58 565.33 64.33 593 71.5 614.5 C 78.67 636 85.17 649.17 96.5 669.5 C 107.83 689.83 124.17 716 139.5 736.5 C 154.83 757 171.67 776 188.5 792.5 C 205.33 809 222.67 823.17 240.5 835.5 C 258.33 847.83 273.83 856.83 295.5 866.5 C 317.17 876.17 345.83 886.67 370.5 893.5 C 395.17 900.33 423 905.17 443.5 907.5 C 464 909.83 486.67 911.67 493.5 907.5 C 500.33 903.33 487.17 893.17 484.5 882.5 C 481.83 871.83 479.17 866.67 477.5 843.5 C 475.83 820.33 476.17 773.5 474.5 743.5 C 472.83 713.5 470.5 687 467.5 663.5 C 464.5 640 460.83 620.17 456.5 602.5 C 452.17 584.83 447.83 572.17 441.5 557.5 C 435.17 542.83 427 528.17 418.5 514.5 C 410 500.83 408.17 494 390.5 475.5 C 372.83 457 334.17 424.83 312.5 403.5 C 290.83 382.17 274.33 364.33 260.5 347.5 C 246.67 330.67 237.5 316.33 229.5 302.5 C 221.5 288.67 215.83 271 212.5 264.5 C 209.17 258 209.83 264.5 209.5 263.5 C 209.17 262.5 212.83 267 210.5 258.5 C 208.17 250 197.83 230.33 195.5 212.5 C 193.17 194.67 195.17 168.67 196.5 151.5 C 197.83 134.33 199.33 123.17 203.5 109.5 C 207.67 95.83 218.83 76.67 221.5 69.5 C 224.17 62.33 229.33 57.5 219.5 66.5 Z"/>
    <path fill="#83bb26" stroke="#83bb26" d="M 450.5 488.5 C 449.17 485.83 423.33 507.5 419.5 514.5 C 415.67 521.5 422.33 534.83 427.5 530.5 C 432.67 526.17 451.83 491.17 450.5 488.5 Z M 633.5 43.5 C 632 44.67 632.67 47 644.5 55.5 C 656.33 64 690.17 83.67 704.5 94.5 C 718.83 105.33 721 107.17 730.5 120.5 C 740 133.83 754.33 158.5 761.5 174.5 C 768.67 190.5 771.5 205.67 773.5 216.5 C 775.5 227.33 774.33 231.67 773.5 239.5 C 772.67 247.33 771 255.67 768.5 263.5 C 766 271.33 762.67 279 758.5 286.5 C 754.33 294 753.67 297.5 743.5 308.5 C 733.33 319.5 712.5 340 697.5 352.5 C 682.5 365 667.33 374.67 653.5 383.5 C 639.67 392.33 618.17 392.67 614.5 405.5 C 610.83 418.33 627.5 444.83 631.5 460.5 C 635.5 476.17 636.67 483.17 638.5 499.5 C 640.33 515.83 642.5 541.67 642.5 558.5 C 642.5 575.33 638.83 592.5 638.5 600.5 C 638.17 608.5 630.17 611.5 640.5 606.5 C 650.83 601.5 682.5 582.5 700.5 570.5 C 718.5 558.5 735.5 545 748.5 534.5 C 761.5 524 768 518.5 778.5 507.5 C 789 496.5 802.83 480 811.5 468.5 C 820.17 457 823.33 452.83 830.5 438.5 C 837.67 424.17 849 399.33 854.5 382.5 C 860 365.67 861.83 352.83 863.5 337.5 C 865.17 322.17 865.5 306.17 864.5 290.5 C 863.5 274.83 862 259.33 857.5 243.5 C 853 227.67 843.67 207.67 837.5 195.5 C 831.33 183.33 830.5 183 820.5 170.5 C 810.5 158 789.5 132.5 777.5 120.5 C 765.5 108.5 760 106 748.5 98.5 C 737 91 724.33 83.83 708.5 75.5 C 692.67 67.17 666 53.83 653.5 48.5 C 641 43.17 635 42.33 633.5 43.5 Z"/>
    <path fill="#6ab12d" stroke="#6ab12d" d="M 468.5 140.5 C 463.33 138.33 484.33 170.17 490.5 185.5 C 496.67 200.83 502 215.5 505.5 232.5 C 509 249.5 511.17 267.5 511.5 287.5 C 511.83 307.5 509.67 334.67 507.5 352.5 C 505.33 370.33 511.5 365.67 498.5 394.5 C 485.5 423.33 441.5 503.5 429.5 525.5 C 417.5 547.5 428 528.17 426.5 526.5 C 425 524.83 422 517 420.5 515.5 C 419 514 416.17 514.17 417.5 517.5 C 418.83 520.83 426.17 532.5 428.5 535.5 C 430.83 538.5 427.33 542.5 431.5 535.5 C 435.67 528.5 448 502.33 453.5 493.5 C 459 484.67 454.67 488.83 464.5 482.5 C 474.33 476.17 487.67 467.5 512.5 455.5 C 537.33 443.5 593.5 407.83 613.5 410.5 C 633.5 413.17 628 448 632.5 471.5 C 637 495 639.67 529 640.5 551.5 C 641.33 574 648.33 592.17 637.5 606.5 C 626.67 620.83 591 629 575.5 637.5 C 560 646 555.17 649.67 544.5 657.5 C 533.83 665.33 521.67 674.5 511.5 684.5 C 501.33 694.5 489.33 707.83 483.5 717.5 C 477.67 727.17 478 733.33 476.5 742.5 C 475 751.67 471.5 747.5 474.5 772.5 C 477.5 797.5 492.5 874.67 494.5 892.5 C 496.5 910.33 488.33 881.17 486.5 879.5 C 484.67 877.83 482.5 878 483.5 882.5 C 484.5 887 490.33 902.33 492.5 906.5 C 494.67 910.67 484.33 924.33 496.5 907.5 C 508.67 890.67 547.83 834.33 565.5 805.5 C 583.17 776.67 591.5 761.33 602.5 734.5 C 613.5 707.67 625 667.33 631.5 644.5 C 638 621.67 639.5 612.5 641.5 597.5 C 643.5 582.5 643.83 571.17 643.5 554.5 C 643.17 537.83 641.33 513.5 639.5 497.5 C 637.67 481.5 640.33 484.17 632.5 458.5 C 624.67 432.83 603.33 372.17 592.5 343.5 C 581.67 314.83 579.33 310.67 567.5 286.5 C 555.67 262.33 538 222.83 521.5 198.5 C 505 174.17 473.67 142.67 468.5 140.5 Z"/>
    <path fill="#009f3a" stroke="#009f3a" d="M 474.5 771.5 C 471.33 765.67 476.17 840.17 478.5 861.5 C 480.83 882.83 485.83 891.83 488.5 899.5 C 491.17 907.17 494.5 908.83 494.5 907.5 C 494.5 906.17 488.5 892.83 488.5 891.5 C 488.5 890.17 493 898.67 494.5 899.5 C 496 900.33 500.83 917.83 497.5 896.5 C 494.17 875.17 477.67 777.33 474.5 771.5 Z M 615.5 409.5 C 595.67 409.67 534.17 443.67 510.5 454.5 C 486.83 465.33 482.83 468.83 473.5 474.5 C 464.17 480.17 461.5 478.83 454.5 488.5 C 447.5 498.17 436.33 525.67 431.5 532.5 C 426.67 539.33 423 522.5 425.5 529.5 C 428 536.5 441 559.67 446.5 574.5 C 452 589.33 455 601.83 458.5 618.5 C 462 635.17 465 649.67 467.5 674.5 C 470 699.33 470.67 760 473.5 767.5 C 476.33 775 477.83 733.17 484.5 719.5 C 491.17 705.83 501 697.17 513.5 685.5 C 526 673.83 538.67 662.33 559.5 649.5 C 580.33 636.67 624.83 625.17 638.5 608.5 C 652.17 591.83 641.67 568.67 641.5 549.5 C 641.33 530.33 639.5 509.5 637.5 493.5 C 635.5 477.5 633.17 467.5 629.5 453.5 C 625.83 439.5 635.33 409.33 615.5 409.5 Z"/>
    <path fill="#007a39" stroke="#007a39" d="M 428.5 540.5 C 425.67 542.33 423.67 546.83 419.5 561.5 C 415.33 576.17 406.17 611.17 403.5 628.5 C 400.83 645.83 400.17 646.83 403.5 665.5 C 406.83 684.17 414.83 715.33 423.5 740.5 C 432.17 765.67 446.33 796.5 455.5 816.5 C 464.67 836.5 475.83 875.83 478.5 860.5 C 481.17 845.17 474.17 761.17 471.5 724.5 C 468.83 687.83 466.33 664.5 462.5 640.5 C 458.67 616.5 452.83 595.5 448.5 580.5 C 444.17 565.5 439.83 557.17 436.5 550.5 C 433.17 543.83 431.33 538.67 428.5 540.5 Z M 100.5 227.5 C 99.83 228 94.83 238 94.5 239.5 C 94.17 241 97.5 238.5 98.5 236.5 C 99.5 234.5 101.17 227 100.5 227.5 Z M 130.5 176.5 C 129.67 177 121.33 189.5 120.5 191.5 C 119.67 193.5 123.83 191 125.5 188.5 C 127.17 186 131.33 176 130.5 176.5 Z"/>
    <path fill="#007d38" stroke="#007d38" d="M 115.5 699.5 C 115.83 700.67 129.17 719.83 131.5 722.5 C 133.83 725.17 132.17 719.33 129.5 715.5 C 126.83 711.67 115.17 698.33 115.5 699.5 Z M 456.5 618.5 C 457 622.17 462 643 462.5 643.5 C 463 644 460.5 625.67 459.5 621.5 C 458.5 617.33 456 614.83 456.5 618.5 Z M 416.5 519.5 C 410.83 523.67 398.33 539.67 390.5 551.5 C 382.67 563.33 374.5 578 369.5 590.5 C 364.5 603 361.67 613.33 360.5 626.5 C 359.33 639.67 360.83 656.5 362.5 669.5 C 364.17 682.5 365.33 689.83 370.5 704.5 C 375.67 719.17 384.5 739.5 393.5 757.5 C 402.5 775.5 418.67 803.17 424.5 812.5 C 430.33 821.83 425.67 809.5 428.5 813.5 C 431.33 817.5 432.5 823.33 441.5 836.5 C 450.5 849.67 474.83 882.83 482.5 892.5 C 490.17 902.17 488.5 900.33 487.5 894.5 C 486.5 888.67 478 864.33 476.5 857.5 C 475 850.67 478.67 854.33 478.5 853.5 C 478.33 852.67 476 856.5 475.5 852.5 C 475 848.5 475.67 829.83 475.5 829.5 C 475.33 829.17 483 865.67 474.5 850.5 C 466 835.33 436.17 769.67 424.5 738.5 C 412.83 707.33 407.83 681.5 404.5 663.5 C 401.17 645.5 401.83 647.17 404.5 630.5 C 407.17 613.83 416.17 578 420.5 563.5 C 424.83 549 424.67 536.33 430.5 543.5 C 436.33 550.67 454 604.5 455.5 606.5 C 457 608.5 444.67 568.83 439.5 555.5 C 434.33 542.17 428.33 532.5 424.5 526.5 C 420.67 520.5 422.17 515.33 416.5 519.5 Z M 208.5 260.5 C 207.83 260 207.83 264.17 208.5 265.5 C 209.17 266.83 212.5 269.33 212.5 268.5 C 212.5 267.67 209.17 261 208.5 260.5 Z M 199.5 232.5 C 198.5 231.33 198.5 235.5 199.5 237.5 C 200.5 239.5 205.5 245.33 205.5 244.5 C 205.5 243.67 200.5 233.67 199.5 232.5 Z M 134.5 172.5 C 135.83 169.83 131.67 172.33 129.5 175.5 C 127.33 178.67 120.67 192 121.5 191.5 C 122.33 191 133.17 175.17 134.5 172.5 Z M 139.5 162.5 C 139 162.5 134 169.17 133.5 170.5 C 133 171.83 135.5 171.83 136.5 170.5 C 137.5 169.17 140 162.5 139.5 162.5 Z"/>
  </g>
</svg>
