<svg xmlns="http://www.w3.org/2000/svg" width="899" height="921" viewBox="0 0 899 921" role="img" aria-labelledby="title desc">
  <title id="title">Nur logo loop frame 050</title>
  <desc id="desc">Vector-traced frame from Nur_Logo_Loop_02.gif.</desc>
  <g id="frame-050" stroke-linejoin="round" stroke-linecap="round" stroke-width="0.5" shape-rendering="geometricPrecision">
    <path fill="#008136" stroke="#008136" d="M 215.5 59.5 C 205.83 69.5 177.33 98.33 159.5 122.5 C 141.67 146.67 120.5 183.67 108.5 204.5 C 96.5 225.33 94.5 229.83 87.5 247.5 C 80.5 265.17 73 284.83 66.5 310.5 C 60 336.17 52.17 375.67 48.5 401.5 C 44.83 427.33 43.67 442.33 44.5 465.5 C 45.33 488.67 49 515.67 53.5 540.5 C 58 565.33 64.33 593 71.5 614.5 C 78.67 636 85.17 649.17 96.5 669.5 C 107.83 689.83 124.17 716 139.5 736.5 C 154.83 757 171.67 776 188.5 792.5 C 205.33 809 222.67 823.17 240.5 835.5 C 258.33 847.83 273.83 856.83 295.5 866.5 C 317.17 876.17 345.83 886.67 370.5 893.5 C 395.17 900.33 423 905.17 443.5 907.5 C 464 909.83 486.67 911.67 493.5 907.5 C 500.33 903.33 487.17 893.17 484.5 882.5 C 481.83 871.83 479.17 866.67 477.5 843.5 C 475.83 820.33 476.17 773.5 474.5 743.5 C 472.83 713.5 470.5 687 467.5 663.5 C 464.5 640 460.83 620.17 456.5 602.5 C 452.17 584.83 447.83 572.17 441.5 557.5 C 435.17 542.83 426 527 418.5 514.5 C 411 502 419 505.83 396.5 482.5 C 374 459.17 308.67 400.17 283.5 374.5 C 258.33 348.83 255.67 342.17 245.5 328.5 C 235.33 314.83 229 304.83 222.5 292.5 C 216 280.17 210.67 267 206.5 254.5 C 202.33 242 199.67 224.33 197.5 217.5 C 195.33 210.67 194.33 224 193.5 213.5 C 192.67 203 191.5 171.67 192.5 154.5 C 193.5 137.33 196.67 124 199.5 110.5 C 202.33 97 206.5 81.5 209.5 73.5 C 212.5 65.5 216.5 64.83 217.5 62.5 C 218.5 60.17 225.17 49.5 215.5 59.5 Z"/>
    <path fill="#83bb26" stroke="#83bb26" d="M 448.5 491.5 C 447.17 489 423 509 419.5 515.5 C 416 522 422.67 534.5 427.5 530.5 C 432.33 526.5 449.83 494 448.5 491.5 Z M 649.5 38.5 C 639.67 33.83 645.33 38 644.5 38.5 C 643.67 39 634.17 33.17 644.5 41.5 C 654.83 49.83 690.5 74 706.5 88.5 C 722.5 103 730.17 112.67 740.5 128.5 C 750.83 144.33 762.67 169.83 768.5 183.5 C 774.33 197.17 774.17 201.83 775.5 210.5 C 776.83 219.17 778.17 224.33 776.5 235.5 C 774.83 246.67 772.5 263.17 765.5 277.5 C 758.5 291.83 749.33 306 734.5 321.5 C 719.67 337 696.17 356.5 676.5 370.5 C 656.83 384.5 624 391.83 616.5 405.5 C 609 419.17 627.5 436.83 631.5 452.5 C 635.5 468.17 638.5 483.83 640.5 499.5 C 642.5 515.17 643.5 528.67 643.5 546.5 C 643.5 564.33 634.83 599.67 640.5 606.5 C 646.17 613.33 663.67 595.83 677.5 587.5 C 691.33 579.17 708.67 567.5 723.5 556.5 C 738.33 545.5 753.67 533.17 766.5 521.5 C 779.33 509.83 789.83 499.67 800.5 486.5 C 811.17 473.33 822.5 456 830.5 442.5 C 838.5 429 843.33 418.67 848.5 405.5 C 853.67 392.33 858.5 377.5 861.5 363.5 C 864.5 349.5 865.83 336.17 866.5 321.5 C 867.17 306.83 866.67 288.5 865.5 275.5 C 864.33 262.5 863.5 256.17 859.5 243.5 C 855.5 230.83 848 212.17 841.5 199.5 C 835 186.83 833.33 183.17 820.5 167.5 C 807.67 151.83 784 122.33 764.5 105.5 C 745 88.67 722.67 77.67 703.5 66.5 C 684.33 55.33 659.33 43.17 649.5 38.5 Z"/>
    <path fill="#6ab12d" stroke="#6ab12d" d="M 638.5 610.5 C 631.17 604.5 596.5 629 580.5 637.5 C 564.5 646 555.5 652 542.5 661.5 C 529.5 671 512.17 685.33 502.5 694.5 C 492.83 703.67 488.83 708.17 484.5 716.5 C 480.17 724.83 478 733.33 476.5 744.5 C 475 755.67 472.5 758.83 475.5 783.5 C 478.5 808.17 492.67 876.5 494.5 892.5 C 496.33 908.5 488.33 881.17 486.5 879.5 C 484.67 877.83 482.33 877.83 483.5 882.5 C 484.67 887.17 490.33 904.67 493.5 907.5 C 496.67 910.33 494.67 910 502.5 899.5 C 510.33 889 525.17 868.83 540.5 844.5 C 555.83 820.17 580.5 782 594.5 753.5 C 608.5 725 617.17 697.33 624.5 673.5 C 631.83 649.67 645.83 616.5 638.5 610.5 Z M 474.5 137.5 C 469 134.17 490.67 172.5 496.5 189.5 C 502.33 206.5 506.67 225.17 509.5 239.5 C 512.33 253.83 513.5 257.5 513.5 275.5 C 513.5 293.5 512 327.67 509.5 347.5 C 507 367.33 511.83 364.83 498.5 394.5 C 485.17 424.17 441.33 503.33 429.5 525.5 C 417.67 547.67 429 529 427.5 527.5 C 426 526 422 517.83 420.5 516.5 C 419 515.17 417.17 516.33 418.5 519.5 C 419.83 522.67 426.17 532.67 428.5 535.5 C 430.83 538.33 427.33 544.33 432.5 536.5 C 437.67 528.67 446 501.67 459.5 488.5 C 473 475.33 487.5 470.33 513.5 457.5 C 539.5 444.67 596.83 414.83 615.5 411.5 C 634.17 408.17 621.83 424.83 625.5 437.5 C 629.17 450.17 634.67 467.67 637.5 487.5 C 640.33 507.33 642 536.33 642.5 556.5 C 643 576.67 640.17 604.67 640.5 608.5 C 640.83 612.33 644.33 598 644.5 579.5 C 644.67 561 643.17 517.67 641.5 497.5 C 639.83 477.33 638.17 473.33 634.5 458.5 C 630.83 443.67 630.33 437 619.5 408.5 C 608.67 380 584.5 320.67 569.5 287.5 C 554.5 254.33 545.33 234.5 529.5 209.5 C 513.67 184.5 480 140.83 474.5 137.5 Z"/>
    <path fill="#009f3a" stroke="#009f3a" d="M 617.5 410.5 C 597.17 409.83 535.67 445.33 511.5 456.5 C 487.33 467.67 482.17 471.67 472.5 477.5 C 462.83 483.33 460.5 482 453.5 491.5 C 446.5 501 435.17 528.17 430.5 534.5 C 425.83 540.83 422.83 522.83 425.5 529.5 C 428.17 536.17 440.33 556.17 446.5 574.5 C 452.67 592.83 458 611 462.5 639.5 C 467 668 471.17 711.17 473.5 745.5 C 475.83 779.83 474.83 822.33 476.5 845.5 C 478.17 868.67 480.83 874.17 483.5 884.5 C 486.17 894.83 490.67 904 492.5 907.5 C 494.33 911 495.17 908.17 494.5 905.5 C 493.83 902.83 488.5 892.33 488.5 891.5 C 488.5 890.67 493 899 494.5 900.5 C 496 902 500.5 920.33 497.5 900.5 C 494.5 880.67 479.83 807.17 476.5 781.5 C 473.17 755.83 476 757 477.5 746.5 C 479 736 481 727 485.5 718.5 C 490 710 494.67 704.83 504.5 695.5 C 514.33 686.17 531.5 672 544.5 662.5 C 557.5 653 566.5 647.33 582.5 638.5 C 598.5 629.67 630.33 623.5 640.5 609.5 C 650.67 595.5 643.67 573.83 643.5 554.5 C 643.33 535.17 641.17 509.17 639.5 493.5 C 637.83 477.83 637.17 474.33 633.5 460.5 C 629.83 446.67 637.83 411.17 617.5 410.5 Z"/>
    <path fill="#007a39" stroke="#007a39" d="M 428.5 540.5 C 425.67 542.17 423.5 547.67 419.5 560.5 C 415.5 573.33 407.17 599.17 404.5 617.5 C 401.83 635.83 399.83 648.33 403.5 670.5 C 407.17 692.67 414.5 719 426.5 750.5 C 438.5 782 466.83 841.17 475.5 859.5 C 484.17 877.83 479.17 883 478.5 860.5 C 477.83 838 474.17 761.17 471.5 724.5 C 468.83 687.83 466.33 664.5 462.5 640.5 C 458.67 616.5 452.83 595.5 448.5 580.5 C 444.17 565.5 439.83 557.17 436.5 550.5 C 433.17 543.83 431.33 538.83 428.5 540.5 Z"/>
    <path fill="#007d38" stroke="#007d38" d="M 115.5 699.5 C 115.83 700.67 129.17 719.83 131.5 722.5 C 133.83 725.17 132.17 719.33 129.5 715.5 C 126.83 711.67 115.17 698.33 115.5 699.5 Z M 456.5 618.5 C 457 622.17 462 643 462.5 643.5 C 463 644 460.5 625.67 459.5 621.5 C 458.5 617.33 456 614.83 456.5 618.5 Z M 417.5 520.5 C 411.5 527 393.5 548.5 385.5 560.5 C 377.5 572.5 373.67 580.83 369.5 592.5 C 365.33 604.17 361.5 616.5 360.5 630.5 C 359.5 644.5 360.83 661.67 363.5 676.5 C 366.17 691.33 368.5 700.67 376.5 719.5 C 384.5 738.33 400.67 770 411.5 789.5 C 422.33 809 430.17 820 441.5 836.5 C 452.83 853 471.83 878.83 479.5 888.5 C 487.17 898.17 488 899.67 487.5 894.5 C 487 889.33 478 864.33 476.5 857.5 C 475 850.67 478.67 854.33 478.5 853.5 C 478.33 852.67 476 856.5 475.5 852.5 C 475 848.5 475.67 829.83 475.5 829.5 C 475.33 829.17 482.5 864 474.5 850.5 C 466.5 837 439 777.83 427.5 748.5 C 416 719.17 409.17 696 405.5 674.5 C 401.83 653 403 638.17 405.5 619.5 C 408 600.83 416.33 575.17 420.5 562.5 C 424.67 549.83 424.67 536.17 430.5 543.5 C 436.33 550.83 454 604.5 455.5 606.5 C 457 608.5 445.17 569.67 439.5 555.5 C 433.83 541.33 425.17 527.33 421.5 521.5 C 417.83 515.67 423.5 514 417.5 520.5 Z M 244.5 328.5 C 244.83 330 247.67 335.5 249.5 337.5 C 251.33 339.5 255.83 342 255.5 340.5 C 255.17 339 249.33 330.5 247.5 328.5 C 245.67 326.5 244.17 327 244.5 328.5 Z M 192.5 210.5 C 192.67 212.17 196 220.5 196.5 220.5 C 197 220.5 196.17 212.17 195.5 210.5 C 194.83 208.83 192.33 208.83 192.5 210.5 Z M 109.5 208.5 C 109.83 207.33 106.5 208.17 105.5 209.5 C 104.5 210.83 102.83 216.67 103.5 216.5 C 104.17 216.33 109.17 209.67 109.5 208.5 Z M 152.5 138.5 C 153.17 137.17 150.67 137.17 149.5 138.5 C 148.33 139.83 145 146.5 145.5 146.5 C 146 146.5 151.83 139.83 152.5 138.5 Z M 204.5 72.5 C 203 73.5 195.5 81.83 195.5 82.5 C 195.5 83.17 203 78.17 204.5 76.5 C 206 74.83 206 71.5 204.5 72.5 Z M 211.5 65.5 C 210.67 66.67 208.17 75.83 208.5 76.5 C 208.83 77.17 213 71.33 213.5 69.5 C 214 67.67 212.33 64.33 211.5 65.5 Z"/>
  </g>
</svg>
