<svg xmlns="http://www.w3.org/2000/svg" width="899" height="921" viewBox="0 0 899 921" role="img" aria-labelledby="title desc">
  <title id="title">Nur logo loop frame 047</title>
  <desc id="desc">Vector-traced frame from Nur_Logo_Loop_02.gif.</desc>
  <g id="frame-047" stroke-linejoin="round" stroke-linecap="round" stroke-width="0.5" shape-rendering="geometricPrecision">
    <path fill="#008136" stroke="#008136" d="M 215.5 65.5 C 205.5 75.17 177.17 102.17 159.5 125.5 C 141.83 148.83 121.5 184.5 109.5 205.5 C 97.5 226.5 95 232 87.5 251.5 C 80 271 68.17 309.67 64.5 322.5 C 60.83 335.33 66.83 322.5 65.5 328.5 C 64.17 334.5 57.67 352.67 56.5 358.5 C 55.33 364.33 58.67 362.5 58.5 363.5 C 58.33 364.5 56.83 360 55.5 364.5 C 54.17 369 51.17 383.83 50.5 390.5 C 49.83 397.17 51.83 402 51.5 404.5 C 51.17 407 49.67 395.33 48.5 405.5 C 47.33 415.67 43.67 443 44.5 465.5 C 45.33 488 49 515.67 53.5 540.5 C 58 565.33 64.33 593 71.5 614.5 C 78.67 636 85.17 649.17 96.5 669.5 C 107.83 689.83 124.17 716 139.5 736.5 C 154.83 757 171.67 776 188.5 792.5 C 205.33 809 222.67 823.17 240.5 835.5 C 258.33 847.83 273.83 856.83 295.5 866.5 C 317.17 876.17 345.83 886.67 370.5 893.5 C 395.17 900.33 423 905.17 443.5 907.5 C 464 909.83 486.67 911.67 493.5 907.5 C 500.33 903.33 487.17 893.17 484.5 882.5 C 481.83 871.83 479.17 866.67 477.5 843.5 C 475.83 820.33 476.17 773.5 474.5 743.5 C 472.83 713.5 470.5 687 467.5 663.5 C 464.5 640 460.83 620.17 456.5 602.5 C 452.17 584.83 450.67 576.5 441.5 557.5 C 432.33 538.5 427.83 519 401.5 488.5 C 375.17 458 311.33 403.83 283.5 374.5 C 255.67 345.17 246.83 330.67 234.5 312.5 C 222.17 294.33 213.5 274.33 209.5 265.5 C 205.5 256.67 212.83 268.83 210.5 259.5 C 208.17 250.17 198.17 225 195.5 209.5 C 192.83 194 194 182 194.5 166.5 C 195 151 197.33 125 198.5 116.5 C 199.67 108 201.17 117 201.5 115.5 C 201.83 114 200.17 109 200.5 107.5 C 200.83 106 202 110.67 203.5 106.5 C 205 102.33 206.83 89 209.5 82.5 C 212.17 76 218.5 70.33 219.5 67.5 C 220.5 64.67 225.5 55.83 215.5 65.5 Z"/>
    <path fill="#83bb26" stroke="#83bb26" d="M 448.5 491.5 C 447.17 488.83 423 508 419.5 514.5 C 416 521 422.67 534.33 427.5 530.5 C 432.33 526.67 449.83 494.17 448.5 491.5 Z M 638.5 40.5 C 631.33 38.17 627.5 36 638.5 44.5 C 649.5 53 689 79 704.5 91.5 C 720 104 721.67 105.5 731.5 119.5 C 741.33 133.5 756.33 159.67 763.5 175.5 C 770.67 191.33 772.67 203.67 774.5 214.5 C 776.33 225.33 775.5 231.83 774.5 240.5 C 773.5 249.17 771 258.83 768.5 266.5 C 766 274.17 763.67 279.33 759.5 286.5 C 755.33 293.67 754.5 297.83 743.5 309.5 C 732.5 321.17 708.5 344 693.5 356.5 C 678.5 369 666.5 376.33 653.5 384.5 C 640.5 392.67 618 387.67 615.5 405.5 C 613 423.33 634 468.67 638.5 491.5 C 643 514.33 642 523.33 642.5 542.5 C 643 561.67 634.17 600.17 641.5 606.5 C 648.83 612.83 669.5 591.67 686.5 580.5 C 703.5 569.33 726.83 552.83 743.5 539.5 C 760.17 526.17 774.67 512.83 786.5 500.5 C 798.33 488.17 805.33 479.17 814.5 465.5 C 823.67 451.83 834 434.83 841.5 418.5 C 849 402.17 855.67 381.33 859.5 367.5 C 863.33 353.67 863.67 350.5 864.5 335.5 C 865.33 320.5 865.67 293.33 864.5 277.5 C 863.33 261.67 861.33 253.17 857.5 240.5 C 853.67 227.83 848.17 214 841.5 201.5 C 834.83 189 827.83 178.83 817.5 165.5 C 807.17 152.17 789.33 131.83 779.5 121.5 C 769.67 111.17 774.83 114 758.5 103.5 C 742.17 93 701.5 69 681.5 58.5 C 661.5 48 645.67 42.83 638.5 40.5 Z"/>
    <path fill="#6ab12d" stroke="#6ab12d" d="M 470.5 139.5 C 473.5 147 486.33 169.17 492.5 185.5 C 498.67 201.83 504.17 221.33 507.5 237.5 C 510.83 253.67 512.17 265.17 512.5 282.5 C 512.83 299.83 511.83 322.83 509.5 341.5 C 507.17 360.17 511.83 363.83 498.5 394.5 C 485.17 425.17 441.5 503.5 429.5 525.5 C 417.5 547.5 428 528.17 426.5 526.5 C 425 524.83 422 517 420.5 515.5 C 419 514 416.17 514.17 417.5 517.5 C 418.83 520.83 426 532.5 428.5 535.5 C 431 538.5 428.17 542.67 432.5 535.5 C 436.83 528.33 449.67 500.83 454.5 492.5 C 459.33 484.17 451.5 491.67 461.5 485.5 C 471.5 479.33 489 468 514.5 455.5 C 540 443 594.5 406.83 614.5 410.5 C 634.5 414.17 630 453.5 634.5 477.5 C 639 501.5 641 532.83 641.5 554.5 C 642 576.17 648.17 593.67 637.5 607.5 C 626.83 621.33 593.67 628.5 577.5 637.5 C 561.33 646.5 554.83 650.17 540.5 661.5 C 526.17 672.83 501.17 695.67 491.5 705.5 C 481.83 715.33 485.33 711.33 482.5 720.5 C 479.67 729.67 475.67 749.83 474.5 760.5 C 473.33 771.17 472.17 762.5 475.5 784.5 C 478.83 806.5 492.67 876.67 494.5 892.5 C 496.33 908.33 488.33 881.17 486.5 879.5 C 484.67 877.83 482.5 878 483.5 882.5 C 484.5 887 490.33 902.33 492.5 906.5 C 494.67 910.67 484.33 924.33 496.5 907.5 C 508.67 890.67 547.67 834.67 565.5 805.5 C 583.33 776.33 594 753.67 603.5 732.5 C 613 711.33 616.17 700.17 622.5 678.5 C 628.83 656.83 638 625.5 641.5 602.5 C 645 579.5 643.83 559.33 643.5 540.5 C 643.17 521.67 641.33 503.67 639.5 489.5 C 637.67 475.33 640 479.33 632.5 455.5 C 625 431.67 606.5 377.33 594.5 346.5 C 582.5 315.67 572.33 294.83 560.5 270.5 C 548.67 246.17 537.83 222.17 523.5 200.5 C 509.17 178.83 483.33 150.67 474.5 140.5 C 465.67 130.33 467.5 132 470.5 139.5 Z"/>
    <path fill="#009f3a" stroke="#009f3a" d="M 474.5 769.5 C 471.33 763.67 476.17 839.83 478.5 861.5 C 480.83 883.17 485.83 891.83 488.5 899.5 C 491.17 907.17 494.5 908.83 494.5 907.5 C 494.5 906.17 488.33 892.67 488.5 891.5 C 488.67 890.33 494 899.67 495.5 900.5 C 497 901.33 501 918.33 497.5 896.5 C 494 874.67 477.67 775.33 474.5 769.5 Z M 616.5 409.5 C 597 410.17 539.33 441.5 512.5 454.5 C 485.67 467.5 469 474.33 455.5 487.5 C 442 500.67 436.5 526.5 431.5 533.5 C 426.5 540.5 423 522.67 425.5 529.5 C 428 536.33 441 559.67 446.5 574.5 C 452 589.33 455 601.83 458.5 618.5 C 462 635.17 465 649.67 467.5 674.5 C 470 699.33 471.5 757.33 473.5 767.5 C 475.5 777.67 477 744.67 479.5 735.5 C 482 726.33 482.33 721.17 488.5 712.5 C 494.67 703.83 503.83 694.33 516.5 683.5 C 529.17 672.67 544 660 564.5 647.5 C 585 635 626.5 624.33 639.5 608.5 C 652.5 592.67 642.67 571.33 642.5 552.5 C 642.33 533.67 640.67 512.5 638.5 495.5 C 636.33 478.5 633.17 464.83 629.5 450.5 C 625.83 436.17 636 408.83 616.5 409.5 Z"/>
    <path fill="#007a39" stroke="#007a39" d="M 428.5 540.5 C 423.67 549.67 411.67 591.17 407.5 605.5 C 403.33 619.83 404.17 616.17 403.5 626.5 C 402.83 636.83 399.67 647 403.5 667.5 C 407.33 688 414.5 717.5 426.5 749.5 C 438.5 781.5 466.83 841 475.5 859.5 C 484.17 878 479.17 883 478.5 860.5 C 477.83 838 474.17 761.17 471.5 724.5 C 468.83 687.83 466.33 664.5 462.5 640.5 C 458.67 616.5 452.83 595.5 448.5 580.5 C 444.17 565.5 439.83 557.17 436.5 550.5 C 433.17 543.83 433.33 531.33 428.5 540.5 Z M 208.5 263.5 C 208.33 264.67 209.67 269.33 210.5 270.5 C 211.33 271.67 213.33 271.67 213.5 270.5 C 213.67 269.33 212.33 264.67 211.5 263.5 C 210.67 262.33 208.67 262.33 208.5 263.5 Z M 220.5 63.5 C 219.67 63.5 213.83 68.5 213.5 69.5 C 213.17 70.5 217.33 70.5 218.5 69.5 C 219.67 68.5 221.33 63.5 220.5 63.5 Z"/>
    <path fill="#007d38" stroke="#007d38" d="M 115.5 699.5 C 115.83 700.67 129.17 719.83 131.5 722.5 C 133.83 725.17 132.17 719.33 129.5 715.5 C 126.83 711.67 115.17 698.33 115.5 699.5 Z M 456.5 618.5 C 457 622.17 462 643 462.5 643.5 C 463 644 460.5 625.67 459.5 621.5 C 458.5 617.33 456 614.83 456.5 618.5 Z M 417.5 519.5 C 411.17 524.83 394.83 545.67 386.5 558.5 C 378.17 571.33 371.83 585 367.5 596.5 C 363.17 608 361.33 615.33 360.5 627.5 C 359.67 639.67 360.83 656.67 362.5 669.5 C 364.17 682.33 365.33 689.83 370.5 704.5 C 375.67 719.17 384.5 739.5 393.5 757.5 C 402.5 775.5 418.67 803.17 424.5 812.5 C 430.33 821.83 425.67 809.5 428.5 813.5 C 431.33 817.5 432.5 823.33 441.5 836.5 C 450.5 849.67 474.83 882.83 482.5 892.5 C 490.17 902.17 488.5 900.33 487.5 894.5 C 486.5 888.67 478 864.33 476.5 857.5 C 475 850.67 478.67 854.33 478.5 853.5 C 478.33 852.67 476 856.5 475.5 852.5 C 475 848.5 475.67 829.83 475.5 829.5 C 475.33 829.17 482.5 864.17 474.5 850.5 C 466.5 836.83 439.17 778.33 427.5 747.5 C 415.83 716.67 408.33 685.33 404.5 665.5 C 400.67 645.67 401.83 645.33 404.5 628.5 C 407.17 611.67 416.17 578.67 420.5 564.5 C 424.83 550.33 424.67 536.5 430.5 543.5 C 436.33 550.5 454 604.5 455.5 606.5 C 457 608.5 444.67 568.83 439.5 555.5 C 434.33 542.17 428.17 532.5 424.5 526.5 C 420.83 520.5 423.83 514.17 417.5 519.5 Z M 67.5 321.5 C 66.83 321.83 62.67 331 62.5 332.5 C 62.33 334 65.67 332.33 66.5 330.5 C 67.33 328.67 68.17 321.17 67.5 321.5 Z M 232.5 309.5 C 231.67 309.17 232.5 313.33 233.5 314.5 C 234.5 315.67 238.67 317.33 238.5 316.5 C 238.33 315.67 233.33 309.83 232.5 309.5 Z M 100.5 225.5 C 99.83 225.83 96.5 231.67 96.5 232.5 C 96.5 233.33 99.83 231.67 100.5 230.5 C 101.17 229.33 101.17 225.17 100.5 225.5 Z M 210.5 72.5 C 208.33 74.33 195 88.5 194.5 89.5 C 194 90.5 205.33 78 207.5 78.5 C 209.67 79 206.83 92 207.5 92.5 C 208.17 93 211.5 83.83 211.5 81.5 C 211.5 79.17 207.67 80 207.5 78.5 C 207.33 77 212.67 70.67 210.5 72.5 Z"/>
  </g>
</svg>
