<svg xmlns="http://www.w3.org/2000/svg" width="899" height="921" viewBox="0 0 899 921" role="img" aria-labelledby="title desc">
  <title id="title">Nur logo loop frame 078</title>
  <desc id="desc">Vector-traced frame from Nur_Logo_Loop_02.gif.</desc>
  <g id="frame-078" stroke-linejoin="round" stroke-linecap="round" stroke-width="0.5" shape-rendering="geometricPrecision">
    <path fill="#008136" stroke="#008136" d="M 181.5 49.5 C 173.33 57.33 150.67 87.17 134.5 111.5 C 118.33 135.83 97.33 170.17 84.5 195.5 C 71.67 220.83 64.33 243.67 57.5 263.5 C 50.67 283.33 46.33 302.67 43.5 314.5 C 40.67 326.33 40.67 329.33 40.5 334.5 C 40.33 339.67 42.67 343.5 42.5 345.5 C 42.33 347.5 40.83 325.83 39.5 346.5 C 38.17 367.17 33 437.17 34.5 469.5 C 36 501.83 42.33 516.33 48.5 540.5 C 54.67 564.67 63.5 593 71.5 614.5 C 79.5 636 85.17 649.17 96.5 669.5 C 107.83 689.83 124.17 716 139.5 736.5 C 154.83 757 171.67 776 188.5 792.5 C 205.33 809 222.67 823.17 240.5 835.5 C 258.33 847.83 273.83 856.83 295.5 866.5 C 317.17 876.17 345.83 886.67 370.5 893.5 C 395.17 900.33 423 905.17 443.5 907.5 C 464 909.83 486.67 911.5 493.5 907.5 C 500.33 903.5 487.17 894.17 484.5 883.5 C 481.83 872.83 479.17 867 477.5 843.5 C 475.83 820 476.17 772.5 474.5 742.5 C 472.83 712.5 470.5 686.83 467.5 663.5 C 464.5 640.17 459.83 617.67 456.5 602.5 C 453.17 587.33 452 584 447.5 572.5 C 443 561 437.33 547.67 429.5 533.5 C 421.67 519.33 411.33 500.83 400.5 487.5 C 389.67 474.17 378.33 465.33 364.5 453.5 C 350.67 441.67 333.5 430.5 317.5 416.5 C 301.5 402.5 286.17 389.83 268.5 369.5 C 250.83 349.17 225.17 317 211.5 294.5 C 197.83 272 192.33 252.67 186.5 234.5 C 180.67 216.33 178.5 202 176.5 185.5 C 174.5 169 173.33 155.67 174.5 135.5 C 175.67 115.33 182.33 78.83 183.5 64.5 C 184.67 50.17 189.67 41.67 181.5 49.5 Z"/>
    <path fill="#83bb26" stroke="#83bb26" d="M 429.5 519.5 C 429.33 518.83 424.33 521.33 423.5 522.5 C 422.67 523.67 423.5 527 424.5 526.5 C 425.5 526 429.67 520.17 429.5 519.5 Z M 715.5 17.5 C 709.5 13.5 711.5 18.33 714.5 22.5 C 717.5 26.67 727.67 35.17 733.5 42.5 C 739.33 49.83 740.67 50.5 749.5 66.5 C 758.33 82.5 778.67 119.17 786.5 138.5 C 794.33 157.83 795 168 796.5 182.5 C 798 197 798 209.5 795.5 225.5 C 793 241.5 788.67 262.67 781.5 278.5 C 774.33 294.33 765.17 306.17 752.5 320.5 C 739.83 334.83 726.17 349 705.5 364.5 C 684.83 380 639 394.17 628.5 413.5 C 618 432.83 639.67 463 642.5 480.5 C 645.33 498 645 503.83 645.5 518.5 C 646 533.17 646.83 550.83 645.5 568.5 C 644.17 586.17 632.33 618.67 637.5 624.5 C 642.67 630.33 661.33 612.83 676.5 603.5 C 691.67 594.17 712.17 580.5 728.5 568.5 C 744.83 556.5 761.33 543.17 774.5 531.5 C 787.67 519.83 797.67 510 807.5 498.5 C 817.33 487 826 474.17 833.5 462.5 C 841 450.83 846.33 441.67 852.5 428.5 C 858.67 415.33 866 397.83 870.5 383.5 C 875 369.17 877.83 359.17 879.5 342.5 C 881.17 325.83 880.83 297.5 880.5 283.5 C 880.17 269.5 879.5 268.17 877.5 258.5 C 875.5 248.83 874.17 240.33 868.5 225.5 C 862.83 210.67 856.33 192.5 843.5 169.5 C 830.67 146.5 807 108 791.5 87.5 C 776 67 763.17 58.17 750.5 46.5 C 737.83 34.83 721.5 21.5 715.5 17.5 Z"/>
    <path fill="#6ab12d" stroke="#6ab12d" d="M 505.5 129.5 C 494 108.5 501.17 122.33 503.5 133.5 C 505.83 144.67 515.33 175.33 519.5 196.5 C 523.67 217.67 527 241.67 528.5 260.5 C 530 279.33 529.33 295.67 528.5 309.5 C 527.67 323.33 526.17 331.17 523.5 343.5 C 520.83 355.83 516.33 372.33 512.5 383.5 C 508.67 394.67 515.5 386.83 500.5 410.5 C 485.5 434.17 434.67 505.83 422.5 525.5 C 410.33 545.17 424.83 530.67 427.5 528.5 C 430.17 526.33 426.83 521.33 438.5 512.5 C 450.17 503.67 466.17 491.33 497.5 475.5 C 528.83 459.67 602.5 415.67 626.5 417.5 C 650.5 419.33 638.67 460.83 641.5 486.5 C 644.33 512.17 644.67 548.5 643.5 571.5 C 642.33 594.5 646.83 610.5 634.5 624.5 C 622.17 638.5 587.17 646.17 569.5 655.5 C 551.83 664.83 541.5 671.17 528.5 680.5 C 515.5 689.83 499.5 703 491.5 711.5 C 483.5 720 483.33 725.33 480.5 731.5 C 477.67 737.67 475.33 736.67 474.5 748.5 C 473.67 760.33 472.33 776 475.5 802.5 C 478.67 829 490 890 493.5 907.5 C 497 925 485.33 923.17 496.5 907.5 C 507.67 891.83 543.33 841 560.5 813.5 C 577.67 786 587.5 769.67 599.5 742.5 C 611.5 715.33 624.67 679.17 632.5 650.5 C 640.33 621.83 644.67 599.17 646.5 570.5 C 648.33 541.83 648 510.33 643.5 478.5 C 639 446.67 631.33 416 619.5 379.5 C 607.67 343 591.5 301.17 572.5 259.5 C 553.5 217.83 517 150.5 505.5 129.5 Z"/>
    <path fill="#009f3a" stroke="#009f3a" d="M 475.5 801.5 C 472.67 795.17 476.83 846.5 478.5 861.5 C 480.17 876.5 482.83 883.83 485.5 891.5 C 488.17 899.17 492.83 906.17 494.5 907.5 C 496.17 908.83 498.67 917.17 495.5 899.5 C 492.33 881.83 478.33 807.83 475.5 801.5 Z M 627.5 415.5 C 603.67 418 527.33 458.5 495.5 474.5 C 463.67 490.5 448.17 502.67 436.5 511.5 C 424.83 520.33 427.83 525.33 425.5 527.5 C 423.17 529.67 419 516.67 422.5 524.5 C 426 532.33 440.17 557.17 446.5 574.5 C 452.83 591.83 456.67 608.5 460.5 628.5 C 464.33 648.5 467.17 666.5 469.5 694.5 C 471.83 722.5 473.5 787.17 474.5 796.5 C 475.5 805.83 472.5 764.33 475.5 750.5 C 478.5 736.67 485 723.83 492.5 713.5 C 500 703.17 510 696.5 520.5 688.5 C 531 680.5 536 676.33 555.5 665.5 C 575 654.67 622.67 638.83 637.5 623.5 C 652.33 608.17 643.33 592.17 644.5 573.5 C 645.67 554.83 645.5 530.5 644.5 511.5 C 643.5 492.5 641.33 475.5 638.5 459.5 C 635.67 443.5 651.33 413 627.5 415.5 Z"/>
    <path fill="#007a39" stroke="#007a39" d="M 424.5 532.5 C 419.67 536.17 412.17 558.83 407.5 572.5 C 402.83 586.17 398.83 603.67 396.5 614.5 C 394.17 625.33 393.5 626.83 393.5 637.5 C 393.5 648.17 391.67 658.67 396.5 678.5 C 401.33 698.33 408.83 723.67 422.5 756.5 C 436.17 789.33 468.67 855.5 478.5 875.5 C 488.33 895.5 482 882 481.5 876.5 C 481 871 477.17 867.83 475.5 842.5 C 473.83 817.17 473.67 758.17 471.5 724.5 C 469.33 690.83 466.33 664.5 462.5 640.5 C 458.67 616.5 452.83 595.5 448.5 580.5 C 444.17 565.5 440.5 558.5 436.5 550.5 C 432.5 542.5 429.33 528.83 424.5 532.5 Z M 315.5 414.5 C 314.67 414.33 318.83 421 320.5 422.5 C 322.17 424 326.33 424.83 325.5 423.5 C 324.67 422.17 316.33 414.67 315.5 414.5 Z"/>
    <path fill="#007d38" stroke="#007d38" d="M 470.5 773.5 C 470.5 778.17 474.67 820.67 475.5 824.5 C 476.33 828.33 476.33 805 475.5 796.5 C 474.67 788 470.5 768.83 470.5 773.5 Z M 115.5 699.5 C 115.83 700.67 129.17 719.83 131.5 722.5 C 133.83 725.17 132.17 719.33 129.5 715.5 C 126.83 711.67 115.17 698.33 115.5 699.5 Z M 53.5 556.5 C 53.5 557.33 56.83 563.17 57.5 563.5 C 58.17 563.83 58.17 559.67 57.5 558.5 C 56.83 557.33 53.5 555.67 53.5 556.5 Z M 413.5 510.5 C 413 511 425.5 515.67 420.5 525.5 C 415.5 535.33 392.33 556.17 383.5 569.5 C 374.67 582.83 371 594.67 367.5 605.5 C 364 616.33 362.5 620 362.5 634.5 C 362.5 649 364.33 675.5 367.5 692.5 C 370.67 709.5 372.83 717.33 381.5 736.5 C 390.17 755.67 401.33 779.67 419.5 807.5 C 437.67 835.33 480 891 490.5 903.5 C 501 916 484.33 889.5 482.5 882.5 C 480.67 875.5 480.5 864.67 479.5 861.5 C 478.5 858.33 485.83 881.33 476.5 863.5 C 467.17 845.67 436.67 785.67 423.5 754.5 C 410.33 723.33 402.33 692.83 397.5 676.5 C 392.67 660.17 394.5 666.5 394.5 656.5 C 394.5 646.5 395.17 630.17 397.5 616.5 C 399.83 602.83 403.83 588.17 408.5 574.5 C 413.17 560.83 418.83 533.33 425.5 534.5 C 432.17 535.67 448.83 583.5 448.5 581.5 C 448.17 579.5 429.33 534.33 423.5 522.5 C 417.67 510.67 414 510 413.5 510.5 Z M 35.5 473.5 C 35.5 474.5 38.83 481.17 39.5 481.5 C 40.17 481.83 40.17 476.83 39.5 475.5 C 38.83 474.17 35.5 472.5 35.5 473.5 Z M 251.5 351.5 C 250.33 351 252 355.17 253.5 356.5 C 255 357.83 260.83 360.33 260.5 359.5 C 260.17 358.67 252.67 352 251.5 351.5 Z M 40.5 339.5 C 40 340.83 40 347 40.5 348.5 C 41 350 43 349.83 43.5 348.5 C 44 347.17 44 342 43.5 340.5 C 43 339 41 338.17 40.5 339.5 Z M 189.5 244.5 C 188.83 244.33 188.83 249.33 189.5 250.5 C 190.17 251.67 193.5 252.5 193.5 251.5 C 193.5 250.5 190.17 244.67 189.5 244.5 Z M 180.5 215.5 C 179.83 214.83 179 219 179.5 220.5 C 180 222 183.33 225.33 183.5 224.5 C 183.67 223.67 181.17 216.17 180.5 215.5 Z M 88.5 194.5 C 89.17 192.83 85 195.33 83.5 197.5 C 82 199.67 78.67 208 79.5 207.5 C 80.33 207 87.83 196.17 88.5 194.5 Z"/>
  </g>
</svg>
