<svg xmlns="http://www.w3.org/2000/svg" width="899" height="921" viewBox="0 0 899 921" role="img" aria-labelledby="title desc">
  <title id="title">Nur logo loop frame 016</title>
  <desc id="desc">Vector-traced frame from Nur_Logo_Loop_02.gif.</desc>
  <g id="frame-016" stroke-linejoin="round" stroke-linecap="round" stroke-width="0.5" shape-rendering="geometricPrecision">
    <path fill="#008136" stroke="#008136" d="M 228.5 76.5 C 220.17 82.67 194.83 100.67 181.5 113.5 C 168.17 126.33 161.83 133.67 148.5 153.5 C 135.17 173.33 113.5 207.83 101.5 232.5 C 89.5 257.17 83.33 276.33 76.5 301.5 C 69.67 326.67 64 355.33 60.5 383.5 C 57 411.67 54.83 443.17 55.5 470.5 C 56.17 497.83 60.33 523.33 64.5 547.5 C 68.67 571.67 77.33 604 80.5 615.5 C 83.67 627 82.67 614.33 83.5 616.5 C 84.33 618.67 81.83 619.17 85.5 628.5 C 89.17 637.83 96.17 655.17 105.5 672.5 C 114.83 689.83 129.17 714.5 141.5 732.5 C 153.83 750.5 168.5 767.83 179.5 780.5 C 190.5 793.17 197 799.17 207.5 808.5 C 218 817.83 227.83 826.83 242.5 836.5 C 257.17 846.17 274.17 857 295.5 866.5 C 316.83 876 345.83 886.67 370.5 893.5 C 395.17 900.33 423 905.17 443.5 907.5 C 464 909.83 486.67 911.67 493.5 907.5 C 500.33 903.33 487.17 893.17 484.5 882.5 C 481.83 871.83 479.17 866.33 477.5 843.5 C 475.83 820.67 476.17 775.5 474.5 745.5 C 472.83 715.5 470.5 687.33 467.5 663.5 C 464.5 639.67 460.83 620.17 456.5 602.5 C 452.17 584.83 448.17 572.67 441.5 557.5 C 434.83 542.33 425 525.17 416.5 511.5 C 408 497.83 407.83 493.5 390.5 475.5 C 373.17 457.5 334.33 425.17 312.5 403.5 C 290.67 381.83 273.67 363.67 259.5 345.5 C 245.33 327.33 235.33 310.33 227.5 294.5 C 219.67 278.67 215.5 258 212.5 250.5 C 209.5 243 209.83 250.83 209.5 249.5 C 209.17 248.17 211.67 248.17 210.5 242.5 C 209.33 236.83 203.33 228.5 202.5 215.5 C 201.67 202.5 204 179 205.5 164.5 C 207 150 210.83 135 211.5 128.5 C 212.17 122 209.33 126.17 209.5 125.5 C 209.67 124.83 210.5 129.33 212.5 124.5 C 214.5 119.67 218.33 103.83 221.5 96.5 C 224.67 89.17 229.83 83.83 231.5 80.5 C 233.17 77.17 232 77.17 231.5 76.5 C 231 75.83 236.83 70.33 228.5 76.5 Z"/>
    <path fill="#83bb26" stroke="#83bb26" d="M 454.5 481.5 C 453 478.67 422.17 504.5 417.5 512.5 C 412.83 520.5 420.33 534.67 426.5 529.5 C 432.67 524.33 456 484.33 454.5 481.5 Z M 620.5 44.5 C 616.17 44 610 41.5 621.5 48.5 C 633 55.5 671.33 74 689.5 86.5 C 707.67 99 719.33 109.5 730.5 123.5 C 741.67 137.5 750.5 155 756.5 170.5 C 762.5 186 765 203.83 766.5 216.5 C 768 229.17 766.83 237.17 765.5 246.5 C 764.17 255.83 761.17 265 758.5 272.5 C 755.83 280 753.5 285 749.5 291.5 C 745.5 298 740.33 304.67 734.5 311.5 C 728.67 318.33 723.83 324.17 714.5 332.5 C 705.17 340.83 696 349.83 678.5 361.5 C 661 373.17 618.83 389.67 609.5 402.5 C 600.17 415.33 618.17 423.5 622.5 438.5 C 626.83 453.5 632.5 475.17 635.5 492.5 C 638.5 509.83 640.17 524.5 640.5 542.5 C 640.83 560.5 629.67 595.33 637.5 600.5 C 645.33 605.67 669.5 585 687.5 573.5 C 705.5 562 729.83 544 745.5 531.5 C 761.17 519 771.33 509.17 781.5 498.5 C 791.67 487.83 797.67 480.83 806.5 467.5 C 815.33 454.17 827.17 434.17 834.5 418.5 C 841.83 402.83 846.83 387.17 850.5 373.5 C 854.17 359.83 855.33 352.33 856.5 336.5 C 857.67 320.67 858.5 294.83 857.5 278.5 C 856.5 262.17 855 252.83 850.5 238.5 C 846 224.17 838.33 206.5 830.5 192.5 C 822.67 178.5 814.67 168 803.5 154.5 C 792.33 141 775.17 122.17 763.5 111.5 C 751.83 100.83 744.33 97 733.5 90.5 C 722.67 84 712.83 79 698.5 72.5 C 684.17 66 660.5 56.17 647.5 51.5 C 634.5 46.83 624.83 45 620.5 44.5 Z"/>
    <path fill="#6ab12d" stroke="#6ab12d" d="M 460.5 150.5 C 455.83 149.67 482 180.33 489.5 195.5 C 497 210.67 502 224.83 505.5 241.5 C 509 258.17 510.17 276.83 510.5 295.5 C 510.83 314.17 509.5 336.33 507.5 353.5 C 505.5 370.67 511.67 369.83 498.5 398.5 C 485.33 427.17 441.83 506.33 428.5 525.5 C 415.17 544.67 420.5 515 418.5 513.5 C 416.5 512 415.5 513.83 416.5 516.5 C 417.5 519.17 422.33 527 424.5 529.5 C 426.67 532 424.83 538.5 429.5 531.5 C 434.17 524.5 440.17 500.17 452.5 487.5 C 464.83 474.83 477.17 468.67 503.5 455.5 C 529.83 442.33 589 403.83 610.5 408.5 C 632 413.17 627.67 459 632.5 483.5 C 637.33 508 639 535.5 639.5 555.5 C 640 575.5 646 590.67 635.5 603.5 C 625 616.33 591.5 624.33 576.5 632.5 C 561.5 640.67 556 644.83 545.5 652.5 C 535 660.17 523.17 669.67 513.5 678.5 C 503.83 687.33 493.33 698.67 487.5 705.5 C 481.67 712.33 480.83 713.83 478.5 719.5 C 476.17 725.17 473.83 723.33 473.5 739.5 C 473.17 755.67 473.17 788.33 476.5 816.5 C 479.83 844.67 490.17 893.17 493.5 908.5 C 496.83 923.83 482.67 928.67 496.5 908.5 C 510.33 888.33 558.67 817 576.5 787.5 C 594.33 758 595.5 751.83 603.5 731.5 C 611.5 711.17 618.5 687.83 624.5 665.5 C 630.5 643.17 636.67 618.33 639.5 597.5 C 642.33 576.67 642.33 560.33 641.5 540.5 C 640.67 520.67 637.5 495.83 634.5 478.5 C 631.5 461.17 635 468.17 623.5 436.5 C 612 404.83 583.17 327.83 565.5 288.5 C 547.83 249.17 535 223.5 517.5 200.5 C 500 177.5 465.17 151.33 460.5 150.5 Z"/>
    <path fill="#009f3a" stroke="#009f3a" d="M 475.5 802.5 C 472.83 794.83 476.83 846.67 478.5 861.5 C 480.17 876.33 482.83 883.83 485.5 891.5 C 488.17 899.17 496.17 922.33 494.5 907.5 C 492.83 892.67 478.17 810.17 475.5 802.5 Z M 472.5 750.5 C 472.17 757 472.83 785.67 473.5 793.5 C 474.17 801.33 476.17 804 476.5 797.5 C 476.83 791 476.17 762.33 475.5 754.5 C 474.83 746.67 472.83 744 472.5 750.5 Z M 611.5 406.5 C 590.67 406.83 528.17 441.33 501.5 454.5 C 474.83 467.67 464 472.83 451.5 485.5 C 439 498.17 427.33 515.67 426.5 530.5 C 425.67 545.33 441.17 559.83 446.5 574.5 C 451.83 589.17 455 601.83 458.5 618.5 C 462 635.17 465.17 652.83 467.5 674.5 C 469.83 696.17 469.67 742.17 472.5 748.5 C 475.33 754.83 476 725.17 484.5 712.5 C 493 699.83 507.83 685.67 523.5 672.5 C 539.17 659.33 559.67 644.67 578.5 633.5 C 597.33 622.33 626.17 618.83 636.5 605.5 C 646.83 592.17 640.67 572 640.5 553.5 C 640.33 535 637.83 511.33 635.5 494.5 C 633.17 477.67 630.5 467.17 626.5 452.5 C 622.5 437.83 632.33 406.17 611.5 406.5 Z"/>
    <path fill="#007a39" stroke="#007a39" d="M 425.5 534.5 C 422 535.67 419.67 544.83 415.5 557.5 C 411.33 570.17 403.67 595.67 400.5 610.5 C 397.33 625.33 396.5 634.33 396.5 646.5 C 396.5 658.67 396.17 665.33 400.5 683.5 C 404.83 701.67 410.67 725.33 422.5 755.5 C 434.33 785.67 461.5 843.33 471.5 864.5 C 481.5 885.67 481.83 886.17 482.5 882.5 C 483.17 878.83 477.33 868.83 475.5 842.5 C 473.67 816.17 473.67 758.17 471.5 724.5 C 469.33 690.83 466.33 664.5 462.5 640.5 C 458.67 616.5 452.83 595.5 448.5 580.5 C 444.17 565.5 440.33 558.17 436.5 550.5 C 432.67 542.83 429 533.33 425.5 534.5 Z"/>
    <path fill="#007d38" stroke="#007d38" d="M 218.5 815.5 C 219.17 816.67 231.67 827.5 233.5 828.5 C 235.33 829.5 232 823.67 229.5 821.5 C 227 819.33 217.83 814.33 218.5 815.5 Z M 202.5 801.5 C 201.83 801.5 206.83 808.17 208.5 809.5 C 210.17 810.83 213.5 810.83 212.5 809.5 C 211.5 808.17 203.17 801.5 202.5 801.5 Z M 470.5 773.5 C 470.5 777.83 474.67 820.33 475.5 824.5 C 476.33 828.67 476.33 807 475.5 798.5 C 474.67 790 470.5 769.17 470.5 773.5 Z M 132.5 715.5 C 132.5 716.17 137.5 723.67 138.5 724.5 C 139.5 725.33 139.5 722 138.5 720.5 C 137.5 719 132.5 714.83 132.5 715.5 Z M 99.5 657.5 C 98.83 657.17 102.17 665.5 103.5 667.5 C 104.83 669.5 108.17 671.17 107.5 669.5 C 106.83 667.83 100.17 657.83 99.5 657.5 Z M 415.5 517.5 C 410.67 522.33 398.5 535.33 390.5 547.5 C 382.5 559.67 372.83 578 367.5 590.5 C 362.17 603 360 609.5 358.5 622.5 C 357 635.5 357 654.67 358.5 668.5 C 360 682.33 362.17 690.17 367.5 705.5 C 372.83 720.83 381.5 743.17 390.5 760.5 C 399.5 777.83 416.5 800.83 421.5 809.5 C 426.5 818.17 413.67 802.17 420.5 812.5 C 427.33 822.83 450.67 856 462.5 871.5 C 474.33 887 488.67 907.17 491.5 905.5 C 494.33 903.83 482 867.83 479.5 861.5 C 477 855.17 485.83 885.5 476.5 867.5 C 467.17 849.5 436 784.5 423.5 753.5 C 411 722.5 405.83 698.83 401.5 681.5 C 397.17 664.17 397.5 661 397.5 649.5 C 397.5 638 398.33 627.5 401.5 612.5 C 404.67 597.5 412.17 571.83 416.5 559.5 C 420.83 547.17 422.17 534.83 427.5 538.5 C 432.83 542.17 448 581.67 448.5 581.5 C 449 581.33 435.33 548 430.5 537.5 C 425.67 527 422 521.83 419.5 518.5 C 417 515.17 420.33 512.67 415.5 517.5 Z M 226.5 291.5 C 225.83 291 225.83 295.17 226.5 296.5 C 227.17 297.83 230.5 300.33 230.5 299.5 C 230.5 298.67 227.17 292 226.5 291.5 Z M 208.5 246.5 C 208.67 248 212 255.5 212.5 255.5 C 213 255.5 212.17 248 211.5 246.5 C 210.83 245 208.33 245 208.5 246.5 Z M 113.5 212.5 C 112.83 212.83 108.67 219.5 108.5 220.5 C 108.33 221.5 111.67 219.83 112.5 218.5 C 113.33 217.17 114.17 212.17 113.5 212.5 Z"/>
  </g>
</svg>
