<svg xmlns="http://www.w3.org/2000/svg" width="899" height="921" viewBox="0 0 899 921" role="img" aria-labelledby="title desc">
  <title id="title">Nur logo loop frame 095</title>
  <desc id="desc">Vector-traced frame from Nur_Logo_Loop_02.gif.</desc>
  <g id="frame-095" stroke-linejoin="round" stroke-linecap="round" stroke-width="0.5" shape-rendering="geometricPrecision">
    <path fill="#008136" stroke="#008136" d="M 218.5 65.5 C 209.17 74.17 176.17 107.5 164.5 120.5 C 152.83 133.5 159.83 125 148.5 143.5 C 137.17 162 108.67 207.5 96.5 231.5 C 84.33 255.5 78.83 277.33 75.5 287.5 C 72.17 297.67 76.83 291.5 76.5 292.5 C 76.17 293.5 73.83 292.33 73.5 293.5 C 73.17 294.67 74.83 298.33 74.5 299.5 C 74.17 300.67 74.67 285.83 71.5 300.5 C 68.33 315.17 57.67 372.5 55.5 387.5 C 53.33 402.5 58.5 389.83 58.5 390.5 C 58.5 391.17 56.67 378.33 55.5 391.5 C 54.33 404.67 50.67 444 51.5 469.5 C 52.33 495 56.5 521.33 60.5 544.5 C 64.5 567.67 68.83 588 75.5 608.5 C 82.17 629 89.17 646 100.5 667.5 C 111.83 689 130.17 718.33 143.5 737.5 C 156.83 756.67 164.5 766.33 180.5 782.5 C 196.5 798.67 220.33 820.5 239.5 834.5 C 258.67 848.5 276 857.33 295.5 866.5 C 315 875.67 334.5 883 356.5 889.5 C 378.5 896 404.83 902.5 427.5 905.5 C 450.17 908.5 484.17 917.83 492.5 907.5 C 500.83 897.17 480.5 870.83 477.5 843.5 C 474.5 816.17 476.17 773.5 474.5 743.5 C 472.83 713.5 470.5 687 467.5 663.5 C 464.5 640 460.83 620.17 456.5 602.5 C 452.17 584.83 447.83 572.17 441.5 557.5 C 435.17 542.83 427 528.17 418.5 514.5 C 410 500.83 408.17 494 390.5 475.5 C 372.83 457 334.5 425.33 312.5 403.5 C 290.5 381.67 272.33 361.33 258.5 344.5 C 244.67 327.67 237.17 315.83 229.5 302.5 C 221.83 289.17 215.83 271 212.5 264.5 C 209.17 258 209.83 264.5 209.5 263.5 C 209.17 262.5 212.83 267.67 210.5 258.5 C 208.17 249.33 198 224.33 195.5 208.5 C 193 192.67 194.33 179.17 195.5 163.5 C 196.67 147.83 201.67 123.17 202.5 114.5 C 203.33 105.83 200.33 112.17 200.5 111.5 C 200.67 110.83 201.67 115.33 203.5 110.5 C 205.33 105.67 208.67 89.5 211.5 82.5 C 214.33 75.5 219.33 71.33 220.5 68.5 C 221.67 65.67 227.83 56.83 218.5 65.5 Z"/>
    <path fill="#83bb26" stroke="#83bb26" d="M 450.5 488.5 C 449.17 485.83 423.33 507.5 419.5 514.5 C 415.67 521.5 422.33 534.83 427.5 530.5 C 432.67 526.17 451.83 491.17 450.5 488.5 Z M 635.5 42.5 C 635.33 44.33 637.17 48.17 648.5 56.5 C 659.83 64.83 689.83 82 703.5 92.5 C 717.17 103 720.67 105.67 730.5 119.5 C 740.33 133.33 755.17 158.5 762.5 175.5 C 769.83 192.5 772.83 209.17 774.5 221.5 C 776.17 233.83 775 238.83 772.5 249.5 C 770 260.17 764.83 275 759.5 285.5 C 754.17 296 753.17 299.5 740.5 312.5 C 727.83 325.5 704.5 348 683.5 363.5 C 662.5 379 622.33 384.17 614.5 405.5 C 606.67 426.83 632 465.33 636.5 491.5 C 641 517.67 640.83 543.33 641.5 562.5 C 642.17 581.67 631.33 604.67 640.5 606.5 C 649.67 608.33 679.67 584.5 696.5 573.5 C 713.33 562.5 726.17 553.17 741.5 540.5 C 756.83 527.83 776.67 509.67 788.5 497.5 C 800.33 485.33 803.67 480.83 812.5 467.5 C 821.33 454.17 834 433.17 841.5 417.5 C 849 401.83 853.83 386.33 857.5 373.5 C 861.17 360.67 862.33 355.5 863.5 340.5 C 864.67 325.5 865.5 299.83 864.5 283.5 C 863.5 267.17 861.5 256.33 857.5 242.5 C 853.5 228.67 847 213 840.5 200.5 C 834 188 828.67 180.5 818.5 167.5 C 808.33 154.5 789.5 133 779.5 122.5 C 769.5 112 770.33 112.5 758.5 104.5 C 746.67 96.5 726.67 84.33 708.5 74.5 C 690.33 64.67 661.67 50.83 649.5 45.5 C 637.33 40.17 635.67 40.67 635.5 42.5 Z"/>
    <path fill="#6ab12d" stroke="#6ab12d" d="M 468.5 139.5 C 463.5 137.67 486 171.67 492.5 188.5 C 499 205.33 504.33 225.83 507.5 240.5 C 510.67 255.17 511.33 258.83 511.5 276.5 C 511.67 294.17 510.67 326.83 508.5 346.5 C 506.33 366.17 511.67 364.5 498.5 394.5 C 485.33 424.5 441.5 504.5 429.5 526.5 C 417.5 548.5 428 528.33 426.5 526.5 C 425 524.67 422 517 420.5 515.5 C 419 514 416.5 514.67 417.5 517.5 C 418.5 520.33 424.33 529.83 426.5 532.5 C 428.67 535.17 426.5 539.67 430.5 533.5 C 434.5 527.33 445.17 503.67 450.5 495.5 C 455.83 487.33 453.33 490.5 462.5 484.5 C 471.67 478.5 480.67 471.5 505.5 459.5 C 530.33 447.5 590.33 408.83 611.5 412.5 C 632.67 416.17 627.83 457.17 632.5 481.5 C 637.17 505.83 638.83 537.5 639.5 558.5 C 640.17 579.5 646.33 594.67 636.5 607.5 C 626.67 620.33 595.67 627.17 580.5 635.5 C 565.33 643.83 556.17 650 545.5 657.5 C 534.83 665 526.83 670.5 516.5 680.5 C 506.17 690.5 490.5 704.83 483.5 717.5 C 476.5 730.17 475.83 744.83 474.5 756.5 C 473.17 768.17 471.83 763 475.5 787.5 C 479.17 812 492.5 884.17 496.5 903.5 C 500.5 922.83 488 919.83 499.5 903.5 C 511 887.17 548.67 832.83 565.5 805.5 C 582.33 778.17 591.5 759.17 600.5 739.5 C 609.5 719.83 614 704.67 619.5 687.5 C 625 670.33 630 651.17 633.5 636.5 C 637 621.83 639 612.83 640.5 599.5 C 642 586.17 643.67 578.83 642.5 556.5 C 641.33 534.17 637.33 489 633.5 465.5 C 629.67 442 625.67 434.33 619.5 415.5 C 613.33 396.67 605.5 374.83 596.5 352.5 C 587.5 330.17 577.83 307 565.5 281.5 C 553.17 256 538.67 223.17 522.5 199.5 C 506.33 175.83 473.5 141.33 468.5 139.5 Z"/>
    <path fill="#009f3a" stroke="#009f3a" d="M 474.5 772.5 C 471.17 765.67 476 839.33 478.5 861.5 C 481 883.67 486.83 897.83 489.5 905.5 C 492.17 913.17 493 908 494.5 907.5 C 496 907 501.83 925 498.5 902.5 C 495.17 880 477.83 779.33 474.5 772.5 Z M 613.5 410.5 C 591.5 405.17 526.67 447.83 503.5 458.5 C 480.33 469.17 483.17 469.17 474.5 474.5 C 465.83 479.83 459.17 480.83 451.5 490.5 C 443.83 500.17 432.83 526 428.5 532.5 C 424.17 539 422.5 522.5 425.5 529.5 C 428.5 536.5 441 559.67 446.5 574.5 C 452 589.33 455 601.83 458.5 618.5 C 462 635.17 465 649.5 467.5 674.5 C 470 699.5 471.5 758.5 473.5 768.5 C 475.5 778.5 477.33 743.33 479.5 734.5 C 481.67 725.67 480 724.33 486.5 715.5 C 493 706.67 505.33 693 518.5 681.5 C 531.67 670 545.67 658.5 565.5 646.5 C 585.33 634.5 625 624.5 637.5 609.5 C 650 594.5 640.83 576.33 640.5 556.5 C 640.17 536.67 640 514.83 635.5 490.5 C 631 466.17 635.5 415.83 613.5 410.5 Z"/>
    <path fill="#007a39" stroke="#007a39" d="M 425.5 533.5 C 421.17 536.67 415.33 554.5 410.5 569.5 C 405.67 584.5 398.83 605.17 396.5 623.5 C 394.17 641.83 392.67 657.83 396.5 679.5 C 400.33 701.17 404.83 718.67 419.5 753.5 C 434.17 788.33 475.17 873.67 484.5 888.5 C 493.83 903.33 477.67 869.83 475.5 842.5 C 473.33 815.17 473.67 758.17 471.5 724.5 C 469.33 690.83 466.33 664.5 462.5 640.5 C 458.67 616.5 452.83 595.5 448.5 580.5 C 444.17 565.5 440.33 558.33 436.5 550.5 C 432.67 542.67 429.83 530.33 425.5 533.5 Z M 75.5 297.5 C 75.67 296.17 73.17 297 72.5 298.5 C 71.83 300 71 306.67 71.5 306.5 C 72 306.33 75.33 298.83 75.5 297.5 Z M 207.5 256.5 C 207 256.5 207.83 264 208.5 265.5 C 209.17 267 211.67 267 211.5 265.5 C 211.33 264 208 256.5 207.5 256.5 Z M 147.5 148.5 C 147 148.5 142.83 154.33 142.5 155.5 C 142.17 156.67 144.67 156.67 145.5 155.5 C 146.33 154.33 148 148.5 147.5 148.5 Z"/>
    <path fill="#007d38" stroke="#007d38" d="M 473.5 829.5 C 473.67 832.5 477 850.83 477.5 851.5 C 478 852.17 477.17 837.17 476.5 833.5 C 475.83 829.83 473.33 826.5 473.5 829.5 Z M 85.5 631.5 C 85.5 632.5 90.5 643.33 91.5 644.5 C 92.5 645.67 92.5 640.67 91.5 638.5 C 90.5 636.33 85.5 630.5 85.5 631.5 Z M 456.5 618.5 C 457 622.17 462 643 462.5 643.5 C 463 644 460.5 625.67 459.5 621.5 C 458.5 617.33 456 614.83 456.5 618.5 Z M 74.5 601.5 C 74 602.5 75.5 609.5 76.5 611.5 C 77.5 613.5 80 614.5 80.5 613.5 C 81 612.5 80.5 607.5 79.5 605.5 C 78.5 603.5 75 600.5 74.5 601.5 Z M 417.5 519.5 C 410.67 523.5 395.5 544.67 387.5 556.5 C 379.5 568.33 374 578.83 369.5 590.5 C 365 602.17 361.67 612.83 360.5 626.5 C 359.33 640.17 359.83 656.83 362.5 672.5 C 365.17 688.17 370 703.83 376.5 720.5 C 383 737.17 391.67 754.5 401.5 772.5 C 411.33 790.5 423 809.83 435.5 828.5 C 448 847.17 468.17 874 476.5 884.5 C 484.83 895 485 895.33 485.5 891.5 C 486 887.67 481 865.17 479.5 861.5 C 478 857.83 486.33 887.83 476.5 869.5 C 466.67 851.17 433.67 783.5 420.5 751.5 C 407.33 719.5 401.33 698.5 397.5 677.5 C 393.67 656.5 395.17 643.17 397.5 625.5 C 399.83 607.83 406.67 586 411.5 571.5 C 416.33 557 421.5 539.33 426.5 538.5 C 431.5 537.67 436.67 555.17 441.5 566.5 C 446.33 577.83 455.83 608.33 455.5 606.5 C 455.17 604.67 444 567.83 439.5 555.5 C 435 543.17 432.17 538.5 428.5 532.5 C 424.83 526.5 424.33 515.5 417.5 519.5 Z M 123.5 189.5 C 124.5 187.5 121.17 188.33 119.5 190.5 C 117.83 192.67 112.83 202.67 113.5 202.5 C 114.17 202.33 122.5 191.5 123.5 189.5 Z M 147.5 149.5 C 146.67 150 140.83 158.33 140.5 159.5 C 140.17 160.67 144.33 158.17 145.5 156.5 C 146.67 154.83 148.33 149 147.5 149.5 Z M 215.5 74.5 C 215.67 73.33 211.5 77.5 210.5 79.5 C 209.5 81.5 208.67 87.33 209.5 86.5 C 210.33 85.67 215.33 75.67 215.5 74.5 Z"/>
  </g>
</svg>
