<svg xmlns="http://www.w3.org/2000/svg" width="899" height="921" viewBox="0 0 899 921" role="img" aria-labelledby="title desc">
  <title id="title">Nur logo loop frame 052</title>
  <desc id="desc">Vector-traced frame from Nur_Logo_Loop_02.gif.</desc>
  <g id="frame-052" stroke-linejoin="round" stroke-linecap="round" stroke-width="0.5" shape-rendering="geometricPrecision">
    <path fill="#008136" stroke="#008136" d="M 213.5 56.5 C 204.33 66.33 178.5 94.33 160.5 119.5 C 142.5 144.67 117.33 187.33 105.5 207.5 C 93.67 227.67 95.17 226.67 89.5 240.5 C 83.83 254.33 74.83 279.5 71.5 290.5 C 68.17 301.5 70.33 303.67 69.5 306.5 C 68.67 309.33 70 291.83 66.5 307.5 C 63 323.17 52.17 374.17 48.5 400.5 C 44.83 426.83 43.67 442.17 44.5 465.5 C 45.33 488.83 49 515.67 53.5 540.5 C 58 565.33 64.33 593 71.5 614.5 C 78.67 636 85.17 649.17 96.5 669.5 C 107.83 689.83 124.17 716 139.5 736.5 C 154.83 757 171.67 776 188.5 792.5 C 205.33 809 222.67 823.17 240.5 835.5 C 258.33 847.83 273.83 856.83 295.5 866.5 C 317.17 876.17 345.83 886.67 370.5 893.5 C 395.17 900.33 423 905.17 443.5 907.5 C 464 909.83 486.67 911.67 493.5 907.5 C 500.33 903.33 487.17 893.17 484.5 882.5 C 481.83 871.83 479.17 866.67 477.5 843.5 C 475.83 820.33 476.17 773.5 474.5 743.5 C 472.83 713.5 470.5 687 467.5 663.5 C 464.5 640 460.83 620.17 456.5 602.5 C 452.17 584.83 447.83 572.17 441.5 557.5 C 435.17 542.83 427 528.17 418.5 514.5 C 410 500.83 408.17 494 390.5 475.5 C 372.83 457 335.33 426.33 312.5 403.5 C 289.67 380.67 269.17 357.83 253.5 338.5 C 237.83 319.17 225.33 299.17 218.5 287.5 C 211.67 275.83 214 271.83 212.5 268.5 C 211 265.17 211 272 209.5 267.5 C 208 263 205 246 203.5 241.5 C 202 237 202.17 246.67 200.5 240.5 C 198.83 234.33 194.83 220 193.5 204.5 C 192.17 189 191.67 164.83 192.5 147.5 C 193.33 130.17 197 108.5 198.5 100.5 C 200 92.5 198.67 106.17 201.5 99.5 C 204.33 92.83 213.5 67.67 215.5 60.5 C 217.5 53.33 222.67 46.67 213.5 56.5 Z"/>
    <path fill="#83bb26" stroke="#83bb26" d="M 446.5 494.5 C 445.33 491.83 425 510.5 420.5 514.5 C 416 518.5 418.33 515.83 419.5 518.5 C 420.67 521.17 423 534.5 427.5 530.5 C 432 526.5 447.67 497.17 446.5 494.5 Z M 648.5 35.5 C 639 31.33 642.67 34.67 649.5 40.5 C 656.33 46.33 677.67 60.67 689.5 70.5 C 701.33 80.33 711.5 89.5 720.5 99.5 C 729.5 109.5 734.83 115.17 743.5 130.5 C 752.17 145.83 766.83 174 772.5 191.5 C 778.17 209 778.5 221.17 777.5 235.5 C 776.5 249.83 773.33 263.33 766.5 277.5 C 759.67 291.67 749.67 306.17 736.5 320.5 C 723.33 334.83 707.33 349 687.5 363.5 C 667.67 378 626.83 393.17 617.5 407.5 C 608.17 421.83 627.67 435.5 631.5 449.5 C 635.33 463.5 638.33 474.5 640.5 491.5 C 642.67 508.5 644.5 532.17 644.5 551.5 C 644.5 570.83 633.67 602.17 640.5 607.5 C 647.33 612.83 671 592.33 685.5 583.5 C 700 574.67 712 566.5 727.5 554.5 C 743 542.5 765.5 523.67 778.5 511.5 C 791.5 499.33 796.5 493.33 805.5 481.5 C 814.5 469.67 824.67 454.5 832.5 440.5 C 840.33 426.5 847.17 412.17 852.5 397.5 C 857.83 382.83 862 367.33 864.5 352.5 C 867 337.67 867.5 323.5 867.5 308.5 C 867.5 293.5 866.67 276.17 864.5 262.5 C 862.33 248.83 858.67 237.83 854.5 226.5 C 850.33 215.17 845.67 205.17 839.5 194.5 C 833.33 183.83 829.67 177.33 817.5 162.5 C 805.33 147.67 785 121.67 766.5 105.5 C 748 89.33 726.17 77.17 706.5 65.5 C 686.83 53.83 658 39.67 648.5 35.5 Z"/>
    <path fill="#6ab12d" stroke="#6ab12d" d="M 639.5 611.5 C 632.17 606.33 598.67 629 582.5 637.5 C 566.33 646 555 653.67 542.5 662.5 C 530 671.33 516.17 683 507.5 690.5 C 498.83 698 494.5 702.67 490.5 707.5 C 486.5 712.33 485.83 713.17 483.5 719.5 C 481.17 725.83 477.83 735.17 476.5 745.5 C 475.17 755.83 472.5 757 475.5 781.5 C 478.5 806 492.67 876.17 494.5 892.5 C 496.33 908.83 488.33 881.17 486.5 879.5 C 484.67 877.83 482.33 877.83 483.5 882.5 C 484.67 887.17 490.33 904.67 493.5 907.5 C 496.67 910.33 494.67 910 502.5 899.5 C 510.33 889 525.17 868.83 540.5 844.5 C 555.83 820.17 580.17 782.83 594.5 753.5 C 608.83 724.17 619 692.17 626.5 668.5 C 634 644.83 646.83 616.67 639.5 611.5 Z M 477.5 136.5 C 473.83 136 493 173.33 498.5 190.5 C 504 207.67 507.83 225.67 510.5 239.5 C 513.17 253.33 514.5 256 514.5 273.5 C 514.5 291 513.17 324.33 510.5 344.5 C 507.83 364.67 512 364.33 498.5 394.5 C 485 424.67 441.5 503.5 429.5 525.5 C 417.5 547.5 427.83 528.17 426.5 526.5 C 425.17 524.83 422.83 516.67 421.5 515.5 C 420.17 514.33 417.33 516.17 418.5 519.5 C 419.67 522.83 426.17 532.67 428.5 535.5 C 430.83 538.33 428.5 542.83 432.5 536.5 C 436.5 530.17 447.83 505.5 452.5 497.5 C 457.17 489.5 450.67 494.83 460.5 488.5 C 470.33 482.17 485.33 472.17 511.5 459.5 C 537.67 446.83 597.33 412.5 617.5 412.5 C 637.67 412.5 628.83 445.67 632.5 459.5 C 636.17 473.33 637.83 482 639.5 495.5 C 641.17 509 642.17 521.67 642.5 540.5 C 642.83 559.33 641 602.17 641.5 608.5 C 642 614.83 645.5 598.33 645.5 578.5 C 645.5 558.67 645.83 518.33 641.5 489.5 C 637.17 460.67 627.33 430.17 619.5 405.5 C 611.67 380.83 608.5 372.5 594.5 341.5 C 580.5 310.5 547.83 244.17 535.5 219.5 C 523.17 194.83 530.17 207.33 520.5 193.5 C 510.83 179.67 481.17 137 477.5 136.5 Z"/>
    <path fill="#009f3a" stroke="#009f3a" d="M 618.5 410.5 C 597.83 410.67 534.67 446.67 509.5 458.5 C 484.33 470.33 476.83 475.83 467.5 481.5 C 458.17 487.17 459.67 483.67 453.5 492.5 C 447.33 501.33 435.17 528.33 430.5 534.5 C 425.83 540.67 422.83 522.83 425.5 529.5 C 428.17 536.17 440.33 556.17 446.5 574.5 C 452.67 592.83 458 611 462.5 639.5 C 467 668 471.17 711.17 473.5 745.5 C 475.83 779.83 474.83 822.33 476.5 845.5 C 478.17 868.67 480.83 874.17 483.5 884.5 C 486.17 894.83 490.67 904 492.5 907.5 C 494.33 911 495.17 908.17 494.5 905.5 C 493.83 902.83 488.33 892.17 488.5 891.5 C 488.67 890.83 494 900.83 495.5 901.5 C 497 902.17 500.67 915.83 497.5 895.5 C 494.33 875.17 479.83 804.17 476.5 779.5 C 473.17 754.83 476.17 757.17 477.5 747.5 C 478.83 737.83 482.17 727.83 484.5 721.5 C 486.83 715.17 487.33 714.5 491.5 709.5 C 495.67 704.5 500.67 699.17 509.5 691.5 C 518.33 683.83 532 672.33 544.5 663.5 C 557 654.67 568.5 647.17 584.5 638.5 C 600.5 629.83 630.67 620.67 640.5 611.5 C 650.33 602.33 643.5 603.17 643.5 583.5 C 643.5 563.83 642.17 514.5 640.5 493.5 C 638.83 472.5 637.17 471.33 633.5 457.5 C 629.83 443.67 639.17 410.33 618.5 410.5 Z"/>
    <path fill="#007a39" stroke="#007a39" d="M 428.5 540.5 C 425.67 542.17 423.5 547.67 419.5 560.5 C 415.5 573.33 407.17 598.83 404.5 617.5 C 401.83 636.17 399.83 650.5 403.5 672.5 C 407.17 694.5 414.5 718.33 426.5 749.5 C 438.5 780.67 466.83 841 475.5 859.5 C 484.17 878 479.17 883 478.5 860.5 C 477.83 838 474.17 761.17 471.5 724.5 C 468.83 687.83 466.33 664.5 462.5 640.5 C 458.67 616.5 452.83 595.5 448.5 580.5 C 444.17 565.5 439.83 557.17 436.5 550.5 C 433.17 543.83 431.33 538.83 428.5 540.5 Z M 91.5 241.5 C 90.83 242 87.5 248.67 87.5 249.5 C 87.5 250.33 90.83 247.83 91.5 246.5 C 92.17 245.17 92.17 241 91.5 241.5 Z"/>
    <path fill="#007d38" stroke="#007d38" d="M 115.5 699.5 C 115.83 700.67 129.17 719.83 131.5 722.5 C 133.83 725.17 132.17 719.33 129.5 715.5 C 126.83 711.67 115.17 698.33 115.5 699.5 Z M 456.5 618.5 C 457 622.17 462 643 462.5 643.5 C 463 644 460.5 625.67 459.5 621.5 C 458.5 617.33 456 614.83 456.5 618.5 Z M 418.5 521.5 C 412.33 528.33 392.67 550.67 384.5 562.5 C 376.33 574.33 373.5 581 369.5 592.5 C 365.5 604 361.5 617.5 360.5 631.5 C 359.5 645.5 360.5 661 363.5 676.5 C 366.5 692 370.5 705.67 378.5 724.5 C 386.5 743.33 401 770.83 411.5 789.5 C 422 808.17 430.17 820 441.5 836.5 C 452.83 853 471.83 878.83 479.5 888.5 C 487.17 898.17 488 899.67 487.5 894.5 C 487 889.33 478 864.33 476.5 857.5 C 475 850.67 478.83 854.33 478.5 853.5 C 478.17 852.67 474.67 852.83 474.5 852.5 C 474.33 852.17 477.33 855.33 477.5 851.5 C 477.67 847.67 476 829.67 475.5 829.5 C 475 829.33 482.5 864.17 474.5 850.5 C 466.5 836.83 439 776.5 427.5 747.5 C 416 718.5 409.17 697.83 405.5 676.5 C 401.83 655.17 403 638.5 405.5 619.5 C 408 600.5 416.33 575.17 420.5 562.5 C 424.67 549.83 424.67 536.17 430.5 543.5 C 436.33 550.83 454 604.5 455.5 606.5 C 457 608.5 445.17 569.67 439.5 555.5 C 433.83 541.33 425 527.17 421.5 521.5 C 418 515.83 424.67 514.67 418.5 521.5 Z M 223.5 295.5 C 222.33 294.5 223.17 299.5 224.5 301.5 C 225.83 303.5 231.67 308.5 231.5 307.5 C 231.33 306.5 224.67 296.5 223.5 295.5 Z M 207.5 263.5 C 206.83 263.17 207.67 268.17 208.5 269.5 C 209.33 270.83 212.67 272.5 212.5 271.5 C 212.33 270.5 208.17 263.83 207.5 263.5 Z M 147.5 143.5 C 147.67 142.5 143.5 145.83 142.5 147.5 C 141.5 149.17 140.67 154.17 141.5 153.5 C 142.33 152.83 147.33 144.5 147.5 143.5 Z M 184.5 93.5 C 186.5 90.67 182.33 92.33 179.5 95.5 C 176.67 98.67 166.67 112.83 167.5 112.5 C 168.33 112.17 182.5 96.33 184.5 93.5 Z M 214.5 57.5 C 214.17 56.67 208.33 60.83 207.5 62.5 C 206.67 64.17 208.33 68.33 209.5 67.5 C 210.67 66.67 214.83 58.33 214.5 57.5 Z"/>
  </g>
</svg>
