<svg xmlns="http://www.w3.org/2000/svg" width="899" height="921" viewBox="0 0 899 921" role="img" aria-labelledby="title desc">
  <title id="title">Nur logo loop frame 027</title>
  <desc id="desc">Vector-traced frame from Nur_Logo_Loop_02.gif.</desc>
  <g id="frame-027" stroke-linejoin="round" stroke-linecap="round" stroke-width="0.5" shape-rendering="geometricPrecision">
    <path fill="#008136" stroke="#008136" d="M 249.5 85.5 C 238 92.67 200.17 115.33 183.5 128.5 C 166.83 141.67 161.33 149.17 149.5 164.5 C 137.67 179.83 123.33 200 112.5 220.5 C 101.67 241 92.5 263.67 84.5 287.5 C 76.5 311.33 69.5 339.33 64.5 363.5 C 59.5 387.67 55.67 406 54.5 432.5 C 53.33 459 54.33 492.83 57.5 522.5 C 60.67 552.17 65.83 584.67 73.5 610.5 C 81.17 636.33 91.83 656 103.5 677.5 C 115.17 699 128.17 719.33 143.5 739.5 C 158.83 759.67 178.83 782.17 195.5 798.5 C 212.17 814.83 226.83 826.17 243.5 837.5 C 260.17 848.83 274.33 857.17 295.5 866.5 C 316.67 875.83 345.83 886.67 370.5 893.5 C 395.17 900.33 423 905.17 443.5 907.5 C 464 909.83 486.67 911.67 493.5 907.5 C 500.33 903.33 487.17 893.17 484.5 882.5 C 481.83 871.83 479.17 867 477.5 843.5 C 475.83 820 476.17 771.5 474.5 741.5 C 472.83 711.5 470.5 686.67 467.5 663.5 C 464.5 640.33 460.83 620.17 456.5 602.5 C 452.17 584.83 450.67 576.5 441.5 557.5 C 432.33 538.5 427.83 519 401.5 488.5 C 375.17 458 308.33 399.67 283.5 374.5 C 258.67 349.33 262.67 352.5 252.5 337.5 C 242.33 322.5 229.17 302.83 222.5 284.5 C 215.83 266.17 214.67 237.17 212.5 227.5 C 210.33 217.83 210 229.17 209.5 226.5 C 209 223.83 209 214.17 209.5 211.5 C 210 208.83 211.17 217.83 212.5 210.5 C 213.83 203.17 215 181.17 217.5 167.5 C 220 153.83 221.67 142.17 227.5 128.5 C 233.33 114.83 248.83 92.67 252.5 85.5 C 256.17 78.33 261 78.33 249.5 85.5 Z"/>
    <path fill="#83bb26" stroke="#83bb26" d="M 463.5 468.5 C 466.5 460.17 453.5 473.67 445.5 480.5 C 437.5 487.33 418.5 501.17 415.5 509.5 C 412.5 517.83 419.5 537.33 427.5 530.5 C 435.5 523.67 460.5 476.83 463.5 468.5 Z M 626.5 80.5 C 618.17 80.5 620 80.83 618.5 81.5 C 617 82.17 613.67 83.83 617.5 84.5 C 621.33 85.17 632.83 84.33 641.5 85.5 C 650.17 86.67 659.67 88.33 669.5 91.5 C 679.33 94.67 691.83 100 700.5 104.5 C 709.17 109 715.5 113.67 721.5 118.5 C 727.5 123.33 732.5 128.33 736.5 133.5 C 740.5 138.67 742.17 138.17 745.5 149.5 C 748.83 160.83 754.67 188 756.5 201.5 C 758.33 215 757.33 220.67 756.5 230.5 C 755.67 240.33 754.67 250 751.5 260.5 C 748.33 271 741.83 285 737.5 293.5 C 733.17 302 734.33 301.83 725.5 311.5 C 716.67 321.17 703.17 337.5 684.5 351.5 C 665.83 365.5 622.67 380.33 613.5 395.5 C 604.33 410.67 624.67 425.83 629.5 442.5 C 634.33 459.17 639.5 479 642.5 495.5 C 645.5 512 647 526.17 647.5 541.5 C 648 556.83 636.5 585.33 645.5 587.5 C 654.5 589.67 685.33 565.33 701.5 554.5 C 717.67 543.67 729.17 534.17 742.5 522.5 C 755.83 510.83 770.83 496.33 781.5 484.5 C 792.17 472.67 798.5 464.17 806.5 451.5 C 814.5 438.83 823.5 422.33 829.5 408.5 C 835.5 394.67 839.5 380.67 842.5 368.5 C 845.5 356.33 846.5 349.83 847.5 335.5 C 848.5 321.17 849.5 298.5 848.5 282.5 C 847.5 266.5 845.67 253.67 841.5 239.5 C 837.33 225.33 830.67 210.67 823.5 197.5 C 816.33 184.33 808 172.5 798.5 160.5 C 789 148.5 776.33 134.83 766.5 125.5 C 756.67 116.17 749 110.33 739.5 104.5 C 730 98.67 721.33 94.33 709.5 90.5 C 697.67 86.67 682.33 83.17 668.5 81.5 C 654.67 79.83 634.83 80.5 626.5 80.5 Z"/>
    <path fill="#6ab12d" stroke="#6ab12d" d="M 636.5 593.5 C 631.67 584 608.5 604.5 593.5 612.5 C 578.5 620.5 562.83 628.83 546.5 641.5 C 530.17 654.17 506.83 676.83 495.5 688.5 C 484.17 700.17 482 703.17 478.5 711.5 C 475 719.83 474.83 725.83 474.5 738.5 C 474.17 751.17 473.33 762.5 476.5 787.5 C 479.67 812.5 492.33 875 493.5 888.5 C 494.67 902 485.5 870.83 483.5 868.5 C 481.5 866.17 479.83 868 481.5 874.5 C 483.17 881 490 903.33 493.5 907.5 C 497 911.67 494.67 910 502.5 899.5 C 510.33 889 525.5 868.17 540.5 844.5 C 555.5 820.83 578.83 786.67 592.5 757.5 C 606.17 728.33 615.17 696.83 622.5 669.5 C 629.83 642.17 641.33 603 636.5 593.5 Z M 442.5 162.5 C 443.33 165.5 471.83 188.67 479.5 196.5 C 487.17 204.33 484.83 202.17 488.5 209.5 C 492.17 216.83 498.33 226.67 501.5 240.5 C 504.67 254.33 506.83 270 507.5 292.5 C 508.17 315 507.33 356.17 505.5 375.5 C 503.67 394.83 509.17 383.5 496.5 408.5 C 483.83 433.5 441.17 505.83 429.5 525.5 C 417.83 545.17 428.5 529 426.5 526.5 C 424.5 524 419.5 512.67 417.5 510.5 C 415.5 508.33 412 508.83 414.5 513.5 C 417 518.17 425.5 542 432.5 538.5 C 439.5 535 448.83 505.5 456.5 492.5 C 464.17 479.5 469.67 468.67 478.5 460.5 C 487.33 452.33 487.17 453.83 509.5 443.5 C 531.83 433.17 592.33 397.17 612.5 398.5 C 632.67 399.83 625.67 434.67 630.5 451.5 C 635.33 468.33 639 485.83 641.5 499.5 C 644 513.17 644.83 518.5 645.5 533.5 C 646.17 548.5 645 588.5 645.5 589.5 C 646 590.5 650 560.67 648.5 539.5 C 647 518.33 641.83 486.17 636.5 462.5 C 631.17 438.83 621.5 408.5 616.5 397.5 C 611.5 386.5 614.67 413.83 606.5 396.5 C 598.33 379.17 583.67 325.5 567.5 293.5 C 551.33 261.5 525 223.67 509.5 204.5 C 494 185.33 485.67 185.5 474.5 178.5 C 463.33 171.5 441.67 159.5 442.5 162.5 Z"/>
    <path fill="#009f3a" stroke="#009f3a" d="M 614.5 397.5 C 593.5 395.17 530.5 432.17 507.5 442.5 C 484.5 452.83 486.33 449.5 476.5 459.5 C 466.67 469.5 455.83 489.83 448.5 502.5 C 441.17 515.17 436.33 531 432.5 535.5 C 428.67 540 423.17 523 425.5 529.5 C 427.83 536 440.67 558 446.5 574.5 C 452.33 591 456 600.33 460.5 628.5 C 465 656.67 470.17 703 473.5 743.5 C 476.83 784 478.83 850 480.5 871.5 C 482.17 893 483.17 871.17 483.5 872.5 C 483.83 873.83 482 878.67 482.5 879.5 C 483 880.33 484.5 874.83 486.5 877.5 C 488.5 880.17 492.67 892.5 494.5 895.5 C 496.33 898.5 500.33 913.83 497.5 895.5 C 494.67 877.17 481.17 811.33 477.5 785.5 C 473.83 759.67 475.17 752.5 475.5 740.5 C 475.83 728.5 476 721.83 479.5 713.5 C 483 705.17 485 702.33 496.5 690.5 C 508 678.67 534.17 654.17 548.5 642.5 C 562.83 630.83 566.5 629.17 582.5 620.5 C 598.5 611.83 633.83 605.33 644.5 590.5 C 655.17 575.67 646.83 547 646.5 531.5 C 646.17 516 644.67 510 642.5 497.5 C 640.33 485 638.17 473.17 633.5 456.5 C 628.83 439.83 635.5 399.83 614.5 397.5 Z"/>
    <path fill="#007a39" stroke="#007a39" d="M 430.5 543.5 C 427.17 548.5 420.33 567.5 416.5 580.5 C 412.67 593.5 409.17 607.33 407.5 621.5 C 405.83 635.67 405 650.67 406.5 665.5 C 408 680.33 411.67 693.83 416.5 710.5 C 421.33 727.17 426.33 743 435.5 765.5 C 444.67 788 464.67 831.33 471.5 845.5 C 478.33 859.67 476.5 870.67 476.5 850.5 C 476.5 830.33 473.83 759.5 471.5 724.5 C 469.17 689.5 466.33 664.5 462.5 640.5 C 458.67 616.5 452.83 595.5 448.5 580.5 C 444.17 565.5 439.5 556.67 436.5 550.5 C 433.5 544.33 433.83 538.5 430.5 543.5 Z M 111.5 228.5 C 111.33 227.5 109.33 227.5 108.5 228.5 C 107.67 229.5 106.33 233.5 106.5 234.5 C 106.67 235.5 108.67 235.5 109.5 234.5 C 110.33 233.5 111.67 229.5 111.5 228.5 Z M 209.5 209.5 C 209 209.5 208.17 224.5 208.5 227.5 C 208.83 230.5 211.33 230.5 211.5 227.5 C 211.67 224.5 210 209.5 209.5 209.5 Z M 248.5 90.5 C 247.67 89.67 245.5 88.5 243.5 89.5 C 241.5 90.5 236.33 96.17 236.5 96.5 C 236.67 96.83 242.5 91.83 244.5 91.5 C 246.5 91.17 247.83 94.67 248.5 94.5 C 249.17 94.33 249.33 91.33 248.5 90.5 Z"/>
    <path fill="#007d38" stroke="#007d38" d="M 113.5 691.5 C 112.83 691.33 113.67 695.5 114.5 696.5 C 115.33 697.5 118.67 698.33 118.5 697.5 C 118.33 696.67 114.17 691.67 113.5 691.5 Z M 64.5 566.5 C 64 567.33 64.83 573.17 65.5 574.5 C 66.17 575.83 68 575.33 68.5 574.5 C 69 573.67 69.17 570.83 68.5 569.5 C 67.83 568.17 65 565.67 64.5 566.5 Z M 413.5 513.5 C 406 517.67 391.17 544.67 383.5 558.5 C 375.83 572.33 371.17 585.17 367.5 596.5 C 363.83 607.83 362.17 614.17 361.5 626.5 C 360.83 638.83 361 655.67 363.5 670.5 C 366 685.33 369.67 698.33 376.5 715.5 C 383.33 732.67 395.17 756 404.5 773.5 C 413.83 791 419.67 801.5 432.5 820.5 C 445.33 839.5 472.67 876.17 481.5 887.5 C 490.33 898.83 486.17 893.83 485.5 888.5 C 484.83 883.17 479 864.67 477.5 855.5 C 476 846.33 477.17 836 476.5 833.5 C 475.83 831 479.5 850.67 473.5 840.5 C 467.5 830.33 449.83 794.5 440.5 772.5 C 431.17 750.5 423 726.67 417.5 708.5 C 412 690.33 409.17 676.5 407.5 663.5 C 405.83 650.5 406.5 641.33 407.5 630.5 C 408.5 619.67 409.5 612.5 413.5 598.5 C 417.5 584.5 425.67 549.33 431.5 546.5 C 437.33 543.67 449 583.67 448.5 581.5 C 448 579.33 434.33 544.83 428.5 533.5 C 422.67 522.17 421 509.33 413.5 513.5 Z M 66.5 368.5 C 65.83 368.83 62.5 374.67 62.5 375.5 C 62.5 376.33 65.83 374.67 66.5 373.5 C 67.17 372.33 67.17 368.17 66.5 368.5 Z M 112.5 224.5 C 112 224.5 107 233.67 106.5 235.5 C 106 237.33 108.5 237.33 109.5 235.5 C 110.5 233.67 113 224.5 112.5 224.5 Z M 232.5 120.5 C 232.83 119 229.5 120.67 228.5 122.5 C 227.5 124.33 225.83 131.83 226.5 131.5 C 227.17 131.17 232.17 122 232.5 120.5 Z M 238.5 109.5 C 238.67 108.5 234.5 111 233.5 112.5 C 232.5 114 231.67 119 232.5 118.5 C 233.33 118 238.33 110.5 238.5 109.5 Z"/>
  </g>
</svg>
