<svg xmlns="http://www.w3.org/2000/svg" width="899" height="921" viewBox="0 0 899 921" role="img" aria-labelledby="title desc">
  <title id="title">Nur logo loop frame 014</title>
  <desc id="desc">Vector-traced frame from Nur_Logo_Loop_02.gif.</desc>
  <g id="frame-014" stroke-linejoin="round" stroke-linecap="round" stroke-width="0.5" shape-rendering="geometricPrecision">
    <path fill="#008136" stroke="#008136" d="M 226.5 72.5 C 218.33 78.67 191 101.83 179.5 112.5 C 168 123.17 171 116.17 157.5 136.5 C 144 156.83 112.5 206.33 98.5 234.5 C 84.5 262.67 80 281 73.5 305.5 C 67 330 62.67 355.67 59.5 381.5 C 56.33 407.33 54 434.17 54.5 460.5 C 55 486.83 59 516.17 62.5 539.5 C 66 562.83 72.33 588.67 75.5 600.5 C 78.67 612.33 80.67 607.83 81.5 610.5 C 82.33 613.17 75.67 604.5 80.5 616.5 C 85.33 628.5 99.67 662.17 110.5 682.5 C 121.33 702.83 134.17 722.33 145.5 738.5 C 156.83 754.67 168 767.67 178.5 779.5 C 189 791.33 197.83 800 208.5 809.5 C 219.17 819 228 827 242.5 836.5 C 257 846 274.17 857 295.5 866.5 C 316.83 876 345.83 886.67 370.5 893.5 C 395.17 900.33 423 905.17 443.5 907.5 C 464 909.83 486.67 911.67 493.5 907.5 C 500.33 903.33 487.17 893.17 484.5 882.5 C 481.83 871.83 479.17 867 477.5 843.5 C 475.83 820 476.17 771.5 474.5 741.5 C 472.83 711.5 470.5 686.67 467.5 663.5 C 464.5 640.33 460.83 620.17 456.5 602.5 C 452.17 584.83 448.17 572.67 441.5 557.5 C 434.83 542.33 425 525.17 416.5 511.5 C 408 497.83 407.83 493.5 390.5 475.5 C 373.17 457.5 333.17 423.67 312.5 403.5 C 291.83 383.33 280.33 372 266.5 354.5 C 252.67 337 238.67 314.33 229.5 298.5 C 220.33 282.67 214.67 267.67 211.5 259.5 C 208.33 251.33 211.17 251.33 210.5 249.5 C 209.83 247.67 209.33 254.67 207.5 248.5 C 205.67 242.33 200.17 230 199.5 212.5 C 198.83 195 201.83 161 203.5 143.5 C 205.17 126 205.33 118.83 209.5 107.5 C 213.67 96.17 225.67 81.33 228.5 75.5 C 231.33 69.67 234.67 66.33 226.5 72.5 Z"/>
    <path fill="#83bb26" stroke="#83bb26" d="M 452.5 484.5 C 450.67 481.67 422.83 505 418.5 512.5 C 414.17 520 424.67 526.67 426.5 529.5 C 428.33 532.33 425.17 537 429.5 529.5 C 433.83 522 454.33 487.33 452.5 484.5 Z M 624.5 45.5 C 621.5 45.5 612.67 41.83 624.5 49.5 C 636.33 57.17 678.17 79.5 695.5 91.5 C 712.83 103.5 718 107.83 728.5 121.5 C 739 135.17 751.67 157.17 758.5 173.5 C 765.33 189.83 767.83 207.5 769.5 219.5 C 771.17 231.5 769.83 236.83 768.5 245.5 C 767.17 254.17 767.17 260 761.5 271.5 C 755.83 283 742.67 303.67 734.5 314.5 C 726.33 325.33 723 327.5 712.5 336.5 C 702 345.5 688.33 357.33 671.5 368.5 C 654.67 379.67 619 390 611.5 403.5 C 604 417 622.5 435 626.5 449.5 C 630.5 464 633.17 474.83 635.5 490.5 C 637.83 506.17 640 524.83 640.5 543.5 C 641 562.17 631.17 596.83 638.5 602.5 C 645.83 608.17 668.33 587.67 684.5 577.5 C 700.67 567.33 721 552.67 735.5 541.5 C 750 530.33 760.17 521.67 771.5 510.5 C 782.83 499.33 793.67 487.67 803.5 474.5 C 813.33 461.33 823 445.67 830.5 431.5 C 838 417.33 844 402.67 848.5 389.5 C 853 376.33 855.5 367.83 857.5 352.5 C 859.5 337.17 860.83 314.83 860.5 297.5 C 860.17 280.17 858.67 263.17 855.5 248.5 C 852.33 233.83 848.33 223.17 841.5 209.5 C 834.67 195.83 826.17 181.67 814.5 166.5 C 802.83 151.33 782.5 129.5 771.5 118.5 C 760.5 107.5 760.33 107.83 748.5 100.5 C 736.67 93.17 718.17 83 700.5 74.5 C 682.83 66 655.17 54.33 642.5 49.5 C 629.83 44.67 627.5 45.5 624.5 45.5 Z"/>
    <path fill="#6ab12d" stroke="#6ab12d" d="M 461.5 145.5 C 456.5 144.17 482.5 178 489.5 192.5 C 496.5 207 500.17 219.17 503.5 232.5 C 506.83 245.83 508.83 253 509.5 272.5 C 510.17 292 509.17 329.33 507.5 349.5 C 505.83 369.67 504.33 379 499.5 393.5 C 494.67 408 490.33 414.33 478.5 436.5 C 466.67 458.67 438.33 513.67 428.5 526.5 C 418.67 539.33 421.33 515 419.5 513.5 C 417.67 512 416.33 514.33 417.5 517.5 C 418.67 520.67 424.5 530 426.5 532.5 C 428.5 535 425.33 539.5 429.5 532.5 C 433.67 525.5 437.33 503.83 451.5 490.5 C 465.67 477.17 488 466 514.5 452.5 C 541 439 591.17 406.33 610.5 409.5 C 629.83 412.67 625.67 447.5 630.5 471.5 C 635.33 495.5 638.5 531.33 639.5 553.5 C 640.5 575.67 647.83 590.5 636.5 604.5 C 625.17 618.5 587.33 628.67 571.5 637.5 C 555.67 646.33 551.17 650.33 541.5 657.5 C 531.83 664.67 523.5 670.67 513.5 680.5 C 503.5 690.33 488 706.5 481.5 716.5 C 475 726.5 475.5 726.5 474.5 740.5 C 473.5 754.5 472.33 772.5 475.5 800.5 C 478.67 828.5 490 890.5 493.5 908.5 C 497 926.5 482.67 928.67 496.5 908.5 C 510.33 888.33 558.67 817 576.5 787.5 C 594.33 758 595.5 751.5 603.5 731.5 C 611.5 711.5 618.5 688.83 624.5 667.5 C 630.5 646.17 636.67 624.5 639.5 603.5 C 642.33 582.5 642 560.67 641.5 541.5 C 641 522.33 638.83 504.17 636.5 488.5 C 634.17 472.83 634 468.67 627.5 447.5 C 621 426.33 607.5 387.67 597.5 361.5 C 587.5 335.33 580.5 317.33 567.5 290.5 C 554.5 263.67 537.17 224.67 519.5 200.5 C 501.83 176.33 466.5 146.83 461.5 145.5 Z"/>
    <path fill="#009f3a" stroke="#009f3a" d="M 475.5 799.5 C 472.67 793.17 476.5 845.33 478.5 861.5 C 480.5 877.67 484.83 888.83 487.5 896.5 C 490.17 904.17 493.17 907 494.5 907.5 C 495.83 908 498.67 917.5 495.5 899.5 C 492.33 881.5 478.33 805.83 475.5 799.5 Z M 612.5 408.5 C 593.17 407.5 535.5 441 512.5 451.5 C 489.5 462 484.83 465.33 474.5 471.5 C 464.17 477.67 458 479 450.5 488.5 C 443 498 433.67 521.67 429.5 528.5 C 425.33 535.33 422.67 521.83 425.5 529.5 C 428.33 537.17 440.67 558 446.5 574.5 C 452.33 591 456.67 608.5 460.5 628.5 C 464.33 648.5 467.17 666.83 469.5 694.5 C 471.83 722.17 473.5 786.5 474.5 794.5 C 475.5 802.5 474.5 754.33 475.5 742.5 C 476.5 730.67 478.33 729 480.5 723.5 C 482.67 718 482.67 716.5 488.5 709.5 C 494.33 702.5 505.17 690.83 515.5 681.5 C 525.83 672.17 539.33 661.5 550.5 653.5 C 561.67 645.5 568 641.33 582.5 633.5 C 597 625.67 627.83 620.17 637.5 606.5 C 647.17 592.83 640.83 570.67 640.5 551.5 C 640.17 532.33 637.5 507.17 635.5 491.5 C 633.5 475.83 632.33 471.33 628.5 457.5 C 624.67 443.67 631.83 409.5 612.5 408.5 Z"/>
    <path fill="#007a39" stroke="#007a39" d="M 425.5 535.5 C 422 541.17 414.83 560.83 410.5 574.5 C 406.17 588.17 401.33 600.17 399.5 617.5 C 397.67 634.83 397.33 660.33 399.5 678.5 C 401.67 696.67 406.5 708.33 412.5 726.5 C 418.5 744.67 423.67 760.67 435.5 787.5 C 447.33 814.33 476.83 878.33 483.5 887.5 C 490.17 896.67 477.5 869.67 475.5 842.5 C 473.5 815.33 473.67 758.17 471.5 724.5 C 469.33 690.83 466.33 664.5 462.5 640.5 C 458.67 616.5 453.67 597.17 448.5 580.5 C 443.33 563.83 435.33 548 431.5 540.5 C 427.67 533 429 529.83 425.5 535.5 Z M 85.5 275.5 C 85 275.5 81.67 282.17 81.5 283.5 C 81.33 284.83 83.83 284.83 84.5 283.5 C 85.17 282.17 86 275.5 85.5 275.5 Z"/>
    <path fill="#007d38" stroke="#007d38" d="M 470.5 761.5 C 470 760.67 470 776.5 470.5 780.5 C 471 784.5 473.5 788.67 473.5 785.5 C 473.5 782.33 471 762.33 470.5 761.5 Z M 155.5 749.5 C 155 749.5 165 763.67 167.5 766.5 C 170 769.33 172.5 769.33 170.5 766.5 C 168.5 763.67 156 749.5 155.5 749.5 Z M 140.5 728.5 C 141.83 731 151 743.5 151.5 743.5 C 152 743.5 145.33 731 143.5 728.5 C 141.67 726 139.17 726 140.5 728.5 Z M 83.5 622.5 C 83.83 623.67 88.83 631.17 89.5 631.5 C 90.17 631.83 88.5 626 87.5 624.5 C 86.5 623 83.17 621.33 83.5 622.5 Z M 64.5 547.5 C 64 548.33 64.83 553.33 65.5 554.5 C 66.17 555.67 68 555.33 68.5 554.5 C 69 553.67 69.17 550.67 68.5 549.5 C 67.83 548.33 65 546.67 64.5 547.5 Z M 416.5 518.5 C 411.67 523.67 399 536.17 390.5 549.5 C 382 562.83 370.83 585.67 365.5 598.5 C 360.17 611.33 359.67 616.17 358.5 626.5 C 357.33 636.83 357.67 650.17 358.5 660.5 C 359.33 670.83 360.67 677.83 363.5 688.5 C 366.33 699.17 369.33 709.83 375.5 724.5 C 381.67 739.17 390.17 757.83 400.5 776.5 C 410.83 795.17 422.33 815 437.5 836.5 C 452.67 858 484.5 901.33 491.5 905.5 C 498.5 909.67 482 867.83 479.5 861.5 C 477 855.17 483.67 880.17 476.5 867.5 C 469.33 854.83 447 809.33 436.5 785.5 C 426 761.67 419.5 742.67 413.5 724.5 C 407.5 706.33 402.67 694 400.5 676.5 C 398.33 659 398.67 636.17 400.5 619.5 C 402.33 602.83 407 590 411.5 576.5 C 416 563 421.33 537.67 427.5 538.5 C 433.67 539.33 448 581.67 448.5 581.5 C 449 581.33 435.33 548 430.5 537.5 C 425.67 527 421.83 521.67 419.5 518.5 C 417.17 515.33 421.33 513.33 416.5 518.5 Z M 59.5 425.5 C 59 424.67 57.17 424.17 56.5 425.5 C 55.83 426.83 55 432.67 55.5 433.5 C 56 434.33 58.83 431.83 59.5 430.5 C 60.17 429.17 60 426.33 59.5 425.5 Z M 78.5 295.5 C 77.67 296.5 74.33 305.67 74.5 306.5 C 74.67 307.33 78.83 302.33 79.5 300.5 C 80.17 298.67 79.33 294.5 78.5 295.5 Z M 209.5 254.5 C 208.5 253.5 207.67 256.83 208.5 258.5 C 209.33 260.17 214.33 265.17 214.5 264.5 C 214.67 263.83 210.5 255.5 209.5 254.5 Z M 104.5 227.5 C 104 227.5 98.17 237.5 97.5 239.5 C 96.83 241.5 99.33 241.5 100.5 239.5 C 101.67 237.5 105 227.5 104.5 227.5 Z M 199.5 221.5 C 198.83 221 198.83 225.17 199.5 226.5 C 200.17 227.83 203.5 230.33 203.5 229.5 C 203.5 228.67 200.17 222 199.5 221.5 Z M 127.5 188.5 C 128.33 186.17 126.33 186.17 124.5 188.5 C 122.67 190.83 117.33 200.17 116.5 202.5 C 115.67 204.83 117.67 204.83 119.5 202.5 C 121.33 200.17 126.67 190.83 127.5 188.5 Z M 140.5 166.5 C 139.83 166.83 133.17 176.83 132.5 178.5 C 131.83 180.17 135.17 178.5 136.5 176.5 C 137.83 174.5 141.17 166.17 140.5 166.5 Z M 150.5 150.5 C 149.67 150.83 143.83 159.17 143.5 160.5 C 143.17 161.83 147.33 160.17 148.5 158.5 C 149.67 156.83 151.33 150.17 150.5 150.5 Z M 205.5 91.5 C 204.67 91.67 197.17 98.33 196.5 99.5 C 195.83 100.67 200 99.83 201.5 98.5 C 203 97.17 206.33 91.33 205.5 91.5 Z M 225.5 77.5 C 225.83 76.33 222.5 78 221.5 79.5 C 220.5 81 218.83 86.83 219.5 86.5 C 220.17 86.17 225.17 78.67 225.5 77.5 Z"/>
  </g>
</svg>
