<svg xmlns="http://www.w3.org/2000/svg" width="899" height="921" viewBox="0 0 899 921" role="img" aria-labelledby="title desc">
  <title id="title">Nur logo loop frame 098</title>
  <desc id="desc">Vector-traced frame from Nur_Logo_Loop_02.gif.</desc>
  <g id="frame-098" stroke-linejoin="round" stroke-linecap="round" stroke-width="0.5" shape-rendering="geometricPrecision">
    <path fill="#008136" stroke="#008136" d="M 220.5 66.5 C 211.5 74.67 180.5 104.5 168.5 117.5 C 156.5 130.5 160.17 126.17 148.5 144.5 C 136.83 162.83 111.33 201.17 98.5 227.5 C 85.67 253.83 78.33 277.67 71.5 302.5 C 64.67 327.33 60.83 354.67 57.5 376.5 C 54.17 398.33 52.5 417.5 51.5 433.5 C 50.5 449.5 49.67 452.67 51.5 472.5 C 53.33 492.33 60.17 538.67 62.5 552.5 C 64.83 566.33 65.17 554 65.5 555.5 C 65.83 557 64.17 560.33 64.5 561.5 C 64.83 562.67 67.17 560.83 67.5 562.5 C 67.83 564.17 65.17 564.17 66.5 571.5 C 67.83 578.83 70.17 591.33 75.5 606.5 C 80.83 621.67 88.17 642.17 98.5 662.5 C 108.83 682.83 123.67 708.33 137.5 728.5 C 151.33 748.67 164.5 765.83 181.5 783.5 C 198.5 801.17 220.5 820.67 239.5 834.5 C 258.5 848.33 276 857.33 295.5 866.5 C 315 875.67 334.5 883 356.5 889.5 C 378.5 896 404.83 902.5 427.5 905.5 C 450.17 908.5 484.17 917.83 492.5 907.5 C 500.83 897.17 480.5 870.83 477.5 843.5 C 474.5 816.17 476.17 773.5 474.5 743.5 C 472.83 713.5 470.5 687 467.5 663.5 C 464.5 640 460.83 620.17 456.5 602.5 C 452.17 584.83 447.83 572.17 441.5 557.5 C 435.17 542.83 427 528.17 418.5 514.5 C 410 500.83 408.17 494 390.5 475.5 C 372.83 457 334.17 424.83 312.5 403.5 C 290.83 382.17 276.17 367.5 260.5 347.5 C 244.83 327.5 227.5 300 218.5 283.5 C 209.5 267 210.33 261.83 206.5 248.5 C 202.67 235.17 197.17 219 195.5 203.5 C 193.83 188 194.5 173.83 196.5 155.5 C 198.5 137.17 203.17 108 207.5 93.5 C 211.83 79 220.33 73 222.5 68.5 C 224.67 64 229.5 58.33 220.5 66.5 Z"/>
    <path fill="#83bb26" stroke="#83bb26" d="M 450.5 488.5 C 449 485.83 422.33 507.5 418.5 514.5 C 414.67 521.5 422.17 534.83 427.5 530.5 C 432.83 526.17 452 491.17 450.5 488.5 Z M 633.5 43.5 C 627.67 42 630.5 44.17 632.5 46.5 C 634.5 48.83 633.83 49.67 645.5 57.5 C 657.17 65.33 688.17 82.67 702.5 93.5 C 716.83 104.33 722.17 110 731.5 122.5 C 740.83 135 752.33 156.5 758.5 168.5 C 764.67 180.5 766 186 768.5 194.5 C 771 203 772.83 211 773.5 219.5 C 774.17 228 773.83 236.83 772.5 245.5 C 771.17 254.17 770.67 260.67 765.5 271.5 C 760.33 282.33 749.33 300 741.5 310.5 C 733.67 321 728.33 325.67 718.5 334.5 C 708.67 343.33 699.83 351.67 682.5 363.5 C 665.17 375.33 622.5 386.33 614.5 405.5 C 606.5 424.67 630.17 453.83 634.5 478.5 C 638.83 503.17 639.67 532.17 640.5 553.5 C 641.33 574.83 631.33 602.5 639.5 606.5 C 647.67 610.5 672.83 588.33 689.5 577.5 C 706.17 566.67 726.5 551.5 739.5 541.5 C 752.5 531.5 756.17 528.83 767.5 517.5 C 778.83 506.17 796.33 488 807.5 473.5 C 818.67 459 827 444.67 834.5 430.5 C 842 416.33 848 401.5 852.5 388.5 C 857 375.5 859.5 367.5 861.5 352.5 C 863.5 337.5 864.83 315.33 864.5 298.5 C 864.17 281.67 862.67 266 859.5 251.5 C 856.33 237 851.17 223.83 845.5 211.5 C 839.83 199.17 836.5 192.17 825.5 177.5 C 814.5 162.83 790.17 135.17 779.5 123.5 C 768.83 111.83 771.67 114.5 761.5 107.5 C 751.33 100.5 734.17 90.17 718.5 81.5 C 702.83 72.83 681.67 61.83 667.5 55.5 C 653.33 49.17 639.33 45 633.5 43.5 Z"/>
    <path fill="#6ab12d" stroke="#6ab12d" d="M 466.5 139.5 C 461.5 138.33 487.67 179 494.5 196.5 C 501.33 214 504.83 232.5 507.5 244.5 C 510.17 256.5 510.5 250.67 510.5 268.5 C 510.5 286.33 509.83 329.67 507.5 351.5 C 505.17 373.33 509.67 370.17 496.5 399.5 C 483.33 428.83 441.17 508.17 428.5 527.5 C 415.83 546.83 422.33 517.17 420.5 515.5 C 418.67 513.83 416.5 514.67 417.5 517.5 C 418.5 520.33 424.33 529.83 426.5 532.5 C 428.67 535.17 426.17 540.17 430.5 533.5 C 434.83 526.83 440 504.83 452.5 492.5 C 465 480.17 479.17 472.83 505.5 459.5 C 531.83 446.17 589.67 409.83 610.5 412.5 C 631.33 415.17 625.83 452.33 630.5 475.5 C 635.17 498.67 637.67 529.5 638.5 551.5 C 639.33 573.5 645.17 593.5 635.5 607.5 C 625.83 621.5 596.17 626.67 580.5 635.5 C 564.83 644.33 552.5 652.67 541.5 660.5 C 530.5 668.33 524.17 672.83 514.5 682.5 C 504.83 692.17 490 707 483.5 718.5 C 477 730 476.83 740.33 475.5 751.5 C 474.17 762.67 472 760.33 475.5 785.5 C 479 810.67 492.5 882.83 496.5 902.5 C 500.5 922.17 486.17 922.67 499.5 903.5 C 512.83 884.33 559.33 815.67 576.5 787.5 C 593.67 759.33 594.83 752.83 602.5 734.5 C 610.17 716.17 617 695.5 622.5 677.5 C 628 659.5 632.5 640.17 635.5 626.5 C 638.5 612.83 639.5 608 640.5 595.5 C 641.5 583 642.67 572.83 641.5 551.5 C 640.33 530.17 637.83 492 633.5 467.5 C 629.17 443 626.5 434.67 615.5 404.5 C 604.5 374.33 582.67 320 567.5 286.5 C 552.33 253 541.33 228 524.5 203.5 C 507.67 179 471.5 140.67 466.5 139.5 Z"/>
    <path fill="#009f3a" stroke="#009f3a" d="M 474.5 769.5 C 471.17 762.17 476.5 840.17 478.5 861.5 C 480.5 882.83 484.33 889.83 486.5 897.5 C 488.67 905.17 489.5 906.17 491.5 907.5 C 493.5 908.83 501.33 928.5 498.5 905.5 C 495.67 882.5 477.83 776.83 474.5 769.5 Z M 612.5 411.5 C 592 412.33 526.5 448 503.5 458.5 C 480.5 469 483.17 469.17 474.5 474.5 C 465.83 479.83 459.17 480.83 451.5 490.5 C 443.83 500.17 432.83 526 428.5 532.5 C 424.17 539 422.5 522.5 425.5 529.5 C 428.5 536.5 441 559.67 446.5 574.5 C 452 589.33 455 601.83 458.5 618.5 C 462 635.17 465 649.67 467.5 674.5 C 470 699.33 470.33 760.5 473.5 767.5 C 476.67 774.5 479.33 730.5 486.5 716.5 C 493.67 702.5 503.33 695.17 516.5 683.5 C 529.67 671.83 545.5 658.83 565.5 646.5 C 585.5 634.17 624.17 625.67 636.5 609.5 C 648.83 593.33 639.67 568.33 639.5 549.5 C 639.33 530.67 637.67 512.5 635.5 496.5 C 633.33 480.5 630.33 467.67 626.5 453.5 C 622.67 439.33 633 410.67 612.5 411.5 Z"/>
    <path fill="#007a39" stroke="#007a39" d="M 227.5 823.5 C 228 824.33 237.17 831 238.5 831.5 C 239.83 832 237.33 827.83 235.5 826.5 C 233.67 825.17 227 822.67 227.5 823.5 Z M 87.5 635.5 C 87.83 637 92.83 646.17 93.5 646.5 C 94.17 646.83 92.5 639.33 91.5 637.5 C 90.5 635.67 87.17 634 87.5 635.5 Z M 425.5 533.5 C 421.5 536 417.33 549.33 412.5 565.5 C 407.67 581.67 399.17 612.67 396.5 630.5 C 393.83 648.33 395.33 660 396.5 672.5 C 397.67 685 399.67 692.33 403.5 705.5 C 407.33 718.67 407.5 723.5 419.5 751.5 C 431.5 779.5 465 851.67 475.5 873.5 C 486 895.33 482.5 887.67 482.5 882.5 C 482.5 877.33 477.33 868.83 475.5 842.5 C 473.67 816.17 473.67 758.17 471.5 724.5 C 469.33 690.83 466.33 664.5 462.5 640.5 C 458.67 616.5 452.83 595.5 448.5 580.5 C 444.17 565.5 440.33 558.33 436.5 550.5 C 432.67 542.67 429.5 531 425.5 533.5 Z M 85.5 266.5 C 85 266.5 81.67 273.17 81.5 274.5 C 81.33 275.83 83.83 275.83 84.5 274.5 C 85.17 273.17 86 266.5 85.5 266.5 Z"/>
    <path fill="#007d38" stroke="#007d38" d="M 473.5 829.5 C 473.67 832.5 477 850.83 477.5 851.5 C 478 852.17 477.17 837.17 476.5 833.5 C 475.83 829.83 473.33 826.5 473.5 829.5 Z M 456.5 618.5 C 457 622.17 462 643 462.5 643.5 C 463 644 460.5 625.67 459.5 621.5 C 458.5 617.33 456 614.83 456.5 618.5 Z M 74.5 600.5 C 74.83 601.67 79 607.5 79.5 607.5 C 80 607.5 78.33 601.67 77.5 600.5 C 76.67 599.33 74.17 599.33 74.5 600.5 Z M 63.5 553.5 C 63 553.5 64.67 563.5 65.5 565.5 C 66.33 567.5 68.83 567.5 68.5 565.5 C 68.17 563.5 64 553.5 63.5 553.5 Z M 417.5 519.5 C 411.5 522.33 400.33 537.83 392.5 549.5 C 384.67 561.17 375.83 576.5 370.5 589.5 C 365.17 602.5 361.83 614.17 360.5 627.5 C 359.17 640.83 360 654.5 362.5 669.5 C 365 684.5 369 700.33 375.5 717.5 C 382 734.67 391.5 754 401.5 772.5 C 411.5 791 423 809.83 435.5 828.5 C 448 847.17 468.17 874 476.5 884.5 C 484.83 895 485 895.33 485.5 891.5 C 486 887.67 481 865.33 479.5 861.5 C 478 857.67 486.33 887.17 476.5 868.5 C 466.67 849.83 433.5 781.5 420.5 749.5 C 407.5 717.5 402.5 693 398.5 676.5 C 394.5 660 396 661.5 396.5 650.5 C 397 639.5 398.67 624.33 401.5 610.5 C 404.33 596.67 409.33 579.5 413.5 567.5 C 417.67 555.5 421.83 538.67 426.5 538.5 C 431.17 538.33 436.67 555.17 441.5 566.5 C 446.33 577.83 455.83 608.33 455.5 606.5 C 455.17 604.67 444 567.83 439.5 555.5 C 435 543.17 432.17 538.5 428.5 532.5 C 424.83 526.5 423.5 516.67 417.5 519.5 Z M 91.5 249.5 C 90.83 249.83 87.5 256.5 87.5 257.5 C 87.5 258.5 90.83 256.83 91.5 255.5 C 92.17 254.17 92.17 249.17 91.5 249.5 Z M 97.5 238.5 C 96.83 238.83 91.83 246.33 91.5 247.5 C 91.17 248.67 94.5 247 95.5 245.5 C 96.5 244 98.17 238.17 97.5 238.5 Z M 111.5 207.5 C 110.33 208.67 104.5 218.67 104.5 219.5 C 104.5 220.33 110.33 214.5 111.5 212.5 C 112.67 210.5 112.67 206.33 111.5 207.5 Z M 172.5 116.5 C 171.67 116.67 165.83 121.67 165.5 122.5 C 165.17 123.33 169.33 122.5 170.5 121.5 C 171.67 120.5 173.33 116.33 172.5 116.5 Z"/>
  </g>
</svg>
