<svg xmlns="http://www.w3.org/2000/svg" width="899" height="921" viewBox="0 0 899 921" role="img" aria-labelledby="title desc">
  <title id="title">Nur logo loop frame 092</title>
  <desc id="desc">Vector-traced frame from Nur_Logo_Loop_02.gif.</desc>
  <g id="frame-092" stroke-linejoin="round" stroke-linecap="round" stroke-width="0.5" shape-rendering="geometricPrecision">
    <path fill="#008136" stroke="#008136" d="M 211.5 60.5 C 202.67 69.5 179.67 93 161.5 118.5 C 143.33 144 115.17 191.33 102.5 213.5 C 89.83 235.67 88.33 243.83 85.5 251.5 C 82.67 259.17 86.67 256.33 85.5 259.5 C 84.33 262.67 81.67 262.17 78.5 270.5 C 75.33 278.83 68.33 301.67 66.5 309.5 C 64.67 317.33 68.17 314.67 67.5 317.5 C 66.83 320.33 65.17 313.33 62.5 326.5 C 59.83 339.67 53.83 371.33 51.5 396.5 C 49.17 421.67 47.5 452.67 48.5 477.5 C 49.5 502.33 53.83 524.83 57.5 545.5 C 61.17 566.17 67.67 591.5 70.5 601.5 C 73.33 611.5 74 603.83 74.5 605.5 C 75 607.17 68.33 598.83 73.5 611.5 C 78.67 624.17 93.33 659.5 105.5 681.5 C 117.67 703.5 131.5 724 146.5 743.5 C 161.5 763 179.33 782.83 195.5 798.5 C 211.67 814.17 226.83 826.17 243.5 837.5 C 260.17 848.83 274.33 857.17 295.5 866.5 C 316.67 875.83 345.83 886.67 370.5 893.5 C 395.17 900.33 423.17 905.17 443.5 907.5 C 463.83 909.83 486.83 918.17 492.5 907.5 C 498.17 896.83 480.33 868.17 477.5 843.5 C 474.67 818.83 477.17 789.5 475.5 759.5 C 473.83 729.5 470.67 689.67 467.5 663.5 C 464.33 637.33 460.83 620.17 456.5 602.5 C 452.17 584.83 450.67 576.5 441.5 557.5 C 432.33 538.5 427.83 519 401.5 488.5 C 375.17 458 309.83 401.67 283.5 374.5 C 257.17 347.33 255.83 343.33 243.5 325.5 C 231.17 307.67 215 278 209.5 267.5 C 204 257 213 272 210.5 262.5 C 208 253 197.5 230.67 194.5 210.5 C 191.5 190.33 191.33 160.33 192.5 141.5 C 193.67 122.67 197.83 110.33 201.5 97.5 C 205.17 84.67 212.83 70.67 214.5 64.5 C 216.17 58.33 220.33 51.5 211.5 60.5 Z"/>
    <path fill="#83bb26" stroke="#83bb26" d="M 447.5 493.5 C 446.33 490.83 425.17 510.33 420.5 514.5 C 415.83 518.67 418.33 515.83 419.5 518.5 C 420.67 521.17 422.83 534.67 427.5 530.5 C 432.17 526.33 448.67 496.17 447.5 493.5 Z M 650.5 36.5 C 640.33 31.83 638.67 31.67 647.5 39.5 C 656.33 47.33 688.33 69.5 703.5 83.5 C 718.67 97.5 727.33 106.33 738.5 123.5 C 749.67 140.67 764 168.67 770.5 186.5 C 777 204.33 778 215.83 777.5 230.5 C 777 245.17 773.5 260.5 767.5 274.5 C 761.5 288.5 750.33 303.33 741.5 314.5 C 732.67 325.67 724.5 332.67 714.5 341.5 C 704.5 350.33 697.67 356.83 681.5 367.5 C 665.33 378.17 624.5 384.33 617.5 405.5 C 610.5 426.67 635.33 473.17 639.5 494.5 C 643.67 515.83 642.5 514.5 642.5 533.5 C 642.5 552.5 633.5 599.5 639.5 608.5 C 645.5 617.5 663 597.17 678.5 587.5 C 694 577.83 717.5 561.67 732.5 550.5 C 747.5 539.33 757.17 531 768.5 520.5 C 779.83 510 791.33 498.33 800.5 487.5 C 809.67 476.67 815.67 468.5 823.5 455.5 C 831.33 442.5 841.5 423 847.5 409.5 C 853.5 396 856.33 387.17 859.5 374.5 C 862.67 361.83 865.33 349.17 866.5 333.5 C 867.67 317.83 867.33 294.5 866.5 280.5 C 865.67 266.5 864.67 261.17 861.5 249.5 C 858.33 237.83 853.5 223.17 847.5 210.5 C 841.5 197.83 839.33 191.17 825.5 173.5 C 811.67 155.83 784 122.17 764.5 104.5 C 745 86.83 727.5 78.83 708.5 67.5 C 689.5 56.17 660.67 41.17 650.5 36.5 Z"/>
    <path fill="#6ab12d" stroke="#6ab12d" d="M 476.5 137.5 C 472.67 137.83 495.83 184.17 501.5 201.5 C 507.17 218.83 508.33 228.5 510.5 241.5 C 512.67 254.5 514.5 262.5 514.5 279.5 C 514.5 296.5 512.67 325.83 510.5 343.5 C 508.33 361.17 506.17 371.5 501.5 385.5 C 496.83 399.5 494.5 404 482.5 427.5 C 470.5 451 438.83 510 429.5 526.5 C 420.17 543 427.83 528.33 426.5 526.5 C 425.17 524.67 422.83 516.67 421.5 515.5 C 420.17 514.33 417.67 516.67 418.5 519.5 C 419.33 522.33 424.5 530.17 426.5 532.5 C 428.5 534.83 426.67 539.5 430.5 533.5 C 434.33 527.5 443.67 504.83 449.5 496.5 C 455.33 488.17 455.67 489.67 465.5 483.5 C 475.33 477.33 483.5 471.5 508.5 459.5 C 533.5 447.5 594.17 407 615.5 411.5 C 636.83 416 632.17 463.83 636.5 486.5 C 640.83 509.17 641.17 527.17 641.5 547.5 C 641.83 567.83 650 592.83 638.5 608.5 C 627 624.17 590.33 631.5 572.5 641.5 C 554.67 651.5 545.67 657.33 531.5 668.5 C 517.33 679.67 496 699.67 487.5 708.5 C 479 717.33 482.67 715.33 480.5 721.5 C 478.33 727.67 475.33 733 474.5 745.5 C 473.67 758 471.67 769.33 475.5 796.5 C 479.33 823.67 480.67 910 497.5 908.5 C 514.33 907 558 818.83 576.5 787.5 C 595 756.17 600.5 739.33 608.5 720.5 C 616.5 701.67 619 693.5 624.5 674.5 C 630 655.5 638.33 630.33 641.5 606.5 C 644.67 582.67 644.67 555.83 643.5 531.5 C 642.33 507.17 638.5 481.17 634.5 460.5 C 630.5 439.83 625.33 425.33 619.5 407.5 C 613.67 389.67 607.83 373.67 599.5 353.5 C 591.17 333.33 582 312.17 569.5 286.5 C 557 260.83 540 224.33 524.5 199.5 C 509 174.67 480.33 137.17 476.5 137.5 Z"/>
    <path fill="#009f3a" stroke="#009f3a" d="M 474.5 793.5 C 474.67 804.5 476 842.83 478.5 861.5 C 481 880.17 486.5 897.67 489.5 905.5 C 492.5 913.33 498.5 926.83 496.5 908.5 C 494.5 890.17 481.17 814.67 477.5 795.5 C 473.83 776.33 474.33 782.5 474.5 793.5 Z M 617.5 410.5 C 596.33 409.33 530.83 447.33 506.5 458.5 C 482.17 469.67 481.17 471.5 471.5 477.5 C 461.83 483.5 455.33 485.83 448.5 494.5 C 441.67 503.17 434.33 523.67 430.5 529.5 C 426.67 535.33 422.83 522 425.5 529.5 C 428.17 537 440.67 558 446.5 574.5 C 452.33 591 456.67 608.5 460.5 628.5 C 464.33 648.5 467.17 667.5 469.5 694.5 C 471.83 721.5 473.5 781.67 474.5 790.5 C 475.5 799.33 474.33 758.67 475.5 747.5 C 476.67 736.33 479.33 729.67 481.5 723.5 C 483.67 717.33 482.33 717.5 488.5 710.5 C 494.67 703.5 507.67 690.67 518.5 681.5 C 529.33 672.33 533.33 667.33 553.5 655.5 C 573.67 643.67 624.67 622.83 639.5 610.5 C 654.33 598.17 642.5 599.67 642.5 581.5 C 642.5 563.33 641 520.83 639.5 501.5 C 638 482.17 637.17 480.67 633.5 465.5 C 629.83 450.33 638.67 411.67 617.5 410.5 Z"/>
    <path fill="#007a39" stroke="#007a39" d="M 425.5 533.5 C 420.83 544.83 405.83 583 400.5 601.5 C 395.17 620 394.5 633.17 393.5 644.5 C 392.5 655.83 393.17 659.67 394.5 669.5 C 395.83 679.33 398 691 401.5 703.5 C 405 716 402.67 714.83 415.5 744.5 C 428.33 774.17 467 857.5 478.5 881.5 C 490 905.5 485 895 484.5 888.5 C 484 882 477.67 869.83 475.5 842.5 C 473.33 815.17 473.67 758.17 471.5 724.5 C 469.33 690.83 466.33 664.5 462.5 640.5 C 458.67 616.5 454.17 598.33 448.5 580.5 C 442.83 562.67 432.33 541.33 428.5 533.5 C 424.67 525.67 430.17 522.17 425.5 533.5 Z M 85.5 257.5 C 85 257.5 81.67 264.17 81.5 265.5 C 81.33 266.83 83.83 266.83 84.5 265.5 C 85.17 264.17 86 257.5 85.5 257.5 Z M 125.5 179.5 C 124.5 180.33 119.5 187.83 119.5 188.5 C 119.5 189.17 124.5 185 125.5 183.5 C 126.5 182 126.5 178.67 125.5 179.5 Z"/>
    <path fill="#007d38" stroke="#007d38" d="M 471.5 752.5 C 471 751 471 773.5 471.5 779.5 C 472 785.5 474.5 793 474.5 788.5 C 474.5 784 472 754 471.5 752.5 Z M 71.5 599.5 C 71 599.33 71.83 606 72.5 607.5 C 73.17 609 75.67 609.83 75.5 608.5 C 75.33 607.17 72 599.67 71.5 599.5 Z M 416.5 519.5 C 411.83 524 400.67 535.33 392.5 547.5 C 384.33 559.67 373.17 578.67 367.5 592.5 C 361.83 606.33 359.33 616.17 358.5 630.5 C 357.67 644.83 359.5 662.83 362.5 678.5 C 365.5 694.17 368.83 706.17 376.5 724.5 C 384.17 742.83 394.17 764.5 408.5 788.5 C 422.83 812.5 449.33 850.5 462.5 868.5 C 475.67 886.5 484.67 897.67 487.5 896.5 C 490.33 895.33 481.33 866 479.5 861.5 C 477.67 857 487 889.33 476.5 869.5 C 466 849.67 429.67 774.17 416.5 742.5 C 403.33 710.83 401.17 695.5 397.5 679.5 C 393.83 663.5 393.83 659.17 394.5 646.5 C 395.17 633.83 397.83 618.17 401.5 603.5 C 405.17 588.83 412.17 569.33 416.5 558.5 C 420.83 547.67 422.17 534.67 427.5 538.5 C 432.83 542.33 448 581.67 448.5 581.5 C 449 581.33 434.17 545.17 430.5 537.5 C 426.83 529.83 428.17 538.33 426.5 535.5 C 424.83 532.67 422.17 523.17 420.5 520.5 C 418.83 517.83 421.17 515 416.5 519.5 Z M 86.5 257.5 C 85.83 257.83 80.83 267 80.5 268.5 C 80.17 270 83.5 268.33 84.5 266.5 C 85.5 264.67 87.17 257.17 86.5 257.5 Z M 124.5 180.5 C 123.67 181 117.83 190.17 117.5 191.5 C 117.17 192.83 121.33 190.33 122.5 188.5 C 123.67 186.67 125.33 180 124.5 180.5 Z M 167.5 113.5 C 166.33 114.5 158 126.17 157.5 127.5 C 157 128.83 162.83 123.83 164.5 121.5 C 166.17 119.17 168.67 112.5 167.5 113.5 Z M 177.5 103.5 C 178.17 102.33 174 103.17 172.5 104.5 C 171 105.83 167.67 111.67 168.5 111.5 C 169.33 111.33 176.83 104.67 177.5 103.5 Z M 215.5 57.5 C 214.17 58.17 207.5 65.67 207.5 66.5 C 207.5 67.33 214.17 64 215.5 62.5 C 216.83 61 216.83 56.83 215.5 57.5 Z"/>
  </g>
</svg>
