<svg xmlns="http://www.w3.org/2000/svg" width="899" height="921" viewBox="0 0 899 921" role="img" aria-labelledby="title desc">
  <title id="title">Nur logo loop frame 030</title>
  <desc id="desc">Vector-traced frame from Nur_Logo_Loop_02.gif.</desc>
  <g id="frame-030" stroke-linejoin="round" stroke-linecap="round" stroke-width="0.5" shape-rendering="geometricPrecision">
    <path fill="#008136" stroke="#008136" d="M 240.5 79.5 C 230.83 84.83 197.33 105 182.5 117.5 C 167.67 130 163.17 137.83 151.5 154.5 C 139.83 171.17 124.33 193.33 112.5 217.5 C 100.67 241.67 89.17 273.17 80.5 299.5 C 71.83 325.83 65.5 350.83 60.5 375.5 C 55.5 400.17 51.33 421.83 50.5 447.5 C 49.67 473.17 54.17 515.67 55.5 529.5 C 56.83 543.33 58.5 529.83 58.5 530.5 C 58.5 531.17 53.33 519.5 55.5 533.5 C 57.67 547.5 64.67 591.83 71.5 614.5 C 78.33 637.17 85.17 649.17 96.5 669.5 C 107.83 689.83 124.17 716 139.5 736.5 C 154.83 757 171.67 776 188.5 792.5 C 205.33 809 222.67 823.17 240.5 835.5 C 258.33 847.83 273.83 856.83 295.5 866.5 C 317.17 876.17 345.83 886.67 370.5 893.5 C 395.17 900.33 423 905.17 443.5 907.5 C 464 909.83 486.67 911.5 493.5 907.5 C 500.33 903.5 487.17 894.17 484.5 883.5 C 481.83 872.83 479.17 866.83 477.5 843.5 C 475.83 820.17 476.17 773.5 474.5 743.5 C 472.83 713.5 470.5 687 467.5 663.5 C 464.5 640 460.83 620.17 456.5 602.5 C 452.17 584.83 448.17 572.67 441.5 557.5 C 434.83 542.33 425 525.17 416.5 511.5 C 408 497.83 407.83 493.5 390.5 475.5 C 373.17 457.5 333 423.5 312.5 403.5 C 292 383.5 280.33 372.67 267.5 355.5 C 254.67 338.33 243 314.67 235.5 300.5 C 228 286.33 226.33 284.5 222.5 270.5 C 218.67 256.5 213.67 237 212.5 216.5 C 211.33 196 213 166.33 215.5 147.5 C 218 128.67 223.33 113.83 227.5 103.5 C 231.67 93.17 238.33 89.5 240.5 85.5 C 242.67 81.5 250.17 74.17 240.5 79.5 Z"/>
    <path fill="#83bb26" stroke="#83bb26" d="M 459.5 473.5 C 461.67 466.17 447.67 480.33 440.5 486.5 C 433.33 492.67 418.67 503.17 416.5 510.5 C 414.33 517.83 420.33 536.67 427.5 530.5 C 434.67 524.33 457.33 480.83 459.5 473.5 Z M 613.5 43.5 C 611.67 44 626.83 47.17 637.5 52.5 C 648.17 57.83 662.33 64.17 677.5 75.5 C 692.67 86.83 717.67 109.83 728.5 120.5 C 739.33 131.17 738.83 133.33 742.5 139.5 C 746.17 145.67 747.5 145.67 750.5 157.5 C 753.5 169.33 758.83 196.83 760.5 210.5 C 762.17 224.17 761.17 230.83 760.5 239.5 C 759.83 248.17 759.17 254 756.5 262.5 C 753.83 271 748.67 282.67 744.5 290.5 C 740.33 298.33 737.67 302.17 731.5 309.5 C 725.33 316.83 717.17 325.83 707.5 334.5 C 697.83 343.17 690.17 350.67 673.5 361.5 C 656.83 372.33 613.83 375.83 607.5 399.5 C 601.17 423.17 630.17 479.67 635.5 503.5 C 640.83 527.33 639 526.83 639.5 542.5 C 640 558.17 630.5 593 638.5 597.5 C 646.5 602 669.83 581 687.5 569.5 C 705.17 558 729.33 540.5 744.5 528.5 C 759.67 516.5 767.5 509.67 778.5 497.5 C 789.5 485.33 801.17 470.5 810.5 455.5 C 819.83 440.5 828.67 421.67 834.5 407.5 C 840.33 393.33 842.83 381.83 845.5 370.5 C 848.17 359.17 849.33 355.33 850.5 339.5 C 851.67 323.67 853.17 292.17 852.5 275.5 C 851.83 258.83 850.33 252.33 846.5 239.5 C 842.67 226.67 837.67 213.33 829.5 198.5 C 821.33 183.67 809.83 166.17 797.5 150.5 C 785.17 134.83 768 116 755.5 104.5 C 743 93 733.17 88 722.5 81.5 C 711.83 75 703.83 70.83 691.5 65.5 C 679.17 60.17 661.5 53.17 648.5 49.5 C 635.5 45.83 615.33 43 613.5 43.5 Z"/>
    <path fill="#6ab12d" stroke="#6ab12d" d="M 456.5 159.5 C 459.5 164 474.67 177 482.5 189.5 C 490.33 202 498.83 217.5 503.5 234.5 C 508.17 251.5 509.83 270.33 510.5 291.5 C 511.17 312.67 509.17 343.67 507.5 361.5 C 505.83 379.33 513.5 371 500.5 398.5 C 487.5 426 441.83 505.17 429.5 526.5 C 417.17 547.83 428.5 529.17 426.5 526.5 C 424.5 523.83 419.33 512.5 417.5 510.5 C 415.67 508.5 414 510.83 415.5 514.5 C 417 518.17 424 529.33 426.5 532.5 C 429 535.67 427.33 538.33 430.5 533.5 C 433.67 528.67 439.33 513.83 445.5 503.5 C 451.67 493.17 455.67 481.5 467.5 471.5 C 479.33 461.5 493.5 454.67 516.5 443.5 C 539.5 432.33 586.67 398.17 605.5 404.5 C 624.33 410.83 624.17 459.5 629.5 481.5 C 634.83 503.5 636.67 517 637.5 536.5 C 638.33 556 643.5 584 634.5 598.5 C 625.5 613 597.5 615.83 583.5 623.5 C 569.5 631.17 564.83 633 550.5 644.5 C 536.17 656 509 680.83 497.5 692.5 C 486 704.17 485 704.67 481.5 714.5 C 478 724.33 477.17 740.5 476.5 751.5 C 475.83 762.5 473.67 755.83 477.5 780.5 C 481.33 805.17 496.33 879.33 499.5 899.5 C 502.67 919.67 498 902.5 496.5 901.5 C 495 900.5 492 894.33 490.5 893.5 C 489 892.67 486.67 894.17 487.5 896.5 C 488.33 898.83 482.5 922.67 495.5 907.5 C 508.5 892.33 548 833.67 565.5 805.5 C 583 777.33 590 765.33 600.5 738.5 C 611 711.67 622 670.17 628.5 644.5 C 635 618.83 637.5 601.83 639.5 584.5 C 641.5 567.17 641.33 556.17 640.5 540.5 C 639.67 524.83 637.83 507.83 634.5 490.5 C 631.17 473.17 626.83 457.17 620.5 436.5 C 614.17 415.83 606 391.17 596.5 366.5 C 587 341.83 577.17 315.83 563.5 288.5 C 549.83 261.17 531 223.5 514.5 202.5 C 498 181.5 474.17 169.67 464.5 162.5 C 454.83 155.33 453.5 155 456.5 159.5 Z"/>
    <path fill="#009f3a" stroke="#009f3a" d="M 607.5 403.5 C 588.83 400 537 432.17 514.5 442.5 C 492 452.83 481.67 459.83 472.5 465.5 C 463.33 471.17 466.67 465.5 459.5 476.5 C 452.33 487.5 435.17 522.67 429.5 531.5 C 423.83 540.33 422.67 522.33 425.5 529.5 C 428.33 536.67 440.33 556.17 446.5 574.5 C 452.67 592.83 458.33 615.5 462.5 639.5 C 466.67 663.5 469.17 684.17 471.5 718.5 C 473.83 752.83 474.5 817.67 476.5 845.5 C 478.5 873.33 480.83 875.17 483.5 885.5 C 486.17 895.83 490.67 904.67 492.5 907.5 C 494.33 910.33 493.17 903.5 494.5 902.5 C 495.83 901.5 503.17 922.17 500.5 901.5 C 497.83 880.83 482.17 805.83 478.5 778.5 C 474.83 751.17 477.83 747.83 478.5 737.5 C 479.17 727.17 479.17 723.67 482.5 716.5 C 485.83 709.33 486.83 706.33 498.5 694.5 C 510.17 682.67 538 657.17 552.5 645.5 C 567 633.83 571.67 632 585.5 624.5 C 599.33 617 626.67 608.17 635.5 600.5 C 644.33 592.83 638.5 594 638.5 578.5 C 638.5 563 637.5 526.67 635.5 507.5 C 633.5 488.33 631.17 480.83 626.5 463.5 C 621.83 446.17 626.17 407 607.5 403.5 Z"/>
    <path fill="#007a39" stroke="#007a39" d="M 427.5 538.5 C 423 551 408 596.5 403.5 613.5 C 399 630.5 400.5 629.17 400.5 640.5 C 400.5 651.83 398.5 660.17 403.5 681.5 C 408.5 702.83 417.67 736.33 430.5 768.5 C 443.33 800.67 473 862.17 480.5 874.5 C 488 886.83 477 867.5 475.5 842.5 C 474 817.5 473.67 758.17 471.5 724.5 C 469.33 690.83 466.33 664.5 462.5 640.5 C 458.67 616.5 453.83 597.5 448.5 580.5 C 443.17 563.5 434 545.5 430.5 538.5 C 427 531.5 432 526 427.5 538.5 Z M 236.5 88.5 C 236.83 87.17 233.5 88.83 232.5 90.5 C 231.5 92.17 229.83 98.83 230.5 98.5 C 231.17 98.17 236.17 89.83 236.5 88.5 Z"/>
    <path fill="#007d38" stroke="#007d38" d="M 473.5 829.5 C 473.67 832.5 477 850.83 477.5 851.5 C 478 852.17 477.17 837.17 476.5 833.5 C 475.83 829.83 473.33 826.5 473.5 829.5 Z M 115.5 699.5 C 115.83 700.67 129.17 719.83 131.5 722.5 C 133.83 725.17 132.17 719.33 129.5 715.5 C 126.83 711.67 115.17 698.33 115.5 699.5 Z M 456.5 618.5 C 457 622.17 462 643 462.5 643.5 C 463 644 460.5 625.67 459.5 621.5 C 458.5 617.33 456 614.83 456.5 618.5 Z M 62.5 575.5 C 62 575.5 64.5 588 65.5 590.5 C 66.5 593 69 593 68.5 590.5 C 68 588 63 575.5 62.5 575.5 Z M 415.5 516.5 C 407.5 520.33 391.5 548.17 383.5 562.5 C 375.5 576.83 371 590.5 367.5 602.5 C 364 614.5 362.5 620.83 362.5 634.5 C 362.5 648.17 365.17 671.5 367.5 684.5 C 369.83 697.5 369.67 696.5 376.5 712.5 C 383.33 728.5 402.5 768.83 408.5 780.5 C 414.5 792.17 408 775.33 412.5 782.5 C 417 789.67 427.33 810.5 435.5 823.5 C 443.67 836.5 453.5 850.33 461.5 860.5 C 469.5 870.67 480.5 884.33 483.5 884.5 C 486.5 884.67 481 865.5 479.5 861.5 C 478 857.5 482.5 876.33 474.5 860.5 C 466.5 844.67 443.17 796.67 431.5 766.5 C 419.83 736.33 409.5 698.17 404.5 679.5 C 399.5 660.83 401.5 665.17 401.5 654.5 C 401.5 643.83 402.83 626.83 404.5 615.5 C 406.17 604.17 407.5 598.83 411.5 586.5 C 415.5 574.17 423 542.83 428.5 541.5 C 434 540.17 441.17 571.83 444.5 578.5 C 447.83 585.17 450.67 588 448.5 581.5 C 446.33 575 437 550.33 431.5 539.5 C 426 528.67 423.5 512.67 415.5 516.5 Z M 102.5 246.5 C 101.67 247 97.5 253.67 97.5 254.5 C 97.5 255.33 101.67 252.83 102.5 251.5 C 103.33 250.17 103.33 246 102.5 246.5 Z M 111.5 225.5 C 111 225.5 106.83 232.17 106.5 233.5 C 106.17 234.83 108.67 234.83 109.5 233.5 C 110.33 232.17 112 225.5 111.5 225.5 Z M 150.5 158.5 C 149.17 159.67 142.5 168.83 142.5 169.5 C 142.5 170.17 149.17 164.33 150.5 162.5 C 151.83 160.67 151.83 157.33 150.5 158.5 Z M 231.5 98.5 C 231.5 97.67 227.33 100.17 226.5 101.5 C 225.67 102.83 225.67 107 226.5 106.5 C 227.33 106 231.5 99.33 231.5 98.5 Z"/>
  </g>
</svg>
