<svg xmlns="http://www.w3.org/2000/svg" width="899" height="921" viewBox="0 0 899 921" role="img" aria-labelledby="title desc">
  <title id="title">Nur logo loop frame 059</title>
  <desc id="desc">Vector-traced frame from Nur_Logo_Loop_02.gif.</desc>
  <g id="frame-059" stroke-linejoin="round" stroke-linecap="round" stroke-width="0.5" shape-rendering="geometricPrecision">
    <path fill="#008136" stroke="#008136" d="M 201.5 51.5 C 193.83 60.5 175 84 157.5 110.5 C 140 137 110.83 183.67 96.5 210.5 C 82.17 237.33 78 253.17 71.5 271.5 C 65 289.83 61.33 303.33 57.5 320.5 C 53.67 337.67 49.83 363.33 48.5 374.5 C 47.17 385.67 49.83 384.67 49.5 387.5 C 49.17 390.33 47.67 379.17 46.5 391.5 C 45.33 403.83 42.17 440.83 42.5 461.5 C 42.83 482.17 47 506.33 48.5 515.5 C 50 524.67 51 513.33 51.5 516.5 C 52 519.67 48.17 518.17 51.5 534.5 C 54.83 550.83 64 592 71.5 614.5 C 79 637 85.17 649.17 96.5 669.5 C 107.83 689.83 124.17 716 139.5 736.5 C 154.83 757 171.67 776 188.5 792.5 C 205.33 809 222.67 823.17 240.5 835.5 C 258.33 847.83 273.83 856.83 295.5 866.5 C 317.17 876.17 345.83 886.67 370.5 893.5 C 395.17 900.33 423 905.17 443.5 907.5 C 464 909.83 486.67 911.67 493.5 907.5 C 500.33 903.33 487.17 893.17 484.5 882.5 C 481.83 871.83 479.17 866.67 477.5 843.5 C 475.83 820.33 476.17 773.5 474.5 743.5 C 472.83 713.5 470.5 687 467.5 663.5 C 464.5 640 459.83 617.67 456.5 602.5 C 453.17 587.33 451.67 583.5 447.5 572.5 C 443.33 561.5 439.83 551.33 431.5 536.5 C 423.17 521.67 421.5 509.33 397.5 483.5 C 373.5 457.67 312.83 406.67 287.5 381.5 C 262.17 356.33 257.83 349.17 245.5 332.5 C 233.17 315.83 221.83 298.5 213.5 281.5 C 205.17 264.5 199.83 247.67 195.5 230.5 C 191.17 213.33 188.83 194.17 187.5 178.5 C 186.17 162.83 185.33 156.67 187.5 136.5 C 189.67 116.33 197.83 70.83 200.5 57.5 C 203.17 44.17 203.33 57.5 203.5 56.5 C 203.67 55.5 209.17 42.5 201.5 51.5 Z"/>
    <path fill="#83bb26" stroke="#83bb26" d="M 442.5 500.5 C 441.5 498.5 423.17 512.67 420.5 517.5 C 417.83 522.33 422.83 532.33 426.5 529.5 C 430.17 526.67 443.5 502.5 442.5 500.5 Z M 672.5 29.5 C 664.33 25 665 27.67 668.5 31.5 C 672 35.33 684.33 43.67 693.5 52.5 C 702.67 61.33 712.67 70.33 723.5 84.5 C 734.33 98.67 749.5 121.33 758.5 137.5 C 767.5 153.67 773.33 166.67 777.5 181.5 C 781.67 196.33 784.33 211 783.5 226.5 C 782.67 242 778.67 259.83 772.5 274.5 C 766.33 289.17 756 302.67 746.5 314.5 C 737 326.33 725.5 336.5 715.5 345.5 C 705.5 354.5 702.17 358.17 686.5 368.5 C 670.83 378.83 628.83 387 621.5 407.5 C 614.17 428 638.5 462.33 642.5 491.5 C 646.5 520.67 645.67 562.5 645.5 582.5 C 645.33 602.5 635.5 610.17 641.5 611.5 C 647.5 612.83 666.17 600 681.5 590.5 C 696.83 581 717.5 566.67 733.5 554.5 C 749.5 542.33 765.5 528.67 777.5 517.5 C 789.5 506.33 796.67 498.5 805.5 487.5 C 814.33 476.5 822.33 465.67 830.5 451.5 C 838.67 437.33 848.17 419 854.5 402.5 C 860.83 386 865.5 368 868.5 352.5 C 871.5 337 872.33 323.5 872.5 309.5 C 872.67 295.5 871 280 869.5 268.5 C 868 257 866.33 250 863.5 240.5 C 860.67 231 858.67 223.83 852.5 211.5 C 846.33 199.17 839.67 184.83 826.5 166.5 C 813.33 148.17 791.67 119.5 773.5 101.5 C 755.33 83.5 734.33 70.5 717.5 58.5 C 700.67 46.5 680.67 34 672.5 29.5 Z"/>
    <path fill="#6ab12d" stroke="#6ab12d" d="M 639.5 615.5 C 626.5 616.83 576 646 554.5 658.5 C 533 671 521.67 681.33 510.5 690.5 C 499.33 699.67 493.17 704.5 487.5 713.5 C 481.83 722.5 478.67 734.5 476.5 744.5 C 474.33 754.5 474.5 764 474.5 773.5 C 474.5 783 473.33 782 476.5 801.5 C 479.67 821 491.83 877.5 493.5 890.5 C 495.17 903.5 488.17 880.83 486.5 879.5 C 484.83 878.17 482.33 877.83 483.5 882.5 C 484.67 887.17 490.33 904.67 493.5 907.5 C 496.67 910.33 494.67 910 502.5 899.5 C 510.33 889 526.67 865.83 540.5 844.5 C 554.33 823.17 572.67 796 585.5 771.5 C 598.33 747 609.67 717.67 617.5 697.5 C 625.33 677.33 628.83 664.17 632.5 650.5 C 636.17 636.83 652.5 614.17 639.5 615.5 Z M 487.5 134.5 C 483.17 131.83 498.67 164.83 503.5 183.5 C 508.33 202.17 514 225.5 516.5 246.5 C 519 267.5 518.83 293.67 518.5 309.5 C 518.17 325.33 517 328.83 514.5 341.5 C 512 354.17 508 372.33 503.5 385.5 C 499 398.67 500 397 487.5 420.5 C 475 444 439.5 510.33 428.5 526.5 C 417.5 542.67 423 518.5 421.5 517.5 C 420 516.5 418.33 517.5 419.5 520.5 C 420.67 523.5 426.33 533 428.5 535.5 C 430.67 538 428.83 541.33 432.5 535.5 C 436.17 529.67 444.17 508.83 450.5 500.5 C 456.83 492.17 459 492.33 470.5 485.5 C 482 478.67 494.33 471.33 519.5 459.5 C 544.67 447.67 602.33 414.83 621.5 414.5 C 640.67 414.17 631.17 444 634.5 457.5 C 637.83 471 639.83 481.17 641.5 495.5 C 643.17 509.83 644.67 525.17 644.5 543.5 C 644.33 561.83 640.83 594 640.5 605.5 C 640.17 617 641.5 616 642.5 612.5 C 643.5 609 646.33 605 646.5 584.5 C 646.67 564 646.67 516.83 643.5 489.5 C 640.33 462.17 633.67 441.83 627.5 420.5 C 621.33 399.17 616.5 386 606.5 361.5 C 596.5 337 580.33 300.5 567.5 273.5 C 554.67 246.5 542.83 222.67 529.5 199.5 C 516.17 176.33 491.83 137.17 487.5 134.5 Z"/>
    <path fill="#009f3a" stroke="#009f3a" d="M 474.5 772.5 C 471.67 766.5 477 842.83 478.5 861.5 C 480 880.17 481.17 877.5 483.5 884.5 C 485.83 891.5 491.67 902.33 492.5 903.5 C 493.33 904.67 488 892.5 488.5 891.5 C 489 890.5 497.83 917.33 495.5 897.5 C 493.17 877.67 477.33 778.5 474.5 772.5 Z M 622.5 412.5 C 602.83 413 543.17 446.5 517.5 458.5 C 491.83 470.5 479.83 477.83 468.5 484.5 C 457.17 491.17 455.67 490.33 449.5 498.5 C 443.33 506.67 435.17 527.83 431.5 533.5 C 427.83 539.17 425 525.67 427.5 532.5 C 430 539.33 441 558.5 446.5 574.5 C 452 590.5 456.67 608.5 460.5 628.5 C 464.33 648.5 467.33 671.17 469.5 694.5 C 471.67 717.83 471 763.67 473.5 768.5 C 476 773.33 479.17 735.33 484.5 723.5 C 489.83 711.67 492.17 709 505.5 697.5 C 518.83 686 541.83 668.33 564.5 654.5 C 587.17 640.67 628 627.67 641.5 614.5 C 655 601.33 645.33 595.67 645.5 575.5 C 645.67 555.33 644.17 513.5 642.5 493.5 C 640.83 473.5 638.83 469 635.5 455.5 C 632.17 442 642.17 412 622.5 412.5 Z"/>
    <path fill="#007a39" stroke="#007a39" d="M 427.5 537.5 C 423.17 543 414.67 569.5 410.5 583.5 C 406.33 597.5 403.83 606.33 402.5 621.5 C 401.17 636.67 401.17 660 402.5 674.5 C 403.83 689 406.5 695.67 410.5 708.5 C 414.5 721.33 416 727 426.5 751.5 C 437 776 464.83 837.33 473.5 855.5 C 482.17 873.67 478.83 882.33 478.5 860.5 C 478.17 838.67 474.17 761.17 471.5 724.5 C 468.83 687.83 466.33 664.5 462.5 640.5 C 458.67 616.5 452.83 595.5 448.5 580.5 C 444.17 565.5 440 557.67 436.5 550.5 C 433 543.33 431.83 532 427.5 537.5 Z"/>
    <path fill="#007d38" stroke="#007d38" d="M 115.5 699.5 C 115.83 700.67 129.17 719.83 131.5 722.5 C 133.83 725.17 132.17 719.33 129.5 715.5 C 126.83 711.67 115.17 698.33 115.5 699.5 Z M 456.5 618.5 C 457 622.17 462 643 462.5 643.5 C 463 644 460.5 625.67 459.5 621.5 C 458.5 617.33 456 614.83 456.5 618.5 Z M 71.5 608.5 C 70.83 608 70.83 612.17 71.5 613.5 C 72.17 614.83 75.5 617.33 75.5 616.5 C 75.5 615.67 72.17 609 71.5 608.5 Z M 417.5 521.5 C 416.83 521.67 424.17 517.17 418.5 524.5 C 412.83 531.83 392 553.17 383.5 565.5 C 375 577.83 371.33 587.5 367.5 598.5 C 363.67 609.5 361.33 619.17 360.5 631.5 C 359.67 643.83 360.17 658.33 362.5 672.5 C 364.83 686.67 367.17 697.83 374.5 716.5 C 381.83 735.17 397.5 767.17 406.5 784.5 C 415.5 801.83 414.83 801.17 428.5 820.5 C 442.17 839.83 480.5 894.33 488.5 900.5 C 496.5 906.67 478.17 865.33 476.5 857.5 C 474.83 849.67 478.83 854.17 478.5 853.5 C 478.17 852.83 474.67 853.83 474.5 853.5 C 474.33 853.17 477.17 854.83 477.5 851.5 C 477.83 848.17 477 833.67 476.5 833.5 C 476 833.33 483.67 867 474.5 850.5 C 465.33 834 433.33 764.17 421.5 734.5 C 409.67 704.83 406.5 691 403.5 672.5 C 400.5 654 402.17 638 403.5 623.5 C 404.83 609 407.33 599.17 411.5 585.5 C 415.67 571.83 422.33 542.17 428.5 541.5 C 434.67 540.83 448.17 582.33 448.5 581.5 C 448.83 580.67 434.83 546.17 430.5 536.5 C 426.17 526.83 424.67 526 422.5 523.5 C 420.33 521 418.17 521.33 417.5 521.5 Z M 413.5 510.5 C 413.33 511 417.5 518.5 418.5 519.5 C 419.5 520.5 420.33 518 419.5 516.5 C 418.67 515 413.67 510 413.5 510.5 Z M 48.5 407.5 C 48 406.67 46.17 407.17 45.5 408.5 C 44.83 409.83 44 414.67 44.5 415.5 C 45 416.33 47.83 414.83 48.5 413.5 C 49.17 412.17 49 408.33 48.5 407.5 Z M 303.5 398.5 C 301.83 397.5 303.5 401.67 305.5 403.5 C 307.5 405.33 315.83 410.33 315.5 409.5 C 315.17 408.67 305.17 399.5 303.5 398.5 Z M 68.5 289.5 C 67.83 289.83 62.83 300.67 62.5 302.5 C 62.17 304.33 65.5 302.67 66.5 300.5 C 67.5 298.33 69.17 289.17 68.5 289.5 Z M 116.5 181.5 C 117 180.17 114.5 180.17 113.5 181.5 C 112.5 182.83 110 189.5 110.5 189.5 C 111 189.5 116 182.83 116.5 181.5 Z M 157.5 115.5 C 157 115.5 150.33 123.83 149.5 125.5 C 148.67 127.17 151.17 127.17 152.5 125.5 C 153.83 123.83 158 115.5 157.5 115.5 Z M 203.5 52.5 C 201.67 53.17 192.33 63.5 191.5 64.5 C 190.67 65.5 196.67 59.17 198.5 58.5 C 200.33 57.83 201.67 61.5 202.5 60.5 C 203.33 59.5 205.33 51.83 203.5 52.5 Z"/>
  </g>
</svg>
