<svg xmlns="http://www.w3.org/2000/svg" width="899" height="921" viewBox="0 0 899 921" role="img" aria-labelledby="title desc">
  <title id="title">Nur logo loop frame 023</title>
  <desc id="desc">Vector-traced frame from Nur_Logo_Loop_02.gif.</desc>
  <g id="frame-023" stroke-linejoin="round" stroke-linecap="round" stroke-width="0.5" shape-rendering="geometricPrecision">
    <path fill="#008136" stroke="#008136" d="M 249.5 85.5 C 238 92.67 200.17 115.33 183.5 128.5 C 166.83 141.67 161.33 149.17 149.5 164.5 C 137.67 179.83 123.67 199 112.5 220.5 C 101.33 242 89.83 272.17 82.5 293.5 C 75.17 314.83 72.67 326 68.5 348.5 C 64.33 371 58.83 400 57.5 428.5 C 56.17 457 57.33 489.67 60.5 519.5 C 63.67 549.33 69.33 582.17 76.5 607.5 C 83.67 632.83 92 649.5 103.5 671.5 C 115 693.5 132 720.33 145.5 739.5 C 159 758.67 168.83 770.67 184.5 786.5 C 200.17 802.33 221 821.17 239.5 834.5 C 258 847.83 276 857.33 295.5 866.5 C 315 875.67 334.5 883 356.5 889.5 C 378.5 896 404.67 902.5 427.5 905.5 C 450.33 908.5 484 911.33 493.5 907.5 C 503 903.67 487.17 893.17 484.5 882.5 C 481.83 871.83 479 863.17 477.5 843.5 C 476 823.83 477.17 794.5 475.5 764.5 C 473.83 734.5 470.67 690.5 467.5 663.5 C 464.33 636.5 460.83 620.17 456.5 602.5 C 452.17 584.83 448.5 573.17 441.5 557.5 C 434.5 541.83 423 522.17 414.5 508.5 C 406 494.83 407.5 493 390.5 475.5 C 373.5 458 335.5 426.5 312.5 403.5 C 289.5 380.5 266.33 355 252.5 337.5 C 238.67 320 235.67 311 229.5 298.5 C 223.33 286 218.33 272.33 215.5 262.5 C 212.67 252.67 213.5 243.5 212.5 239.5 C 211.5 235.5 210 245.33 209.5 238.5 C 209 231.67 209 205.33 209.5 198.5 C 210 191.67 211.5 201.83 212.5 197.5 C 213.5 193.17 213 184 215.5 172.5 C 218 161 221.33 143 227.5 128.5 C 233.67 114 248.83 92.67 252.5 85.5 C 256.17 78.33 261 78.33 249.5 85.5 Z"/>
    <path fill="#83bb26" stroke="#83bb26" d="M 463.5 468.5 C 466.5 460.17 453.5 473.67 445.5 480.5 C 437.5 487.33 418.5 501.17 415.5 509.5 C 412.5 517.83 419.5 537.33 427.5 530.5 C 435.5 523.67 460.5 476.83 463.5 468.5 Z M 626.5 80.5 C 618.17 80.5 620 80.83 618.5 81.5 C 617 82.17 613.67 83.83 617.5 84.5 C 621.33 85.17 632.83 84.33 641.5 85.5 C 650.17 86.67 659.67 88.33 669.5 91.5 C 679.33 94.67 691.83 100 700.5 104.5 C 709.17 109 715.5 113.67 721.5 118.5 C 727.5 123.33 732.5 128.33 736.5 133.5 C 740.5 138.67 742.17 138.17 745.5 149.5 C 748.83 160.83 754.67 188 756.5 201.5 C 758.33 215 757.33 220.67 756.5 230.5 C 755.67 240.33 754.67 250 751.5 260.5 C 748.33 271 741.83 285 737.5 293.5 C 733.17 302 731.17 304.5 725.5 311.5 C 719.83 318.5 711.67 327.83 703.5 335.5 C 695.33 343.17 691.83 347.5 676.5 357.5 C 661.17 367.5 621.67 388.67 611.5 395.5 C 601.33 402.33 610.33 382.33 615.5 398.5 C 620.67 414.67 637.17 469.83 642.5 492.5 C 647.83 515.17 647 518.67 647.5 534.5 C 648 550.33 636.5 584.17 645.5 587.5 C 654.5 590.83 685.33 565.33 701.5 554.5 C 717.67 543.67 729.17 534.17 742.5 522.5 C 755.83 510.83 770.83 496.33 781.5 484.5 C 792.17 472.67 798.5 464.17 806.5 451.5 C 814.5 438.83 823.5 422.33 829.5 408.5 C 835.5 394.67 839.5 380.67 842.5 368.5 C 845.5 356.33 846.5 349.83 847.5 335.5 C 848.5 321.17 849.5 298.5 848.5 282.5 C 847.5 266.5 845.67 253.67 841.5 239.5 C 837.33 225.33 830.67 210.67 823.5 197.5 C 816.33 184.33 808 172.5 798.5 160.5 C 789 148.5 776.33 134.83 766.5 125.5 C 756.67 116.17 749 110.33 739.5 104.5 C 730 98.67 721.33 94.33 709.5 90.5 C 697.67 86.67 682.33 83.17 668.5 81.5 C 654.67 79.83 634.83 80.5 626.5 80.5 Z"/>
    <path fill="#6ab12d" stroke="#6ab12d" d="M 636.5 593.5 C 629 585.5 592.5 613.5 577.5 621.5 C 562.5 629.5 556.33 634.33 546.5 641.5 C 536.67 648.67 530.17 652.83 518.5 664.5 C 506.83 676.17 484 701.67 476.5 711.5 C 469 721.33 473.67 709.33 473.5 723.5 C 473.33 737.67 472.67 770.33 475.5 796.5 C 478.33 822.67 489 868 490.5 880.5 C 492 893 485.83 871.83 484.5 871.5 C 483.17 871.17 481 872.5 482.5 878.5 C 484 884.5 490.17 904 493.5 907.5 C 496.83 911 494.67 910 502.5 899.5 C 510.33 889 525.5 868.17 540.5 844.5 C 555.5 820.83 578.83 786.67 592.5 757.5 C 606.17 728.33 615.17 696.83 622.5 669.5 C 629.83 642.17 644 601.5 636.5 593.5 Z M 442.5 162.5 C 443.33 165.5 471.83 188.67 479.5 196.5 C 487.17 204.33 484.83 202.17 488.5 209.5 C 492.17 216.83 498.33 226.67 501.5 240.5 C 504.67 254.33 506.83 270 507.5 292.5 C 508.17 315 507.33 356.17 505.5 375.5 C 503.67 394.83 509.17 383.5 496.5 408.5 C 483.83 433.5 441.17 505.83 429.5 525.5 C 417.83 545.17 428.5 529 426.5 526.5 C 424.5 524 419.5 512.83 417.5 510.5 C 415.5 508.17 412.67 508.33 414.5 512.5 C 416.33 516.67 425.5 531.5 428.5 535.5 C 431.5 539.5 429 542.17 432.5 536.5 C 436 530.83 442.5 513.67 449.5 501.5 C 456.5 489.33 465.33 472.67 474.5 463.5 C 483.67 454.33 481.33 457.33 504.5 446.5 C 527.67 435.67 591 392.17 613.5 398.5 C 636 404.83 634 460.5 639.5 484.5 C 645 508.5 645.83 525.17 646.5 542.5 C 647.17 559.83 643.5 580.83 643.5 588.5 C 643.5 596.17 645.67 597.83 646.5 588.5 C 647.33 579.17 649 548.83 648.5 532.5 C 648 516.17 645.83 504 643.5 490.5 C 641.17 477 639.17 467.33 634.5 451.5 C 629.83 435.67 620.17 404.67 615.5 395.5 C 610.83 386.33 614.5 413.5 606.5 396.5 C 598.5 379.5 583.67 325.5 567.5 293.5 C 551.33 261.5 525 223.67 509.5 204.5 C 494 185.33 485.67 185.5 474.5 178.5 C 463.33 171.5 441.67 159.5 442.5 162.5 Z"/>
    <path fill="#009f3a" stroke="#009f3a" d="M 474.5 793.5 C 474.67 804.5 477.17 847.17 478.5 861.5 C 479.83 875.83 481.17 876.5 482.5 879.5 C 483.83 882.5 486.33 879.17 486.5 879.5 C 486.67 879.83 483.83 880.33 483.5 881.5 C 483.17 882.67 484 886.67 484.5 886.5 C 485 886.33 485 880 486.5 880.5 C 488 881 495 903.67 493.5 889.5 C 492 875.33 480.67 811.5 477.5 795.5 C 474.33 779.5 474.33 782.5 474.5 793.5 Z M 615.5 397.5 C 594 388.5 537.33 429.67 513.5 440.5 C 489.67 451.33 483.33 452.67 472.5 462.5 C 461.67 472.33 455.5 487.5 448.5 499.5 C 441.5 511.5 434.33 529.5 430.5 534.5 C 426.67 539.5 422.83 522.83 425.5 529.5 C 428.17 536.17 440.67 558 446.5 574.5 C 452.33 591 456.67 608.5 460.5 628.5 C 464.33 648.5 467.17 667.5 469.5 694.5 C 471.83 721.5 473.67 785.33 474.5 790.5 C 475.33 795.67 474 738.33 474.5 725.5 C 475 712.67 475 718.17 477.5 713.5 C 480 708.83 482.33 705.5 489.5 697.5 C 496.67 689.5 509.5 675.5 520.5 665.5 C 531.5 655.5 534.67 650.17 555.5 637.5 C 576.33 624.83 630.17 605.67 645.5 589.5 C 660.83 573.33 648 556.33 647.5 540.5 C 647 524.67 647.83 518.33 642.5 494.5 C 637.17 470.67 637 406.5 615.5 397.5 Z"/>
    <path fill="#007a39" stroke="#007a39" d="M 429.5 541.5 C 425 549.67 413.83 583.5 409.5 599.5 C 405.17 615.5 404.33 627.17 403.5 637.5 C 402.67 647.83 402.83 650.17 404.5 661.5 C 406.17 672.83 409.5 691 413.5 705.5 C 417.5 720 417.83 723.67 428.5 748.5 C 439.17 773.33 470.33 858.5 477.5 854.5 C 484.67 850.5 474 760.17 471.5 724.5 C 469 688.83 466.33 664.5 462.5 640.5 C 458.67 616.5 452.83 595.5 448.5 580.5 C 444.17 565.5 439.67 557 436.5 550.5 C 433.33 544 434 533.33 429.5 541.5 Z M 78.5 316.5 C 78 316.67 74.67 325 74.5 326.5 C 74.33 328 76.83 327.17 77.5 325.5 C 78.17 323.83 79 316.33 78.5 316.5 Z M 111.5 228.5 C 111.33 227.5 109.33 227.5 108.5 228.5 C 107.67 229.5 106.33 233.5 106.5 234.5 C 106.67 235.5 108.67 235.5 109.5 234.5 C 110.33 233.5 111.67 229.5 111.5 228.5 Z M 248.5 90.5 C 247.67 89.67 245.5 88.5 243.5 89.5 C 241.5 90.5 236.33 96.17 236.5 96.5 C 236.67 96.83 242.5 91.83 244.5 91.5 C 246.5 91.17 247.83 94.67 248.5 94.5 C 249.17 94.33 249.33 91.33 248.5 90.5 Z"/>
    <path fill="#007d38" stroke="#007d38" d="M 230.5 825.5 C 230.33 826.33 234.17 830.67 235.5 831.5 C 236.83 832.33 238.33 831.33 238.5 830.5 C 238.67 829.67 237.83 827.33 236.5 826.5 C 235.17 825.67 230.67 824.67 230.5 825.5 Z M 472.5 782.5 C 472.5 788.17 475 823.17 475.5 824.5 C 476 825.83 476 797.5 475.5 790.5 C 475 783.5 472.5 776.83 472.5 782.5 Z M 470.5 746.5 C 470 745.33 470 767.83 470.5 773.5 C 471 779.17 473.5 785 473.5 780.5 C 473.5 776 471 747.67 470.5 746.5 Z M 136.5 723.5 C 136 723.5 141 732.67 142.5 734.5 C 144 736.33 146.5 736.33 145.5 734.5 C 144.5 732.67 137 723.5 136.5 723.5 Z M 456.5 618.5 C 457 622.17 462 643 462.5 643.5 C 463 644 460.5 625.67 459.5 621.5 C 458.5 617.33 456 614.83 456.5 618.5 Z M 78.5 610.5 C 78.5 611.5 81.83 617.33 82.5 617.5 C 83.17 617.67 83.17 612.67 82.5 611.5 C 81.83 610.33 78.5 609.5 78.5 610.5 Z M 411.5 507.5 C 407 501 415.67 511 412.5 516.5 C 409.33 522 400 528.17 392.5 540.5 C 385 552.83 373.17 575.5 367.5 590.5 C 361.83 605.5 359.33 615.83 358.5 630.5 C 357.67 645.17 359.5 663 362.5 678.5 C 365.5 694 370.33 707.83 376.5 723.5 C 382.67 739.17 390.83 756.33 399.5 772.5 C 408.17 788.67 413.67 799.17 428.5 820.5 C 443.33 841.83 480.5 895.17 488.5 900.5 C 496.5 905.83 478.5 863.67 476.5 852.5 C 474.5 841.33 477.17 835.33 476.5 833.5 C 475.83 831.67 478.5 851.33 472.5 841.5 C 466.5 831.67 450.83 800 440.5 774.5 C 430.17 749 416.5 708.83 410.5 688.5 C 404.5 668.17 405.33 662.17 404.5 652.5 C 403.67 642.83 403.33 643.17 405.5 630.5 C 407.67 617.83 413.5 590.33 417.5 576.5 C 421.5 562.67 426.83 552.17 429.5 547.5 C 432.17 542.83 430.33 542.83 433.5 548.5 C 436.67 554.17 447.5 580.33 448.5 581.5 C 449.5 582.67 445.67 567.83 439.5 555.5 C 433.33 543.17 416 514 411.5 507.5 Z M 79.5 317.5 C 79 317.67 74.83 326 74.5 327.5 C 74.17 329 76.67 328.17 77.5 326.5 C 78.33 324.83 80 317.33 79.5 317.5 Z M 112.5 224.5 C 112 224.5 107 233.67 106.5 235.5 C 106 237.33 108.5 237.33 109.5 235.5 C 110.5 233.67 113 224.5 112.5 224.5 Z M 232.5 120.5 C 232.83 119 229.5 120.67 228.5 122.5 C 227.5 124.33 225.83 131.83 226.5 131.5 C 227.17 131.17 232.17 122 232.5 120.5 Z M 238.5 109.5 C 238.67 108.5 234.5 111 233.5 112.5 C 232.5 114 231.67 119 232.5 118.5 C 233.33 118 238.33 110.5 238.5 109.5 Z"/>
  </g>
</svg>
