<svg xmlns="http://www.w3.org/2000/svg" width="899" height="921" viewBox="0 0 899 921" role="img" aria-labelledby="title desc">
  <title id="title">Nur logo loop frame 049</title>
  <desc id="desc">Vector-traced frame from Nur_Logo_Loop_02.gif.</desc>
  <g id="frame-049" stroke-linejoin="round" stroke-linecap="round" stroke-width="0.5" shape-rendering="geometricPrecision">
    <path fill="#008136" stroke="#008136" d="M 216.5 60.5 C 206.5 70.67 172.33 107.5 157.5 126.5 C 142.67 145.5 132.33 166 127.5 174.5 C 122.67 183 131.5 172.67 128.5 177.5 C 125.5 182.33 116 192.5 109.5 203.5 C 103 214.5 96.17 227.17 89.5 243.5 C 82.83 259.83 73.17 289 69.5 301.5 C 65.83 314 68.33 315.5 67.5 318.5 C 66.67 321.5 67.67 305.5 64.5 319.5 C 61.33 333.5 51.83 378.17 48.5 402.5 C 45.17 426.83 43.67 442.5 44.5 465.5 C 45.33 488.5 49 515.67 53.5 540.5 C 58 565.33 64.33 593 71.5 614.5 C 78.67 636 85.17 649.17 96.5 669.5 C 107.83 689.83 124.17 716 139.5 736.5 C 154.83 757 171.67 776 188.5 792.5 C 205.33 809 222.67 823.17 240.5 835.5 C 258.33 847.83 273.83 856.83 295.5 866.5 C 317.17 876.17 345.83 886.67 370.5 893.5 C 395.17 900.33 423 905.17 443.5 907.5 C 464 909.83 486.67 911.67 493.5 907.5 C 500.33 903.33 487.17 893.17 484.5 882.5 C 481.83 871.83 479.17 866.67 477.5 843.5 C 475.83 820.33 476.17 773.5 474.5 743.5 C 472.83 713.5 470.5 687 467.5 663.5 C 464.5 640 460.83 620.17 456.5 602.5 C 452.17 584.83 450.67 576.5 441.5 557.5 C 432.33 538.5 412.83 505 401.5 488.5 C 390.17 472 388.33 472.67 373.5 458.5 C 358.67 444.33 331.67 422.33 312.5 403.5 C 293.33 384.67 271.17 360.17 258.5 345.5 C 245.83 330.83 244.67 328.83 236.5 315.5 C 228.33 302.17 213.83 274.67 209.5 265.5 C 205.17 256.33 213 270 210.5 260.5 C 208 251 197.17 227.83 194.5 208.5 C 191.83 189.17 193.33 161.67 194.5 144.5 C 195.67 127.33 197.67 118.67 201.5 105.5 C 205.33 92.33 215 73 217.5 65.5 C 220 58 226.5 50.33 216.5 60.5 Z"/>
    <path fill="#83bb26" stroke="#83bb26" d="M 448.5 491.5 C 447.17 489 423 509 419.5 515.5 C 416 522 422.67 534.5 427.5 530.5 C 432.33 526.5 449.83 494 448.5 491.5 Z M 644.5 38.5 C 634.83 34.5 630 31.83 641.5 41.5 C 653 51.17 696.5 81 713.5 96.5 C 730.5 112 734 118.67 743.5 134.5 C 753 150.33 765.17 178.17 770.5 191.5 C 775.83 204.83 774.67 206.5 775.5 214.5 C 776.33 222.5 777.17 229.17 775.5 239.5 C 773.83 249.83 771.5 263.83 765.5 276.5 C 759.5 289.17 752.83 301 739.5 315.5 C 726.17 330 706 348.5 685.5 363.5 C 665 378.5 624.33 385 616.5 405.5 C 608.67 426 634 461.5 638.5 486.5 C 643 511.5 643.17 535.5 643.5 555.5 C 643.83 575.5 634.67 601.33 640.5 606.5 C 646.33 611.67 664.33 595.17 678.5 586.5 C 692.67 577.83 709.67 566.5 725.5 554.5 C 741.33 542.5 760.83 526.17 773.5 514.5 C 786.17 502.83 792.17 496.33 801.5 484.5 C 810.83 472.67 821.67 456.83 829.5 443.5 C 837.33 430.17 843.17 418 848.5 404.5 C 853.83 391 858.67 374.5 861.5 362.5 C 864.33 350.5 864.83 346.17 865.5 332.5 C 866.17 318.83 866.17 293.83 865.5 280.5 C 864.83 267.17 864.33 263.5 861.5 252.5 C 858.67 241.5 855.67 229 848.5 214.5 C 841.33 200 830.17 181.5 818.5 165.5 C 806.83 149.5 787.67 128.5 778.5 118.5 C 769.33 108.5 776.67 114.33 763.5 105.5 C 750.33 96.67 719.33 76.67 699.5 65.5 C 679.67 54.33 654.17 42.5 644.5 38.5 Z"/>
    <path fill="#6ab12d" stroke="#6ab12d" d="M 638.5 610.5 C 631.33 603.5 594.67 629.67 579.5 637.5 C 564.33 645.33 559.5 648.83 547.5 657.5 C 535.5 666.17 518.17 679.33 507.5 689.5 C 496.83 699.67 488.67 709.33 483.5 718.5 C 478.33 727.67 478 736 476.5 744.5 C 475 753 473.83 756.83 474.5 769.5 C 475.17 782.17 477.17 800 480.5 820.5 C 483.83 841 493.5 882.67 494.5 892.5 C 495.5 902.33 488.33 881.17 486.5 879.5 C 484.67 877.83 482.33 877.83 483.5 882.5 C 484.67 887.17 490.33 904.67 493.5 907.5 C 496.67 910.33 494.67 910 502.5 899.5 C 510.33 889 525.17 868.83 540.5 844.5 C 555.83 820.17 580.83 781 594.5 753.5 C 608.17 726 615.17 703.33 622.5 679.5 C 629.83 655.67 645.67 617.5 638.5 610.5 Z M 473.5 138.5 C 470.33 139 490.5 174.17 496.5 191.5 C 502.5 208.83 506.83 230 509.5 242.5 C 512.17 255 512.5 249.33 512.5 266.5 C 512.5 283.67 511.83 324.17 509.5 345.5 C 507.17 366.83 511.83 364.5 498.5 394.5 C 485.17 424.5 441.5 503.5 429.5 525.5 C 417.5 547.5 428 528.17 426.5 526.5 C 425 524.83 422 517 420.5 515.5 C 419 514 415.67 514 417.5 517.5 C 419.33 521 425.67 540 431.5 536.5 C 437.33 533 447.5 504.83 452.5 496.5 C 457.5 488.17 451.5 493 461.5 486.5 C 471.5 480 486.83 470 512.5 457.5 C 538.17 445 596.33 413.5 615.5 411.5 C 634.67 409.5 623.83 432.33 627.5 445.5 C 631.17 458.67 635.17 474.67 637.5 490.5 C 639.83 506.33 641 520.83 641.5 540.5 C 642 560.17 640 603.33 640.5 608.5 C 641 613.67 644.33 589.17 644.5 571.5 C 644.67 553.83 642.83 519.67 641.5 502.5 C 640.17 485.33 639.5 482 636.5 468.5 C 633.5 455 630.5 442.17 623.5 421.5 C 616.5 400.83 609.5 378.5 594.5 344.5 C 579.5 310.5 546.67 243.5 533.5 217.5 C 520.33 191.5 525.5 201.67 515.5 188.5 C 505.5 175.33 476.67 138 473.5 138.5 Z"/>
    <path fill="#009f3a" stroke="#009f3a" d="M 616.5 409.5 C 596.83 411.67 537.5 443.17 510.5 456.5 C 483.5 469.83 467.67 476.67 454.5 489.5 C 441.33 502.33 436.33 526.83 431.5 533.5 C 426.67 540.17 423 522.67 425.5 529.5 C 428 536.33 440.33 556.17 446.5 574.5 C 452.67 592.83 458 611 462.5 639.5 C 467 668 471.17 711.17 473.5 745.5 C 475.83 779.83 474.83 822.33 476.5 845.5 C 478.17 868.67 480.83 874.17 483.5 884.5 C 486.17 894.83 490.67 904 492.5 907.5 C 494.33 911 495.17 908.17 494.5 905.5 C 493.83 902.83 488.5 892.33 488.5 891.5 C 488.5 890.67 493 899 494.5 900.5 C 496 902 500.5 920.33 497.5 900.5 C 494.5 880.67 479.83 807.17 476.5 781.5 C 473.17 755.83 476.17 756.67 477.5 746.5 C 478.83 736.33 479.17 729.83 484.5 720.5 C 489.83 711.17 498.67 700.83 509.5 690.5 C 520.33 680.17 537.5 667.17 549.5 658.5 C 561.5 649.83 566.5 646.5 581.5 638.5 C 596.5 630.5 629.33 627.17 639.5 610.5 C 649.67 593.83 642.67 558.83 642.5 538.5 C 642.33 518.17 640.83 504.33 638.5 488.5 C 636.17 472.67 632.17 456.67 628.5 443.5 C 624.83 430.33 636.17 407.33 616.5 409.5 Z"/>
    <path fill="#007a39" stroke="#007a39" d="M 428.5 540.5 C 425.67 542.17 423.5 547.5 419.5 560.5 C 415.5 573.5 407.17 600.33 404.5 618.5 C 401.83 636.67 399.83 647.67 403.5 669.5 C 407.17 691.33 414.5 717.83 426.5 749.5 C 438.5 781.17 466.83 841 475.5 859.5 C 484.17 878 479.17 883 478.5 860.5 C 477.83 838 474.17 761.17 471.5 724.5 C 468.83 687.83 466.33 664.5 462.5 640.5 C 458.67 616.5 452.83 595.5 448.5 580.5 C 444.17 565.5 439.83 557.17 436.5 550.5 C 433.17 543.83 431.33 538.83 428.5 540.5 Z M 129.5 176.5 C 130 175 127.5 175 126.5 176.5 C 125.5 178 123 185.5 123.5 185.5 C 124 185.5 129 178 129.5 176.5 Z M 136.5 163.5 C 135.67 164 129.83 172.33 129.5 173.5 C 129.17 174.67 133.33 172.17 134.5 170.5 C 135.67 168.83 137.33 163 136.5 163.5 Z M 161.5 123.5 C 160.5 124.33 155.5 131.83 155.5 132.5 C 155.5 133.17 160.5 129 161.5 127.5 C 162.5 126 162.5 122.67 161.5 123.5 Z"/>
    <path fill="#007d38" stroke="#007d38" d="M 115.5 699.5 C 115.83 700.67 129.17 719.83 131.5 722.5 C 133.83 725.17 132.17 719.33 129.5 715.5 C 126.83 711.67 115.17 698.33 115.5 699.5 Z M 456.5 618.5 C 457 622.17 462 643 462.5 643.5 C 463 644 460.5 625.67 459.5 621.5 C 458.5 617.33 456 614.83 456.5 618.5 Z M 413.5 510.5 C 409.83 504.83 422.17 513.17 417.5 521.5 C 412.83 529.83 393.83 547.67 385.5 560.5 C 377.17 573.33 371.67 586.83 367.5 598.5 C 363.33 610.17 361.17 617.5 360.5 630.5 C 359.83 643.5 361.83 664.17 363.5 676.5 C 365.17 688.83 366.5 693.17 370.5 704.5 C 374.5 715.83 378.5 726.5 387.5 744.5 C 396.5 762.5 417.67 801 424.5 812.5 C 431.33 824 419.33 800.83 428.5 813.5 C 437.67 826.17 469.67 875 479.5 888.5 C 489.33 902 488 899.67 487.5 894.5 C 487 889.33 478 864.33 476.5 857.5 C 475 850.67 478.67 854.33 478.5 853.5 C 478.33 852.67 476 856.5 475.5 852.5 C 475 848.5 475.67 829.83 475.5 829.5 C 475.33 829.17 482.5 864.17 474.5 850.5 C 466.5 836.83 439 777 427.5 747.5 C 416 718 409.17 694.67 405.5 673.5 C 401.83 652.33 403 639 405.5 620.5 C 408 602 416.33 575.33 420.5 562.5 C 424.67 549.67 424.67 536.17 430.5 543.5 C 436.33 550.83 454 604.5 455.5 606.5 C 457 608.5 446.5 571.5 439.5 555.5 C 432.5 539.5 417.17 516.17 413.5 510.5 Z M 208.5 262.5 C 207.83 262.17 207.83 266.33 208.5 267.5 C 209.17 268.67 212.5 270.33 212.5 269.5 C 212.5 268.67 209.17 262.83 208.5 262.5 Z M 85.5 261.5 C 84.67 262 81.33 267.83 81.5 268.5 C 81.67 269.17 85.83 266.67 86.5 265.5 C 87.17 264.33 86.33 261 85.5 261.5 Z M 136.5 165.5 C 137.17 163.17 135.5 162.83 133.5 165.5 C 131.5 168.17 125.17 179.17 124.5 181.5 C 123.83 183.83 127.5 182.17 129.5 179.5 C 131.5 176.83 135.83 167.83 136.5 165.5 Z M 209.5 71.5 C 210.17 70.5 206.83 70.5 205.5 71.5 C 204.17 72.5 200.83 77.5 201.5 77.5 C 202.17 77.5 208.83 72.5 209.5 71.5 Z"/>
  </g>
</svg>
