<svg xmlns="http://www.w3.org/2000/svg" width="899" height="921" viewBox="0 0 899 921" role="img" aria-labelledby="title desc">
  <title id="title">Nur logo loop frame 041</title>
  <desc id="desc">Vector-traced frame from Nur_Logo_Loop_02.gif.</desc>
  <g id="frame-041" stroke-linejoin="round" stroke-linecap="round" stroke-width="0.5" shape-rendering="geometricPrecision">
    <path fill="#008136" stroke="#008136" d="M 222.5 71.5 C 212.17 80.17 178.67 108.67 162.5 127.5 C 146.33 146.33 136.17 167.17 125.5 184.5 C 114.83 201.83 108 209.33 98.5 231.5 C 89 253.67 76.83 287.83 68.5 317.5 C 60.17 347.17 52.5 384.5 48.5 409.5 C 44.5 434.5 43.33 444.17 44.5 467.5 C 45.67 490.83 51 525 55.5 549.5 C 60 574 64.67 594.5 71.5 614.5 C 78.33 634.5 85.17 649.17 96.5 669.5 C 107.83 689.83 124.17 716 139.5 736.5 C 154.83 757 171.67 776 188.5 792.5 C 205.33 809 222.67 823.17 240.5 835.5 C 258.33 847.83 273.83 856.83 295.5 866.5 C 317.17 876.17 345.83 886.67 370.5 893.5 C 395.17 900.33 423 905.17 443.5 907.5 C 464 909.83 486.67 911.67 493.5 907.5 C 500.33 903.33 487.17 893.17 484.5 882.5 C 481.83 871.83 479.17 866.83 477.5 843.5 C 475.83 820.17 476.17 772.5 474.5 742.5 C 472.83 712.5 470.5 686.83 467.5 663.5 C 464.5 640.17 460.83 620.17 456.5 602.5 C 452.17 584.83 447.83 572.17 441.5 557.5 C 435.17 542.83 426 527 418.5 514.5 C 411 502 419 505.83 396.5 482.5 C 374 459.17 307.5 398.83 283.5 374.5 C 259.5 350.17 262.33 350.33 252.5 336.5 C 242.67 322.67 231.17 304.33 224.5 291.5 C 217.83 278.67 215 265 212.5 259.5 C 210 254 209.83 259.5 209.5 258.5 C 209.17 257.5 210.83 254.5 210.5 253.5 C 210.17 252.5 207.83 253.67 207.5 252.5 C 207.17 251.33 209.33 249.67 208.5 246.5 C 207.67 243.33 204.33 240.17 202.5 233.5 C 200.67 226.83 198 219.67 197.5 206.5 C 197 193.33 197.83 171.5 199.5 154.5 C 201.17 137.5 203.33 117.67 207.5 104.5 C 211.67 91.33 222 81 224.5 75.5 C 227 70 232.83 62.83 222.5 71.5 Z"/>
    <path fill="#83bb26" stroke="#83bb26" d="M 450.5 487.5 C 449 484.67 422.33 506.33 418.5 513.5 C 414.67 520.67 422.17 534.83 427.5 530.5 C 432.83 526.17 452 490.33 450.5 487.5 Z M 627.5 45.5 C 622.67 45 618.5 45 629.5 52.5 C 640.5 60 677.17 79.17 693.5 90.5 C 709.83 101.83 717 107.5 727.5 120.5 C 738 133.5 750 156.17 756.5 168.5 C 763 180.83 764 185.5 766.5 194.5 C 769 203.5 770.83 214.17 771.5 222.5 C 772.17 230.83 771.83 236.33 770.5 244.5 C 769.17 252.67 768.67 260.5 763.5 271.5 C 758.33 282.5 752.5 295.83 739.5 310.5 C 726.5 325.17 706.67 343.83 685.5 359.5 C 664.33 375.17 620.83 383.17 612.5 404.5 C 604.17 425.83 630.83 464.5 635.5 487.5 C 640.17 510.5 640.17 523 640.5 542.5 C 640.83 562 630.33 598.33 637.5 604.5 C 644.67 610.67 667.33 589.67 683.5 579.5 C 699.67 569.33 720.5 554.17 734.5 543.5 C 748.5 532.83 755.67 527.17 767.5 515.5 C 779.33 503.83 795 487 805.5 473.5 C 816 460 822.67 449.67 830.5 434.5 C 838.33 419.33 847.33 398.83 852.5 382.5 C 857.67 366.17 859.83 350.33 861.5 336.5 C 863.17 322.67 863.17 313.83 862.5 299.5 C 861.83 285.17 860.67 265.33 857.5 250.5 C 854.33 235.67 849.33 223 843.5 210.5 C 837.67 198 833.83 190.33 822.5 175.5 C 811.17 160.67 785.83 132.67 775.5 121.5 C 765.17 110.33 769.5 114.5 760.5 108.5 C 751.5 102.5 738.5 94.33 721.5 85.5 C 704.5 76.67 674.17 62.17 658.5 55.5 C 642.83 48.83 632.33 46 627.5 45.5 Z"/>
    <path fill="#6ab12d" stroke="#6ab12d" d="M 463.5 143.5 C 458.33 142 482.5 174.33 489.5 190.5 C 496.5 206.67 502.17 226.83 505.5 240.5 C 508.83 254.17 509.17 254.67 509.5 272.5 C 509.83 290.33 509.5 326.67 507.5 347.5 C 505.5 368.33 510.5 367.83 497.5 397.5 C 484.5 427.17 441.33 504 429.5 525.5 C 417.67 547 428.17 528.33 426.5 526.5 C 424.83 524.67 421 516 419.5 514.5 C 418 513 416 514 417.5 517.5 C 419 521 426.17 532.5 428.5 535.5 C 430.83 538.5 426 544.33 431.5 535.5 C 437 526.67 447.33 496.5 461.5 482.5 C 475.67 468.5 491.5 463.67 516.5 451.5 C 541.5 439.33 592.17 404.83 611.5 409.5 C 630.83 414.17 627.83 455.67 632.5 479.5 C 637.17 503.33 638.83 531.67 639.5 552.5 C 640.17 573.33 645.17 591.83 636.5 604.5 C 627.83 617.17 602.83 620 587.5 628.5 C 572.17 637 560 643.5 544.5 655.5 C 529 667.5 504.83 690 494.5 700.5 C 484.17 711 485.5 711.67 482.5 718.5 C 479.5 725.33 477.83 732.67 476.5 741.5 C 475.17 750.33 471.5 746.33 474.5 771.5 C 477.5 796.67 492.5 874.5 494.5 892.5 C 496.5 910.5 488.33 881.17 486.5 879.5 C 484.67 877.83 482.5 878 483.5 882.5 C 484.5 887 490.33 902.33 492.5 906.5 C 494.67 910.67 482.5 927.33 496.5 907.5 C 510.5 887.67 558.33 817.67 576.5 787.5 C 594.67 757.33 597.17 747.5 605.5 726.5 C 613.83 705.5 620.83 682 626.5 661.5 C 632.17 641 637 623.67 639.5 603.5 C 642 583.33 642 560.17 641.5 540.5 C 641 520.83 639.5 503.5 636.5 485.5 C 633.5 467.5 630.17 453.83 623.5 432.5 C 616.83 411.17 606.17 382.17 596.5 357.5 C 586.83 332.83 578.17 310.83 565.5 284.5 C 552.83 258.17 537.5 223 520.5 199.5 C 503.5 176 468.67 145 463.5 143.5 Z"/>
    <path fill="#009f3a" stroke="#009f3a" d="M 474.5 770.5 C 471.33 764.83 476.17 840 478.5 861.5 C 480.83 883 485.83 891.83 488.5 899.5 C 491.17 907.17 494.5 908.83 494.5 907.5 C 494.5 906.17 488.33 892.67 488.5 891.5 C 488.67 890.33 494 899.83 495.5 900.5 C 497 901.17 501 917.17 497.5 895.5 C 494 873.83 477.67 776.17 474.5 770.5 Z M 612.5 407.5 C 593.83 407.83 538.5 439.17 514.5 450.5 C 490.5 461.83 478.67 469.17 468.5 475.5 C 458.33 481.83 459.67 479.17 453.5 488.5 C 447.33 497.83 436.17 524.67 431.5 531.5 C 426.83 538.33 423 522.33 425.5 529.5 C 428 536.67 441 559.67 446.5 574.5 C 452 589.33 455 601.83 458.5 618.5 C 462 635.17 465 649.5 467.5 674.5 C 470 699.5 471.5 758.67 473.5 768.5 C 475.5 778.33 477.33 742.5 479.5 733.5 C 481.67 724.5 479.67 723.83 486.5 714.5 C 493.33 705.17 506 690.17 520.5 677.5 C 535 664.83 554 650.33 573.5 638.5 C 593 626.67 626.33 621.17 637.5 606.5 C 648.67 591.83 640.83 570 640.5 550.5 C 640.17 531 637.83 506.5 635.5 489.5 C 633.17 472.5 630.33 462.17 626.5 448.5 C 622.67 434.83 631.17 407.17 612.5 407.5 Z"/>
    <path fill="#007a39" stroke="#007a39" d="M 428.5 541.5 C 424.33 552 411.67 585 407.5 605.5 C 403.33 626 400.83 642 403.5 664.5 C 406.17 687 414.83 715 423.5 740.5 C 432.17 766 446.33 797.5 455.5 817.5 C 464.67 837.5 475.83 876 478.5 860.5 C 481.17 845 474.17 761.17 471.5 724.5 C 468.83 687.83 466.33 664.5 462.5 640.5 C 458.67 616.5 453.5 596.83 448.5 580.5 C 443.5 564.17 435.83 549 432.5 542.5 C 429.17 536 432.67 531 428.5 541.5 Z M 130.5 180.5 C 130.33 180 123.67 187.5 122.5 189.5 C 121.33 191.5 122.17 194 123.5 192.5 C 124.83 191 130.67 181 130.5 180.5 Z M 213.5 93.5 C 213.67 92.17 209.5 95.5 208.5 97.5 C 207.5 99.5 206.67 106.17 207.5 105.5 C 208.33 104.83 213.33 94.83 213.5 93.5 Z"/>
    <path fill="#007d38" stroke="#007d38" d="M 115.5 699.5 C 115.83 700.67 129.17 719.83 131.5 722.5 C 133.83 725.17 132.17 719.33 129.5 715.5 C 126.83 711.67 115.17 698.33 115.5 699.5 Z M 456.5 618.5 C 457 622.17 462 643 462.5 643.5 C 463 644 460.5 625.67 459.5 621.5 C 458.5 617.33 456 614.83 456.5 618.5 Z M 416.5 518.5 C 410.67 524.33 394.67 543.83 386.5 556.5 C 378.33 569.17 371.83 582.83 367.5 594.5 C 363.17 606.17 361.17 612.83 360.5 626.5 C 359.83 640.17 360.33 659.5 363.5 676.5 C 366.67 693.5 373.5 713.17 379.5 728.5 C 385.5 743.83 388.5 749.67 399.5 768.5 C 410.5 787.33 430.83 820.5 445.5 841.5 C 460.17 862.5 482.33 891.83 487.5 894.5 C 492.67 897.17 478 864.33 476.5 857.5 C 475 850.67 478.83 854.33 478.5 853.5 C 478.17 852.67 474.67 852.83 474.5 852.5 C 474.33 852.17 477.33 855.33 477.5 851.5 C 477.67 847.67 476 829.67 475.5 829.5 C 475 829.33 480.33 858.83 474.5 850.5 C 468.67 842.17 449.5 800 440.5 779.5 C 431.5 759 426.33 746.83 420.5 727.5 C 414.67 708.17 407.5 683.5 405.5 663.5 C 403.5 643.5 406.5 622.5 408.5 607.5 C 410.5 592.5 413.83 584.17 417.5 573.5 C 421.17 562.83 424.17 538 430.5 543.5 C 436.83 549 454 604.5 455.5 606.5 C 457 608.5 445.17 569.67 439.5 555.5 C 433.83 541.33 425.33 527.67 421.5 521.5 C 417.67 515.33 422.33 512.67 416.5 518.5 Z M 247.5 329.5 C 246.5 328.83 249.83 337.17 251.5 339.5 C 253.17 341.83 258.17 345.17 257.5 343.5 C 256.83 341.83 248.5 330.17 247.5 329.5 Z M 230.5 303.5 C 228.83 301.67 233 311.67 235.5 315.5 C 238 319.33 246.33 328.5 245.5 326.5 C 244.67 324.5 232.17 305.33 230.5 303.5 Z M 206.5 250.5 C 205.83 250.17 207.5 258.5 208.5 260.5 C 209.5 262.5 212.83 264.17 212.5 262.5 C 212.17 260.83 207.17 250.83 206.5 250.5 Z M 201.5 229.5 C 200.83 229.17 200.83 234.17 201.5 235.5 C 202.17 236.83 205.5 238.5 205.5 237.5 C 205.5 236.5 202.17 229.83 201.5 229.5 Z M 131.5 180.5 C 131.33 180 125.5 185 124.5 186.5 C 123.5 188 124.33 190.5 125.5 189.5 C 126.67 188.5 131.67 181 131.5 180.5 Z M 211.5 95.5 C 211.83 93.83 209.33 94.67 208.5 96.5 C 207.67 98.33 206 106.67 206.5 106.5 C 207 106.33 211.17 97.17 211.5 95.5 Z"/>
  </g>
</svg>
