<svg xmlns="http://www.w3.org/2000/svg" width="899" height="921" viewBox="0 0 899 921" role="img" aria-labelledby="title desc">
  <title id="title">Nur logo loop frame 040</title>
  <desc id="desc">Vector-traced frame from Nur_Logo_Loop_02.gif.</desc>
  <g id="frame-040" stroke-linejoin="round" stroke-linecap="round" stroke-width="0.5" shape-rendering="geometricPrecision">
    <path fill="#008136" stroke="#008136" d="M 223.5 72.5 C 213 81.17 179.83 108.67 163.5 127.5 C 147.17 146.33 136.83 166.67 125.5 185.5 C 114.17 204.33 105 218.17 95.5 240.5 C 86 262.83 76.33 290.83 68.5 319.5 C 60.67 348.17 52.33 388.83 48.5 412.5 C 44.67 436.17 44.67 440.67 45.5 461.5 C 46.33 482.33 49.17 512 53.5 537.5 C 57.83 563 64.33 592.5 71.5 614.5 C 78.67 636.5 85.17 649.17 96.5 669.5 C 107.83 689.83 124.17 716 139.5 736.5 C 154.83 757 171.67 776 188.5 792.5 C 205.33 809 222.67 823.17 240.5 835.5 C 258.33 847.83 273.83 856.83 295.5 866.5 C 317.17 876.17 345.83 886.67 370.5 893.5 C 395.17 900.33 423 905.17 443.5 907.5 C 464 909.83 486.67 911.67 493.5 907.5 C 500.33 903.33 487.17 893.17 484.5 882.5 C 481.83 871.83 479.17 866.83 477.5 843.5 C 475.83 820.17 476.17 772.5 474.5 742.5 C 472.83 712.5 470.5 686.83 467.5 663.5 C 464.5 640.17 460.83 620.17 456.5 602.5 C 452.17 584.83 447.83 572.17 441.5 557.5 C 435.17 542.83 427 528.17 418.5 514.5 C 410 500.83 408.17 494 390.5 475.5 C 372.83 457 335.5 426.5 312.5 403.5 C 289.5 380.5 266.67 355.17 252.5 337.5 C 238.33 319.83 234.17 310.83 227.5 297.5 C 220.83 284.17 215.5 264.33 212.5 257.5 C 209.5 250.67 209.83 257.67 209.5 256.5 C 209.17 255.33 212.17 257.83 210.5 250.5 C 208.83 243.17 201.33 227.5 199.5 212.5 C 197.67 197.5 198.17 177.67 199.5 160.5 C 200.83 143.33 203 123.67 207.5 109.5 C 212 95.33 223.83 81.67 226.5 75.5 C 229.17 69.33 234 63.83 223.5 72.5 Z"/>
    <path fill="#83bb26" stroke="#83bb26" d="M 452.5 485.5 C 451 482.67 422.67 506 418.5 513.5 C 414.33 521 421.83 535.17 427.5 530.5 C 433.17 525.83 454 488.33 452.5 485.5 Z M 625.5 45.5 C 622.33 45.5 613.5 41.83 626.5 50.5 C 639.5 59.17 686.5 85.67 703.5 97.5 C 720.5 109.33 719.67 109.67 728.5 121.5 C 737.33 133.33 749.5 152.17 756.5 168.5 C 763.5 184.83 768.33 206.83 770.5 219.5 C 772.67 232.17 770.67 236.33 769.5 244.5 C 768.33 252.67 766.33 260.67 763.5 268.5 C 760.67 276.33 757.33 283.67 752.5 291.5 C 747.67 299.33 747.17 303.17 734.5 315.5 C 721.83 327.83 697 350.67 676.5 365.5 C 656 380.33 618.33 383.83 611.5 404.5 C 604.67 425.17 630.67 466.17 635.5 489.5 C 640.33 512.83 640.17 525.5 640.5 544.5 C 640.83 563.5 628.17 599.17 637.5 603.5 C 646.83 607.83 679 581.67 696.5 570.5 C 714 559.33 726.83 549.67 742.5 536.5 C 758.17 523.33 779.5 502.83 790.5 491.5 C 801.5 480.17 801.17 479.5 808.5 468.5 C 815.83 457.5 827 441 834.5 425.5 C 842 410 849.33 388.83 853.5 375.5 C 857.67 362.17 858.17 359.83 859.5 345.5 C 860.83 331.17 862.17 306.17 861.5 289.5 C 860.83 272.83 860 261.33 855.5 245.5 C 851 229.67 841.67 208.17 834.5 194.5 C 827.33 180.83 822.33 175.5 812.5 163.5 C 802.67 151.5 785.67 132.67 775.5 122.5 C 765.33 112.33 762.67 109.83 751.5 102.5 C 740.33 95.17 726.17 87.17 708.5 78.5 C 690.83 69.83 659.33 56 645.5 50.5 C 631.67 45 628.67 45.5 625.5 45.5 Z"/>
    <path fill="#6ab12d" stroke="#6ab12d" d="M 462.5 144.5 C 457.33 143 482.33 175.33 489.5 191.5 C 496.67 207.67 502.17 228 505.5 241.5 C 508.83 255 509.17 254.67 509.5 272.5 C 509.83 290.33 509.5 327.5 507.5 348.5 C 505.5 369.5 510.5 369 497.5 398.5 C 484.5 428 441.33 504.17 429.5 525.5 C 417.67 546.83 428.17 528.33 426.5 526.5 C 424.83 524.67 421 516 419.5 514.5 C 418 513 415.67 514 417.5 517.5 C 419.33 521 423.83 540.83 430.5 535.5 C 437.17 530.17 443.83 499.33 457.5 485.5 C 471.17 471.67 487 465.33 512.5 452.5 C 538 439.67 590.5 403.83 610.5 408.5 C 630.5 413.17 627.67 456 632.5 480.5 C 637.33 505 638.83 535 639.5 555.5 C 640.17 576 646.83 590.5 636.5 603.5 C 626.17 616.5 593 624.83 577.5 633.5 C 562 642.17 554.5 647.33 543.5 655.5 C 532.5 663.67 521.5 672.5 511.5 682.5 C 501.5 692.5 489.33 705.67 483.5 715.5 C 477.67 725.33 478 732.67 476.5 741.5 C 475 750.33 474.17 757.67 474.5 768.5 C 474.83 779.33 475 785.33 478.5 806.5 C 482 827.67 494.17 883.17 495.5 895.5 C 496.83 907.83 488.33 882.17 486.5 880.5 C 484.67 878.83 483.5 881.17 484.5 885.5 C 485.5 889.83 490.5 902.83 492.5 906.5 C 494.5 910.17 482.5 927.33 496.5 907.5 C 510.5 887.67 558.33 817.67 576.5 787.5 C 594.67 757.33 597.67 745.83 605.5 726.5 C 613.33 707.17 617.83 692.17 623.5 671.5 C 629.17 650.83 636.5 624 639.5 602.5 C 642.5 581 642 561.67 641.5 542.5 C 641 523.33 639.5 505.67 636.5 487.5 C 633.5 469.33 629.83 454.17 623.5 433.5 C 617.17 412.83 608.17 388.17 598.5 363.5 C 588.83 338.83 578.5 312.67 565.5 285.5 C 552.5 258.33 537.67 224 520.5 200.5 C 503.33 177 467.67 146 462.5 144.5 Z"/>
    <path fill="#009f3a" stroke="#009f3a" d="M 612.5 407.5 C 592.83 406.5 536.5 438.83 510.5 451.5 C 484.5 464.17 469.67 470.17 456.5 483.5 C 443.33 496.83 436.67 523.83 431.5 531.5 C 426.33 539.17 423 522.33 425.5 529.5 C 428 536.67 440.33 556.17 446.5 574.5 C 452.67 592.83 458 611.17 462.5 639.5 C 467 667.83 471.17 710.17 473.5 744.5 C 475.83 778.83 474.83 822.17 476.5 845.5 C 478.17 868.83 480.83 874.17 483.5 884.5 C 486.17 894.83 490.67 904 492.5 907.5 C 494.33 911 495 907.67 494.5 905.5 C 494 903.33 489.33 895.17 489.5 894.5 C 489.67 893.83 494.17 901.33 495.5 901.5 C 496.83 901.67 500.67 915.67 497.5 895.5 C 494.33 875.33 479.83 805.83 476.5 780.5 C 473.17 755.17 476.17 754 477.5 743.5 C 478.83 733 480.33 725.67 484.5 717.5 C 488.67 709.33 492.33 704.67 502.5 694.5 C 512.67 684.33 531.17 667.33 545.5 656.5 C 559.83 645.67 573.17 638 588.5 629.5 C 603.83 621 628.83 618.17 637.5 605.5 C 646.17 592.83 640.83 572.5 640.5 553.5 C 640.17 534.5 637.5 507.5 635.5 491.5 C 633.5 475.5 632.33 471.5 628.5 457.5 C 624.67 443.5 632.17 408.5 612.5 407.5 Z"/>
    <path fill="#007a39" stroke="#007a39" d="M 428.5 540.5 C 423.67 549.67 411.5 591.5 407.5 605.5 C 403.5 619.5 404.83 613 404.5 624.5 C 404.17 636 403.5 658.5 405.5 674.5 C 407.5 690.5 412 705.5 416.5 720.5 C 421 735.5 422.67 741.17 432.5 764.5 C 442.33 787.83 467.83 844.5 475.5 860.5 C 483.17 876.5 479.17 883.17 478.5 860.5 C 477.83 837.83 474.17 761.17 471.5 724.5 C 468.83 687.83 466.33 664.5 462.5 640.5 C 458.67 616.5 452.83 595.5 448.5 580.5 C 444.17 565.5 439.83 557.17 436.5 550.5 C 433.17 543.83 433.33 531.33 428.5 540.5 Z M 119.5 198.5 C 119 198.5 114 206 113.5 207.5 C 113 209 115.5 209 116.5 207.5 C 117.5 206 120 198.5 119.5 198.5 Z M 211.5 101.5 C 211.67 100 209.17 100.83 208.5 102.5 C 207.83 104.17 207 111.67 207.5 111.5 C 208 111.33 211.33 103 211.5 101.5 Z"/>
    <path fill="#007d38" stroke="#007d38" d="M 115.5 699.5 C 115.83 700.67 129.17 719.83 131.5 722.5 C 133.83 725.17 132.17 719.33 129.5 715.5 C 126.83 711.67 115.17 698.33 115.5 699.5 Z M 416.5 518.5 C 411 524.83 394.33 544.5 386.5 556.5 C 378.67 568.5 373.83 578.67 369.5 590.5 C 365.17 602.33 361.67 614.33 360.5 627.5 C 359.33 640.67 360.83 657.17 362.5 669.5 C 364.17 681.83 364.33 685 370.5 701.5 C 376.67 718 388.67 747.67 399.5 768.5 C 410.33 789.33 421.17 806 435.5 826.5 C 449.83 847 478.67 886.17 485.5 891.5 C 492.33 896.83 477.67 864.83 476.5 858.5 C 475.33 852.17 478.83 854.5 478.5 853.5 C 478.17 852.5 474.67 852.83 474.5 852.5 C 474.33 852.17 477.17 854.67 477.5 851.5 C 477.83 848.33 477 833.5 476.5 833.5 C 476 833.5 481.67 863.33 474.5 851.5 C 467.33 839.67 444.5 790.33 433.5 762.5 C 422.5 734.67 413.17 700.67 408.5 684.5 C 403.83 668.33 405.83 676.33 405.5 665.5 C 405.17 654.67 404.83 633.83 406.5 619.5 C 408.17 605.17 411.67 592.17 415.5 579.5 C 419.33 566.83 424 543.17 429.5 543.5 C 435 543.83 448.67 583.17 448.5 581.5 C 448.33 579.83 433.33 544 428.5 533.5 C 423.67 523 421.5 521 419.5 518.5 C 417.5 516 422 512.17 416.5 518.5 Z M 55.5 393.5 C 55.5 392.17 52.17 393 51.5 394.5 C 50.83 396 50.83 402.67 51.5 402.5 C 52.17 402.33 55.5 394.83 55.5 393.5 Z M 208.5 253.5 C 208.67 255.17 212 263.5 212.5 263.5 C 213 263.5 212.17 255.17 211.5 253.5 C 210.83 251.83 208.33 251.83 208.5 253.5 Z M 120.5 196.5 C 120 196.5 115.83 204 115.5 205.5 C 115.17 207 117.67 207 118.5 205.5 C 119.33 204 121 196.5 120.5 196.5 Z M 150.5 149.5 C 149.5 150.17 143.67 158.5 143.5 159.5 C 143.33 160.5 148.33 157.17 149.5 155.5 C 150.67 153.83 151.5 148.83 150.5 149.5 Z"/>
  </g>
</svg>
