<svg xmlns="http://www.w3.org/2000/svg" width="899" height="921" viewBox="0 0 899 921" role="img" aria-labelledby="title desc">
  <title id="title">Nur logo loop frame 073</title>
  <desc id="desc">Vector-traced frame from Nur_Logo_Loop_02.gif.</desc>
  <g id="frame-073" stroke-linejoin="round" stroke-linecap="round" stroke-width="0.5" shape-rendering="geometricPrecision">
    <path fill="#008136" stroke="#008136" d="M 181.5 49.5 C 172.5 58.83 145.5 89 129.5 111.5 C 113.5 134 96.33 164.67 85.5 184.5 C 74.67 204.33 71.83 210.67 64.5 230.5 C 57.17 250.33 45.17 289.33 41.5 303.5 C 37.83 317.67 42.83 313.33 42.5 315.5 C 42.17 317.67 40.83 309.67 39.5 316.5 C 38.17 323.33 36 332 34.5 356.5 C 33 381 30.67 445.33 30.5 463.5 C 30.33 481.67 33.17 462.83 33.5 465.5 C 33.83 468.17 31 469.5 32.5 479.5 C 34 489.5 36 503 42.5 525.5 C 49 548 62.5 590.5 71.5 614.5 C 80.5 638.5 85.17 649.17 96.5 669.5 C 107.83 689.83 124.17 716 139.5 736.5 C 154.83 757 171.67 776 188.5 792.5 C 205.33 809 222.67 823.17 240.5 835.5 C 258.33 847.83 273.83 856.83 295.5 866.5 C 317.17 876.17 345.83 886.67 370.5 893.5 C 395.17 900.33 423 905.17 443.5 907.5 C 464 909.83 486.67 911.67 493.5 907.5 C 500.33 903.33 487.17 893.17 484.5 882.5 C 481.83 871.83 479.17 866.67 477.5 843.5 C 475.83 820.33 476.17 773.5 474.5 743.5 C 472.83 713.5 470.5 687 467.5 663.5 C 464.5 640 459.83 617.67 456.5 602.5 C 453.17 587.33 452.67 585.33 447.5 572.5 C 442.33 559.67 433.33 539.67 425.5 525.5 C 417.67 511.33 410.67 499.5 400.5 487.5 C 390.33 475.5 378.33 465.33 364.5 453.5 C 350.67 441.67 333.5 430.5 317.5 416.5 C 301.5 402.5 284.33 386.17 268.5 369.5 C 252.67 352.83 232.83 329.33 222.5 316.5 C 212.17 303.67 213.17 305.17 206.5 292.5 C 199.83 279.83 188.33 258.17 182.5 240.5 C 176.67 222.83 173.67 203.33 171.5 186.5 C 169.33 169.67 167.5 161.33 169.5 139.5 C 171.5 117.67 181.5 70.5 183.5 55.5 C 185.5 40.5 190.5 40.17 181.5 49.5 Z"/>
    <path fill="#83bb26" stroke="#83bb26" d="M 739.5 13.5 C 733 7.17 737 12.83 736.5 13.5 C 736 14.17 728 0.17 736.5 17.5 C 745 34.83 777.67 96.67 787.5 117.5 C 797.33 138.33 793.5 134 795.5 142.5 C 797.5 151 798.83 156.5 799.5 168.5 C 800.17 180.5 800.17 201.83 799.5 214.5 C 798.83 227.17 797.33 235 795.5 244.5 C 793.67 254 791.17 263.83 788.5 271.5 C 785.83 279.17 786 280.67 779.5 290.5 C 773 300.33 764.17 315.33 749.5 330.5 C 734.83 345.67 711 367.33 691.5 381.5 C 672 395.67 640.5 401.83 632.5 415.5 C 624.5 429.17 640.83 447.67 643.5 463.5 C 646.17 479.33 648 493.83 648.5 510.5 C 649 527.17 648.5 544 646.5 563.5 C 644.5 583 632.17 619.83 636.5 627.5 C 640.83 635.17 656.5 619 672.5 609.5 C 688.5 600 715.67 582.33 732.5 570.5 C 749.33 558.67 760.83 549.33 773.5 538.5 C 786.17 527.67 797.67 517.83 808.5 505.5 C 819.33 493.17 830.33 477.17 838.5 464.5 C 846.67 451.83 851.33 443.17 857.5 429.5 C 863.67 415.83 871.33 395.33 875.5 382.5 C 879.67 369.67 880.83 363.17 882.5 352.5 C 884.17 341.83 885.33 331.5 885.5 318.5 C 885.67 305.5 884.83 287 883.5 274.5 C 882.17 262 880.83 255.17 877.5 243.5 C 874.17 231.83 873.83 227.67 863.5 204.5 C 853.17 181.33 830.17 130 815.5 104.5 C 800.83 79 788.17 66.67 775.5 51.5 C 762.83 36.33 746 19.83 739.5 13.5 Z"/>
    <path fill="#6ab12d" stroke="#6ab12d" d="M 513.5 129.5 C 501.17 105.67 509.33 121.83 511.5 134.5 C 513.67 147.17 522.83 183.33 526.5 205.5 C 530.17 227.67 532.5 249.67 533.5 267.5 C 534.5 285.33 533.67 299 532.5 312.5 C 531.33 326 529.5 335.67 526.5 348.5 C 523.5 361.33 518.33 378.83 514.5 389.5 C 510.67 400.17 515.5 395 503.5 412.5 C 491.5 430 455.67 475.17 442.5 494.5 C 429.33 513.83 426.67 522.5 424.5 528.5 C 422.33 534.5 427.17 532.5 429.5 530.5 C 431.83 528.5 429.33 523.83 438.5 516.5 C 447.67 509.17 453.17 502.33 484.5 486.5 C 515.83 470.67 600.33 421.67 626.5 421.5 C 652.67 421.33 638.67 463.5 641.5 485.5 C 644.33 507.5 645 529.83 643.5 553.5 C 642 577.17 644.17 610.5 632.5 627.5 C 620.83 644.5 592.5 645.33 573.5 655.5 C 554.5 665.67 531.83 679.5 518.5 688.5 C 505.17 697.5 499.83 702 493.5 709.5 C 487.17 717 483.67 726 480.5 733.5 C 477.33 741 475.33 744.83 474.5 754.5 C 473.67 764.17 472 767.67 475.5 791.5 C 479 815.33 492.83 879.17 495.5 897.5 C 498.17 915.83 491.83 899.83 491.5 901.5 C 491.17 903.17 492.67 906.5 493.5 907.5 C 494.33 908.5 485.33 923.17 496.5 907.5 C 507.67 891.83 543.33 841 560.5 813.5 C 577.67 786 590 761.83 599.5 742.5 C 609 723.17 611 716.5 617.5 697.5 C 624 678.5 633.17 653.83 638.5 628.5 C 643.83 603.17 648.17 571.33 649.5 545.5 C 650.83 519.67 650.33 499.67 646.5 473.5 C 642.67 447.33 636.67 421.17 626.5 388.5 C 616.33 355.83 604.33 320.67 585.5 277.5 C 566.67 234.33 525.83 153.33 513.5 129.5 Z"/>
    <path fill="#009f3a" stroke="#009f3a" d="M 474.5 788.5 C 474.67 800.33 476.33 843.17 478.5 861.5 C 480.67 879.83 484.83 890.83 487.5 898.5 C 490.17 906.17 493 908 494.5 907.5 C 496 907 499.33 915 496.5 895.5 C 493.67 876 481.17 808.33 477.5 790.5 C 473.83 772.67 474.33 776.67 474.5 788.5 Z M 473.5 770.5 C 473.5 772.67 476 786 476.5 786.5 C 477 787 477 776.17 476.5 773.5 C 476 770.83 473.5 768.33 473.5 770.5 Z M 628.5 420.5 C 601.5 417.67 512.5 471.17 482.5 485.5 C 452.5 499.83 457 500.67 448.5 506.5 C 440 512.33 435 516.83 431.5 520.5 C 428 524.17 428.67 527.33 427.5 528.5 C 426.33 529.67 421.33 519.83 424.5 527.5 C 427.67 535.17 440.83 559.33 446.5 574.5 C 452.17 589.67 455 601.83 458.5 618.5 C 462 635.17 465 650 467.5 674.5 C 470 699 470.67 756.5 473.5 765.5 C 476.33 774.5 479.33 739.17 484.5 728.5 C 489.67 717.83 491.5 712.33 504.5 701.5 C 517.5 690.67 541 675.5 562.5 663.5 C 584 651.5 619.83 647.5 633.5 629.5 C 647.17 611.5 642.67 576.67 644.5 555.5 C 646.33 534.33 647.17 525 644.5 502.5 C 641.83 480 655.5 423.33 628.5 420.5 Z"/>
    <path fill="#007a39" stroke="#007a39" d="M 425.5 534.5 C 421.5 536.67 416.33 552.83 412.5 563.5 C 408.67 574.17 405.17 587 402.5 598.5 C 399.83 610 397.5 620.67 396.5 632.5 C 395.5 644.33 395.33 657.67 396.5 669.5 C 397.67 681.33 399.67 690.33 403.5 703.5 C 407.33 716.67 407.5 720.83 419.5 748.5 C 431.5 776.17 465.17 848.17 475.5 869.5 C 485.83 890.83 481.5 881 481.5 876.5 C 481.5 872 477.17 867.83 475.5 842.5 C 473.83 817.17 473.67 758.17 471.5 724.5 C 469.33 690.83 466.33 664.5 462.5 640.5 C 458.67 616.5 452.83 595.5 448.5 580.5 C 444.17 565.5 440.33 558.17 436.5 550.5 C 432.67 542.83 429.5 532.33 425.5 534.5 Z M 315.5 414.5 C 314.67 414.33 318.83 421 320.5 422.5 C 322.17 424 326.33 424.83 325.5 423.5 C 324.67 422.17 316.33 414.67 315.5 414.5 Z M 180.5 233.5 C 179.83 233 179.83 238 180.5 239.5 C 181.17 241 184.5 243.5 184.5 242.5 C 184.5 241.5 181.17 234 180.5 233.5 Z M 182.5 50.5 C 181.17 50.83 174.5 57.5 174.5 58.5 C 174.5 59.5 181.17 57.83 182.5 56.5 C 183.83 55.17 183.83 50.17 182.5 50.5 Z"/>
    <path fill="#007d38" stroke="#007d38" d="M 115.5 699.5 C 115.83 700.67 129.17 719.83 131.5 722.5 C 133.83 725.17 132.17 719.33 129.5 715.5 C 126.83 711.67 115.17 698.33 115.5 699.5 Z M 456.5 618.5 C 457 622.17 462 643 462.5 643.5 C 463 644 460.5 625.67 459.5 621.5 C 458.5 617.33 456 614.83 456.5 618.5 Z M 62.5 586.5 C 62.5 587.5 65.83 594.17 66.5 594.5 C 67.17 594.83 67.17 589.83 66.5 588.5 C 65.83 587.17 62.5 585.5 62.5 586.5 Z M 413.5 510.5 C 413.33 511.5 426 520 422.5 528.5 C 419 537 400.83 549.17 392.5 561.5 C 384.17 573.83 376.83 590 372.5 602.5 C 368.17 615 367 623.33 366.5 636.5 C 366 649.67 367.33 667.67 369.5 681.5 C 371.67 695.33 374.5 705 379.5 719.5 C 384.5 734 392.83 754.5 399.5 768.5 C 406.17 782.5 407.67 785.5 419.5 803.5 C 431.33 821.5 459.83 862.5 470.5 876.5 C 481.17 890.5 481.67 888.33 483.5 887.5 C 485.33 886.67 482.33 874.33 481.5 871.5 C 480.67 868.67 478.83 872.17 478.5 870.5 C 478.17 868.83 479.83 862.33 479.5 861.5 C 479.17 860.67 486.33 884.67 476.5 865.5 C 466.67 846.33 432.5 773.83 420.5 746.5 C 408.5 719.17 408.33 714.67 404.5 701.5 C 400.67 688.33 398.67 678.67 397.5 667.5 C 396.33 656.33 396.5 645.67 397.5 634.5 C 398.5 623.33 400.83 612 403.5 600.5 C 406.17 589 409.67 576.17 413.5 565.5 C 417.33 554.83 420.67 533.83 426.5 536.5 C 432.33 539.17 449 583.83 448.5 581.5 C 448 579.17 429.33 534.33 423.5 522.5 C 417.67 510.67 413.67 509.5 413.5 510.5 Z M 262.5 364.5 C 263.17 365.83 272.33 375.83 273.5 376.5 C 274.67 377.17 271.33 370.5 269.5 368.5 C 267.67 366.5 261.83 363.17 262.5 364.5 Z M 40.5 310.5 C 40.33 311.67 42 318.33 42.5 318.5 C 43 318.67 43.83 312.83 43.5 311.5 C 43.17 310.17 40.67 309.33 40.5 310.5 Z M 50.5 278.5 C 49.83 279 46.5 285.67 46.5 286.5 C 46.5 287.33 49.83 284.83 50.5 283.5 C 51.17 282.17 51.17 278 50.5 278.5 Z M 108.5 148.5 C 107.5 149.33 103.33 156 103.5 156.5 C 103.67 157 108.67 152.83 109.5 151.5 C 110.33 150.17 109.5 147.67 108.5 148.5 Z M 156.5 80.5 C 155.33 81.17 146.17 91.17 145.5 92.5 C 144.83 93.83 150.67 90.5 152.5 88.5 C 154.33 86.5 157.67 79.83 156.5 80.5 Z"/>
  </g>
</svg>
