<svg xmlns="http://www.w3.org/2000/svg" width="899" height="921" viewBox="0 0 899 921" role="img" aria-labelledby="title desc">
  <title id="title">Nur logo loop frame 080</title>
  <desc id="desc">Vector-traced frame from Nur_Logo_Loop_02.gif.</desc>
  <g id="frame-080" stroke-linejoin="round" stroke-linecap="round" stroke-width="0.5" shape-rendering="geometricPrecision">
    <path fill="#008136" stroke="#008136" d="M 181.5 50.5 C 172.83 61.67 148.33 93.33 132.5 117.5 C 116.67 141.67 99 170.33 86.5 195.5 C 74 220.67 64.5 248.17 57.5 268.5 C 50.5 288.83 47.33 304.5 44.5 317.5 C 41.67 330.5 40.83 339.5 40.5 346.5 C 40.17 353.5 42.67 357.17 42.5 359.5 C 42.33 361.83 40.67 342.67 39.5 360.5 C 38.33 378.33 33.5 435 35.5 466.5 C 37.5 498 44.83 523 51.5 549.5 C 58.17 576 66.5 602.83 75.5 625.5 C 84.5 648.17 94.83 667 105.5 685.5 C 116.17 704 125.67 718.67 139.5 736.5 C 153.33 754.33 171.67 776 188.5 792.5 C 205.33 809 222.67 823.17 240.5 835.5 C 258.33 847.83 273.83 856.83 295.5 866.5 C 317.17 876.17 345.83 886.67 370.5 893.5 C 395.17 900.33 423 905.17 443.5 907.5 C 464 909.83 486.67 911.5 493.5 907.5 C 500.33 903.5 487.17 894.17 484.5 883.5 C 481.83 872.83 478.83 857.67 477.5 843.5 C 476.17 829.33 477.33 809.67 476.5 798.5 C 475.67 787.33 472.83 785.83 472.5 776.5 C 472.17 767.17 475.33 761.33 474.5 742.5 C 473.67 723.67 470.5 686.83 467.5 663.5 C 464.5 640.17 459.83 617.67 456.5 602.5 C 453.17 587.33 453 585.83 447.5 572.5 C 442 559.17 431.33 536.67 423.5 522.5 C 415.67 508.33 410.33 499 400.5 487.5 C 390.67 476 378.33 465.33 364.5 453.5 C 350.67 441.67 333.5 430.5 317.5 416.5 C 301.5 402.5 283.83 386.5 268.5 369.5 C 253.17 352.5 236.5 330.67 225.5 314.5 C 214.5 298.33 209.83 290.17 202.5 272.5 C 195.17 254.83 185.83 226 181.5 208.5 C 177.17 191 177.33 179.83 176.5 167.5 C 175.67 155.17 175.17 154 176.5 134.5 C 177.83 115 183.67 64.5 184.5 50.5 C 185.33 36.5 190.17 39.33 181.5 50.5 Z"/>
    <path fill="#83bb26" stroke="#83bb26" d="M 430.5 516.5 C 430.33 515.67 424.5 519.83 423.5 521.5 C 422.5 523.17 423.33 527.33 424.5 526.5 C 425.67 525.67 430.67 517.33 430.5 516.5 Z M 708.5 20.5 C 698.83 13.5 699.83 16.33 705.5 23.5 C 711.17 30.67 729.83 45 742.5 63.5 C 755.17 82 772.83 115.17 781.5 134.5 C 790.17 153.83 792.33 164.5 794.5 179.5 C 796.67 194.5 796.5 209 794.5 224.5 C 792.5 240 787.17 259.83 782.5 272.5 C 777.83 285.17 772.33 292 766.5 300.5 C 760.67 309 758 313 747.5 323.5 C 737 334 723.5 348.83 703.5 363.5 C 683.5 378.17 638 393.67 627.5 411.5 C 617 429.33 637.5 451.5 640.5 470.5 C 643.5 489.5 644.67 508 645.5 525.5 C 646.33 543 646.5 559.5 645.5 575.5 C 644.5 591.5 635 616.67 639.5 621.5 C 644 626.33 659 612.67 672.5 604.5 C 686 596.33 705.5 583.33 720.5 572.5 C 735.5 561.67 749.33 550.83 762.5 539.5 C 775.67 528.17 788.17 517.17 799.5 504.5 C 810.83 491.83 821.33 477.67 830.5 463.5 C 839.67 449.33 848.17 432.83 854.5 419.5 C 860.83 406.17 864.67 396 868.5 383.5 C 872.33 371 875.67 358.33 877.5 344.5 C 879.33 330.67 879.83 315.33 879.5 300.5 C 879.17 285.67 877.33 267.5 875.5 255.5 C 873.67 243.5 872.67 240 868.5 228.5 C 864.33 217 857.5 200.5 850.5 186.5 C 843.5 172.5 836.33 160 826.5 144.5 C 816.67 129 802 106.67 791.5 93.5 C 781 80.33 777.33 77.67 763.5 65.5 C 749.67 53.33 718.17 27.5 708.5 20.5 Z"/>
    <path fill="#6ab12d" stroke="#6ab12d" d="M 502.5 129.5 C 495.83 118.67 498.17 122 500.5 132.5 C 502.83 143 512.17 171.33 516.5 192.5 C 520.83 213.67 524.67 241.83 526.5 259.5 C 528.33 277.17 528.33 284.33 527.5 298.5 C 526.67 312.67 523.67 332.17 521.5 344.5 C 519.33 356.83 518 362 514.5 372.5 C 511 383 515.83 382 500.5 407.5 C 485.17 433 434.67 505.5 422.5 525.5 C 410.33 545.5 425.33 529.5 427.5 527.5 C 429.67 525.5 426.5 521 435.5 513.5 C 444.5 506 449.83 498.83 481.5 482.5 C 513.17 466.17 598.83 414.5 625.5 415.5 C 652.17 416.5 638.33 463.5 641.5 488.5 C 644.67 513.5 645.17 543.5 644.5 565.5 C 643.83 587.5 649.67 605.83 637.5 620.5 C 625.33 635.17 589.33 643.83 571.5 653.5 C 553.67 663.17 543.83 668.83 530.5 678.5 C 517.17 688.17 499.83 702.83 491.5 711.5 C 483.17 720.17 483.33 724.5 480.5 730.5 C 477.67 736.5 475.33 735 474.5 747.5 C 473.67 760 472.33 778.83 475.5 805.5 C 478.67 832.17 489 891.83 493.5 907.5 C 498 923.17 494.67 910 502.5 899.5 C 510.33 889 525.17 868.83 540.5 844.5 C 555.83 820.17 579.83 783.5 594.5 753.5 C 609.17 723.5 620.83 686.5 628.5 664.5 C 636.17 642.5 637.5 636 640.5 621.5 C 643.5 607 646 600.83 646.5 577.5 C 647 554.17 646.33 508.83 643.5 481.5 C 640.67 454.17 639.83 446.5 629.5 413.5 C 619.17 380.5 596.33 319.5 581.5 283.5 C 566.67 247.5 553.67 223.17 540.5 197.5 C 527.33 171.83 509.17 140.33 502.5 129.5 Z"/>
    <path fill="#009f3a" stroke="#009f3a" d="M 475.5 804.5 C 472.83 796.83 476.83 847 478.5 861.5 C 480.17 876 482.83 883.83 485.5 891.5 C 488.17 899.17 496.17 922 494.5 907.5 C 492.83 893 478.17 812.17 475.5 804.5 Z M 627.5 414.5 C 602.83 415 522.17 460.17 492.5 474.5 C 462.83 488.83 459.67 493.83 449.5 500.5 C 439.33 507.17 435.5 510.17 431.5 514.5 C 427.5 518.83 427 524.83 425.5 526.5 C 424 528.17 419 516.5 422.5 524.5 C 426 532.5 440.17 557.17 446.5 574.5 C 452.83 591.83 456.33 604.5 460.5 628.5 C 464.67 652.5 469.17 689.5 471.5 718.5 C 473.83 747.5 473.83 797.33 474.5 802.5 C 475.17 807.67 472.5 764.33 475.5 749.5 C 478.5 734.67 485.5 723.33 492.5 713.5 C 499.5 703.67 508 698 517.5 690.5 C 527 683 529.33 679.83 549.5 668.5 C 569.67 657.17 622.5 639.33 638.5 622.5 C 654.5 605.67 644.5 585.33 645.5 567.5 C 646.5 549.67 645.33 531.5 644.5 515.5 C 643.67 499.5 643.33 488.33 640.5 471.5 C 637.67 454.67 652.17 414 627.5 414.5 Z"/>
    <path fill="#007a39" stroke="#007a39" d="M 424.5 531.5 C 420.5 532.5 417.17 543.67 412.5 556.5 C 407.83 569.33 399.83 591.17 396.5 608.5 C 393.17 625.83 391.83 645.67 392.5 660.5 C 393.17 675.33 395.5 681.5 400.5 697.5 C 405.5 713.5 409 726.67 422.5 756.5 C 436 786.33 472.67 862.17 481.5 876.5 C 490.33 890.83 477.17 867.83 475.5 842.5 C 473.83 817.17 473.67 758.17 471.5 724.5 C 469.33 690.83 466.33 664.5 462.5 640.5 C 458.67 616.5 452.83 595.5 448.5 580.5 C 444.17 565.5 440.5 558.67 436.5 550.5 C 432.5 542.33 428.5 530.5 424.5 531.5 Z M 315.5 414.5 C 314.67 414.33 318.83 421 320.5 422.5 C 322.17 424 326.33 424.83 325.5 423.5 C 324.67 422.17 316.33 414.67 315.5 414.5 Z M 114.5 150.5 C 113.67 151 107 161 106.5 162.5 C 106 164 110.17 161.5 111.5 159.5 C 112.83 157.5 115.33 150 114.5 150.5 Z"/>
    <path fill="#007d38" stroke="#007d38" d="M 472.5 797.5 C 472.5 801.17 475 823.67 475.5 824.5 C 476 825.33 476 807 475.5 802.5 C 475 798 472.5 793.83 472.5 797.5 Z M 115.5 699.5 C 115.83 700.67 129.17 719.83 131.5 722.5 C 133.83 725.17 132.17 719.33 129.5 715.5 C 126.83 711.67 115.17 698.33 115.5 699.5 Z M 69.5 606.5 C 69.67 607.67 73.83 615.17 74.5 615.5 C 75.17 615.83 74.33 610 73.5 608.5 C 72.67 607 69.33 605.33 69.5 606.5 Z M 53.5 554.5 C 53.5 555.33 56.83 561.17 57.5 561.5 C 58.17 561.83 58.17 557.67 57.5 556.5 C 56.83 555.33 53.5 553.67 53.5 554.5 Z M 413.5 510.5 C 413.33 511.33 424.33 516.83 420.5 524.5 C 416.67 532.17 399.33 543.83 390.5 556.5 C 381.67 569.17 372.5 587.5 367.5 600.5 C 362.5 613.5 361.33 622.5 360.5 634.5 C 359.67 646.5 359.83 657.5 362.5 672.5 C 365.17 687.5 370 707 376.5 724.5 C 383 742 391.33 758.83 401.5 777.5 C 411.67 796.17 422.33 815 437.5 836.5 C 452.67 858 484.83 898.33 492.5 906.5 C 500.17 914.67 485.67 893 483.5 885.5 C 481.33 878 480.83 865.17 479.5 861.5 C 478.17 857.83 484.83 881.33 475.5 863.5 C 466.17 845.67 436.5 785.17 423.5 754.5 C 410.5 723.83 402.5 695.5 397.5 679.5 C 392.5 663.5 393.5 670 393.5 658.5 C 393.5 647 394.17 627.17 397.5 610.5 C 400.83 593.83 408.83 571.17 413.5 558.5 C 418.17 545.83 419.67 530.67 425.5 534.5 C 431.33 538.33 446.17 578 448.5 581.5 C 450.83 585 444 565.83 439.5 555.5 C 435 545.17 425.83 527 421.5 519.5 C 417.17 512 413.67 509.67 413.5 510.5 Z M 40.5 491.5 C 40.33 492.67 42 499.33 42.5 499.5 C 43 499.67 43.83 493.83 43.5 492.5 C 43.17 491.17 40.67 490.33 40.5 491.5 Z M 37.5 480.5 C 37 480.5 37.83 487.17 38.5 488.5 C 39.17 489.83 41.67 489.83 41.5 488.5 C 41.33 487.17 38 480.5 37.5 480.5 Z M 40.5 353.5 C 40.33 355 42 363.33 42.5 363.5 C 43 363.67 43.83 356.17 43.5 354.5 C 43.17 352.83 40.67 352 40.5 353.5 Z M 81.5 212.5 C 81.67 211.17 77.5 214.5 76.5 216.5 C 75.5 218.5 74.67 225.17 75.5 224.5 C 76.33 223.83 81.33 213.83 81.5 212.5 Z M 180.5 206.5 C 179.67 205.83 178.83 210 179.5 211.5 C 180.17 213 184.33 216.33 184.5 215.5 C 184.67 214.67 181.33 207.17 180.5 206.5 Z M 131.5 124.5 C 131 124.5 125.17 132 124.5 133.5 C 123.83 135 126.33 135 127.5 133.5 C 128.67 132 132 124.5 131.5 124.5 Z"/>
  </g>
</svg>
