<svg xmlns="http://www.w3.org/2000/svg" width="899" height="921" viewBox="0 0 899 921" role="img" aria-labelledby="title desc">
  <title id="title">Nur logo loop frame 008</title>
  <desc id="desc">Vector-traced frame from Nur_Logo_Loop_02.gif.</desc>
  <g id="frame-008" stroke-linejoin="round" stroke-linecap="round" stroke-width="0.5" shape-rendering="geometricPrecision">
    <path fill="#008136" stroke="#008136" d="M 216.5 63.5 C 207.5 72 179.17 100.67 165.5 117.5 C 151.83 134.33 140.67 154.17 134.5 164.5 C 128.33 174.83 131.17 175.17 128.5 179.5 C 125.83 183.83 124.17 181.5 118.5 190.5 C 112.83 199.5 102.33 215.67 94.5 233.5 C 86.67 251.33 78 273.17 71.5 297.5 C 65 321.83 59 350.5 55.5 379.5 C 52 408.5 50.5 448.67 50.5 471.5 C 50.5 494.33 54.17 508.83 55.5 516.5 C 56.83 524.17 58.5 516.83 58.5 517.5 C 58.5 518.17 52.67 504.83 55.5 520.5 C 58.33 536.17 67.5 585.83 75.5 611.5 C 83.5 637.17 92 653.17 103.5 674.5 C 115 695.83 132.33 722.17 144.5 739.5 C 156.67 756.83 166.5 767.33 176.5 778.5 C 186.5 789.67 194 797.17 204.5 806.5 C 215 815.83 224.33 824.5 239.5 834.5 C 254.67 844.5 276 857.33 295.5 866.5 C 315 875.67 334.5 883 356.5 889.5 C 378.5 896 404.67 902.5 427.5 905.5 C 450.33 908.5 484 911.33 493.5 907.5 C 503 903.67 487.17 893.17 484.5 882.5 C 481.83 871.83 479.17 866.83 477.5 843.5 C 475.83 820.17 476.17 772.5 474.5 742.5 C 472.83 712.5 470.5 686.83 467.5 663.5 C 464.5 640.17 460.83 620.17 456.5 602.5 C 452.17 584.83 450.67 576.5 441.5 557.5 C 432.33 538.5 427.83 519 401.5 488.5 C 375.17 458 311.33 403.83 283.5 374.5 C 255.67 345.17 246.83 330.67 234.5 312.5 C 222.17 294.33 213.5 274.33 209.5 265.5 C 205.5 256.67 211.5 264.17 210.5 259.5 C 209.5 254.83 205.17 241.33 203.5 237.5 C 201.83 233.67 202 242 200.5 236.5 C 199 231 195.17 219.83 194.5 204.5 C 193.83 189.17 196.67 154.67 196.5 144.5 C 196.33 134.33 193.5 143.83 193.5 143.5 C 193.5 143.17 193.83 153 196.5 142.5 C 199.17 132 205.67 93.17 209.5 80.5 C 213.33 67.83 218.33 69.33 219.5 66.5 C 220.67 63.67 225.5 55 216.5 63.5 Z"/>
    <path fill="#83bb26" stroke="#83bb26" d="M 449.5 490.5 C 448.17 487.67 423.17 507.67 419.5 514.5 C 415.83 521.33 422.5 535.5 427.5 531.5 C 432.5 527.5 450.83 493.33 449.5 490.5 Z M 639.5 40.5 C 636 40 628.33 35.83 639.5 44.5 C 650.67 53.17 690.83 79.67 706.5 92.5 C 722.17 105.33 723.5 106.5 733.5 121.5 C 743.5 136.5 759.5 165.33 766.5 182.5 C 773.5 199.67 774.17 214.5 775.5 224.5 C 776.83 234.5 776 234.5 774.5 242.5 C 773 250.5 772.17 260.67 766.5 272.5 C 760.83 284.33 754.17 298.33 740.5 313.5 C 726.83 328.67 705.33 348.17 684.5 363.5 C 663.67 378.83 623.17 384.67 615.5 405.5 C 607.83 426.33 634 466.17 638.5 488.5 C 643 510.83 642.17 520 642.5 539.5 C 642.83 559 632.83 598.83 640.5 605.5 C 648.17 612.17 670.67 591 688.5 579.5 C 706.33 568 730.67 550.17 747.5 536.5 C 764.33 522.83 778.17 509.5 789.5 497.5 C 800.83 485.5 806.5 478.33 815.5 464.5 C 824.5 450.67 836.83 428.17 843.5 414.5 C 850.17 400.83 852 395.33 855.5 382.5 C 859 369.67 862.83 352.67 864.5 337.5 C 866.17 322.33 866.33 306.5 865.5 291.5 C 864.67 276.5 863.83 263.17 859.5 247.5 C 855.17 231.83 846.33 211 839.5 197.5 C 832.67 184 828.83 179.67 818.5 166.5 C 808.17 153.33 787.67 129.17 777.5 118.5 C 767.33 107.83 769 110.17 757.5 102.5 C 746 94.83 724.67 81.67 708.5 72.5 C 692.33 63.33 672 52.83 660.5 47.5 C 649 42.17 643 41 639.5 40.5 Z"/>
    <path fill="#6ab12d" stroke="#6ab12d" d="M 638.5 610.5 C 632.17 604 601 626.17 586.5 633.5 C 572 640.83 564.33 645.5 551.5 654.5 C 538.67 663.5 521 676.67 509.5 687.5 C 498 698.33 488.33 708.83 482.5 719.5 C 476.67 730.17 475.67 739.33 474.5 751.5 C 473.33 763.67 471.83 767.17 475.5 792.5 C 479.17 817.83 493.33 884.17 496.5 903.5 C 499.67 922.83 494.33 907.67 494.5 908.5 C 494.67 909.33 488 922 497.5 908.5 C 507 895 535.33 853.33 551.5 827.5 C 567.67 801.67 582.33 779.33 594.5 753.5 C 606.67 727.67 617.17 696.33 624.5 672.5 C 631.83 648.67 644.83 617 638.5 610.5 Z M 471.5 139.5 C 466.5 137.83 490.33 178.5 496.5 195.5 C 502.67 212.5 505.83 227.83 508.5 241.5 C 511.17 255.17 512.33 260.67 512.5 277.5 C 512.67 294.33 511.83 323 509.5 342.5 C 507.17 362 511.83 363.83 498.5 394.5 C 485.17 425.17 441.5 504.5 429.5 526.5 C 417.5 548.5 428 528.33 426.5 526.5 C 425 524.67 422 517 420.5 515.5 C 419 514 416.5 514.67 417.5 517.5 C 418.5 520.33 424.33 529.83 426.5 532.5 C 428.67 535.17 426.5 539.67 430.5 533.5 C 434.5 527.33 443.33 504.67 450.5 495.5 C 457.67 486.33 462.5 485.17 473.5 478.5 C 484.5 471.83 492.83 466.67 516.5 455.5 C 540.17 444.33 596.67 411.67 615.5 411.5 C 634.33 411.33 625.83 440.83 629.5 454.5 C 633.17 468.17 635.5 478.17 637.5 493.5 C 639.5 508.83 641 527.5 641.5 546.5 C 642 565.5 640.17 600.33 640.5 607.5 C 640.83 614.67 643 601.5 643.5 589.5 C 644 577.5 644.17 552.67 643.5 535.5 C 642.83 518.33 643.5 507.17 639.5 486.5 C 635.5 465.83 631.5 445.17 619.5 411.5 C 607.5 377.83 583 318.83 567.5 284.5 C 552 250.17 542.5 229.67 526.5 205.5 C 510.5 181.33 476.5 141.17 471.5 139.5 Z"/>
    <path fill="#009f3a" stroke="#009f3a" d="M 474.5 772.5 C 474 778.67 476.33 840.83 478.5 861.5 C 480.67 882.17 484.83 888.83 487.5 896.5 C 490.17 904.17 492.83 905.83 494.5 907.5 C 496.17 909.17 499.67 920.33 497.5 906.5 C 495.33 892.67 485.33 846.83 481.5 824.5 C 477.67 802.17 475 766.33 474.5 772.5 Z M 617.5 410.5 C 596.83 404.33 538.83 443.33 514.5 454.5 C 490.17 465.67 482.33 471 471.5 477.5 C 460.67 484 456.67 484.33 449.5 493.5 C 442.33 502.67 432.5 526.5 428.5 532.5 C 424.5 538.5 422.5 522.5 425.5 529.5 C 428.5 536.5 440.67 558 446.5 574.5 C 452.33 591 456.67 608.5 460.5 628.5 C 464.33 648.5 467.33 670.83 469.5 694.5 C 471.67 718.17 471.17 766 473.5 770.5 C 475.83 775 477.17 735.17 483.5 721.5 C 489.83 707.83 498.33 700.5 511.5 688.5 C 524.67 676.5 541.17 662.67 562.5 649.5 C 583.83 636.33 626.17 627 639.5 609.5 C 652.83 592 642.67 564.17 642.5 544.5 C 642.33 524.83 642.67 513.83 638.5 491.5 C 634.33 469.17 638.17 416.67 617.5 410.5 Z"/>
    <path fill="#007a39" stroke="#007a39" d="M 425.5 533.5 C 421 545.5 406.33 587 401.5 605.5 C 396.67 624 396.5 630.33 396.5 644.5 C 396.5 658.67 396.17 669 401.5 690.5 C 406.83 712 414.5 740 428.5 773.5 C 442.5 807 477.67 880 485.5 891.5 C 493.33 903 477.83 870.33 475.5 842.5 C 473.17 814.67 473.67 758.17 471.5 724.5 C 469.33 690.83 466.33 664.5 462.5 640.5 C 458.67 616.5 454.17 598.33 448.5 580.5 C 442.83 562.67 432.33 541.33 428.5 533.5 C 424.67 525.67 430 521.5 425.5 533.5 Z M 208.5 263.5 C 208.67 264.83 212 271.5 212.5 271.5 C 213 271.5 212.17 264.83 211.5 263.5 C 210.83 262.17 208.33 262.17 208.5 263.5 Z M 132.5 171.5 C 131.83 171.83 125.17 181.83 124.5 183.5 C 123.83 185.17 127.17 183.5 128.5 181.5 C 129.83 179.5 133.17 171.17 132.5 171.5 Z"/>
    <path fill="#007d38" stroke="#007d38" d="M 473.5 829.5 C 473.67 832.5 477 850.83 477.5 851.5 C 478 852.17 477.17 837.17 476.5 833.5 C 475.83 829.83 473.33 826.5 473.5 829.5 Z M 227.5 823.5 C 226.83 824 230.67 828.33 232.5 829.5 C 234.33 830.67 237.83 831 238.5 830.5 C 239.17 830 238.33 827.67 236.5 826.5 C 234.67 825.33 228.17 823 227.5 823.5 Z M 158.5 754.5 C 158.5 755.17 164.33 762.67 165.5 763.5 C 166.67 764.33 166.67 761 165.5 759.5 C 164.33 758 158.5 753.83 158.5 754.5 Z M 456.5 618.5 C 457 622.17 462 643 462.5 643.5 C 463 644 460.5 625.67 459.5 621.5 C 458.5 617.33 456 614.83 456.5 618.5 Z M 62.5 557.5 C 62.33 559.5 64.5 570 65.5 572.5 C 66.5 575 68.33 574.5 68.5 572.5 C 68.67 570.5 67.5 563 66.5 560.5 C 65.5 558 62.67 555.5 62.5 557.5 Z M 417.5 519.5 C 410.33 526 389.83 553 381.5 565.5 C 373.17 578 371.17 584 367.5 594.5 C 363.83 605 360.33 614.83 359.5 628.5 C 358.67 642.17 359.67 660.83 362.5 676.5 C 365.33 692.17 370.33 706.5 376.5 722.5 C 382.67 738.5 389 753.5 399.5 772.5 C 410 791.5 424.67 815.33 439.5 836.5 C 454.33 857.67 481.83 895.33 488.5 899.5 C 495.17 903.67 481.33 866 479.5 861.5 C 477.67 857 485.83 887.5 477.5 872.5 C 469.17 857.5 442 802.17 429.5 771.5 C 417 740.83 407.83 708.33 402.5 688.5 C 397.17 668.67 397.5 666 397.5 652.5 C 397.5 639 399.83 621.33 402.5 607.5 C 405.17 593.67 409.33 581 413.5 569.5 C 417.67 558 422.33 537 427.5 538.5 C 432.67 540 441 571.33 444.5 578.5 C 448 585.67 450.83 588.33 448.5 581.5 C 446.17 574.67 434.17 545.17 430.5 537.5 C 426.83 529.83 427.5 537.33 426.5 535.5 C 425.5 533.67 426 529.17 424.5 526.5 C 423 523.83 424.67 513 417.5 519.5 Z M 229.5 306.5 C 230 308.5 235.17 317.5 237.5 320.5 C 239.83 323.5 244 326.5 243.5 324.5 C 243 322.5 236.83 311.5 234.5 308.5 C 232.17 305.5 229 304.5 229.5 306.5 Z M 130.5 175.5 C 129.17 176.17 123.17 182.83 121.5 185.5 C 119.83 188.17 119.17 192.17 120.5 191.5 C 121.83 190.83 127.83 184.17 129.5 181.5 C 131.17 178.83 131.83 174.83 130.5 175.5 Z M 157.5 131.5 C 156.83 131.83 147.67 146 146.5 148.5 C 145.33 151 148.67 149.33 150.5 146.5 C 152.33 143.67 158.17 131.17 157.5 131.5 Z"/>
  </g>
</svg>
