<svg xmlns="http://www.w3.org/2000/svg" width="899" height="921" viewBox="0 0 899 921" role="img" aria-labelledby="title desc">
  <title id="title">Nur logo loop frame 038</title>
  <desc id="desc">Vector-traced frame from Nur_Logo_Loop_02.gif.</desc>
  <g id="frame-038" stroke-linejoin="round" stroke-linecap="round" stroke-width="0.5" shape-rendering="geometricPrecision">
    <path fill="#008136" stroke="#008136" d="M 226.5 74.5 C 218.83 79.83 192.67 101.67 182.5 110.5 C 172.33 119.33 171.17 120.67 165.5 127.5 C 159.83 134.33 159 134.83 148.5 151.5 C 138 168.17 115 201.67 102.5 227.5 C 90 253.33 81.33 281.33 73.5 306.5 C 65.67 331.67 60 356 55.5 378.5 C 51 401 46.83 415.5 46.5 441.5 C 46.17 467.5 51.83 518.5 53.5 534.5 C 55.17 550.5 55.83 533.67 56.5 537.5 C 57.17 541.33 55 544.67 57.5 557.5 C 60 570.33 65 595.83 71.5 614.5 C 78 633.17 85.17 649.17 96.5 669.5 C 107.83 689.83 124.17 716 139.5 736.5 C 154.83 757 171.67 776 188.5 792.5 C 205.33 809 222.67 823.17 240.5 835.5 C 258.33 847.83 273.83 856.83 295.5 866.5 C 317.17 876.17 345.83 886.67 370.5 893.5 C 395.17 900.33 423 905.17 443.5 907.5 C 464 909.83 486.67 911.67 493.5 907.5 C 500.33 903.33 487.17 893.17 484.5 882.5 C 481.83 871.83 479.17 866.67 477.5 843.5 C 475.83 820.33 476.17 773.5 474.5 743.5 C 472.83 713.5 470.5 687 467.5 663.5 C 464.5 640 460.83 620.17 456.5 602.5 C 452.17 584.83 448.17 572.67 441.5 557.5 C 434.83 542.33 425 525.17 416.5 511.5 C 408 497.83 407.83 493.5 390.5 475.5 C 373.17 457.5 333.17 423.67 312.5 403.5 C 291.83 383.33 279.5 370.33 266.5 354.5 C 253.5 338.67 243 323.17 234.5 308.5 C 226 293.83 219.17 276.17 215.5 266.5 C 211.83 256.83 213.5 253.33 212.5 250.5 C 211.5 247.67 210.67 254 209.5 249.5 C 208.33 245 207 229.17 205.5 223.5 C 204 217.83 201 227 200.5 215.5 C 200 204 201.33 170.33 202.5 154.5 C 203.67 138.67 206.17 126.33 207.5 120.5 C 208.83 114.67 208.83 123.67 210.5 119.5 C 212.17 115.33 214.5 102.33 217.5 95.5 C 220.5 88.67 227 82 228.5 78.5 C 230 75 234.17 69.17 226.5 74.5 Z"/>
    <path fill="#83bb26" stroke="#83bb26" d="M 453.5 483.5 C 452 480.5 422.83 504.67 418.5 512.5 C 414.17 520.33 421.67 535.33 427.5 530.5 C 433.33 525.67 455 486.5 453.5 483.5 Z M 623.5 44.5 C 616.33 42.67 610.67 39.83 622.5 47.5 C 634.33 55.17 676.67 78 694.5 90.5 C 712.33 103 719.5 110.17 729.5 122.5 C 739.5 134.83 748.83 153.33 754.5 164.5 C 760.17 175.67 761.17 180.67 763.5 189.5 C 765.83 198.33 767.83 208.17 768.5 217.5 C 769.17 226.83 768.83 236.33 767.5 245.5 C 766.17 254.67 766 261.17 760.5 272.5 C 755 283.83 743 302.5 734.5 313.5 C 726 324.5 719 330.17 709.5 338.5 C 700 346.83 694 352.67 677.5 363.5 C 661 374.33 617.5 382 610.5 403.5 C 603.5 425 630.5 468.33 635.5 492.5 C 640.5 516.67 639.83 530.17 640.5 548.5 C 641.17 566.83 632.33 597.67 639.5 602.5 C 646.67 607.33 666.17 588.83 683.5 577.5 C 700.83 566.17 726.33 548.33 743.5 534.5 C 760.67 520.67 775.67 505.83 786.5 494.5 C 797.33 483.17 800 479.67 808.5 466.5 C 817 453.33 830.17 431.17 837.5 415.5 C 844.83 399.83 849 385.83 852.5 372.5 C 856 359.17 857.33 350 858.5 335.5 C 859.67 321 860.17 300.17 859.5 285.5 C 858.83 270.83 857.17 259.17 854.5 247.5 C 851.83 235.83 849.5 228 843.5 215.5 C 837.5 203 832.17 190.17 818.5 172.5 C 804.83 154.83 776.5 123.5 761.5 109.5 C 746.5 95.5 744.5 97 728.5 88.5 C 712.5 80 683 65.83 665.5 58.5 C 648 51.17 630.67 46.33 623.5 44.5 Z"/>
    <path fill="#6ab12d" stroke="#6ab12d" d="M 460.5 146.5 C 454.83 143.83 478.33 171.17 485.5 185.5 C 492.67 199.83 499.33 213.17 503.5 232.5 C 507.67 251.83 509.83 281.83 510.5 301.5 C 511.17 321.17 509.5 334.5 507.5 350.5 C 505.5 366.5 511.5 368.33 498.5 397.5 C 485.5 426.67 441.5 504 429.5 525.5 C 417.5 547 428.17 528.5 426.5 526.5 C 424.83 524.5 421 515 419.5 513.5 C 418 512 416.33 514.33 417.5 517.5 C 418.67 520.67 424.17 529.67 426.5 532.5 C 428.83 535.33 425.83 543 431.5 534.5 C 437.17 526 447.5 495.17 460.5 481.5 C 473.5 467.83 484.67 464.67 509.5 452.5 C 534.33 440.33 589.33 404.83 609.5 408.5 C 629.67 412.17 625.67 452.17 630.5 474.5 C 635.33 496.83 637.67 521 638.5 542.5 C 639.33 564 645.17 588.83 635.5 603.5 C 625.83 618.17 596.5 621.5 580.5 630.5 C 564.5 639.5 552.33 647.67 539.5 657.5 C 526.67 667.33 512.17 681.17 503.5 689.5 C 494.83 697.83 491.17 702.5 487.5 707.5 C 483.83 712.5 483.33 713.83 481.5 719.5 C 479.67 725.17 477.5 731.83 476.5 741.5 C 475.5 751.17 472.33 751.17 475.5 777.5 C 478.67 803.83 493.67 882 495.5 899.5 C 497.33 917 488.33 885 486.5 882.5 C 484.67 880 483.5 880.5 484.5 884.5 C 485.5 888.5 490.5 902.67 492.5 906.5 C 494.5 910.33 485.17 923 496.5 907.5 C 507.83 892 543.67 840.33 560.5 813.5 C 577.33 786.67 587.67 768 597.5 746.5 C 607.33 725 612.5 709.17 619.5 684.5 C 626.5 659.83 635.83 621.5 639.5 598.5 C 643.17 575.5 642 564.5 641.5 546.5 C 641 528.5 639.5 508.83 636.5 490.5 C 633.5 472.17 629.67 457 623.5 436.5 C 617.33 416 608.83 391.67 599.5 367.5 C 590.17 343.33 580.83 319.17 567.5 291.5 C 554.17 263.83 537.33 225.67 519.5 201.5 C 501.67 177.33 466.17 149.17 460.5 146.5 Z"/>
    <path fill="#009f3a" stroke="#009f3a" d="M 611.5 406.5 C 591.67 406.33 533.17 439 507.5 451.5 C 481.83 464 470.17 468.33 457.5 481.5 C 444.83 494.67 436.33 522 431.5 530.5 C 426.67 539 429.5 532.67 428.5 532.5 C 427.5 532.33 422.5 522.5 425.5 529.5 C 428.5 536.5 440.33 556.17 446.5 574.5 C 452.67 592.83 458 611 462.5 639.5 C 467 668 471.17 711.17 473.5 745.5 C 475.83 779.83 474.83 822.33 476.5 845.5 C 478.17 868.67 481.67 877.5 483.5 884.5 C 485.33 891.5 487 886 487.5 887.5 C 488 889 486 892.5 486.5 893.5 C 487 894.5 490.33 892.83 490.5 893.5 C 490.67 894.17 487.17 895.17 487.5 897.5 C 487.83 899.83 491.67 906.83 492.5 907.5 C 493.33 908.17 491.67 902.33 492.5 901.5 C 493.33 900.67 496.5 903.17 497.5 902.5 C 498.5 901.83 502 918.67 498.5 897.5 C 495 876.33 480 801.17 476.5 775.5 C 473 749.83 476.17 753.33 477.5 743.5 C 478.83 733.67 480 725.17 484.5 716.5 C 489 707.83 495 701.17 504.5 691.5 C 514 681.83 528.5 668.5 541.5 658.5 C 554.5 648.5 566.67 640.33 582.5 631.5 C 598.33 622.67 627 620.67 636.5 605.5 C 646 590.33 639.67 559 639.5 540.5 C 639.33 522 637.67 509.17 635.5 494.5 C 633.33 479.83 630.5 467.17 626.5 452.5 C 622.5 437.83 631.33 406.67 611.5 406.5 Z"/>
    <path fill="#007a39" stroke="#007a39" d="M 428.5 540.5 C 425.67 546.5 418.33 564.17 414.5 576.5 C 410.67 588.83 407 597.5 405.5 614.5 C 404 631.5 403.67 660.5 405.5 678.5 C 407.33 696.5 412 707.83 416.5 722.5 C 421 737.17 423.33 744.5 432.5 766.5 C 441.67 788.5 463.83 838.5 471.5 854.5 C 479.17 870.5 478.5 884.17 478.5 862.5 C 478.5 840.83 474.17 761.5 471.5 724.5 C 468.83 687.5 466.33 664.5 462.5 640.5 C 458.67 616.5 453.67 597.17 448.5 580.5 C 443.33 563.83 434.83 547.17 431.5 540.5 C 428.17 533.83 431.33 534.5 428.5 540.5 Z"/>
    <path fill="#007d38" stroke="#007d38" d="M 115.5 699.5 C 115.83 700.67 129.17 719.83 131.5 722.5 C 133.83 725.17 132.17 719.33 129.5 715.5 C 126.83 711.67 115.17 698.33 115.5 699.5 Z M 416.5 518.5 C 411 524.83 394.67 543.33 386.5 556.5 C 378.33 569.67 371.83 584.5 367.5 597.5 C 363.17 610.5 361.17 622 360.5 634.5 C 359.83 647 360.83 658.67 363.5 672.5 C 366.17 686.33 371.5 703.5 376.5 717.5 C 381.5 731.5 382.17 736.17 393.5 756.5 C 404.83 776.83 429.17 816.67 444.5 839.5 C 459.83 862.33 479.67 889.83 485.5 893.5 C 491.33 897.17 481 867.17 479.5 861.5 C 478 855.83 476.67 860.83 476.5 859.5 C 476.33 858.17 478.83 854.33 478.5 853.5 C 478.17 852.67 482 869.33 474.5 854.5 C 467 839.67 443 786.83 433.5 764.5 C 424 742.17 422 735.17 417.5 720.5 C 413 705.83 408.33 693.83 406.5 676.5 C 404.67 659.17 405 632.83 406.5 616.5 C 408 600.17 411.67 590.67 415.5 578.5 C 419.33 566.33 424 543 429.5 543.5 C 435 544 448.67 583.17 448.5 581.5 C 448.33 579.83 433.33 544 428.5 533.5 C 423.67 523 421.5 521 419.5 518.5 C 417.5 516 422 512.17 416.5 518.5 Z M 231.5 302.5 C 229.33 299.67 231 306.33 233.5 310.5 C 236 314.67 246.83 328.83 246.5 327.5 C 246.17 326.17 233.67 305.33 231.5 302.5 Z M 199.5 212.5 C 199.33 214 200.67 220 201.5 221.5 C 202.33 223 204.33 223 204.5 221.5 C 204.67 220 203.33 214 202.5 212.5 C 201.67 211 199.67 211 199.5 212.5 Z M 229.5 74.5 C 228.5 74.5 219.83 82.5 218.5 83.5 C 217.17 84.5 220.5 80.5 221.5 80.5 C 222.5 80.5 223.17 84.5 224.5 83.5 C 225.83 82.5 230.5 74.5 229.5 74.5 Z"/>
  </g>
</svg>
