<svg xmlns="http://www.w3.org/2000/svg" width="899" height="921" viewBox="0 0 899 921" role="img" aria-labelledby="title desc">
  <title id="title">Nur logo loop frame 089</title>
  <desc id="desc">Vector-traced frame from Nur_Logo_Loop_02.gif.</desc>
  <g id="frame-089" stroke-linejoin="round" stroke-linecap="round" stroke-width="0.5" shape-rendering="geometricPrecision">
    <path fill="#008136" stroke="#008136" d="M 207.5 51.5 C 200.33 59.83 184 79.33 166.5 105.5 C 149 131.67 117.17 182.17 102.5 208.5 C 87.83 234.83 85.17 245.67 78.5 263.5 C 71.83 281.33 67.5 293.5 62.5 315.5 C 57.5 337.5 51.5 370.5 48.5 395.5 C 45.5 420.5 43.67 441.33 44.5 465.5 C 45.33 489.67 49 515.67 53.5 540.5 C 58 565.33 64.33 593 71.5 614.5 C 78.67 636 85.17 649.17 96.5 669.5 C 107.83 689.83 124.17 716 139.5 736.5 C 154.83 757 171.67 776 188.5 792.5 C 205.33 809 222.67 823.17 240.5 835.5 C 258.33 847.83 276.17 857.5 295.5 866.5 C 314.83 875.5 334.5 883 356.5 889.5 C 378.5 896 404.67 902.33 427.5 905.5 C 450.33 908.67 484.17 913 493.5 908.5 C 502.83 904 486.17 889.33 483.5 878.5 C 480.83 867.67 480.17 879.33 477.5 843.5 C 474.83 807.67 471 703.67 467.5 663.5 C 464 623.33 460.83 620.17 456.5 602.5 C 452.17 584.83 450.67 576.5 441.5 557.5 C 432.33 538.5 412.83 505 401.5 488.5 C 390.17 472 388.33 472.67 373.5 458.5 C 358.67 444.33 331.5 422 312.5 403.5 C 293.5 385 274 364.5 259.5 347.5 C 245 330.5 233.33 314.17 225.5 301.5 C 217.67 288.83 215.17 276.67 212.5 271.5 C 209.83 266.33 212.83 281.17 209.5 270.5 C 206.17 259.83 195.83 225.5 192.5 207.5 C 189.17 189.5 189.5 177 189.5 162.5 C 189.5 148 189.17 138.33 192.5 120.5 C 195.83 102.67 207 67 209.5 55.5 C 212 44 214.67 43.17 207.5 51.5 Z"/>
    <path fill="#83bb26" stroke="#83bb26" d="M 446.5 495.5 C 445.33 493 423.67 509.67 420.5 515.5 C 417.33 521.33 423.17 533.83 427.5 530.5 C 431.83 527.17 447.67 498 446.5 495.5 Z M 662.5 31.5 C 652.67 26.17 650.67 25.5 659.5 34.5 C 668.33 43.5 699.83 67.83 715.5 85.5 C 731.17 103.17 743.67 123.5 753.5 140.5 C 763.33 157.5 770.17 175.67 774.5 187.5 C 778.83 199.33 778.67 202.83 779.5 211.5 C 780.33 220.17 781 229.17 779.5 239.5 C 778 249.83 776.67 260.67 770.5 273.5 C 764.33 286.33 756.5 301 742.5 316.5 C 728.5 332 706.83 351.5 686.5 366.5 C 666.17 381.5 628.67 389.67 620.5 406.5 C 612.33 423.33 633.83 452 637.5 467.5 C 641.17 483 641.17 481.67 642.5 499.5 C 643.83 517.33 645.67 556.17 645.5 574.5 C 645.33 592.83 634 608.17 641.5 609.5 C 649 610.83 674.33 592.67 690.5 582.5 C 706.67 572.33 723.33 560.33 738.5 548.5 C 753.67 536.67 770 522.5 781.5 511.5 C 793 500.5 798.67 494.17 807.5 482.5 C 816.33 470.83 826.83 455.17 834.5 441.5 C 842.17 427.83 848.17 415.33 853.5 400.5 C 858.83 385.67 863.83 366.83 866.5 352.5 C 869.17 338.17 869.17 327.17 869.5 314.5 C 869.83 301.83 869.83 288.67 868.5 276.5 C 867.17 264.33 865.67 254.5 861.5 241.5 C 857.33 228.5 850.17 211.33 843.5 198.5 C 836.83 185.67 834.17 180.5 821.5 164.5 C 808.83 148.5 784.67 118.83 767.5 102.5 C 750.33 86.17 736 78.33 718.5 66.5 C 701 54.67 672.33 36.83 662.5 31.5 Z"/>
    <path fill="#6ab12d" stroke="#6ab12d" d="M 484.5 135.5 C 479.33 132 498.5 174.67 503.5 193.5 C 508.5 212.33 512.33 229.33 514.5 248.5 C 516.67 267.67 516.83 293 516.5 308.5 C 516.17 324 515.17 328 512.5 341.5 C 509.83 355 514.33 358.67 500.5 389.5 C 486.67 420.33 441.83 503.67 429.5 526.5 C 417.17 549.33 427.83 528.17 426.5 526.5 C 425.17 524.83 422.67 517.5 421.5 516.5 C 420.33 515.5 418.67 517.83 419.5 520.5 C 420.33 523.17 424.67 530.5 426.5 532.5 C 428.33 534.5 426.67 538.5 430.5 532.5 C 434.33 526.5 445 503.67 449.5 496.5 C 454 489.33 447.17 495.67 457.5 489.5 C 467.83 483.33 484.67 472.5 511.5 459.5 C 538.33 446.5 597.33 407.83 618.5 411.5 C 639.67 415.17 634.33 460.33 638.5 481.5 C 642.67 502.67 643.17 517.17 643.5 538.5 C 643.83 559.83 650.67 593 640.5 609.5 C 630.33 626 600.5 627.67 582.5 637.5 C 564.5 647.33 548.67 656.5 532.5 668.5 C 516.33 680.5 494.5 700.33 485.5 709.5 C 476.5 718.67 480.5 717.67 478.5 723.5 C 476.5 729.33 473.83 729.17 473.5 744.5 C 473.17 759.83 473 788.33 476.5 815.5 C 480 842.67 491 892 494.5 907.5 C 498 923 483.83 928.5 497.5 908.5 C 511.17 888.5 559 816.33 576.5 787.5 C 594 758.67 593.83 756 602.5 735.5 C 611.17 715 621.67 685.83 628.5 664.5 C 635.33 643.17 640.5 627.83 643.5 607.5 C 646.5 587.17 647.33 566.17 646.5 542.5 C 645.67 518.83 644.5 493.5 638.5 465.5 C 632.5 437.5 622.33 405.67 610.5 374.5 C 598.67 343.33 580.17 305.17 567.5 278.5 C 554.83 251.83 548.33 238.33 534.5 214.5 C 520.67 190.67 489.67 139 484.5 135.5 Z"/>
    <path fill="#009f3a" stroke="#009f3a" d="M 475.5 802.5 C 472.5 794.5 476.83 846.67 478.5 861.5 C 480.17 876.33 483.17 883.67 485.5 891.5 C 487.83 899.33 490.67 905.5 492.5 908.5 C 494.33 911.5 499.33 927.17 496.5 909.5 C 493.67 891.83 478.5 810.5 475.5 802.5 Z M 620.5 410.5 C 599.83 411.5 535.17 446.67 509.5 458.5 C 483.83 470.33 476.67 475.5 466.5 481.5 C 456.33 487.5 454.5 486.5 448.5 494.5 C 442.5 502.5 434.33 523.67 430.5 529.5 C 426.67 535.33 422.83 522 425.5 529.5 C 428.17 537 440.67 558 446.5 574.5 C 452.33 591 456.67 608.5 460.5 628.5 C 464.33 648.5 467.17 666.5 469.5 694.5 C 471.83 722.5 473.67 787.83 474.5 796.5 C 475.33 805.17 472.5 760.67 474.5 746.5 C 476.5 732.33 480 721.67 486.5 711.5 C 493 701.33 503.83 693.67 513.5 685.5 C 523.17 677.33 532.67 670.33 544.5 662.5 C 556.33 654.67 568.33 647 584.5 638.5 C 600.67 630 631.5 620.67 641.5 611.5 C 651.5 602.33 644.5 603.17 644.5 583.5 C 644.5 563.83 643.33 515.33 641.5 493.5 C 639.67 471.67 637 466.33 633.5 452.5 C 630 438.67 641.17 409.5 620.5 410.5 Z"/>
    <path fill="#007a39" stroke="#007a39" d="M 426.5 533.5 C 420.17 531.67 415.5 555.5 410.5 569.5 C 405.5 583.5 399.17 600 396.5 617.5 C 393.83 635 393.33 658.67 394.5 674.5 C 395.67 690.33 399.33 699 403.5 712.5 C 407.67 726 406 726.17 419.5 755.5 C 433 784.83 475.17 874 484.5 888.5 C 493.83 903 477.67 869.83 475.5 842.5 C 473.33 815.17 473.67 758.17 471.5 724.5 C 469.33 690.83 466.33 664.5 462.5 640.5 C 458.67 616.5 454.5 598.33 448.5 580.5 C 442.5 562.67 432.83 535.33 426.5 533.5 Z M 78.5 270.5 C 78 270.67 74.67 277.33 74.5 278.5 C 74.33 279.67 76.83 278.83 77.5 277.5 C 78.17 276.17 79 270.33 78.5 270.5 Z"/>
    <path fill="#007d38" stroke="#007d38" d="M 470.5 777.5 C 470.33 785.17 473.33 832.17 474.5 844.5 C 475.67 856.83 477.33 859.17 477.5 851.5 C 477.67 843.83 476.67 810.83 475.5 798.5 C 474.33 786.17 470.67 769.83 470.5 777.5 Z M 115.5 699.5 C 115.83 700.67 129.17 719.83 131.5 722.5 C 133.83 725.17 132.17 719.33 129.5 715.5 C 126.83 711.67 115.17 698.33 115.5 699.5 Z M 456.5 618.5 C 457 622.17 462 643 462.5 643.5 C 463 644 460.5 625.67 459.5 621.5 C 458.5 617.33 456 614.83 456.5 618.5 Z M 416.5 518.5 C 410 523.5 394 543.83 385.5 556.5 C 377 569.17 370 584.33 365.5 594.5 C 361 604.67 359.67 605.33 358.5 617.5 C 357.33 629.67 355.5 649 358.5 667.5 C 361.5 686 369.67 710.83 376.5 728.5 C 383.33 746.17 383.5 747.5 399.5 773.5 C 415.5 799.5 457.83 863.83 472.5 884.5 C 487.17 905.17 486.33 901.33 487.5 897.5 C 488.67 893.67 481.33 866.17 479.5 861.5 C 477.67 856.83 486.33 887.5 476.5 869.5 C 466.67 851.5 433.67 784.5 420.5 753.5 C 407.33 722.5 401.83 699.33 397.5 683.5 C 393.17 667.67 394.5 669.17 394.5 658.5 C 394.5 647.83 394.67 634 397.5 619.5 C 400.33 605 406.5 585 411.5 571.5 C 416.5 558 422.5 539.33 427.5 538.5 C 432.5 537.67 436.83 555.17 441.5 566.5 C 446.17 577.83 455.83 608.33 455.5 606.5 C 455.17 604.67 444.67 568.83 439.5 555.5 C 434.33 542.17 428.33 532.67 424.5 526.5 C 420.67 520.33 423 513.5 416.5 518.5 Z M 246.5 332.5 C 248 335 260.5 350 261.5 350.5 C 262.5 351 255 338.5 252.5 335.5 C 250 332.5 245 330 246.5 332.5 Z M 239.5 322.5 C 240.17 323.83 246 330.5 246.5 330.5 C 247 330.5 243.67 323.83 242.5 322.5 C 241.33 321.17 238.83 321.17 239.5 322.5 Z M 224.5 299.5 C 223.17 298.17 223.17 301.5 224.5 303.5 C 225.83 305.5 232.5 312.17 232.5 311.5 C 232.5 310.83 225.83 300.83 224.5 299.5 Z M 78.5 269.5 C 77.83 270.17 75.33 277.67 75.5 278.5 C 75.67 279.33 79 276 79.5 274.5 C 80 273 79.17 268.83 78.5 269.5 Z M 86.5 250.5 C 85.83 250.83 80.83 259.17 80.5 260.5 C 80.17 261.83 83.5 260.17 84.5 258.5 C 85.5 256.83 87.17 250.17 86.5 250.5 Z M 193.5 118.5 C 193.33 117.67 189.17 120.17 188.5 121.5 C 187.83 122.83 188.67 127 189.5 126.5 C 190.33 126 193.67 119.33 193.5 118.5 Z M 170.5 104.5 C 171.17 102.33 169.33 102.17 167.5 104.5 C 165.67 106.83 160.17 116.33 159.5 118.5 C 158.83 120.67 161.67 119.83 163.5 117.5 C 165.33 115.17 169.83 106.67 170.5 104.5 Z M 207.5 53.5 C 206.67 52.67 203.17 54.83 202.5 56.5 C 201.83 58.17 202.67 62.67 203.5 63.5 C 204.33 64.33 206.83 63.17 207.5 61.5 C 208.17 59.83 208.33 54.33 207.5 53.5 Z"/>
  </g>
</svg>
