<svg xmlns="http://www.w3.org/2000/svg" width="899" height="921" viewBox="0 0 899 921" role="img" aria-labelledby="title desc">
  <title id="title">Nur logo loop frame 061</title>
  <desc id="desc">Vector-traced frame from Nur_Logo_Loop_02.gif.</desc>
  <g id="frame-061" stroke-linejoin="round" stroke-linecap="round" stroke-width="0.5" shape-rendering="geometricPrecision">
    <path fill="#008136" stroke="#008136" d="M 195.5 50.5 C 187.83 60.33 169 84.33 152.5 109.5 C 136 134.67 109 179.17 96.5 201.5 C 84 223.83 84.33 225 77.5 243.5 C 70.67 262 60.67 291.83 55.5 312.5 C 50.33 333.17 47.83 355.67 46.5 367.5 C 45.17 379.33 47.83 380.5 47.5 383.5 C 47.17 386.5 45.67 373.17 44.5 385.5 C 43.33 397.83 39.5 432.67 40.5 457.5 C 41.5 482.33 45.33 508.33 50.5 534.5 C 55.67 560.67 63.83 592 71.5 614.5 C 79.17 637 85.17 649.17 96.5 669.5 C 107.83 689.83 124.17 716 139.5 736.5 C 154.83 757 171.67 776 188.5 792.5 C 205.33 809 222.67 823.17 240.5 835.5 C 258.33 847.83 273.83 856.83 295.5 866.5 C 317.17 876.17 345.83 886.67 370.5 893.5 C 395.17 900.33 423 905.17 443.5 907.5 C 464 909.83 486.67 911.67 493.5 907.5 C 500.33 903.33 487.17 893.17 484.5 882.5 C 481.83 871.83 479 863.83 477.5 843.5 C 476 823.17 477.17 790.5 475.5 760.5 C 473.83 730.5 470.67 689.83 467.5 663.5 C 464.33 637.17 459.83 617.67 456.5 602.5 C 453.17 587.33 452.33 584.67 447.5 572.5 C 442.67 560.33 435.17 543.5 427.5 529.5 C 419.83 515.5 411.83 501.33 401.5 488.5 C 391.17 475.67 380.83 466.33 365.5 452.5 C 350.17 438.67 324.5 419.17 309.5 405.5 C 294.5 391.83 288 384.83 275.5 370.5 C 263 356.17 246.17 336.67 234.5 319.5 C 222.83 302.33 212.17 282.83 205.5 267.5 C 198.83 252.17 196.83 234.33 194.5 227.5 C 192.17 220.67 192.83 230.83 191.5 226.5 C 190.17 222.17 187.67 216.33 186.5 201.5 C 185.33 186.67 182.5 162.67 184.5 137.5 C 186.5 112.33 196.67 65 198.5 50.5 C 200.33 36 203.17 40.67 195.5 50.5 Z"/>
    <path fill="#83bb26" stroke="#83bb26" d="M 440.5 503.5 C 439.33 501.83 424 514.33 421.5 518.5 C 419 522.67 424.33 526.83 425.5 528.5 C 426.67 530.17 426 532.67 428.5 528.5 C 431 524.33 441.67 505.17 440.5 503.5 Z M 680.5 26.5 C 670.33 20.33 674.33 26 677.5 29.5 C 680.67 33 691.17 39.33 699.5 47.5 C 707.83 55.67 716.83 64 727.5 78.5 C 738.17 93 754.5 117.83 763.5 134.5 C 772.5 151.17 777.67 163.33 781.5 178.5 C 785.33 193.67 787.33 210 786.5 225.5 C 785.67 241 780.83 259.17 776.5 271.5 C 772.17 283.83 766 291.33 760.5 299.5 C 755 307.67 755 309.33 743.5 320.5 C 732 331.67 711.67 351.67 691.5 366.5 C 671.33 381.33 630.67 388.67 622.5 409.5 C 614.33 430.33 638.67 463.17 642.5 491.5 C 646.33 519.83 645.83 559 645.5 579.5 C 645.17 600 633.17 613.17 640.5 614.5 C 647.83 615.83 672.67 598.17 689.5 587.5 C 706.33 576.83 727.17 561.5 741.5 550.5 C 755.83 539.5 764.5 532 775.5 521.5 C 786.5 511 798.67 498.17 807.5 487.5 C 816.33 476.83 821.33 469.33 828.5 457.5 C 835.67 445.67 844.33 430.33 850.5 416.5 C 856.67 402.67 861.83 387.83 865.5 374.5 C 869.17 361.17 871.17 350.5 872.5 336.5 C 873.83 322.5 874.17 304.83 873.5 290.5 C 872.83 276.17 871.17 262.67 868.5 250.5 C 865.83 238.33 862 228.5 857.5 217.5 C 853 206.5 854.33 203.83 841.5 184.5 C 828.67 165.17 797.67 121.17 780.5 101.5 C 763.33 81.83 755.17 79 738.5 66.5 C 721.83 54 690.67 32.67 680.5 26.5 Z"/>
    <path fill="#6ab12d" stroke="#6ab12d" d="M 639.5 618.5 C 636.5 608.17 614.33 628.17 599.5 635.5 C 584.67 642.83 565.33 653.17 550.5 662.5 C 535.67 671.83 521 682.83 510.5 691.5 C 500 700.17 493.5 704.67 487.5 714.5 C 481.5 724.33 476.33 734.67 474.5 750.5 C 472.67 766.33 473.67 786.83 476.5 809.5 C 479.33 832.17 489.83 874.83 491.5 886.5 C 493.17 898.17 487.83 880.17 486.5 879.5 C 485.17 878.83 482.33 877.83 483.5 882.5 C 484.67 887.17 490.33 904.67 493.5 907.5 C 496.67 910.33 494.67 910 502.5 899.5 C 510.33 889 526.67 865.83 540.5 844.5 C 554.33 823.17 572.67 796 585.5 771.5 C 598.33 747 608.5 723 617.5 697.5 C 626.5 672 642.5 628.83 639.5 618.5 Z M 490.5 133.5 C 492.17 140.83 500.83 161.83 505.5 180.5 C 510.17 199.17 515.83 226.5 518.5 245.5 C 521.17 264.5 521.83 278.67 521.5 294.5 C 521.17 310.33 519.5 324.5 516.5 340.5 C 513.5 356.5 508 377.33 503.5 390.5 C 499 403.67 500.5 400.5 489.5 419.5 C 478.5 438.5 447.67 487 437.5 504.5 C 427.33 522 431 522 428.5 524.5 C 426 527 423.83 519.83 422.5 519.5 C 421.17 519.17 419.83 520.33 420.5 522.5 C 421.17 524.67 424.67 530.5 426.5 532.5 C 428.33 534.5 428.17 539.17 431.5 534.5 C 434.83 529.83 440.5 512.17 446.5 504.5 C 452.5 496.83 456.67 495.17 467.5 488.5 C 478.33 481.83 485.83 476.83 511.5 464.5 C 537.17 452.17 601.33 417.33 621.5 414.5 C 641.67 411.67 629.17 433.83 632.5 447.5 C 635.83 461.17 639.5 479.83 641.5 496.5 C 643.5 513.17 644.83 528.83 644.5 547.5 C 644.17 566.17 640 597.17 639.5 608.5 C 639 619.83 640.33 620 641.5 615.5 C 642.67 611 646.17 602.5 646.5 581.5 C 646.83 560.5 647.17 518.33 643.5 489.5 C 639.83 460.67 631 431.17 624.5 408.5 C 618 385.83 614 376.83 604.5 353.5 C 595 330.17 579.67 294.5 567.5 268.5 C 555.33 242.5 543.5 219.5 531.5 197.5 C 519.5 175.5 502.33 147.17 495.5 136.5 C 488.67 125.83 488.83 126.17 490.5 133.5 Z"/>
    <path fill="#009f3a" stroke="#009f3a" d="M 474.5 797.5 C 474.67 808.17 477 847 478.5 861.5 C 480 876 481.5 878.33 483.5 884.5 C 485.5 890.67 489.67 897.33 490.5 898.5 C 491.33 899.67 488 892.17 488.5 891.5 C 489 890.83 495.33 910.17 493.5 894.5 C 491.67 878.83 480.67 813.67 477.5 797.5 C 474.33 781.33 474.33 786.83 474.5 797.5 Z M 623.5 413.5 C 602.83 416.5 535.83 451.17 509.5 463.5 C 483.17 475.83 476.17 481 465.5 487.5 C 454.83 494 451.17 495.33 445.5 502.5 C 439.83 509.67 434.5 525.5 431.5 530.5 C 428.5 535.5 425 525.17 427.5 532.5 C 430 539.83 440.67 556.67 446.5 574.5 C 452.33 592.33 458.33 615.5 462.5 639.5 C 466.67 663.5 469.5 693 471.5 718.5 C 473.5 744 473.83 786.83 474.5 792.5 C 475.17 798.17 474 763.5 475.5 752.5 C 477 741.5 480.67 733.33 483.5 726.5 C 486.33 719.67 487.67 717.17 492.5 711.5 C 497.33 705.83 502.5 700.5 512.5 692.5 C 522.5 684.5 531.17 676 552.5 663.5 C 573.83 651 625 633 640.5 617.5 C 656 602 645.17 591 645.5 570.5 C 645.83 550 644.5 515.33 642.5 494.5 C 640.5 473.67 636.67 459 633.5 445.5 C 630.33 432 644.17 410.5 623.5 413.5 Z"/>
    <path fill="#007a39" stroke="#007a39" d="M 426.5 535.5 C 422.5 539.17 416.33 560.33 412.5 572.5 C 408.67 584.67 405.67 597 403.5 608.5 C 401.33 620 399.67 630.17 399.5 641.5 C 399.33 652.83 398.67 659.67 402.5 676.5 C 406.33 693.33 410.33 712 422.5 742.5 C 434.67 773 466.17 840 475.5 859.5 C 484.83 879 479.17 882 478.5 859.5 C 477.83 837 474.17 761 471.5 724.5 C 468.83 688 466.33 664.5 462.5 640.5 C 458.67 616.5 452.83 595.5 448.5 580.5 C 444.17 565.5 440.17 558 436.5 550.5 C 432.83 543 430.5 531.83 426.5 535.5 Z M 214.5 287.5 C 213.83 287.17 215.5 293 216.5 294.5 C 217.5 296 220.83 297.67 220.5 296.5 C 220.17 295.33 215.17 287.83 214.5 287.5 Z M 87.5 224.5 C 86.83 224.83 81.83 234 81.5 235.5 C 81.17 237 84.5 235.33 85.5 233.5 C 86.5 231.67 88.17 224.17 87.5 224.5 Z M 172.5 83.5 C 172 83.5 167.83 89.33 167.5 90.5 C 167.17 91.67 169.67 91.67 170.5 90.5 C 171.33 89.33 173 83.5 172.5 83.5 Z"/>
    <path fill="#007d38" stroke="#007d38" d="M 115.5 699.5 C 115.83 700.67 129.17 719.83 131.5 722.5 C 133.83 725.17 132.17 719.33 129.5 715.5 C 126.83 711.67 115.17 698.33 115.5 699.5 Z M 71.5 608.5 C 70.83 608 70.83 612.17 71.5 613.5 C 72.17 614.83 75.5 617.33 75.5 616.5 C 75.5 615.67 72.17 609 71.5 608.5 Z M 419.5 523.5 C 413.5 529.5 396.17 548 387.5 560.5 C 378.83 573 372 587.33 367.5 598.5 C 363 609.67 361.33 614.5 360.5 627.5 C 359.67 640.5 359.83 660.33 362.5 676.5 C 365.17 692.67 369.33 706.5 376.5 724.5 C 383.67 742.5 391.33 760.5 405.5 784.5 C 419.67 808.5 447 848.17 461.5 868.5 C 476 888.83 489.67 907 492.5 906.5 C 495.33 906 480.83 874.33 478.5 865.5 C 476.17 856.67 479.17 855.67 478.5 853.5 C 477.83 851.33 474.67 852.83 474.5 852.5 C 474.33 852.17 477.17 854.67 477.5 851.5 C 477.83 848.33 477 833.67 476.5 833.5 C 476 833.33 483.33 866 474.5 850.5 C 465.67 835 435.33 769.83 423.5 740.5 C 411.67 711.17 407.33 690.67 403.5 674.5 C 399.67 658.33 400.33 654.17 400.5 643.5 C 400.67 632.83 402.33 622 404.5 610.5 C 406.67 599 409.5 586.17 413.5 574.5 C 417.5 562.83 422.67 539.33 428.5 540.5 C 434.33 541.67 446.67 579 448.5 581.5 C 450.33 584 443.67 565 439.5 555.5 C 435.33 546 426.83 529.83 423.5 524.5 C 420.17 519.17 425.5 517.5 419.5 523.5 Z M 413.5 510.5 C 413.5 511.33 417.67 518.83 418.5 519.5 C 419.33 520.17 419.33 516 418.5 514.5 C 417.67 513 413.5 509.67 413.5 510.5 Z M 46.5 510.5 C 46 511.33 46.83 517.17 47.5 518.5 C 48.17 519.83 50 519.33 50.5 518.5 C 51 517.67 51.17 514.83 50.5 513.5 C 49.83 512.17 47 509.67 46.5 510.5 Z M 398.5 487.5 C 396.83 485.83 396.83 489.17 398.5 491.5 C 400.17 493.83 408.5 502.17 408.5 501.5 C 408.5 500.83 400.17 489.17 398.5 487.5 Z M 344.5 436.5 C 344.33 437 348.5 442 349.5 442.5 C 350.5 443 351.33 440.5 350.5 439.5 C 349.67 438.5 344.67 436 344.5 436.5 Z M 48.5 380.5 C 48 379.67 46.17 380.17 45.5 381.5 C 44.83 382.83 44 387.67 44.5 388.5 C 45 389.33 47.83 387.83 48.5 386.5 C 49.17 385.17 49 381.33 48.5 380.5 Z M 87.5 223.5 C 86.67 224 81.67 234.83 81.5 236.5 C 81.33 238.17 85.5 235.67 86.5 233.5 C 87.5 231.33 88.33 223 87.5 223.5 Z"/>
  </g>
</svg>
