<svg xmlns="http://www.w3.org/2000/svg" width="899" height="921" viewBox="0 0 899 921" role="img" aria-labelledby="title desc">
  <title id="title">Nur logo loop frame 035</title>
  <desc id="desc">Vector-traced frame from Nur_Logo_Loop_02.gif.</desc>
  <g id="frame-035" stroke-linejoin="round" stroke-linecap="round" stroke-width="0.5" shape-rendering="geometricPrecision">
    <path fill="#008136" stroke="#008136" d="M 232.5 75.5 C 223.67 81.5 193.83 104.17 182.5 113.5 C 171.17 122.83 177.5 112.5 164.5 131.5 C 151.5 150.5 119.33 198.5 104.5 227.5 C 89.67 256.5 83.33 280.67 75.5 305.5 C 67.67 330.33 62 355 57.5 376.5 C 53 398 50 417.5 48.5 434.5 C 47 451.5 47.67 462.83 48.5 478.5 C 49.33 494.17 49.67 505.83 53.5 528.5 C 57.33 551.17 64.33 591 71.5 614.5 C 78.67 638 85.17 649.17 96.5 669.5 C 107.83 689.83 124.17 716 139.5 736.5 C 154.83 757 171.67 776 188.5 792.5 C 205.33 809 222.67 823.17 240.5 835.5 C 258.33 847.83 273.83 856.83 295.5 866.5 C 317.17 876.17 345.83 886.67 370.5 893.5 C 395.17 900.33 423 905.17 443.5 907.5 C 464 909.83 487 912.83 493.5 907.5 C 500 902.17 485.17 886.17 482.5 875.5 C 479.83 864.83 478.83 865.5 477.5 843.5 C 476.17 821.5 476.17 773.5 474.5 743.5 C 472.83 713.5 470.5 687 467.5 663.5 C 464.5 640 460.83 620.17 456.5 602.5 C 452.17 584.83 448.17 572.67 441.5 557.5 C 434.83 542.33 425 525.17 416.5 511.5 C 408 497.83 407.83 493.5 390.5 475.5 C 373.17 457.5 332.17 422.5 312.5 403.5 C 292.83 384.5 284.17 375.67 272.5 361.5 C 260.83 347.33 251 332.67 242.5 318.5 C 234 304.33 226.5 290 221.5 276.5 C 216.5 263 214.5 244.17 212.5 237.5 C 210.5 230.83 209.67 237.17 209.5 236.5 C 209.33 235.83 212.17 237.83 211.5 233.5 C 210.83 229.17 206.33 222.5 205.5 210.5 C 204.67 198.5 205.5 173.83 206.5 161.5 C 207.5 149.17 211 141.33 211.5 136.5 C 212 131.67 209.33 133.33 209.5 132.5 C 209.67 131.67 209.83 138.67 212.5 131.5 C 215.17 124.33 221.67 98.5 225.5 89.5 C 229.33 80.5 234.33 79.83 235.5 77.5 C 236.67 75.17 241.33 69.5 232.5 75.5 Z"/>
    <path fill="#83bb26" stroke="#83bb26" d="M 455.5 479.5 C 453.83 476.17 422.17 502.83 417.5 511.5 C 412.83 520.17 421.17 536.83 427.5 531.5 C 433.83 526.17 457.17 482.83 455.5 479.5 Z M 618.5 44.5 C 616.33 44.83 616.67 46.33 622.5 49.5 C 628.33 52.67 642.5 57.5 653.5 63.5 C 664.5 69.5 676.67 76.67 688.5 85.5 C 700.33 94.33 715.5 107.33 724.5 116.5 C 733.5 125.67 737.83 133.17 742.5 140.5 C 747.17 147.83 748.67 148.17 752.5 160.5 C 756.33 172.83 763.33 201.5 765.5 214.5 C 767.67 227.5 766.5 229.67 765.5 238.5 C 764.5 247.33 764.5 255.67 759.5 267.5 C 754.5 279.33 743.33 298.5 735.5 309.5 C 727.67 320.5 721.67 325.17 712.5 333.5 C 703.33 341.83 697.83 348 680.5 359.5 C 663.17 371 617.67 387 608.5 402.5 C 599.33 418 621 436.83 625.5 452.5 C 630 468.17 633 479.67 635.5 496.5 C 638 513.33 639.83 536.17 640.5 553.5 C 641.17 570.83 631.83 597.17 639.5 600.5 C 647.17 603.83 670 584.17 686.5 573.5 C 703 562.83 722.17 549.67 738.5 536.5 C 754.83 523.33 773.5 505.67 784.5 494.5 C 795.5 483.33 796.5 481.67 804.5 469.5 C 812.5 457.33 825.17 436.83 832.5 421.5 C 839.83 406.17 844.67 391.5 848.5 377.5 C 852.33 363.5 854.17 353.67 855.5 337.5 C 856.83 321.33 857.33 296.67 856.5 280.5 C 855.67 264.33 854.5 254.33 850.5 240.5 C 846.5 226.67 840 211.33 832.5 197.5 C 825 183.67 818.17 172.83 805.5 157.5 C 792.83 142.17 769.83 117.5 756.5 105.5 C 743.17 93.5 736.83 91.83 725.5 85.5 C 714.17 79.17 703.5 73.83 688.5 67.5 C 673.5 61.17 647.17 51.33 635.5 47.5 C 623.83 43.67 620.67 44.17 618.5 44.5 Z"/>
    <path fill="#6ab12d" stroke="#6ab12d" d="M 459.5 151.5 C 454.5 150 479.83 177.5 487.5 192.5 C 495.17 207.5 501.67 224.67 505.5 241.5 C 509.33 258.33 510.17 274.67 510.5 293.5 C 510.83 312.33 509.5 336.83 507.5 354.5 C 505.5 372.17 511.83 370.67 498.5 399.5 C 485.17 428.33 440.83 508.67 427.5 527.5 C 414.17 546.33 420.5 514.67 418.5 512.5 C 416.5 510.33 413.5 510.83 415.5 514.5 C 417.5 518.17 422.5 540.67 430.5 534.5 C 438.5 528.33 449.67 491.83 463.5 477.5 C 477.33 463.17 489.33 460.17 513.5 448.5 C 537.67 436.83 589.17 403.17 608.5 407.5 C 627.83 411.83 624.5 451.5 629.5 474.5 C 634.5 497.5 637.67 524.17 638.5 545.5 C 639.33 566.83 644.17 588.67 634.5 602.5 C 624.83 616.33 595.83 620 580.5 628.5 C 565.17 637 556.17 642.67 542.5 653.5 C 528.83 664.33 508.83 682.33 498.5 693.5 C 488.17 704.67 484.17 712.33 480.5 720.5 C 476.83 728.67 477.17 731.83 476.5 742.5 C 475.83 753.17 473 758.17 476.5 784.5 C 480 810.83 494.5 881.17 497.5 900.5 C 500.5 919.83 496 902.5 494.5 900.5 C 493 898.5 489.83 890 488.5 888.5 C 487.17 887 485.33 888.33 486.5 891.5 C 487.67 894.67 483.17 920.5 495.5 907.5 C 507.83 894.5 543.5 840.33 560.5 813.5 C 577.5 786.67 588 767.17 597.5 746.5 C 607 725.83 611.83 708 617.5 689.5 C 623.17 671 627.83 651.5 631.5 635.5 C 635.17 619.5 637.83 607.5 639.5 593.5 C 641.17 579.5 642 568 641.5 551.5 C 641 535 639 511.33 636.5 494.5 C 634 477.67 632.33 470.33 626.5 450.5 C 620.67 430.67 611.5 402 601.5 375.5 C 591.5 349 580.5 320.5 566.5 291.5 C 552.5 262.5 535.33 224.83 517.5 201.5 C 499.67 178.17 464.5 153 459.5 151.5 Z"/>
    <path fill="#009f3a" stroke="#009f3a" d="M 609.5 405.5 C 590.33 404 536.17 435.67 511.5 447.5 C 486.83 459.33 475 462.5 461.5 476.5 C 448 490.5 436.5 522.67 430.5 531.5 C 424.5 540.33 422.83 522.33 425.5 529.5 C 428.17 536.67 440.33 556.17 446.5 574.5 C 452.67 592.83 458 611 462.5 639.5 C 467 668 471.17 711.17 473.5 745.5 C 475.83 779.83 475.17 823.5 476.5 845.5 C 477.83 867.5 478.83 867.17 481.5 877.5 C 484.17 887.83 489.5 904 492.5 907.5 C 495.5 911 502 919.33 499.5 898.5 C 497 877.67 481.17 808.17 477.5 782.5 C 473.83 756.83 476.5 755.33 477.5 744.5 C 478.5 733.67 479.83 725.67 483.5 717.5 C 487.17 709.33 489.33 706 499.5 695.5 C 509.67 685 530.67 665.5 544.5 654.5 C 558.33 643.5 567.17 638.17 582.5 629.5 C 597.83 620.83 627 616.83 636.5 602.5 C 646 588.17 639.67 560.5 639.5 543.5 C 639.33 526.5 637.67 515 635.5 500.5 C 633.33 486 630.83 472.33 626.5 456.5 C 622.17 440.67 628.67 407 609.5 405.5 Z"/>
    <path fill="#007a39" stroke="#007a39" d="M 428.5 539.5 C 425.17 542.5 420.33 556.5 416.5 568.5 C 412.67 580.5 407.83 600 405.5 611.5 C 403.17 623 402.5 625.5 402.5 637.5 C 402.5 649.5 403.17 668.83 405.5 683.5 C 407.83 698.17 410.83 708.33 416.5 725.5 C 422.17 742.67 430.33 764.83 439.5 786.5 C 448.67 808.17 465 842.5 471.5 855.5 C 478 868.5 478.5 886.33 478.5 864.5 C 478.5 842.67 474.17 761.83 471.5 724.5 C 468.83 687.17 466.33 664.5 462.5 640.5 C 458.67 616.5 452.83 595.5 448.5 580.5 C 444.17 565.5 439.83 557.33 436.5 550.5 C 433.17 543.67 431.83 536.5 428.5 539.5 Z"/>
    <path fill="#007d38" stroke="#007d38" d="M 115.5 699.5 C 115.83 700.67 129.17 719.83 131.5 722.5 C 133.83 725.17 132.17 719.33 129.5 715.5 C 126.83 711.67 115.17 698.33 115.5 699.5 Z M 416.5 517.5 C 408 517.17 396.67 540 388.5 553.5 C 380.33 567 371.83 587 367.5 598.5 C 363.17 610 363.17 610.83 362.5 622.5 C 361.83 634.17 361.17 653 363.5 668.5 C 365.83 684 371.33 701 376.5 715.5 C 381.67 730 385.17 738 394.5 755.5 C 403.83 773 417.33 797.5 432.5 820.5 C 447.67 843.5 477.67 886.67 485.5 893.5 C 493.33 900.33 481 867 479.5 861.5 C 478 856 476.67 861.83 476.5 860.5 C 476.33 859.17 478.67 853.83 478.5 853.5 C 478.33 853.17 481.83 870 475.5 858.5 C 469.17 847 450.17 807 440.5 784.5 C 430.83 762 423.17 740.67 417.5 723.5 C 411.83 706.33 408.83 692.67 406.5 681.5 C 404.17 670.33 403.5 667.83 403.5 656.5 C 403.5 645.17 404.17 627.83 406.5 613.5 C 408.83 599.17 413.67 582.5 417.5 570.5 C 421.33 558.5 424.33 539.67 429.5 541.5 C 434.67 543.33 446.83 579.17 448.5 581.5 C 450.17 583.83 444.83 566.17 439.5 555.5 C 434.17 544.83 425 517.83 416.5 517.5 Z"/>
  </g>
</svg>
