<svg xmlns="http://www.w3.org/2000/svg" width="899" height="921" viewBox="0 0 899 921" role="img" aria-labelledby="title desc">
  <title id="title">Nur logo loop frame 029</title>
  <desc id="desc">Vector-traced frame from Nur_Logo_Loop_02.gif.</desc>
  <g id="frame-029" stroke-linejoin="round" stroke-linecap="round" stroke-width="0.5" shape-rendering="geometricPrecision">
    <path fill="#008136" stroke="#008136" d="M 244.5 81.5 C 233.83 87.83 197.67 109.33 182.5 121.5 C 167.33 133.67 164.83 139 153.5 154.5 C 142.17 170 126.67 190.33 114.5 214.5 C 102.33 238.67 89.67 271.33 80.5 299.5 C 71.33 327.67 64.33 358.67 59.5 383.5 C 54.67 408.33 52.5 428.67 51.5 448.5 C 50.5 468.33 52.67 492.5 53.5 502.5 C 54.33 512.5 56.33 506.67 56.5 508.5 C 56.67 510.33 54.67 511.5 54.5 513.5 C 54.33 515.5 54.83 519.17 55.5 520.5 C 56.17 521.83 58.5 520.83 58.5 521.5 C 58.5 522.17 53.33 509.67 55.5 524.5 C 57.67 539.33 64.33 586 71.5 610.5 C 78.67 635 87.67 651.33 98.5 671.5 C 109.33 691.67 124.33 714.33 136.5 731.5 C 148.67 748.67 155.33 758 171.5 774.5 C 187.67 791 212.83 815.17 233.5 830.5 C 254.17 845.83 275 856.67 295.5 866.5 C 316 876.33 334.5 883 356.5 889.5 C 378.5 896 404.67 902.5 427.5 905.5 C 450.33 908.5 484.33 912.5 493.5 907.5 C 502.67 902.5 485.17 886.17 482.5 875.5 C 479.83 864.83 478.83 865.83 477.5 843.5 C 476.17 821.17 476.17 771.5 474.5 741.5 C 472.83 711.5 470.5 686.67 467.5 663.5 C 464.5 640.33 460.83 620.17 456.5 602.5 C 452.17 584.83 448.5 573.17 441.5 557.5 C 434.5 541.83 423 522.17 414.5 508.5 C 406 494.83 407.5 493 390.5 475.5 C 373.5 458 332.17 422.5 312.5 403.5 C 292.83 384.5 283.67 374.83 272.5 361.5 C 261.33 348.17 252.67 334.83 245.5 323.5 C 238.33 312.17 234 303.67 229.5 293.5 C 225 283.33 220.17 269.17 218.5 262.5 C 216.83 255.83 220.5 260.5 219.5 253.5 C 218.5 246.5 212.33 240.83 212.5 220.5 C 212.67 200.17 217.67 150 220.5 131.5 C 223.33 113 225.17 117.5 229.5 109.5 C 233.83 101.5 244 88.17 246.5 83.5 C 249 78.83 255.17 75.17 244.5 81.5 Z"/>
    <path fill="#83bb26" stroke="#83bb26" d="M 460.5 471.5 C 462.33 464.33 445.83 481.17 438.5 487.5 C 431.17 493.83 420.17 505 416.5 509.5 C 412.83 514 414.67 511 416.5 514.5 C 418.33 518 420.17 537.67 427.5 530.5 C 434.83 523.33 458.67 478.67 460.5 471.5 Z M 616.5 56.5 C 612.33 56.67 612.5 57.5 618.5 59.5 C 624.5 61.5 642.33 64.67 652.5 68.5 C 662.67 72.33 669.5 76.17 679.5 82.5 C 689.5 88.83 703.67 99.17 712.5 106.5 C 721.33 113.83 727.33 120.5 732.5 126.5 C 737.67 132.5 740.17 135.83 743.5 142.5 C 746.83 149.17 749.83 154.67 752.5 166.5 C 755.17 178.33 759.17 197.33 759.5 213.5 C 759.83 229.67 756.83 251.5 754.5 263.5 C 752.17 275.5 750 277.33 745.5 285.5 C 741 293.67 738.5 300.67 727.5 312.5 C 716.5 324.33 699.33 342.17 679.5 356.5 C 659.67 370.83 615.83 376.33 608.5 398.5 C 601.17 420.67 629.83 463.83 635.5 489.5 C 641.17 515.17 642 535.33 642.5 552.5 C 643 569.67 638.67 585.5 638.5 592.5 C 638.33 599.5 632 599.5 641.5 594.5 C 651 589.5 677.67 574.5 695.5 562.5 C 713.33 550.5 733.67 535 748.5 522.5 C 763.33 510 774.33 499 784.5 487.5 C 794.67 476 801.83 465.83 809.5 453.5 C 817.17 441.17 824.83 426.67 830.5 413.5 C 836.17 400.33 840.33 387.17 843.5 374.5 C 846.67 361.83 848.33 354.5 849.5 337.5 C 850.67 320.5 851.5 289.5 850.5 272.5 C 849.5 255.5 847.67 248.5 843.5 235.5 C 839.33 222.5 833.83 209 825.5 194.5 C 817.17 180 805.17 162.83 793.5 148.5 C 781.83 134.17 766.17 118.17 755.5 108.5 C 744.83 98.83 740.5 96.67 729.5 90.5 C 718.5 84.33 703.83 76.83 689.5 71.5 C 675.17 66.17 655.67 61 643.5 58.5 C 631.33 56 620.67 56.33 616.5 56.5 Z"/>
    <path fill="#6ab12d" stroke="#6ab12d" d="M 485.5 886.5 C 486.17 889.83 490.5 903.17 492.5 906.5 C 494.5 909.83 498.17 909.83 497.5 906.5 C 496.83 903.17 490.5 889.83 488.5 886.5 C 486.5 883.17 484.83 883.17 485.5 886.5 Z M 636.5 597.5 C 631.17 587.33 601.33 612.33 587.5 619.5 C 573.67 626.67 564.17 633 553.5 640.5 C 542.83 648 533 656 523.5 664.5 C 514 673 503.67 683.33 496.5 691.5 C 489.33 699.67 483.83 706.33 480.5 713.5 C 477.17 720.67 477.17 724 476.5 734.5 C 475.83 745 472.83 748.83 476.5 776.5 C 480.17 804.17 494.17 880 498.5 900.5 C 502.83 921 495.5 908.83 502.5 899.5 C 509.5 890.17 525.5 868.17 540.5 844.5 C 555.5 820.83 579.33 784.83 592.5 757.5 C 605.67 730.17 612.17 707.17 619.5 680.5 C 626.83 653.83 641.83 607.67 636.5 597.5 Z M 451.5 159.5 C 450.33 160.83 472 177.83 480.5 190.5 C 489 203.17 497.67 218.17 502.5 235.5 C 507.33 252.83 508.67 274 509.5 294.5 C 510.33 315 509.33 340.33 507.5 358.5 C 505.67 376.67 511.5 375.67 498.5 403.5 C 485.5 431.33 441.5 505 429.5 525.5 C 417.5 546 428.5 529 426.5 526.5 C 424.5 524 419.33 512.5 417.5 510.5 C 415.67 508.5 413.33 510.33 415.5 514.5 C 417.67 518.67 421.83 542.83 430.5 535.5 C 439.17 528.17 454.67 485.33 467.5 470.5 C 480.33 455.67 484.17 457.83 507.5 446.5 C 530.83 435.17 587.5 399.83 607.5 402.5 C 627.5 405.17 622.67 445.5 627.5 462.5 C 632.33 479.5 634.33 491.17 636.5 504.5 C 638.67 517.83 640 527.33 640.5 542.5 C 641 557.67 639 594.83 639.5 595.5 C 640 596.17 644.67 567.5 643.5 546.5 C 642.33 525.5 637.83 493.67 632.5 469.5 C 627.17 445.33 615.83 413.5 611.5 401.5 C 607.17 389.5 614.17 415.83 606.5 397.5 C 598.83 379.17 580.83 323.5 565.5 291.5 C 550.17 259.5 527.5 223.67 514.5 205.5 C 501.5 187.33 498 190.17 487.5 182.5 C 477 174.83 452.67 158.17 451.5 159.5 Z"/>
    <path fill="#009f3a" stroke="#009f3a" d="M 609.5 401.5 C 589 399 528.83 434.67 505.5 445.5 C 482.17 456.33 477.83 459.83 469.5 466.5 C 461.17 473.17 461.83 474.67 455.5 485.5 C 449.17 496.33 436.5 524.17 431.5 531.5 C 426.5 538.83 423 522.33 425.5 529.5 C 428 536.67 440.33 556.17 446.5 574.5 C 452.67 592.83 458 611.33 462.5 639.5 C 467 667.67 471.17 709.17 473.5 743.5 C 475.83 777.83 475.17 823.17 476.5 845.5 C 477.83 867.83 478.83 867.17 481.5 877.5 C 484.17 887.83 490.33 903.33 492.5 907.5 C 494.67 911.67 493.5 902.83 494.5 902.5 C 495.5 902.17 497.5 906 498.5 905.5 C 499.5 905 504 921.33 500.5 899.5 C 497 877.67 481.33 801.67 477.5 774.5 C 473.67 747.33 476.83 746.33 477.5 736.5 C 478.17 726.67 478.17 722.67 481.5 715.5 C 484.83 708.33 487.83 703.83 497.5 693.5 C 507.17 683.17 525.67 664.83 539.5 653.5 C 553.33 642.17 563.83 635 580.5 625.5 C 597.17 616 629.33 610.67 639.5 596.5 C 649.67 582.33 641.83 556.17 641.5 540.5 C 641.17 524.83 639.67 515.83 637.5 502.5 C 635.33 489.17 633.17 477.33 628.5 460.5 C 623.83 443.67 630 404 609.5 401.5 Z"/>
    <path fill="#007a39" stroke="#007a39" d="M 428.5 540.5 C 425.17 543.83 420.67 556.83 416.5 570.5 C 412.33 584.17 405.67 605.5 403.5 622.5 C 401.33 639.5 400.83 654 403.5 672.5 C 406.17 691 414.67 717.67 419.5 733.5 C 424.33 749.33 423.17 746 432.5 767.5 C 441.83 789 467.83 846.5 475.5 862.5 C 483.17 878.5 479.17 886.5 478.5 863.5 C 477.83 840.5 474.17 761.67 471.5 724.5 C 468.83 687.33 466.33 664.5 462.5 640.5 C 458.67 616.5 452.83 595.5 448.5 580.5 C 444.17 565.5 439.83 557.17 436.5 550.5 C 433.17 543.83 431.83 537.17 428.5 540.5 Z"/>
    <path fill="#007d38" stroke="#007d38" d="M 473.5 829.5 C 473.67 832.5 477 850.83 477.5 851.5 C 478 852.17 477.17 837.17 476.5 833.5 C 475.83 829.83 473.33 826.5 473.5 829.5 Z M 196.5 797.5 C 197.67 799.17 208.5 809.17 209.5 809.5 C 210.5 809.83 204.67 801.5 202.5 799.5 C 200.33 797.5 195.33 795.83 196.5 797.5 Z M 456.5 618.5 C 457 622.17 462 643 462.5 643.5 C 463 644 460.5 625.67 459.5 621.5 C 458.5 617.33 456 614.83 456.5 618.5 Z M 415.5 516.5 C 409.33 521.17 395.17 541.5 387.5 554.5 C 379.83 567.5 373.67 582.5 369.5 594.5 C 365.33 606.5 363.5 614.83 362.5 626.5 C 361.5 638.17 361.17 650.17 363.5 664.5 C 365.83 678.83 370.17 695.33 376.5 712.5 C 382.83 729.67 391.33 748.67 401.5 767.5 C 411.67 786.33 423.67 805.5 437.5 825.5 C 451.33 845.5 477.5 881.5 484.5 887.5 C 491.5 893.5 480.83 866 479.5 861.5 C 478.17 857 476.67 861.83 476.5 860.5 C 476.33 859.17 478.83 854.33 478.5 853.5 C 478.17 852.67 482 870.17 474.5 855.5 C 467 840.83 442.5 786.17 433.5 765.5 C 424.5 744.83 425.33 747.33 420.5 731.5 C 415.67 715.67 407.17 688.33 404.5 670.5 C 401.83 652.67 402.33 640.83 404.5 624.5 C 406.67 608.17 413.17 586 417.5 572.5 C 421.83 559 424.17 537.83 430.5 543.5 C 436.83 549.17 454 604.5 455.5 606.5 C 457 608.5 444.67 568.83 439.5 555.5 C 434.33 542.17 428.5 533 424.5 526.5 C 420.5 520 421.67 511.83 415.5 516.5 Z M 68.5 356.5 C 67.83 356.83 62.83 368.5 62.5 370.5 C 62.17 372.5 65.5 370.83 66.5 368.5 C 67.5 366.17 69.17 356.17 68.5 356.5 Z M 217.5 259.5 C 217 260.33 216.83 263.33 217.5 264.5 C 218.17 265.67 221 267.33 221.5 266.5 C 222 265.67 221.17 260.67 220.5 259.5 C 219.83 258.33 218 258.67 217.5 259.5 Z M 147.5 165.5 C 147 165.5 139.5 175.5 138.5 177.5 C 137.5 179.5 140 179.5 141.5 177.5 C 143 175.5 148 165.5 147.5 165.5 Z"/>
  </g>
</svg>
