<svg xmlns="http://www.w3.org/2000/svg" width="899" height="921" viewBox="0 0 899 921" role="img" aria-labelledby="title desc">
  <title id="title">Nur logo loop frame 032</title>
  <desc id="desc">Vector-traced frame from Nur_Logo_Loop_02.gif.</desc>
  <g id="frame-032" stroke-linejoin="round" stroke-linecap="round" stroke-width="0.5" shape-rendering="geometricPrecision">
    <path fill="#008136" stroke="#008136" d="M 236.5 78.5 C 227.5 84 198.67 102.5 185.5 113.5 C 172.33 124.5 169 128.83 157.5 144.5 C 146 160.17 129.33 182.33 116.5 207.5 C 103.67 232.67 90.33 266 80.5 295.5 C 70.67 325 61.17 367.67 57.5 384.5 C 53.83 401.33 58.83 394.33 58.5 396.5 C 58.17 398.67 57 388.67 55.5 397.5 C 54 406.33 49.5 426.17 49.5 449.5 C 49.5 472.83 51.83 510 55.5 537.5 C 59.17 565 64.67 592.5 71.5 614.5 C 78.33 636.5 85.17 649.17 96.5 669.5 C 107.83 689.83 124.17 716 139.5 736.5 C 154.83 757 171.67 776 188.5 792.5 C 205.33 809 222.67 823.17 240.5 835.5 C 258.33 847.83 273.83 856.83 295.5 866.5 C 317.17 876.17 345.83 886.67 370.5 893.5 C 395.17 900.33 423 905.17 443.5 907.5 C 464 909.83 486.67 911.67 493.5 907.5 C 500.33 903.33 487.17 893.17 484.5 882.5 C 481.83 871.83 479.17 866.67 477.5 843.5 C 475.83 820.33 476.17 773.5 474.5 743.5 C 472.83 713.5 470.5 687 467.5 663.5 C 464.5 640 460.83 620.17 456.5 602.5 C 452.17 584.83 448.17 572.67 441.5 557.5 C 434.83 542.33 425 525.17 416.5 511.5 C 408 497.83 407.83 493.5 390.5 475.5 C 373.17 457.5 334 424.67 312.5 403.5 C 291 382.33 276.5 369.83 261.5 348.5 C 246.5 327.17 230.33 295 222.5 275.5 C 214.67 256 216.67 240.33 214.5 231.5 C 212.33 222.67 210.33 233.67 209.5 222.5 C 208.67 211.33 209 174.33 209.5 164.5 C 210 154.67 210.33 172.5 212.5 163.5 C 214.67 154.5 218 124.33 222.5 110.5 C 227 96.67 237.17 85.83 239.5 80.5 C 241.83 75.17 245.5 73 236.5 78.5 Z"/>
    <path fill="#83bb26" stroke="#83bb26" d="M 457.5 476.5 C 459.33 469.67 445.33 483.67 438.5 489.5 C 431.67 495.33 418.33 504.67 416.5 511.5 C 414.67 518.33 420.67 536.33 427.5 530.5 C 434.33 524.67 455.67 483.33 457.5 476.5 Z M 616.5 43.5 C 605.33 40.67 612.67 44.67 616.5 46.5 C 620.33 48.33 629.33 49.5 639.5 54.5 C 649.67 59.5 662.67 65.5 677.5 76.5 C 692.33 87.5 716.33 107.17 728.5 120.5 C 740.67 133.83 744.83 141.17 750.5 156.5 C 756.17 171.83 760.5 198.83 762.5 212.5 C 764.5 226.17 763.5 229.17 762.5 238.5 C 761.5 247.83 759 260.17 756.5 268.5 C 754 276.83 751.67 281.33 747.5 288.5 C 743.33 295.67 743.33 299.5 731.5 311.5 C 719.67 323.5 697 345.67 676.5 360.5 C 656 375.33 615.33 377 608.5 400.5 C 601.67 424 630.33 478.33 635.5 501.5 C 640.67 524.67 639.33 523.33 639.5 539.5 C 639.67 555.67 628.17 593.5 636.5 598.5 C 644.83 603.5 673.33 579.5 689.5 569.5 C 705.67 559.5 720.83 548.17 733.5 538.5 C 746.17 528.83 754 523 765.5 511.5 C 777 500 791.67 484.67 802.5 469.5 C 813.33 454.33 823.33 435.67 830.5 420.5 C 837.67 405.33 841.83 392.17 845.5 378.5 C 849.17 364.83 851 355.5 852.5 338.5 C 854 321.5 855.67 294.33 854.5 276.5 C 853.33 258.67 849.5 244.67 845.5 231.5 C 841.5 218.33 839 211.83 830.5 197.5 C 822 183.17 806.83 160.83 794.5 145.5 C 782.17 130.17 768.5 116 756.5 105.5 C 744.5 95 734.67 89.5 722.5 82.5 C 710.33 75.5 701.17 70 683.5 63.5 C 665.83 57 627.67 46.33 616.5 43.5 Z"/>
    <path fill="#6ab12d" stroke="#6ab12d" d="M 457.5 155.5 C 452.67 154.17 479.5 181 487.5 195.5 C 495.5 210 501.67 226.33 505.5 242.5 C 509.33 258.67 510.17 273.17 510.5 292.5 C 510.83 311.83 509.33 340.67 507.5 358.5 C 505.67 376.33 512.5 371.5 499.5 399.5 C 486.5 427.5 441.67 505.33 429.5 526.5 C 417.33 547.67 428.5 529 426.5 526.5 C 424.5 524 419.33 513.5 417.5 511.5 C 415.67 509.5 414 511 415.5 514.5 C 417 518 424 529.33 426.5 532.5 C 429 535.67 426 540.5 430.5 533.5 C 435 526.5 447.5 500.5 453.5 490.5 C 459.5 480.5 455.5 481.33 466.5 473.5 C 477.5 465.67 496.17 454.83 519.5 443.5 C 542.83 432.17 588 398.83 606.5 405.5 C 625 412.17 625.17 459.17 630.5 483.5 C 635.83 507.83 637.83 532 638.5 551.5 C 639.17 571 644.17 588 634.5 600.5 C 624.83 613 595.33 618.33 580.5 626.5 C 565.67 634.67 559.5 638.17 545.5 649.5 C 531.5 660.83 507 683.83 496.5 694.5 C 486 705.17 485.83 705.17 482.5 713.5 C 479.17 721.83 477.5 734.17 476.5 744.5 C 475.5 754.83 472.83 749.67 476.5 775.5 C 480.17 801.33 495.17 878.5 498.5 899.5 C 501.83 920.5 498 902.5 496.5 901.5 C 495 900.5 491 894.5 489.5 893.5 C 488 892.5 487 893.33 487.5 895.5 C 488 897.67 491 904.5 492.5 906.5 C 494 908.5 484.33 924.33 496.5 907.5 C 508.67 890.67 548 834 565.5 805.5 C 583 777 590.5 765.33 601.5 736.5 C 612.5 707.67 625.17 657.17 631.5 632.5 C 637.83 607.83 638 604.33 639.5 588.5 C 641 572.67 641.33 554.33 640.5 537.5 C 639.67 520.67 637.33 503.17 634.5 487.5 C 631.67 471.83 629.67 463.5 623.5 443.5 C 617.33 423.5 607.17 392.83 597.5 367.5 C 587.83 342.17 579 318.83 565.5 291.5 C 552 264.17 534.5 226.17 516.5 203.5 C 498.5 180.83 462.33 156.83 457.5 155.5 Z"/>
    <path fill="#009f3a" stroke="#009f3a" d="M 608.5 404.5 C 590.33 401.5 540.33 432 517.5 442.5 C 494.67 453 481.33 461.5 471.5 467.5 C 461.67 473.5 465.67 467.67 458.5 478.5 C 451.33 489.33 434 524 428.5 532.5 C 423 541 422.5 522.5 425.5 529.5 C 428.5 536.5 440.33 556.17 446.5 574.5 C 452.67 592.83 458 611 462.5 639.5 C 467 668 471.17 711.17 473.5 745.5 C 475.83 779.83 474.83 822.33 476.5 845.5 C 478.17 868.67 480.83 874.17 483.5 884.5 C 486.17 894.83 490.67 904.5 492.5 907.5 C 494.33 910.5 493.33 903.5 494.5 902.5 C 495.67 901.5 502.33 923 499.5 901.5 C 496.67 880 481.17 799.33 477.5 773.5 C 473.83 747.67 476.5 756.17 477.5 746.5 C 478.5 736.83 480.17 723.83 483.5 715.5 C 486.83 707.17 486.83 707.33 497.5 696.5 C 508.17 685.67 533.33 662 547.5 650.5 C 561.67 639 567.67 635.83 582.5 627.5 C 597.33 619.17 627 613.5 636.5 600.5 C 646 587.5 639.67 565.5 639.5 549.5 C 639.33 533.5 637.67 519.33 635.5 504.5 C 633.33 489.67 631 477.17 626.5 460.5 C 622 443.83 626.67 407.5 608.5 404.5 Z"/>
    <path fill="#007a39" stroke="#007a39" d="M 427.5 539.5 C 422.67 551.5 407.5 591 403.5 614.5 C 399.5 638 399 655.17 403.5 680.5 C 408 705.83 418.5 735.5 430.5 766.5 C 442.5 797.5 467.33 849.33 475.5 866.5 C 483.67 883.67 479.5 873.5 479.5 869.5 C 479.5 865.5 476.83 866.67 475.5 842.5 C 474.17 818.33 473.67 758.17 471.5 724.5 C 469.33 690.83 466.33 664.5 462.5 640.5 C 458.67 616.5 453.5 596.83 448.5 580.5 C 443.5 564.17 436 549.33 432.5 542.5 C 429 535.67 432.33 527.5 427.5 539.5 Z M 133.5 182.5 C 132.83 182.83 125.33 194.5 124.5 196.5 C 123.67 198.5 127 196.83 128.5 194.5 C 130 192.17 134.17 182.17 133.5 182.5 Z M 208.5 163.5 C 208 164.5 208 168.33 208.5 169.5 C 209 170.67 211 171.5 211.5 170.5 C 212 169.5 212 164.67 211.5 163.5 C 211 162.33 209 162.5 208.5 163.5 Z"/>
    <path fill="#007d38" stroke="#007d38" d="M 115.5 699.5 C 115.83 700.67 129.17 719.83 131.5 722.5 C 133.83 725.17 132.17 719.33 129.5 715.5 C 126.83 711.67 115.17 698.33 115.5 699.5 Z M 456.5 618.5 C 457 622.17 462 643 462.5 643.5 C 463 644 460.5 625.67 459.5 621.5 C 458.5 617.33 456 614.83 456.5 618.5 Z M 415.5 516.5 C 408.83 519.83 396.5 539.5 388.5 553.5 C 380.5 567.5 371.83 588.17 367.5 600.5 C 363.17 612.83 363.33 618.67 362.5 627.5 C 361.67 636.33 361.67 643.83 362.5 653.5 C 363.33 663.17 361 666.33 367.5 685.5 C 374 704.67 384.5 737.5 401.5 768.5 C 418.5 799.5 455.67 851.83 469.5 871.5 C 483.33 891.17 482.83 888.17 484.5 886.5 C 486.17 884.83 481.17 866 479.5 861.5 C 477.83 857 482.5 875.67 474.5 859.5 C 466.5 843.33 443.17 794.67 431.5 764.5 C 419.83 734.33 409 703.17 404.5 678.5 C 400 653.83 402.33 634.67 404.5 616.5 C 406.67 598.33 413.33 581.83 417.5 569.5 C 421.67 557.17 424.33 540.5 429.5 542.5 C 434.67 544.5 448.67 583 448.5 581.5 C 448.33 580 434 544.33 428.5 533.5 C 423 522.67 422.17 513.17 415.5 516.5 Z M 59.5 393.5 C 59 392.67 57.17 392.33 56.5 393.5 C 55.83 394.67 55 399.67 55.5 400.5 C 56 401.33 58.83 399.67 59.5 398.5 C 60.17 397.33 60 394.33 59.5 393.5 Z M 85.5 287.5 C 84.67 288 81.33 294.67 81.5 295.5 C 81.67 296.33 85.83 293.83 86.5 292.5 C 87.17 291.17 86.33 287 85.5 287.5 Z M 163.5 139.5 C 162.67 139.83 141.83 168.17 138.5 173.5 C 135.17 178.83 139.33 177.17 143.5 171.5 C 147.67 165.83 164.33 139.17 163.5 139.5 Z M 200.5 104.5 C 198.67 105.33 189.5 112 189.5 112.5 C 189.5 113 198.67 108.83 200.5 107.5 C 202.33 106.17 202.33 103.67 200.5 104.5 Z"/>
  </g>
</svg>
