<svg xmlns="http://www.w3.org/2000/svg" width="899" height="921" viewBox="0 0 899 921" role="img" aria-labelledby="title desc">
  <title id="title">Nur logo loop frame 056</title>
  <desc id="desc">Vector-traced frame from Nur_Logo_Loop_02.gif.</desc>
  <g id="frame-056" stroke-linejoin="round" stroke-linecap="round" stroke-width="0.5" shape-rendering="geometricPrecision">
    <path fill="#008136" stroke="#008136" d="M 207.5 53.5 C 199.83 62.33 182 83.5 164.5 109.5 C 147 135.5 115.83 186.33 102.5 209.5 C 89.17 232.67 87.33 241 84.5 248.5 C 81.67 256 86.17 252.67 85.5 254.5 C 84.83 256.33 83.67 251.67 80.5 259.5 C 77.33 267.33 69 292.33 66.5 301.5 C 64 310.67 66.17 312 65.5 314.5 C 64.83 317 65.33 302.83 62.5 316.5 C 59.67 330.17 51.5 371.67 48.5 396.5 C 45.5 421.33 43.67 441.5 44.5 465.5 C 45.33 489.5 49 515.67 53.5 540.5 C 58 565.33 64.33 593 71.5 614.5 C 78.67 636 85.17 649.17 96.5 669.5 C 107.83 689.83 124.17 716 139.5 736.5 C 154.83 757 171.67 776 188.5 792.5 C 205.33 809 222.67 823.17 240.5 835.5 C 258.33 847.83 273.83 856.83 295.5 866.5 C 317.17 876.17 345.83 886.67 370.5 893.5 C 395.17 900.33 423 905.17 443.5 907.5 C 464 909.83 486.67 911.67 493.5 907.5 C 500.33 903.33 487.17 893.17 484.5 882.5 C 481.83 871.83 479.17 866.67 477.5 843.5 C 475.83 820.33 476.17 773.5 474.5 743.5 C 472.83 713.5 470.5 687 467.5 663.5 C 464.5 640 460.83 620.17 456.5 602.5 C 452.17 584.83 450.67 576.5 441.5 557.5 C 432.33 538.5 427.83 519 401.5 488.5 C 375.17 458 310.67 402.67 283.5 374.5 C 256.33 346.33 250.83 336.83 238.5 319.5 C 226.17 302.17 214.17 279.5 209.5 270.5 C 204.83 261.5 213.33 276.17 210.5 265.5 C 207.67 254.83 195.83 227 192.5 206.5 C 189.17 186 190 158.17 190.5 142.5 C 191 126.83 195 118.33 195.5 112.5 C 196 106.67 193.33 108.5 193.5 107.5 C 193.67 106.5 195.33 111.33 196.5 106.5 C 197.67 101.67 199.33 83.33 200.5 78.5 C 201.67 73.67 202.33 81 203.5 77.5 C 204.67 74 206.33 61 207.5 57.5 C 208.67 54 210.5 57.17 210.5 56.5 C 210.5 55.83 215.17 44.67 207.5 53.5 Z"/>
    <path fill="#83bb26" stroke="#83bb26" d="M 445.5 496.5 C 444.33 494 423.5 509.83 420.5 515.5 C 417.5 521.17 423.33 533.67 427.5 530.5 C 431.67 527.33 446.67 499 445.5 496.5 Z M 660.5 32.5 C 652.5 28.5 647.17 25.17 656.5 34.5 C 665.83 43.83 700.17 70.33 716.5 88.5 C 732.83 106.67 744.83 126.67 754.5 143.5 C 764.17 160.33 770.33 174.17 774.5 189.5 C 778.67 204.83 779.83 222.5 779.5 235.5 C 779.17 248.5 775.33 258.67 772.5 267.5 C 769.67 276.33 769.33 278.33 762.5 288.5 C 755.67 298.67 745.67 314.5 731.5 328.5 C 717.33 342.5 696.17 359.33 677.5 372.5 C 658.83 385.67 626.83 394.5 619.5 407.5 C 612.17 420.5 629.67 436 633.5 450.5 C 637.33 465 640.5 472.5 642.5 494.5 C 644.5 516.5 645.67 563.33 645.5 582.5 C 645.33 601.67 635.17 608.83 641.5 609.5 C 647.83 610.17 669.17 595.33 683.5 586.5 C 697.83 577.67 712.5 567.83 727.5 556.5 C 742.5 545.17 761.33 529.5 773.5 518.5 C 785.67 507.5 791.5 501.5 800.5 490.5 C 809.5 479.5 819.83 464.83 827.5 452.5 C 835.17 440.17 840.83 429.5 846.5 416.5 C 852.17 403.5 857.83 388.33 861.5 374.5 C 865.17 360.67 867.33 349.17 868.5 333.5 C 869.67 317.83 869.17 293.67 868.5 280.5 C 867.83 267.33 867.5 265.67 864.5 254.5 C 861.5 243.33 856.17 226.33 850.5 213.5 C 844.83 200.67 842.17 193.83 830.5 177.5 C 818.83 161.17 791.17 128 780.5 115.5 C 769.83 103 779.17 112 766.5 102.5 C 753.83 93 722.17 70.17 704.5 58.5 C 686.83 46.83 668.5 36.5 660.5 32.5 Z"/>
    <path fill="#6ab12d" stroke="#6ab12d" d="M 639.5 613.5 C 631.67 608.67 595.67 633 579.5 641.5 C 563.33 650 554.67 656 542.5 664.5 C 530.33 673 515.33 685 506.5 692.5 C 497.67 700 493.33 704.83 489.5 709.5 C 485.67 714.17 485.67 714.17 483.5 720.5 C 481.33 726.83 477.83 737.5 476.5 747.5 C 475.17 757.5 472.33 755.83 475.5 780.5 C 478.67 805.17 493.67 879 495.5 895.5 C 497.33 912 488.33 881.17 486.5 879.5 C 484.67 877.83 483.33 880.83 484.5 885.5 C 485.67 890.17 490.5 905.17 493.5 907.5 C 496.5 909.83 494.67 910 502.5 899.5 C 510.33 889 525.17 868.83 540.5 844.5 C 555.83 820.17 580.17 782.5 594.5 753.5 C 608.83 724.5 619 693.83 626.5 670.5 C 634 647.17 647.33 618.33 639.5 613.5 Z M 482.5 135.5 C 478.33 133.67 496.5 172.33 501.5 189.5 C 506.5 206.67 510 224 512.5 238.5 C 515 253 516.5 259.67 516.5 276.5 C 516.5 293.33 515.5 319.83 512.5 339.5 C 509.5 359.17 512.33 363.5 498.5 394.5 C 484.67 425.5 441.5 503.5 429.5 525.5 C 417.5 547.5 427.83 528 426.5 526.5 C 425.17 525 422.83 518.17 421.5 516.5 C 420.17 514.83 418.83 515.67 418.5 516.5 C 418.17 517.33 417.17 518 419.5 521.5 C 421.83 525 426.67 541.83 432.5 537.5 C 438.33 533.17 448.33 504.33 454.5 495.5 C 460.67 486.67 460 490.17 469.5 484.5 C 479 478.83 486.5 473.33 511.5 461.5 C 536.5 449.67 599.33 415 619.5 413.5 C 639.67 412 628.83 438.33 632.5 452.5 C 636.17 466.67 639.5 482.33 641.5 498.5 C 643.5 514.67 644.33 530.83 644.5 549.5 C 644.67 568.17 642.17 604.67 642.5 610.5 C 642.83 616.33 646.33 604.17 646.5 584.5 C 646.67 564.83 647.33 521.33 643.5 492.5 C 639.67 463.67 630.5 434.67 623.5 411.5 C 616.5 388.33 613.5 380.83 601.5 353.5 C 589.5 326.17 564 273 551.5 247.5 C 539 222 538 219.17 526.5 200.5 C 515 181.83 486.67 137.33 482.5 135.5 Z"/>
    <path fill="#009f3a" stroke="#009f3a" d="M 620.5 411.5 C 594.17 416.17 503.33 464.83 475.5 478.5 C 447.67 492.17 460.67 484.17 453.5 493.5 C 446.33 502.83 437.17 528.5 432.5 534.5 C 427.83 540.5 423.17 522.83 425.5 529.5 C 427.83 536.17 440.33 556.17 446.5 574.5 C 452.67 592.83 458.33 615.5 462.5 639.5 C 466.67 663.5 469.17 684.17 471.5 718.5 C 473.83 752.83 474.5 817.83 476.5 845.5 C 478.5 873.17 480.83 874.17 483.5 884.5 C 486.17 894.83 490.67 904 492.5 907.5 C 494.33 911 494.83 907.33 494.5 905.5 C 494.17 903.67 490 897.17 490.5 896.5 C 491 895.83 499.83 921.17 497.5 901.5 C 495.17 881.83 479.83 803.83 476.5 778.5 C 473.17 753.17 475.5 760.17 477.5 749.5 C 479.5 738.83 483.33 723.83 488.5 714.5 C 493.67 705.17 499.17 701.67 508.5 693.5 C 517.83 685.33 532.33 674 544.5 665.5 C 556.67 657 565.33 651.33 581.5 642.5 C 597.67 633.67 630.83 624.17 641.5 612.5 C 652.17 600.83 645.33 591.83 645.5 572.5 C 645.67 553.17 644.5 516.83 642.5 496.5 C 640.5 476.17 637.17 464.67 633.5 450.5 C 629.83 436.33 646.83 406.83 620.5 411.5 Z"/>
    <path fill="#007a39" stroke="#007a39" d="M 428.5 538.5 C 422.5 538.67 416.67 567.67 412.5 581.5 C 408.33 595.33 405 605.67 403.5 621.5 C 402 637.33 399.67 654.83 403.5 676.5 C 407.33 698.17 414.5 720.83 426.5 751.5 C 438.5 782.17 466.83 842.33 475.5 860.5 C 484.17 878.67 479.17 883.17 478.5 860.5 C 477.83 837.83 474.17 761.17 471.5 724.5 C 468.83 687.83 466.33 664.5 462.5 640.5 C 458.67 616.5 454.17 597.5 448.5 580.5 C 442.83 563.5 434.5 538.33 428.5 538.5 Z M 207.5 263.5 C 206.67 263 207.5 270.5 208.5 272.5 C 209.5 274.5 213.67 277 213.5 275.5 C 213.33 274 208.33 264 207.5 263.5 Z M 145.5 144.5 C 146 143.17 143.5 143.17 142.5 144.5 C 141.5 145.83 139 152.5 139.5 152.5 C 140 152.5 145 145.83 145.5 144.5 Z M 200.5 64.5 C 200 64.5 191.67 74.5 190.5 76.5 C 189.33 78.5 191.83 78.5 193.5 76.5 C 195.17 74.5 201 64.5 200.5 64.5 Z"/>
    <path fill="#007d38" stroke="#007d38" d="M 115.5 699.5 C 115.83 700.67 129.17 719.83 131.5 722.5 C 133.83 725.17 132.17 719.33 129.5 715.5 C 126.83 711.67 115.17 698.33 115.5 699.5 Z M 456.5 618.5 C 457 622.17 462 643 462.5 643.5 C 463 644 460.5 625.67 459.5 621.5 C 458.5 617.33 456 614.83 456.5 618.5 Z M 418.5 522.5 C 412 528.5 394 549.67 385.5 562.5 C 377 575.33 371.67 587.5 367.5 599.5 C 363.33 611.5 361.17 622.33 360.5 634.5 C 359.83 646.67 361.67 660.67 363.5 672.5 C 365.33 684.33 366.5 691.33 371.5 705.5 C 376.5 719.67 381.33 735 393.5 757.5 C 405.67 780 428.67 817 444.5 840.5 C 460.33 864 483.17 895.5 488.5 898.5 C 493.83 901.5 478.17 866 476.5 858.5 C 474.83 851 478.83 854.5 478.5 853.5 C 478.17 852.5 474.67 852.83 474.5 852.5 C 474.33 852.17 477.33 855.33 477.5 851.5 C 477.67 847.67 476 829.67 475.5 829.5 C 475 829.33 482.5 863.83 474.5 850.5 C 466.5 837.17 439.17 778.83 427.5 749.5 C 415.83 720.17 408.33 695.5 404.5 674.5 C 400.67 653.5 403 638.67 404.5 623.5 C 406 608.33 409.33 597 413.5 583.5 C 417.67 570 422.5 538.67 429.5 542.5 C 436.5 546.33 453.83 604.33 455.5 606.5 C 457.17 608.67 444.67 568.83 439.5 555.5 C 434.33 542.17 428 532 424.5 526.5 C 421 521 425 516.5 418.5 522.5 Z M 57.5 355.5 C 57 354.67 55.17 355.17 54.5 356.5 C 53.83 357.83 53 362.67 53.5 363.5 C 54 364.33 56.83 362.83 57.5 361.5 C 58.17 360.17 58 356.33 57.5 355.5 Z M 87.5 248.5 C 87 247.67 84.33 249.67 83.5 251.5 C 82.67 253.33 82 258.67 82.5 259.5 C 83 260.33 85.67 258.33 86.5 256.5 C 87.33 254.67 88 249.33 87.5 248.5 Z M 146.5 141.5 C 145.17 142.83 137.67 154.5 137.5 155.5 C 137.33 156.5 144 149.83 145.5 147.5 C 147 145.17 147.83 140.17 146.5 141.5 Z M 196.5 102.5 C 196 101.67 193.17 103.17 192.5 104.5 C 191.83 105.83 192 109.67 192.5 110.5 C 193 111.33 194.83 110.83 195.5 109.5 C 196.17 108.17 197 103.33 196.5 102.5 Z M 205.5 68.5 C 205.33 67.67 200.33 74.33 199.5 76.5 C 198.67 78.67 199.5 82.83 200.5 81.5 C 201.5 80.17 205.67 69.33 205.5 68.5 Z M 210.5 52.5 C 209.5 53 202.83 61.33 202.5 62.5 C 202.17 63.67 207.17 61.17 208.5 59.5 C 209.83 57.83 211.5 52 210.5 52.5 Z"/>
  </g>
</svg>
