<svg xmlns="http://www.w3.org/2000/svg" width="899" height="921" viewBox="0 0 899 921" role="img" aria-labelledby="title desc">
  <title id="title">Nur logo loop frame 057</title>
  <desc id="desc">Vector-traced frame from Nur_Logo_Loop_02.gif.</desc>
  <g id="frame-057" stroke-linejoin="round" stroke-linecap="round" stroke-width="0.5" shape-rendering="geometricPrecision">
    <path fill="#008136" stroke="#008136" d="M 207.5 51.5 C 200.33 59.83 184 79.33 166.5 105.5 C 149 131.67 117.17 182.17 102.5 208.5 C 87.83 234.83 85.17 245.67 78.5 263.5 C 71.83 281.33 67.5 293.5 62.5 315.5 C 57.5 337.5 51.5 370.5 48.5 395.5 C 45.5 420.5 43.67 441.33 44.5 465.5 C 45.33 489.67 49 515.67 53.5 540.5 C 58 565.33 64.33 593 71.5 614.5 C 78.67 636 85.17 649.17 96.5 669.5 C 107.83 689.83 124.17 716 139.5 736.5 C 154.83 757 171.67 776 188.5 792.5 C 205.33 809 222.67 823.17 240.5 835.5 C 258.33 847.83 273.83 856.83 295.5 866.5 C 317.17 876.17 345.83 886.67 370.5 893.5 C 395.17 900.33 423 905.17 443.5 907.5 C 464 909.83 486.67 911.67 493.5 907.5 C 500.33 903.33 487.17 893.17 484.5 882.5 C 481.83 871.83 479.17 866.67 477.5 843.5 C 475.83 820.33 476.17 773.5 474.5 743.5 C 472.83 713.5 470.5 687 467.5 663.5 C 464.5 640 460.83 620.17 456.5 602.5 C 452.17 584.83 450.67 576.5 441.5 557.5 C 432.33 538.5 412.83 505 401.5 488.5 C 390.17 472 388.33 472.67 373.5 458.5 C 358.67 444.33 331.5 422 312.5 403.5 C 293.5 385 274 364.5 259.5 347.5 C 245 330.5 233.33 314.17 225.5 301.5 C 217.67 288.83 215.17 276.67 212.5 271.5 C 209.83 266.33 212.83 281.17 209.5 270.5 C 206.17 259.83 195.83 225.5 192.5 207.5 C 189.17 189.5 189.5 177 189.5 162.5 C 189.5 148 189.17 138.33 192.5 120.5 C 195.83 102.67 207 67 209.5 55.5 C 212 44 214.67 43.17 207.5 51.5 Z"/>
    <path fill="#83bb26" stroke="#83bb26" d="M 446.5 495.5 C 445.33 493 423.67 509.67 420.5 515.5 C 417.33 521.33 423.17 533.83 427.5 530.5 C 431.83 527.17 447.67 498 446.5 495.5 Z M 662.5 31.5 C 652.67 26.17 650.67 25.5 659.5 34.5 C 668.33 43.5 699.83 67.83 715.5 85.5 C 731.17 103.17 743.67 123.5 753.5 140.5 C 763.33 157.5 770.17 175.67 774.5 187.5 C 778.83 199.33 778.67 202.83 779.5 211.5 C 780.33 220.17 781 229.17 779.5 239.5 C 778 249.83 776.67 260.67 770.5 273.5 C 764.33 286.33 756.5 301 742.5 316.5 C 728.5 332 706.83 351.5 686.5 366.5 C 666.17 381.5 627.83 385.83 620.5 406.5 C 613.17 427.17 638.33 469.83 642.5 490.5 C 646.67 511.17 645.5 510.83 645.5 530.5 C 645.5 550.17 636.33 599 642.5 608.5 C 648.67 618 666.5 597.5 682.5 587.5 C 698.5 577.5 722 561.17 738.5 548.5 C 755 535.83 770 522.5 781.5 511.5 C 793 500.5 798.67 494.17 807.5 482.5 C 816.33 470.83 826.83 455.17 834.5 441.5 C 842.17 427.83 848.17 415.33 853.5 400.5 C 858.83 385.67 863.83 366.83 866.5 352.5 C 869.17 338.17 869.17 327.17 869.5 314.5 C 869.83 301.83 869.83 288.67 868.5 276.5 C 867.17 264.33 865.67 254.5 861.5 241.5 C 857.33 228.5 850.17 211.33 843.5 198.5 C 836.83 185.67 834.17 180.5 821.5 164.5 C 808.83 148.5 784.67 118.83 767.5 102.5 C 750.33 86.17 736 78.33 718.5 66.5 C 701 54.67 672.33 36.83 662.5 31.5 Z"/>
    <path fill="#6ab12d" stroke="#6ab12d" d="M 639.5 614.5 C 631.5 610.67 595.83 633.67 580.5 641.5 C 565.17 649.33 560.33 652.5 547.5 661.5 C 534.67 670.5 514.17 685.67 503.5 695.5 C 492.83 705.33 488 711.67 483.5 720.5 C 479 729.33 477.83 738.67 476.5 748.5 C 475.17 758.33 472.33 755 475.5 779.5 C 478.67 804 493.67 878.83 495.5 895.5 C 497.33 912.17 488.33 881.17 486.5 879.5 C 484.67 877.83 483.33 880.83 484.5 885.5 C 485.67 890.17 490.5 905.17 493.5 907.5 C 496.5 909.83 494.67 910 502.5 899.5 C 510.33 889 525.17 868.83 540.5 844.5 C 555.83 820.17 579.83 783.5 594.5 753.5 C 609.17 723.5 621 687.67 628.5 664.5 C 636 641.33 647.5 618.33 639.5 614.5 Z M 484.5 135.5 C 481 135 498.5 174.67 503.5 193.5 C 508.5 212.33 512.33 229.33 514.5 248.5 C 516.67 267.67 516.83 293 516.5 308.5 C 516.17 324 515.17 328 512.5 341.5 C 509.83 355 505.5 375.17 500.5 389.5 C 495.5 403.83 494.33 404.83 482.5 427.5 C 470.67 450.17 438.83 509 429.5 525.5 C 420.17 542 427.83 528 426.5 526.5 C 425.17 525 422.67 517.33 421.5 516.5 C 420.33 515.67 418.17 518 419.5 521.5 C 420.83 525 427.33 534.83 429.5 537.5 C 431.67 540.17 428.5 544.17 432.5 537.5 C 436.5 530.83 448.5 505.5 453.5 497.5 C 458.5 489.5 452.67 495.5 462.5 489.5 C 472.33 483.5 486.33 474.17 512.5 461.5 C 538.67 448.83 599.5 415.17 619.5 413.5 C 639.5 411.83 628.83 437.83 632.5 451.5 C 636.17 465.17 639.5 474.5 641.5 495.5 C 643.5 516.5 644.67 558.5 644.5 577.5 C 644.33 596.5 640.67 604.17 640.5 609.5 C 640.33 614.83 642.5 612.83 643.5 609.5 C 644.5 606.17 646.5 609.67 646.5 589.5 C 646.5 569.33 647.33 518.33 643.5 488.5 C 639.67 458.67 630.5 433.17 623.5 410.5 C 616.5 387.83 612.67 378.17 601.5 352.5 C 590.33 326.83 569.33 282.5 556.5 256.5 C 543.67 230.5 536.5 216.67 524.5 196.5 C 512.5 176.33 488 136 484.5 135.5 Z"/>
    <path fill="#009f3a" stroke="#009f3a" d="M 621.5 412.5 C 596.17 416.83 509.67 461.67 481.5 475.5 C 453.33 489.33 460.83 485.5 452.5 495.5 C 444.17 505.5 436 529.83 431.5 535.5 C 427 541.17 423 523 425.5 529.5 C 428 536 440.33 556.17 446.5 574.5 C 452.67 592.83 458.33 615.5 462.5 639.5 C 466.67 663.5 469.17 684.17 471.5 718.5 C 473.83 752.83 474.5 817.83 476.5 845.5 C 478.5 873.17 480.83 874.17 483.5 884.5 C 486.17 894.83 490.67 904 492.5 907.5 C 494.33 911 494.83 907.33 494.5 905.5 C 494.17 903.67 490 897.17 490.5 896.5 C 491 895.83 499.83 921.33 497.5 901.5 C 495.17 881.67 479.5 804.5 476.5 777.5 C 473.5 750.5 477.5 750 479.5 739.5 C 481.5 729 482.83 722.83 488.5 714.5 C 494.17 706.17 503.33 698.17 513.5 689.5 C 523.67 680.83 538 670.33 549.5 662.5 C 561 654.67 567.33 650.33 582.5 642.5 C 597.67 634.67 630 626 640.5 615.5 C 651 605 645.17 599.83 645.5 579.5 C 645.83 559.17 644.5 515.17 642.5 493.5 C 640.5 471.83 637 463 633.5 449.5 C 630 436 646.83 408.17 621.5 412.5 Z"/>
    <path fill="#007a39" stroke="#007a39" d="M 428.5 538.5 C 422.5 538.67 416.67 567.67 412.5 581.5 C 408.33 595.33 405 605.67 403.5 621.5 C 402 637.33 399.67 654.83 403.5 676.5 C 407.33 698.17 414.5 720.83 426.5 751.5 C 438.5 782.17 466.83 842.33 475.5 860.5 C 484.17 878.67 479.17 883.17 478.5 860.5 C 477.83 837.83 474.17 761.17 471.5 724.5 C 468.83 687.83 466.33 664.5 462.5 640.5 C 458.67 616.5 454.17 597.5 448.5 580.5 C 442.83 563.5 434.5 538.33 428.5 538.5 Z M 78.5 270.5 C 78 270.67 74.67 277.33 74.5 278.5 C 74.33 279.67 76.83 278.83 77.5 277.5 C 78.17 276.17 79 270.33 78.5 270.5 Z"/>
    <path fill="#007d38" stroke="#007d38" d="M 115.5 699.5 C 115.83 700.67 129.17 719.83 131.5 722.5 C 133.83 725.17 132.17 719.33 129.5 715.5 C 126.83 711.67 115.17 698.33 115.5 699.5 Z M 456.5 618.5 C 457 622.17 462 643 462.5 643.5 C 463 644 460.5 625.67 459.5 621.5 C 458.5 617.33 456 614.83 456.5 618.5 Z M 418.5 522.5 C 411.67 529 392 552.67 383.5 565.5 C 375 578.33 371.33 587.33 367.5 599.5 C 363.67 611.67 361.17 626.33 360.5 638.5 C 359.83 650.67 360.83 659 363.5 672.5 C 366.17 686 371.5 705.33 376.5 719.5 C 381.5 733.67 382.17 737.33 393.5 757.5 C 404.83 777.67 428.67 817 444.5 840.5 C 460.33 864 483.17 895.5 488.5 898.5 C 493.83 901.5 478.17 866 476.5 858.5 C 474.83 851 478.83 854.5 478.5 853.5 C 478.17 852.5 474.67 852.83 474.5 852.5 C 474.33 852.17 477.33 855.33 477.5 851.5 C 477.67 847.67 476 829.5 475.5 829.5 C 475 829.5 482.5 864.83 474.5 851.5 C 466.5 838.17 439.17 779 427.5 749.5 C 415.83 720 408.33 695.5 404.5 674.5 C 400.67 653.5 403 638.67 404.5 623.5 C 406 608.33 409.33 597.17 413.5 583.5 C 417.67 569.83 422.5 537.67 429.5 541.5 C 436.5 545.33 453.83 604.17 455.5 606.5 C 457.17 608.83 444.67 568.83 439.5 555.5 C 434.33 542.17 428 532 424.5 526.5 C 421 521 425.33 516 418.5 522.5 Z M 246.5 332.5 C 248 335 260.5 350 261.5 350.5 C 262.5 351 255 338.5 252.5 335.5 C 250 332.5 245 330 246.5 332.5 Z M 239.5 322.5 C 240.17 323.83 246 330.5 246.5 330.5 C 247 330.5 243.67 323.83 242.5 322.5 C 241.33 321.17 238.83 321.17 239.5 322.5 Z M 224.5 299.5 C 223.17 298.17 223.17 301.5 224.5 303.5 C 225.83 305.5 232.5 312.17 232.5 311.5 C 232.5 310.83 225.83 300.83 224.5 299.5 Z M 78.5 269.5 C 77.83 270.17 75.33 277.67 75.5 278.5 C 75.67 279.33 79 276 79.5 274.5 C 80 273 79.17 268.83 78.5 269.5 Z M 86.5 250.5 C 85.83 250.83 80.83 259.17 80.5 260.5 C 80.17 261.83 83.5 260.17 84.5 258.5 C 85.5 256.83 87.17 250.17 86.5 250.5 Z M 193.5 118.5 C 193.33 117.67 189.17 120.17 188.5 121.5 C 187.83 122.83 188.67 127 189.5 126.5 C 190.33 126 193.67 119.33 193.5 118.5 Z M 170.5 104.5 C 171.17 102.33 169.33 102.17 167.5 104.5 C 165.67 106.83 160.17 116.33 159.5 118.5 C 158.83 120.67 161.67 119.83 163.5 117.5 C 165.33 115.17 169.83 106.67 170.5 104.5 Z M 207.5 53.5 C 206.67 52.67 203.17 54.83 202.5 56.5 C 201.83 58.17 202.67 62.67 203.5 63.5 C 204.33 64.33 206.83 63.17 207.5 61.5 C 208.17 59.83 208.33 54.33 207.5 53.5 Z"/>
  </g>
</svg>
