<svg xmlns="http://www.w3.org/2000/svg" width="899" height="921" viewBox="0 0 899 921" role="img" aria-labelledby="title desc">
  <title id="title">Nur logo loop frame 088</title>
  <desc id="desc">Vector-traced frame from Nur_Logo_Loop_02.gif.</desc>
  <g id="frame-088" stroke-linejoin="round" stroke-linecap="round" stroke-width="0.5" shape-rendering="geometricPrecision">
    <path fill="#008136" stroke="#008136" d="M 204.5 51.5 C 198.33 58.5 186.5 71.17 169.5 96.5 C 152.5 121.83 117.33 177.67 102.5 203.5 C 87.67 229.33 87.17 234.33 80.5 251.5 C 73.83 268.67 67.83 284.5 62.5 306.5 C 57.17 328.5 51.67 357.33 48.5 383.5 C 45.33 409.67 43 438.67 43.5 463.5 C 44 488.33 46.83 507.33 51.5 532.5 C 56.17 557.67 64 591.67 71.5 614.5 C 79 637.33 85.17 649.17 96.5 669.5 C 107.83 689.83 124.17 716 139.5 736.5 C 154.83 757 171.67 776 188.5 792.5 C 205.33 809 222.67 823.17 240.5 835.5 C 258.33 847.83 276.17 857.5 295.5 866.5 C 314.83 875.5 334.5 883 356.5 889.5 C 378.5 896 404.67 902.33 427.5 905.5 C 450.33 908.67 484.17 913 493.5 908.5 C 502.83 904 486.17 889.33 483.5 878.5 C 480.83 867.67 479 865 477.5 843.5 C 476 822 476.17 779.5 474.5 749.5 C 472.83 719.5 470.5 688 467.5 663.5 C 464.5 639 460.83 620.17 456.5 602.5 C 452.17 584.83 447.83 572.17 441.5 557.5 C 435.17 542.83 425.83 526.83 418.5 514.5 C 411.17 502.17 416.83 503.5 397.5 483.5 C 378.17 463.5 325.83 417.5 302.5 394.5 C 279.17 371.5 271.83 363.17 257.5 345.5 C 243.17 327.83 226.33 306.17 216.5 288.5 C 206.67 270.83 202.83 254.17 198.5 239.5 C 194.17 224.83 192.17 217 190.5 200.5 C 188.83 184 187.83 157.33 188.5 140.5 C 189.17 123.67 191.5 113.83 194.5 99.5 C 197.5 85.17 204.83 62.5 206.5 54.5 C 208.17 46.5 210.67 44.5 204.5 51.5 Z"/>
    <path fill="#83bb26" stroke="#83bb26" d="M 444.5 497.5 C 443 495.33 423.5 511.17 420.5 516.5 C 417.5 521.83 425 527.33 426.5 529.5 C 428 531.67 426.5 534.83 429.5 529.5 C 432.5 524.17 446 499.67 444.5 497.5 Z M 668.5 30.5 C 659 25.17 659.17 27 664.5 32.5 C 669.83 38 691.17 54.67 700.5 63.5 C 709.83 72.33 711.5 73.5 720.5 85.5 C 729.5 97.5 745.17 118.83 754.5 135.5 C 763.83 152.17 772 173.17 776.5 185.5 C 781 197.83 780.67 201 781.5 209.5 C 782.33 218 782.5 227.5 781.5 236.5 C 780.5 245.5 778.17 255.17 775.5 263.5 C 772.83 271.83 772 276.33 765.5 286.5 C 759 296.67 750.33 310.5 736.5 324.5 C 722.67 338.5 701.67 356.67 682.5 370.5 C 663.33 384.33 628.17 386.83 621.5 407.5 C 614.83 428.17 638.5 466.5 642.5 494.5 C 646.5 522.5 645.67 556.17 645.5 575.5 C 645.33 594.83 635.5 608.17 641.5 610.5 C 647.5 612.83 667 598.33 681.5 589.5 C 696 580.67 712.5 569.67 728.5 557.5 C 744.5 545.33 764.17 529 777.5 516.5 C 790.83 504 798.67 495.33 808.5 482.5 C 818.33 469.67 828.83 453.17 836.5 439.5 C 844.17 425.83 849.67 413.17 854.5 400.5 C 859.33 387.83 862.83 376.33 865.5 363.5 C 868.17 350.67 869.83 338 870.5 323.5 C 871.17 309 870.67 289.67 869.5 276.5 C 868.33 263.33 866.67 255.67 863.5 244.5 C 860.33 233.33 856.67 222.17 850.5 209.5 C 844.33 196.83 839.83 186.5 826.5 168.5 C 813.17 150.5 788 118.83 770.5 101.5 C 753 84.17 738.5 76.33 721.5 64.5 C 704.5 52.67 678 35.83 668.5 30.5 Z"/>
    <path fill="#6ab12d" stroke="#6ab12d" d="M 485.5 134.5 C 488.17 144.33 500.17 173.67 505.5 195.5 C 510.83 217.33 516 242 517.5 265.5 C 519 289 516.83 316.83 514.5 336.5 C 512.17 356.17 508 369.67 503.5 383.5 C 499 397.33 500 395.67 487.5 419.5 C 475 443.33 439.5 510.17 428.5 526.5 C 417.5 542.83 423 518.5 421.5 517.5 C 420 516.5 418.67 518 419.5 520.5 C 420.33 523 424.83 530.5 426.5 532.5 C 428.17 534.5 425.83 538.33 429.5 532.5 C 433.17 526.67 442.33 505.5 448.5 497.5 C 454.67 489.5 457.5 490 466.5 484.5 C 475.5 479 477 476.67 502.5 464.5 C 528 452.33 597 409.83 619.5 411.5 C 642 413.17 633.5 453.83 637.5 474.5 C 641.5 495.17 642.5 517.5 643.5 535.5 C 644.5 553.5 644.17 569.83 643.5 582.5 C 642.83 595.17 650.5 601.67 639.5 611.5 C 628.5 621.33 594.83 632.17 577.5 641.5 C 560.17 650.83 547.67 659.17 535.5 667.5 C 523.33 675.83 512.67 684.5 504.5 691.5 C 496.33 698.5 490.67 704.33 486.5 709.5 C 482.33 714.67 481.67 716.5 479.5 722.5 C 477.33 728.5 474 729.83 473.5 745.5 C 473 761.17 473 789.33 476.5 816.5 C 480 843.67 491 893.17 494.5 908.5 C 498 923.83 483.83 928.67 497.5 908.5 C 511.17 888.33 559 816.33 576.5 787.5 C 594 758.67 593.83 756 602.5 735.5 C 611.17 715 621.67 685.83 628.5 664.5 C 635.33 643.17 640.5 628.17 643.5 607.5 C 646.5 586.83 646.5 559.67 646.5 540.5 C 646.5 521.33 645.17 506.67 643.5 492.5 C 641.83 478.33 642.33 476.33 636.5 455.5 C 630.67 434.67 620.33 398.17 608.5 367.5 C 596.67 336.83 578 297.83 565.5 271.5 C 553 245.17 546.17 232 533.5 209.5 C 520.83 187 497.5 149 489.5 136.5 C 481.5 124 482.83 124.67 485.5 134.5 Z"/>
    <path fill="#009f3a" stroke="#009f3a" d="M 475.5 802.5 C 472.5 794.5 476.83 846.67 478.5 861.5 C 480.17 876.33 483.17 883.67 485.5 891.5 C 487.83 899.33 490.67 905.5 492.5 908.5 C 494.33 911.5 499.33 927.17 496.5 909.5 C 493.67 891.83 478.5 810.5 475.5 802.5 Z M 621.5 410.5 C 601.5 410.17 541.67 444.33 515.5 456.5 C 489.33 468.67 475.83 477 464.5 483.5 C 453.17 490 453.33 487.83 447.5 495.5 C 441.67 503.17 433.17 523.83 429.5 529.5 C 425.83 535.17 422.67 522 425.5 529.5 C 428.33 537 440.67 558 446.5 574.5 C 452.33 591 456.33 604.5 460.5 628.5 C 464.67 652.5 469.17 690.33 471.5 718.5 C 473.83 746.67 474 792.67 474.5 797.5 C 475 802.33 472.33 761.83 474.5 747.5 C 476.67 733.17 481 721.67 487.5 711.5 C 494 701.33 502.17 695.67 513.5 686.5 C 524.83 677.33 534.33 668.67 555.5 656.5 C 576.67 644.33 625.67 625.5 640.5 613.5 C 655.33 601.5 644.17 603.17 644.5 584.5 C 644.83 565.83 644 522.5 642.5 501.5 C 641 480.5 639 473.67 635.5 458.5 C 632 443.33 641.5 410.83 621.5 410.5 Z"/>
    <path fill="#007a39" stroke="#007a39" d="M 425.5 533.5 C 421 537 414.33 557.83 409.5 571.5 C 404.67 585.17 399.33 603.83 396.5 615.5 C 393.67 627.17 392.83 631.67 392.5 641.5 C 392.17 651.33 391.5 659.33 394.5 674.5 C 397.5 689.67 397 699.33 410.5 732.5 C 424 765.67 463.5 848.5 475.5 873.5 C 487.5 898.5 482.5 887.67 482.5 882.5 C 482.5 877.33 477.33 868.83 475.5 842.5 C 473.67 816.17 473.67 758.17 471.5 724.5 C 469.33 690.83 466.33 664.5 462.5 640.5 C 458.67 616.5 452.83 595.5 448.5 580.5 C 444.17 565.5 440.33 558.33 436.5 550.5 C 432.67 542.67 430 530 425.5 533.5 Z"/>
    <path fill="#007d38" stroke="#007d38" d="M 472.5 794.5 C 472.33 802 473.67 835 474.5 844.5 C 475.33 854 477.33 859 477.5 851.5 C 477.67 844 476.33 809 475.5 799.5 C 474.67 790 472.67 787 472.5 794.5 Z M 115.5 699.5 C 115.83 700.67 129.17 719.83 131.5 722.5 C 133.83 725.17 132.17 719.33 129.5 715.5 C 126.83 711.67 115.17 698.33 115.5 699.5 Z M 456.5 618.5 C 457 622.17 462 643 462.5 643.5 C 463 644 460.5 625.67 459.5 621.5 C 458.5 617.33 456 614.83 456.5 618.5 Z M 71.5 608.5 C 70.83 608 70.83 612.17 71.5 613.5 C 72.17 614.83 75.5 617.33 75.5 616.5 C 75.5 615.67 72.17 609 71.5 608.5 Z M 63.5 583.5 C 63.83 585.17 68 593.5 68.5 593.5 C 69 593.5 67.33 585.17 66.5 583.5 C 65.67 581.83 63.17 581.83 63.5 583.5 Z M 413.5 510.5 C 409.83 504 417.17 514.33 417.5 516.5 C 417.83 518.67 418.5 519.83 415.5 523.5 C 412.5 527.17 404.83 532.33 399.5 538.5 C 394.17 544.67 389.67 549.33 383.5 560.5 C 377.33 571.67 366.83 593.17 362.5 605.5 C 358.17 617.83 357.83 622.67 357.5 634.5 C 357.17 646.33 358.83 664.83 360.5 676.5 C 362.17 688.17 360.83 687.83 367.5 704.5 C 374.17 721.17 383 746.5 400.5 776.5 C 418 806.5 458 864.33 472.5 884.5 C 487 904.67 486.33 901.33 487.5 897.5 C 488.67 893.67 481.33 866.33 479.5 861.5 C 477.67 856.67 485.83 885.67 476.5 868.5 C 467.17 851.33 436.67 789.33 423.5 758.5 C 410.33 727.67 402.5 700 397.5 683.5 C 392.5 667 393.5 670.5 393.5 659.5 C 393.5 648.5 394.67 631.83 397.5 617.5 C 400.33 603.17 405.67 586.67 410.5 573.5 C 415.33 560.33 420.17 537.17 426.5 538.5 C 432.83 539.83 446.33 578.67 448.5 581.5 C 450.67 584.33 445.33 567.33 439.5 555.5 C 433.67 543.67 417.17 517 413.5 510.5 Z M 48.5 507.5 C 48.33 508.33 50.83 515 51.5 515.5 C 52.17 516 53 511.83 52.5 510.5 C 52 509.17 48.67 506.67 48.5 507.5 Z M 225.5 303.5 C 224.33 302.67 226.83 309.33 228.5 311.5 C 230.17 313.67 236 317.83 235.5 316.5 C 235 315.17 226.67 304.33 225.5 303.5 Z M 214.5 283.5 C 214 283.33 214.83 289.17 215.5 290.5 C 216.17 291.83 218.67 292.67 218.5 291.5 C 218.33 290.33 215 283.67 214.5 283.5 Z M 73.5 280.5 C 73.83 279 70.5 280.67 69.5 282.5 C 68.5 284.33 66.83 291.83 67.5 291.5 C 68.17 291.17 73.17 282 73.5 280.5 Z M 108.5 197.5 C 106.33 200.17 96.33 216 96.5 216.5 C 96.67 217 107.5 203.67 109.5 200.5 C 111.5 197.33 110.67 194.83 108.5 197.5 Z M 120.5 177.5 C 119.83 177.83 113.17 187.83 112.5 189.5 C 111.83 191.17 115.17 189.5 116.5 187.5 C 117.83 185.5 121.17 177.17 120.5 177.5 Z M 193.5 103.5 C 192.67 104.33 188.5 113.5 188.5 114.5 C 188.5 115.5 192.67 111.33 193.5 109.5 C 194.33 107.67 194.33 102.67 193.5 103.5 Z M 204.5 52.5 C 203.33 53 198.33 58.83 198.5 59.5 C 198.67 60.17 204.5 57.67 205.5 56.5 C 206.5 55.33 205.67 52 204.5 52.5 Z"/>
  </g>
</svg>
