<svg xmlns="http://www.w3.org/2000/svg" width="899" height="921" viewBox="0 0 899 921" role="img" aria-labelledby="title desc">
  <title id="title">Nur logo loop frame 024</title>
  <desc id="desc">Vector-traced frame from Nur_Logo_Loop_02.gif.</desc>
  <g id="frame-024" stroke-linejoin="round" stroke-linecap="round" stroke-width="0.5" shape-rendering="geometricPrecision">
    <path fill="#008136" stroke="#008136" d="M 252.5 87.5 C 241.33 94.33 205.67 115.33 188.5 128.5 C 171.33 141.67 161.83 151.67 149.5 166.5 C 137.17 181.33 125.67 196.33 114.5 217.5 C 103.33 238.67 90.5 270 82.5 293.5 C 74.5 317 69 345.83 66.5 358.5 C 64 371.17 67.83 367.5 67.5 369.5 C 67.17 371.5 64.83 369 64.5 370.5 C 64.17 372 65.83 376.5 65.5 378.5 C 65.17 380.5 64 371.83 62.5 382.5 C 61 393.17 56.83 418.83 56.5 442.5 C 56.17 466.17 57 496 60.5 524.5 C 64 553 69.83 587.83 77.5 613.5 C 85.17 639.17 95.5 657.83 106.5 678.5 C 117.5 699.17 131.33 720.33 143.5 737.5 C 155.67 754.67 168.17 769 179.5 781.5 C 190.83 794 201 803.33 211.5 812.5 C 222 821.67 228.5 827.5 242.5 836.5 C 256.5 845.5 274.17 857 295.5 866.5 C 316.83 876 345.83 886.67 370.5 893.5 C 395.17 900.33 423 905.17 443.5 907.5 C 464 909.83 486.67 911.67 493.5 907.5 C 500.33 903.33 487 891.83 484.5 882.5 C 482 873.17 479.83 866.67 478.5 851.5 C 477.17 836.33 477.17 792.67 476.5 791.5 C 475.83 790.33 480.5 847.17 474.5 844.5 C 468.5 841.83 445.67 785 440.5 775.5 C 435.33 766 442.5 785.33 443.5 787.5 C 444.5 789.67 442 779 446.5 788.5 C 451 798 465.67 834.33 470.5 844.5 C 475.33 854.67 473.67 842.67 475.5 849.5 C 477.33 856.33 488.83 890.83 481.5 885.5 C 474.17 880.17 446.17 839.5 431.5 817.5 C 416.83 795.5 403.67 773.17 393.5 753.5 C 383.33 733.83 375.83 715.17 370.5 699.5 C 365.17 683.83 363 672.67 361.5 659.5 C 360 646.33 360.33 631.5 361.5 620.5 C 362.67 609.5 363.17 606.5 368.5 593.5 C 373.83 580.5 385.83 555.67 393.5 542.5 C 401.17 529.33 407 512 414.5 514.5 C 422 517 431.17 539.33 438.5 557.5 C 445.83 575.67 453.67 602.17 458.5 623.5 C 463.33 644.83 464.67 657.83 467.5 685.5 C 470.33 713.17 475.5 793.17 475.5 789.5 C 475.5 785.83 470.67 694.67 467.5 663.5 C 464.33 632.33 460.83 620.17 456.5 602.5 C 452.17 584.83 450.67 576.5 441.5 557.5 C 432.33 538.5 427.83 519 401.5 488.5 C 375.17 458 307.33 398.5 283.5 374.5 C 259.67 350.5 269.33 360.17 258.5 344.5 C 247.67 328.83 226.17 297.33 218.5 280.5 C 210.83 263.67 214 249.83 212.5 243.5 C 211 237.17 210 249 209.5 242.5 C 209 236 209 211 209.5 204.5 C 210 198 211.5 208 212.5 203.5 C 213.5 199 213.33 187.83 215.5 177.5 C 217.67 167.17 218.83 156.5 225.5 141.5 C 232.17 126.5 251 96.5 255.5 87.5 C 260 78.5 263.67 80.67 252.5 87.5 Z"/>
    <path fill="#83bb26" stroke="#83bb26" d="M 463.5 468.5 C 466.17 460.33 451.5 474.67 443.5 481.5 C 435.5 488.33 418.17 501.33 415.5 509.5 C 412.83 517.67 419.5 537.33 427.5 530.5 C 435.5 523.67 460.83 476.67 463.5 468.5 Z M 681.5 90.5 C 668.67 89.67 646.83 90.83 636.5 91.5 C 626.17 92.17 622.33 93.5 619.5 94.5 C 616.67 95.5 610.33 96.5 619.5 97.5 C 628.67 98.5 660.67 98.5 674.5 100.5 C 688.33 102.5 694 105.67 702.5 109.5 C 711 113.33 719.17 118.33 725.5 123.5 C 731.83 128.67 736.67 134.5 740.5 140.5 C 744.33 146.5 746.17 151.33 748.5 159.5 C 750.83 167.67 753.33 179.17 754.5 189.5 C 755.67 199.83 756.67 208.5 755.5 221.5 C 754.33 234.5 751.17 254.83 747.5 267.5 C 743.83 280.17 738.33 289 733.5 297.5 C 728.67 306 728.33 308.33 718.5 318.5 C 708.67 328.67 691.5 346.17 674.5 358.5 C 657.5 370.83 621.5 370.67 616.5 392.5 C 611.5 414.33 638.83 463.83 644.5 489.5 C 650.17 515.17 649.83 530.67 650.5 546.5 C 651.17 562.33 643.67 581 648.5 584.5 C 653.33 588 667.17 575.5 679.5 567.5 C 691.83 559.5 711 545.33 722.5 536.5 C 734 527.67 736.67 526.17 748.5 514.5 C 760.33 502.83 782.17 480.33 793.5 466.5 C 804.83 452.67 810.33 442.17 816.5 431.5 C 822.67 420.83 826.33 413.17 830.5 402.5 C 834.67 391.83 838.83 378.83 841.5 367.5 C 844.17 356.17 845.67 349.83 846.5 334.5 C 847.33 319.17 847.33 290.33 846.5 275.5 C 845.67 260.67 844.67 256.67 841.5 245.5 C 838.33 234.33 832.67 219.5 827.5 208.5 C 822.33 197.5 818 190.17 810.5 179.5 C 803 168.83 793.67 156 782.5 144.5 C 771.33 133 755 118.5 743.5 110.5 C 732 102.5 723.83 99.83 713.5 96.5 C 703.17 93.17 694.33 91.33 681.5 90.5 Z"/>
    <path fill="#6ab12d" stroke="#6ab12d" d="M 637.5 591.5 C 631.5 582.33 601.67 606.5 586.5 614.5 C 571.33 622.5 560.83 628.5 546.5 639.5 C 532.17 650.5 512.17 668.67 500.5 680.5 C 488.83 692.33 481 703.33 476.5 710.5 C 472 717.67 473.67 710.17 473.5 723.5 C 473.33 736.83 472.83 765.67 475.5 790.5 C 478.17 815.33 488.33 860.67 489.5 872.5 C 490.67 884.33 484 862 482.5 861.5 C 481 861 478.67 861.83 480.5 869.5 C 482.33 877.17 489.83 902.5 493.5 907.5 C 497.17 912.5 494.67 910 502.5 899.5 C 510.33 889 525.5 868.17 540.5 844.5 C 555.5 820.83 578.83 786.67 592.5 757.5 C 606.17 728.33 615 697.17 622.5 669.5 C 630 641.83 643.5 600.67 637.5 591.5 Z M 439.5 164.5 C 434.5 162.83 436.83 165.67 440.5 168.5 C 444.17 171.33 455.17 176.5 461.5 181.5 C 467.83 186.5 472.33 189.67 478.5 198.5 C 484.67 207.33 494 221.83 498.5 234.5 C 503 247.17 504.33 251 505.5 274.5 C 506.67 298 506 355.33 505.5 375.5 C 505 395.67 504.83 388.33 502.5 395.5 C 500.17 402.67 503.67 396.83 491.5 418.5 C 479.33 440.17 440.33 507.5 429.5 525.5 C 418.67 543.5 428.5 529 426.5 526.5 C 424.5 524 419.5 512.67 417.5 510.5 C 415.5 508.33 412.5 509 414.5 513.5 C 416.5 518 426.33 533.33 429.5 537.5 C 432.67 541.67 430.33 543.5 433.5 538.5 C 436.67 533.5 441 520.67 448.5 507.5 C 456 494.33 450.67 478 478.5 459.5 C 506.33 441 589.83 398.67 615.5 396.5 C 641.17 394.33 627.83 430.5 632.5 446.5 C 637.17 462.5 640.83 478 643.5 492.5 C 646.17 507 647.67 517.83 648.5 533.5 C 649.33 549.17 648 584.67 648.5 586.5 C 649 588.33 651.83 560 651.5 544.5 C 651.17 529 652.17 518.67 646.5 493.5 C 640.83 468.33 624.17 409.67 617.5 393.5 C 610.83 377.33 615.17 414.17 606.5 396.5 C 597.83 378.83 581.67 319 565.5 287.5 C 549.33 256 525.33 225.67 509.5 207.5 C 493.67 189.33 482.17 185.67 470.5 178.5 C 458.83 171.33 444.5 166.17 439.5 164.5 Z"/>
    <path fill="#009f3a" stroke="#009f3a" d="M 473.5 769.5 C 474 785.17 477.83 850.17 479.5 866.5 C 481.17 882.83 483.33 867.17 483.5 867.5 C 483.67 867.83 480.67 866.5 480.5 868.5 C 480.33 870.5 482 879.5 482.5 879.5 C 483 879.5 482.33 868.17 483.5 868.5 C 484.67 868.83 487.83 879 489.5 881.5 C 491.17 884 495.5 897.17 493.5 883.5 C 491.5 869.83 480.33 818 477.5 799.5 C 474.67 781 477.17 777.5 476.5 772.5 C 475.83 767.5 473 753.83 473.5 769.5 Z M 617.5 395.5 C 595.17 387.17 534 430 510.5 440.5 C 487 451 487 447.67 476.5 458.5 C 466 469.33 454.67 492.67 447.5 505.5 C 440.33 518.33 437.17 531.5 433.5 535.5 C 429.83 539.5 423.33 523 425.5 529.5 C 427.67 536 441 559.67 446.5 574.5 C 452 589.33 455 601.83 458.5 618.5 C 462 635.17 465 650 467.5 674.5 C 470 699 471.83 759.17 473.5 765.5 C 475.17 771.83 472.83 726.33 477.5 712.5 C 482.17 698.67 493 691.83 501.5 682.5 C 510 673.17 517.5 665.67 528.5 656.5 C 539.5 647.33 547.67 639.17 567.5 627.5 C 587.33 615.83 633.83 602.5 647.5 586.5 C 661.17 570.5 650 547.5 649.5 531.5 C 649 515.5 649.83 513.17 644.5 490.5 C 639.17 467.83 639.83 403.83 617.5 395.5 Z"/>
    <path fill="#007a39" stroke="#007a39" d="M 142.5 733.5 C 142.5 734.17 147.5 740.83 148.5 741.5 C 149.5 742.17 149.5 738.83 148.5 737.5 C 147.5 736.17 142.5 732.83 142.5 733.5 Z M 94.5 651.5 C 95.67 654.67 104.83 672.17 105.5 672.5 C 106.17 672.83 100.33 657 98.5 653.5 C 96.67 650 93.33 648.33 94.5 651.5 Z M 430.5 544.5 C 426 554.5 413.5 593.83 409.5 610.5 C 405.5 627.17 406.5 633 406.5 644.5 C 406.5 656 405.5 662.33 409.5 679.5 C 413.5 696.67 419.5 720 430.5 747.5 C 441.5 775 468.67 848.33 475.5 844.5 C 482.33 840.67 473.67 758.5 471.5 724.5 C 469.33 690.5 466.33 664.5 462.5 640.5 C 458.67 616.5 452.83 595.5 448.5 580.5 C 444.17 565.5 439.5 556.5 436.5 550.5 C 433.5 544.5 435 534.5 430.5 544.5 Z M 223.5 108.5 C 224.17 107.5 220.83 107.5 219.5 108.5 C 218.17 109.5 214.83 114.5 215.5 114.5 C 216.17 114.5 222.83 109.5 223.5 108.5 Z"/>
    <path fill="#007d38" stroke="#007d38" d="M 232.5 826.5 C 233.33 827.83 240.83 834.5 241.5 834.5 C 242.17 834.5 238 827.83 236.5 826.5 C 235 825.17 231.67 825.17 232.5 826.5 Z M 456.5 618.5 C 457 622.17 462 643 462.5 643.5 C 463 644 460.5 625.67 459.5 621.5 C 458.5 617.33 456 614.83 456.5 618.5 Z M 74.5 600.5 C 74.33 601.17 77.67 607.83 78.5 608.5 C 79.33 609.17 80.17 605.83 79.5 604.5 C 78.83 603.17 74.67 599.83 74.5 600.5 Z M 412.5 513.5 C 408.5 518 400 527.5 392.5 540.5 C 385 553.5 373.17 575.17 367.5 591.5 C 361.83 607.83 359.17 624 358.5 638.5 C 357.83 653 360.5 664.67 363.5 678.5 C 366.5 692.33 369.83 705.17 376.5 721.5 C 383.17 737.83 392.67 757.33 403.5 776.5 C 414.33 795.67 427.83 817.17 441.5 836.5 C 455.17 855.83 479.67 890 485.5 892.5 C 491.33 895 478 861.33 476.5 851.5 C 475 841.67 477 836 476.5 833.5 C 476 831 479.5 847.5 473.5 836.5 C 467.5 825.5 451 794 440.5 767.5 C 430 741 416 697.5 410.5 677.5 C 405 657.5 407.5 658.33 407.5 647.5 C 407.5 636.67 406.33 629.17 410.5 612.5 C 414.67 595.83 426.17 552.67 432.5 547.5 C 438.83 542.33 449.17 583.83 448.5 581.5 C 447.83 579.17 433.83 544.83 428.5 533.5 C 423.17 522.17 419.17 516.83 416.5 513.5 C 413.83 510.17 416.5 509 412.5 513.5 Z M 66.5 375.5 C 66 374.67 64 375.33 63.5 376.5 C 63 377.67 63 381.67 63.5 382.5 C 64 383.33 66 382.67 66.5 381.5 C 67 380.33 67 376.33 66.5 375.5 Z M 216.5 274.5 C 215.83 274.17 216.67 280.83 217.5 282.5 C 218.33 284.17 221.67 285.83 221.5 284.5 C 221.33 283.17 217.17 274.83 216.5 274.5 Z M 200.5 122.5 C 200 122.33 191.67 128.17 190.5 129.5 C 189.33 130.83 191.83 131.67 193.5 130.5 C 195.17 129.33 201 122.67 200.5 122.5 Z"/>
  </g>
</svg>
