<svg xmlns="http://www.w3.org/2000/svg" width="899" height="921" viewBox="0 0 899 921" role="img" aria-labelledby="title desc">
  <title id="title">Nur logo loop frame 077</title>
  <desc id="desc">Vector-traced frame from Nur_Logo_Loop_02.gif.</desc>
  <g id="frame-077" stroke-linejoin="round" stroke-linecap="round" stroke-width="0.5" shape-rendering="geometricPrecision">
    <path fill="#008136" stroke="#008136" d="M 181.5 49.5 C 173.5 57.33 152 83.83 135.5 108.5 C 119 133.17 94.33 175.5 82.5 197.5 C 70.67 219.5 70.83 222.67 64.5 240.5 C 58.17 258.33 49.33 280.83 44.5 304.5 C 39.67 328.17 37.33 355.5 35.5 382.5 C 33.67 409.5 31.67 441.17 33.5 466.5 C 35.33 491.83 40.17 509.83 46.5 534.5 C 52.83 559.17 63.17 592 71.5 614.5 C 79.83 637 85.17 649.17 96.5 669.5 C 107.83 689.83 124.17 716 139.5 736.5 C 154.83 757 171.67 776 188.5 792.5 C 205.33 809 222.67 823.17 240.5 835.5 C 258.33 847.83 273.83 856.83 295.5 866.5 C 317.17 876.17 345.83 886.67 370.5 893.5 C 395.17 900.33 423 905.17 443.5 907.5 C 464 909.83 486.67 911.5 493.5 907.5 C 500.33 903.5 487.17 894.17 484.5 883.5 C 481.83 872.83 479.17 866.83 477.5 843.5 C 475.83 820.17 476.17 773.5 474.5 743.5 C 472.83 713.5 470.5 687 467.5 663.5 C 464.5 640 459.83 617.67 456.5 602.5 C 453.17 587.33 452.33 584.67 447.5 572.5 C 442.67 560.33 435.33 543.67 427.5 529.5 C 419.67 515.33 411 500.17 400.5 487.5 C 390 474.83 378.33 465.33 364.5 453.5 C 350.67 441.67 333.5 430.5 317.5 416.5 C 301.5 402.5 283.5 385.67 268.5 369.5 C 253.5 353.33 239.17 336 227.5 319.5 C 215.83 303 207.17 290.83 198.5 270.5 C 189.83 250.17 179.67 219.67 175.5 197.5 C 171.33 175.33 172.17 160.17 173.5 137.5 C 174.83 114.83 182.17 76.17 183.5 61.5 C 184.83 46.83 189.5 41.67 181.5 49.5 Z"/>
    <path fill="#83bb26" stroke="#83bb26" d="M 430.5 518.5 C 429.83 518 424.5 522.17 423.5 523.5 C 422.5 524.83 423.83 526 424.5 526.5 C 425.17 527 426.5 527.83 427.5 526.5 C 428.5 525.17 431.17 519 430.5 518.5 Z M 719.5 16.5 C 714.5 13.17 712.5 12 717.5 19.5 C 722.5 27 737.67 41.5 749.5 61.5 C 761.33 81.5 780.5 119.17 788.5 139.5 C 796.5 159.83 796.33 168.5 797.5 183.5 C 798.67 198.5 798.17 213.33 795.5 229.5 C 792.83 245.67 789.5 264.17 781.5 280.5 C 773.5 296.83 761.17 312.5 747.5 327.5 C 733.83 342.5 719.17 356.17 699.5 370.5 C 679.83 384.83 639.17 396.83 629.5 413.5 C 619.83 430.17 638.83 453.83 641.5 470.5 C 644.17 487.17 644.83 497.67 645.5 513.5 C 646.17 529.33 646.83 547 645.5 565.5 C 644.17 584 633.83 617.17 637.5 624.5 C 641.17 631.83 653 618.17 667.5 609.5 C 682 600.83 707 585 724.5 572.5 C 742 560 759 546.17 772.5 534.5 C 786 522.83 795.33 514.17 805.5 502.5 C 815.67 490.83 825.33 477.17 833.5 464.5 C 841.67 451.83 848.33 439.5 854.5 426.5 C 860.67 413.5 866.33 399.5 870.5 386.5 C 874.67 373.5 877.67 365.17 879.5 348.5 C 881.33 331.83 881.83 302.17 881.5 286.5 C 881.17 270.83 879.67 265 877.5 254.5 C 875.33 244 873 235.67 868.5 223.5 C 864 211.33 861.83 202.83 850.5 181.5 C 839.17 160.17 817.67 119.17 800.5 95.5 C 783.33 71.83 761 52.67 747.5 39.5 C 734 26.33 724.5 19.83 719.5 16.5 Z"/>
    <path fill="#6ab12d" stroke="#6ab12d" d="M 507.5 130.5 C 495.33 107.83 503.5 124.5 505.5 134.5 C 507.5 144.5 515.5 169 519.5 190.5 C 523.5 212 527.67 246.5 529.5 263.5 C 531.33 280.5 531.5 278.5 530.5 292.5 C 529.5 306.5 526.17 332.83 523.5 347.5 C 520.83 362.17 518 370.33 514.5 380.5 C 511 390.67 514.83 389 502.5 408.5 C 490.17 428 453 478.5 440.5 497.5 C 428 516.5 430.5 517.83 427.5 522.5 C 424.5 527.17 422.5 524.33 422.5 525.5 C 422.5 526.67 425.5 531 427.5 529.5 C 429.5 528 424.17 524.67 434.5 516.5 C 444.83 508.33 457.5 496.83 489.5 480.5 C 521.5 464.17 601.17 417.5 626.5 418.5 C 651.83 419.5 638.67 461.67 641.5 486.5 C 644.33 511.33 644.5 544.67 643.5 567.5 C 642.5 590.33 648.33 608.5 635.5 623.5 C 622.67 638.5 585 647.5 566.5 657.5 C 548 667.5 537 674.5 524.5 683.5 C 512 692.5 498.83 703.5 491.5 711.5 C 484.17 719.5 483.33 725.17 480.5 731.5 C 477.67 737.83 475.33 738.17 474.5 749.5 C 473.67 760.83 472.17 774.5 475.5 799.5 C 478.83 824.5 491.5 881.5 494.5 899.5 C 497.5 917.5 493.17 906.17 493.5 907.5 C 493.83 908.83 485.33 923.17 496.5 907.5 C 507.67 891.83 542.83 842.17 560.5 813.5 C 578.17 784.83 591.17 760.33 602.5 735.5 C 613.83 710.67 622.5 682.67 628.5 664.5 C 634.5 646.33 635.67 640.67 638.5 626.5 C 641.33 612.33 644 594.83 645.5 579.5 C 647 564.17 648.33 554.83 647.5 534.5 C 646.67 514.17 645.5 484.67 640.5 457.5 C 635.5 430.33 627.83 402.67 617.5 371.5 C 607.17 340.33 596.83 310.67 578.5 270.5 C 560.17 230.33 519.67 153.17 507.5 130.5 Z"/>
    <path fill="#009f3a" stroke="#009f3a" d="M 475.5 798.5 C 472.67 792.5 476.83 846 478.5 861.5 C 480.17 877 482.83 883.83 485.5 891.5 C 488.17 899.17 492.83 906.5 494.5 907.5 C 496.17 908.5 498.67 915.67 495.5 897.5 C 492.33 879.33 478.33 804.5 475.5 798.5 Z M 627.5 416.5 C 602.33 419.83 520 463 487.5 479.5 C 455 496 442.67 507.5 432.5 515.5 C 422.33 523.5 428.17 526 426.5 527.5 C 424.83 529 419.17 516.67 422.5 524.5 C 425.83 532.33 440.17 557.17 446.5 574.5 C 452.83 591.83 456.67 608.5 460.5 628.5 C 464.33 648.5 467.17 667 469.5 694.5 C 471.83 722 473.5 784 474.5 793.5 C 475.5 803 472.5 764.83 475.5 751.5 C 478.5 738.17 485.83 723.33 492.5 713.5 C 499.17 703.67 506 699.83 515.5 692.5 C 525 685.17 529.33 680.67 549.5 669.5 C 569.67 658.33 620.67 642.17 636.5 625.5 C 652.33 608.83 643.17 588.83 644.5 569.5 C 645.83 550.17 645.5 527.83 644.5 509.5 C 643.5 491.17 641.33 475 638.5 459.5 C 635.67 444 652.67 413.17 627.5 416.5 Z"/>
    <path fill="#007a39" stroke="#007a39" d="M 424.5 533.5 C 420.33 539.5 411.17 562.5 406.5 576.5 C 401.83 590.5 398.17 600.5 396.5 617.5 C 394.83 634.5 392.33 655.83 396.5 678.5 C 400.67 701.17 407.83 720.67 421.5 753.5 C 435.17 786.33 468.5 855 478.5 875.5 C 488.5 896 482 882 481.5 876.5 C 481 871 477.17 867.83 475.5 842.5 C 473.83 817.17 473.67 758.17 471.5 724.5 C 469.33 690.83 466.33 664.5 462.5 640.5 C 458.67 616.5 453.67 597.17 448.5 580.5 C 443.33 563.83 435.5 548.33 431.5 540.5 C 427.5 532.67 428.67 527.5 424.5 533.5 Z M 315.5 414.5 C 314.67 414.33 318.83 421 320.5 422.5 C 322.17 424 326.33 424.83 325.5 423.5 C 324.67 422.17 316.33 414.67 315.5 414.5 Z M 185.5 236.5 C 184.83 236 186.5 243.5 187.5 245.5 C 188.5 247.5 191.83 250 191.5 248.5 C 191.17 247 186.17 237 185.5 236.5 Z"/>
    <path fill="#007d38" stroke="#007d38" d="M 472.5 789.5 C 472.5 794.5 475 823.67 475.5 824.5 C 476 825.33 476 800.33 475.5 794.5 C 475 788.67 472.5 784.5 472.5 789.5 Z M 471.5 752.5 C 471 751.67 470.17 775 470.5 780.5 C 470.83 786 473.33 790.17 473.5 785.5 C 473.67 780.83 472 753.33 471.5 752.5 Z M 115.5 699.5 C 115.83 700.67 129.17 719.83 131.5 722.5 C 133.83 725.17 132.17 719.33 129.5 715.5 C 126.83 711.67 115.17 698.33 115.5 699.5 Z M 413.5 510.5 C 413 510.67 419.5 520.5 420.5 523.5 C 421.5 526.5 425.33 521.17 419.5 528.5 C 413.67 535.83 394.17 554.17 385.5 567.5 C 376.83 580.83 371.17 598 367.5 608.5 C 363.83 619 363.5 617.17 363.5 630.5 C 363.5 643.83 365.33 673.67 367.5 688.5 C 369.67 703.33 371.17 705.5 376.5 719.5 C 381.83 733.5 389 753 399.5 772.5 C 410 792 424.67 815.33 439.5 836.5 C 454.33 857.67 481.5 893.67 488.5 899.5 C 495.5 905.33 483.17 876.33 481.5 871.5 C 479.83 866.67 478.83 872.17 478.5 870.5 C 478.17 868.83 479.83 862.67 479.5 861.5 C 479.17 860.33 486 881.83 476.5 863.5 C 467 845.17 435.67 782.67 422.5 751.5 C 409.33 720.33 401.67 698.5 397.5 676.5 C 393.33 654.5 395.83 635.83 397.5 619.5 C 399.17 603.17 402.83 592.33 407.5 578.5 C 412.17 564.67 418.67 536 425.5 536.5 C 432.33 537 448.83 583.83 448.5 581.5 C 448.17 579.17 429.33 534.33 423.5 522.5 C 417.67 510.67 414 510.33 413.5 510.5 Z M 250.5 348.5 C 249.5 348 250.33 352.17 251.5 353.5 C 252.67 354.83 257.67 357.33 257.5 356.5 C 257.33 355.67 251.5 349 250.5 348.5 Z M 43.5 333.5 C 42.83 334 39.5 342.33 39.5 343.5 C 39.5 344.67 42.83 342.17 43.5 340.5 C 44.17 338.83 44.17 333 43.5 333.5 Z M 93.5 183.5 C 94 182.17 91.5 182.17 90.5 183.5 C 89.5 184.83 87 191.5 87.5 191.5 C 88 191.5 93 184.83 93.5 183.5 Z M 102.5 165.5 C 101.5 166.33 96.5 174.67 96.5 175.5 C 96.5 176.33 101.5 172.17 102.5 170.5 C 103.5 168.83 103.5 164.67 102.5 165.5 Z M 136.5 111.5 C 137.17 109.83 134.67 109.83 133.5 111.5 C 132.33 113.17 129 121.5 129.5 121.5 C 130 121.5 135.83 113.17 136.5 111.5 Z"/>
  </g>
</svg>
