<svg xmlns="http://www.w3.org/2000/svg" width="899" height="921" viewBox="0 0 899 921" role="img" aria-labelledby="title desc">
  <title id="title">Nur logo loop frame 012</title>
  <desc id="desc">Vector-traced frame from Nur_Logo_Loop_02.gif.</desc>
  <g id="frame-012" stroke-linejoin="round" stroke-linecap="round" stroke-width="0.5" shape-rendering="geometricPrecision">
    <path fill="#008136" stroke="#008136" d="M 220.5 71.5 C 210.33 80.33 183.17 99.33 162.5 126.5 C 141.83 153.67 111.67 204.5 96.5 234.5 C 81.33 264.5 78 281 71.5 306.5 C 65 332 60.17 369.67 57.5 387.5 C 54.83 405.33 55.33 409 55.5 413.5 C 55.67 418 58.5 414.17 58.5 414.5 C 58.5 414.83 56.33 406.83 55.5 415.5 C 54.67 424.17 53.5 454 53.5 466.5 C 53.5 479 54.67 486.33 55.5 490.5 C 56.33 494.67 58.5 490.83 58.5 491.5 C 58.5 492.17 55.17 487.67 55.5 494.5 C 55.83 501.33 57 514 60.5 532.5 C 64 551 68.33 580.67 76.5 605.5 C 84.67 630.33 98.5 660 109.5 681.5 C 120.5 703 131 718.17 142.5 734.5 C 154 750.83 167.33 766.83 178.5 779.5 C 189.67 792.17 198.83 801 209.5 810.5 C 220.17 820 228.17 827.17 242.5 836.5 C 256.83 845.83 274.17 857 295.5 866.5 C 316.83 876 345.83 886.67 370.5 893.5 C 395.17 900.33 423 905.17 443.5 907.5 C 464 909.83 486.67 911.67 493.5 907.5 C 500.33 903.33 487.17 893.17 484.5 882.5 C 481.83 871.83 479 864.17 477.5 843.5 C 476 822.83 477.17 788.5 475.5 758.5 C 473.83 728.5 470.67 689.5 467.5 663.5 C 464.33 637.5 460.83 620.17 456.5 602.5 C 452.17 584.83 447.83 572.17 441.5 557.5 C 435.17 542.83 427 528.17 418.5 514.5 C 410 500.83 408.17 494 390.5 475.5 C 372.83 457 335.5 426.5 312.5 403.5 C 289.5 380.5 269.67 361.17 252.5 337.5 C 235.33 313.83 216.5 275.17 209.5 261.5 C 202.5 247.83 212.67 264.17 210.5 255.5 C 208.33 246.83 198.33 229.83 196.5 209.5 C 194.67 189.17 197.33 152.67 199.5 133.5 C 201.67 114.33 205.5 104.5 209.5 94.5 C 213.5 84.5 221.67 77.33 223.5 73.5 C 225.33 69.67 230.67 62.67 220.5 71.5 Z"/>
    <path fill="#83bb26" stroke="#83bb26" d="M 450.5 488.5 C 449 485.83 422.33 507.5 418.5 514.5 C 414.67 521.5 422.17 534.83 427.5 530.5 C 432.83 526.17 452 491.17 450.5 488.5 Z M 627.5 46.5 C 625.83 47.83 627.33 51.33 639.5 59.5 C 651.67 67.67 685.83 85.33 700.5 95.5 C 715.17 105.67 717.83 107.67 727.5 120.5 C 737.17 133.33 751 155.67 758.5 172.5 C 766 189.33 770.5 208.67 772.5 221.5 C 774.5 234.33 772 240.83 770.5 249.5 C 769 258.17 768.67 263.17 763.5 273.5 C 758.33 283.83 752.33 297.17 739.5 311.5 C 726.67 325.83 702.5 346.67 686.5 359.5 C 670.5 372.33 655.83 381 643.5 388.5 C 631.17 396 613.83 388.33 612.5 404.5 C 611.17 420.67 630.83 462.33 635.5 485.5 C 640.17 508.67 640 523.67 640.5 543.5 C 641 563.33 628.83 600 638.5 604.5 C 648.17 609 680.5 582.17 698.5 570.5 C 716.5 558.83 732.17 546.33 746.5 534.5 C 760.83 522.67 773.83 510.67 784.5 499.5 C 795.17 488.33 802.17 479.33 810.5 467.5 C 818.83 455.67 827.17 443.33 834.5 428.5 C 841.83 413.67 850 392.33 854.5 378.5 C 859 364.67 860 358.5 861.5 345.5 C 863 332.5 863.83 315.33 863.5 300.5 C 863.17 285.67 862.5 271 859.5 256.5 C 856.5 242 851.83 227.33 845.5 213.5 C 839.17 199.67 833.17 189 821.5 173.5 C 809.83 158 793.17 135.67 775.5 120.5 C 757.83 105.33 736.5 94 715.5 82.5 C 694.5 71 664.17 57.5 649.5 51.5 C 634.83 45.5 629.17 45.17 627.5 46.5 Z"/>
    <path fill="#6ab12d" stroke="#6ab12d" d="M 464.5 142.5 C 459 140.17 480.67 168.17 487.5 184.5 C 494.33 200.83 501.83 225.83 505.5 240.5 C 509.17 255.17 509.17 254.83 509.5 272.5 C 509.83 290.17 509.67 325.33 507.5 346.5 C 505.33 367.67 509.5 369.67 496.5 399.5 C 483.5 429.33 441.17 504.33 429.5 525.5 C 417.83 546.67 428.17 528.33 426.5 526.5 C 424.83 524.67 421 516 419.5 514.5 C 418 513 416.33 514.5 417.5 517.5 C 418.67 520.5 424.5 530 426.5 532.5 C 428.5 535 425.5 539 429.5 532.5 C 433.5 526 443.67 502.5 450.5 493.5 C 457.33 484.5 460.83 484.5 470.5 478.5 C 480.17 472.5 484.83 468.67 508.5 457.5 C 532.17 446.33 591.83 408 612.5 411.5 C 633.17 415 628 454.83 632.5 478.5 C 637 502.17 638.83 532.17 639.5 553.5 C 640.17 574.83 647.5 592.33 636.5 606.5 C 625.5 620.67 589.33 629.67 573.5 638.5 C 557.67 647.33 554.5 649.17 541.5 659.5 C 528.5 669.83 505.5 690.33 495.5 700.5 C 485.5 710.67 485 712.67 481.5 720.5 C 478 728.33 475.5 734.67 474.5 747.5 C 473.5 760.33 472 771.5 475.5 797.5 C 479 823.5 492.5 885 495.5 903.5 C 498.5 922 493.33 907.67 493.5 908.5 C 493.67 909.33 482.67 928.67 496.5 908.5 C 510.33 888.33 558.33 817.83 576.5 787.5 C 594.67 757.17 597.67 745.67 605.5 726.5 C 613.33 707.33 617.83 692.67 623.5 672.5 C 629.17 652.33 636.5 627.33 639.5 605.5 C 642.5 583.67 642 561.83 641.5 541.5 C 641 521.17 639.5 501.83 636.5 483.5 C 633.5 465.17 635 464 623.5 431.5 C 612 399 584.67 327.33 567.5 288.5 C 550.33 249.67 537.67 222.83 520.5 198.5 C 503.33 174.17 470 144.83 464.5 142.5 Z"/>
    <path fill="#009f3a" stroke="#009f3a" d="M 473.5 761.5 C 473.67 770.67 476.17 839 478.5 861.5 C 480.83 884 484.83 888.83 487.5 896.5 C 490.17 904.17 493 906.67 494.5 907.5 C 496 908.33 499.33 918.33 496.5 901.5 C 493.67 884.67 481.33 829.83 477.5 806.5 C 473.67 783.17 473.33 752.33 473.5 761.5 Z M 613.5 409.5 C 593.5 411 530.67 445.17 506.5 456.5 C 482.33 467.83 478 471.67 468.5 477.5 C 459 483.33 456 482.83 449.5 491.5 C 443 500.17 433.5 523.17 429.5 529.5 C 425.5 535.83 422.67 522 425.5 529.5 C 428.33 537 441 559.67 446.5 574.5 C 452 589.33 455 601.83 458.5 618.5 C 462 635.17 465 651 467.5 674.5 C 470 698 470.33 752.83 473.5 759.5 C 476.67 766.17 479.67 727 486.5 714.5 C 493.33 702 501.33 696 514.5 684.5 C 527.67 673 545 658.17 565.5 645.5 C 586 632.83 625 624.17 637.5 608.5 C 650 592.83 640.83 571.5 640.5 551.5 C 640.17 531.5 637.83 505.83 635.5 488.5 C 633.17 471.17 630.17 460.67 626.5 447.5 C 622.83 434.33 633.5 408 613.5 409.5 Z"/>
    <path fill="#007a39" stroke="#007a39" d="M 71.5 580.5 C 71 580.33 71.83 587 72.5 588.5 C 73.17 590 75.67 590.83 75.5 589.5 C 75.33 588.17 72 580.67 71.5 580.5 Z M 425.5 535.5 C 422.17 540 416.83 555.17 412.5 569.5 C 408.17 583.83 401.67 604 399.5 621.5 C 397.33 639 397.33 657 399.5 674.5 C 401.67 692 406.67 708 412.5 726.5 C 418.33 745 423 758.67 434.5 785.5 C 446 812.33 473.17 870.5 481.5 887.5 C 489.83 904.5 485.5 895 484.5 887.5 C 483.5 880 477.67 869.67 475.5 842.5 C 473.33 815.33 473.67 758.17 471.5 724.5 C 469.33 690.83 466.33 664.5 462.5 640.5 C 458.67 616.5 453.5 596.83 448.5 580.5 C 443.5 564.17 436.33 550 432.5 542.5 C 428.67 535 428.83 531 425.5 535.5 Z"/>
    <path fill="#007d38" stroke="#007d38" d="M 227.5 822.5 C 226.17 822 228.67 826.17 230.5 827.5 C 232.33 828.83 239 831.33 238.5 830.5 C 238 829.67 228.83 823 227.5 822.5 Z M 416.5 518.5 C 409.83 521.83 396.67 541 388.5 553.5 C 380.33 566 372.5 580.67 367.5 593.5 C 362.5 606.33 359.67 617.83 358.5 630.5 C 357.33 643.17 357.83 654.5 360.5 669.5 C 363.17 684.5 368.5 704 374.5 720.5 C 380.5 737 387.67 751.83 396.5 768.5 C 405.33 785.17 412.17 797.83 427.5 820.5 C 442.83 843.17 477.83 890.5 488.5 904.5 C 499.17 918.5 493 911.67 491.5 904.5 C 490 897.33 482 867.5 479.5 861.5 C 477 855.5 485.67 886.17 476.5 868.5 C 467.33 850.83 437.17 788.17 424.5 755.5 C 411.83 722.83 404.5 694.5 400.5 672.5 C 396.5 650.5 399.83 635 400.5 623.5 C 401.17 612 400 617.67 404.5 603.5 C 409 589.33 420.17 542.17 427.5 538.5 C 434.83 534.83 448.33 582.33 448.5 581.5 C 448.67 580.67 433.83 544 428.5 533.5 C 423.17 523 423.17 515.17 416.5 518.5 Z M 55.5 486.5 C 55.17 487.67 56.83 495.17 57.5 495.5 C 58.17 495.83 59.83 490 59.5 488.5 C 59.17 487 55.83 485.33 55.5 486.5 Z M 244.5 326.5 C 243.5 325.83 249.33 336.67 251.5 339.5 C 253.67 342.33 258.67 345.67 257.5 343.5 C 256.33 341.33 245.5 327.17 244.5 326.5 Z M 163.5 127.5 C 162.67 128 158.5 133.83 158.5 134.5 C 158.5 135.17 162.67 132.67 163.5 131.5 C 164.33 130.33 164.33 127 163.5 127.5 Z"/>
  </g>
</svg>
