<svg xmlns="http://www.w3.org/2000/svg" width="899" height="921" viewBox="0 0 899 921" role="img" aria-labelledby="title desc">
  <title id="title">Nur logo loop frame 054</title>
  <desc id="desc">Vector-traced frame from Nur_Logo_Loop_02.gif.</desc>
  <g id="frame-054" stroke-linejoin="round" stroke-linecap="round" stroke-width="0.5" shape-rendering="geometricPrecision">
    <path fill="#008136" stroke="#008136" d="M 209.5 55.5 C 201.17 65.33 180.17 88.83 162.5 114.5 C 144.83 140.17 116.83 185.83 103.5 209.5 C 90.17 233.17 89.5 237.33 82.5 256.5 C 75.5 275.67 67.17 300.83 61.5 324.5 C 55.83 348.17 51.33 375 48.5 398.5 C 45.67 422 43.67 441.83 44.5 465.5 C 45.33 489.17 49 515.67 53.5 540.5 C 58 565.33 64.33 593 71.5 614.5 C 78.67 636 85.17 649.17 96.5 669.5 C 107.83 689.83 124.17 716 139.5 736.5 C 154.83 757 171.67 776 188.5 792.5 C 205.33 809 222.67 823.17 240.5 835.5 C 258.33 847.83 273.83 856.83 295.5 866.5 C 317.17 876.17 345.83 886.67 370.5 893.5 C 395.17 900.33 423 905.17 443.5 907.5 C 464 909.83 486.67 911.67 493.5 907.5 C 500.33 903.33 487.17 893.17 484.5 882.5 C 481.83 871.83 479.17 866.67 477.5 843.5 C 475.83 820.33 476.17 773.5 474.5 743.5 C 472.83 713.5 470.5 687 467.5 663.5 C 464.5 640 460.83 620.17 456.5 602.5 C 452.17 584.83 450.67 576.5 441.5 557.5 C 432.33 538.5 427.83 519 401.5 488.5 C 375.17 458 311.67 404 283.5 374.5 C 255.33 345 245.17 330 232.5 311.5 C 219.83 293 213.17 278 207.5 263.5 C 201.83 249 200.83 232.17 198.5 224.5 C 196.17 216.83 194.17 220 193.5 217.5 C 192.83 215 194.83 211 194.5 209.5 C 194.17 208 192 222 191.5 208.5 C 191 195 191 142 191.5 128.5 C 192 115 193 134.5 194.5 127.5 C 196 120.5 199 93.5 200.5 86.5 C 202 79.5 202 89.83 203.5 85.5 C 205 81.17 208 64.83 209.5 60.5 C 211 56.17 212 60.33 212.5 59.5 C 213 58.67 213 56.17 212.5 55.5 C 212 54.83 217.83 45.67 209.5 55.5 Z"/>
    <path fill="#83bb26" stroke="#83bb26" d="M 446.5 494.5 C 445.17 492.17 422.67 510.5 419.5 516.5 C 416.33 522.5 423 534.17 427.5 530.5 C 432 526.83 447.83 496.83 446.5 494.5 Z M 657.5 34.5 C 647.5 29.5 643.83 28.17 652.5 36.5 C 661.17 44.83 693.33 67.83 709.5 84.5 C 725.67 101.17 739 119.33 749.5 136.5 C 760 153.67 767.67 171.17 772.5 187.5 C 777.33 203.83 778.17 222.83 778.5 234.5 C 778.83 246.17 776.67 249.67 774.5 257.5 C 772.33 265.33 771.67 271 765.5 281.5 C 759.33 292 750.5 306.67 737.5 320.5 C 724.5 334.33 707.33 350.17 687.5 364.5 C 667.67 378.83 627.5 391.67 618.5 406.5 C 609.5 421.33 629.5 437.5 633.5 453.5 C 637.5 469.5 640.5 483.17 642.5 502.5 C 644.5 521.83 645.67 551.83 645.5 569.5 C 645.33 587.17 634.33 606.33 641.5 608.5 C 648.67 610.67 673.5 591.83 688.5 582.5 C 703.5 573.17 717 563.67 731.5 552.5 C 746 541.33 762.83 527.5 775.5 515.5 C 788.17 503.5 798 492.67 807.5 480.5 C 817 468.33 825 456 832.5 442.5 C 840 429 847.5 412.17 852.5 399.5 C 857.5 386.83 859.83 379.17 862.5 366.5 C 865.17 353.83 867.5 336.67 868.5 323.5 C 869.5 310.33 869.67 300.5 868.5 287.5 C 867.33 274.5 864.83 258.33 861.5 245.5 C 858.17 232.67 854.17 222.33 848.5 210.5 C 842.83 198.67 840.67 191.83 827.5 174.5 C 814.33 157.17 788.67 124.5 769.5 106.5 C 750.33 88.5 731.17 78.5 712.5 66.5 C 693.83 54.5 667.5 39.5 657.5 34.5 Z"/>
    <path fill="#6ab12d" stroke="#6ab12d" d="M 639.5 612.5 C 633.17 606.83 604.67 627 588.5 635.5 C 572.33 644 557.33 653 542.5 663.5 C 527.67 674 509.17 689.5 499.5 698.5 C 489.83 707.5 488.33 709.5 484.5 717.5 C 480.67 725.5 478 736 476.5 746.5 C 475 757 472.5 756.17 475.5 780.5 C 478.5 804.83 492.67 876 494.5 892.5 C 496.33 909 488.33 881.17 486.5 879.5 C 484.67 877.83 482.33 877.83 483.5 882.5 C 484.67 887.17 490.33 904.67 493.5 907.5 C 496.67 910.33 494.67 910 502.5 899.5 C 510.33 889 525.17 868.83 540.5 844.5 C 555.83 820.17 580.17 782.67 594.5 753.5 C 608.83 724.33 619 693 626.5 669.5 C 634 646 645.83 618.17 639.5 612.5 Z M 480.5 136.5 C 476.17 134.83 495.17 173.5 500.5 191.5 C 505.83 209.5 510 230.17 512.5 244.5 C 515 258.83 515.5 262.33 515.5 277.5 C 515.5 292.67 514.67 318 512.5 335.5 C 510.33 353 507.5 367.17 502.5 382.5 C 497.5 397.83 495 403.33 482.5 427.5 C 470 451.67 437.83 512.67 427.5 527.5 C 417.17 542.33 422 517.83 420.5 516.5 C 419 515.17 416.5 516 418.5 519.5 C 420.5 523 426 542.17 432.5 537.5 C 439 532.83 444 504.5 457.5 491.5 C 471 478.5 486.67 472.67 513.5 459.5 C 540.33 446.33 597.5 407.5 618.5 412.5 C 639.5 417.5 635.33 467.83 639.5 489.5 C 643.67 511.17 643.5 522.67 643.5 542.5 C 643.5 562.33 639.67 597.5 639.5 608.5 C 639.33 619.5 641.33 614.67 642.5 608.5 C 643.67 602.33 646.33 589.5 646.5 571.5 C 646.67 553.5 645.5 520.5 643.5 500.5 C 641.5 480.5 641.5 475.67 634.5 451.5 C 627.5 427.33 614.5 387.67 601.5 355.5 C 588.5 323.33 569 284.17 556.5 258.5 C 544 232.83 539.17 221.83 526.5 201.5 C 513.83 181.17 484.83 138.17 480.5 136.5 Z"/>
    <path fill="#009f3a" stroke="#009f3a" d="M 620.5 411.5 C 593.83 409.33 508.17 461.17 480.5 474.5 C 452.83 487.83 462.5 481.67 454.5 491.5 C 446.5 501.33 437.33 527.17 432.5 533.5 C 427.67 539.83 423.17 522.67 425.5 529.5 C 427.83 536.33 440.33 556.17 446.5 574.5 C 452.67 592.83 458.33 615.5 462.5 639.5 C 466.67 663.5 469.17 684.17 471.5 718.5 C 473.83 752.83 474.5 817.83 476.5 845.5 C 478.5 873.17 480.83 874.17 483.5 884.5 C 486.17 894.83 490.67 904 492.5 907.5 C 494.33 911 495.17 908.17 494.5 905.5 C 493.83 902.83 488.33 892.17 488.5 891.5 C 488.67 890.83 494 900.83 495.5 901.5 C 497 902.17 500.67 916 497.5 895.5 C 494.33 875 479.83 803 476.5 778.5 C 473.17 754 475.83 758.67 477.5 748.5 C 479.17 738.33 480.5 727.5 486.5 717.5 C 492.5 707.5 503.83 697.33 513.5 688.5 C 523.17 679.67 523.17 677.5 544.5 664.5 C 565.83 651.5 624.83 631.17 641.5 610.5 C 658.17 589.83 644.67 561 644.5 540.5 C 644.33 520 644.5 509 640.5 487.5 C 636.5 466 647.17 413.67 620.5 411.5 Z"/>
    <path fill="#007a39" stroke="#007a39" d="M 428.5 538.5 C 422.5 538.67 416.5 568.33 412.5 581.5 C 408.5 594.67 406 602 404.5 617.5 C 403 633 401 655.17 403.5 674.5 C 406 693.83 410.83 709.83 419.5 733.5 C 428.17 757.17 445.67 795.33 455.5 816.5 C 465.33 837.67 475.83 875.83 478.5 860.5 C 481.17 845.17 474.17 761.17 471.5 724.5 C 468.83 687.83 466.33 664.5 462.5 640.5 C 458.67 616.5 454.17 597.5 448.5 580.5 C 442.83 563.5 434.5 538.33 428.5 538.5 Z M 232.5 310.5 C 231.5 309.83 231.5 313.17 232.5 314.5 C 233.5 315.83 238.5 319.17 238.5 318.5 C 238.5 317.83 233.5 311.17 232.5 310.5 Z M 207.5 261.5 C 207 261.5 207.83 269 208.5 270.5 C 209.17 272 211.67 272 211.5 270.5 C 211.33 269 208 261.5 207.5 261.5 Z"/>
    <path fill="#007d38" stroke="#007d38" d="M 115.5 699.5 C 115.83 700.67 129.17 719.83 131.5 722.5 C 133.83 725.17 132.17 719.33 129.5 715.5 C 126.83 711.67 115.17 698.33 115.5 699.5 Z M 456.5 618.5 C 457 622.17 462 643 462.5 643.5 C 463 644 460.5 625.67 459.5 621.5 C 458.5 617.33 456 614.83 456.5 618.5 Z M 418.5 521.5 C 412.17 527.17 395 547.67 386.5 560.5 C 378 573.33 371.83 586.17 367.5 598.5 C 363.17 610.83 361.17 621.5 360.5 634.5 C 359.83 647.5 360.5 661.5 363.5 676.5 C 366.5 691.5 370.5 705.67 378.5 724.5 C 386.5 743.33 401 770.83 411.5 789.5 C 422 808.17 428.83 818.67 441.5 836.5 C 454.17 854.33 481.67 893 487.5 896.5 C 493.33 900 478 864.67 476.5 857.5 C 475 850.33 478.83 854.33 478.5 853.5 C 478.17 852.67 474.67 852.83 474.5 852.5 C 474.33 852.17 477.33 855.33 477.5 851.5 C 477.67 847.67 476 829.5 475.5 829.5 C 475 829.5 483.67 867.83 474.5 851.5 C 465.33 835.17 432.17 761.33 420.5 731.5 C 408.83 701.67 407 691.17 404.5 672.5 C 402 653.83 404 634.33 405.5 619.5 C 407 604.67 409.5 596.33 413.5 583.5 C 417.5 570.67 422.5 538.67 429.5 542.5 C 436.5 546.33 453.83 604.33 455.5 606.5 C 457.17 608.67 444.67 568.83 439.5 555.5 C 434.33 542.17 428 532.17 424.5 526.5 C 421 520.83 424.83 515.83 418.5 521.5 Z M 68.5 311.5 C 68.33 310.83 64.17 315 63.5 316.5 C 62.83 318 63.67 321.33 64.5 320.5 C 65.33 319.67 68.67 312.17 68.5 311.5 Z M 95.5 230.5 C 94.83 230.83 86.5 247.5 85.5 250.5 C 84.5 253.5 87.83 251.83 89.5 248.5 C 91.17 245.17 96.17 230.17 95.5 230.5 Z M 192.5 214.5 C 192 215.33 191.83 218.33 192.5 219.5 C 193.17 220.67 196 222.33 196.5 221.5 C 197 220.67 196.17 215.67 195.5 214.5 C 194.83 213.33 193 213.67 192.5 214.5 Z M 213.5 54.5 C 213.5 53.33 209.33 55.83 208.5 57.5 C 207.67 59.17 207.67 65 208.5 64.5 C 209.33 64 213.5 55.67 213.5 54.5 Z"/>
  </g>
</svg>
