<svg xmlns="http://www.w3.org/2000/svg" width="899" height="921" viewBox="0 0 899 921" role="img" aria-labelledby="title desc">
  <title id="title">Nur logo loop frame 069</title>
  <desc id="desc">Vector-traced frame from Nur_Logo_Loop_02.gif.</desc>
  <g id="frame-069" stroke-linejoin="round" stroke-linecap="round" stroke-width="0.5" shape-rendering="geometricPrecision">
    <path fill="#008136" stroke="#008136" d="M 181.5 49.5 C 174.17 56.17 154.83 80.83 139.5 103.5 C 124.17 126.17 101.5 163.83 89.5 185.5 C 77.5 207.17 75 213.17 67.5 233.5 C 60 253.83 49.83 281.33 44.5 307.5 C 39.17 333.67 37.17 363 35.5 390.5 C 33.83 418 32.33 447.33 34.5 472.5 C 36.67 497.67 41.67 516 48.5 541.5 C 55.33 567 66 601.5 75.5 625.5 C 85 649.5 94.83 667 105.5 685.5 C 116.17 704 125.67 718.67 139.5 736.5 C 153.33 754.33 171.67 776 188.5 792.5 C 205.33 809 222.67 823.17 240.5 835.5 C 258.33 847.83 273.83 856.83 295.5 866.5 C 317.17 876.17 345.83 886.67 370.5 893.5 C 395.17 900.33 423 905.17 443.5 907.5 C 464 909.83 487 912.83 493.5 907.5 C 500 902.17 485.17 886.17 482.5 875.5 C 479.83 864.83 478.83 865.67 477.5 843.5 C 476.17 821.33 476.17 772.5 474.5 742.5 C 472.83 712.5 470.5 686.83 467.5 663.5 C 464.5 640.17 459.83 617.67 456.5 602.5 C 453.17 587.33 452.33 584.67 447.5 572.5 C 442.67 560.33 435.33 543.67 427.5 529.5 C 419.67 515.33 411 500.17 400.5 487.5 C 390 474.83 378.33 465.33 364.5 453.5 C 350.67 441.67 333.5 430.5 317.5 416.5 C 301.5 402.5 286.5 390.17 268.5 369.5 C 250.5 348.83 221.17 310.17 209.5 292.5 C 197.83 274.83 201.17 269.17 198.5 263.5 C 195.83 257.83 194.17 260.17 193.5 258.5 C 192.83 256.83 196.83 262 194.5 253.5 C 192.17 245 182.83 221.17 179.5 207.5 C 176.17 193.83 175.17 187.67 174.5 171.5 C 173.83 155.33 174.83 121.17 175.5 110.5 C 176.17 99.83 177.17 115.33 178.5 107.5 C 179.83 99.67 183 73.17 183.5 63.5 C 184 53.83 188.83 42.83 181.5 49.5 Z"/>
    <path fill="#83bb26" stroke="#83bb26" d="M 430.5 518.5 C 430.17 517.83 424.33 522 423.5 523.5 C 422.67 525 424.33 528.33 425.5 527.5 C 426.67 526.67 430.83 519.17 430.5 518.5 Z M 718.5 17.5 C 712 12.83 711.33 14.33 715.5 20.5 C 719.67 26.67 731.67 35.17 743.5 54.5 C 755.33 73.83 777.5 114 786.5 136.5 C 795.5 159 796 174.33 797.5 189.5 C 799 204.67 798.17 212.5 795.5 227.5 C 792.83 242.5 789.17 263.33 781.5 279.5 C 773.83 295.67 764.5 308.5 749.5 324.5 C 734.5 340.5 711.67 360.67 691.5 375.5 C 671.33 390.33 636.83 397.17 628.5 413.5 C 620.17 429.83 638.67 455 641.5 473.5 C 644.33 492 645 507.5 645.5 524.5 C 646 541.5 645.83 558.83 644.5 575.5 C 643.17 592.17 631 620.5 637.5 624.5 C 644 628.5 668.67 608.5 683.5 599.5 C 698.33 590.5 712 581.17 726.5 570.5 C 741 559.83 757.33 547 770.5 535.5 C 783.67 524 795.33 513 805.5 501.5 C 815.67 490 823.67 478.5 831.5 466.5 C 839.33 454.5 846 443.17 852.5 429.5 C 859 415.83 866 398.67 870.5 384.5 C 875 370.33 877.67 359 879.5 344.5 C 881.33 330 881.83 312.17 881.5 297.5 C 881.17 282.83 879.67 268.67 877.5 256.5 C 875.33 244.33 873 236.83 868.5 224.5 C 864 212.17 862.33 204.33 850.5 182.5 C 838.67 160.67 813.5 115.83 797.5 93.5 C 781.5 71.17 767.67 61.17 754.5 48.5 C 741.33 35.83 725 22.17 718.5 17.5 Z"/>
    <path fill="#6ab12d" stroke="#6ab12d" d="M 506.5 129.5 C 493.67 105.33 502 121 504.5 133.5 C 507 146 517.5 184 521.5 204.5 C 525.5 225 527.17 240.67 528.5 256.5 C 529.83 272.33 530.33 284.67 529.5 299.5 C 528.67 314.33 526.33 331.33 523.5 345.5 C 520.67 359.67 516.83 372.67 512.5 384.5 C 508.17 396.33 509.5 397.67 497.5 416.5 C 485.5 435.33 452 480 440.5 497.5 C 429 515 431.5 516.83 428.5 521.5 C 425.5 526.17 422.33 523.83 422.5 525.5 C 422.67 527.17 427 533.33 429.5 531.5 C 432 529.67 430.67 521.17 437.5 514.5 C 444.33 507.83 439.17 507.5 470.5 491.5 C 501.83 475.5 597 418.5 625.5 418.5 C 654 418.5 638.5 467.17 641.5 491.5 C 644.5 515.83 644.5 542.5 643.5 564.5 C 642.5 586.5 648.17 608 635.5 623.5 C 622.83 639 586.83 646.83 567.5 657.5 C 548.17 668.17 531.67 679 519.5 687.5 C 507.33 696 501 701.17 494.5 708.5 C 488 715.83 483.83 724.83 480.5 731.5 C 477.17 738.17 475.33 736.33 474.5 748.5 C 473.67 760.67 472.83 781.67 475.5 804.5 C 478.17 827.33 488.17 871.17 490.5 885.5 C 492.83 899.83 489.83 890.17 489.5 890.5 C 489.17 890.83 489.17 887.67 488.5 887.5 C 487.83 887.33 484.67 886.17 485.5 889.5 C 486.33 892.83 491.67 904.5 493.5 907.5 C 495.33 910.5 485.33 923.17 496.5 907.5 C 507.67 891.83 543.33 841 560.5 813.5 C 577.67 786 587.5 769.67 599.5 742.5 C 611.5 715.33 625.17 674.83 632.5 650.5 C 639.83 626.17 641.17 611 643.5 596.5 C 645.83 582 646.67 584.33 646.5 563.5 C 646.33 542.67 646.67 501.33 642.5 471.5 C 638.33 441.67 631.67 416.67 621.5 384.5 C 611.33 352.33 600.67 321 581.5 278.5 C 562.33 236 519.33 153.67 506.5 129.5 Z"/>
    <path fill="#009f3a" stroke="#009f3a" d="M 475.5 803.5 C 473 798.17 476.83 846.83 478.5 861.5 C 480.17 876.17 483.5 885.33 485.5 891.5 C 487.5 897.67 489.17 898.17 490.5 898.5 C 491.83 898.83 496 909.33 493.5 893.5 C 491 877.67 478 808.83 475.5 803.5 Z M 627.5 417.5 C 601.67 419.67 516.5 465.5 484.5 481.5 C 452.5 497.5 445 505.33 435.5 513.5 C 426 521.67 429.67 528.67 427.5 530.5 C 425.33 532.33 419.33 517.17 422.5 524.5 C 425.67 531.83 440.17 557.17 446.5 574.5 C 452.83 591.83 456.33 604.5 460.5 628.5 C 464.67 652.5 469.17 690.17 471.5 718.5 C 473.83 746.83 473.83 793.17 474.5 798.5 C 475.17 803.83 474.33 761.33 475.5 750.5 C 476.67 739.67 478.17 740.17 481.5 733.5 C 484.83 726.83 484.83 720.67 495.5 710.5 C 506.17 700.33 522 686.67 545.5 672.5 C 569 658.33 620 643.17 636.5 625.5 C 653 607.83 643.17 583.83 644.5 566.5 C 645.83 549.17 645.33 537.83 644.5 521.5 C 643.67 505.17 642.33 485.83 639.5 468.5 C 636.67 451.17 653.33 415.33 627.5 417.5 Z"/>
    <path fill="#007a39" stroke="#007a39" d="M 424.5 531.5 C 418.5 541.17 405 590.5 400.5 608.5 C 396 626.5 397.5 627 397.5 639.5 C 397.5 652 396.33 665.17 400.5 683.5 C 404.67 701.83 410 719.5 422.5 749.5 C 435 779.5 466.17 844.5 475.5 863.5 C 484.83 882.5 478.5 873.5 478.5 863.5 C 478.5 853.5 476.67 816.17 475.5 803.5 C 474.33 790.83 472.17 800.67 471.5 787.5 C 470.83 774.33 473 749 471.5 724.5 C 470 700 466.33 664.5 462.5 640.5 C 458.67 616.5 452.83 595.5 448.5 580.5 C 444.17 565.5 440.5 558.67 436.5 550.5 C 432.5 542.33 430.5 521.83 424.5 531.5 Z M 315.5 414.5 C 314.67 414.33 318.83 421 320.5 422.5 C 322.17 424 326.33 424.83 325.5 423.5 C 324.67 422.17 316.33 414.67 315.5 414.5 Z M 51.5 288.5 C 51 288.5 47.67 296 47.5 297.5 C 47.33 299 49.83 299 50.5 297.5 C 51.17 296 52 288.5 51.5 288.5 Z M 205.5 283.5 C 205 283.5 207.5 291.83 208.5 293.5 C 209.5 295.17 212 295.17 211.5 293.5 C 211 291.83 206 283.5 205.5 283.5 Z M 107.5 158.5 C 106.83 158.83 101.83 166.33 101.5 167.5 C 101.17 168.67 104.5 167 105.5 165.5 C 106.5 164 108.17 158.17 107.5 158.5 Z"/>
    <path fill="#007d38" stroke="#007d38" d="M 470.5 779.5 C 470.5 783.67 474.67 821.17 475.5 824.5 C 476.33 827.83 476.33 807 475.5 799.5 C 474.67 792 470.5 775.33 470.5 779.5 Z M 115.5 699.5 C 115.83 700.67 129.17 719.83 131.5 722.5 C 133.83 725.17 132.17 719.33 129.5 715.5 C 126.83 711.67 115.17 698.33 115.5 699.5 Z M 413.5 510.5 C 413 511.33 424.67 518.83 420.5 527.5 C 416.33 536.17 397 550.5 388.5 562.5 C 380 574.5 373.83 587.5 369.5 599.5 C 365.17 611.5 363.5 622.33 362.5 634.5 C 361.5 646.67 361.17 657.83 363.5 672.5 C 365.83 687.17 371.33 707.17 376.5 722.5 C 381.67 737.83 384 745.33 394.5 764.5 C 405 783.67 423.17 813.83 439.5 837.5 C 455.83 861.17 485.17 898.83 492.5 906.5 C 499.83 914.17 485.67 891 483.5 883.5 C 481.33 876 480.67 865.33 479.5 861.5 C 478.33 857.67 476.67 861.83 476.5 860.5 C 476.33 859.17 478.67 854 478.5 853.5 C 478.33 853 484 873.67 475.5 857.5 C 467 841.33 439.83 785.83 427.5 756.5 C 415.17 727.17 406.33 698.17 401.5 681.5 C 396.67 664.83 398.5 668.33 398.5 656.5 C 398.5 644.67 398.5 627.17 401.5 610.5 C 404.5 593.83 412.33 568.83 416.5 556.5 C 420.67 544.17 421.17 532.33 426.5 536.5 C 431.83 540.67 449 583.83 448.5 581.5 C 448 579.17 429.33 534.33 423.5 522.5 C 417.67 510.67 414 509.67 413.5 510.5 Z M 37.5 490.5 C 37.67 492.83 41.83 506.17 42.5 506.5 C 43.17 506.83 42.33 495.17 41.5 492.5 C 40.67 489.83 37.33 488.17 37.5 490.5 Z M 35.5 475.5 C 35 476.33 35.83 481.17 36.5 482.5 C 37.17 483.83 39 484.33 39.5 483.5 C 40 482.67 40.17 478.83 39.5 477.5 C 38.83 476.17 36 474.67 35.5 475.5 Z M 247.5 344.5 C 246.17 343.67 249.5 351.17 251.5 353.5 C 253.5 355.83 260.17 360 259.5 358.5 C 258.83 357 248.83 345.33 247.5 344.5 Z M 40.5 335.5 C 40.33 337 42 345.33 42.5 345.5 C 43 345.67 43.83 338.17 43.5 336.5 C 43.17 334.83 40.67 334 40.5 335.5 Z M 230.5 322.5 C 229.83 322.17 231.5 328 232.5 329.5 C 233.5 331 236.83 332.67 236.5 331.5 C 236.17 330.33 231.17 322.83 230.5 322.5 Z M 51.5 287.5 C 50.83 287.83 48.33 293.67 48.5 294.5 C 48.67 295.33 52 293.67 52.5 292.5 C 53 291.33 52.17 287.17 51.5 287.5 Z M 206.5 286.5 C 205.67 286 207.33 292.67 208.5 294.5 C 209.67 296.33 213.83 298.83 213.5 297.5 C 213.17 296.17 207.33 287 206.5 286.5 Z M 189.5 248.5 C 189 248.5 193.17 261 194.5 263.5 C 195.83 266 198.33 266 197.5 263.5 C 196.67 261 190 248.5 189.5 248.5 Z M 86.5 197.5 C 86.5 196.67 81.5 200.83 80.5 202.5 C 79.5 204.17 79.5 208.33 80.5 207.5 C 81.5 206.67 86.5 198.33 86.5 197.5 Z M 157.5 83.5 C 157.83 82.33 153.67 84 152.5 85.5 C 151.33 87 149.67 92.83 150.5 92.5 C 151.33 92.17 157.17 84.67 157.5 83.5 Z"/>
  </g>
</svg>
