<svg xmlns="http://www.w3.org/2000/svg" width="899" height="921" viewBox="0 0 899 921" role="img" aria-labelledby="title desc">
  <title id="title">Nur logo loop frame 094</title>
  <desc id="desc">Vector-traced frame from Nur_Logo_Loop_02.gif.</desc>
  <g id="frame-094" stroke-linejoin="round" stroke-linecap="round" stroke-width="0.5" shape-rendering="geometricPrecision">
    <path fill="#008136" stroke="#008136" d="M 217.5 62.5 C 207.17 72.83 174.67 105.17 157.5 127.5 C 140.33 149.83 125.17 178.5 114.5 196.5 C 103.83 214.5 101.17 216.83 93.5 235.5 C 85.83 254.17 72.5 295.17 68.5 308.5 C 64.5 321.83 69.83 314.17 69.5 315.5 C 69.17 316.83 68.5 308.33 66.5 316.5 C 64.5 324.67 58.83 353.67 57.5 364.5 C 56.17 375.33 58.83 378.5 58.5 381.5 C 58.17 384.5 55.83 380.67 55.5 382.5 C 55.17 384.33 56.83 390 56.5 392.5 C 56.17 395 54.5 384.17 53.5 397.5 C 52.5 410.83 49.83 449.83 50.5 472.5 C 51.17 495.17 53.33 510.33 57.5 533.5 C 61.67 556.67 67.5 587.33 75.5 611.5 C 83.5 635.67 94.5 657.83 105.5 678.5 C 116.5 699.17 129.67 718.83 141.5 735.5 C 153.33 752.17 166 766.67 176.5 778.5 C 187 790.33 194 797.17 204.5 806.5 C 215 815.83 224.33 824.5 239.5 834.5 C 254.67 844.5 276 857.33 295.5 866.5 C 315 875.67 334.5 883 356.5 889.5 C 378.5 896 404.83 902.5 427.5 905.5 C 450.17 908.5 483.83 915.17 492.5 907.5 C 501.17 899.83 482.17 878.83 479.5 859.5 C 476.83 840.17 477.33 795.67 476.5 791.5 C 475.67 787.33 473.83 819.33 474.5 834.5 C 475.17 849.67 486.67 889.67 480.5 882.5 C 474.33 875.33 445 806.17 437.5 791.5 C 430 776.83 431.33 785 435.5 794.5 C 439.67 804 456.83 835.83 462.5 848.5 C 468.17 861.17 473.83 874.17 469.5 870.5 C 465.17 866.83 447.67 843 436.5 826.5 C 425.33 810 413.33 792 402.5 771.5 C 391.67 751 378.33 722.17 371.5 703.5 C 364.67 684.83 363.17 672.67 361.5 659.5 C 359.83 646.33 360.33 635 361.5 624.5 C 362.67 614 363.5 608.33 368.5 596.5 C 373.5 584.67 383.17 566 391.5 553.5 C 399.83 541 410 519.17 418.5 521.5 C 427 523.83 435.83 550.5 442.5 567.5 C 449.17 584.5 454.33 603.83 458.5 623.5 C 462.67 643.17 464.67 657.83 467.5 685.5 C 470.33 713.17 475.5 793.17 475.5 789.5 C 475.5 785.83 470.67 694.67 467.5 663.5 C 464.33 632.33 460.83 620.17 456.5 602.5 C 452.17 584.83 450.67 576.5 441.5 557.5 C 432.33 538.5 427.83 519 401.5 488.5 C 375.17 458 311.17 403.67 283.5 374.5 C 255.83 345.33 247.83 331.67 235.5 313.5 C 223.17 295.33 213.67 274.5 209.5 265.5 C 205.33 256.5 211.5 264.17 210.5 259.5 C 209.5 254.83 205.17 241.33 203.5 237.5 C 201.83 233.67 201.5 240.17 200.5 236.5 C 199.5 232.83 198.67 219.67 197.5 215.5 C 196.33 211.33 194 221.17 193.5 211.5 C 193 201.83 193.5 173.67 194.5 157.5 C 195.5 141.33 197 127.33 199.5 114.5 C 202 101.67 206.17 88.67 209.5 80.5 C 212.83 72.33 218.17 68.5 219.5 65.5 C 220.83 62.5 227.83 52.17 217.5 62.5 Z"/>
    <path fill="#83bb26" stroke="#83bb26" d="M 449.5 490.5 C 448.17 487.83 423.17 507.83 419.5 514.5 C 415.83 521.17 422.5 534.5 427.5 530.5 C 432.5 526.5 450.83 493.17 449.5 490.5 Z M 644.5 40.5 C 633.83 35.67 639.5 39.17 639.5 40.5 C 639.5 41.83 633.5 40 644.5 48.5 C 655.5 57 690.17 78.67 705.5 91.5 C 720.83 104.33 726.5 110.83 736.5 125.5 C 746.5 140.17 759.17 165 765.5 179.5 C 771.83 194 772.83 203.67 774.5 212.5 C 776.17 221.33 775.83 225.67 775.5 232.5 C 775.17 239.33 774.5 245.67 772.5 253.5 C 770.5 261.33 770.33 267.83 763.5 279.5 C 756.67 291.17 744.17 309.83 731.5 323.5 C 718.83 337.17 706.83 347.67 687.5 361.5 C 668.17 375.33 623.83 384.83 615.5 406.5 C 607.17 428.17 633.17 468.33 637.5 491.5 C 641.83 514.67 640.83 530.33 641.5 545.5 C 642.17 560.67 642.17 572 641.5 582.5 C 640.83 593 630.17 608.67 637.5 608.5 C 644.83 608.33 669.67 591.5 685.5 581.5 C 701.33 571.5 718.33 559.33 732.5 548.5 C 746.67 537.67 758.33 528.17 770.5 516.5 C 782.67 504.83 796.17 490 805.5 478.5 C 814.83 467 819.5 459.67 826.5 447.5 C 833.5 435.33 841.67 420.17 847.5 405.5 C 853.33 390.83 858.5 373.83 861.5 359.5 C 864.5 345.17 865 333.5 865.5 319.5 C 866 305.5 865.67 288.17 864.5 275.5 C 863.33 262.83 861.33 253.83 858.5 243.5 C 855.67 233.17 853.5 225.5 847.5 213.5 C 841.5 201.5 834.17 187.33 822.5 171.5 C 810.83 155.67 787.83 129.67 777.5 118.5 C 767.17 107.33 772.83 112.67 760.5 104.5 C 748.17 96.33 722.83 80.17 703.5 69.5 C 684.17 58.83 655.17 45.33 644.5 40.5 Z"/>
    <path fill="#6ab12d" stroke="#6ab12d" d="M 471.5 138.5 C 466.83 137 488.5 173.33 494.5 189.5 C 500.5 205.67 504.5 221.17 507.5 235.5 C 510.5 249.83 512 258.83 512.5 275.5 C 513 292.17 512.83 315.67 510.5 335.5 C 508.17 355.33 512 362.67 498.5 394.5 C 485 426.33 441.5 504.5 429.5 526.5 C 417.5 548.5 428 528.33 426.5 526.5 C 425 524.67 422 517 420.5 515.5 C 419 514 416.5 514.67 417.5 517.5 C 418.5 520.33 424.33 529.83 426.5 532.5 C 428.67 535.17 426.5 539.67 430.5 533.5 C 434.5 527.33 445.33 503.5 450.5 495.5 C 455.67 487.5 452.17 491.5 461.5 485.5 C 470.83 479.5 481.33 471.83 506.5 459.5 C 531.67 447.17 591.5 408.67 612.5 411.5 C 633.5 414.33 628 454.5 632.5 476.5 C 637 498.5 638.83 521.5 639.5 543.5 C 640.17 565.5 646.17 593.17 636.5 608.5 C 626.83 623.83 597.5 626.67 581.5 635.5 C 565.5 644.33 555 650.5 540.5 661.5 C 526 672.5 504.33 691.5 494.5 701.5 C 484.67 711.5 484.83 713.17 481.5 721.5 C 478.17 729.83 475.33 738.17 474.5 751.5 C 473.67 764.83 473.17 777.17 476.5 801.5 C 479.83 825.83 490.83 880.33 494.5 897.5 C 498.17 914.67 484.83 922.83 498.5 904.5 C 512.17 886.17 559 816.17 576.5 787.5 C 594 758.83 595.5 751.67 603.5 732.5 C 611.5 713.33 618.33 693.5 624.5 672.5 C 630.67 651.5 637.5 628 640.5 606.5 C 643.5 585 643.33 566.17 642.5 543.5 C 641.67 520.83 639.67 493.5 635.5 470.5 C 631.33 447.5 623.17 423.5 617.5 405.5 C 611.83 387.5 609.83 382.67 601.5 362.5 C 593.17 342.33 580.67 311.83 567.5 284.5 C 554.33 257.17 538.5 222.83 522.5 198.5 C 506.5 174.17 476.17 140 471.5 138.5 Z"/>
    <path fill="#009f3a" stroke="#009f3a" d="M 474.5 772.5 C 471.33 764.83 476 839.33 478.5 861.5 C 481 883.67 486.33 897.83 489.5 905.5 C 492.67 913.17 500 929.67 497.5 907.5 C 495 885.33 477.67 780.17 474.5 772.5 Z M 614.5 410.5 C 593.83 411.33 531.67 445.17 504.5 458.5 C 477.33 471.83 464 478.33 451.5 490.5 C 439 502.67 433.83 525 429.5 531.5 C 425.17 538 422.67 522.33 425.5 529.5 C 428.33 536.67 440.67 558 446.5 574.5 C 452.33 591 456.67 608.5 460.5 628.5 C 464.33 648.5 467.33 670.83 469.5 694.5 C 471.67 718.17 471 766.5 473.5 770.5 C 476 774.5 478.5 732 484.5 718.5 C 490.5 705 496.67 701 509.5 689.5 C 522.33 678 540.17 662.67 561.5 649.5 C 582.83 636.33 624.33 620.33 637.5 610.5 C 650.67 600.67 640.5 609.17 640.5 590.5 C 640.5 571.83 639.5 521.33 637.5 498.5 C 635.5 475.67 632.33 468.17 628.5 453.5 C 624.67 438.83 635.17 409.67 614.5 410.5 Z"/>
    <path fill="#007a39" stroke="#007a39" d="M 425.5 533.5 C 421.17 536.67 415.33 554.5 410.5 569.5 C 405.67 584.5 398.83 605.17 396.5 623.5 C 394.17 641.83 394.33 662 396.5 679.5 C 398.67 697 394.83 693.67 409.5 728.5 C 424.17 763.33 473.5 869.5 484.5 888.5 C 495.5 907.5 477.67 869.83 475.5 842.5 C 473.33 815.17 473.67 758.17 471.5 724.5 C 469.33 690.83 466.33 664.5 462.5 640.5 C 458.67 616.5 452.83 595.5 448.5 580.5 C 444.17 565.5 440.33 558.33 436.5 550.5 C 432.67 542.67 429.83 530.33 425.5 533.5 Z M 230.5 305.5 C 229.83 305.17 231.5 311 232.5 312.5 C 233.5 314 236.83 315.67 236.5 314.5 C 236.17 313.33 231.17 305.83 230.5 305.5 Z M 208.5 263.5 C 208.67 264.83 212 271.5 212.5 271.5 C 213 271.5 212.17 264.83 211.5 263.5 C 210.83 262.17 208.33 262.17 208.5 263.5 Z"/>
    <path fill="#007d38" stroke="#007d38" d="M 473.5 829.5 C 473.67 832.5 477 850.83 477.5 851.5 C 478 852.17 477.17 837.17 476.5 833.5 C 475.83 829.83 473.33 826.5 473.5 829.5 Z M 227.5 823.5 C 228.17 824.67 239 833 240.5 833.5 C 242 834 238.67 828.17 236.5 826.5 C 234.33 824.83 226.83 822.33 227.5 823.5 Z M 128.5 713.5 C 128 713.5 132.17 721.83 133.5 723.5 C 134.83 725.17 137.33 725.17 136.5 723.5 C 135.67 721.83 129 713.5 128.5 713.5 Z M 85.5 635.5 C 85.33 636 89.5 642.67 90.5 643.5 C 91.5 644.33 92.33 641.83 91.5 640.5 C 90.67 639.17 85.67 635 85.5 635.5 Z M 456.5 618.5 C 457 622.17 462 643 462.5 643.5 C 463 644 460.5 625.67 459.5 621.5 C 458.5 617.33 456 614.83 456.5 618.5 Z M 417.5 519.5 C 412.17 523.17 400.83 536 392.5 548.5 C 384.17 561 373 581.17 367.5 594.5 C 362 607.83 360.83 618.17 359.5 628.5 C 358.17 638.83 358.83 648.17 359.5 656.5 C 360.17 664.83 360.67 667.67 363.5 678.5 C 366.33 689.33 369.17 703.83 376.5 721.5 C 383.83 739.17 394.5 762 407.5 784.5 C 420.5 807 441.33 838.33 454.5 856.5 C 467.67 874.67 482.33 892.67 486.5 893.5 C 490.67 894.33 481.17 865.5 479.5 861.5 C 477.83 857.5 488 892 476.5 869.5 C 465 847 423.67 758.5 410.5 726.5 C 397.33 694.5 400 692 397.5 677.5 C 395 663 394.67 652.33 395.5 639.5 C 396.33 626.67 397.33 617.33 402.5 600.5 C 407.67 583.67 418.83 541.67 426.5 538.5 C 434.17 535.33 446.33 578.67 448.5 581.5 C 450.67 584.33 443.5 564.67 439.5 555.5 C 435.5 546.33 428.17 532.5 424.5 526.5 C 420.83 520.5 422.83 515.83 417.5 519.5 Z M 199.5 233.5 C 198.83 233 198.83 238 199.5 239.5 C 200.17 241 203.5 243.5 203.5 242.5 C 203.5 241.5 200.17 234 199.5 233.5 Z M 192.5 208.5 C 192 209.33 191.83 213.17 192.5 214.5 C 193.17 215.83 196 217.33 196.5 216.5 C 197 215.67 196.17 210.83 195.5 209.5 C 194.83 208.17 193 207.67 192.5 208.5 Z"/>
  </g>
</svg>
