<svg xmlns="http://www.w3.org/2000/svg" width="899" height="921" viewBox="0 0 899 921" role="img" aria-labelledby="title desc">
  <title id="title">Nur logo loop frame 105</title>
  <desc id="desc">Vector-traced frame from Nur_Logo_Loop_02.gif.</desc>
  <g id="frame-105" stroke-linejoin="round" stroke-linecap="round" stroke-width="0.5" shape-rendering="geometricPrecision">
    <path fill="#008136" stroke="#008136" d="M 207.5 51.5 C 200.33 59.83 184 79.33 166.5 105.5 C 149 131.67 117.17 182.17 102.5 208.5 C 87.83 234.83 85.17 245.67 78.5 263.5 C 71.83 281.33 67.5 293.5 62.5 315.5 C 57.5 337.5 51.5 370.5 48.5 395.5 C 45.5 420.5 43.67 441.33 44.5 465.5 C 45.33 489.67 49 515.67 53.5 540.5 C 58 565.33 64.33 593 71.5 614.5 C 78.67 636 85.17 649.17 96.5 669.5 C 107.83 689.83 124.17 716 139.5 736.5 C 154.83 757 171.67 776 188.5 792.5 C 205.33 809 222.67 823.17 240.5 835.5 C 258.33 847.83 273.83 856.83 295.5 866.5 C 317.17 876.17 345.83 886.67 370.5 893.5 C 395.17 900.33 422.83 905.17 443.5 907.5 C 464.17 909.83 487.67 911.67 494.5 907.5 C 501.33 903.33 487.33 893.17 484.5 882.5 C 481.67 871.83 479.17 867 477.5 843.5 C 475.83 820 476.67 774.83 474.5 741.5 C 472.33 708.17 467.5 666.67 464.5 643.5 C 461.5 620.33 460.33 616.83 456.5 602.5 C 452.67 588.17 450.67 576.5 441.5 557.5 C 432.33 538.5 412.83 505 401.5 488.5 C 390.17 472 388.33 472.67 373.5 458.5 C 358.67 444.33 331.5 422 312.5 403.5 C 293.5 385 274 364.5 259.5 347.5 C 245 330.5 233.33 314.17 225.5 301.5 C 217.67 288.83 215.17 276.67 212.5 271.5 C 209.83 266.33 212.83 281.17 209.5 270.5 C 206.17 259.83 195.83 225.5 192.5 207.5 C 189.17 189.5 189.5 177 189.5 162.5 C 189.5 148 189.17 138.33 192.5 120.5 C 195.83 102.67 207 67 209.5 55.5 C 212 44 214.67 43.17 207.5 51.5 Z"/>
    <path fill="#83bb26" stroke="#83bb26" d="M 446.5 495.5 C 445.33 493 423.67 509.67 420.5 515.5 C 417.33 521.33 423.17 533.83 427.5 530.5 C 431.83 527.17 447.67 498 446.5 495.5 Z M 662.5 31.5 C 652.67 26.17 650.67 25.5 659.5 34.5 C 668.33 43.5 699.83 67.83 715.5 85.5 C 731.17 103.17 743.67 123.5 753.5 140.5 C 763.33 157.5 770.17 175.67 774.5 187.5 C 778.83 199.33 778.67 202.83 779.5 211.5 C 780.33 220.17 781 229.17 779.5 239.5 C 778 249.83 776.67 260.67 770.5 273.5 C 764.33 286.33 756.5 301 742.5 316.5 C 728.5 332 706.83 351.5 686.5 366.5 C 666.17 381.5 629 390.83 620.5 406.5 C 612 422.17 631.83 444.67 635.5 460.5 C 639.17 476.33 640.83 485.17 642.5 501.5 C 644.17 517.83 645.83 540.33 645.5 558.5 C 645.17 576.67 633 606.5 640.5 610.5 C 648 614.5 674.17 592.83 690.5 582.5 C 706.83 572.17 723.33 560.33 738.5 548.5 C 753.67 536.67 770 522.5 781.5 511.5 C 793 500.5 798.67 494.17 807.5 482.5 C 816.33 470.83 826.83 455.17 834.5 441.5 C 842.17 427.83 848.17 415.33 853.5 400.5 C 858.83 385.67 863.83 366.83 866.5 352.5 C 869.17 338.17 869.17 327.17 869.5 314.5 C 869.83 301.83 869.83 288.67 868.5 276.5 C 867.17 264.33 865.67 254.5 861.5 241.5 C 857.33 228.5 850.17 211.33 843.5 198.5 C 836.83 185.67 834.17 180.5 821.5 164.5 C 808.83 148.5 784.67 118.83 767.5 102.5 C 750.33 86.17 736 78.33 718.5 66.5 C 701 54.67 672.33 36.83 662.5 31.5 Z"/>
    <path fill="#6ab12d" stroke="#6ab12d" d="M 484.5 135.5 C 479.33 132 498.5 174.67 503.5 193.5 C 508.5 212.33 512.33 229.33 514.5 248.5 C 516.67 267.67 516.83 293 516.5 308.5 C 516.17 324 515.17 328 512.5 341.5 C 509.83 355 514.17 359 500.5 389.5 C 486.83 420 442.67 501.5 430.5 524.5 C 418.33 547.5 429 528.83 427.5 527.5 C 426 526.17 422.83 517.67 421.5 516.5 C 420.17 515.33 418 517.5 419.5 520.5 C 421 523.5 425.5 538.17 430.5 534.5 C 435.5 530.83 444 506.33 449.5 498.5 C 455 490.67 454.33 493.17 463.5 487.5 C 472.67 481.83 478.67 476.83 504.5 464.5 C 530.33 452.17 596.33 411.17 618.5 413.5 C 640.67 415.83 633.33 456.33 637.5 478.5 C 641.67 500.67 643.33 524.17 643.5 546.5 C 643.67 568.83 649.33 596.67 638.5 612.5 C 627.67 628.33 595 632.67 578.5 641.5 C 562 650.33 551.83 657 539.5 665.5 C 527.17 674 513.5 684.83 504.5 692.5 C 495.5 700.17 489.67 706.33 485.5 711.5 C 481.33 716.67 481.33 718.33 479.5 723.5 C 477.67 728.67 475 727.33 474.5 742.5 C 474 757.67 473.33 787 476.5 814.5 C 479.67 842 490.17 891.83 493.5 907.5 C 496.83 923.17 484.5 925.5 496.5 908.5 C 508.5 891.5 547.83 834.33 565.5 805.5 C 583.17 776.67 593.83 753.5 602.5 735.5 C 611.17 717.5 611.67 715 617.5 697.5 C 623.33 680 633.17 646.5 637.5 630.5 C 641.83 614.5 642 614.17 643.5 601.5 C 645 588.83 647 575.17 646.5 554.5 C 646 533.83 646.5 507.5 640.5 477.5 C 634.5 447.5 622.67 407.67 610.5 374.5 C 598.33 341.33 580.17 305.17 567.5 278.5 C 554.83 251.83 548.33 238.33 534.5 214.5 C 520.67 190.67 489.67 139 484.5 135.5 Z"/>
    <path fill="#009f3a" stroke="#009f3a" d="M 475.5 801.5 C 472.67 794 476.5 845.67 478.5 861.5 C 480.5 877.33 485.17 889 487.5 896.5 C 489.83 904 491.17 904.83 492.5 906.5 C 493.83 908.17 498.33 924 495.5 906.5 C 492.67 889 478.33 809 475.5 801.5 Z M 620.5 411.5 C 598.33 411.67 527.67 451.83 502.5 463.5 C 477.33 475.17 478.5 476 469.5 481.5 C 460.5 487 455 488.17 448.5 496.5 C 442 504.83 434.33 526 430.5 531.5 C 426.67 537 422.83 522.33 425.5 529.5 C 428.17 536.67 440.67 558 446.5 574.5 C 452.33 591 456.67 608.5 460.5 628.5 C 464.33 648.5 467.17 666.5 469.5 694.5 C 471.83 722.5 473.5 788.17 474.5 796.5 C 475.5 804.83 473.5 758.33 475.5 744.5 C 477.5 730.67 479.33 723.67 486.5 713.5 C 493.67 703.33 506.83 693 518.5 683.5 C 530.17 674 536.17 668.33 556.5 656.5 C 576.83 644.67 625.83 626.17 640.5 612.5 C 655.17 598.83 644.33 593.67 644.5 574.5 C 644.67 555.33 643 516.17 641.5 497.5 C 640 478.83 639 476.83 635.5 462.5 C 632 448.17 642.67 411.33 620.5 411.5 Z"/>
    <path fill="#007a39" stroke="#007a39" d="M 425.5 533.5 C 420 542 408.17 583 403.5 601.5 C 398.83 620 398 631.67 397.5 644.5 C 397 657.33 396.83 661.5 400.5 678.5 C 404.17 695.5 406.5 713.5 419.5 746.5 C 432.5 779.5 468.17 854.83 478.5 876.5 C 488.83 898.17 482 882.17 481.5 876.5 C 481 870.83 477.17 867.83 475.5 842.5 C 473.83 817.17 473.67 758.17 471.5 724.5 C 469.33 690.83 466.33 664.5 462.5 640.5 C 458.67 616.5 452.83 595.5 448.5 580.5 C 444.17 565.5 440.33 558.33 436.5 550.5 C 432.67 542.67 431 525 425.5 533.5 Z M 78.5 270.5 C 78 270.67 74.67 277.33 74.5 278.5 C 74.33 279.67 76.83 278.83 77.5 277.5 C 78.17 276.17 79 270.33 78.5 270.5 Z"/>
    <path fill="#007d38" stroke="#007d38" d="M 473.5 829.5 C 473.67 832.5 477 850.83 477.5 851.5 C 478 852.17 477.17 837.17 476.5 833.5 C 475.83 829.83 473.33 826.5 473.5 829.5 Z M 472.5 792.5 C 472.5 797.5 475 826.67 475.5 827.5 C 476 828.33 476 803.33 475.5 797.5 C 475 791.67 472.5 787.5 472.5 792.5 Z M 470.5 759.5 C 470 758.5 470 779.33 470.5 784.5 C 471 789.67 473.5 794.67 473.5 790.5 C 473.5 786.33 471 760.5 470.5 759.5 Z M 115.5 699.5 C 115.83 700.67 129.17 719.83 131.5 722.5 C 133.83 725.17 132.17 719.33 129.5 715.5 C 126.83 711.67 115.17 698.33 115.5 699.5 Z M 456.5 618.5 C 457 622.17 462 643 462.5 643.5 C 463 644 460.5 625.67 459.5 621.5 C 458.5 617.33 456 614.83 456.5 618.5 Z M 417.5 521.5 C 411.5 527.67 393.83 546.67 385.5 558.5 C 377.17 570.33 372 581.33 367.5 592.5 C 363 603.67 359.67 611.5 358.5 625.5 C 357.33 639.5 357.5 659.5 360.5 676.5 C 363.5 693.5 369.5 710.17 376.5 727.5 C 383.5 744.83 390 759 402.5 780.5 C 415 802 436.5 835.33 451.5 856.5 C 466.5 877.67 487.5 905 492.5 907.5 C 497.5 910 483.83 877.67 481.5 871.5 C 479.17 865.33 478.83 872.17 478.5 870.5 C 478.17 868.83 479.83 862.33 479.5 861.5 C 479.17 860.67 486.33 885 476.5 865.5 C 466.67 846 432.5 773.33 420.5 744.5 C 408.5 715.67 408.17 707.5 404.5 692.5 C 400.83 677.5 399 666.33 398.5 654.5 C 398 642.67 399 635.33 401.5 621.5 C 404 607.67 409.17 585.33 413.5 571.5 C 417.83 557.67 422.83 539.33 427.5 538.5 C 432.17 537.67 436.83 555.17 441.5 566.5 C 446.17 577.83 455.83 608.33 455.5 606.5 C 455.17 604.67 445.17 569.67 439.5 555.5 C 433.83 541.33 425.17 527.17 421.5 521.5 C 417.83 515.83 423.5 515.33 417.5 521.5 Z M 246.5 332.5 C 248 335 260.5 350 261.5 350.5 C 262.5 351 255 338.5 252.5 335.5 C 250 332.5 245 330 246.5 332.5 Z M 239.5 322.5 C 240.17 323.83 246 330.5 246.5 330.5 C 247 330.5 243.67 323.83 242.5 322.5 C 241.33 321.17 238.83 321.17 239.5 322.5 Z M 224.5 299.5 C 223.17 298.17 223.17 301.5 224.5 303.5 C 225.83 305.5 232.5 312.17 232.5 311.5 C 232.5 310.83 225.83 300.83 224.5 299.5 Z M 78.5 269.5 C 77.83 270.17 75.33 277.67 75.5 278.5 C 75.67 279.33 79 276 79.5 274.5 C 80 273 79.17 268.83 78.5 269.5 Z M 86.5 250.5 C 85.83 250.83 80.83 259.17 80.5 260.5 C 80.17 261.83 83.5 260.17 84.5 258.5 C 85.5 256.83 87.17 250.17 86.5 250.5 Z M 193.5 118.5 C 193.33 117.67 189.17 120.17 188.5 121.5 C 187.83 122.83 188.67 127 189.5 126.5 C 190.33 126 193.67 119.33 193.5 118.5 Z M 170.5 104.5 C 171.17 102.33 169.33 102.17 167.5 104.5 C 165.67 106.83 160.17 116.33 159.5 118.5 C 158.83 120.67 161.67 119.83 163.5 117.5 C 165.33 115.17 169.83 106.67 170.5 104.5 Z M 207.5 53.5 C 206.67 52.67 203.17 54.83 202.5 56.5 C 201.83 58.17 202.67 62.67 203.5 63.5 C 204.33 64.33 206.83 63.17 207.5 61.5 C 208.17 59.83 208.33 54.33 207.5 53.5 Z"/>
  </g>
</svg>
