<svg xmlns="http://www.w3.org/2000/svg" width="899" height="921" viewBox="0 0 899 921" role="img" aria-labelledby="title desc">
  <title id="title">Nur logo loop frame 093</title>
  <desc id="desc">Vector-traced frame from Nur_Logo_Loop_02.gif.</desc>
  <g id="frame-093" stroke-linejoin="round" stroke-linecap="round" stroke-width="0.5" shape-rendering="geometricPrecision">
    <path fill="#008136" stroke="#008136" d="M 214.5 62.5 C 205.33 71.67 178.83 97.33 161.5 120.5 C 144.17 143.67 122.17 181.83 110.5 201.5 C 98.83 221.17 98.5 221.17 91.5 238.5 C 84.5 255.83 74.17 285.5 68.5 305.5 C 62.83 325.5 59.5 345.5 57.5 358.5 C 55.5 371.5 57.17 378.67 56.5 383.5 C 55.83 388.33 54.67 372.5 53.5 387.5 C 52.33 402.5 48.83 448.17 49.5 473.5 C 50.17 498.83 53.5 517 57.5 539.5 C 61.5 562 66 586 73.5 608.5 C 81 631 91.5 653.67 102.5 674.5 C 113.5 695.33 127.83 716.83 139.5 733.5 C 151.17 750.17 161.5 762.17 172.5 774.5 C 183.5 786.83 193.83 797.17 205.5 807.5 C 217.17 817.83 227.5 826.67 242.5 836.5 C 257.5 846.33 274.17 857 295.5 866.5 C 316.83 876 345.83 886.67 370.5 893.5 C 395.17 900.33 423.17 905.17 443.5 907.5 C 463.83 909.83 486.83 918.17 492.5 907.5 C 498.17 896.83 480.5 871.17 477.5 843.5 C 474.5 815.83 476.17 771.5 474.5 741.5 C 472.83 711.5 470.5 686.67 467.5 663.5 C 464.5 640.33 460.83 620.17 456.5 602.5 C 452.17 584.83 447.83 572.17 441.5 557.5 C 435.17 542.83 427 528.17 418.5 514.5 C 410 500.83 408.17 494 390.5 475.5 C 372.83 457 334.5 425.17 312.5 403.5 C 290.5 381.83 273.5 364 258.5 345.5 C 243.5 327 231.17 307.67 222.5 292.5 C 213.83 277.33 211.17 268.33 206.5 254.5 C 201.83 240.67 196.5 220 194.5 209.5 C 192.5 199 195 194.83 194.5 191.5 C 194 188.17 191.17 200.17 191.5 189.5 C 191.83 178.83 193.5 146.5 196.5 127.5 C 199.5 108.5 206.17 85.83 209.5 75.5 C 212.83 65.17 215.67 67.67 216.5 65.5 C 217.33 63.33 223.67 53.33 214.5 62.5 Z"/>
    <path fill="#83bb26" stroke="#83bb26" d="M 448.5 491.5 C 447.17 489 423 509 419.5 515.5 C 416 522 422.67 534.5 427.5 530.5 C 432.33 526.5 449.83 494 448.5 491.5 Z M 647.5 38.5 C 638.83 34.5 644.17 38 643.5 38.5 C 642.83 39 633.17 33.17 643.5 41.5 C 653.83 49.83 689.83 74.67 705.5 88.5 C 721.17 102.33 727.17 109 737.5 124.5 C 747.83 140 761.33 167.83 767.5 181.5 C 773.67 195.17 773 198.17 774.5 206.5 C 776 214.83 777.67 220.5 776.5 231.5 C 775.33 242.5 771.17 261.67 767.5 272.5 C 763.83 283.33 760.5 287.83 754.5 296.5 C 748.5 305.17 743.17 313.17 731.5 324.5 C 719.83 335.83 703.67 351 684.5 364.5 C 665.33 378 625.17 389.5 616.5 405.5 C 607.83 421.5 628.83 445.67 632.5 460.5 C 636.17 475.33 636.83 480.33 638.5 494.5 C 640.17 508.67 642.33 526.67 642.5 545.5 C 642.67 564.33 634 600.33 639.5 607.5 C 645 614.67 660 598.17 675.5 588.5 C 691 578.83 716.83 561.17 732.5 549.5 C 748.17 537.83 757.17 530.33 769.5 518.5 C 781.83 506.67 796 491.83 806.5 478.5 C 817 465.17 824.83 452.5 832.5 438.5 C 840.17 424.5 847.5 408 852.5 394.5 C 857.5 381 860.17 371 862.5 357.5 C 864.83 344 866 326.83 866.5 313.5 C 867 300.17 866.67 289 865.5 277.5 C 864.33 266 862.83 256.17 859.5 244.5 C 856.17 232.83 851.67 219.83 845.5 207.5 C 839.33 195.17 835.67 187.17 822.5 170.5 C 809.33 153.83 787.67 125.5 766.5 107.5 C 745.33 89.5 715.33 74 695.5 62.5 C 675.67 51 656.17 42.5 647.5 38.5 Z"/>
    <path fill="#6ab12d" stroke="#6ab12d" d="M 473.5 137.5 C 468.67 135.5 490.67 174.17 496.5 190.5 C 502.33 206.83 505.67 220.33 508.5 235.5 C 511.33 250.67 513.33 263 513.5 281.5 C 513.67 300 512 327.67 509.5 346.5 C 507 365.33 511.83 364.5 498.5 394.5 C 485.17 424.5 441.5 504.5 429.5 526.5 C 417.5 548.5 428 528.33 426.5 526.5 C 425 524.67 421.83 516.67 420.5 515.5 C 419.17 514.33 417.5 516.67 418.5 519.5 C 419.5 522.33 424.5 530.17 426.5 532.5 C 428.5 534.83 426.17 540.17 430.5 533.5 C 434.83 526.83 439.67 504.83 452.5 492.5 C 465.33 480.17 480.5 472.83 507.5 459.5 C 534.5 446.17 593.33 408.83 614.5 412.5 C 635.67 416.17 630.17 459.33 634.5 481.5 C 638.83 503.67 640 524.33 640.5 545.5 C 641 566.67 647.17 593.5 637.5 608.5 C 627.83 623.5 598.83 626.5 582.5 635.5 C 566.17 644.5 551.83 653.83 539.5 662.5 C 527.17 671.17 516.67 680.33 508.5 687.5 C 500.33 694.67 495 700 490.5 705.5 C 486 711 484.17 713.33 481.5 720.5 C 478.83 727.67 475.5 736.33 474.5 748.5 C 473.5 760.67 471.83 767.5 475.5 793.5 C 479.17 819.5 493.5 885.33 496.5 904.5 C 499.5 923.67 493.33 907.83 493.5 908.5 C 493.67 909.17 483.67 928.67 497.5 908.5 C 511.33 888.33 559.17 816 576.5 787.5 C 593.83 759 593.5 756.5 601.5 737.5 C 609.5 718.5 618 695 624.5 673.5 C 631 652 637.33 630.17 640.5 608.5 C 643.67 586.83 644.67 568.5 643.5 543.5 C 642.33 518.5 640.5 489 633.5 458.5 C 626.5 428 612.5 389.67 601.5 360.5 C 590.5 331.33 580.17 309.83 567.5 283.5 C 554.83 257.17 541.17 226.83 525.5 202.5 C 509.83 178.17 478.33 139.5 473.5 137.5 Z"/>
    <path fill="#009f3a" stroke="#009f3a" d="M 474.5 774.5 C 471.33 766.83 476 839.67 478.5 861.5 C 481 883.33 486.33 897.83 489.5 905.5 C 492.67 913.17 500 929.33 497.5 907.5 C 495 885.67 477.67 782.17 474.5 774.5 Z M 615.5 410.5 C 588.5 407.83 502.83 461.17 475.5 474.5 C 448.17 487.83 459 481.33 451.5 490.5 C 444 499.67 434.83 523 430.5 529.5 C 426.17 536 422.83 522 425.5 529.5 C 428.17 537 441 559.67 446.5 574.5 C 452 589.33 455 601.83 458.5 618.5 C 462 635.17 465 650.17 467.5 674.5 C 470 698.83 470.67 757.33 473.5 764.5 C 476.33 771.67 478.33 730.17 484.5 717.5 C 490.67 704.83 496.5 700.5 510.5 688.5 C 524.5 676.5 547.17 658.5 568.5 645.5 C 589.83 632.5 626.33 627.5 638.5 610.5 C 650.67 593.5 641.67 563.5 641.5 543.5 C 641.33 523.5 641.83 512.67 637.5 490.5 C 633.17 468.33 642.5 413.17 615.5 410.5 Z"/>
    <path fill="#007a39" stroke="#007a39" d="M 100.5 668.5 C 101.67 671.33 111.67 688 112.5 688.5 C 113.33 689 107.5 674.83 105.5 671.5 C 103.5 668.17 99.33 665.67 100.5 668.5 Z M 425.5 533.5 C 419.67 541.5 406.67 581.5 401.5 598.5 C 396.33 615.5 395.67 623.67 394.5 635.5 C 393.33 647.33 393.33 658.17 394.5 669.5 C 395.67 680.83 396.83 688.33 401.5 703.5 C 406.17 718.67 408.67 729.67 422.5 760.5 C 436.33 791.33 475.67 874.83 484.5 888.5 C 493.33 902.17 477.67 869.83 475.5 842.5 C 473.33 815.17 473.67 758.17 471.5 724.5 C 469.33 690.83 466.33 664.5 462.5 640.5 C 458.67 616.5 452.83 595.5 448.5 580.5 C 444.17 565.5 440.33 558.33 436.5 550.5 C 432.67 542.67 431.33 525.5 425.5 533.5 Z"/>
    <path fill="#007d38" stroke="#007d38" d="M 82.5 627.5 C 82.83 629.17 87.83 640 88.5 640.5 C 89.17 641 87.5 632.67 86.5 630.5 C 85.5 628.33 82.17 625.83 82.5 627.5 Z M 456.5 618.5 C 457 622.17 462 643 462.5 643.5 C 463 644 460.5 625.67 459.5 621.5 C 458.5 617.33 456 614.83 456.5 618.5 Z M 416.5 520.5 C 410.67 526.83 393.17 547.5 385.5 558.5 C 377.83 569.5 374.83 575.5 370.5 586.5 C 366.17 597.5 361.33 612.17 359.5 624.5 C 357.67 636.83 357.83 647.33 359.5 660.5 C 361.17 673.67 364 687.33 369.5 703.5 C 375 719.67 382.67 738 392.5 757.5 C 402.33 777 413 797.83 428.5 820.5 C 444 843.17 477 886.67 485.5 893.5 C 494 900.33 481 865.5 479.5 861.5 C 478 857.5 485.83 886.67 476.5 869.5 C 467.17 852.33 434.5 782.33 423.5 758.5 C 412.5 734.67 414.83 739.67 410.5 726.5 C 406.17 713.33 399.67 696.67 397.5 679.5 C 395.33 662.33 395.17 641.5 397.5 623.5 C 399.83 605.5 406.67 585.67 411.5 571.5 C 416.33 557.33 420.33 536.83 426.5 538.5 C 432.67 540.17 448.17 582.33 448.5 581.5 C 448.83 580.67 433.17 543.67 428.5 533.5 C 423.83 523.33 422.5 522.67 420.5 520.5 C 418.5 518.33 422.33 514.17 416.5 520.5 Z M 66.5 325.5 C 65.83 325.83 62.5 331.67 62.5 332.5 C 62.5 333.33 65.83 331.67 66.5 330.5 C 67.17 329.33 67.17 325.17 66.5 325.5 Z M 164.5 119.5 C 166 116.33 157.67 125.5 154.5 130.5 C 151.33 135.5 143.83 151.33 145.5 149.5 C 147.17 147.67 163 122.67 164.5 119.5 Z"/>
  </g>
</svg>
