<svg xmlns="http://www.w3.org/2000/svg" width="899" height="921" viewBox="0 0 899 921" role="img" aria-labelledby="title desc">
  <title id="title">Nur logo loop frame 037</title>
  <desc id="desc">Vector-traced frame from Nur_Logo_Loop_02.gif.</desc>
  <g id="frame-037" stroke-linejoin="round" stroke-linecap="round" stroke-width="0.5" shape-rendering="geometricPrecision">
    <path fill="#008136" stroke="#008136" d="M 228.5 74.5 C 217.33 83.33 181 111.67 164.5 129.5 C 148 147.33 140.17 164.17 129.5 181.5 C 118.83 198.83 109.83 212.33 100.5 233.5 C 91.17 254.67 80.67 285.5 73.5 308.5 C 66.33 331.5 61.83 350.33 57.5 371.5 C 53.17 392.67 48.5 411 47.5 435.5 C 46.5 460 47.5 488.67 51.5 518.5 C 55.5 548.33 64 589.33 71.5 614.5 C 79 639.67 85.17 649.17 96.5 669.5 C 107.83 689.83 124.17 716 139.5 736.5 C 154.83 757 171.67 776 188.5 792.5 C 205.33 809 222.67 823.17 240.5 835.5 C 258.33 847.83 273.83 856.83 295.5 866.5 C 317.17 876.17 345.83 886.67 370.5 893.5 C 395.17 900.33 423 905.17 443.5 907.5 C 464 909.83 486.83 912.33 493.5 907.5 C 500.17 902.67 486.17 889.17 483.5 878.5 C 480.83 867.83 479 866 477.5 843.5 C 476 821 476.17 773.5 474.5 743.5 C 472.83 713.5 470.5 687 467.5 663.5 C 464.5 640 460.83 620.17 456.5 602.5 C 452.17 584.83 448.17 572.67 441.5 557.5 C 434.83 542.33 425 525.17 416.5 511.5 C 408 497.83 407.83 493.5 390.5 475.5 C 373.17 457.5 334.33 425.17 312.5 403.5 C 290.67 381.83 273.33 363.17 259.5 345.5 C 245.67 327.83 236.83 311 229.5 297.5 C 222.17 284 219.83 278.5 215.5 264.5 C 211.17 250.5 205.67 228.83 203.5 213.5 C 201.33 198.17 201.5 188.17 202.5 172.5 C 203.5 156.83 207.83 128.5 209.5 119.5 C 211.17 110.5 211.67 120.83 212.5 118.5 C 213.33 116.17 211.33 112.5 214.5 105.5 C 217.67 98.5 229.17 81.67 231.5 76.5 C 233.83 71.33 239.67 65.67 228.5 74.5 Z"/>
    <path fill="#83bb26" stroke="#83bb26" d="M 455.5 480.5 C 454 477.33 423.17 503.17 418.5 511.5 C 413.83 519.83 421.33 535.67 427.5 530.5 C 433.67 525.33 457 483.67 455.5 480.5 Z M 621.5 44.5 C 614.5 43 612 42.33 623.5 49.5 C 635 56.67 672.67 75.17 690.5 87.5 C 708.33 99.83 719.5 109.83 730.5 123.5 C 741.5 137.17 750.33 154 756.5 169.5 C 762.67 185 765.83 203.83 767.5 216.5 C 769.17 229.17 767.67 236.67 766.5 245.5 C 765.33 254.33 763 262.17 760.5 269.5 C 758 276.83 755.67 282.5 751.5 289.5 C 747.33 296.5 747.5 299.5 735.5 311.5 C 723.5 323.5 700.33 346.33 679.5 361.5 C 658.67 376.67 617.83 380.5 610.5 402.5 C 603.17 424.5 630.5 469.17 635.5 493.5 C 640.5 517.83 640.17 530.5 640.5 548.5 C 640.83 566.5 630.5 596.67 637.5 601.5 C 644.5 606.33 664.17 589.33 682.5 577.5 C 700.83 565.67 729.83 544.83 747.5 530.5 C 765.17 516.17 778.67 501.83 788.5 491.5 C 798.33 481.17 798.83 480.33 806.5 468.5 C 814.17 456.67 827.5 434.67 834.5 420.5 C 841.5 406.33 844.67 397.33 848.5 383.5 C 852.33 369.67 855.83 353.67 857.5 337.5 C 859.17 321.33 859.33 302.33 858.5 286.5 C 857.67 270.67 856.5 257.17 852.5 242.5 C 848.5 227.83 841.67 212 834.5 198.5 C 827.33 185 821.67 176.33 809.5 161.5 C 797.33 146.67 775.17 121.83 761.5 109.5 C 747.83 97.17 743.5 96 727.5 87.5 C 711.5 79 683.17 65.67 665.5 58.5 C 647.83 51.33 628.5 46 621.5 44.5 Z"/>
    <path fill="#6ab12d" stroke="#6ab12d" d="M 460.5 148.5 C 455.67 147.17 480.33 176.5 487.5 190.5 C 494.67 204.5 499.67 214.67 503.5 232.5 C 507.33 250.33 509.83 277.5 510.5 297.5 C 511.17 317.5 509.5 335.67 507.5 352.5 C 505.5 369.33 511.5 369.67 498.5 398.5 C 485.5 427.33 441.5 504.17 429.5 525.5 C 417.5 546.83 428.17 528.67 426.5 526.5 C 424.83 524.33 421.17 514.17 419.5 512.5 C 417.83 510.83 415.33 513.17 416.5 516.5 C 417.67 519.83 424 529.5 426.5 532.5 C 429 535.5 425.5 543.33 431.5 534.5 C 437.5 525.67 448.33 493.83 462.5 479.5 C 476.67 465.17 492.17 460.5 516.5 448.5 C 540.83 436.5 589.67 403.67 608.5 407.5 C 627.33 411.33 624.5 448.83 629.5 471.5 C 634.5 494.17 637.5 521.67 638.5 543.5 C 639.5 565.33 644.17 588.67 635.5 602.5 C 626.83 616.33 600.83 618.67 586.5 626.5 C 572.17 634.33 561 641.33 549.5 649.5 C 538 657.67 527.33 666.5 517.5 675.5 C 507.67 684.5 496.33 696.67 490.5 703.5 C 484.67 710.33 484.83 710.17 482.5 716.5 C 480.17 722.83 477.67 731.83 476.5 741.5 C 475.33 751.17 472 748.17 475.5 774.5 C 479 800.83 494.33 878.67 497.5 899.5 C 500.67 920.33 496 901.67 494.5 899.5 C 493 897.33 490 888.67 488.5 886.5 C 487 884.33 484.83 883.17 485.5 886.5 C 486.17 889.83 490.67 903 492.5 906.5 C 494.33 910 485.17 923 496.5 907.5 C 507.83 892 543.67 840.33 560.5 813.5 C 577.33 786.67 588 767 597.5 746.5 C 607 726 610.5 715.5 617.5 690.5 C 624.5 665.5 635.5 620.5 639.5 596.5 C 643.5 572.5 642 564 641.5 546.5 C 641 529 639.5 509.67 636.5 491.5 C 633.5 473.33 629.67 458 623.5 437.5 C 617.33 417 609.17 393.5 599.5 368.5 C 589.83 343.5 579.33 315.83 565.5 287.5 C 551.67 259.17 534 221.67 516.5 198.5 C 499 175.33 465.33 149.83 460.5 148.5 Z"/>
    <path fill="#009f3a" stroke="#009f3a" d="M 610.5 406.5 C 592.17 406.67 537 437.17 514.5 447.5 C 492 457.83 485.17 462.67 475.5 468.5 C 465.83 474.33 464 472 456.5 482.5 C 449 493 435.67 523.67 430.5 531.5 C 425.33 539.33 422.83 522.33 425.5 529.5 C 428.17 536.67 440.33 556.17 446.5 574.5 C 452.67 592.83 458 611 462.5 639.5 C 467 668 471.17 711.17 473.5 745.5 C 475.83 779.83 475 823 476.5 845.5 C 478 868 480.67 873.33 482.5 880.5 C 484.33 887.67 486.83 886.17 487.5 888.5 C 488.17 890.83 485.83 893.17 486.5 894.5 C 487.17 895.83 491.17 895.67 491.5 896.5 C 491.83 897.33 488.33 897.67 488.5 899.5 C 488.67 901.33 490.83 907.17 492.5 907.5 C 494.17 907.83 501.17 924 498.5 901.5 C 495.83 879 480 798.83 476.5 772.5 C 473 746.17 476.33 752.5 477.5 743.5 C 478.67 734.5 480 726.17 483.5 718.5 C 487 710.83 487.17 708.83 498.5 697.5 C 509.83 686.17 536.5 662.17 551.5 650.5 C 566.5 638.83 574.33 635.17 588.5 627.5 C 602.67 619.83 628 618.83 636.5 604.5 C 645 590.17 639.67 559.5 639.5 541.5 C 639.33 523.5 638 512.33 635.5 496.5 C 633 480.67 628.67 461.5 624.5 446.5 C 620.33 431.5 628.83 406.33 610.5 406.5 Z"/>
    <path fill="#007a39" stroke="#007a39" d="M 428.5 540.5 C 426 545.33 420.33 557.5 416.5 569.5 C 412.67 581.5 407.33 594 405.5 612.5 C 403.67 631 403.67 662 405.5 680.5 C 407.33 699 410.83 706.17 416.5 723.5 C 422.17 740.83 430 762 439.5 784.5 C 449 807 467 845.33 473.5 858.5 C 480 871.67 478.83 885.83 478.5 863.5 C 478.17 841.17 474.17 761.67 471.5 724.5 C 468.83 687.33 466.33 664.5 462.5 640.5 C 458.67 616.5 453.67 597.17 448.5 580.5 C 443.33 563.83 434.83 547.17 431.5 540.5 C 428.17 533.83 431 535.67 428.5 540.5 Z"/>
    <path fill="#007d38" stroke="#007d38" d="M 115.5 699.5 C 115.83 700.67 129.17 719.83 131.5 722.5 C 133.83 725.17 132.17 719.33 129.5 715.5 C 126.83 711.67 115.17 698.33 115.5 699.5 Z M 416.5 517.5 C 408 517.17 396.17 541.5 388.5 553.5 C 380.83 565.5 375 577 370.5 589.5 C 366 602 362.67 615.17 361.5 628.5 C 360.33 641.83 362 657.5 363.5 669.5 C 365 681.5 364.17 683.83 370.5 700.5 C 376.83 717.17 391.33 749.5 401.5 769.5 C 411.67 789.5 417.33 800.17 431.5 820.5 C 445.67 840.83 478.5 884.67 486.5 891.5 C 494.5 898.33 481.17 866.67 479.5 861.5 C 477.83 856.33 476.67 861.83 476.5 860.5 C 476.33 859.17 478.67 854 478.5 853.5 C 478.33 853 482.33 870.67 475.5 857.5 C 468.67 844.33 447.17 797.17 437.5 774.5 C 427.83 751.83 422.67 737.5 417.5 721.5 C 412.33 705.5 408.33 696.33 406.5 678.5 C 404.67 660.67 404.67 632.33 406.5 614.5 C 408.33 596.67 413.67 583.5 417.5 571.5 C 421.33 559.5 424.33 540.83 429.5 542.5 C 434.67 544.17 446.83 579.33 448.5 581.5 C 450.17 583.67 444.83 566.17 439.5 555.5 C 434.17 544.83 425 517.83 416.5 517.5 Z M 85.5 278.5 C 84.67 279 81.33 285.67 81.5 286.5 C 81.67 287.33 85.83 284.83 86.5 283.5 C 87.17 282.17 86.33 278 85.5 278.5 Z M 152.5 151.5 C 151.5 152.17 142.33 163.83 141.5 165.5 C 140.67 167.17 145.67 163.83 147.5 161.5 C 149.33 159.17 153.5 150.83 152.5 151.5 Z"/>
  </g>
</svg>
