<svg xmlns="http://www.w3.org/2000/svg" width="899" height="921" viewBox="0 0 899 921" role="img" aria-labelledby="title desc">
  <title id="title">Nur logo loop frame 082</title>
  <desc id="desc">Vector-traced frame from Nur_Logo_Loop_02.gif.</desc>
  <g id="frame-082" stroke-linejoin="round" stroke-linecap="round" stroke-width="0.5" shape-rendering="geometricPrecision">
    <path fill="#008136" stroke="#008136" d="M 185.5 49.5 C 178 57.17 158.83 83.33 142.5 108.5 C 126.17 133.67 100.17 176.67 87.5 200.5 C 74.83 224.33 69.83 242.17 66.5 251.5 C 63.17 260.83 67.83 255.5 67.5 256.5 C 67.17 257.5 67.67 248.33 64.5 257.5 C 61.33 266.67 52.5 292.33 48.5 311.5 C 44.5 330.67 41.5 358.83 40.5 372.5 C 39.5 386.17 42.67 389.83 42.5 393.5 C 42.33 397.17 39.83 390 39.5 394.5 C 39.17 399 40.83 415.83 40.5 420.5 C 40.17 425.17 38 414.17 37.5 422.5 C 37 430.83 37.17 460.33 37.5 470.5 C 37.83 480.67 38.67 481.17 39.5 483.5 C 40.33 485.83 42.33 483 42.5 484.5 C 42.67 486 39.5 484.17 40.5 492.5 C 41.5 500.83 42.67 512.33 48.5 534.5 C 54.33 556.67 66 600.33 75.5 625.5 C 85 650.67 94.83 667 105.5 685.5 C 116.17 704 125.67 718.67 139.5 736.5 C 153.33 754.33 171.67 776 188.5 792.5 C 205.33 809 222.67 823.17 240.5 835.5 C 258.33 847.83 273.83 856.83 295.5 866.5 C 317.17 876.17 345.83 886.67 370.5 893.5 C 395.17 900.33 423 905.17 443.5 907.5 C 464 909.83 486.67 911.67 493.5 907.5 C 500.33 903.33 487.17 893.17 484.5 882.5 C 481.83 871.83 479.5 860.5 477.5 843.5 C 475.5 826.5 473 797.33 472.5 780.5 C 472 763.67 475.33 762 474.5 742.5 C 473.67 723 470.5 686.83 467.5 663.5 C 464.5 640.17 459.83 617.67 456.5 602.5 C 453.17 587.33 452.33 584.67 447.5 572.5 C 442.67 560.33 436 544.5 427.5 529.5 C 419 514.5 418.33 504.5 396.5 482.5 C 374.67 460.5 322 421.67 296.5 397.5 C 271 373.33 258 356.17 243.5 337.5 C 229 318.83 215 294.83 209.5 285.5 C 204 276.17 212.67 288 210.5 281.5 C 208.33 275 199.33 252.5 196.5 246.5 C 193.67 240.5 193.83 246.67 193.5 245.5 C 193.17 244.33 194.83 240.67 194.5 239.5 C 194.17 238.33 194 249.33 191.5 238.5 C 189 227.67 181.67 191 179.5 174.5 C 177.33 158 177.17 158.17 178.5 139.5 C 179.83 120.83 186.33 77.5 187.5 62.5 C 188.67 47.5 193 41.83 185.5 49.5 Z"/>
    <path fill="#83bb26" stroke="#83bb26" d="M 432.5 513.5 C 432.17 512.5 423.83 518.33 422.5 520.5 C 421.17 522.67 422.83 527.67 424.5 526.5 C 426.17 525.33 432.83 514.5 432.5 513.5 Z M 699.5 23.5 C 690.33 17.33 693.17 21.83 696.5 25.5 C 699.83 29.17 712.67 38.33 719.5 45.5 C 726.33 52.67 728 53.5 737.5 68.5 C 747 83.5 767.67 117.5 776.5 135.5 C 785.33 153.5 787.83 162 790.5 176.5 C 793.17 191 794.33 206.17 792.5 222.5 C 790.67 238.83 786.5 258.67 779.5 274.5 C 772.5 290.33 765.5 301.33 750.5 317.5 C 735.5 333.67 710.33 356 689.5 371.5 C 668.67 387 634 395.67 625.5 410.5 C 617 425.33 635.17 440.83 638.5 460.5 C 641.83 480.17 644.33 508.83 645.5 528.5 C 646.67 548.17 646.5 563.33 645.5 578.5 C 644.5 593.67 635 615.5 639.5 619.5 C 644 623.5 657 612.17 672.5 602.5 C 688 592.83 715.5 574.17 732.5 561.5 C 749.5 548.83 762.33 537.67 774.5 526.5 C 786.67 515.33 795.5 506.67 805.5 494.5 C 815.5 482.33 826 467.5 834.5 453.5 C 843 439.5 850.5 424.5 856.5 410.5 C 862.5 396.5 867 383.5 870.5 369.5 C 874 355.5 876.33 340.67 877.5 326.5 C 878.67 312.33 878.67 298.67 877.5 284.5 C 876.33 270.33 873.5 253.83 870.5 241.5 C 867.5 229.17 864.33 221.67 859.5 210.5 C 854.67 199.33 852.83 192.83 841.5 174.5 C 830.17 156.17 806.5 119.17 791.5 100.5 C 776.5 81.83 766.83 75.33 751.5 62.5 C 736.17 49.67 708.67 29.67 699.5 23.5 Z"/>
    <path fill="#6ab12d" stroke="#6ab12d" d="M 499.5 131.5 C 493 121.33 495.33 125.33 497.5 134.5 C 499.67 143.67 508.17 167.17 512.5 186.5 C 516.83 205.83 521.33 231.83 523.5 250.5 C 525.67 269.17 525.83 284.5 525.5 298.5 C 525.17 312.5 524 321 521.5 334.5 C 519 348 515 366 510.5 379.5 C 506 393 508.5 391.5 494.5 415.5 C 480.5 439.5 438.67 505.5 426.5 523.5 C 414.33 541.5 421.33 522.67 421.5 523.5 C 421.67 524.33 424.67 530.83 427.5 528.5 C 430.33 526.17 428.17 518.17 438.5 509.5 C 448.83 500.83 458.5 492.33 489.5 476.5 C 520.5 460.67 599.5 414.67 624.5 414.5 C 649.5 414.33 636.17 449.5 639.5 475.5 C 642.83 501.5 644.83 546.33 644.5 570.5 C 644.17 594.67 648 607.83 637.5 620.5 C 627 633.17 598.67 637.5 581.5 646.5 C 564.33 655.5 547.33 666 534.5 674.5 C 521.67 683 511.83 691.33 504.5 697.5 C 497.17 703.67 494.5 706.33 490.5 711.5 C 486.5 716.67 483.17 722.83 480.5 728.5 C 477.83 734.17 475.33 732.33 474.5 745.5 C 473.67 758.67 472.33 780.5 475.5 807.5 C 478.67 834.5 489 892.17 493.5 907.5 C 498 922.83 494.67 910 502.5 899.5 C 510.33 889 525.17 868.83 540.5 844.5 C 555.83 820.17 579.83 783.5 594.5 753.5 C 609.17 723.5 620.67 687 628.5 664.5 C 636.33 642 638.5 632.5 641.5 618.5 C 644.5 604.5 646.17 602.83 646.5 580.5 C 646.83 558.17 646.33 511.83 643.5 484.5 C 640.67 457.17 640.67 451 629.5 416.5 C 618.33 382 592 314.33 576.5 277.5 C 561 240.67 549.33 219.83 536.5 195.5 C 523.67 171.17 506 141.67 499.5 131.5 Z"/>
    <path fill="#009f3a" stroke="#009f3a" d="M 475.5 806.5 C 472.83 798.83 476.5 846.33 478.5 861.5 C 480.5 876.67 484.83 889.83 487.5 897.5 C 490.17 905.17 496.5 922.67 494.5 907.5 C 492.5 892.33 478.17 814.17 475.5 806.5 Z M 626.5 412.5 C 601 412.83 519.17 459.5 487.5 475.5 C 455.83 491.5 446.83 499.83 436.5 508.5 C 426.17 517.17 428.17 525.5 425.5 527.5 C 422.83 529.5 417 512.67 420.5 520.5 C 424 528.33 439.83 556.5 446.5 574.5 C 453.17 592.5 456.33 604.5 460.5 628.5 C 464.67 652.5 469.67 692.83 471.5 718.5 C 473.33 744.17 471 768.17 471.5 782.5 C 472 796.83 473.83 810.33 474.5 804.5 C 475.17 798.67 472.67 762.67 475.5 747.5 C 478.33 732.33 485.17 722.67 491.5 713.5 C 497.83 704.33 504.5 699.83 513.5 692.5 C 522.5 685.17 533.83 677 545.5 669.5 C 557.17 662 567.83 655.5 583.5 647.5 C 599.17 639.5 629.17 634 639.5 621.5 C 649.83 609 644.67 589.5 645.5 572.5 C 646.33 555.5 645.33 536 644.5 519.5 C 643.67 503 643.5 491.33 640.5 473.5 C 637.5 455.67 652 412.17 626.5 412.5 Z"/>
    <path fill="#007a39" stroke="#007a39" d="M 423.5 532.5 C 419.5 540.5 408.67 565.17 403.5 581.5 C 398.33 597.83 394.33 616.83 392.5 630.5 C 390.67 644.17 391 651.67 392.5 663.5 C 394 675.33 397.17 687.33 401.5 701.5 C 405.83 715.67 406.17 720.5 418.5 748.5 C 430.83 776.5 465 848.17 475.5 869.5 C 486 890.83 481.67 883 481.5 876.5 C 481.33 870 476.17 855.83 474.5 830.5 C 472.83 805.17 473.5 756.17 471.5 724.5 C 469.5 692.83 466.33 664.5 462.5 640.5 C 458.67 616.5 454.33 598.33 448.5 580.5 C 442.67 562.67 431.67 541.5 427.5 533.5 C 423.33 525.5 427.5 524.5 423.5 532.5 Z M 75.5 235.5 C 75.67 234.33 73.17 234.33 72.5 235.5 C 71.83 236.67 71 242.5 71.5 242.5 C 72 242.5 75.33 236.67 75.5 235.5 Z"/>
    <path fill="#007d38" stroke="#007d38" d="M 472.5 800.5 C 472.5 805.33 475 832 475.5 832.5 C 476 833 476 808.83 475.5 803.5 C 475 798.17 472.5 795.67 472.5 800.5 Z M 115.5 699.5 C 115.83 700.67 129.17 719.83 131.5 722.5 C 133.83 725.17 132.17 719.33 129.5 715.5 C 126.83 711.67 115.17 698.33 115.5 699.5 Z M 456.5 618.5 C 457 622.17 462 643 462.5 643.5 C 463 644 460.5 625.67 459.5 621.5 C 458.5 617.33 456 614.83 456.5 618.5 Z M 413.5 510.5 C 413.17 511.17 424.17 514.83 419.5 523.5 C 414.83 532.17 393.33 552.17 385.5 562.5 C 377.67 572.83 376.17 577.5 372.5 585.5 C 368.83 593.5 365.67 601.67 363.5 610.5 C 361.33 619.33 359.5 626.17 359.5 638.5 C 359.5 650.83 359.17 666.33 363.5 684.5 C 367.83 702.67 375.83 726.67 385.5 747.5 C 395.17 768.33 415.67 798.67 421.5 809.5 C 427.33 820.33 408.67 796.17 420.5 812.5 C 432.33 828.83 482.33 897.67 492.5 907.5 C 502.67 917.33 483.83 877.67 481.5 871.5 C 479.17 865.33 478.83 872.17 478.5 870.5 C 478.17 868.83 480 862.67 479.5 861.5 C 479 860.33 485.5 882.67 475.5 863.5 C 465.5 844.33 431.67 773.83 419.5 746.5 C 407.33 719.17 406.83 713.67 402.5 699.5 C 398.17 685.33 395 672.67 393.5 661.5 C 392 650.33 392.83 641 393.5 632.5 C 394.17 624 394.17 622.83 397.5 610.5 C 400.83 598.17 408.83 571.17 413.5 558.5 C 418.17 545.83 420.83 533.17 425.5 534.5 C 430.17 535.83 436.5 554.5 441.5 566.5 C 446.5 578.5 455.83 608.33 455.5 606.5 C 455.17 604.67 445.17 570 439.5 555.5 C 433.83 541 425.83 527 421.5 519.5 C 417.17 512 413.83 509.83 413.5 510.5 Z M 40.5 480.5 C 40.33 481.67 42 488.33 42.5 488.5 C 43 488.67 43.83 482.83 43.5 481.5 C 43.17 480.17 40.67 479.33 40.5 480.5 Z M 40.5 382.5 C 40.33 384.83 42 397.33 42.5 397.5 C 43 397.67 43.83 386 43.5 383.5 C 43.17 381 40.67 380.17 40.5 382.5 Z M 242.5 335.5 C 241.5 335 247.33 345.83 249.5 348.5 C 251.67 351.17 256.67 353.67 255.5 351.5 C 254.33 349.33 243.5 336 242.5 335.5 Z M 58.5 283.5 C 57.83 283.83 53.67 292.17 53.5 293.5 C 53.33 294.83 56.67 293.17 57.5 291.5 C 58.33 289.83 59.17 283.17 58.5 283.5 Z M 208.5 282.5 C 207.33 281.5 207.33 285.67 208.5 287.5 C 209.67 289.33 215.5 294.33 215.5 293.5 C 215.5 292.67 209.67 283.5 208.5 282.5 Z M 69.5 249.5 C 69 249.67 65.67 258 65.5 259.5 C 65.33 261 67.83 260.17 68.5 258.5 C 69.17 256.83 70 249.33 69.5 249.5 Z M 190.5 236.5 C 190.33 237.33 193.67 247.33 194.5 248.5 C 195.33 249.67 196.17 245.5 195.5 243.5 C 194.83 241.5 190.67 235.67 190.5 236.5 Z M 76.5 230.5 C 76 230.5 72.67 238 72.5 239.5 C 72.33 241 74.83 241 75.5 239.5 C 76.17 238 77 230.5 76.5 230.5 Z M 126.5 138.5 C 126.67 137.5 122.5 140.83 121.5 142.5 C 120.5 144.17 119.67 149.17 120.5 148.5 C 121.33 147.83 126.33 139.5 126.5 138.5 Z"/>
  </g>
</svg>
