<svg xmlns="http://www.w3.org/2000/svg" width="899" height="921" viewBox="0 0 899 921" role="img" aria-labelledby="title desc">
  <title id="title">Nur logo loop frame 007</title>
  <desc id="desc">Vector-traced frame from Nur_Logo_Loop_02.gif.</desc>
  <g id="frame-007" stroke-linejoin="round" stroke-linecap="round" stroke-width="0.5" shape-rendering="geometricPrecision">
    <path fill="#008136" stroke="#008136" d="M 216.5 61.5 C 206.83 71.17 178 99.33 160.5 122.5 C 143 145.67 122.67 181.83 111.5 200.5 C 100.33 219.17 100.67 216.83 93.5 234.5 C 86.33 252.17 74.83 283.17 68.5 306.5 C 62.17 329.83 58.67 348 55.5 374.5 C 52.33 401 49.67 441.67 49.5 465.5 C 49.33 489.33 53 507.83 54.5 517.5 C 56 527.17 58 520.17 58.5 523.5 C 59 526.83 55 523.5 57.5 537.5 C 60 551.5 67 586.67 73.5 607.5 C 80 628.33 85.33 641.33 96.5 662.5 C 107.67 683.67 127.67 715.67 140.5 734.5 C 153.33 753.33 162.83 763.5 173.5 775.5 C 184.17 787.5 193.5 796.67 204.5 806.5 C 215.5 816.33 224.33 824.5 239.5 834.5 C 254.67 844.5 276 857.33 295.5 866.5 C 315 875.67 334.5 883 356.5 889.5 C 378.5 896 404.67 902.5 427.5 905.5 C 450.33 908.5 484 911.33 493.5 907.5 C 503 903.67 487.17 893.17 484.5 882.5 C 481.83 871.83 479.17 866.83 477.5 843.5 C 475.83 820.17 476.17 772.5 474.5 742.5 C 472.83 712.5 470.5 686.83 467.5 663.5 C 464.5 640.17 460.83 620.17 456.5 602.5 C 452.17 584.83 447.83 572.17 441.5 557.5 C 435.17 542.83 427 528.17 418.5 514.5 C 410 500.83 408.17 494 390.5 475.5 C 372.83 457 334.5 425.17 312.5 403.5 C 290.5 381.83 271.17 360.17 258.5 345.5 C 245.83 330.83 244.67 328.83 236.5 315.5 C 228.33 302.17 213.83 274.67 209.5 265.5 C 205.17 256.33 210.83 261.5 210.5 260.5 C 210.17 259.5 207.83 260.5 207.5 259.5 C 207.17 258.5 210.67 263 208.5 254.5 C 206.33 246 196.83 226.5 194.5 208.5 C 192.17 190.5 193.33 163.67 194.5 146.5 C 195.67 129.33 199 117 201.5 105.5 C 204 94 206.67 84.33 209.5 77.5 C 212.33 70.67 217.33 67.17 218.5 64.5 C 219.67 61.83 226.17 51.83 216.5 61.5 Z"/>
    <path fill="#83bb26" stroke="#83bb26" d="M 448.5 491.5 C 447.17 488.67 423 507.83 419.5 514.5 C 416 521.17 422.67 535.33 427.5 531.5 C 432.33 527.67 449.83 494.33 448.5 491.5 Z M 646.5 38.5 C 634 32.33 642.33 37.83 641.5 38.5 C 640.67 39.17 630.67 33.83 641.5 42.5 C 652.33 51.17 690.17 76.17 706.5 90.5 C 722.83 104.83 728.83 111.67 739.5 128.5 C 750.17 145.33 764.5 177 770.5 191.5 C 776.5 206 774.67 207.5 775.5 215.5 C 776.33 223.5 777.17 229.33 775.5 239.5 C 773.83 249.67 771.67 263.67 765.5 276.5 C 759.33 289.33 748 305 738.5 316.5 C 729 328 718.5 336.83 708.5 345.5 C 698.5 354.17 693.83 358.5 678.5 368.5 C 663.17 378.5 623.17 386.17 616.5 405.5 C 609.83 424.83 634 460.33 638.5 484.5 C 643 508.67 643.17 530.17 643.5 550.5 C 643.83 570.83 634.67 600.5 640.5 606.5 C 646.33 612.5 664.33 595.17 678.5 586.5 C 692.67 577.83 709.5 566.67 725.5 554.5 C 741.5 542.33 762 525 774.5 513.5 C 787 502 792.67 495 800.5 485.5 C 808.33 476 814 468.83 821.5 456.5 C 829 444.17 839.17 425.83 845.5 411.5 C 851.83 397.17 856.17 383.83 859.5 370.5 C 862.83 357.17 864.5 346.33 865.5 331.5 C 866.5 316.67 866.17 294.5 865.5 281.5 C 864.83 268.5 864.5 265 861.5 253.5 C 858.5 242 853.17 225.17 847.5 212.5 C 841.83 199.83 840.67 194.67 827.5 177.5 C 814.33 160.33 787 126.5 768.5 109.5 C 750 92.5 736.83 87.33 716.5 75.5 C 696.17 63.67 659 44.67 646.5 38.5 Z"/>
    <path fill="#6ab12d" stroke="#6ab12d" d="M 638.5 610.5 C 633 602.67 604.17 625 589.5 632.5 C 574.83 640 564.17 646 550.5 655.5 C 536.83 665 518.67 679.17 507.5 689.5 C 496.33 699.83 488.67 709 483.5 717.5 C 478.33 726 478 731.17 476.5 740.5 C 475 749.83 473.83 759.33 474.5 773.5 C 475.17 787.67 476.83 804 480.5 825.5 C 484.17 847 494.17 888.67 496.5 902.5 C 498.83 916.33 494.33 907.5 494.5 908.5 C 494.67 909.5 497.17 909 497.5 908.5 C 497.83 908 487.5 919 496.5 905.5 C 505.5 892 535.17 852.83 551.5 827.5 C 567.83 802.17 582.67 778.17 594.5 753.5 C 606.33 728.83 615.17 703.33 622.5 679.5 C 629.83 655.67 644 618.33 638.5 610.5 Z M 473.5 138.5 C 470.5 139.33 490.67 176 496.5 192.5 C 502.33 209 505.83 225.17 508.5 237.5 C 511.17 249.83 512.33 248.5 512.5 266.5 C 512.67 284.5 511.83 324.17 509.5 345.5 C 507.17 366.83 511.67 364.67 498.5 394.5 C 485.33 424.33 442.33 502.33 430.5 524.5 C 418.67 546.67 429.17 529 427.5 527.5 C 425.83 526 422.17 517.17 420.5 515.5 C 418.83 513.83 415.83 514.33 417.5 517.5 C 419.17 520.67 424.67 538.5 430.5 534.5 C 436.33 530.5 445.5 502.67 452.5 493.5 C 459.5 484.33 462.33 485.5 472.5 479.5 C 482.67 473.5 489.67 468.83 513.5 457.5 C 537.33 446.17 596 411.83 615.5 411.5 C 635 411.17 626.83 442.5 630.5 455.5 C 634.17 468.5 635.67 475.83 637.5 489.5 C 639.33 503.17 640.83 517.83 641.5 537.5 C 642.17 557.17 641 600.67 641.5 607.5 C 642 614.33 644.5 596.5 644.5 578.5 C 644.5 560.5 643.17 519.33 641.5 499.5 C 639.83 479.67 638.17 474.5 634.5 459.5 C 630.83 444.5 630.17 437.67 619.5 409.5 C 608.83 381.33 584.67 322.17 570.5 290.5 C 556.33 258.83 543.83 236.67 534.5 219.5 C 525.17 202.33 524.67 201 514.5 187.5 C 504.33 174 476.5 137.67 473.5 138.5 Z"/>
    <path fill="#009f3a" stroke="#009f3a" d="M 474.5 772.5 C 471.33 764.83 476.33 840.83 478.5 861.5 C 480.67 882.17 485.17 888.83 487.5 896.5 C 489.83 904.17 490.83 905.67 492.5 907.5 C 494.17 909.33 500.5 930 497.5 907.5 C 494.5 885 477.67 780.17 474.5 772.5 Z M 617.5 410.5 C 597.5 411 536 445.17 511.5 456.5 C 487 467.83 480.5 472.67 470.5 478.5 C 460.5 484.33 458.5 482.33 451.5 491.5 C 444.5 500.67 429.33 519.67 428.5 533.5 C 427.67 547.33 441.17 558.67 446.5 574.5 C 451.83 590.33 456.67 608.5 460.5 628.5 C 464.33 648.5 467.33 671.17 469.5 694.5 C 471.67 717.83 471 764.33 473.5 768.5 C 476 772.67 478.5 732.5 484.5 719.5 C 490.5 706.5 496.33 702.17 509.5 690.5 C 522.67 678.83 541.83 662.67 563.5 649.5 C 585.17 636.33 626.33 621.5 639.5 611.5 C 652.67 601.5 642.5 608.83 642.5 589.5 C 642.5 570.17 641.33 518.17 639.5 495.5 C 637.67 472.83 635.17 467.67 631.5 453.5 C 627.83 439.33 637.5 410 617.5 410.5 Z"/>
    <path fill="#007a39" stroke="#007a39" d="M 58.5 535.5 C 57.83 534.67 57.83 540.5 58.5 542.5 C 59.17 544.5 62.5 548.67 62.5 547.5 C 62.5 546.33 59.17 536.33 58.5 535.5 Z M 425.5 533.5 C 421 545.5 406.33 587.83 401.5 605.5 C 396.67 623.17 396.5 625 396.5 639.5 C 396.5 654 396.17 670.17 401.5 692.5 C 406.83 714.83 414.5 740.33 428.5 773.5 C 442.5 806.67 477.67 880 485.5 891.5 C 493.33 903 477.83 870.33 475.5 842.5 C 473.17 814.67 473.67 758.17 471.5 724.5 C 469.33 690.83 466.33 664.5 462.5 640.5 C 458.67 616.5 454.17 598.33 448.5 580.5 C 442.83 562.67 432.33 541.33 428.5 533.5 C 424.67 525.67 430 521.5 425.5 533.5 Z M 235.5 313.5 C 234.17 312.17 234.17 315.5 235.5 317.5 C 236.83 319.5 243.5 326.17 243.5 325.5 C 243.5 324.83 236.83 314.83 235.5 313.5 Z M 207.5 258.5 C 207 258.33 207.83 265 208.5 266.5 C 209.17 268 211.67 268.83 211.5 267.5 C 211.33 266.17 208 258.67 207.5 258.5 Z"/>
    <path fill="#007d38" stroke="#007d38" d="M 232.5 826.5 C 231.83 827 231.5 828.83 232.5 829.5 C 233.5 830.17 237.83 831 238.5 830.5 C 239.17 830 237.5 827.17 236.5 826.5 C 235.5 825.83 233.17 826 232.5 826.5 Z M 456.5 618.5 C 457 622.17 462 643 462.5 643.5 C 463 644 460.5 625.67 459.5 621.5 C 458.5 617.33 456 614.83 456.5 618.5 Z M 417.5 520.5 C 412.83 525.33 400.5 537.83 392.5 549.5 C 384.5 561.17 375 577 369.5 590.5 C 364 604 360.5 615.83 359.5 630.5 C 358.5 645.17 359.33 660.17 363.5 678.5 C 367.67 696.83 375.33 719.5 384.5 740.5 C 393.67 761.5 400.83 777.33 418.5 804.5 C 436.17 831.67 480.33 894 490.5 903.5 C 500.67 913 481.67 866.67 479.5 861.5 C 477.33 856.33 485.83 887.5 477.5 872.5 C 469.17 857.5 442 801.83 429.5 771.5 C 417 741.17 407.83 709.33 402.5 690.5 C 397.17 671.67 397.5 672.33 397.5 658.5 C 397.5 644.67 399.83 622.33 402.5 607.5 C 405.17 592.67 409.33 581 413.5 569.5 C 417.67 558 421.67 536.5 427.5 538.5 C 433.33 540.5 448.17 582 448.5 581.5 C 448.83 581 434.17 545.67 429.5 535.5 C 424.83 525.33 422.5 523 420.5 520.5 C 418.5 518 422.17 515.67 417.5 520.5 Z M 206.5 257.5 C 206 257.33 207.67 265.67 208.5 267.5 C 209.33 269.33 211.83 270.17 211.5 268.5 C 211.17 266.83 207 257.67 206.5 257.5 Z M 112.5 204.5 C 112.33 203.5 109.5 204.33 108.5 205.5 C 107.5 206.67 106.33 210.5 106.5 211.5 C 106.67 212.5 108.5 212.67 109.5 211.5 C 110.5 210.33 112.67 205.5 112.5 204.5 Z"/>
  </g>
</svg>
