<svg xmlns="http://www.w3.org/2000/svg" width="899" height="921" viewBox="0 0 899 921" role="img" aria-labelledby="title desc">
  <title id="title">Nur logo loop frame 086</title>
  <desc id="desc">Vector-traced frame from Nur_Logo_Loop_02.gif.</desc>
  <g id="frame-086" stroke-linejoin="round" stroke-linecap="round" stroke-width="0.5" shape-rendering="geometricPrecision">
    <path fill="#008136" stroke="#008136" d="M 197.5 50.5 C 189.17 60.83 167.33 89.83 150.5 115.5 C 133.67 141.17 108.5 183 96.5 204.5 C 84.5 226 85 227 78.5 244.5 C 72 262 60.83 297 57.5 309.5 C 54.17 322 59 317.17 58.5 319.5 C 58 321.83 56.33 315.5 54.5 323.5 C 52.67 331.5 48.33 359.5 47.5 367.5 C 46.67 375.5 49.67 370.33 49.5 371.5 C 49.33 372.67 47.83 358.67 46.5 374.5 C 45.17 390.33 40.33 437.67 41.5 466.5 C 42.67 495.33 48.5 522.83 53.5 547.5 C 58.5 572.17 64.33 594.17 71.5 614.5 C 78.67 634.83 85.17 649.17 96.5 669.5 C 107.83 689.83 124.17 716 139.5 736.5 C 154.83 757 171.67 776 188.5 792.5 C 205.33 809 222.67 823.17 240.5 835.5 C 258.33 847.83 273.83 856.83 295.5 866.5 C 317.17 876.17 345.83 886.67 370.5 893.5 C 395.17 900.33 423 905.17 443.5 907.5 C 464 909.83 486.67 911.67 493.5 907.5 C 500.33 903.33 487.17 893.17 484.5 882.5 C 481.83 871.83 478.83 857.67 477.5 843.5 C 476.17 829.33 477.33 809.17 476.5 797.5 C 475.67 785.83 472.83 783 472.5 773.5 C 472.17 764 475.33 758.83 474.5 740.5 C 473.67 722.17 470.5 686.5 467.5 663.5 C 464.5 640.5 459.83 617.67 456.5 602.5 C 453.17 587.33 452.33 584.67 447.5 572.5 C 442.67 560.33 435.17 543.5 427.5 529.5 C 419.83 515.5 410.17 499.83 401.5 488.5 C 392.83 477.17 394.83 479.33 375.5 461.5 C 356.17 443.67 307.33 403.17 285.5 381.5 C 263.67 359.83 257.17 348.83 244.5 331.5 C 231.83 314.17 218.67 297.83 209.5 277.5 C 200.33 257.17 193.17 224.83 189.5 209.5 C 185.83 194.17 188.33 189.67 187.5 185.5 C 186.67 181.33 184.83 192.83 184.5 184.5 C 184.17 176.17 182.83 157.33 185.5 135.5 C 188.17 113.67 198.5 67.67 200.5 53.5 C 202.5 39.33 205.83 40.17 197.5 50.5 Z"/>
    <path fill="#83bb26" stroke="#83bb26" d="M 440.5 503.5 C 439.33 501.67 424 513.33 421.5 517.5 C 419 521.67 424.33 526.67 425.5 528.5 C 426.67 530.33 426 532.67 428.5 528.5 C 431 524.33 441.67 505.33 440.5 503.5 Z M 677.5 27.5 C 668 21.83 666 20.17 674.5 29.5 C 683 38.83 713.67 65.33 728.5 83.5 C 743.33 101.67 754.67 121.83 763.5 138.5 C 772.33 155.17 777.83 168.83 781.5 183.5 C 785.17 198.17 786.67 211.5 785.5 226.5 C 784.33 241.5 778 262.5 774.5 273.5 C 771 284.5 769.5 285 764.5 292.5 C 759.5 300 756.33 306.5 744.5 318.5 C 732.67 330.5 713.83 349.5 693.5 364.5 C 673.17 379.5 631 387.17 622.5 408.5 C 614 429.83 638.67 464.33 642.5 492.5 C 646.33 520.67 645.83 557.33 645.5 577.5 C 645.17 597.67 636 610.17 640.5 613.5 C 645 616.83 658.67 605.83 672.5 597.5 C 686.33 589.17 707 575.67 723.5 563.5 C 740 551.33 758.17 536.5 771.5 524.5 C 784.83 512.5 794.5 502 803.5 491.5 C 812.5 481 817.33 475 825.5 461.5 C 833.67 448 845.67 426 852.5 410.5 C 859.33 395 863.17 382.33 866.5 368.5 C 869.83 354.67 871.5 341.5 872.5 327.5 C 873.5 313.5 873.5 298.17 872.5 284.5 C 871.5 270.83 869.83 258.33 866.5 245.5 C 863.17 232.67 858.5 220.33 852.5 207.5 C 846.5 194.67 841.33 184.5 830.5 168.5 C 819.67 152.5 797.5 123.83 787.5 111.5 C 777.5 99.17 779.83 102.5 770.5 94.5 C 761.17 86.5 747 74.67 731.5 63.5 C 716 52.33 687 33.17 677.5 27.5 Z"/>
    <path fill="#6ab12d" stroke="#6ab12d" d="M 489.5 133.5 C 491.83 142.83 503 174.5 507.5 191.5 C 512 208.5 514.33 221.5 516.5 235.5 C 518.67 249.5 520.5 258.5 520.5 275.5 C 520.5 292.5 519.5 318.17 516.5 337.5 C 513.5 356.83 507.33 377.33 502.5 391.5 C 497.67 405.67 499.83 400.33 487.5 422.5 C 475.17 444.67 439.33 508.5 428.5 524.5 C 417.67 540.5 424 519.17 422.5 518.5 C 421 517.83 418.5 518.33 419.5 520.5 C 420.5 522.67 424.67 534.17 428.5 531.5 C 432.33 528.83 435.67 512.33 442.5 504.5 C 449.33 496.67 458.17 491.5 469.5 484.5 C 480.83 477.5 485.17 474.5 510.5 462.5 C 535.83 450.5 600 409.17 621.5 412.5 C 643 415.83 635.67 458.83 639.5 482.5 C 643.33 506.17 644.5 532.67 644.5 554.5 C 644.5 576.33 648.67 599.67 639.5 613.5 C 630.33 627.33 605.83 628.83 589.5 637.5 C 573.17 646.17 555.67 656.17 541.5 665.5 C 527.33 674.83 513.5 686 504.5 693.5 C 495.5 701 491.5 705.5 487.5 710.5 C 483.5 715.5 482.83 717.33 480.5 723.5 C 478.17 729.67 474.17 731.83 473.5 747.5 C 472.83 763.17 472.67 790.67 476.5 817.5 C 480.33 844.33 481.67 910.5 496.5 908.5 C 511.33 906.5 547.83 834.33 565.5 805.5 C 583.17 776.67 592 759 602.5 735.5 C 613 712 621.83 685 628.5 664.5 C 635.17 644 639.5 626.67 642.5 612.5 C 645.5 598.33 645.83 592.17 646.5 579.5 C 647.17 566.83 647.67 555.5 646.5 536.5 C 645.33 517.5 645.5 493.33 639.5 465.5 C 633.5 437.67 621.67 400.33 610.5 369.5 C 599.33 338.67 584.5 306.67 572.5 280.5 C 560.5 254.33 551.67 236.67 538.5 212.5 C 525.33 188.33 501.67 148.67 493.5 135.5 C 485.33 122.33 487.17 124.17 489.5 133.5 Z"/>
    <path fill="#009f3a" stroke="#009f3a" d="M 475.5 803.5 C 472.67 795.67 476.83 846.83 478.5 861.5 C 480.17 876.17 483.17 883.67 485.5 891.5 C 487.83 899.33 490.83 905.67 492.5 908.5 C 494.17 911.33 498.33 926 495.5 908.5 C 492.67 891 478.33 811.33 475.5 803.5 Z M 623.5 411.5 C 602.17 411.83 534.5 449.5 508.5 461.5 C 482.5 473.5 478.67 476.67 467.5 483.5 C 456.33 490.33 448.33 494.67 441.5 502.5 C 434.67 510.33 425.67 518.5 426.5 530.5 C 427.33 542.5 440.5 556.33 446.5 574.5 C 452.5 592.67 458 611.5 462.5 639.5 C 467 667.5 472 719.83 473.5 742.5 C 475 765.17 471.33 766.17 471.5 775.5 C 471.67 784.83 474 802.83 474.5 798.5 C 475 794.17 472.17 763.83 474.5 749.5 C 476.83 735.17 482 722.67 488.5 712.5 C 495 702.33 504.33 696.17 513.5 688.5 C 522.67 680.83 530.5 674.83 543.5 666.5 C 556.5 658.17 575.33 647 591.5 638.5 C 607.67 630 631.5 627.83 640.5 615.5 C 649.5 603.17 645.17 584.17 645.5 564.5 C 645.83 544.83 644 515 642.5 497.5 C 641 480 639.67 473.83 636.5 459.5 C 633.33 445.17 644.83 411.17 623.5 411.5 Z"/>
    <path fill="#007a39" stroke="#007a39" d="M 424.5 531.5 C 418.5 539.17 405.83 578.83 400.5 596.5 C 395.17 614.17 393.83 626.67 392.5 637.5 C 391.17 648.33 391 650.5 392.5 661.5 C 394 672.5 398.17 691.17 401.5 703.5 C 404.83 715.83 399 705.67 412.5 735.5 C 426 765.33 472 864.67 482.5 882.5 C 493 900.33 476.67 855.67 475.5 842.5 C 474.33 829.33 476.17 812.33 475.5 803.5 C 474.83 794.67 472.17 802.67 471.5 789.5 C 470.83 776.33 473 749.33 471.5 724.5 C 470 699.67 466.33 664.5 462.5 640.5 C 458.67 616.5 452.83 595.5 448.5 580.5 C 444.17 565.5 440.5 558.67 436.5 550.5 C 432.5 542.33 430.5 523.83 424.5 531.5 Z M 219.5 295.5 C 218.5 294.67 218.5 298 219.5 299.5 C 220.5 301 225.5 305.17 225.5 304.5 C 225.5 303.83 220.5 296.33 219.5 295.5 Z M 207.5 271.5 C 206.67 271 207.5 277.67 208.5 279.5 C 209.5 281.33 213.67 283.83 213.5 282.5 C 213.33 281.17 208.33 272 207.5 271.5 Z"/>
    <path fill="#007d38" stroke="#007d38" d="M 472.5 796.5 C 472.5 800.5 475 823.83 475.5 824.5 C 476 825.17 476 805.17 475.5 800.5 C 475 795.83 472.5 792.5 472.5 796.5 Z M 470.5 781.5 C 470 781 470 789.33 470.5 791.5 C 471 793.67 473.5 796.17 473.5 794.5 C 473.5 792.83 471 782 470.5 781.5 Z M 115.5 699.5 C 115.83 700.67 129.17 719.83 131.5 722.5 C 133.83 725.17 132.17 719.33 129.5 715.5 C 126.83 711.67 115.17 698.33 115.5 699.5 Z M 417.5 521.5 C 411.67 527 395.83 544.67 387.5 556.5 C 379.17 568.33 372.33 580.83 367.5 592.5 C 362.67 604.17 359.67 613.17 358.5 626.5 C 357.33 639.83 357.67 656.17 360.5 672.5 C 363.33 688.83 368.67 707 375.5 724.5 C 382.33 742 388.33 754.83 401.5 777.5 C 414.67 800.17 439.83 839.83 454.5 860.5 C 469.17 881.17 485.33 901.33 489.5 901.5 C 493.67 901.67 481.67 867.17 479.5 861.5 C 477.33 855.83 486 885.17 476.5 867.5 C 467 849.83 435.83 787.33 422.5 755.5 C 409.17 723.67 401.33 695.83 396.5 676.5 C 391.67 657.17 393.33 649.5 393.5 639.5 C 393.67 629.5 394.33 628.67 397.5 616.5 C 400.67 604.33 407.67 579.83 412.5 566.5 C 417.33 553.17 420.5 534 426.5 536.5 C 432.5 539 447.83 581.33 448.5 581.5 C 449.17 581.67 434.83 547.17 430.5 537.5 C 426.17 527.83 424.67 526.17 422.5 523.5 C 420.33 520.83 423.33 516 417.5 521.5 Z M 413.5 510.5 C 413.5 511.33 417.67 518.83 418.5 519.5 C 419.33 520.17 419.33 516 418.5 514.5 C 417.67 513 413.5 509.67 413.5 510.5 Z M 398.5 487.5 C 396.83 485.83 396.83 489.17 398.5 491.5 C 400.17 493.83 408.5 502.17 408.5 501.5 C 408.5 500.83 400.17 489.17 398.5 487.5 Z M 366.5 456.5 C 365.5 456.17 371.33 463.67 373.5 465.5 C 375.67 467.33 380.67 469 379.5 467.5 C 378.33 466 367.5 456.83 366.5 456.5 Z M 220.5 297.5 C 219.83 297.33 222.33 304.83 223.5 306.5 C 224.67 308.17 228 309 227.5 307.5 C 227 306 221.17 297.67 220.5 297.5 Z M 68.5 280.5 C 68.33 279.83 64.17 285.67 63.5 287.5 C 62.83 289.33 63.67 292.67 64.5 291.5 C 65.33 290.33 68.67 281.17 68.5 280.5 Z M 96.5 208.5 C 95.83 209 91.67 217.33 91.5 218.5 C 91.33 219.67 94.67 217.17 95.5 215.5 C 96.33 213.83 97.17 208 96.5 208.5 Z M 184.5 181.5 C 183.83 181.17 183 186.17 183.5 187.5 C 184 188.83 187.33 190.5 187.5 189.5 C 187.67 188.5 185.17 181.83 184.5 181.5 Z M 165.5 96.5 C 164.33 97.33 156.83 107.33 156.5 108.5 C 156.17 109.67 162 105.5 163.5 103.5 C 165 101.5 166.67 95.67 165.5 96.5 Z M 181.5 73.5 C 180.83 73.67 172.5 84.5 171.5 86.5 C 170.5 88.5 173.83 87.67 175.5 85.5 C 177.17 83.33 182.17 73.33 181.5 73.5 Z"/>
  </g>
</svg>
