<svg xmlns="http://www.w3.org/2000/svg" width="899" height="921" viewBox="0 0 899 921" role="img" aria-labelledby="title desc">
  <title id="title">Nur logo loop frame 026</title>
  <desc id="desc">Vector-traced frame from Nur_Logo_Loop_02.gif.</desc>
  <g id="frame-026" stroke-linejoin="round" stroke-linecap="round" stroke-width="0.5" shape-rendering="geometricPrecision">
    <path fill="#008136" stroke="#008136" d="M 252.5 87.5 C 241.33 94.33 205.67 115.33 188.5 128.5 C 171.33 141.67 161.83 151.67 149.5 166.5 C 137.17 181.33 125.17 197.83 114.5 217.5 C 103.83 237.17 93.17 263 85.5 284.5 C 77.83 306 73.5 322 68.5 346.5 C 63.5 371 57.33 403.83 55.5 431.5 C 53.67 459.17 54.5 483.33 57.5 512.5 C 60.5 541.67 66.67 580.83 73.5 606.5 C 80.33 632.17 86.5 644 98.5 666.5 C 110.5 689 130.67 720.83 145.5 741.5 C 160.33 762.17 171.17 774.5 187.5 790.5 C 203.83 806.5 225.5 824.83 243.5 837.5 C 261.5 850.17 274.33 857.17 295.5 866.5 C 316.67 875.83 345.83 886.67 370.5 893.5 C 395.17 900.33 423 905.17 443.5 907.5 C 464 909.83 487 913 493.5 907.5 C 500 902 485.17 885.33 482.5 874.5 C 479.83 863.67 478.83 863.5 477.5 842.5 C 476.17 821.5 476.17 778.33 474.5 748.5 C 472.83 718.67 470.5 687.83 467.5 663.5 C 464.5 639.17 460.83 620.17 456.5 602.5 C 452.17 584.83 450.67 576.5 441.5 557.5 C 432.33 538.5 427.83 519 401.5 488.5 C 375.17 458 311.17 404.17 283.5 374.5 C 255.83 344.83 246.17 326.67 235.5 310.5 C 224.83 294.33 223.33 289.67 219.5 277.5 C 215.67 265.33 214.17 244.33 212.5 237.5 C 210.83 230.67 210 241.17 209.5 236.5 C 209 231.83 209 214.17 209.5 209.5 C 210 204.83 209.83 219.83 212.5 208.5 C 215.17 197.17 218.33 161.67 225.5 141.5 C 232.67 121.33 251 96.5 255.5 87.5 C 260 78.5 263.67 80.67 252.5 87.5 Z"/>
    <path fill="#83bb26" stroke="#83bb26" d="M 463.5 468.5 C 466.17 460.33 451.5 474.67 443.5 481.5 C 435.5 488.33 418.17 501.33 415.5 509.5 C 412.83 517.67 419.5 537.33 427.5 530.5 C 435.5 523.67 460.83 476.67 463.5 468.5 Z M 681.5 90.5 C 668.67 89.67 646.83 90.83 636.5 91.5 C 626.17 92.17 622.33 93.5 619.5 94.5 C 616.67 95.5 610.33 96.5 619.5 97.5 C 628.67 98.5 660.67 98.5 674.5 100.5 C 688.33 102.5 694 105.67 702.5 109.5 C 711 113.33 719.17 118.33 725.5 123.5 C 731.83 128.67 736.67 134.5 740.5 140.5 C 744.33 146.5 746.17 151.33 748.5 159.5 C 750.83 167.67 753.33 179.17 754.5 189.5 C 755.67 199.83 756.67 208.5 755.5 221.5 C 754.33 234.5 751.17 254.83 747.5 267.5 C 743.83 280.17 738.33 289 733.5 297.5 C 728.67 306 728.33 308.33 718.5 318.5 C 708.67 328.67 691.5 346.17 674.5 358.5 C 657.5 370.83 621.33 369.33 616.5 392.5 C 611.67 415.67 640 474.67 645.5 497.5 C 651 520.33 649 515 649.5 529.5 C 650 544 643.5 578.17 648.5 584.5 C 653.5 590.83 667.17 575.5 679.5 567.5 C 691.83 559.5 711 545.33 722.5 536.5 C 734 527.67 736.67 526.17 748.5 514.5 C 760.33 502.83 782.17 480.33 793.5 466.5 C 804.83 452.67 810.33 442.17 816.5 431.5 C 822.67 420.83 826.33 413.17 830.5 402.5 C 834.67 391.83 838.83 378.83 841.5 367.5 C 844.17 356.17 845.67 349.83 846.5 334.5 C 847.33 319.17 847.33 290.33 846.5 275.5 C 845.67 260.67 844.67 256.67 841.5 245.5 C 838.33 234.33 832.67 219.5 827.5 208.5 C 822.33 197.5 818 190.17 810.5 179.5 C 803 168.83 793.67 156 782.5 144.5 C 771.33 133 755 118.5 743.5 110.5 C 732 102.5 723.83 99.83 713.5 96.5 C 703.17 93.17 694.33 91.33 681.5 90.5 Z"/>
    <path fill="#6ab12d" stroke="#6ab12d" d="M 638.5 590.5 C 632 580 595.83 609.33 580.5 617.5 C 565.17 625.67 560.83 627.83 546.5 639.5 C 532.17 651.17 506 675.67 494.5 687.5 C 483 699.33 480.83 704.5 477.5 710.5 C 474.17 716.5 474.83 711.83 474.5 723.5 C 474.17 735.17 472.5 754.67 475.5 780.5 C 478.5 806.33 491.33 865 492.5 878.5 C 493.67 892 484.5 863 482.5 861.5 C 480.5 860 478.67 861.83 480.5 869.5 C 482.33 877.17 489.83 902.5 493.5 907.5 C 497.17 912.5 494.67 910 502.5 899.5 C 510.33 889 525.5 868.17 540.5 844.5 C 555.5 820.83 579.33 784.83 592.5 757.5 C 605.67 730.17 611.83 708.33 619.5 680.5 C 627.17 652.67 645 601 638.5 590.5 Z M 439.5 164.5 C 434.5 162.83 436.83 165.67 440.5 168.5 C 444.17 171.33 455.17 176.5 461.5 181.5 C 467.83 186.5 472.33 189.67 478.5 198.5 C 484.67 207.33 494 221.83 498.5 234.5 C 503 247.17 504.33 251 505.5 274.5 C 506.67 298 506 355.33 505.5 375.5 C 505 395.67 504.83 388.33 502.5 395.5 C 500.17 402.67 503.67 396.83 491.5 418.5 C 479.33 440.17 440.33 507.5 429.5 525.5 C 418.67 543.5 428.67 529 426.5 526.5 C 424.33 524 418.5 512.67 416.5 510.5 C 414.5 508.33 412.17 508.67 414.5 513.5 C 416.83 518.33 427.17 535.17 430.5 539.5 C 433.83 543.83 430.5 546.33 434.5 539.5 C 438.5 532.67 446.67 512.17 454.5 498.5 C 462.33 484.83 454.83 474.5 481.5 457.5 C 508.17 440.5 589.67 399.17 614.5 396.5 C 639.33 393.83 625.67 425.17 630.5 441.5 C 635.33 457.83 640.5 478.67 643.5 494.5 C 646.5 510.33 647.67 521.17 648.5 536.5 C 649.33 551.83 648.17 588 648.5 586.5 C 648.83 585 650.83 542.67 650.5 527.5 C 650.17 512.33 651.83 517.67 646.5 495.5 C 641.17 473.33 625.17 411 618.5 394.5 C 611.83 378 615.33 414.33 606.5 396.5 C 597.67 378.67 581.67 319 565.5 287.5 C 549.33 256 525.33 225.67 509.5 207.5 C 493.67 189.33 482.17 185.67 470.5 178.5 C 458.83 171.33 444.5 166.17 439.5 164.5 Z"/>
    <path fill="#009f3a" stroke="#009f3a" d="M 616.5 395.5 C 595.5 396 528.33 432.33 505.5 442.5 C 482.67 452.67 488.17 447.5 479.5 456.5 C 470.83 465.5 461.33 482.83 453.5 496.5 C 445.67 510.17 437.17 533 432.5 538.5 C 427.83 544 423.17 523.5 425.5 529.5 C 427.83 535.5 440.67 558 446.5 574.5 C 452.33 591 456.33 604.5 460.5 628.5 C 464.67 652.5 468.33 678.83 471.5 718.5 C 474.67 758.17 477.5 841.83 479.5 866.5 C 481.5 891.17 483.33 866.17 483.5 866.5 C 483.67 866.83 480.67 866.33 480.5 868.5 C 480.33 870.67 482 879.67 482.5 879.5 C 483 879.33 481.83 866.33 483.5 867.5 C 485.17 868.67 490.5 883.83 492.5 886.5 C 494.5 889.17 497 893.5 495.5 883.5 C 494 873.5 486.83 846 483.5 826.5 C 480.17 807 476.83 783.33 475.5 766.5 C 474.17 749.67 474.5 735.5 475.5 725.5 C 476.5 715.5 473 717.67 481.5 706.5 C 490 695.33 515.33 669.5 526.5 658.5 C 537.67 647.5 539.17 647.17 548.5 640.5 C 557.83 633.83 566 627.5 582.5 618.5 C 599 609.5 636.33 600.5 647.5 586.5 C 658.67 572.5 650 550.17 649.5 534.5 C 649 518.83 647.5 508.33 644.5 492.5 C 641.5 476.67 636.17 455.67 631.5 439.5 C 626.83 423.33 637.5 395 616.5 395.5 Z"/>
    <path fill="#007a39" stroke="#007a39" d="M 431.5 545.5 C 427.17 555.83 414.33 592.5 410.5 612.5 C 406.67 632.5 407.67 650.33 408.5 665.5 C 409.33 680.67 411.83 690.17 415.5 703.5 C 419.17 716.83 420.5 722.17 430.5 745.5 C 440.5 768.83 468.67 847 475.5 843.5 C 482.33 840 473.67 758.33 471.5 724.5 C 469.33 690.67 466.33 664.5 462.5 640.5 C 458.67 616.5 452.83 595.5 448.5 580.5 C 444.17 565.5 439.33 556.33 436.5 550.5 C 433.67 544.67 435.83 535.17 431.5 545.5 Z M 209.5 230.5 C 209 230.33 208.17 236.17 208.5 237.5 C 208.83 238.83 211.33 239.67 211.5 238.5 C 211.67 237.33 210 230.67 209.5 230.5 Z M 209.5 207.5 C 209 207.33 208.17 213.17 208.5 214.5 C 208.83 215.83 211.33 216.67 211.5 215.5 C 211.67 214.33 210 207.67 209.5 207.5 Z M 223.5 108.5 C 224.17 107.5 220.83 107.5 219.5 108.5 C 218.17 109.5 214.83 114.5 215.5 114.5 C 216.17 114.5 222.83 109.5 223.5 108.5 Z"/>
    <path fill="#007d38" stroke="#007d38" d="M 92.5 650.5 C 91.5 649.83 91.5 653.17 92.5 654.5 C 93.5 655.83 98.5 659.17 98.5 658.5 C 98.5 657.83 93.5 651.17 92.5 650.5 Z M 410.5 506.5 C 408 503.17 418 505.17 413.5 513.5 C 409 521.83 391.17 543 383.5 556.5 C 375.83 570 371.33 582.67 367.5 594.5 C 363.67 606.33 361 613.83 360.5 627.5 C 360 641.17 361.83 661.67 364.5 676.5 C 367.17 691.33 370.17 700.5 376.5 716.5 C 382.83 732.5 391.17 752.33 402.5 772.5 C 413.83 792.67 430.5 817.5 444.5 837.5 C 458.5 857.5 481.17 890.33 486.5 892.5 C 491.83 894.67 478.17 860.33 476.5 850.5 C 474.83 840.67 477 835.5 476.5 833.5 C 476 831.5 479.5 849.67 473.5 838.5 C 467.5 827.33 450 789.33 440.5 766.5 C 431 743.67 421.83 720.5 416.5 701.5 C 411.17 682.5 409.33 667 408.5 652.5 C 407.67 638 407.5 632 411.5 614.5 C 415.5 597 426.67 553 432.5 547.5 C 438.33 542 443.83 576.17 446.5 581.5 C 449.17 586.83 451.5 587.5 448.5 579.5 C 445.5 571.5 434.83 545.67 428.5 533.5 C 422.17 521.33 413 509.83 410.5 506.5 Z M 67.5 362.5 C 66.83 363 64.33 369.67 64.5 370.5 C 64.67 371.33 68 368.83 68.5 367.5 C 69 366.17 68.17 362 67.5 362.5 Z M 200.5 122.5 C 200 122.33 191.67 128.17 190.5 129.5 C 189.33 130.83 191.83 131.67 193.5 130.5 C 195.17 129.33 201 122.67 200.5 122.5 Z"/>
  </g>
</svg>
