<svg xmlns="http://www.w3.org/2000/svg" width="899" height="921" viewBox="0 0 899 921" role="img" aria-labelledby="title desc">
  <title id="title">Nur logo loop frame 028</title>
  <desc id="desc">Vector-traced frame from Nur_Logo_Loop_02.gif.</desc>
  <g id="frame-028" stroke-linejoin="round" stroke-linecap="round" stroke-width="0.5" shape-rendering="geometricPrecision">
    <path fill="#008136" stroke="#008136" d="M 246.5 83.5 C 235.33 90.17 199.83 110.83 182.5 125.5 C 165.17 140.17 154.67 154.83 142.5 171.5 C 130.33 188.17 119.83 204.17 109.5 225.5 C 99.17 246.83 88 276.83 80.5 299.5 C 73 322.17 69 339.5 64.5 361.5 C 60 383.5 55 406 53.5 431.5 C 52 457 54 492 55.5 514.5 C 57 537 60.83 557.33 62.5 566.5 C 64.17 575.67 65.17 567.83 65.5 569.5 C 65.83 571.17 64.17 575.17 64.5 576.5 C 64.83 577.83 67.33 576.67 67.5 577.5 C 67.67 578.33 64.83 576.67 65.5 581.5 C 66.17 586.33 70 602.17 71.5 606.5 C 73 610.83 74.17 606.33 74.5 607.5 C 74.83 608.67 68.33 601 73.5 613.5 C 78.67 626 93.67 661.17 105.5 682.5 C 117.33 703.83 129.17 721.83 144.5 741.5 C 159.83 761.17 181 784.5 197.5 800.5 C 214 816.5 227.17 826.5 243.5 837.5 C 259.83 848.5 274.33 857.17 295.5 866.5 C 316.67 875.83 345.83 886.67 370.5 893.5 C 395.17 900.33 423 905.17 443.5 907.5 C 464 909.83 486.67 911.67 493.5 907.5 C 500.33 903.33 487.17 893.17 484.5 882.5 C 481.83 871.83 479.17 867 477.5 843.5 C 475.83 820 476.17 771.5 474.5 741.5 C 472.83 711.5 470.5 686.67 467.5 663.5 C 464.5 640.33 460.83 620.17 456.5 602.5 C 452.17 584.83 448.5 573.17 441.5 557.5 C 434.5 541.83 423 522.17 414.5 508.5 C 406 494.83 407.5 493 390.5 475.5 C 373.5 458 334.33 425.17 312.5 403.5 C 290.67 381.83 272.33 361.67 259.5 345.5 C 246.67 329.33 242.33 319.17 235.5 306.5 C 228.67 293.83 222.17 282.83 218.5 269.5 C 214.83 256.17 215 234.5 213.5 226.5 C 212 218.5 208.67 234.83 209.5 221.5 C 210.33 208.17 214.5 165.17 218.5 146.5 C 222.5 127.83 228.33 119.67 233.5 109.5 C 238.67 99.33 247.33 89.83 249.5 85.5 C 251.67 81.17 257.67 76.83 246.5 83.5 Z"/>
    <path fill="#83bb26" stroke="#83bb26" d="M 460.5 471.5 C 463 463.67 449.67 477.5 442.5 483.5 C 435.33 489.5 421.83 502.33 417.5 507.5 C 413.17 512.67 414.83 510.67 416.5 514.5 C 418.17 518.33 420.17 537.67 427.5 530.5 C 434.83 523.33 458 479.33 460.5 471.5 Z M 620.5 68.5 C 613 68.5 611.5 70.33 615.5 71.5 C 619.5 72.67 633.83 72.67 644.5 75.5 C 655.17 78.33 666.67 81.67 679.5 88.5 C 692.33 95.33 712 109.17 721.5 116.5 C 731 123.83 732.5 127.17 736.5 132.5 C 740.5 137.83 742.5 140.83 745.5 148.5 C 748.5 156.17 752.5 169.5 754.5 178.5 C 756.5 187.5 757.5 189.5 757.5 202.5 C 757.5 215.5 756.5 243.33 754.5 256.5 C 752.5 269.67 749.33 273.33 745.5 281.5 C 741.67 289.67 740.67 294.5 731.5 305.5 C 722.33 316.5 704 335.83 690.5 347.5 C 677 359.17 664 367.17 650.5 375.5 C 637 383.83 613.83 387.33 609.5 397.5 C 605.17 407.67 619.67 421 624.5 436.5 C 629.33 452 635.17 473.33 638.5 490.5 C 641.83 507.67 643.5 522.67 644.5 539.5 C 645.5 556.33 635 588.67 644.5 591.5 C 654 594.33 684.67 568 701.5 556.5 C 718.33 545 731.83 534.33 745.5 522.5 C 759.17 510.67 772.67 497.83 783.5 485.5 C 794.33 473.17 802.67 461.17 810.5 448.5 C 818.33 435.83 825 422.67 830.5 409.5 C 836 396.33 840.5 381.5 843.5 369.5 C 846.5 357.5 847.5 352.33 848.5 337.5 C 849.5 322.67 850 295.33 849.5 280.5 C 849 265.67 849.17 261.67 845.5 248.5 C 841.83 235.33 834.83 216 827.5 201.5 C 820.17 187 812.33 175.33 801.5 161.5 C 790.67 147.67 772.67 128.5 762.5 118.5 C 752.33 108.5 750.17 107.33 740.5 101.5 C 730.83 95.67 717.83 88.5 704.5 83.5 C 691.17 78.5 674.5 74 660.5 71.5 C 646.5 69 628 68.5 620.5 68.5 Z"/>
    <path fill="#6ab12d" stroke="#6ab12d" d="M 636.5 595.5 C 630.67 586.83 601.33 610.33 587.5 617.5 C 573.67 624.67 564 631.17 553.5 638.5 C 543 645.83 534 653 524.5 661.5 C 515 670 504 681 496.5 689.5 C 489 698 483 704.5 479.5 712.5 C 476 720.5 476 725.83 475.5 737.5 C 475 749.17 473 755.67 476.5 782.5 C 480 809.33 495.17 883 496.5 898.5 C 497.83 914 486.83 878.83 484.5 875.5 C 482.17 872.17 481 873.17 482.5 878.5 C 484 883.83 490.83 903 493.5 907.5 C 496.17 912 490.67 916 498.5 905.5 C 506.33 895 524.83 869.17 540.5 844.5 C 556.17 819.83 578.83 786.67 592.5 757.5 C 606.17 728.33 615.17 696.5 622.5 669.5 C 629.83 642.5 642.33 604.17 636.5 595.5 Z M 446.5 160.5 C 445.83 162.5 472.33 182.83 481.5 195.5 C 490.67 208.17 497.17 223.67 501.5 236.5 C 505.83 249.33 506.5 252.83 507.5 272.5 C 508.5 292.17 508.5 333.67 507.5 354.5 C 506.5 375.33 514.5 369 501.5 397.5 C 488.5 426 442 504 429.5 525.5 C 417 547 428.5 529 426.5 526.5 C 424.5 524 419.5 512.83 417.5 510.5 C 415.5 508.17 412.67 508.33 414.5 512.5 C 416.33 516.67 425.5 531.5 428.5 535.5 C 431.5 539.5 425.33 548 432.5 536.5 C 439.67 525 459.33 481.5 471.5 466.5 C 483.67 451.5 482.5 457.5 505.5 446.5 C 528.5 435.5 589.5 400.83 609.5 400.5 C 629.5 400.17 621 430 625.5 444.5 C 630 459 633.5 470.67 636.5 487.5 C 639.5 504.33 642.5 528 643.5 545.5 C 644.5 563 642.17 594.17 642.5 592.5 C 642.83 590.83 646.83 556.67 645.5 535.5 C 644.17 514.33 639.83 488.33 634.5 465.5 C 629.17 442.67 618.17 410 613.5 398.5 C 608.83 387 614.5 414.5 606.5 396.5 C 598.5 378.5 581.17 322.33 565.5 290.5 C 549.83 258.67 525.83 223.33 512.5 205.5 C 499.17 187.67 496.5 191 485.5 183.5 C 474.5 176 447.17 158.5 446.5 160.5 Z"/>
    <path fill="#009f3a" stroke="#009f3a" d="M 611.5 399.5 C 589.83 395.83 527.17 434.5 503.5 445.5 C 479.83 456.5 481.67 450.67 469.5 465.5 C 457.33 480.33 437.83 523.83 430.5 534.5 C 423.17 545.17 422.83 522.83 425.5 529.5 C 428.17 536.17 440.33 556.17 446.5 574.5 C 452.67 592.83 458 611.33 462.5 639.5 C 467 667.67 471.17 709.17 473.5 743.5 C 475.83 777.83 475.33 824 476.5 845.5 C 477.67 867 479 866.67 480.5 872.5 C 482 878.33 485 878.5 485.5 880.5 C 486 882.5 483 883.5 483.5 884.5 C 484 885.5 488.17 885.33 488.5 886.5 C 488.83 887.67 484.83 888 485.5 891.5 C 486.17 895 491 905.17 492.5 907.5 C 494 909.83 495.17 907.67 494.5 905.5 C 493.83 903.33 489.5 897.5 488.5 894.5 C 487.5 891.5 487 885.83 488.5 887.5 C 490 889.17 495.5 902.33 497.5 904.5 C 499.5 906.67 503.83 921.17 500.5 900.5 C 497.17 879.83 481.5 807.33 477.5 780.5 C 473.5 753.67 476 750.5 476.5 739.5 C 477 728.5 477 722.5 480.5 714.5 C 484 706.5 487 702.5 497.5 691.5 C 508 680.5 528.17 660.67 543.5 648.5 C 558.83 636.33 573.83 627.17 589.5 618.5 C 605.17 609.83 628.67 601.33 637.5 596.5 C 646.33 591.67 641.33 598.33 642.5 589.5 C 643.67 580.67 644.83 557.83 644.5 543.5 C 644.17 529.17 642.33 516.17 640.5 503.5 C 638.67 490.83 638.33 484.83 633.5 467.5 C 628.67 450.17 633.17 403.17 611.5 399.5 Z"/>
    <path fill="#007a39" stroke="#007a39" d="M 429.5 541.5 C 424.67 551.67 411.83 595.17 407.5 611.5 C 403.17 627.83 403.5 627.83 403.5 639.5 C 403.5 651.17 405.33 668.5 407.5 681.5 C 409.67 694.5 411.17 701.17 416.5 717.5 C 421.83 733.83 429.67 756 439.5 779.5 C 449.33 803 469 845.17 475.5 858.5 C 482 871.83 479.17 881.83 478.5 859.5 C 477.83 837.17 474.17 761 471.5 724.5 C 468.83 688 466.33 664.5 462.5 640.5 C 458.67 616.5 452.83 595.5 448.5 580.5 C 444.17 565.5 439.67 557 436.5 550.5 C 433.33 544 434.33 531.33 429.5 541.5 Z M 259.5 345.5 C 258.67 345.17 261.17 351.83 262.5 353.5 C 263.83 355.17 268 356.83 267.5 355.5 C 267 354.17 260.33 345.83 259.5 345.5 Z M 208.5 213.5 C 208 215 208 221 208.5 222.5 C 209 224 211 224 211.5 222.5 C 212 221 212 215 211.5 213.5 C 211 212 209 212 208.5 213.5 Z M 247.5 86.5 C 248 85.17 245.5 85.17 244.5 86.5 C 243.5 87.83 241 94.5 241.5 94.5 C 242 94.5 247 87.83 247.5 86.5 Z"/>
    <path fill="#007d38" stroke="#007d38" d="M 189.5 790.5 C 189.83 791.33 202.33 803 204.5 804.5 C 206.67 806 205 801.83 202.5 799.5 C 200 797.17 189.17 789.67 189.5 790.5 Z M 63.5 564.5 C 63.33 566.67 64.67 577 65.5 579.5 C 66.33 582 68.33 581.67 68.5 579.5 C 68.67 577.33 67.33 569 66.5 566.5 C 65.67 564 63.67 562.33 63.5 564.5 Z M 414.5 514.5 C 408.17 516.83 397.83 535 390.5 547.5 C 383.17 560 375.17 577 370.5 589.5 C 365.83 602 363.67 609.67 362.5 622.5 C 361.33 635.33 361.83 652.83 363.5 666.5 C 365.17 680.17 368.33 691.5 372.5 704.5 C 376.67 717.5 378 724.67 388.5 744.5 C 399 764.33 419.33 799.17 435.5 823.5 C 451.67 847.83 478.33 885.5 485.5 890.5 C 492.67 895.5 480.17 859.83 478.5 853.5 C 476.83 847.17 475.83 855.83 475.5 852.5 C 475.17 849.17 476.67 834 476.5 833.5 C 476.33 833 482 862.67 474.5 849.5 C 467 836.33 442.5 782.83 431.5 754.5 C 420.5 726.17 413 696.5 408.5 679.5 C 404 662.5 404.5 663.5 404.5 652.5 C 404.5 641.5 406.33 625.83 408.5 613.5 C 410.67 601.17 413.83 589.83 417.5 578.5 C 421.17 567.17 425.33 545 430.5 545.5 C 435.67 546 448.83 583.5 448.5 581.5 C 448.17 579.5 434.17 544.67 428.5 533.5 C 422.83 522.33 420.83 512.17 414.5 514.5 Z M 125.5 202.5 C 125.83 201.5 122.5 202.33 121.5 203.5 C 120.5 204.67 118.83 209.67 119.5 209.5 C 120.17 209.33 125.17 203.5 125.5 202.5 Z M 220.5 144.5 C 220.67 143 218.17 143 217.5 144.5 C 216.83 146 216 153.5 216.5 153.5 C 217 153.5 220.33 146 220.5 144.5 Z M 188.5 122.5 C 187.17 123.17 180.5 129 180.5 129.5 C 180.5 130 187.17 126.67 188.5 125.5 C 189.83 124.33 189.83 121.83 188.5 122.5 Z M 245.5 88.5 C 244.67 89 238 98.17 237.5 99.5 C 237 100.83 241.17 98.33 242.5 96.5 C 243.83 94.67 246.33 88 245.5 88.5 Z"/>
  </g>
</svg>
