<svg xmlns="http://www.w3.org/2000/svg" width="899" height="921" viewBox="0 0 899 921" role="img" aria-labelledby="title desc">
  <title id="title">Nur logo loop frame 011</title>
  <desc id="desc">Vector-traced frame from Nur_Logo_Loop_02.gif.</desc>
  <g id="frame-011" stroke-linejoin="round" stroke-linecap="round" stroke-width="0.5" shape-rendering="geometricPrecision">
    <path fill="#008136" stroke="#008136" d="M 219.5 69.5 C 210.67 77 179.5 107.17 168.5 118.5 C 157.5 129.83 165.67 118 153.5 137.5 C 141.33 157 109.17 207.67 95.5 235.5 C 81.83 263.33 77.83 280.17 71.5 304.5 C 65.17 328.83 60.67 356.83 57.5 381.5 C 54.33 406.17 52.5 429.83 52.5 452.5 C 52.5 475.17 53.67 492.17 57.5 517.5 C 61.33 542.83 68.67 580.5 75.5 604.5 C 82.33 628.5 87.17 639.5 98.5 661.5 C 109.83 683.5 129 715.5 143.5 736.5 C 158 757.5 170.17 771.67 185.5 787.5 C 200.83 803.33 217.17 818.33 235.5 831.5 C 253.83 844.67 275.33 856.83 295.5 866.5 C 315.67 876.17 334.5 883 356.5 889.5 C 378.5 896 404.5 902.5 427.5 905.5 C 450.5 908.5 485 911.33 494.5 907.5 C 504 903.67 487.33 893.17 484.5 882.5 C 481.67 871.83 479.17 867 477.5 843.5 C 475.83 820 476.67 774.83 474.5 741.5 C 472.33 708.17 467.5 666.67 464.5 643.5 C 461.5 620.33 460.33 616.83 456.5 602.5 C 452.67 588.17 447.83 572.17 441.5 557.5 C 435.17 542.83 427 528.17 418.5 514.5 C 410 500.83 408.17 494 390.5 475.5 C 372.83 457 332.17 422.5 312.5 403.5 C 292.83 384.5 286.67 378.83 272.5 361.5 C 258.33 344.17 237.5 316 227.5 299.5 C 217.5 283 215.5 268.83 212.5 262.5 C 209.5 256.17 210.67 265.17 209.5 261.5 C 208.33 257.83 207 245.17 205.5 240.5 C 204 235.83 202 239.33 200.5 233.5 C 199 227.67 197.67 210.5 196.5 205.5 C 195.33 200.5 193.5 204 193.5 203.5 C 193.5 203 195.33 216.67 196.5 202.5 C 197.67 188.33 199.33 132.67 200.5 118.5 C 201.67 104.33 202 122 203.5 117.5 C 205 113 206.5 98.83 209.5 91.5 C 212.5 84.17 219.83 77.17 221.5 73.5 C 223.17 69.83 228.33 62 219.5 69.5 Z"/>
    <path fill="#83bb26" stroke="#83bb26" d="M 450.5 488.5 C 449 485.83 422.33 507.5 418.5 514.5 C 414.67 521.5 422.17 534.83 427.5 530.5 C 432.83 526.17 452 491.17 450.5 488.5 Z M 630.5 44.5 C 626.5 44 619.33 40.67 630.5 48.5 C 641.67 56.33 681.5 80 697.5 91.5 C 713.5 103 716.17 104 726.5 117.5 C 736.83 131 751.83 156.33 759.5 172.5 C 767.17 188.67 770.33 202.83 772.5 214.5 C 774.67 226.17 774.33 231.67 772.5 242.5 C 770.67 253.33 766.33 268.67 761.5 279.5 C 756.67 290.33 754.33 295.33 743.5 307.5 C 732.67 319.67 711.17 340.17 696.5 352.5 C 681.83 364.83 669.33 372.67 655.5 381.5 C 641.67 390.33 617.83 393.17 613.5 405.5 C 609.17 417.83 625.67 441.5 629.5 455.5 C 633.33 469.5 634.5 473.17 636.5 489.5 C 638.5 505.83 640.83 534.17 641.5 553.5 C 642.17 572.83 633.17 601.17 640.5 605.5 C 647.83 609.83 668.5 590.67 685.5 579.5 C 702.5 568.33 726.67 551 742.5 538.5 C 758.33 526 769.17 516.17 780.5 504.5 C 791.83 492.83 801.5 481 810.5 468.5 C 819.5 456 827.17 444.17 834.5 429.5 C 841.83 414.83 849.83 395.33 854.5 380.5 C 859.17 365.67 861 356.67 862.5 340.5 C 864 324.33 864.33 299.33 863.5 283.5 C 862.67 267.67 861.83 260 857.5 245.5 C 853.17 231 844.33 209.67 837.5 196.5 C 830.67 183.33 826.83 179.33 816.5 166.5 C 806.17 153.67 792.83 134 775.5 119.5 C 758.17 105 732.67 90.83 712.5 79.5 C 692.33 68.17 668.17 57.33 654.5 51.5 C 640.83 45.67 634.5 45 630.5 44.5 Z"/>
    <path fill="#6ab12d" stroke="#6ab12d" d="M 637.5 608.5 C 630.83 601.83 598 626 583.5 633.5 C 569 641 563 644.5 550.5 653.5 C 538 662.5 519.83 676.67 508.5 687.5 C 497.17 698.33 488.17 708.33 482.5 718.5 C 476.83 728.67 475.67 735.5 474.5 748.5 C 473.33 761.5 472 770.83 475.5 796.5 C 479 822.17 492.5 883.83 495.5 902.5 C 498.5 921.17 493.17 907.67 493.5 908.5 C 493.83 909.33 489.67 918.17 497.5 907.5 C 505.33 896.83 524.33 870.17 540.5 844.5 C 556.67 818.83 580.67 782 594.5 753.5 C 608.33 725 616.33 697.67 623.5 673.5 C 630.67 649.33 644.17 615.17 637.5 608.5 Z M 465.5 140.5 C 459.67 137.5 482.83 170.33 489.5 186.5 C 496.17 202.67 502 222.33 505.5 237.5 C 509 252.67 510.17 258.83 510.5 277.5 C 510.83 296.17 509.5 330 507.5 349.5 C 505.5 369 511.33 365.33 498.5 394.5 C 485.67 423.67 442.33 502.33 430.5 524.5 C 418.67 546.67 429.17 529 427.5 527.5 C 425.83 526 422.17 517.17 420.5 515.5 C 418.83 513.83 416.5 514.67 417.5 517.5 C 418.5 520.33 424.33 530 426.5 532.5 C 428.67 535 426.67 538.67 430.5 532.5 C 434.33 526.33 442.17 504.83 449.5 495.5 C 456.83 486.17 464.5 482.83 474.5 476.5 C 484.5 470.17 486.5 468.33 509.5 457.5 C 532.5 446.67 592.83 412 612.5 411.5 C 632.17 411 623.67 440.83 627.5 454.5 C 631.33 468.17 633.5 478.67 635.5 493.5 C 637.5 508.33 638.83 524.67 639.5 543.5 C 640.17 562.33 639 605.17 639.5 606.5 C 640 607.83 643 572.5 642.5 551.5 C 642 530.5 639.67 500.83 636.5 480.5 C 633.33 460.17 629.33 448.33 623.5 429.5 C 617.67 410.67 610.83 391.17 601.5 367.5 C 592.17 343.83 580.33 314.67 567.5 287.5 C 554.67 260.33 541.5 229 524.5 204.5 C 507.5 180 471.33 143.5 465.5 140.5 Z"/>
    <path fill="#009f3a" stroke="#009f3a" d="M 474.5 793.5 C 474.67 804.5 476.33 844.33 478.5 861.5 C 480.67 878.67 485.17 889 487.5 896.5 C 489.83 904 491.17 904.83 492.5 906.5 C 493.83 908.17 498 925 495.5 906.5 C 493 888 481 814.33 477.5 795.5 C 474 776.67 474.33 782.5 474.5 793.5 Z M 614.5 409.5 C 594.33 410.17 531.17 445.5 507.5 456.5 C 483.83 467.5 482.33 469.33 472.5 475.5 C 462.67 481.67 455.67 484.33 448.5 493.5 C 441.33 502.67 433.33 524.5 429.5 530.5 C 425.67 536.5 422.67 522.17 425.5 529.5 C 428.33 536.83 440.67 558 446.5 574.5 C 452.33 591 456.67 608.5 460.5 628.5 C 464.33 648.5 467.17 667.5 469.5 694.5 C 471.83 721.5 473.5 781.17 474.5 790.5 C 475.5 799.83 473.67 762.83 475.5 750.5 C 477.33 738.17 481.5 725 485.5 716.5 C 489.5 708 487.33 710.5 499.5 699.5 C 511.67 688.5 535.33 665.67 558.5 650.5 C 581.67 635.33 624.83 626.67 638.5 608.5 C 652.17 590.33 640.83 561 640.5 541.5 C 640.17 522 638.5 506.33 636.5 491.5 C 634.5 476.67 632.17 466.17 628.5 452.5 C 624.83 438.83 634.67 408.83 614.5 409.5 Z"/>
    <path fill="#007a39" stroke="#007a39" d="M 425.5 535.5 C 422.17 540 416.83 555.5 412.5 569.5 C 408.17 583.5 401.67 601.67 399.5 619.5 C 397.33 637.33 397.33 658.5 399.5 676.5 C 401.67 694.5 406.5 708.67 412.5 727.5 C 418.5 746.33 423.33 762.17 435.5 789.5 C 447.67 816.83 478.83 882.67 485.5 891.5 C 492.17 900.33 477.83 870.33 475.5 842.5 C 473.17 814.67 473.67 758.17 471.5 724.5 C 469.33 690.83 466.33 664.5 462.5 640.5 C 458.67 616.5 453.5 596.83 448.5 580.5 C 443.5 564.17 436.33 550 432.5 542.5 C 428.67 535 428.83 531 425.5 535.5 Z M 225.5 295.5 C 224.67 295 225.5 300 226.5 301.5 C 227.5 303 231.67 305.5 231.5 304.5 C 231.33 303.5 226.33 296 225.5 295.5 Z M 85.5 268.5 C 85 268.67 81.67 275.33 81.5 276.5 C 81.33 277.67 83.83 276.83 84.5 275.5 C 85.17 274.17 86 268.33 85.5 268.5 Z M 130.5 178.5 C 129.5 179.33 120.33 193.5 119.5 195.5 C 118.67 197.5 123.67 193.33 125.5 190.5 C 127.33 187.67 131.5 177.67 130.5 178.5 Z M 203.5 111.5 C 203.33 110.83 200 115 199.5 116.5 C 199 118 199.83 121.33 200.5 120.5 C 201.17 119.67 203.67 112.17 203.5 111.5 Z"/>
    <path fill="#007d38" stroke="#007d38" d="M 225.5 821.5 C 224.33 821.17 229.33 827 231.5 828.5 C 233.67 830 239.5 831.67 238.5 830.5 C 237.5 829.33 226.67 821.83 225.5 821.5 Z M 472.5 782.5 C 472.5 788.33 475 823.33 475.5 824.5 C 476 825.67 476 796.5 475.5 789.5 C 475 782.5 472.5 776.67 472.5 782.5 Z M 416.5 519.5 C 410.67 525.83 394.33 544 385.5 558.5 C 376.67 573 368 593.83 363.5 606.5 C 359 619.17 358.5 621.5 358.5 634.5 C 358.5 647.5 358.5 664.83 363.5 684.5 C 368.5 704.17 376.33 727.83 388.5 752.5 C 400.67 777.17 419.83 807.17 436.5 832.5 C 453.17 857.83 479.33 892.5 488.5 904.5 C 497.67 916.5 493 911.67 491.5 904.5 C 490 897.33 482 867.5 479.5 861.5 C 477 855.5 483.67 880.83 476.5 868.5 C 469.33 856.17 447 811.33 436.5 787.5 C 426 763.67 419.5 744.33 413.5 725.5 C 407.5 706.67 402.67 691.83 400.5 674.5 C 398.33 657.17 398.33 638.67 400.5 621.5 C 402.67 604.33 409 585.33 413.5 571.5 C 418 557.67 421.67 536.83 427.5 538.5 C 433.33 540.17 448.33 582.33 448.5 581.5 C 448.67 580.67 433.17 543.67 428.5 533.5 C 423.83 523.33 422.5 522.83 420.5 520.5 C 418.5 518.17 422.33 513.17 416.5 519.5 Z M 85.5 267.5 C 84.5 268.5 80.33 277.67 80.5 278.5 C 80.67 279.33 85.67 274.33 86.5 272.5 C 87.33 270.67 86.5 266.5 85.5 267.5 Z M 93.5 248.5 C 93.33 247.83 89.17 252 88.5 253.5 C 87.83 255 88.67 258.33 89.5 257.5 C 90.33 256.67 93.67 249.17 93.5 248.5 Z M 199.5 230.5 C 199.67 232 203 239.5 203.5 239.5 C 204 239.5 203.17 232 202.5 230.5 C 201.83 229 199.33 229 199.5 230.5 Z M 194.5 199.5 C 193.83 198.67 192.17 202 192.5 203.5 C 192.83 205 196.17 209.17 196.5 208.5 C 196.83 207.83 195.17 200.33 194.5 199.5 Z M 129.5 181.5 C 129 181.5 124.83 186.5 124.5 187.5 C 124.17 188.5 126.67 188.5 127.5 187.5 C 128.33 186.5 130 181.5 129.5 181.5 Z M 200.5 125.5 C 199.83 126 196.5 134.33 196.5 135.5 C 196.5 136.67 199.83 134.17 200.5 132.5 C 201.17 130.83 201.17 125 200.5 125.5 Z M 166.5 124.5 C 166.67 123.67 160 128.67 158.5 130.5 C 157 132.33 156.17 136.5 157.5 135.5 C 158.83 134.5 166.33 125.33 166.5 124.5 Z"/>
  </g>
</svg>
