<svg xmlns="http://www.w3.org/2000/svg" width="899" height="921" viewBox="0 0 899 921" role="img" aria-labelledby="title desc">
  <title id="title">Nur logo loop frame 066</title>
  <desc id="desc">Vector-traced frame from Nur_Logo_Loop_02.gif.</desc>
  <g id="frame-066" stroke-linejoin="round" stroke-linecap="round" stroke-width="0.5" shape-rendering="geometricPrecision">
    <path fill="#008136" stroke="#008136" d="M 181.5 50.5 C 174.5 59.33 157.83 80 142.5 103.5 C 127.17 127 101.67 169.33 89.5 191.5 C 77.33 213.67 76.67 216.5 69.5 236.5 C 62.33 256.5 50.17 297.33 46.5 311.5 C 42.83 325.67 47.83 319.67 47.5 321.5 C 47.17 323.33 45.67 317.17 44.5 322.5 C 43.33 327.83 40.83 345.5 40.5 353.5 C 40.17 361.5 42.67 367.5 42.5 370.5 C 42.33 373.5 40.67 355.5 39.5 371.5 C 38.33 387.5 33.67 437.67 35.5 466.5 C 37.33 495.33 43.83 518 50.5 544.5 C 57.17 571 66.33 602 75.5 625.5 C 84.67 649 94.83 667 105.5 685.5 C 116.17 704 125.67 718.67 139.5 736.5 C 153.33 754.33 171.67 776 188.5 792.5 C 205.33 809 222.67 823.17 240.5 835.5 C 258.33 847.83 273.83 856.83 295.5 866.5 C 317.17 876.17 345.83 886.67 370.5 893.5 C 395.17 900.33 424.17 905 443.5 907.5 C 462.83 910 478.83 909.33 486.5 908.5 C 494.17 907.67 488.33 902.67 489.5 902.5 C 490.67 902.33 494.33 910.83 493.5 907.5 C 492.67 904.17 487.17 893.17 484.5 882.5 C 481.83 871.83 479.67 860.67 477.5 843.5 C 475.33 826.33 472 796.33 471.5 779.5 C 471 762.67 475.17 761.83 474.5 742.5 C 473.83 723.17 470.5 686.83 467.5 663.5 C 464.5 640.17 459.83 617.67 456.5 602.5 C 453.17 587.33 452.33 584.67 447.5 572.5 C 442.67 560.33 435.33 543.67 427.5 529.5 C 419.67 515.33 411 500.17 400.5 487.5 C 390 474.83 378.33 465.33 364.5 453.5 C 350.67 441.67 333.5 430.5 317.5 416.5 C 301.5 402.5 283.5 386.17 268.5 369.5 C 253.5 352.83 237.33 330.33 227.5 316.5 C 217.67 302.67 213.17 293.83 209.5 286.5 C 205.83 279.17 207 275.67 205.5 272.5 C 204 269.33 201.17 269.17 200.5 267.5 C 199.83 265.83 201.83 263.5 201.5 262.5 C 201.17 261.5 200.83 268.67 198.5 261.5 C 196.17 254.33 189.83 226.67 187.5 219.5 C 185.17 212.33 186.33 231.17 184.5 218.5 C 182.67 205.83 176.5 171.5 176.5 143.5 C 176.5 115.5 183.67 66 184.5 50.5 C 185.33 35 188.5 41.67 181.5 50.5 Z"/>
    <path fill="#83bb26" stroke="#83bb26" d="M 433.5 512.5 C 433.17 511.33 424.83 518 423.5 520.5 C 422.17 523 423.83 528.83 425.5 527.5 C 427.17 526.17 433.83 513.67 433.5 512.5 Z M 704.5 22.5 C 696.33 16.83 697.17 18.33 702.5 24.5 C 707.83 30.67 723.67 41.17 736.5 59.5 C 749.33 77.83 770.17 115.5 779.5 134.5 C 788.83 153.5 790 159.33 792.5 173.5 C 795 187.67 796.17 203.33 794.5 219.5 C 792.83 235.67 789.33 254.5 782.5 270.5 C 775.67 286.5 767.17 299.83 753.5 315.5 C 739.83 331.17 721.83 348.5 700.5 364.5 C 679.17 380.5 635.17 390.17 625.5 411.5 C 615.83 432.83 639.17 465.83 642.5 492.5 C 645.83 519.17 646 550.17 645.5 571.5 C 645 592.83 634.67 615.33 639.5 620.5 C 644.33 625.67 659.83 611.5 674.5 602.5 C 689.17 593.5 711 578.83 727.5 566.5 C 744 554.17 761 539.67 773.5 528.5 C 786 517.33 793 510.67 802.5 499.5 C 812 488.33 821.83 475.17 830.5 461.5 C 839.17 447.83 847.83 432.17 854.5 417.5 C 861.17 402.83 866.67 387 870.5 373.5 C 874.33 360 876.67 355.5 877.5 336.5 C 878.33 317.5 877.67 279 875.5 259.5 C 873.33 240 869.33 232.67 864.5 219.5 C 859.67 206.33 858.67 201 846.5 180.5 C 834.33 160 807.33 116.83 791.5 96.5 C 775.67 76.17 766 70.83 751.5 58.5 C 737 46.17 712.67 28.17 704.5 22.5 Z"/>
    <path fill="#6ab12d" stroke="#6ab12d" d="M 501.5 130.5 C 495.33 120.83 497.33 124.83 499.5 134.5 C 501.67 144.17 510.17 168 514.5 188.5 C 518.83 209 523.5 238.67 525.5 257.5 C 527.5 276.33 527.17 287.67 526.5 301.5 C 525.83 315.33 523.83 328 521.5 340.5 C 519.17 353 516.67 364.33 512.5 376.5 C 508.33 388.67 508 394.17 496.5 413.5 C 485 432.83 455 474.33 443.5 492.5 C 432 510.67 431.17 517.33 427.5 522.5 C 423.83 527.67 421.17 522 421.5 523.5 C 421.83 525 425.83 534.17 429.5 531.5 C 433.17 528.83 435.83 515 443.5 507.5 C 451.17 500 445.33 501.67 475.5 486.5 C 505.67 471.33 597.17 417.33 624.5 416.5 C 651.83 415.67 636.33 454.67 639.5 481.5 C 642.67 508.33 644.17 553.83 643.5 577.5 C 642.83 601.17 645.67 611.67 635.5 623.5 C 625.33 635.33 600 639.17 582.5 648.5 C 565 657.83 546 668.5 530.5 679.5 C 515 690.5 498.17 705.33 489.5 714.5 C 480.83 723.67 481.17 728.5 478.5 734.5 C 475.83 740.5 473.83 735 473.5 750.5 C 473.17 766 474.33 806.67 476.5 827.5 C 478.67 848.33 485.33 866.17 486.5 875.5 C 487.67 884.83 482.33 878.17 483.5 883.5 C 484.67 888.83 490.33 904.83 493.5 907.5 C 496.67 910.17 494.67 910 502.5 899.5 C 510.33 889 525.17 868.83 540.5 844.5 C 555.83 820.17 579.83 783.5 594.5 753.5 C 609.17 723.5 620.83 686.5 628.5 664.5 C 636.17 642.5 637.5 636.67 640.5 621.5 C 643.5 606.33 646.33 597.83 646.5 573.5 C 646.67 549.17 646 506.5 641.5 475.5 C 637 444.5 630.33 421 619.5 387.5 C 608.67 354 590.33 307 576.5 274.5 C 562.67 242 549 216.5 536.5 192.5 C 524 168.5 507.67 140.17 501.5 130.5 Z"/>
    <path fill="#009f3a" stroke="#009f3a" d="M 625.5 414.5 C 598 417.67 504.17 470.17 473.5 485.5 C 442.83 500.83 449.17 499 441.5 506.5 C 433.83 514 430.83 527.83 427.5 530.5 C 424.17 533.17 418.33 515.17 421.5 522.5 C 424.67 529.83 439.67 555 446.5 574.5 C 453.33 594 458 611.17 462.5 639.5 C 467 667.83 472.17 720.83 473.5 744.5 C 474.83 768.17 469.67 762 470.5 781.5 C 471.33 801 476.5 845.17 478.5 861.5 C 480.5 877.83 481.33 876.33 482.5 879.5 C 483.67 882.67 485.17 879.33 485.5 880.5 C 485.83 881.67 484 887 484.5 886.5 C 485 886 489.67 887.67 488.5 877.5 C 487.33 867.33 479.83 846.33 477.5 825.5 C 475.17 804.67 473 769.67 474.5 752.5 C 476 735.33 481.17 731.17 486.5 722.5 C 491.83 713.83 496.83 708.83 506.5 700.5 C 516.17 692.17 522.5 685.5 544.5 672.5 C 566.5 659.5 621.83 638 638.5 622.5 C 655.17 607 643.5 594.83 644.5 579.5 C 645.5 564.17 645.5 549.33 644.5 530.5 C 643.5 511.67 641.67 485.83 638.5 466.5 C 635.33 447.17 653 411.33 625.5 414.5 Z"/>
    <path fill="#007a39" stroke="#007a39" d="M 424.5 530.5 C 416.67 534.67 405.83 587.67 401.5 605.5 C 397.17 623.33 398.5 625.17 398.5 637.5 C 398.5 649.83 397.83 662.5 401.5 679.5 C 405.17 696.5 408.17 709.5 420.5 739.5 C 432.83 769.5 465.83 839.5 475.5 859.5 C 485.17 879.5 479.5 872.17 478.5 859.5 C 477.5 846.83 470.5 802.83 469.5 783.5 C 468.5 764.17 473.67 767.33 472.5 743.5 C 471.33 719.67 466.5 667.67 462.5 640.5 C 458.5 613.33 454.83 598.83 448.5 580.5 C 442.17 562.17 432.33 526.33 424.5 530.5 Z M 315.5 414.5 C 314.67 414.33 318.83 421 320.5 422.5 C 322.17 424 326.33 424.83 325.5 423.5 C 324.67 422.17 316.33 414.67 315.5 414.5 Z M 198.5 260.5 C 198 260.33 198.83 267 199.5 268.5 C 200.17 270 202.67 270.83 202.5 269.5 C 202.33 268.17 199 260.67 198.5 260.5 Z"/>
    <path fill="#007d38" stroke="#007d38" d="M 472.5 808.5 C 472.5 810.83 475 825.83 475.5 826.5 C 476 827.17 476 815.5 475.5 812.5 C 475 809.5 472.5 806.17 472.5 808.5 Z M 469.5 761.5 C 469 760.83 468.17 780.83 468.5 785.5 C 468.83 790.17 471.33 793.5 471.5 789.5 C 471.67 785.5 470 762.17 469.5 761.5 Z M 115.5 699.5 C 115.83 700.67 129.17 719.83 131.5 722.5 C 133.83 725.17 132.17 719.33 129.5 715.5 C 126.83 711.67 115.17 698.33 115.5 699.5 Z M 456.5 618.5 C 457 622.17 462 643 462.5 643.5 C 463 644 460.5 625.67 459.5 621.5 C 458.5 617.33 456 614.83 456.5 618.5 Z M 420.5 524.5 C 414.83 528.5 401 542.17 392.5 553.5 C 384 564.83 375.17 578.33 369.5 592.5 C 363.83 606.67 359.67 623 358.5 638.5 C 357.33 654 359.67 670.5 362.5 685.5 C 365.33 700.5 367.83 710 375.5 728.5 C 383.17 747 395.17 774.33 408.5 796.5 C 421.83 818.67 447.83 850.17 455.5 861.5 C 463.17 872.83 449.17 856.83 454.5 864.5 C 459.83 872.17 481.17 900.33 487.5 907.5 C 493.83 914.67 494.33 915.83 492.5 907.5 C 490.67 899.17 479.17 869.67 476.5 857.5 C 473.83 845.33 476.83 835.67 476.5 834.5 C 476.17 833.33 483.67 866.67 474.5 850.5 C 465.33 834.33 433.33 765.33 421.5 737.5 C 409.67 709.67 407.17 697.33 403.5 683.5 C 399.83 669.67 399.67 667.17 399.5 654.5 C 399.33 641.83 400.5 621.33 402.5 607.5 C 404.5 593.67 407.67 583.33 411.5 571.5 C 415.33 559.67 419.33 534.83 425.5 536.5 C 431.67 538.17 446.17 578.33 448.5 581.5 C 450.83 584.67 443.17 564.17 439.5 555.5 C 435.83 546.83 429.67 534.67 426.5 529.5 C 423.33 524.33 426.17 520.5 420.5 524.5 Z M 413.5 510.5 C 413.33 511 419.17 521 420.5 522.5 C 421.83 524 422.67 521.5 421.5 519.5 C 420.33 517.5 413.67 510 413.5 510.5 Z M 197.5 257.5 C 196.67 257 198.33 267 199.5 269.5 C 200.67 272 204.83 274.5 204.5 272.5 C 204.17 270.5 198.33 258 197.5 257.5 Z M 73.5 235.5 C 73.67 234.33 70.33 236.83 69.5 238.5 C 68.67 240.17 67.83 246 68.5 245.5 C 69.17 245 73.33 236.67 73.5 235.5 Z M 103.5 171.5 C 102.83 171.83 97 181 96.5 182.5 C 96 184 99.33 182.33 100.5 180.5 C 101.67 178.67 104.17 171.17 103.5 171.5 Z M 136.5 116.5 C 135.5 117.33 130.5 125.67 130.5 126.5 C 130.5 127.33 135.5 123.17 136.5 121.5 C 137.5 119.83 137.5 115.67 136.5 116.5 Z"/>
  </g>
</svg>
