<svg xmlns="http://www.w3.org/2000/svg" width="899" height="921" viewBox="0 0 899 921" role="img" aria-labelledby="title desc">
  <title id="title">Nur logo loop frame 087</title>
  <desc id="desc">Vector-traced frame from Nur_Logo_Loop_02.gif.</desc>
  <g id="frame-087" stroke-linejoin="round" stroke-linecap="round" stroke-width="0.5" shape-rendering="geometricPrecision">
    <path fill="#008136" stroke="#008136" d="M 201.5 50.5 C 193.17 60.67 171 89 153.5 115.5 C 136 142 109 187 96.5 209.5 C 84 232 85 232.33 78.5 250.5 C 72 268.67 62.83 295.5 57.5 318.5 C 52.17 341.5 49 364 46.5 388.5 C 44 413 41 438.17 42.5 465.5 C 44 492.83 52.83 537.83 55.5 552.5 C 58.17 567.17 58.17 551.67 58.5 553.5 C 58.83 555.33 55.33 553.33 57.5 563.5 C 59.67 573.67 65 596.83 71.5 614.5 C 78 632.17 85.17 649.17 96.5 669.5 C 107.83 689.83 124.17 716 139.5 736.5 C 154.83 757 171.67 776 188.5 792.5 C 205.33 809 222.67 823.17 240.5 835.5 C 258.33 847.83 273.83 856.83 295.5 866.5 C 317.17 876.17 345.83 886.67 370.5 893.5 C 395.17 900.33 423 905.17 443.5 907.5 C 464 909.83 486.67 911.67 493.5 907.5 C 500.33 903.33 487.17 893.17 484.5 882.5 C 481.83 871.83 479.17 867 477.5 843.5 C 475.83 820 476.17 771.5 474.5 741.5 C 472.83 711.5 470.5 686.67 467.5 663.5 C 464.5 640.33 460.83 620.17 456.5 602.5 C 452.17 584.83 447.5 571.67 441.5 557.5 C 435.5 543.33 427.83 529.83 420.5 517.5 C 413.17 505.17 415.17 501.67 397.5 483.5 C 379.83 465.33 336.33 429.33 314.5 408.5 C 292.67 387.67 279.83 373.67 266.5 358.5 C 253.17 343.33 244.33 332.17 234.5 317.5 C 224.67 302.83 214.83 288.67 207.5 270.5 C 200.17 252.33 194.33 229.33 190.5 208.5 C 186.67 187.67 185 156.33 184.5 145.5 C 184 134.67 185.67 153 187.5 143.5 C 189.33 134 194.5 98.5 195.5 88.5 C 196.5 78.5 193.33 84.5 193.5 83.5 C 193.67 82.5 194.83 87.33 196.5 82.5 C 198.17 77.67 202.67 59.83 203.5 54.5 C 204.33 49.17 209.83 40.33 201.5 50.5 Z"/>
    <path fill="#83bb26" stroke="#83bb26" d="M 441.5 501.5 C 440.5 499.5 423 512.83 420.5 517.5 C 418 522.17 423 532.17 426.5 529.5 C 430 526.83 442.5 503.5 441.5 501.5 Z M 672.5 28.5 C 663.33 23.33 666.67 28.33 669.5 31.5 C 672.33 34.67 680.33 38.67 689.5 47.5 C 698.67 56.33 712.5 68.83 724.5 84.5 C 736.5 100.17 752.33 124.5 761.5 141.5 C 770.67 158.5 775.83 171.5 779.5 186.5 C 783.17 201.5 785 216 783.5 231.5 C 782 247 777.5 264.67 770.5 279.5 C 763.5 294.33 756.17 305.17 741.5 320.5 C 726.83 335.83 702.5 357 682.5 371.5 C 662.5 386 628.17 387 621.5 407.5 C 614.83 428 638.5 466.33 642.5 494.5 C 646.5 522.67 645.67 557 645.5 576.5 C 645.33 596 636 608.83 641.5 611.5 C 647 614.17 663.33 601.83 678.5 592.5 C 693.67 583.17 716.5 567.5 732.5 555.5 C 748.5 543.5 761.5 532.83 774.5 520.5 C 787.5 508.17 800.83 493.5 810.5 481.5 C 820.17 469.5 825 462 832.5 448.5 C 840 435 849.5 416.17 855.5 400.5 C 861.5 384.83 865.67 367.83 868.5 354.5 C 871.33 341.17 871.83 331.17 872.5 320.5 C 873.17 309.83 874 304 872.5 290.5 C 871 277 867.17 253.5 863.5 239.5 C 859.83 225.5 856 217.83 850.5 206.5 C 845 195.17 843.17 189 830.5 171.5 C 817.83 154 792.17 119.67 774.5 101.5 C 756.83 83.33 741.5 74.67 724.5 62.5 C 707.5 50.33 681.67 33.67 672.5 28.5 Z"/>
    <path fill="#6ab12d" stroke="#6ab12d" d="M 487.5 133.5 C 481.67 128.5 500.67 171 505.5 189.5 C 510.33 208 514.17 226.67 516.5 244.5 C 518.83 262.33 519.83 280.17 519.5 296.5 C 519.17 312.83 517.17 327.5 514.5 342.5 C 511.83 357.5 508.33 372.83 503.5 386.5 C 498.67 400.17 498 401.33 485.5 424.5 C 473 447.67 439 509.83 428.5 525.5 C 418 541.17 424 519.33 422.5 518.5 C 421 517.67 419.17 518.67 419.5 520.5 C 419.83 522.33 422.83 527.67 424.5 529.5 C 426.17 531.33 426.17 536 429.5 531.5 C 432.83 527 438.33 510.17 444.5 502.5 C 450.67 494.83 456.17 492 466.5 485.5 C 476.83 479 480.83 475.67 506.5 463.5 C 532.17 451.33 598.5 410 620.5 412.5 C 642.5 415 634.67 458.33 638.5 478.5 C 642.33 498.67 642.67 516.17 643.5 533.5 C 644.33 550.83 644.17 569.33 643.5 582.5 C 642.83 595.67 649.5 603 639.5 612.5 C 629.5 622 600.83 630.17 583.5 639.5 C 566.17 648.83 551.5 656.83 535.5 668.5 C 519.5 680.17 497 699.83 487.5 709.5 C 478 719.17 480.83 720.33 478.5 726.5 C 476.17 732.67 473.83 731.5 473.5 746.5 C 473.17 761.5 473 789.5 476.5 816.5 C 480 843.5 491 893.17 494.5 908.5 C 498 923.83 483.83 928.67 497.5 908.5 C 511.17 888.33 559 816.33 576.5 787.5 C 594 758.67 593.83 756 602.5 735.5 C 611.17 715 621.83 685 628.5 664.5 C 635.17 644 639.5 633.5 642.5 612.5 C 645.5 591.5 647.33 564.17 646.5 538.5 C 645.67 512.83 644 487.67 637.5 458.5 C 631 429.33 623.67 403.33 607.5 363.5 C 591.33 323.67 560.5 257.83 540.5 219.5 C 520.5 181.17 493.33 138.5 487.5 133.5 Z"/>
    <path fill="#009f3a" stroke="#009f3a" d="M 475.5 803.5 C 472.67 795.5 475.83 844 478.5 861.5 C 481.17 879 488.67 900.5 491.5 908.5 C 494.33 916.5 498.17 927 495.5 909.5 C 492.83 892 478.33 811.5 475.5 803.5 Z M 621.5 410.5 C 600 412.83 530.67 450.17 504.5 462.5 C 478.33 474.83 474.67 478.17 464.5 484.5 C 454.33 490.83 449.83 492.83 443.5 500.5 C 437.17 508.17 426 518.17 426.5 530.5 C 427 542.83 440.5 556.33 446.5 574.5 C 452.5 592.67 458.33 615.5 462.5 639.5 C 466.67 663.5 469.5 692.17 471.5 718.5 C 473.5 744.83 474 792.5 474.5 797.5 C 475 802.5 473.67 760 474.5 748.5 C 475.33 737 477.17 734.67 479.5 728.5 C 481.83 722.33 483 718.17 488.5 711.5 C 494 704.83 501.83 697.17 512.5 688.5 C 523.17 679.83 531.17 671.83 552.5 659.5 C 573.83 647.17 625.17 627 640.5 614.5 C 655.83 602 644.17 603.67 644.5 584.5 C 644.83 565.33 644.33 522.17 642.5 499.5 C 640.67 476.83 637 463.33 633.5 448.5 C 630 433.67 643 408.17 621.5 410.5 Z"/>
    <path fill="#007a39" stroke="#007a39" d="M 424.5 531.5 C 422.67 529.17 428 530.17 425.5 536.5 C 423 542.83 415 552.33 409.5 569.5 C 404 586.67 395 622 392.5 639.5 C 390 657 393 663.5 394.5 674.5 C 396 685.5 397.17 692 401.5 705.5 C 405.83 719 407 726 420.5 755.5 C 434 785 473.33 868 482.5 882.5 C 491.67 897 477.33 868.83 475.5 842.5 C 473.67 816.17 473.67 758.17 471.5 724.5 C 469.33 690.83 466.33 664.5 462.5 640.5 C 458.67 616.5 452.83 595.5 448.5 580.5 C 444.17 565.5 440.5 558.67 436.5 550.5 C 432.5 542.33 426.33 533.83 424.5 531.5 Z M 196.5 76.5 C 196 76.67 192.67 85 192.5 86.5 C 192.33 88 194.83 87.17 195.5 85.5 C 196.17 83.83 197 76.33 196.5 76.5 Z"/>
    <path fill="#007d38" stroke="#007d38" d="M 470.5 779.5 C 470.5 783.5 474.67 821 475.5 824.5 C 476.33 828 476.33 808 475.5 800.5 C 474.67 793 470.5 775.5 470.5 779.5 Z M 115.5 699.5 C 115.83 700.67 129.17 719.83 131.5 722.5 C 133.83 725.17 132.17 719.33 129.5 715.5 C 126.83 711.67 115.17 698.33 115.5 699.5 Z M 456.5 618.5 C 457 622.17 462 643 462.5 643.5 C 463 644 460.5 625.67 459.5 621.5 C 458.5 617.33 456 614.83 456.5 618.5 Z M 62.5 581.5 C 62.5 582.33 65.83 588.17 66.5 588.5 C 67.17 588.83 67.17 584.67 66.5 583.5 C 65.83 582.33 62.5 580.67 62.5 581.5 Z M 53.5 543.5 C 53.33 545.33 55.5 554.33 56.5 556.5 C 57.5 558.67 59.33 558.33 59.5 556.5 C 59.67 554.67 58.5 547.67 57.5 545.5 C 56.5 543.33 53.67 541.67 53.5 543.5 Z M 413.5 510.5 C 409.67 505 420 516.17 416.5 522.5 C 413 528.83 400.67 537 392.5 548.5 C 384.33 560 373.17 578.67 367.5 591.5 C 361.83 604.33 360 613.33 358.5 625.5 C 357 637.67 357 651.33 358.5 664.5 C 360 677.67 360.5 685.83 367.5 704.5 C 374.5 723.17 390.17 756.5 400.5 776.5 C 410.83 796.5 416.67 805.67 429.5 824.5 C 442.33 843.33 467.83 877.33 477.5 889.5 C 487.17 901.67 487.17 902.17 487.5 897.5 C 487.83 892.83 481.5 866.5 479.5 861.5 C 477.5 856.5 485.17 885.5 475.5 867.5 C 465.83 849.5 433.67 780.83 421.5 753.5 C 409.33 726.17 406.83 717 402.5 703.5 C 398.17 690 397 682.83 395.5 672.5 C 394 662.17 392.33 654.17 393.5 641.5 C 394.67 628.83 397 613.67 402.5 596.5 C 408 579.33 418.83 541 426.5 538.5 C 434.17 536 446.33 578.67 448.5 581.5 C 450.67 584.33 445.33 567.33 439.5 555.5 C 433.67 543.67 417.33 516 413.5 510.5 Z M 327.5 420.5 C 326 419.67 326.83 423 328.5 424.5 C 330.17 426 337.67 430.17 337.5 429.5 C 337.33 428.83 329 421.33 327.5 420.5 Z M 303.5 398.5 C 302.83 398.5 312 409.33 314.5 411.5 C 317 413.67 320.33 413.67 318.5 411.5 C 316.67 409.33 304.17 398.5 303.5 398.5 Z M 232.5 315.5 C 233.17 317.17 239 325.5 239.5 325.5 C 240 325.5 236.67 317.17 235.5 315.5 C 234.33 313.83 231.83 313.83 232.5 315.5 Z M 217.5 292.5 C 218 293.83 223 300.5 223.5 300.5 C 224 300.5 221.5 293.83 220.5 292.5 C 219.5 291.17 217 291.17 217.5 292.5 Z M 66.5 292.5 C 65.83 292.83 62.5 299.5 62.5 300.5 C 62.5 301.5 65.83 299.83 66.5 298.5 C 67.17 297.17 67.17 292.17 66.5 292.5 Z M 123.5 169.5 C 123 169.5 118 175.33 117.5 176.5 C 117 177.67 119.5 177.67 120.5 176.5 C 121.5 175.33 124 169.5 123.5 169.5 Z M 187.5 139.5 C 187 138.67 184.17 141.17 183.5 142.5 C 182.83 143.83 183 146.67 183.5 147.5 C 184 148.33 185.83 148.83 186.5 147.5 C 187.17 146.17 188 140.33 187.5 139.5 Z M 172.5 90.5 C 171.67 91 167.5 97.67 167.5 98.5 C 167.5 99.33 171.67 96.83 172.5 95.5 C 173.33 94.17 173.33 90 172.5 90.5 Z M 199.5 54.5 C 199.5 53.83 192.83 59.67 191.5 61.5 C 190.17 63.33 190.17 66.67 191.5 65.5 C 192.83 64.33 199.5 55.17 199.5 54.5 Z"/>
  </g>
</svg>
