<svg xmlns="http://www.w3.org/2000/svg" width="899" height="921" viewBox="0 0 899 921" role="img" aria-labelledby="title desc">
  <title id="title">Nur logo loop frame 064</title>
  <desc id="desc">Vector-traced frame from Nur_Logo_Loop_02.gif.</desc>
  <g id="frame-064" stroke-linejoin="round" stroke-linecap="round" stroke-width="0.5" shape-rendering="geometricPrecision">
    <path fill="#008136" stroke="#008136" d="M 187.5 50.5 C 180.17 57.67 161.17 83.67 145.5 107.5 C 129.83 131.33 105.83 171 93.5 193.5 C 81.17 216 78.5 223.83 71.5 242.5 C 64.5 261.17 56.33 285.33 51.5 305.5 C 46.67 325.67 44 345.5 42.5 363.5 C 41 381.5 43 405 42.5 413.5 C 42 422 40.33 407.17 39.5 414.5 C 38.67 421.83 36 437.83 37.5 457.5 C 39 477.17 43 506.83 48.5 532.5 C 54 558.17 62.5 588.67 70.5 611.5 C 78.5 634.33 85 648.67 96.5 669.5 C 108 690.33 124.17 716 139.5 736.5 C 154.83 757 171.67 776 188.5 792.5 C 205.33 809 222.67 823.17 240.5 835.5 C 258.33 847.83 273.83 856.83 295.5 866.5 C 317.17 876.17 345.83 886.67 370.5 893.5 C 395.17 900.33 423 905.17 443.5 907.5 C 464 909.83 486.67 911.67 493.5 907.5 C 500.33 903.33 487.17 893.17 484.5 882.5 C 481.83 871.83 479.5 860.67 477.5 843.5 C 475.5 826.33 473 796.5 472.5 779.5 C 472 762.5 475.33 760.83 474.5 741.5 C 473.67 722.17 470.5 686.67 467.5 663.5 C 464.5 640.33 459.83 617.67 456.5 602.5 C 453.17 587.33 452 584.17 447.5 572.5 C 443 560.83 437.17 546.5 429.5 532.5 C 421.83 518.5 410.67 500.33 401.5 488.5 C 392.33 476.67 388.33 473.5 374.5 461.5 C 360.67 449.5 335 431 318.5 416.5 C 302 402 287 386.67 275.5 374.5 C 264 362.33 260.5 358.67 249.5 343.5 C 238.5 328.33 220.17 306 209.5 283.5 C 198.83 261 190.33 227.33 185.5 208.5 C 180.67 189.67 181.5 183 180.5 170.5 C 179.5 158 178 151.17 179.5 133.5 C 181 115.83 188.17 78.33 189.5 64.5 C 190.83 50.67 194.83 43.33 187.5 50.5 Z"/>
    <path fill="#83bb26" stroke="#83bb26" d="M 435.5 509.5 C 434.5 508.17 424.17 516.5 422.5 519.5 C 420.83 522.5 424.5 526.17 425.5 527.5 C 426.5 528.83 426.83 530.5 428.5 527.5 C 430.17 524.5 436.5 510.83 435.5 509.5 Z M 693.5 23.5 C 684.17 17.33 684.83 18 691.5 25.5 C 698.17 33 720.5 51.5 733.5 68.5 C 746.5 85.5 760.33 109.33 769.5 127.5 C 778.67 145.67 784.83 162.33 788.5 177.5 C 792.17 192.67 793.17 202.33 791.5 218.5 C 789.83 234.67 785.5 258 778.5 274.5 C 771.5 291 763.83 301.83 749.5 317.5 C 735.17 333.17 713.5 353 692.5 368.5 C 671.5 384 633 396.67 623.5 410.5 C 614 424.33 632.33 437.83 635.5 451.5 C 638.67 465.17 640.83 472.17 642.5 492.5 C 644.17 512.83 646 552.5 645.5 573.5 C 645 594.5 635.83 613.33 639.5 618.5 C 643.17 623.67 654 612.67 667.5 604.5 C 681 596.33 704.33 581.17 720.5 569.5 C 736.67 557.83 751.17 546.17 764.5 534.5 C 777.83 522.83 789.5 512.17 800.5 499.5 C 811.5 486.83 821.5 472.83 830.5 458.5 C 839.5 444.17 847.83 428.83 854.5 413.5 C 861.17 398.17 867 379.33 870.5 366.5 C 874 353.67 874.67 351.67 875.5 336.5 C 876.33 321.33 876 289.17 875.5 275.5 C 875 261.83 875.5 265.67 872.5 254.5 C 869.5 243.33 863 222 857.5 208.5 C 852 195 850.5 191 839.5 173.5 C 828.5 156 806.83 122 791.5 103.5 C 776.17 85 763.83 75.83 747.5 62.5 C 731.17 49.17 702.83 29.67 693.5 23.5 Z"/>
    <path fill="#6ab12d" stroke="#6ab12d" d="M 638.5 621.5 C 627.17 616.17 571.67 652.83 549.5 665.5 C 527.33 678.17 516.17 688.5 505.5 697.5 C 494.83 706.5 490.67 711.33 485.5 719.5 C 480.33 727.67 476.17 731.83 474.5 746.5 C 472.83 761.17 473.33 786.33 475.5 807.5 C 477.67 828.67 486.17 860.83 487.5 873.5 C 488.83 886.17 482.5 877.83 483.5 883.5 C 484.5 889.17 490.33 904.83 493.5 907.5 C 496.67 910.17 494.67 910 502.5 899.5 C 510.33 889 526.67 865.83 540.5 844.5 C 554.33 823.17 572.67 796 585.5 771.5 C 598.33 747 608.67 722.5 617.5 697.5 C 626.33 672.5 649.83 626.83 638.5 621.5 Z M 495.5 131.5 C 497.33 140.67 508.17 173.17 512.5 191.5 C 516.83 209.83 519.5 223.83 521.5 241.5 C 523.5 259.17 524.83 281 524.5 297.5 C 524.17 314 521.5 328.33 519.5 340.5 C 517.5 352.67 516.33 358.83 512.5 370.5 C 508.67 382.17 508 390 496.5 410.5 C 485 431 455 474.5 443.5 493.5 C 432 512.5 430.83 520 427.5 524.5 C 424.17 529 424.5 520.5 423.5 520.5 C 422.5 520.5 421 522.5 421.5 524.5 C 422 526.5 425 531.17 426.5 532.5 C 428 533.83 428 536.33 430.5 532.5 C 433 528.67 435.17 516.67 441.5 509.5 C 447.83 502.33 456.83 496.67 468.5 489.5 C 480.17 482.33 485.67 478.83 511.5 466.5 C 537.33 454.17 603 417.5 623.5 415.5 C 644 413.5 631.5 440.67 634.5 454.5 C 637.5 468.33 640 477.5 641.5 498.5 C 643 519.5 644 561.5 643.5 580.5 C 643 599.5 639 606 638.5 612.5 C 638 619 639.17 625.67 640.5 619.5 C 641.83 613.33 645.5 589.33 646.5 575.5 C 647.5 561.67 647.33 553.17 646.5 536.5 C 645.67 519.83 644.17 494.17 641.5 475.5 C 638.83 456.83 635.33 442.17 630.5 424.5 C 625.67 406.83 621.83 394.33 612.5 369.5 C 603.17 344.67 587.5 304.67 574.5 275.5 C 561.5 246.33 546.67 217.67 534.5 194.5 C 522.33 171.33 508 147 501.5 136.5 C 495 126 493.67 122.33 495.5 131.5 Z"/>
    <path fill="#009f3a" stroke="#009f3a" d="M 475.5 806.5 C 473.5 802.33 476.83 849 478.5 861.5 C 480.17 874 484.67 877.67 485.5 881.5 C 486.33 885.33 482.67 881.67 483.5 884.5 C 484.33 887.33 490 898 490.5 898.5 C 491 899 486.5 889.5 486.5 887.5 C 486.5 885.5 492.33 900 490.5 886.5 C 488.67 873 477.5 810.67 475.5 806.5 Z M 625.5 414.5 C 603.33 409.33 535.17 453.67 509.5 465.5 C 483.83 477.33 483 478.5 471.5 485.5 C 460 492.5 447.83 499.83 440.5 507.5 C 433.17 515.17 426.5 520.33 427.5 531.5 C 428.5 542.67 440.67 556.5 446.5 574.5 C 452.33 592.5 458 611.33 462.5 639.5 C 467 667.67 472 719.83 473.5 743.5 C 475 767.17 471.33 771.33 471.5 781.5 C 471.67 791.67 473.83 810 474.5 804.5 C 475.17 799 472.83 763.33 475.5 748.5 C 478.17 733.67 484.17 724.67 490.5 715.5 C 496.83 706.33 503.33 701.67 513.5 693.5 C 523.67 685.33 530.5 678.5 551.5 666.5 C 572.5 654.5 624 635.5 639.5 621.5 C 655 607.5 644 603.33 644.5 582.5 C 645 561.67 645.67 524.5 642.5 496.5 C 639.33 468.5 647.67 419.67 625.5 414.5 Z"/>
    <path fill="#007a39" stroke="#007a39" d="M 425.5 534.5 C 422.5 540.83 414.17 561.33 410.5 572.5 C 406.83 583.67 405.33 590.67 403.5 601.5 C 401.67 612.33 400 626.17 399.5 637.5 C 399 648.83 397.17 653 400.5 669.5 C 403.83 686 406.5 704.67 419.5 736.5 C 432.5 768.33 469.83 851.5 478.5 860.5 C 487.17 869.5 472.67 813.17 471.5 790.5 C 470.33 767.83 473 749.5 471.5 724.5 C 470 699.5 466.33 664.5 462.5 640.5 C 458.67 616.5 454.17 598.17 448.5 580.5 C 442.83 562.83 432.33 542.17 428.5 534.5 C 424.67 526.83 428.5 528.17 425.5 534.5 Z"/>
    <path fill="#007d38" stroke="#007d38" d="M 472.5 800.5 C 472.5 803.83 475 823.83 475.5 824.5 C 476 825.17 476 808.5 475.5 804.5 C 475 800.5 472.5 797.17 472.5 800.5 Z M 115.5 699.5 C 115.83 700.67 129.17 719.83 131.5 722.5 C 133.83 725.17 132.17 719.33 129.5 715.5 C 126.83 711.67 115.17 698.33 115.5 699.5 Z M 456.5 618.5 C 457 622.17 462 643 462.5 643.5 C 463 644 460.5 625.67 459.5 621.5 C 458.5 617.33 456 614.83 456.5 618.5 Z M 51.5 538.5 C 50.83 538.33 50.83 543.33 51.5 544.5 C 52.17 545.67 55.5 546.5 55.5 545.5 C 55.5 544.5 52.17 538.67 51.5 538.5 Z M 419.5 524.5 C 413 529.67 396.17 548.17 387.5 560.5 C 378.83 572.83 372.17 586.17 367.5 598.5 C 362.83 610.83 360.17 619.5 359.5 634.5 C 358.83 649.5 360.67 672.83 363.5 688.5 C 366.33 704.17 368.67 710.5 376.5 728.5 C 384.33 746.5 397.33 774.17 410.5 796.5 C 423.67 818.83 442.5 844.33 455.5 862.5 C 468.5 880.67 482.33 898.17 488.5 905.5 C 494.67 912.83 494.17 913.33 492.5 906.5 C 490.83 899.67 480.83 873.33 478.5 864.5 C 476.17 855.67 479 855.5 478.5 853.5 C 478 851.5 475.83 855.83 475.5 852.5 C 475.17 849.17 476.67 833.83 476.5 833.5 C 476.33 833.17 482.67 864.17 474.5 850.5 C 466.33 836.83 439.17 779 427.5 751.5 C 415.83 724 409 701.67 404.5 685.5 C 400 669.33 400.5 668.17 400.5 654.5 C 400.5 640.83 402.67 616.83 404.5 603.5 C 406.33 590.17 407.83 585.33 411.5 574.5 C 415.17 563.67 421.5 539.83 426.5 538.5 C 431.5 537.17 436.67 555.17 441.5 566.5 C 446.33 577.83 455.83 608.33 455.5 606.5 C 455.17 604.67 444.33 568.33 439.5 555.5 C 434.67 542.67 429.83 534.67 426.5 529.5 C 423.17 524.33 426 519.33 419.5 524.5 Z M 413.5 510.5 C 413.33 511 419.17 521 420.5 522.5 C 421.83 524 422.67 521.5 421.5 519.5 C 420.33 517.5 413.67 510 413.5 510.5 Z M 44.5 508.5 C 44 509.33 44.83 515 45.5 516.5 C 46.17 518 48 518.33 48.5 517.5 C 49 516.67 49.17 513 48.5 511.5 C 47.83 510 45 507.67 44.5 508.5 Z M 377.5 467.5 C 376.83 467.5 381 473.33 382.5 474.5 C 384 475.67 387.33 475.67 386.5 474.5 C 385.67 473.33 378.17 467.5 377.5 467.5 Z M 42.5 400.5 C 41.83 400.83 39.33 415.83 39.5 418.5 C 39.67 421.17 43 419.5 43.5 416.5 C 44 413.5 43.17 400.17 42.5 400.5 Z M 246.5 341.5 C 246.33 342.5 249.5 348.33 251.5 350.5 C 253.5 352.67 258.33 355.5 258.5 354.5 C 258.67 353.5 254.5 346.67 252.5 344.5 C 250.5 342.33 246.67 340.5 246.5 341.5 Z M 207.5 278.5 C 206.67 278 207.5 283.83 208.5 285.5 C 209.5 287.17 213.67 289.67 213.5 288.5 C 213.33 287.33 208.33 279 207.5 278.5 Z M 84.5 218.5 C 84.67 217.33 82.17 217.33 81.5 218.5 C 80.83 219.67 80 225.5 80.5 225.5 C 81 225.5 84.33 219.67 84.5 218.5 Z M 103.5 180.5 C 102.83 180.83 97 190 96.5 191.5 C 96 193 99.33 191.33 100.5 189.5 C 101.67 187.67 104.17 180.17 103.5 180.5 Z"/>
  </g>
</svg>
