<svg xmlns="http://www.w3.org/2000/svg" width="899" height="921" viewBox="0 0 899 921" role="img" aria-labelledby="title desc">
  <title id="title">Nur logo loop frame 036</title>
  <desc id="desc">Vector-traced frame from Nur_Logo_Loop_02.gif.</desc>
  <g id="frame-036" stroke-linejoin="round" stroke-linecap="round" stroke-width="0.5" shape-rendering="geometricPrecision">
    <path fill="#008136" stroke="#008136" d="M 228.5 76.5 C 220.17 82.67 194.83 100.67 181.5 113.5 C 168.17 126.33 161.83 133.67 148.5 153.5 C 135.17 173.33 113.67 207.5 101.5 232.5 C 89.33 257.5 83.17 278.17 75.5 303.5 C 67.83 328.83 60.17 360.67 55.5 384.5 C 50.83 408.33 47.83 422.17 47.5 446.5 C 47.17 470.83 52 516 53.5 530.5 C 55 545 55.83 529.33 56.5 533.5 C 57.17 537.67 55 542 57.5 555.5 C 60 569 65 595.5 71.5 614.5 C 78 633.5 85.17 649.17 96.5 669.5 C 107.83 689.83 124.17 716 139.5 736.5 C 154.83 757 171.67 776 188.5 792.5 C 205.33 809 222.67 823.17 240.5 835.5 C 258.33 847.83 273.83 856.83 295.5 866.5 C 317.17 876.17 345.83 886.67 370.5 893.5 C 395.17 900.33 423 905.17 443.5 907.5 C 464 909.83 487 912.83 493.5 907.5 C 500 902.17 485.17 886.17 482.5 875.5 C 479.83 864.83 478.83 865.5 477.5 843.5 C 476.17 821.5 476.17 773.5 474.5 743.5 C 472.83 713.5 470.5 687 467.5 663.5 C 464.5 640 460.83 620.17 456.5 602.5 C 452.17 584.83 448.17 572.67 441.5 557.5 C 434.83 542.33 425 525.17 416.5 511.5 C 408 497.83 407.83 493.5 390.5 475.5 C 373.17 457.5 334.33 425.17 312.5 403.5 C 290.67 381.83 273.67 363.67 259.5 345.5 C 245.33 327.33 235.33 311.5 227.5 294.5 C 219.67 277.5 215.5 252.17 212.5 243.5 C 209.5 234.83 209.67 243.33 209.5 242.5 C 209.33 241.67 212.33 243.5 211.5 238.5 C 210.67 233.5 204.83 231.33 204.5 212.5 C 204.17 193.67 208.17 140.17 209.5 125.5 C 210.83 110.83 210.5 129.33 212.5 124.5 C 214.5 119.67 218.33 103.83 221.5 96.5 C 224.67 89.17 229.83 83.83 231.5 80.5 C 233.17 77.17 232 77.17 231.5 76.5 C 231 75.83 236.83 70.33 228.5 76.5 Z"/>
    <path fill="#83bb26" stroke="#83bb26" d="M 454.5 481.5 C 452.83 478.5 422 504.33 417.5 512.5 C 413 520.67 421.33 535.67 427.5 530.5 C 433.67 525.33 456.17 484.5 454.5 481.5 Z M 620.5 44.5 C 616.17 44 610 41.5 621.5 48.5 C 633 55.5 671.33 74 689.5 86.5 C 707.67 99 719.33 109.5 730.5 123.5 C 741.67 137.5 750.5 155 756.5 170.5 C 762.5 186 765 203.83 766.5 216.5 C 768 229.17 766.83 237.17 765.5 246.5 C 764.17 255.83 761.17 265 758.5 272.5 C 755.83 280 753.5 285 749.5 291.5 C 745.5 298 740.33 304.67 734.5 311.5 C 728.67 318.33 723.83 324.17 714.5 332.5 C 705.17 340.83 696 349.83 678.5 361.5 C 661 373.17 618.17 387 609.5 402.5 C 600.83 418 622.17 439 626.5 454.5 C 630.83 470 633.17 478.67 635.5 495.5 C 637.83 512.33 640.17 538 640.5 555.5 C 640.83 573 629.67 597.5 637.5 600.5 C 645.33 603.5 669.5 585 687.5 573.5 C 705.5 562 729.83 544 745.5 531.5 C 761.17 519 771.33 509.17 781.5 498.5 C 791.67 487.83 797.67 480.83 806.5 467.5 C 815.33 454.17 827.17 434.17 834.5 418.5 C 841.83 402.83 846.83 387.17 850.5 373.5 C 854.17 359.83 855.33 352.33 856.5 336.5 C 857.67 320.67 858.5 294.83 857.5 278.5 C 856.5 262.17 855 252.83 850.5 238.5 C 846 224.17 838.33 206.5 830.5 192.5 C 822.67 178.5 814.67 168 803.5 154.5 C 792.33 141 775.17 122.17 763.5 111.5 C 751.83 100.83 744.33 97 733.5 90.5 C 722.67 84 712.83 79 698.5 72.5 C 684.17 66 660.5 56.17 647.5 51.5 C 634.5 46.83 624.83 45 620.5 44.5 Z"/>
    <path fill="#6ab12d" stroke="#6ab12d" d="M 460.5 150.5 C 455.83 149.67 482 180.33 489.5 195.5 C 497 210.67 502 224.83 505.5 241.5 C 509 258.17 510.17 276.83 510.5 295.5 C 510.83 314.17 509.5 336.33 507.5 353.5 C 505.5 370.67 511.5 369.83 498.5 398.5 C 485.5 427.17 441.5 504.17 429.5 525.5 C 417.5 546.83 428.33 528.5 426.5 526.5 C 424.67 524.5 420.17 515.17 418.5 513.5 C 416.83 511.83 414.5 513 416.5 516.5 C 418.5 520 423 540.67 430.5 534.5 C 438 528.33 448.83 493.17 461.5 479.5 C 474.17 465.83 482 464.5 506.5 452.5 C 531 440.5 587.83 403.33 608.5 407.5 C 629.17 411.67 625.5 454.67 630.5 477.5 C 635.5 500.33 637.67 523.83 638.5 544.5 C 639.33 565.17 645 587.5 635.5 601.5 C 626 615.5 596.67 620 581.5 628.5 C 566.33 637 556.83 643.17 544.5 652.5 C 532.17 661.83 517.83 674 507.5 684.5 C 497.17 695 487.67 705.83 482.5 715.5 C 477.33 725.17 477.5 730.83 476.5 742.5 C 475.5 754.17 473 759.17 476.5 785.5 C 480 811.83 495.5 883.5 497.5 900.5 C 499.5 917.5 490.5 889.17 488.5 887.5 C 486.5 885.83 484.83 887.33 485.5 890.5 C 486.17 893.67 490.67 903.67 492.5 906.5 C 494.33 909.33 485.17 923 496.5 907.5 C 507.83 892 543.67 840.33 560.5 813.5 C 577.33 786.67 588 767 597.5 746.5 C 607 726 610.5 715.67 617.5 690.5 C 624.5 665.33 635.5 619.17 639.5 595.5 C 643.5 571.83 642 565.5 641.5 548.5 C 641 531.5 639.5 511.83 636.5 493.5 C 633.5 475.17 629.33 458.33 623.5 438.5 C 617.67 418.67 611.17 399.5 601.5 374.5 C 591.83 349.5 579.5 317.5 565.5 288.5 C 551.5 259.5 535 223.5 517.5 200.5 C 500 177.5 465.17 151.33 460.5 150.5 Z"/>
    <path fill="#009f3a" stroke="#009f3a" d="M 609.5 405.5 C 589.17 404.83 529.5 439.33 504.5 451.5 C 479.5 463.67 471.83 465.17 459.5 478.5 C 447.17 491.83 436.17 523 430.5 531.5 C 424.83 540 422.83 522.33 425.5 529.5 C 428.17 536.67 440.33 556.17 446.5 574.5 C 452.67 592.83 458 611 462.5 639.5 C 467 668 471.17 711.17 473.5 745.5 C 475.83 779.83 475.17 823.5 476.5 845.5 C 477.83 867.5 478.83 867.17 481.5 877.5 C 484.17 887.83 490.33 903.33 492.5 907.5 C 494.67 911.67 493.5 903.33 494.5 902.5 C 495.5 901.67 500.67 917.67 498.5 902.5 C 496.33 887.33 485.17 833.83 481.5 811.5 C 477.83 789.17 477.17 779.67 476.5 768.5 C 475.83 757.33 476.33 753 477.5 744.5 C 478.67 736 478.33 727.17 483.5 717.5 C 488.67 707.83 498 697.17 508.5 686.5 C 519 675.83 534 663 546.5 653.5 C 559 644 568.5 637.83 583.5 629.5 C 598.5 621.17 627.17 618 636.5 603.5 C 645.83 589 639.67 560 639.5 542.5 C 639.33 525 637.67 513 635.5 498.5 C 633.33 484 630.83 471 626.5 455.5 C 622.17 440 629.83 406.17 609.5 405.5 Z"/>
    <path fill="#007a39" stroke="#007a39" d="M 427.5 540.5 C 423.17 552.5 409.67 595.67 405.5 612.5 C 401.33 629.33 402.5 630 402.5 641.5 C 402.5 653 403.17 667.67 405.5 681.5 C 407.83 695.33 412 710 416.5 724.5 C 421 739 423.33 746.67 432.5 768.5 C 441.67 790.33 463.83 839.5 471.5 855.5 C 479.17 871.5 478.5 886.33 478.5 864.5 C 478.5 842.67 474.17 761.83 471.5 724.5 C 468.83 687.17 466.33 664.5 462.5 640.5 C 458.67 616.5 453.67 597.17 448.5 580.5 C 443.33 563.83 435 547.17 431.5 540.5 C 428 533.83 431.83 528.5 427.5 540.5 Z"/>
    <path fill="#007d38" stroke="#007d38" d="M 115.5 699.5 C 115.83 700.67 129.17 719.83 131.5 722.5 C 133.83 725.17 132.17 719.33 129.5 715.5 C 126.83 711.67 115.17 698.33 115.5 699.5 Z M 416.5 517.5 C 408 517.17 396.33 541 388.5 553.5 C 380.67 566 374 579.33 369.5 592.5 C 365 605.67 362.5 619.5 361.5 632.5 C 360.5 645.5 361 656.67 363.5 670.5 C 366 684.33 370.33 699.17 376.5 715.5 C 382.67 731.83 389.17 748.17 400.5 768.5 C 411.83 788.83 430.33 817.17 444.5 837.5 C 458.67 857.83 479.67 886.5 485.5 890.5 C 491.33 894.5 481 866.5 479.5 861.5 C 478 856.5 476.67 861.83 476.5 860.5 C 476.33 859.17 478.67 854 478.5 853.5 C 478.33 853 481.83 869.17 475.5 857.5 C 469.17 845.83 450.17 806 440.5 783.5 C 430.83 761 423.17 739.83 417.5 722.5 C 411.83 705.17 408.83 691.17 406.5 679.5 C 404.17 667.83 403.5 663.33 403.5 652.5 C 403.5 641.67 404.17 628 406.5 614.5 C 408.83 601 413.67 583.67 417.5 571.5 C 421.33 559.33 424.33 539.83 429.5 541.5 C 434.67 543.17 446.83 579.17 448.5 581.5 C 450.17 583.83 444.83 566.17 439.5 555.5 C 434.17 544.83 425 517.83 416.5 517.5 Z M 226.5 291.5 C 225.83 291 225.83 295.17 226.5 296.5 C 227.17 297.83 230.5 300.33 230.5 299.5 C 230.5 298.67 227.17 292 226.5 291.5 Z M 85.5 282.5 C 84.83 282.83 80.67 290.33 80.5 291.5 C 80.33 292.67 83.67 291 84.5 289.5 C 85.33 288 86.17 282.17 85.5 282.5 Z M 113.5 212.5 C 112.83 212.83 108.67 219.5 108.5 220.5 C 108.33 221.5 111.67 219.83 112.5 218.5 C 113.33 217.17 114.17 212.17 113.5 212.5 Z"/>
  </g>
</svg>
