<svg xmlns="http://www.w3.org/2000/svg" width="899" height="921" viewBox="0 0 899 921" role="img" aria-labelledby="title desc">
  <title id="title">Nur logo loop frame 096</title>
  <desc id="desc">Vector-traced frame from Nur_Logo_Loop_02.gif.</desc>
  <g id="frame-096" stroke-linejoin="round" stroke-linecap="round" stroke-width="0.5" shape-rendering="geometricPrecision">
    <path fill="#008136" stroke="#008136" d="M 220.5 67.5 C 209.17 78.33 174.5 109.33 154.5 135.5 C 134.5 161.67 114.33 196.5 100.5 224.5 C 86.67 252.5 78.67 277.67 71.5 303.5 C 64.33 329.33 60.83 352.83 57.5 379.5 C 54.17 406.17 50.67 435 51.5 463.5 C 52.33 492 60.17 535.67 62.5 550.5 C 64.83 565.33 65.17 550.83 65.5 552.5 C 65.83 554.17 64.17 559 64.5 560.5 C 64.83 562 67.33 560.83 67.5 561.5 C 67.67 562.17 65.17 562.83 65.5 564.5 C 65.83 566.17 69 569.17 69.5 571.5 C 70 573.83 67.5 572.83 68.5 578.5 C 69.5 584.17 69.33 589.33 75.5 605.5 C 81.67 621.67 95 654.83 105.5 675.5 C 116 696.17 125.33 711 138.5 729.5 C 151.67 748 168.33 769.5 184.5 786.5 C 200.67 803.5 217 818.17 235.5 831.5 C 254 844.83 275.33 856.83 295.5 866.5 C 315.67 876.17 334.5 883 356.5 889.5 C 378.5 896 404.83 902.5 427.5 905.5 C 450.17 908.5 482.5 909 492.5 907.5 C 502.5 906 490 907.17 487.5 896.5 C 485 885.83 479.67 869 477.5 843.5 C 475.33 818 476.17 773.5 474.5 743.5 C 472.83 713.5 470.5 687 467.5 663.5 C 464.5 640 460.83 620.17 456.5 602.5 C 452.17 584.83 447.83 572.17 441.5 557.5 C 435.17 542.83 426 527 418.5 514.5 C 411 502 419 505.83 396.5 482.5 C 374 459.17 308.33 400 283.5 374.5 C 258.67 349 256.83 342 247.5 329.5 C 238.17 317 233.67 311.5 227.5 299.5 C 221.33 287.5 213.83 264.67 210.5 257.5 C 207.17 250.33 209.83 264.17 207.5 256.5 C 205.17 248.83 198.33 227.5 196.5 211.5 C 194.67 195.5 194.67 180 196.5 160.5 C 198.33 141 203.17 109.5 207.5 94.5 C 211.83 79.5 220.33 75 222.5 70.5 C 224.67 66 231.83 56.67 220.5 67.5 Z"/>
    <path fill="#83bb26" stroke="#83bb26" d="M 450.5 488.5 C 449 485.83 422.33 507.5 418.5 514.5 C 414.67 521.5 422.17 534.83 427.5 530.5 C 432.83 526.17 452 491.17 450.5 488.5 Z M 631.5 44.5 C 628.83 45.17 628 46.67 640.5 55.5 C 653 64.33 691.67 86.67 706.5 97.5 C 721.33 108.33 720.33 107.33 729.5 120.5 C 738.67 133.67 754.67 162.83 761.5 176.5 C 768.33 190.17 768.5 194.67 770.5 202.5 C 772.5 210.33 773.17 216.67 773.5 223.5 C 773.83 230.33 773.83 235.67 772.5 243.5 C 771.17 251.33 770.83 259.17 765.5 270.5 C 760.17 281.83 749.33 300 740.5 311.5 C 731.67 323 722.67 330.5 712.5 339.5 C 702.33 348.5 695.83 354.67 679.5 365.5 C 663.17 376.33 622 385.5 614.5 404.5 C 607 423.5 630.17 454 634.5 479.5 C 638.83 505 639.67 536.33 640.5 557.5 C 641.33 578.67 631.17 603.33 639.5 606.5 C 647.83 609.67 673.5 587.67 690.5 576.5 C 707.5 565.33 725.33 552.67 741.5 539.5 C 757.67 526.33 775.83 509.5 787.5 497.5 C 799.17 485.5 802.5 481.17 811.5 467.5 C 820.5 453.83 833.83 431.67 841.5 415.5 C 849.17 399.33 853.83 384.5 857.5 370.5 C 861.17 356.5 862.5 346.5 863.5 331.5 C 864.5 316.5 864.5 295 863.5 280.5 C 862.5 266 861.17 257.33 857.5 244.5 C 853.83 231.67 848 216.17 841.5 203.5 C 835 190.83 829.17 182.17 818.5 168.5 C 807.83 154.83 789.17 133 777.5 121.5 C 765.83 110 758.83 106.33 748.5 99.5 C 738.17 92.67 730.83 88.5 715.5 80.5 C 700.17 72.5 670.5 57.5 656.5 51.5 C 642.5 45.5 634.17 43.83 631.5 44.5 Z"/>
    <path fill="#6ab12d" stroke="#6ab12d" d="M 466.5 140.5 C 461.5 139.17 486 176.67 492.5 192.5 C 499 208.33 502.5 222.17 505.5 235.5 C 508.5 248.83 510.17 253.33 510.5 272.5 C 510.83 291.67 509.83 329.33 507.5 350.5 C 505.17 371.67 509.5 370.17 496.5 399.5 C 483.5 428.83 441.17 505.33 429.5 526.5 C 417.83 547.67 428 528.33 426.5 526.5 C 425 524.67 422 517 420.5 515.5 C 419 514 416.5 514.67 417.5 517.5 C 418.5 520.33 424.33 529.83 426.5 532.5 C 428.67 535.17 426.5 539.67 430.5 533.5 C 434.5 527.33 445.67 503.33 450.5 495.5 C 455.33 487.67 448.33 493.5 459.5 486.5 C 470.67 479.5 492.33 465.83 517.5 453.5 C 542.67 441.17 591.33 407 610.5 412.5 C 629.67 418 627.83 462.67 632.5 486.5 C 637.17 510.33 638 535.33 638.5 555.5 C 639 575.67 645.33 594.17 635.5 607.5 C 625.67 620.83 594.33 627.33 579.5 635.5 C 564.67 643.67 557 649 546.5 656.5 C 536 664 525.33 672.67 516.5 680.5 C 507.67 688.33 499 697.17 493.5 703.5 C 488 709.83 486.5 710.33 483.5 718.5 C 480.5 726.67 476.83 741.67 475.5 752.5 C 474.17 763.33 472 758.5 475.5 783.5 C 479 808.5 492.5 882.5 496.5 902.5 C 500.5 922.5 486.17 922.67 499.5 903.5 C 512.83 884.33 558.67 817.33 576.5 787.5 C 594.33 757.67 598.17 745.17 606.5 724.5 C 614.83 703.83 621 683.67 626.5 663.5 C 632 643.33 637.17 625.5 639.5 603.5 C 641.83 581.5 641.17 552.5 640.5 531.5 C 639.83 510.5 638.17 493.83 635.5 477.5 C 632.83 461.17 631 454 624.5 433.5 C 618 413 606.33 379.67 596.5 354.5 C 586.67 329.33 577.83 308.17 565.5 282.5 C 553.17 256.83 539 224.17 522.5 200.5 C 506 176.83 471.5 141.83 466.5 140.5 Z"/>
    <path fill="#009f3a" stroke="#009f3a" d="M 611.5 410.5 C 593 410.17 538.67 441.67 515.5 452.5 C 492.33 463.33 483.17 469.17 472.5 475.5 C 461.83 481.83 458.83 481 451.5 490.5 C 444.17 500 432.83 526 428.5 532.5 C 424.17 539 422.5 522.5 425.5 529.5 C 428.5 536.5 440.33 556.17 446.5 574.5 C 452.67 592.83 458 611 462.5 639.5 C 467 668 471.17 711.17 473.5 745.5 C 475.83 779.83 474.33 820 476.5 845.5 C 478.67 871 484 888.17 486.5 898.5 C 489 908.83 489.67 906.17 491.5 907.5 C 493.33 908.83 496.33 907.5 497.5 906.5 C 498.67 905.5 502 922.33 498.5 901.5 C 495 880.67 480 807.33 476.5 781.5 C 473 755.67 476.17 756.67 477.5 746.5 C 478.83 736.33 481.67 727.33 484.5 720.5 C 487.33 713.67 486.5 714 494.5 705.5 C 502.5 697 518 681 532.5 669.5 C 547 658 564.5 646.17 581.5 636.5 C 598.5 626.83 625.17 616.67 634.5 611.5 C 643.83 606.33 636.67 615.17 637.5 605.5 C 638.33 595.83 639.83 571.5 639.5 553.5 C 639.17 535.5 637.67 514 635.5 497.5 C 633.33 481 630.5 469 626.5 454.5 C 622.5 440 630 410.83 611.5 410.5 Z"/>
    <path fill="#007a39" stroke="#007a39" d="M 81.5 620.5 C 82 622.5 87 632.5 87.5 632.5 C 88 632.5 85.5 622.5 84.5 620.5 C 83.5 618.5 81 618.5 81.5 620.5 Z M 425.5 533.5 C 421.17 536.67 415.17 555.17 410.5 569.5 C 405.83 583.83 400.17 606.33 397.5 619.5 C 394.83 632.67 394.67 638.67 394.5 648.5 C 394.33 658.33 392.33 661 396.5 678.5 C 400.67 696 404.83 718.5 419.5 753.5 C 434.17 788.5 475.17 873.67 484.5 888.5 C 493.83 903.33 477.67 869.83 475.5 842.5 C 473.33 815.17 473.67 758.17 471.5 724.5 C 469.33 690.83 466.33 664.5 462.5 640.5 C 458.67 616.5 452.83 595.5 448.5 580.5 C 444.17 565.5 440.33 558.33 436.5 550.5 C 432.67 542.67 429.83 530.33 425.5 533.5 Z"/>
    <path fill="#007d38" stroke="#007d38" d="M 473.5 829.5 C 473.67 832.5 477 850.83 477.5 851.5 C 478 852.17 477.17 837.17 476.5 833.5 C 475.83 829.83 473.33 826.5 473.5 829.5 Z M 226.5 821.5 C 224.67 820.67 225.5 824 227.5 825.5 C 229.5 827 238.67 831.17 238.5 830.5 C 238.33 829.83 228.33 822.33 226.5 821.5 Z M 456.5 618.5 C 457 622.17 462 643 462.5 643.5 C 463 644 460.5 625.67 459.5 621.5 C 458.5 617.33 456 614.83 456.5 618.5 Z M 80.5 617.5 C 80.83 618.83 85.83 627.17 86.5 627.5 C 87.17 627.83 85.5 621.17 84.5 619.5 C 83.5 617.83 80.17 616.17 80.5 617.5 Z M 63.5 549.5 C 63.83 551.67 68 563.33 68.5 563.5 C 69 563.67 67.33 552.83 66.5 550.5 C 65.67 548.17 63.17 547.33 63.5 549.5 Z M 417.5 519.5 C 411.5 522.33 400.33 537.83 392.5 549.5 C 384.67 561.17 375.83 576 370.5 589.5 C 365.17 603 361.67 616 360.5 630.5 C 359.33 645 361.83 664.17 363.5 676.5 C 365.17 688.83 366.5 693.17 370.5 704.5 C 374.5 715.83 378.5 726.5 387.5 744.5 C 396.5 762.5 417.67 801 424.5 812.5 C 431.33 824 425.67 809.5 428.5 813.5 C 431.33 817.5 432 823.5 441.5 836.5 C 451 849.5 479.17 887.33 485.5 891.5 C 491.83 895.67 481 865.17 479.5 861.5 C 478 857.83 486.33 887.83 476.5 869.5 C 466.67 851.17 433.67 783.67 420.5 751.5 C 407.33 719.33 401.67 693.33 397.5 676.5 C 393.33 659.67 395.33 659.67 395.5 650.5 C 395.67 641.33 395.83 634.67 398.5 621.5 C 401.17 608.33 406.83 585.33 411.5 571.5 C 416.17 557.67 421.5 539.33 426.5 538.5 C 431.5 537.67 436.67 555.17 441.5 566.5 C 446.33 577.83 455.83 608.33 455.5 606.5 C 455.17 604.67 444 567.83 439.5 555.5 C 435 543.17 432.17 538.5 428.5 532.5 C 424.83 526.5 423.5 516.67 417.5 519.5 Z M 82.5 276.5 C 81.83 276.83 78.5 283.5 78.5 284.5 C 78.5 285.5 81.83 283.83 82.5 282.5 C 83.17 281.17 83.17 276.17 82.5 276.5 Z M 205.5 251.5 C 205 251.33 205.83 257.17 206.5 258.5 C 207.17 259.83 209.67 260.67 209.5 259.5 C 209.33 258.33 206 251.67 205.5 251.5 Z M 201.5 235.5 C 200.83 235.17 200.83 240.17 201.5 241.5 C 202.17 242.83 205.5 244.5 205.5 243.5 C 205.5 242.5 202.17 235.83 201.5 235.5 Z M 110.5 210.5 C 109.83 210.83 105.67 217.5 105.5 218.5 C 105.33 219.5 108.67 217.83 109.5 216.5 C 110.33 215.17 111.17 210.17 110.5 210.5 Z M 190.5 97.5 C 187.83 99.67 172.83 115.5 172.5 116.5 C 172.17 117.5 185.5 106.67 188.5 103.5 C 191.5 100.33 193.17 95.33 190.5 97.5 Z M 211.5 89.5 C 212 87.33 207.83 89.83 206.5 92.5 C 205.17 95.17 202.67 106 203.5 105.5 C 204.33 105 211 91.67 211.5 89.5 Z M 218.5 73.5 C 218.83 72.17 215.5 72.17 214.5 73.5 C 213.5 74.83 211.83 81.5 212.5 81.5 C 213.17 81.5 218.17 74.83 218.5 73.5 Z"/>
  </g>
</svg>
