<svg xmlns="http://www.w3.org/2000/svg" width="899" height="921" viewBox="0 0 899 921" role="img" aria-labelledby="title desc">
  <title id="title">Nur logo loop frame 039</title>
  <desc id="desc">Vector-traced frame from Nur_Logo_Loop_02.gif.</desc>
  <g id="frame-039" stroke-linejoin="round" stroke-linecap="round" stroke-width="0.5" shape-rendering="geometricPrecision">
    <path fill="#008136" stroke="#008136" d="M 226.5 72.5 C 218.33 78.67 191 101.83 179.5 112.5 C 168 123.17 171 116.17 157.5 136.5 C 144 156.83 113 204.83 98.5 234.5 C 84 264.17 78.83 284.17 70.5 314.5 C 62.17 344.83 52.5 389.67 48.5 416.5 C 44.5 443.33 46.33 464.67 46.5 475.5 C 46.67 486.33 49.17 477.5 49.5 481.5 C 49.83 485.5 47.5 488.5 48.5 499.5 C 49.5 510.5 51.67 528.33 55.5 547.5 C 59.33 566.67 64.67 594.17 71.5 614.5 C 78.33 634.83 85.17 649.17 96.5 669.5 C 107.83 689.83 124.17 716 139.5 736.5 C 154.83 757 171.67 776 188.5 792.5 C 205.33 809 222.67 823.17 240.5 835.5 C 258.33 847.83 273.83 856.83 295.5 866.5 C 317.17 876.17 345.83 886.67 370.5 893.5 C 395.17 900.33 423 905.17 443.5 907.5 C 464 909.83 486.67 911.67 493.5 907.5 C 500.33 903.33 487.17 893.17 484.5 882.5 C 481.83 871.83 479.17 866.83 477.5 843.5 C 475.83 820.17 476.17 772.5 474.5 742.5 C 472.83 712.5 470.5 686.83 467.5 663.5 C 464.5 640.17 460.83 620.17 456.5 602.5 C 452.17 584.83 448.17 572.67 441.5 557.5 C 434.83 542.33 425 525.17 416.5 511.5 C 408 497.83 407.83 493.5 390.5 475.5 C 373.17 457.5 333.17 423.67 312.5 403.5 C 291.83 383.33 280.33 372 266.5 354.5 C 252.67 337 238.5 315.17 229.5 298.5 C 220.5 281.83 215.83 262 212.5 254.5 C 209.17 247 211.83 264.83 209.5 253.5 C 207.17 242.17 199.83 198.17 198.5 186.5 C 197.17 174.83 199.67 196.67 201.5 183.5 C 203.33 170.33 205 125.5 209.5 107.5 C 214 89.5 225.67 81.33 228.5 75.5 C 231.33 69.67 234.67 66.33 226.5 72.5 Z"/>
    <path fill="#83bb26" stroke="#83bb26" d="M 452.5 484.5 C 451 481.5 424.17 507 418.5 512.5 C 412.83 518 417 514.5 418.5 517.5 C 420 520.5 421.83 536 427.5 530.5 C 433.17 525 454 487.5 452.5 484.5 Z M 624.5 45.5 C 621.5 45.5 612.67 41.83 624.5 49.5 C 636.33 57.17 678.17 79.5 695.5 91.5 C 712.83 103.5 718 107.83 728.5 121.5 C 739 135.17 751.67 157.17 758.5 173.5 C 765.33 189.83 767.83 207.5 769.5 219.5 C 771.17 231.5 769.83 236.83 768.5 245.5 C 767.17 254.17 767.17 260 761.5 271.5 C 755.83 283 742.67 303.67 734.5 314.5 C 726.33 325.33 723 327.5 712.5 336.5 C 702 345.5 688.33 357.33 671.5 368.5 C 654.67 379.67 617.5 383.17 611.5 403.5 C 605.5 423.83 630.67 466.83 635.5 490.5 C 640.33 514.17 639.83 526.67 640.5 545.5 C 641.17 564.33 632.17 598.17 639.5 603.5 C 646.83 608.83 668.5 587.83 684.5 577.5 C 700.5 567.17 721 552.67 735.5 541.5 C 750 530.33 760.17 521.67 771.5 510.5 C 782.83 499.33 793.67 487.67 803.5 474.5 C 813.33 461.33 823 445.67 830.5 431.5 C 838 417.33 844 402.67 848.5 389.5 C 853 376.33 855.5 367.83 857.5 352.5 C 859.5 337.17 860.83 314.83 860.5 297.5 C 860.17 280.17 858.67 263.17 855.5 248.5 C 852.33 233.83 848.33 223.17 841.5 209.5 C 834.67 195.83 826.17 181.67 814.5 166.5 C 802.83 151.33 782.5 129.5 771.5 118.5 C 760.5 107.5 760.33 107.83 748.5 100.5 C 736.67 93.17 718.17 83 700.5 74.5 C 682.83 66 655.17 54.33 642.5 49.5 C 629.83 44.67 627.5 45.5 624.5 45.5 Z"/>
    <path fill="#6ab12d" stroke="#6ab12d" d="M 461.5 145.5 C 456.5 144.17 482.5 178 489.5 192.5 C 496.5 207 500.17 219.17 503.5 232.5 C 506.83 245.83 508.83 253 509.5 272.5 C 510.17 292 509.17 329.33 507.5 349.5 C 505.83 369.67 504.33 379 499.5 393.5 C 494.67 408 490.17 414.5 478.5 436.5 C 466.83 458.5 438.17 510.5 429.5 525.5 C 420.83 540.5 428.17 528.5 426.5 526.5 C 424.83 524.5 421 515 419.5 513.5 C 418 512 416.33 514.33 417.5 517.5 C 418.67 520.67 424.17 529.67 426.5 532.5 C 428.83 535.33 426.5 542.17 431.5 534.5 C 436.5 526.83 450.83 495.83 456.5 486.5 C 462.17 477.17 455.67 484.5 465.5 478.5 C 475.33 472.5 491.33 462.17 515.5 450.5 C 539.67 438.83 591 403.17 610.5 408.5 C 630 413.83 627.67 457.33 632.5 482.5 C 637.33 507.67 639 539.17 639.5 559.5 C 640 579.83 645.17 592.67 635.5 604.5 C 625.83 616.33 596.5 622.33 581.5 630.5 C 566.5 638.67 559.83 642.17 545.5 653.5 C 531.17 664.83 506 687.83 495.5 698.5 C 485 709.17 485.67 710.33 482.5 717.5 C 479.33 724.67 477.67 731 476.5 741.5 C 475.33 752 472.33 754.33 475.5 780.5 C 478.67 806.67 493.67 881.67 495.5 898.5 C 497.33 915.33 488.33 883.67 486.5 881.5 C 484.67 879.33 483.5 881.33 484.5 885.5 C 485.5 889.67 490.5 902.83 492.5 906.5 C 494.5 910.17 482.5 927.33 496.5 907.5 C 510.5 887.67 558.67 816.83 576.5 787.5 C 594.33 758.17 595.5 751.5 603.5 731.5 C 611.5 711.5 618.5 689.33 624.5 667.5 C 630.5 645.67 636.67 621.17 639.5 600.5 C 642.33 579.83 642 562.17 641.5 543.5 C 641 524.83 638.83 504.33 636.5 488.5 C 634.17 472.67 634 469.67 627.5 448.5 C 621 427.33 607.5 387.83 597.5 361.5 C 587.5 335.17 580.5 317.33 567.5 290.5 C 554.5 263.67 537.17 224.67 519.5 200.5 C 501.83 176.33 466.5 146.83 461.5 145.5 Z"/>
    <path fill="#009f3a" stroke="#009f3a" d="M 612.5 407.5 C 592.17 400.33 538.33 437.83 513.5 449.5 C 488.67 461.17 473.17 471.67 463.5 477.5 C 453.83 483.33 460.83 475.67 455.5 484.5 C 450.17 493.33 436 522.5 431.5 530.5 C 427 538.5 429.5 532.67 428.5 532.5 C 427.5 532.33 422.5 522.5 425.5 529.5 C 428.5 536.5 440.33 556.17 446.5 574.5 C 452.67 592.83 458 611.17 462.5 639.5 C 467 667.83 471.17 710.17 473.5 744.5 C 475.83 778.83 474.67 821.67 476.5 845.5 C 478.33 869.33 482.5 880.17 484.5 887.5 C 486.5 894.83 488.17 888.5 488.5 889.5 C 488.83 890.5 486.17 892.83 486.5 893.5 C 486.83 894.17 490.33 892.83 490.5 893.5 C 490.67 894.17 487.17 895.17 487.5 897.5 C 487.83 899.83 491.33 906.17 492.5 907.5 C 493.67 908.83 494.67 906.83 494.5 905.5 C 494.33 904.17 491 900.17 491.5 899.5 C 492 898.83 500 921.67 497.5 901.5 C 495 881.33 479.83 804.83 476.5 778.5 C 473.17 752.17 476.33 753.33 477.5 743.5 C 478.67 733.67 480.33 726.67 483.5 719.5 C 486.67 712.33 487.17 710.33 496.5 700.5 C 505.83 690.67 526.17 671.33 539.5 660.5 C 552.83 649.67 560.17 645 576.5 635.5 C 592.83 626 626.83 616.5 637.5 603.5 C 648.17 590.5 640.83 576 640.5 557.5 C 640.17 539 640.17 517.5 635.5 492.5 C 630.83 467.5 632.83 414.67 612.5 407.5 Z"/>
    <path fill="#007a39" stroke="#007a39" d="M 428.5 540.5 C 424.5 551 411.67 585.83 407.5 603.5 C 403.33 621.17 403.83 634.33 403.5 646.5 C 403.17 658.67 403.33 664 405.5 676.5 C 407.67 689 411.33 705 416.5 721.5 C 421.67 738 426.67 752.33 436.5 775.5 C 446.33 798.67 468.5 846.17 475.5 860.5 C 482.5 874.83 479.17 884.17 478.5 861.5 C 477.83 838.83 474.17 761.33 471.5 724.5 C 468.83 687.67 466.33 664.5 462.5 640.5 C 458.67 616.5 453.67 597.17 448.5 580.5 C 443.33 563.83 434.83 547.17 431.5 540.5 C 428.17 533.83 432.5 530 428.5 540.5 Z M 85.5 275.5 C 85 275.5 81.67 282.17 81.5 283.5 C 81.33 284.83 83.83 284.83 84.5 283.5 C 85.17 282.17 86 275.5 85.5 275.5 Z"/>
    <path fill="#007d38" stroke="#007d38" d="M 115.5 699.5 C 115.83 700.67 129.17 719.83 131.5 722.5 C 133.83 725.17 132.17 719.33 129.5 715.5 C 126.83 711.67 115.17 698.33 115.5 699.5 Z M 62.5 579.5 C 62.5 580.5 65.83 587.17 66.5 587.5 C 67.17 587.83 67.17 582.83 66.5 581.5 C 65.83 580.17 62.5 578.5 62.5 579.5 Z M 416.5 518.5 C 411 524.83 394.67 543.33 386.5 556.5 C 378.33 569.67 371.83 585 367.5 597.5 C 363.17 610 361 618.33 360.5 631.5 C 360 644.67 360.33 658.67 364.5 676.5 C 368.67 694.33 376.5 717.83 385.5 738.5 C 394.5 759.17 405.67 779.5 418.5 800.5 C 431.33 821.5 451.17 849.17 462.5 864.5 C 473.83 879.83 484.17 893.5 486.5 892.5 C 488.83 891.5 477.83 865 476.5 858.5 C 475.17 852 478.83 854.33 478.5 853.5 C 478.17 852.67 474.67 853.83 474.5 853.5 C 474.33 853.17 477.17 854.83 477.5 851.5 C 477.83 848.17 477 833.33 476.5 833.5 C 476 833.67 481 862.5 474.5 852.5 C 468 842.5 448.5 801.17 437.5 773.5 C 426.5 745.83 413.83 704.17 408.5 686.5 C 403.17 668.83 405.83 679 405.5 667.5 C 405.17 656 404.5 633.33 406.5 617.5 C 408.5 601.67 413.67 584.83 417.5 572.5 C 421.33 560.17 424.33 542 429.5 543.5 C 434.67 545 448.67 583.17 448.5 581.5 C 448.33 579.83 433.33 544 428.5 533.5 C 423.67 523 421.5 521 419.5 518.5 C 417.5 516 422 512.17 416.5 518.5 Z M 78.5 297.5 C 77.83 297.83 73.67 306.17 73.5 307.5 C 73.33 308.83 76.67 307.17 77.5 305.5 C 78.33 303.83 79.17 297.17 78.5 297.5 Z M 104.5 227.5 C 104 227.5 98.17 237.5 97.5 239.5 C 96.83 241.5 99.33 241.5 100.5 239.5 C 101.67 237.5 105 227.5 104.5 227.5 Z M 127.5 188.5 C 128.33 186.17 126.33 186.17 124.5 188.5 C 122.67 190.83 117.33 200.17 116.5 202.5 C 115.67 204.83 117.67 204.83 119.5 202.5 C 121.33 200.17 126.67 190.83 127.5 188.5 Z M 140.5 166.5 C 139.83 166.83 133.17 176.83 132.5 178.5 C 131.83 180.17 135.17 178.5 136.5 176.5 C 137.83 174.5 141.17 166.17 140.5 166.5 Z M 150.5 150.5 C 149.67 150.83 143.83 159.17 143.5 160.5 C 143.17 161.83 147.33 160.17 148.5 158.5 C 149.67 156.83 151.33 150.17 150.5 150.5 Z M 205.5 91.5 C 204.67 91.67 197.17 98.33 196.5 99.5 C 195.83 100.67 200 99.83 201.5 98.5 C 203 97.17 206.33 91.33 205.5 91.5 Z M 225.5 77.5 C 225.83 76.33 222.5 78 221.5 79.5 C 220.5 81 218.83 86.83 219.5 86.5 C 220.17 86.17 225.17 78.67 225.5 77.5 Z"/>
  </g>
</svg>
