<svg xmlns="http://www.w3.org/2000/svg" width="899" height="921" viewBox="0 0 899 921" role="img" aria-labelledby="title desc">
  <title id="title">Nur logo loop frame 017</title>
  <desc id="desc">Vector-traced frame from Nur_Logo_Loop_02.gif.</desc>
  <g id="frame-017" stroke-linejoin="round" stroke-linecap="round" stroke-width="0.5" shape-rendering="geometricPrecision">
    <path fill="#008136" stroke="#008136" d="M 229.5 78.5 C 220.17 84.67 192.5 104 178.5 117.5 C 164.5 131 158.17 140.33 145.5 159.5 C 132.83 178.67 114 208.33 102.5 232.5 C 91 256.67 83.5 278.5 76.5 304.5 C 69.5 330.5 63.83 361 60.5 388.5 C 57.17 416 55.83 443.33 56.5 469.5 C 57.17 495.67 60.5 521.33 64.5 545.5 C 68.5 569.67 72.67 591.5 80.5 614.5 C 88.33 637.5 100 662 111.5 683.5 C 123 705 138.17 727.33 149.5 743.5 C 160.83 759.67 170 769.83 179.5 780.5 C 189 791.17 196 798.17 206.5 807.5 C 217 816.83 227.67 826.67 242.5 836.5 C 257.33 846.33 274.17 857 295.5 866.5 C 316.83 876 345.83 886.67 370.5 893.5 C 395.17 900.33 423 905.17 443.5 907.5 C 464 909.83 486.67 911.67 493.5 907.5 C 500.33 903.33 487.17 893.17 484.5 882.5 C 481.83 871.83 479.17 865.67 477.5 843.5 C 475.83 821.33 476.17 779.5 474.5 749.5 C 472.83 719.5 470.5 688 467.5 663.5 C 464.5 639 460.83 620.17 456.5 602.5 C 452.17 584.83 448.17 572.67 441.5 557.5 C 434.83 542.33 425 525.17 416.5 511.5 C 408 497.83 407.83 493.5 390.5 475.5 C 373.17 457.5 332.17 422.5 312.5 403.5 C 292.83 384.5 285.83 378.33 272.5 361.5 C 259.17 344.67 241.33 317.83 232.5 302.5 C 223.67 287.17 222.17 275.17 219.5 269.5 C 216.83 263.83 216.83 269.67 216.5 268.5 C 216.17 267.33 218.17 266.17 217.5 262.5 C 216.83 258.83 213.83 249.33 212.5 246.5 C 211.17 243.67 209.67 246.17 209.5 245.5 C 209.33 244.83 212.67 247.33 211.5 242.5 C 210.33 237.67 204 223.83 202.5 216.5 C 201 209.17 201.17 209.83 202.5 198.5 C 203.83 187.17 209.33 159 210.5 148.5 C 211.67 138 209.17 137.83 209.5 135.5 C 209.83 133.17 212.17 135.5 212.5 134.5 C 212.83 133.5 209.33 136.67 211.5 129.5 C 213.67 122.33 221.67 99.67 225.5 91.5 C 229.33 83.33 233.83 82.67 234.5 80.5 C 235.17 78.33 238.83 72.33 229.5 78.5 Z"/>
    <path fill="#83bb26" stroke="#83bb26" d="M 455.5 479.5 C 454 476.5 422.33 503.17 417.5 511.5 C 412.67 519.83 420.17 534.83 426.5 529.5 C 432.83 524.17 457 482.5 455.5 479.5 Z M 618.5 44.5 C 627.17 50.67 668.67 71.17 687.5 84.5 C 706.33 97.83 721.5 113.67 731.5 124.5 C 741.5 135.33 743.33 141.67 747.5 149.5 C 751.67 157.33 753.5 159.33 756.5 171.5 C 759.5 183.67 764.33 209.5 765.5 222.5 C 766.67 235.5 764.83 241.33 763.5 249.5 C 762.17 257.67 762.5 261.17 757.5 271.5 C 752.5 281.83 742 300.33 733.5 311.5 C 725 322.67 716.33 329.83 706.5 338.5 C 696.67 347.17 690.67 353 674.5 363.5 C 658.33 374 617.5 386.5 609.5 401.5 C 601.5 416.5 622.17 438.17 626.5 453.5 C 630.83 468.83 633.17 478.67 635.5 493.5 C 637.83 508.33 640.17 524.83 640.5 542.5 C 640.83 560.17 630.17 594.17 637.5 599.5 C 644.83 604.83 666.5 586 684.5 574.5 C 702.5 563 729.5 543.17 745.5 530.5 C 761.5 517.83 769.17 511 780.5 498.5 C 791.83 486 804.33 469.67 813.5 455.5 C 822.67 441.33 829.33 428.17 835.5 413.5 C 841.67 398.83 847.17 381.33 850.5 367.5 C 853.83 353.67 854.67 346.5 855.5 330.5 C 856.33 314.5 856.67 287.33 855.5 271.5 C 854.33 255.67 852.67 248.33 848.5 235.5 C 844.33 222.67 838.67 208.67 830.5 194.5 C 822.33 180.33 811.83 165.33 799.5 150.5 C 787.17 135.67 768.5 116.17 756.5 105.5 C 744.5 94.83 739.5 93.17 727.5 86.5 C 715.5 79.83 699.83 72 684.5 65.5 C 669.17 59 646.5 51 635.5 47.5 C 624.5 44 609.83 38.33 618.5 44.5 Z"/>
    <path fill="#6ab12d" stroke="#6ab12d" d="M 459.5 152.5 C 454 150.17 477.83 174.67 485.5 189.5 C 493.17 204.33 501.33 224.17 505.5 241.5 C 509.67 258.83 510.17 274.5 510.5 293.5 C 510.83 312.5 509.33 338.17 507.5 355.5 C 505.67 372.83 512.67 369.17 499.5 397.5 C 486.33 425.83 442 506.33 428.5 525.5 C 415 544.67 420.67 514.33 418.5 512.5 C 416.33 510.67 413.83 511.33 415.5 514.5 C 417.17 517.67 422.5 535.83 428.5 531.5 C 434.5 527.17 446.33 497 451.5 488.5 C 456.67 480 450.17 486.5 459.5 480.5 C 468.83 474.5 482.5 464.67 507.5 452.5 C 532.5 440.33 588.67 402.17 609.5 407.5 C 630.33 412.83 627.5 459.67 632.5 484.5 C 637.5 509.33 639 536.83 639.5 556.5 C 640 576.17 645.67 590.17 635.5 602.5 C 625.33 614.83 594 622 578.5 630.5 C 563 639 553.33 645.67 542.5 653.5 C 531.67 661.33 524.17 666.83 513.5 677.5 C 502.83 688.17 485.17 707.67 478.5 717.5 C 471.83 727.33 473.83 719.67 473.5 736.5 C 473.17 753.33 473.17 789.83 476.5 818.5 C 479.83 847.17 490.17 893.5 493.5 908.5 C 496.83 923.5 482.67 928.67 496.5 908.5 C 510.33 888.33 558.67 817 576.5 787.5 C 594.33 758 595.5 752 603.5 731.5 C 611.5 711 618.5 687.17 624.5 664.5 C 630.5 641.83 636.67 616.17 639.5 595.5 C 642.33 574.83 642 557.83 641.5 540.5 C 641 523.17 639.5 508.67 636.5 491.5 C 633.5 474.33 635.33 471.17 623.5 437.5 C 611.67 403.83 583 328.5 565.5 289.5 C 548 250.5 536.17 226.33 518.5 203.5 C 500.83 180.67 465 154.83 459.5 152.5 Z"/>
    <path fill="#009f3a" stroke="#009f3a" d="M 475.5 804.5 C 472.83 796.83 476.83 847 478.5 861.5 C 480.17 876 482.83 883.83 485.5 891.5 C 488.17 899.17 496.17 922 494.5 907.5 C 492.83 893 478.17 812.17 475.5 804.5 Z M 611.5 406.5 C 591.33 406.17 531.17 439.33 505.5 451.5 C 479.83 463.67 466.67 473.67 457.5 479.5 C 448.33 485.33 455.67 478 450.5 486.5 C 445.33 495 427.17 515.83 426.5 530.5 C 425.83 545.17 440.5 556.33 446.5 574.5 C 452.5 592.67 458.33 615.5 462.5 639.5 C 466.67 663.5 469.5 692 471.5 718.5 C 473.5 745 474 795.17 474.5 798.5 C 475 801.83 473.67 751.67 474.5 738.5 C 475.33 725.33 477.17 724.83 479.5 719.5 C 481.83 714.17 482.5 713.33 488.5 706.5 C 494.5 699.67 505 688 515.5 678.5 C 526 669 540.67 657.33 551.5 649.5 C 562.33 641.67 566.33 639 580.5 631.5 C 594.67 624 626.5 617.33 636.5 604.5 C 646.5 591.67 640.67 572.67 640.5 554.5 C 640.33 536.33 637.83 512.33 635.5 495.5 C 633.17 478.67 630.5 468.33 626.5 453.5 C 622.5 438.67 631.67 406.83 611.5 406.5 Z"/>
    <path fill="#007a39" stroke="#007a39" d="M 226.5 821.5 C 225.5 821.17 229.67 827 231.5 828.5 C 233.33 830 238.33 831.67 237.5 830.5 C 236.67 829.33 227.5 821.83 226.5 821.5 Z M 425.5 535.5 C 420.5 545 407.33 579 402.5 599.5 C 397.67 620 396.33 642.17 396.5 658.5 C 396.67 674.83 398.83 680.5 403.5 697.5 C 408.17 714.5 411.83 730 424.5 760.5 C 437.17 791 469.83 860.33 479.5 880.5 C 489.17 900.67 483.17 887.83 482.5 881.5 C 481.83 875.17 477.33 868.67 475.5 842.5 C 473.67 816.33 473.67 758.17 471.5 724.5 C 469.33 690.83 466.33 664.5 462.5 640.5 C 458.67 616.5 453.5 596.83 448.5 580.5 C 443.5 564.17 436.33 550 432.5 542.5 C 428.67 535 430.5 526 425.5 535.5 Z M 216.5 266.5 C 216 266.5 216.83 273.17 217.5 274.5 C 218.17 275.83 220.67 275.83 220.5 274.5 C 220.33 273.17 217 266.5 216.5 266.5 Z M 230.5 79.5 C 229.33 80.67 224.33 90.67 224.5 91.5 C 224.67 92.33 230.5 86.5 231.5 84.5 C 232.5 82.5 231.67 78.33 230.5 79.5 Z"/>
    <path fill="#007d38" stroke="#007d38" d="M 472.5 796.5 C 472.5 800.17 475 822.67 475.5 823.5 C 476 824.33 476 806 475.5 801.5 C 475 797 472.5 792.83 472.5 796.5 Z M 105.5 669.5 C 105 669.5 110 680.33 111.5 682.5 C 113 684.67 115.5 684.67 114.5 682.5 C 113.5 680.33 106 669.5 105.5 669.5 Z M 456.5 618.5 C 457 622.17 462 643 462.5 643.5 C 463 644 460.5 625.67 459.5 621.5 C 458.5 617.33 456 614.83 456.5 618.5 Z M 413.5 510.5 C 409.33 504.33 419 511.33 414.5 518.5 C 410 525.67 395 539.5 386.5 553.5 C 378 567.5 368.33 589.67 363.5 602.5 C 358.67 615.33 358 617.83 357.5 630.5 C 357 643.17 357.83 663.33 360.5 678.5 C 363.17 693.67 366.33 703.83 373.5 721.5 C 380.67 739.17 393 765.33 403.5 784.5 C 414 803.67 421.83 816.17 436.5 836.5 C 451.17 856.83 484.33 902.33 491.5 906.5 C 498.67 910.67 482 868 479.5 861.5 C 477 855 483 878.83 476.5 867.5 C 470 856.17 451.33 818.17 440.5 793.5 C 429.67 768.83 418.67 742.33 411.5 719.5 C 404.33 696.67 399.17 674.33 397.5 656.5 C 395.83 638.67 399.33 625.83 401.5 612.5 C 403.67 599.17 406.33 588.83 410.5 576.5 C 414.67 564.17 420.17 537.67 426.5 538.5 C 432.83 539.33 446.33 578.67 448.5 581.5 C 450.67 584.33 445.33 567.33 439.5 555.5 C 433.67 543.67 417.67 516.67 413.5 510.5 Z M 228.5 296.5 C 228.67 297.5 232.83 304.17 233.5 304.5 C 234.17 304.83 233.33 299.83 232.5 298.5 C 231.67 297.17 228.33 295.5 228.5 296.5 Z M 207.5 235.5 C 206.83 234.83 207.67 245.67 208.5 248.5 C 209.33 251.33 212.67 254.67 212.5 252.5 C 212.33 250.33 208.17 236.17 207.5 235.5 Z M 127.5 189.5 C 126.83 189.83 123.5 195.67 123.5 196.5 C 123.5 197.33 126.83 195.67 127.5 194.5 C 128.17 193.33 128.17 189.17 127.5 189.5 Z M 234.5 77.5 C 234 77.5 228.5 79.33 227.5 80.5 C 226.5 81.67 229.5 81.67 228.5 84.5 C 227.5 87.33 222 95.67 221.5 97.5 C 221 99.33 223.67 97.83 225.5 95.5 C 227.33 93.17 231.67 86 232.5 83.5 C 233.33 81 230.17 81.5 230.5 80.5 C 230.83 79.5 235 77.5 234.5 77.5 Z"/>
  </g>
</svg>
