<svg xmlns="http://www.w3.org/2000/svg" width="899" height="921" viewBox="0 0 899 921" role="img" aria-labelledby="title desc">
  <title id="title">Nur logo loop frame 103</title>
  <desc id="desc">Vector-traced frame from Nur_Logo_Loop_02.gif.</desc>
  <g id="frame-103" stroke-linejoin="round" stroke-linecap="round" stroke-width="0.5" shape-rendering="geometricPrecision">
    <path fill="#008136" stroke="#008136" d="M 207.5 51.5 C 200.33 59.83 184 79.33 166.5 105.5 C 149 131.67 117.17 182.17 102.5 208.5 C 87.83 234.83 85.17 245.67 78.5 263.5 C 71.83 281.33 67.5 293.5 62.5 315.5 C 57.5 337.5 51.5 370.5 48.5 395.5 C 45.5 420.5 43.67 441.33 44.5 465.5 C 45.33 489.67 49 515.67 53.5 540.5 C 58 565.33 64.33 593 71.5 614.5 C 78.67 636 85.17 649.17 96.5 669.5 C 107.83 689.83 124.17 716 139.5 736.5 C 154.83 757 171.67 776 188.5 792.5 C 205.33 809 222.67 823.17 240.5 835.5 C 258.33 847.83 273.83 856.83 295.5 866.5 C 317.17 876.17 345.83 886.67 370.5 893.5 C 395.17 900.33 423 905.17 443.5 907.5 C 464 909.83 486.67 911.5 493.5 907.5 C 500.33 903.5 487.17 894.17 484.5 883.5 C 481.83 872.83 479.17 867.17 477.5 843.5 C 475.83 819.83 476.17 771.5 474.5 741.5 C 472.83 711.5 470.5 686.67 467.5 663.5 C 464.5 640.33 460.83 620.17 456.5 602.5 C 452.17 584.83 450.67 576.5 441.5 557.5 C 432.33 538.5 412.83 505 401.5 488.5 C 390.17 472 388.33 472.67 373.5 458.5 C 358.67 444.33 331.5 422 312.5 403.5 C 293.5 385 274 364.5 259.5 347.5 C 245 330.5 233.33 314.17 225.5 301.5 C 217.67 288.83 215.17 276.67 212.5 271.5 C 209.83 266.33 212.83 281.17 209.5 270.5 C 206.17 259.83 195.83 225.5 192.5 207.5 C 189.17 189.5 189.5 177 189.5 162.5 C 189.5 148 189.17 138.33 192.5 120.5 C 195.83 102.67 207 67 209.5 55.5 C 212 44 214.67 43.17 207.5 51.5 Z"/>
    <path fill="#83bb26" stroke="#83bb26" d="M 446.5 495.5 C 445.33 492.83 423.67 509.5 420.5 515.5 C 417.33 521.5 423.17 534.83 427.5 531.5 C 431.83 528.17 447.67 498.17 446.5 495.5 Z M 662.5 31.5 C 652.67 26.17 650.67 25.5 659.5 34.5 C 668.33 43.5 699.83 67.83 715.5 85.5 C 731.17 103.17 743.67 123.5 753.5 140.5 C 763.33 157.5 770.17 175.67 774.5 187.5 C 778.83 199.33 778.67 202.83 779.5 211.5 C 780.33 220.17 781 229.17 779.5 239.5 C 778 249.83 776.67 260.67 770.5 273.5 C 764.33 286.33 756.5 301 742.5 316.5 C 728.5 332 706.83 351.5 686.5 366.5 C 666.17 381.5 628.83 390 620.5 406.5 C 612.17 423 632.83 449.33 636.5 465.5 C 640.17 481.67 641.17 485.17 642.5 503.5 C 643.83 521.83 644.83 557.67 644.5 575.5 C 644.17 593.33 632.83 609.33 640.5 610.5 C 648.17 611.67 674.17 592.83 690.5 582.5 C 706.83 572.17 723.33 560.33 738.5 548.5 C 753.67 536.67 770 522.5 781.5 511.5 C 793 500.5 798.67 494.17 807.5 482.5 C 816.33 470.83 826.83 455.17 834.5 441.5 C 842.17 427.83 848.17 415.33 853.5 400.5 C 858.83 385.67 863.83 366.83 866.5 352.5 C 869.17 338.17 869.17 327.17 869.5 314.5 C 869.83 301.83 869.83 288.67 868.5 276.5 C 867.17 264.33 865.67 254.5 861.5 241.5 C 857.33 228.5 850.17 211.33 843.5 198.5 C 836.83 185.67 834.17 180.5 821.5 164.5 C 808.83 148.5 784.67 118.83 767.5 102.5 C 750.33 86.17 736 78.33 718.5 66.5 C 701 54.67 672.33 36.83 662.5 31.5 Z"/>
    <path fill="#6ab12d" stroke="#6ab12d" d="M 484.5 135.5 C 479.33 132 498.5 174.67 503.5 193.5 C 508.5 212.33 512.33 229.33 514.5 248.5 C 516.67 267.67 516.83 293 516.5 308.5 C 516.17 324 515.17 328 512.5 341.5 C 509.83 355 514.17 358.83 500.5 389.5 C 486.83 420.17 442.67 502.5 430.5 525.5 C 418.33 548.5 429 529 427.5 527.5 C 426 526 422.83 517.67 421.5 516.5 C 420.17 515.33 418 517.5 419.5 520.5 C 421 523.5 425.67 538 430.5 534.5 C 435.33 531 442.5 507.67 448.5 499.5 C 454.5 491.33 457.17 491.33 466.5 485.5 C 475.83 479.67 479.17 476.5 504.5 464.5 C 529.83 452.5 596.17 410 618.5 413.5 C 640.83 417 634.33 461.83 638.5 485.5 C 642.67 509.17 643.5 534.5 643.5 555.5 C 643.5 576.5 649.33 597.17 638.5 611.5 C 627.67 625.83 595.5 632.17 578.5 641.5 C 561.5 650.83 550.33 657.67 536.5 667.5 C 522.67 677.33 504.83 691.67 495.5 700.5 C 486.17 709.33 484.17 713 480.5 720.5 C 476.83 728 474.17 729.33 473.5 745.5 C 472.83 761.67 473.17 790.5 476.5 817.5 C 479.83 844.5 490.17 892.33 493.5 907.5 C 496.83 922.67 484.5 925.5 496.5 908.5 C 508.5 891.5 547.83 834.33 565.5 805.5 C 583.17 776.67 593.83 753.5 602.5 735.5 C 611.17 717.5 611.67 715 617.5 697.5 C 623.33 680 632.83 650.5 637.5 630.5 C 642.17 610.5 644.17 593.17 645.5 577.5 C 646.83 561.83 646.33 553.17 645.5 536.5 C 644.67 519.83 642.33 491.83 640.5 477.5 C 638.67 463.17 640.5 470.17 634.5 450.5 C 628.5 430.83 621.17 398.83 604.5 359.5 C 587.83 320.17 554.5 251.83 534.5 214.5 C 514.5 177.17 489.67 139 484.5 135.5 Z"/>
    <path fill="#009f3a" stroke="#009f3a" d="M 475.5 803.5 C 472.83 795.83 476.5 845.83 478.5 861.5 C 480.5 877.17 484.83 889.83 487.5 897.5 C 490.17 905.17 496.5 923.17 494.5 907.5 C 492.5 891.83 478.17 811.17 475.5 803.5 Z M 619.5 411.5 C 598 414.17 528.33 451.33 502.5 463.5 C 476.67 475.67 473.67 478.83 464.5 484.5 C 455.33 490.17 453.5 489.33 447.5 497.5 C 441.5 505.67 428.67 520.67 428.5 533.5 C 428.33 546.33 440.83 556.83 446.5 574.5 C 452.17 592.17 458.33 615.5 462.5 639.5 C 466.67 663.5 469.5 692.17 471.5 718.5 C 473.5 744.83 474 792.67 474.5 797.5 C 475 802.33 473.33 760 474.5 747.5 C 475.67 735 478.67 729.17 481.5 722.5 C 484.33 715.83 485.17 714.17 491.5 707.5 C 497.83 700.83 508.67 691 519.5 682.5 C 530.33 674 536.5 668 556.5 656.5 C 576.5 645 624.83 628.67 639.5 613.5 C 654.17 598.33 644.33 586 644.5 565.5 C 644.67 545 642.67 510.17 640.5 490.5 C 638.33 470.83 635 460.67 631.5 447.5 C 628 434.33 641 408.83 619.5 411.5 Z"/>
    <path fill="#007a39" stroke="#007a39" d="M 425.5 533.5 C 420 542.33 408 585 403.5 603.5 C 399 622 399 632.33 398.5 644.5 C 398 656.67 397 660 400.5 676.5 C 404 693 407 711.33 419.5 743.5 C 432 775.67 465.17 847.33 475.5 869.5 C 485.83 891.67 481.67 883 481.5 876.5 C 481.33 870 476.17 855.83 474.5 830.5 C 472.83 805.17 473.5 756.17 471.5 724.5 C 469.5 692.83 466.33 664.5 462.5 640.5 C 458.67 616.5 452.83 595.5 448.5 580.5 C 444.17 565.5 440.33 558.33 436.5 550.5 C 432.67 542.67 431 524.67 425.5 533.5 Z M 78.5 270.5 C 78 270.67 74.67 277.33 74.5 278.5 C 74.33 279.67 76.83 278.83 77.5 277.5 C 78.17 276.17 79 270.33 78.5 270.5 Z"/>
    <path fill="#007d38" stroke="#007d38" d="M 470.5 777.5 C 470.33 784.83 473.33 832.17 474.5 844.5 C 475.67 856.83 477.33 858.83 477.5 851.5 C 477.67 844.17 476.67 812.83 475.5 800.5 C 474.33 788.17 470.67 770.17 470.5 777.5 Z M 115.5 699.5 C 115.83 700.67 129.17 719.83 131.5 722.5 C 133.83 725.17 132.17 719.33 129.5 715.5 C 126.83 711.67 115.17 698.33 115.5 699.5 Z M 456.5 618.5 C 457 622.17 462 643 462.5 643.5 C 463 644 460.5 625.67 459.5 621.5 C 458.5 617.33 456 614.83 456.5 618.5 Z M 417.5 521.5 C 412.33 526.5 398.83 540 390.5 551.5 C 382.17 563 372.83 578.83 367.5 590.5 C 362.17 602.17 360 608.67 358.5 621.5 C 357 634.33 356.17 651 358.5 667.5 C 360.83 684 365 701.33 372.5 720.5 C 380 739.67 391.5 761.5 403.5 782.5 C 415.5 803.5 429.67 825.67 444.5 846.5 C 459.33 867.33 486.17 901.5 492.5 907.5 C 498.83 913.5 484.33 888.5 482.5 882.5 C 480.67 876.5 482.17 873.5 481.5 871.5 C 480.83 869.5 478.83 872.17 478.5 870.5 C 478.17 868.83 480 862.67 479.5 861.5 C 479 860.33 485.33 883.5 475.5 863.5 C 465.67 843.5 432.33 770.33 420.5 741.5 C 408.67 712.67 408 705 404.5 690.5 C 401 676 400 665.67 399.5 654.5 C 399 643.33 399.17 637.33 401.5 623.5 C 403.83 609.67 409.17 585.67 413.5 571.5 C 417.83 557.33 422.83 539.33 427.5 538.5 C 432.17 537.67 436.83 555.17 441.5 566.5 C 446.17 577.83 455.83 608.33 455.5 606.5 C 455.17 604.67 445.17 569.67 439.5 555.5 C 433.83 541.33 425.17 527.17 421.5 521.5 C 417.83 515.83 422.67 516.5 417.5 521.5 Z M 246.5 332.5 C 248 335 260.5 350 261.5 350.5 C 262.5 351 255 338.5 252.5 335.5 C 250 332.5 245 330 246.5 332.5 Z M 239.5 322.5 C 240.17 323.83 246 330.5 246.5 330.5 C 247 330.5 243.67 323.83 242.5 322.5 C 241.33 321.17 238.83 321.17 239.5 322.5 Z M 224.5 299.5 C 223.17 298.17 223.17 301.5 224.5 303.5 C 225.83 305.5 232.5 312.17 232.5 311.5 C 232.5 310.83 225.83 300.83 224.5 299.5 Z M 78.5 269.5 C 77.83 270.17 75.33 277.67 75.5 278.5 C 75.67 279.33 79 276 79.5 274.5 C 80 273 79.17 268.83 78.5 269.5 Z M 86.5 250.5 C 85.83 250.83 80.83 259.17 80.5 260.5 C 80.17 261.83 83.5 260.17 84.5 258.5 C 85.5 256.83 87.17 250.17 86.5 250.5 Z M 193.5 118.5 C 193.33 117.67 189.17 120.17 188.5 121.5 C 187.83 122.83 188.67 127 189.5 126.5 C 190.33 126 193.67 119.33 193.5 118.5 Z M 170.5 104.5 C 171.17 102.33 169.33 102.17 167.5 104.5 C 165.67 106.83 160.17 116.33 159.5 118.5 C 158.83 120.67 161.67 119.83 163.5 117.5 C 165.33 115.17 169.83 106.67 170.5 104.5 Z M 207.5 53.5 C 206.67 52.67 203.17 54.83 202.5 56.5 C 201.83 58.17 202.67 62.67 203.5 63.5 C 204.33 64.33 206.83 63.17 207.5 61.5 C 208.17 59.83 208.33 54.33 207.5 53.5 Z"/>
  </g>
</svg>
