<svg xmlns="http://www.w3.org/2000/svg" width="899" height="921" viewBox="0 0 899 921" role="img" aria-labelledby="title desc">
  <title id="title">Nur logo loop frame 004</title>
  <desc id="desc">Vector-traced frame from Nur_Logo_Loop_02.gif.</desc>
  <g id="frame-004" stroke-linejoin="round" stroke-linecap="round" stroke-width="0.5" shape-rendering="geometricPrecision">
    <path fill="#008136" stroke="#008136" d="M 213.5 57.5 C 204 67.67 174 101.5 158.5 122.5 C 143 143.5 126.67 172.83 120.5 183.5 C 114.33 194.17 123.83 182.67 121.5 186.5 C 119.17 190.33 112.33 196.17 106.5 206.5 C 100.67 216.83 90 239.67 86.5 248.5 C 83 257.33 86.83 255.83 85.5 259.5 C 84.17 263.17 81.67 262.17 78.5 270.5 C 75.33 278.83 71 288.67 66.5 309.5 C 62 330.33 54.5 367.33 51.5 395.5 C 48.5 423.67 47.83 455.33 48.5 478.5 C 49.17 501.67 51.67 513.33 55.5 534.5 C 59.33 555.67 64.17 582.83 71.5 605.5 C 78.83 628.17 87.5 648.17 99.5 670.5 C 111.5 692.83 130 720.67 143.5 739.5 C 157 758.33 165 768 180.5 783.5 C 196 799 217.33 818.67 236.5 832.5 C 255.67 846.33 275.5 857 295.5 866.5 C 315.5 876 334.5 883 356.5 889.5 C 378.5 896 404.67 902.5 427.5 905.5 C 450.33 908.5 484.17 912 493.5 907.5 C 502.83 903 486.17 889.17 483.5 878.5 C 480.83 867.83 479 866 477.5 843.5 C 476 821 476.17 773.5 474.5 743.5 C 472.83 713.5 470.5 687 467.5 663.5 C 464.5 640 460.83 620.17 456.5 602.5 C 452.17 584.83 450.67 576.5 441.5 557.5 C 432.33 538.5 427.83 519 401.5 488.5 C 375.17 458 311.83 404.67 283.5 374.5 C 255.17 344.33 243.83 325.33 231.5 307.5 C 219.17 289.67 215 281.67 209.5 267.5 C 204 253.33 201.17 231.17 198.5 222.5 C 195.83 213.83 194.17 218.67 193.5 215.5 C 192.83 212.33 194.83 205.67 194.5 203.5 C 194.17 201.33 191.83 210.83 191.5 202.5 C 191.17 194.17 191.33 170.17 192.5 153.5 C 193.67 136.83 194.67 117.83 198.5 102.5 C 202.33 87.17 213 69 215.5 61.5 C 218 54 223 47.33 213.5 57.5 Z"/>
    <path fill="#83bb26" stroke="#83bb26" d="M 447.5 493.5 C 446.33 490.83 425.17 510.33 420.5 514.5 C 415.83 518.67 418.33 515.83 419.5 518.5 C 420.67 521.17 422.83 534.67 427.5 530.5 C 432.17 526.33 448.67 496.17 447.5 493.5 Z M 651.5 36.5 C 641.83 31.67 648.17 36 647.5 36.5 C 646.83 37 638.5 32 647.5 39.5 C 656.5 47 688.83 70.83 701.5 81.5 C 714.17 92.17 717 96 723.5 103.5 C 730 111 733 113.67 740.5 126.5 C 748 139.33 762.67 167.33 768.5 180.5 C 774.33 193.67 774 196.83 775.5 205.5 C 777 214.17 778.83 221 777.5 232.5 C 776.17 244 772 262.67 767.5 274.5 C 763 286.33 756.5 295 750.5 303.5 C 744.5 312 743.67 314.33 731.5 325.5 C 719.33 336.67 696.5 357 677.5 370.5 C 658.5 384 625.17 393.5 617.5 406.5 C 609.83 419.5 627.67 434.67 631.5 448.5 C 635.33 462.33 638.33 473.67 640.5 489.5 C 642.67 505.33 644.33 523.83 644.5 543.5 C 644.67 563.17 635 600.67 641.5 607.5 C 648 614.33 668.33 594 683.5 584.5 C 698.67 575 718.5 561 732.5 550.5 C 746.5 540 756.17 532 767.5 521.5 C 778.83 511 791.17 498.5 800.5 487.5 C 809.83 476.5 816.17 467.33 823.5 455.5 C 830.83 443.67 838.5 430 844.5 416.5 C 850.5 403 855.83 388.17 859.5 374.5 C 863.17 360.83 865.33 350.33 866.5 334.5 C 867.67 318.67 867.33 293.83 866.5 279.5 C 865.67 265.17 864.5 259.67 861.5 248.5 C 858.5 237.33 854.83 225.5 848.5 212.5 C 842.17 199.5 836.83 188 823.5 170.5 C 810.17 153 788.17 125 768.5 107.5 C 748.83 90 725 77.33 705.5 65.5 C 686 53.67 661.17 41.33 651.5 36.5 Z"/>
    <path fill="#6ab12d" stroke="#6ab12d" d="M 639.5 611.5 C 631.83 605.67 594.5 631.17 578.5 639.5 C 562.5 647.83 554.83 653.5 543.5 661.5 C 532.17 669.5 519.5 679.67 510.5 687.5 C 501.5 695.33 494.17 703 489.5 708.5 C 484.83 714 484.67 714.83 482.5 720.5 C 480.33 726.17 477.83 733.83 476.5 742.5 C 475.17 751.17 473.83 759.17 474.5 772.5 C 475.17 785.83 476.83 801.17 480.5 822.5 C 484.17 843.83 494 886.83 496.5 900.5 C 499 914.17 496.33 904.33 495.5 904.5 C 494.67 904.67 491.67 900.83 491.5 901.5 C 491.33 902.17 493.5 907.33 494.5 908.5 C 495.5 909.67 497.33 909.17 497.5 908.5 C 497.67 907.83 494.67 906 495.5 904.5 C 496.33 903 493.17 912.33 502.5 899.5 C 511.83 886.67 536.17 851.83 551.5 827.5 C 566.83 803.17 582.33 779 594.5 753.5 C 606.67 728 617 698.17 624.5 674.5 C 632 650.83 647.17 617.33 639.5 611.5 Z M 476.5 137.5 C 479.67 146.5 492.83 174.33 498.5 191.5 C 504.17 208.67 507.83 226.17 510.5 240.5 C 513.17 254.83 514.5 260.33 514.5 277.5 C 514.5 294.67 512.67 325.5 510.5 343.5 C 508.33 361.5 506.17 371.5 501.5 385.5 C 496.83 399.5 494.5 404.17 482.5 427.5 C 470.5 450.83 438.83 509 429.5 525.5 C 420.17 542 427.83 528.17 426.5 526.5 C 425.17 524.83 422.83 516.67 421.5 515.5 C 420.17 514.33 417.67 516.67 418.5 519.5 C 419.33 522.33 424.33 530 426.5 532.5 C 428.67 535 427.17 540.83 431.5 534.5 C 435.83 528.17 445.67 503.5 452.5 494.5 C 459.33 485.5 462 486.67 472.5 480.5 C 483 474.33 491.33 469 515.5 457.5 C 539.67 446 598.33 412.67 617.5 411.5 C 636.67 410.33 626.83 436.83 630.5 450.5 C 634.17 464.17 637.33 476.5 639.5 493.5 C 641.67 510.5 643.5 533.5 643.5 552.5 C 643.5 571.5 639.67 598.33 639.5 607.5 C 639.33 616.67 641.5 611.5 642.5 607.5 C 643.5 603.5 645.5 601.83 645.5 583.5 C 645.5 565.17 646.17 525.33 642.5 497.5 C 638.83 469.67 630.67 440.5 623.5 416.5 C 616.33 392.5 612.17 382.5 599.5 353.5 C 586.83 324.5 560 268.17 547.5 242.5 C 535 216.83 535.83 217 524.5 199.5 C 513.17 182 487.5 147.83 479.5 137.5 C 471.5 127.17 473.33 128.5 476.5 137.5 Z"/>
    <path fill="#009f3a" stroke="#009f3a" d="M 619.5 410.5 C 592.5 407.67 506.5 460.83 478.5 474.5 C 450.5 488.17 459.33 483.17 451.5 492.5 C 443.67 501.83 435.33 523.83 431.5 530.5 C 427.67 537.17 429.5 532.67 428.5 532.5 C 427.5 532.33 422.5 522.5 425.5 529.5 C 428.5 536.5 440.67 558 446.5 574.5 C 452.33 591 456.33 604.5 460.5 628.5 C 464.67 652.5 468.5 679.67 471.5 718.5 C 474.5 757.33 475.5 831 478.5 861.5 C 481.5 892 486.67 893.83 489.5 901.5 C 492.33 909.17 494 906.5 495.5 907.5 C 497 908.5 500.83 922 498.5 907.5 C 496.17 893 485.33 843.33 481.5 820.5 C 477.67 797.67 476.17 783.17 475.5 770.5 C 474.83 757.83 476.17 752.5 477.5 744.5 C 478.83 736.5 481.33 728.17 483.5 722.5 C 485.67 716.83 485.67 716.17 490.5 710.5 C 495.33 704.83 503.33 696.5 512.5 688.5 C 521.67 680.5 534.17 670.5 545.5 662.5 C 556.83 654.5 564.5 649.33 580.5 640.5 C 596.5 631.67 630.83 624.5 641.5 609.5 C 652.17 594.5 644.67 570.17 644.5 550.5 C 644.33 530.83 644.67 514.83 640.5 491.5 C 636.33 468.17 646.5 413.33 619.5 410.5 Z"/>
    <path fill="#007a39" stroke="#007a39" d="M 425.5 533.5 C 421.83 542.17 411.33 569 406.5 585.5 C 401.67 602 398.17 619.17 396.5 632.5 C 394.83 645.83 395.83 655.83 396.5 665.5 C 397.17 675.17 394 669.5 400.5 690.5 C 407 711.5 421.33 758 435.5 791.5 C 449.67 825 478.83 883 485.5 891.5 C 492.17 900 477.83 870.33 475.5 842.5 C 473.17 814.67 473.67 758.17 471.5 724.5 C 469.33 690.83 466.33 664.5 462.5 640.5 C 458.67 616.5 454.17 598.33 448.5 580.5 C 442.83 562.67 432.33 541.33 428.5 533.5 C 424.67 525.67 429.17 524.83 425.5 533.5 Z M 85.5 257.5 C 85 257.5 81.67 264.17 81.5 265.5 C 81.33 266.83 83.83 266.83 84.5 265.5 C 85.17 264.17 86 257.5 85.5 257.5 Z"/>
    <path fill="#007d38" stroke="#007d38" d="M 189.5 790.5 C 190.67 792.17 201.5 802.17 202.5 802.5 C 203.5 802.83 197.67 794.5 195.5 792.5 C 193.33 790.5 188.33 788.83 189.5 790.5 Z M 128.5 715.5 C 128.5 716.17 133.5 723.67 134.5 724.5 C 135.5 725.33 135.5 722 134.5 720.5 C 133.5 719 128.5 714.83 128.5 715.5 Z M 99.5 667.5 C 99.33 668.67 102.83 677 104.5 679.5 C 106.17 682 109.33 683.67 109.5 682.5 C 109.67 681.33 107.17 675 105.5 672.5 C 103.83 670 99.67 666.33 99.5 667.5 Z M 418.5 521.5 C 412.5 528 393.67 548.67 385.5 560.5 C 377.33 572.33 373.67 581.5 369.5 592.5 C 365.33 603.5 361.67 613.17 360.5 626.5 C 359.33 639.83 359.83 656.67 362.5 672.5 C 365.17 688.33 370 704.67 376.5 721.5 C 383 738.33 390.83 754.5 401.5 773.5 C 412.17 792.5 426.17 815 440.5 835.5 C 454.83 856 481 892.17 487.5 896.5 C 494 900.83 481.17 865.5 479.5 861.5 C 477.83 857.5 484.67 884.5 477.5 872.5 C 470.33 860.5 449.17 820.17 436.5 789.5 C 423.83 758.83 408 709.5 401.5 688.5 C 395 667.5 397.5 676.67 397.5 663.5 C 397.5 650.33 398.83 625.5 401.5 609.5 C 404.17 593.5 409.17 579.33 413.5 567.5 C 417.83 555.67 421.67 536.17 427.5 538.5 C 433.33 540.83 446.5 578.67 448.5 581.5 C 450.5 584.33 444 565.5 439.5 555.5 C 435 545.5 425 527.17 421.5 521.5 C 418 515.83 424.5 515 418.5 521.5 Z M 192.5 212.5 C 192 213.33 191.83 216.33 192.5 217.5 C 193.17 218.67 196 220.33 196.5 219.5 C 197 218.67 196.17 213.67 195.5 212.5 C 194.83 211.33 193 211.67 192.5 212.5 Z M 128.5 174.5 C 127.67 175 118.5 189.17 117.5 191.5 C 116.5 193.83 120.67 191.33 122.5 188.5 C 124.33 185.67 129.33 174 128.5 174.5 Z M 157.5 128.5 C 158 127.17 155.5 127.17 154.5 128.5 C 153.5 129.83 151 136.5 151.5 136.5 C 152 136.5 157 129.83 157.5 128.5 Z M 205.5 84.5 C 205.5 83.5 202.17 85.17 201.5 86.5 C 200.83 87.83 200.83 92.83 201.5 92.5 C 202.17 92.17 205.5 85.5 205.5 84.5 Z M 211.5 63.5 C 210.33 63.67 204.17 69.83 203.5 70.5 C 202.83 71.17 206.33 67.67 207.5 67.5 C 208.67 67.33 209.83 70.17 210.5 69.5 C 211.17 68.83 212.67 63.33 211.5 63.5 Z"/>
  </g>
</svg>
