<svg xmlns="http://www.w3.org/2000/svg" width="899" height="921" viewBox="0 0 899 921" role="img" aria-labelledby="title desc">
  <title id="title">Nur logo loop frame 015</title>
  <desc id="desc">Vector-traced frame from Nur_Logo_Loop_02.gif.</desc>
  <g id="frame-015" stroke-linejoin="round" stroke-linecap="round" stroke-width="0.5" shape-rendering="geometricPrecision">
    <path fill="#008136" stroke="#008136" d="M 227.5 74.5 C 218.17 81.5 186.5 107.33 174.5 118.5 C 162.5 129.67 166.33 125.5 155.5 141.5 C 144.67 157.5 122.83 187.83 109.5 214.5 C 96.17 241.17 83.67 274.17 75.5 301.5 C 67.33 328.83 63.83 357 60.5 378.5 C 57.17 400 56.33 416.17 55.5 430.5 C 54.67 444.83 55 458.5 55.5 464.5 C 56 470.5 58.5 466 58.5 466.5 C 58.5 467 54.83 455.67 55.5 467.5 C 56.17 479.33 60.83 525.33 62.5 537.5 C 64.17 549.67 65.17 538.5 65.5 540.5 C 65.83 542.5 62.5 538.5 64.5 549.5 C 66.5 560.5 70 584.67 77.5 606.5 C 85 628.33 97.67 657.83 109.5 680.5 C 121.33 703.17 136.83 725.83 148.5 742.5 C 160.17 759.17 169.5 769.33 179.5 780.5 C 189.5 791.67 198 800.17 208.5 809.5 C 219 818.83 228 827 242.5 836.5 C 257 846 274.17 857 295.5 866.5 C 316.83 876 345.83 886.67 370.5 893.5 C 395.17 900.33 423 905.17 443.5 907.5 C 464 909.83 486.67 911.67 493.5 907.5 C 500.33 903.33 487.17 893.17 484.5 882.5 C 481.83 871.83 479.17 865.67 477.5 843.5 C 475.83 821.33 476.17 779.5 474.5 749.5 C 472.83 719.5 470.5 688 467.5 663.5 C 464.5 639 460.83 620.17 456.5 602.5 C 452.17 584.83 448.17 572.67 441.5 557.5 C 434.83 542.33 425 525.17 416.5 511.5 C 408 497.83 407.83 493.5 390.5 475.5 C 373.17 457.5 334.33 425.17 312.5 403.5 C 290.67 381.83 274.17 364.83 259.5 345.5 C 244.83 326.17 232.33 302.83 224.5 287.5 C 216.67 272.17 215 259.33 212.5 253.5 C 210 247.67 209.67 253.17 209.5 252.5 C 209.33 251.83 212.83 256.17 211.5 249.5 C 210.17 242.83 203.67 218.83 201.5 212.5 C 199.33 206.17 197.17 227.5 198.5 211.5 C 199.83 195.5 204.17 139 209.5 116.5 C 214.83 94 227.5 83.5 230.5 76.5 C 233.5 69.5 236.83 67.5 227.5 74.5 Z"/>
    <path fill="#83bb26" stroke="#83bb26" d="M 454.5 481.5 C 453.17 478.5 424.5 505.5 418.5 511.5 C 412.5 517.5 417.17 514.5 418.5 517.5 C 419.83 520.5 420.5 535.5 426.5 529.5 C 432.5 523.5 455.83 484.5 454.5 481.5 Z M 622.5 44.5 C 615.5 43 611.5 41.83 623.5 49.5 C 635.5 57.17 676.67 78.17 694.5 90.5 C 712.33 102.83 720.5 111.17 730.5 123.5 C 740.5 135.83 748.33 149.67 754.5 164.5 C 760.67 179.33 765.33 199.5 767.5 212.5 C 769.67 225.5 768.17 234.33 767.5 242.5 C 766.83 250.67 766.17 253.67 763.5 261.5 C 760.83 269.33 755.83 281.5 751.5 289.5 C 747.17 297.5 743.83 302 737.5 309.5 C 731.17 317 722.67 326.17 713.5 334.5 C 704.33 342.83 695 350.5 682.5 359.5 C 670 368.5 650.5 381.33 638.5 388.5 C 626.5 395.67 612.67 392.67 610.5 402.5 C 608.33 412.33 621.33 432.67 625.5 447.5 C 629.67 462.33 633 475.33 635.5 491.5 C 638 507.67 639.83 526 640.5 544.5 C 641.17 563 632.17 597.17 639.5 602.5 C 646.83 607.83 667.67 587.5 684.5 576.5 C 701.33 565.5 724.17 549.5 740.5 536.5 C 756.83 523.5 771.33 510 782.5 498.5 C 793.67 487 798.83 480.33 807.5 467.5 C 816.17 454.67 827.33 436.33 834.5 421.5 C 841.67 406.67 846.67 391.67 850.5 378.5 C 854.33 365.33 856 357.67 857.5 342.5 C 859 327.33 860 303 859.5 287.5 C 859 272 857.5 262.17 854.5 249.5 C 851.5 236.83 847.67 224.5 841.5 211.5 C 835.33 198.5 830.83 188.5 817.5 171.5 C 804.17 154.5 777.17 123.83 761.5 109.5 C 745.83 95.17 739.5 94 723.5 85.5 C 707.5 77 682.33 65.33 665.5 58.5 C 648.67 51.67 629.5 46 622.5 44.5 Z"/>
    <path fill="#6ab12d" stroke="#6ab12d" d="M 637.5 604.5 C 630.5 596.5 593.83 624.33 578.5 632.5 C 563.17 640.67 559.5 642.5 545.5 653.5 C 531.5 664.5 505.67 687.17 494.5 698.5 C 483.33 709.83 482 714 478.5 721.5 C 475 729 474 730 473.5 743.5 C 473 757 472.17 775 475.5 802.5 C 478.83 830 490 890.83 493.5 908.5 C 497 926.17 488.67 919.17 496.5 908.5 C 504.33 897.83 524.5 869.67 540.5 844.5 C 556.5 819.33 579.17 784.83 592.5 757.5 C 605.83 730.17 613 706 620.5 680.5 C 628 655 644.5 612.5 637.5 604.5 Z M 460.5 147.5 C 454.33 144 476.33 168.33 483.5 182.5 C 490.67 196.67 499 213 503.5 232.5 C 508 252 509.83 279.67 510.5 299.5 C 511.17 319.33 509.83 334.33 507.5 351.5 C 505.17 368.67 509.67 373.33 496.5 402.5 C 483.33 431.67 441.33 508 428.5 526.5 C 415.67 545 421.5 515.33 419.5 513.5 C 417.5 511.67 415.67 512.83 416.5 515.5 C 417.33 518.17 422.33 526.83 424.5 529.5 C 426.67 532.17 425.17 537.83 429.5 531.5 C 433.83 525.17 445 500 450.5 491.5 C 456 483 454.67 485.83 462.5 480.5 C 470.33 475.17 472.83 471.5 497.5 459.5 C 522.17 447.5 588.83 408.33 610.5 408.5 C 632.17 408.67 623.5 446.17 627.5 460.5 C 631.5 474.83 632.5 478.83 634.5 494.5 C 636.5 510.17 638.83 536.5 639.5 554.5 C 640.17 572.5 638.17 604.5 638.5 602.5 C 638.83 600.5 642.17 563.33 641.5 542.5 C 640.83 521.67 638.33 498 634.5 477.5 C 630.67 457 629.67 450.5 618.5 419.5 C 607.33 388.5 583.83 327.5 567.5 291.5 C 551.17 255.5 538.33 227.5 520.5 203.5 C 502.67 179.5 466.67 151 460.5 147.5 Z"/>
    <path fill="#009f3a" stroke="#009f3a" d="M 475.5 801.5 C 472.67 795 476.83 846.5 478.5 861.5 C 480.17 876.5 482.83 883.83 485.5 891.5 C 488.17 899.17 492.83 906 494.5 907.5 C 496.17 909 498.67 918.17 495.5 900.5 C 492.33 882.83 478.33 808 475.5 801.5 Z M 612.5 407.5 C 592.33 400.33 538.83 438.17 514.5 449.5 C 490.17 460.83 477 469.33 466.5 475.5 C 456 481.67 457.67 477.83 451.5 486.5 C 445.33 495.17 433.83 520.33 429.5 527.5 C 425.17 534.67 422.67 521.67 425.5 529.5 C 428.33 537.33 440.67 558 446.5 574.5 C 452.33 591 456.67 608.5 460.5 628.5 C 464.33 648.5 467.17 666.67 469.5 694.5 C 471.83 722.33 473.67 787 474.5 795.5 C 475.33 804 473.67 757.5 474.5 745.5 C 475.33 733.5 477.17 729.67 479.5 723.5 C 481.83 717.33 481 717 488.5 708.5 C 496 700 513.5 682.33 524.5 672.5 C 535.5 662.67 535.67 660.67 554.5 649.5 C 573.33 638.33 623.17 621.67 637.5 605.5 C 651.83 589.33 640.83 571.33 640.5 552.5 C 640.17 533.67 640.17 516.67 635.5 492.5 C 630.83 468.33 632.67 414.67 612.5 407.5 Z"/>
    <path fill="#007a39" stroke="#007a39" d="M 71.5 576.5 C 71 576.33 71.83 583.83 72.5 585.5 C 73.17 587.17 75.67 588 75.5 586.5 C 75.33 585 72 576.67 71.5 576.5 Z M 425.5 534.5 C 419.5 544.5 405.17 593 400.5 610.5 C 395.83 628 397.5 627.33 397.5 639.5 C 397.5 651.67 397.5 667.17 400.5 683.5 C 403.5 699.83 412.33 727.83 415.5 737.5 C 418.67 747.17 416 732.83 419.5 741.5 C 423 750.17 426.67 766.5 436.5 789.5 C 446.33 812.5 470.83 864 478.5 879.5 C 486.17 895 483 888.67 482.5 882.5 C 482 876.33 477.33 868.83 475.5 842.5 C 473.67 816.17 473.67 758.17 471.5 724.5 C 469.33 690.83 466.33 664.5 462.5 640.5 C 458.67 616.5 452.83 595.5 448.5 580.5 C 444.17 565.5 440.33 558.17 436.5 550.5 C 432.67 542.83 431.5 524.5 425.5 534.5 Z M 259.5 345.5 C 258.67 345.17 261.17 351.83 262.5 353.5 C 263.83 355.17 268 356.83 267.5 355.5 C 267 354.17 260.33 345.83 259.5 345.5 Z M 121.5 197.5 C 120.67 198 114 208 113.5 209.5 C 113 211 117.17 208.5 118.5 206.5 C 119.83 204.5 122.33 197 121.5 197.5 Z"/>
    <path fill="#007d38" stroke="#007d38" d="M 472.5 791.5 C 472.5 796.17 475 823.67 475.5 824.5 C 476 825.33 476 802 475.5 796.5 C 475 791 472.5 786.83 472.5 791.5 Z M 470.5 759.5 C 470 758.5 470 778.5 470.5 783.5 C 471 788.5 473.5 793.5 473.5 789.5 C 473.5 785.5 471 760.5 470.5 759.5 Z M 74.5 590.5 C 74.67 592.33 78 601.5 78.5 601.5 C 79 601.5 78.17 592.33 77.5 590.5 C 76.83 588.67 74.33 588.67 74.5 590.5 Z M 416.5 517.5 C 407.5 517.67 393.67 544.17 385.5 556.5 C 377.33 568.83 372 580 367.5 591.5 C 363 603 359.67 611.33 358.5 625.5 C 357.33 639.67 357 658 360.5 676.5 C 364 695 372.5 719.17 379.5 736.5 C 386.5 753.83 390.5 760.5 402.5 780.5 C 414.5 800.5 437.17 835.83 451.5 856.5 C 465.83 877.17 481.83 896.5 488.5 904.5 C 495.17 912.5 493 911.67 491.5 904.5 C 490 897.33 482 867.67 479.5 861.5 C 477 855.33 485.83 885.5 476.5 867.5 C 467.17 849.5 436 784.5 423.5 753.5 C 411 722.5 405.67 697.67 401.5 681.5 C 397.33 665.33 398.5 668 398.5 656.5 C 398.5 645 398.5 628.5 401.5 612.5 C 404.5 596.5 412.17 572.83 416.5 560.5 C 420.83 548.17 422.17 535 427.5 538.5 C 432.83 542 446.5 578.67 448.5 581.5 C 450.5 584.33 444.83 566.17 439.5 555.5 C 434.17 544.83 425.5 517.33 416.5 517.5 Z M 68.5 348.5 C 68.67 346 66.17 346 65.5 348.5 C 64.83 351 64 363.5 64.5 363.5 C 65 363.5 68.33 351 68.5 348.5 Z M 113.5 212.5 C 113.33 212 107.5 218.67 106.5 220.5 C 105.5 222.33 106.33 224.83 107.5 223.5 C 108.67 222.17 113.67 213 113.5 212.5 Z M 198.5 201.5 C 198 201.33 197.17 211.33 197.5 213.5 C 197.83 215.67 200.33 216.5 200.5 214.5 C 200.67 212.5 199 201.67 198.5 201.5 Z M 159.5 140.5 C 159 140.5 150.67 151.33 149.5 153.5 C 148.33 155.67 150.83 155.67 152.5 153.5 C 154.17 151.33 160 140.5 159.5 140.5 Z M 165.5 130.5 C 164.83 130.5 159.83 136.33 159.5 137.5 C 159.17 138.67 162.5 138.67 163.5 137.5 C 164.5 136.33 166.17 130.5 165.5 130.5 Z M 211.5 90.5 C 210.33 90.83 202.83 95.83 202.5 96.5 C 202.17 97.17 208 95.5 209.5 94.5 C 211 93.5 212.67 90.17 211.5 90.5 Z"/>
  </g>
</svg>
